<svg width="50" height="36" viewBox="0 0 50 36" fill="none" xmlns="http://www.w3.org/2000/svg">
<path d="M0.0145869 17.6604C0.0323272 17.6782 0.055981 17.8379 0.0737213 18.0154C0.0914617 18.1929 0.162423 18.6071 0.227471 18.9325C0.292519 19.258 0.375307 19.7491 0.410787 20.0272C0.446268 20.3053 0.505402 20.5774 0.53497 20.6366C0.564537 20.6958 0.576364 20.7668 0.558623 20.7964C0.523143 20.8555 0.747853 21.5478 0.954824 21.9798C1.01987 22.1277 1.10266 22.3525 1.13223 22.4827C1.19136 22.7371 1.37468 23.1631 1.53434 23.3998C1.58756 23.4827 1.68218 23.6779 1.74131 23.8436C1.90689 24.2755 2.60468 25.1749 2.78208 25.1749C2.81165 25.1749 2.8353 25.2104 2.8353 25.2518C2.8353 25.3465 4.47924 26.9973 4.64481 27.0683C4.78674 27.1275 5.08241 27.5594 5.11789 27.7606C5.15928 27.9677 5.11789 28.7783 5.05284 29.1096C5.02919 29.2043 5.00553 29.3818 4.99371 29.4942C4.98188 29.6067 4.97005 29.7013 4.96414 29.7013C4.95231 29.7013 4.91683 29.8966 4.88726 30.1155C4.86952 30.2516 4.68029 30.8847 4.60933 31.0622C4.53246 31.2397 4.48515 31.6539 4.4615 32.2811C4.42602 33.1095 4.20722 34.1627 3.95294 34.7425C3.82285 35.0325 3.8465 35.1981 4.05347 35.5591C4.30775 35.9969 4.69803 36.1153 5.10015 35.8845C5.20659 35.8253 5.38399 35.7603 5.49635 35.7366C6.17048 35.6064 6.91557 35.2751 7.69615 34.7603C7.88538 34.6301 8.05687 34.5236 8.06869 34.5236C8.08052 34.5236 8.32297 34.3698 8.61273 34.1745C8.90249 33.9852 9.40513 33.7012 9.72446 33.5473C10.0497 33.3935 10.4341 33.2041 10.5819 33.1272C10.9012 32.9675 11.4216 32.7722 11.7055 32.713C11.9065 32.6716 12.7935 32.6775 13.1543 32.719C13.3553 32.7426 14.266 32.79 15.6379 32.8373C16.6373 32.8728 16.8975 32.8905 17.9441 32.9911C18.6124 33.0503 18.8785 33.0858 19.7477 33.2515C20.5993 33.4112 20.889 33.4586 21.1847 33.4882C21.3444 33.5059 21.782 33.5592 22.1604 33.6065C22.6512 33.6716 23.1657 33.6893 23.9463 33.6716C24.9989 33.6479 25.1112 33.6361 25.3064 33.5592C25.3537 33.5414 25.5547 33.5118 25.7499 33.4941C25.945 33.4822 26.1875 33.429 26.2821 33.3817C26.7079 33.1686 27.0922 33.0207 27.1928 33.0385C27.2341 33.0444 27.2519 33.0266 27.2341 32.9911C27.1987 32.9379 27.4116 32.8314 27.5062 32.855C27.5357 32.861 27.5535 32.8373 27.5535 32.8077C27.5535 32.7367 27.8018 32.6302 28.0325 32.6006C28.1212 32.5888 28.3045 32.5237 28.4464 32.4468C28.5883 32.3699 28.7539 32.3166 28.8071 32.3284C28.8663 32.3344 28.9136 32.3107 28.9136 32.2811C28.9136 32.2456 29.0318 32.1628 29.1797 32.0918C29.3275 32.0208 29.4458 31.9438 29.4458 31.9143C29.4458 31.8847 29.4872 31.861 29.5404 31.861C29.5936 31.861 29.6764 31.8137 29.7237 31.7545C29.771 31.7012 29.7888 31.6894 29.771 31.7308C29.7414 31.7841 29.8183 31.7663 29.9721 31.6835C30.1081 31.6184 30.2027 31.5356 30.185 31.5119C30.1672 31.4823 30.2145 31.4705 30.2855 31.4882C30.386 31.506 30.3978 31.5001 30.3446 31.4587C30.2796 31.4172 30.2914 31.3995 30.386 31.3699C30.4688 31.3522 30.4984 31.364 30.4747 31.4054C30.457 31.4468 30.4984 31.4113 30.5752 31.3285C30.6521 31.2397 30.7172 31.2101 30.729 31.2456C30.7467 31.2989 30.8059 31.293 30.936 31.2279C31.0365 31.1746 31.1962 31.1155 31.3026 31.0859C31.4031 31.0622 31.752 30.9735 32.0773 30.8906C32.8933 30.6776 33.1417 30.6835 36.4295 30.9676C36.9854 31.0149 38.109 31.0031 38.6648 30.9498C39.4572 30.8729 39.6938 30.8433 40.2082 30.7545C40.5157 30.7013 40.8173 30.6185 40.8705 30.5711C40.9297 30.5238 40.977 30.5001 40.977 30.5297C40.977 30.5534 41.0184 30.5415 41.0657 30.5001C41.113 30.4646 41.1721 30.4469 41.2017 30.4646C41.2313 30.4824 41.3318 30.4587 41.4264 30.4173C41.521 30.3699 41.6511 30.3226 41.7162 30.3108C41.7812 30.2989 41.8463 30.2753 41.864 30.2575C41.8817 30.2339 41.9586 30.2043 42.0414 30.1984C42.1242 30.1865 42.207 30.151 42.2247 30.1214C42.2484 30.0978 42.3371 30.0623 42.4317 30.0563C42.6978 30.0268 42.8693 29.9617 42.8693 29.8848C42.8693 29.8493 42.8988 29.8611 42.9284 29.9084C42.9639 29.9676 42.9875 29.9735 42.9875 29.9203C42.9875 29.8848 43.0585 29.8493 43.1413 29.8493C43.23 29.8493 43.3364 29.8019 43.3838 29.7427C43.4311 29.6895 43.4547 29.6777 43.4311 29.7191C43.4015 29.7783 43.4311 29.7842 43.5612 29.7546C43.78 29.7013 43.8213 29.6717 43.7859 29.6126C43.7681 29.583 43.8154 29.5416 43.8864 29.5179C43.9633 29.4942 44.0283 29.5061 44.0401 29.5416C44.052 29.5889 44.1407 29.5712 44.3003 29.4883C44.4304 29.4232 44.525 29.3522 44.5073 29.3404C44.4896 29.3226 44.4009 29.3522 44.3122 29.4114C44.188 29.5002 44.1584 29.5002 44.1821 29.4351C44.1939 29.3877 44.3772 29.2871 44.5901 29.2161C45.0099 29.0682 45.0691 29.0564 44.939 29.1392C44.8798 29.1806 44.8739 29.1984 44.9272 29.1984C44.9686 29.1984 45.0159 29.157 45.0336 29.1096C45.0573 29.0623 45.1164 29.0209 45.1696 29.0209C45.2287 29.0209 45.3234 28.9795 45.3884 28.9262C45.4948 28.8434 45.4948 28.8375 45.3648 28.9025C45.1519 29.0031 45.14 28.9262 45.347 28.8197C45.554 28.7132 45.6131 28.7014 45.5599 28.7842C45.5422 28.8138 45.6604 28.7605 45.826 28.654C45.9857 28.5534 46.1098 28.4588 46.098 28.441C46.0803 28.4292 45.9975 28.4706 45.9029 28.5298C45.4712 28.8315 45.4771 28.7665 45.9147 28.4351C46.0921 28.299 46.2399 28.2044 46.2399 28.2221C46.2399 28.2399 46.2932 28.228 46.3582 28.1925C46.4233 28.157 46.4587 28.0978 46.441 28.0623C46.4114 28.0209 46.4292 28.015 46.4706 28.0446C46.512 28.0683 46.6007 28.0387 46.6716 27.9677C46.7426 27.8967 46.8254 27.8434 46.8609 27.8434C46.8904 27.8375 46.9259 27.7842 46.9259 27.7132C46.9318 27.6422 46.9614 27.5712 46.9909 27.5476C47.0856 27.4825 47.3044 27.0624 47.2748 27.0032C47.2511 26.9736 47.2925 26.95 47.3576 26.95C47.4285 26.95 47.4818 26.9204 47.4818 26.8908C47.4818 26.8198 47.7006 26.4944 47.8366 26.3583C47.9194 26.2754 47.9962 26.1275 48.1263 25.808C48.1559 25.737 48.2505 25.5181 48.3392 25.3228C48.4279 25.1276 48.5225 24.9145 48.5462 24.8495C48.5757 24.7844 48.6763 24.5418 48.7768 24.3169C48.8773 24.0862 49.0252 23.6365 49.108 23.3111C49.1967 22.9856 49.3268 22.5064 49.4036 22.246C49.4805 21.9857 49.5633 21.6543 49.5869 21.5064C49.6106 21.3585 49.6402 21.1751 49.652 21.0922C49.6638 21.0094 49.6875 20.8792 49.6993 20.7964C49.7111 20.7135 49.7466 20.4946 49.788 20.3053C49.8826 19.8319 49.9122 19.4118 49.9299 18.5184C49.9418 18.0923 49.9654 17.1752 49.9891 16.477C50.0245 15.2286 49.9713 14.2523 49.8649 14.1753C49.7821 14.1221 49.7289 13.8617 49.7821 13.7907C49.8708 13.6783 49.8885 13.347 49.8117 13.3174C49.7703 13.2996 49.7348 13.2405 49.7407 13.1813C49.7407 13.1221 49.723 12.8322 49.6993 12.5423C49.6756 12.2464 49.652 11.85 49.6461 11.6547C49.6402 11.4595 49.6047 11.2406 49.5633 11.1696C49.4746 11.0098 49.4746 10.9565 49.5574 11.0039C49.6224 11.0453 49.5869 10.7258 49.4923 10.4418C49.4687 10.3589 49.4036 10.14 49.3445 9.95658C49.2913 9.77316 49.2085 9.58974 49.1671 9.55423C49.1198 9.51873 49.102 9.44773 49.1139 9.40631C49.1316 9.35898 49.0725 9.11638 48.9838 8.86196C48.8951 8.60753 48.8064 8.30576 48.7768 8.19334C48.7532 8.08092 48.7177 7.92117 48.6999 7.83833C48.6467 7.60757 48.2328 6.83245 48.1795 6.86795C48.1559 6.88571 48.1322 6.85612 48.1322 6.79695C48.1322 6.7437 48.0672 6.63719 47.9785 6.56027C47.8957 6.48336 47.8484 6.41827 47.8661 6.41827C47.9667 6.41827 46.577 4.70828 46.0625 4.20534C45.7373 3.88583 45.4712 3.60773 45.4712 3.5959C45.4712 3.51898 45.276 3.39473 45.2051 3.42431C45.1578 3.44206 45.1223 3.42431 45.1341 3.39473C45.146 3.33556 44.667 2.93321 44.3181 2.70245C44.2116 2.63736 43.6262 2.34743 43.1236 2.12259C42.887 2.01608 42.7983 2.022 42.9875 2.12851L43.1354 2.21726L42.958 2.17584C42.8575 2.15809 42.6741 2.093 42.544 2.03383C42.4139 1.97467 42.2543 1.92141 42.1892 1.92141C42.071 1.9155 42.071 1.90958 42.1833 1.86816C42.2898 1.82674 42.2779 1.81491 42.1005 1.75574C41.8699 1.6729 41.7162 1.66699 41.9172 1.74982C41.9941 1.77941 42.0473 1.82083 42.0296 1.83266C41.9941 1.87408 41.6156 1.74391 41.5388 1.66699C41.4974 1.62557 41.5151 1.61965 41.5861 1.64332C41.6511 1.66699 41.6807 1.66107 41.657 1.62557C41.6393 1.59598 41.5328 1.57232 41.4323 1.58415C41.3022 1.59007 41.249 1.57232 41.2608 1.51906C41.2667 1.47764 41.2431 1.44806 41.2017 1.45398C41.1603 1.45989 41.0243 1.41848 40.8942 1.36522C40.77 1.30605 40.6281 1.27647 40.5867 1.29422C40.5394 1.31197 40.5039 1.30014 40.5039 1.26464C40.5039 1.22913 40.4684 1.21138 40.4211 1.22913C40.3738 1.24689 40.3265 1.23505 40.3088 1.19363C40.2969 1.15813 40.1905 1.12855 40.0722 1.13446C39.954 1.14038 39.8357 1.11671 39.8179 1.08713C39.8002 1.05754 39.8357 1.05163 39.8948 1.06938C39.9835 1.09896 39.9835 1.09305 39.9126 1.04571C39.8534 0.998375 39.8061 0.998375 39.7529 1.04571C39.6938 1.09305 39.676 1.08121 39.676 1.01613C39.676 0.921455 39.4158 0.826784 39.3212 0.885954C39.2857 0.909621 39.2621 0.897787 39.2621 0.87412C39.2621 0.826784 39.061 0.791283 38.7121 0.779449C38.6589 0.773532 38.6116 0.749865 38.6116 0.726197C38.6116 0.702529 38.5347 0.678862 38.4342 0.678862C38.3396 0.678862 38.1504 0.637443 38.0203 0.584191C37.8902 0.530939 37.7305 0.501354 37.6655 0.519105C37.6063 0.536856 37.5472 0.525022 37.5354 0.495437C37.5176 0.436268 36.7134 0.276511 36.1989 0.223259C35.9801 0.205508 35.8914 0.217342 35.8914 0.264678C35.8914 0.31793 35.8441 0.306096 35.7436 0.24101C35.649 0.181841 35.5957 0.170007 35.5957 0.211425C35.5957 0.246927 35.5544 0.264678 35.507 0.246927C35.4597 0.223259 35.4065 0.235093 35.3888 0.264678C35.3296 0.365265 35.2232 0.329764 35.2646 0.229176C35.2942 0.158173 35.2764 0.140422 35.2055 0.170007C35.1582 0.187758 35.099 0.205508 35.0872 0.205508C35.0695 0.205508 35.0695 0.229176 35.0872 0.258761C35.1049 0.282428 35.0517 0.294262 34.9748 0.276511C34.8921 0.264678 34.827 0.235093 34.827 0.211425C34.827 0.187758 34.7383 0.170007 34.6319 0.16409C34.4781 0.152256 34.4663 0.16409 34.5609 0.205508C34.6614 0.246927 34.6496 0.258761 34.484 0.258761C34.3658 0.264678 34.3007 0.24101 34.3244 0.205508C34.3421 0.170007 34.3303 0.146339 34.3007 0.146339C34.2652 0.146339 34.2357 0.170007 34.2357 0.199592C34.2357 0.223259 34.1706 0.235093 34.0937 0.223259C34.0169 0.205509 33.9341 0.223259 33.9163 0.258761C33.8927 0.288345 33.8395 0.306096 33.7922 0.282428C33.7448 0.264678 33.7034 0.276512 33.7034 0.306096C33.7034 0.341598 33.5911 0.400767 33.4492 0.436268C33.3132 0.477687 33.1653 0.542773 33.1239 0.578274C33.0825 0.613776 32.9643 0.649277 32.8578 0.661111C32.7573 0.672945 32.6449 0.708446 32.6154 0.738031C32.5326 0.820868 32.3434 0.814951 32.3434 0.726197C32.3434 0.690696 32.3611 0.678862 32.3788 0.696613C32.4025 0.714363 32.4675 0.708446 32.5326 0.672945C32.5976 0.637443 32.639 0.596025 32.6213 0.584191C32.5799 0.542773 30.9537 1.09305 30.936 1.15813C30.9241 1.18772 30.8591 1.21138 30.7881 1.21138C30.7172 1.21138 30.3624 1.33564 30.0076 1.48356C29.6468 1.63149 29.4517 1.73207 29.564 1.71432L29.771 1.67882L29.5522 1.79124C29.4339 1.85633 29.2743 1.92141 29.1915 1.94508C29.1087 1.96283 28.9964 1.99833 28.9372 2.022C28.8663 2.04567 28.8485 2.03975 28.8781 1.99242C28.9077 1.94508 28.8899 1.93325 28.8308 1.95692C28.7776 1.97467 28.7362 2.01608 28.7362 2.04567C28.7362 2.07525 28.677 2.09892 28.6002 2.09892C28.5233 2.09892 28.3104 2.19359 28.1212 2.30601C27.9319 2.41844 27.7545 2.51311 27.7309 2.51311C27.7013 2.51311 27.6303 2.57227 27.5712 2.64919C27.5121 2.72611 27.3288 2.8622 27.1573 2.95096C26.9858 3.04563 26.8616 3.14622 26.8793 3.16988C26.8971 3.19947 26.8675 3.22314 26.8202 3.22314C26.7729 3.22314 26.6665 3.2823 26.5896 3.35331C26.5127 3.43023 26.3885 3.53082 26.3117 3.57815C26.2348 3.62549 26.1224 3.71424 26.0633 3.77341C26.0042 3.83258 25.9214 3.86216 25.8859 3.83849C25.8445 3.80891 25.8386 3.82074 25.8681 3.874C25.9036 3.93317 25.8918 3.945 25.8208 3.91541C25.7617 3.89175 25.7026 3.91541 25.6671 3.9805C25.6316 4.03375 25.602 4.0515 25.602 4.02192C25.602 3.9805 25.5843 3.9805 25.5547 4.02192C25.5311 4.0515 25.4187 4.12842 25.3064 4.18168C25.194 4.24085 24.9279 4.39468 24.715 4.53077C24.0705 4.93904 23.8753 5.02779 22.8819 5.34731C22.4443 5.49523 22.1131 5.54848 21.2261 5.6254C21.1137 5.63132 20.8062 5.66091 20.546 5.68457C20.2859 5.70824 19.9784 5.73191 19.866 5.73782C19.7536 5.74374 19.6295 5.75558 19.5999 5.76149C19.5644 5.77333 19.4402 5.77924 19.3161 5.77924C19.1978 5.77924 19.0973 5.80291 19.0973 5.82658C19.0973 5.85025 19.0026 5.85616 18.8844 5.84433C18.772 5.8325 18.6892 5.84433 18.707 5.87391C18.7247 5.9035 18.571 5.92125 18.3699 5.91533C18.1688 5.90942 17.9678 5.93308 17.9205 5.96858C17.8673 6.01 17.8259 6.00409 17.7726 5.92717C17.7253 5.87391 17.6721 5.85025 17.6426 5.87983C17.613 5.90942 17.3173 5.94492 16.9921 5.96267C16.6609 5.9745 16.3712 6.00409 16.3416 6.02184C16.312 6.03959 16.0873 6.06917 15.8449 6.08692C15.6024 6.10467 15.3481 6.13426 15.2831 6.14609C15.218 6.15793 15.017 6.18751 14.8396 6.20526C14.3251 6.27035 14.1832 6.30585 14.2246 6.36502C14.2423 6.3946 14.1832 6.41827 14.0945 6.41827C14.0058 6.41827 13.852 6.44194 13.7515 6.47152C13.58 6.52478 13.0478 6.60169 11.7942 6.74962C11.6286 6.76737 11.1141 6.85612 10.641 6.95079C10.168 7.04546 9.58253 7.14013 9.34008 7.1638C8.78422 7.21114 8.76648 7.21705 8.48263 7.29397C8.35254 7.32948 8.15148 7.37089 8.03913 7.38864C7.79076 7.43006 7.61336 7.4774 6.7973 7.70816C6.45432 7.80283 6.09952 7.90342 6.0049 7.92117C5.9162 7.94484 5.72106 8.01584 5.57914 8.08684C5.4313 8.15193 5.29529 8.19335 5.27755 8.16968C5.25981 8.15193 5.2125 8.17559 5.17702 8.21701C5.08832 8.32943 4.23678 8.80279 4.29001 8.70812C4.31366 8.67262 4.27227 8.69628 4.2013 8.7732C4.13034 8.84421 4.04755 8.89154 4.0239 8.87379C3.99433 8.86196 3.95885 8.89746 3.94111 8.96254C3.92337 9.02763 3.86424 9.08088 3.8051 9.08088C3.68683 9.08088 3.38525 9.29981 3.11323 9.58382C3.00679 9.69033 2.82347 9.88558 2.69929 10.0158C2.5692 10.1459 2.40953 10.3708 2.33857 10.5128C2.13751 10.9033 2.0429 11.0335 1.96602 11.0335C1.93054 11.0335 1.88324 11.1163 1.85958 11.2169C1.83593 11.3175 1.74131 11.4832 1.65261 11.5897C1.558 11.6902 1.42199 11.921 1.3392 12.0985C1.26232 12.276 1.1204 12.5837 1.0317 12.779C0.942997 12.9742 0.848382 13.1991 0.818814 13.2819C0.795161 13.3647 0.718286 13.5777 0.647325 13.7552C0.416701 14.3351 0.274778 14.8558 0.20973 15.3232C0.19199 15.4179 0.150596 15.6723 0.115115 15.8853C0.0441541 16.2936 -0.0327206 17.6131 0.0145869 17.6604ZM1.61122 17.1575C1.65853 17.1101 1.71175 16.8735 1.7354 16.5835C1.77679 16.0096 1.96011 15.1043 2.09612 14.7789C2.14934 14.6546 2.24396 14.3943 2.309 14.199C2.40953 13.9032 2.68155 13.2878 2.90626 12.85C2.95357 12.7553 2.92991 12.6192 2.87669 12.6961C2.82939 12.779 2.53371 13.4002 2.48049 13.5422C2.44501 13.6369 2.40362 13.6961 2.38588 13.6842C2.34448 13.6428 2.58694 13.0393 2.69338 12.921C2.74068 12.8736 2.77617 12.8026 2.77617 12.773C2.77617 12.708 3.0127 12.2583 3.06592 12.2168C3.16645 12.1458 3.37342 11.7317 3.34977 11.6666C3.33203 11.6252 3.37342 11.5246 3.43256 11.4417C3.49169 11.3648 3.54491 11.3234 3.54491 11.353C3.54491 11.3826 3.4976 11.4595 3.43847 11.5246C3.3616 11.6192 3.35568 11.637 3.42664 11.6133C3.47395 11.6015 3.54491 11.5246 3.58631 11.4476C3.62179 11.3766 3.68092 11.2997 3.71049 11.2761C3.74006 11.2583 3.81693 11.1577 3.87607 11.0571C4.14217 10.6193 4.57976 10.2406 5.15928 9.94475C5.27755 9.87967 5.37808 9.81458 5.37808 9.79091C5.37808 9.73766 5.6087 9.64891 5.99899 9.54832C6.15865 9.51282 6.34788 9.44773 6.41293 9.41223C6.47798 9.37673 6.57259 9.34714 6.6199 9.34123C6.66721 9.33531 6.82687 9.27614 6.97471 9.20514C7.1935 9.10455 7.21124 9.0868 7.06341 9.11047C6.96288 9.12822 7.03384 9.0868 7.21124 9.02763C7.38865 8.96254 7.5424 8.93296 7.55422 8.96846C7.58379 9.0513 7.68432 9.03355 7.67249 8.95071C7.66067 8.90929 7.7198 8.86787 7.80259 8.86196C7.93268 8.85012 7.9386 8.85012 7.83216 8.89746C7.72571 8.94479 7.72571 8.95663 7.82033 8.95663C7.87946 8.96254 7.9386 8.92113 7.96225 8.86787C7.9859 8.79687 8.00956 8.79095 8.03913 8.85012C8.07461 8.90338 8.11009 8.89746 8.19288 8.82054C8.26384 8.74362 8.34662 8.72587 8.47672 8.74954C8.65412 8.78504 9.26321 8.70812 9.45835 8.62528C9.50566 8.60753 9.59436 8.5957 9.65349 8.60161C9.83681 8.62528 10.369 8.48327 10.44 8.39452C10.4991 8.3176 10.5109 8.3176 10.5405 8.3886C10.5642 8.44777 10.6292 8.46552 10.7416 8.44186L10.9071 8.40635L10.7593 8.37085C10.641 8.34127 10.6824 8.32352 10.9545 8.27618C11.1378 8.24068 11.2915 8.23476 11.2915 8.25843C11.2915 8.2821 11.2206 8.3176 11.1259 8.32943C11.0372 8.34127 11.1673 8.34127 11.4157 8.32943C12.0662 8.29393 12.4801 8.22293 12.5393 8.12826C12.5747 8.06909 12.5925 8.06317 12.5925 8.11643C12.5925 8.15784 12.622 8.19335 12.6575 8.19335C12.6871 8.19335 12.6989 8.16376 12.6753 8.12826C12.6516 8.08092 12.6753 8.07501 12.764 8.10459C12.8349 8.12826 12.8881 8.11643 12.8881 8.08092C12.8881 8.04542 12.9355 8.01584 12.9887 8.01584C13.0774 8.01584 13.0833 8.02767 13.0064 8.07501C12.9295 8.12234 12.9295 8.13418 13.0182 8.13418C13.0715 8.13418 13.1247 8.10459 13.1365 8.06909C13.1483 8.03359 13.3671 7.9685 13.6273 7.91525C13.9053 7.86791 14.1241 7.79099 14.1773 7.73183C14.2187 7.67857 14.2364 7.66674 14.2128 7.71407C14.1595 7.82058 14.7036 7.77916 15.7857 7.60757C16.1938 7.54248 16.7201 7.4774 16.9507 7.47148C17.2286 7.45965 17.3883 7.43006 17.4119 7.37681C17.4238 7.34131 17.4711 7.30581 17.5125 7.30581C17.5657 7.30581 17.5657 7.32356 17.5006 7.37089C17.4238 7.43006 17.4238 7.43006 17.5006 7.4064C17.5479 7.38864 17.6426 7.35314 17.7017 7.32948C17.7845 7.29989 17.8022 7.30581 17.7726 7.35314C17.7431 7.40048 17.7726 7.42415 17.8495 7.42415C17.9205 7.42415 17.9737 7.39456 17.9737 7.35906C17.9737 7.32356 18.0151 7.30581 18.0624 7.32948C18.1097 7.34723 18.1511 7.33539 18.1511 7.30581C18.1511 7.27031 18.2102 7.24664 18.2812 7.24664C18.3758 7.24664 18.3936 7.26439 18.3403 7.29989C18.2871 7.32948 18.3285 7.34723 18.4586 7.35314C18.636 7.35906 18.6419 7.34723 18.5473 7.27622C18.4527 7.21114 18.4645 7.20522 18.636 7.21705C18.7424 7.22889 18.8666 7.24072 18.908 7.24072C18.9494 7.24664 18.9672 7.27031 18.9494 7.30581C18.9317 7.33539 18.9435 7.36498 18.9731 7.36498C19.0086 7.36498 19.0381 7.32356 19.0381 7.27031C19.0381 7.1993 19.0913 7.18155 19.2924 7.19339C19.4343 7.20522 19.5822 7.18747 19.6295 7.15788C19.6886 7.12238 19.7004 7.13422 19.6709 7.20522C19.6413 7.28214 19.6649 7.30581 19.795 7.29989C19.8837 7.29989 19.9192 7.28214 19.8778 7.26439C19.7241 7.20522 19.8187 7.15197 20.1025 7.14605C20.2681 7.14013 20.3864 7.15788 20.3746 7.18155C20.3568 7.20522 20.3982 7.22889 20.4633 7.22889C20.5283 7.2348 20.5638 7.21705 20.546 7.18155C20.4869 7.0928 20.8713 7.0928 20.9304 7.18747C20.9482 7.21114 21.025 7.20522 21.1078 7.16972C21.3444 7.07505 21.3976 7.06913 22.1309 7.04546C22.5093 7.03363 22.8582 6.99813 22.8996 6.96854C22.9351 6.93304 23.012 6.90937 23.0593 6.90937C23.1834 6.90937 23.8931 6.71412 24.0232 6.64311C24.0823 6.61353 24.1769 6.57803 24.2419 6.56619C24.5435 6.50702 25.7499 5.85616 26.2229 5.48931C26.5127 5.26447 26.8793 5.00413 27.0331 4.90946C27.1868 4.81479 27.2933 4.7142 27.2815 4.69053C27.2637 4.66686 27.2874 4.66095 27.3347 4.67278C27.3761 4.69053 27.4766 4.65503 27.5535 4.58403C27.6303 4.51894 27.7131 4.46569 27.7486 4.46569C27.7782 4.46569 27.7723 4.42427 27.7309 4.37693C27.6895 4.32368 27.6717 4.26451 27.6954 4.24085C27.719 4.21718 27.7723 4.24676 27.8137 4.30001C27.8787 4.39468 27.926 4.37693 28.2986 4.10476C28.7716 3.75566 29.1856 3.53082 30.0016 3.19355C30.3269 3.05746 30.6048 2.90954 30.6225 2.8622C30.6403 2.79712 30.6285 2.7912 30.5575 2.85037C30.4865 2.90954 30.4688 2.90954 30.4688 2.83854C30.4688 2.7912 30.4925 2.76753 30.522 2.78528C30.5457 2.80303 30.5693 2.7912 30.5693 2.7557C30.5693 2.7202 30.6107 2.70836 30.658 2.72611C30.7053 2.74978 30.7467 2.73795 30.7467 2.71428C30.7467 2.6847 30.8059 2.65511 30.8768 2.64919C30.9537 2.64328 31.0897 2.62553 31.1902 2.60778C31.3617 2.57227 31.3617 2.57227 31.1784 2.63144C31.072 2.66695 30.9714 2.7202 30.9537 2.74978C30.936 2.78528 30.865 2.80895 30.8 2.80895C30.7349 2.80895 30.6994 2.83854 30.7172 2.86812C30.7408 2.90954 30.794 2.90362 30.8768 2.8622C30.9478 2.8267 31.1784 2.73203 31.3913 2.66103C31.6042 2.59003 31.9649 2.45394 32.1955 2.36518C32.6154 2.20543 32.846 2.12851 33.5083 1.93916C33.7212 1.88591 33.8809 1.80308 33.8809 1.76166C33.8809 1.72024 33.9104 1.68474 33.9459 1.68474C33.9755 1.68474 33.9873 1.70841 33.9696 1.74391C33.9518 1.77349 33.9636 1.80308 33.9932 1.80308C34.0405 1.80308 34.8861 1.66699 35.1818 1.60782C35.3296 1.57823 36.8967 1.7084 36.8967 1.74982C36.8967 1.77941 36.9618 1.79124 37.0386 1.76757C37.1214 1.74982 37.2397 1.76757 37.3225 1.82083C37.3934 1.86816 37.5649 1.90958 37.695 1.9155C37.8251 1.92141 37.9434 1.951 37.9611 1.9865C37.9848 2.01608 38.0439 2.02792 38.0971 2.00425C38.1563 1.98058 38.1977 1.99833 38.1977 2.03975C38.1977 2.08709 38.2509 2.09892 38.3514 2.07525C38.446 2.05159 38.4874 2.0575 38.4638 2.093C38.446 2.13442 38.4638 2.14034 38.517 2.12259C38.5702 2.10484 38.6116 2.11667 38.6116 2.14626C38.6116 2.18176 38.7121 2.22909 38.8304 2.25276C38.9546 2.27643 39.4158 2.41843 39.8593 2.57819C40.4803 2.7912 40.6872 2.83854 40.7404 2.7912C40.7996 2.73795 40.8055 2.73795 40.7759 2.7912C40.7523 2.83262 40.7464 2.86812 40.7582 2.86812C40.77 2.86812 41.0065 2.95096 41.2786 3.05154C41.5506 3.14622 42.0532 3.32372 42.3962 3.44206C43.1768 3.70832 43.8213 4.03967 44.0815 4.31185C44.1111 4.34735 44.2471 4.45385 44.3772 4.55444C44.6965 4.79112 45.5599 5.66682 45.8851 6.08692C46.033 6.27626 46.2222 6.51294 46.305 6.61944C46.7721 7.17563 47.4699 8.57203 47.6592 9.31756C47.7301 9.59565 47.8543 10.0276 47.9312 10.2879C48.2505 11.3116 48.3747 12.1636 48.4161 13.5482C48.487 16.1398 48.4102 18.7905 48.2209 20.0863C48.1795 20.4059 48.014 21.1691 47.9726 21.2283C47.9548 21.2579 47.9312 21.3466 47.9194 21.4117C47.9134 21.4827 47.8484 21.7372 47.7774 21.9798C47.7065 22.2223 47.6237 22.5419 47.5882 22.6898C47.5527 22.8377 47.5054 22.9797 47.4758 23.0152C47.4463 23.0448 47.4226 23.1217 47.4226 23.1809C47.4226 23.2401 47.3162 23.5655 47.1861 23.8909C46.7662 24.9382 46.5829 25.3169 46.3937 25.5299C46.3227 25.6127 46.2163 25.7488 46.1572 25.8435C45.9916 26.1157 45.004 27.1866 44.9212 27.1866C44.9035 27.1866 44.6729 27.3168 44.4127 27.4766C43.9455 27.7665 43.2241 28.1333 43.1295 28.1333C43.0999 28.1333 42.8634 28.228 42.5973 28.3404C41.8463 28.6659 40.0781 29.2516 39.7588 29.2812C39.5991 29.299 39.2148 29.3404 38.9073 29.3759C38.3573 29.441 37.1037 29.4587 36.6306 29.4114C36.5005 29.3996 36.1516 29.37 35.85 29.3463C35.5484 29.3226 34.9926 29.2694 34.6082 29.228C33.6975 29.1333 32.5917 29.1333 32.1068 29.2221C31.0542 29.4292 29.2033 30.1333 28.2335 30.7013C27.4766 31.1451 26.3353 31.6953 25.9509 31.7959C25.5015 31.9202 25.4069 31.9379 24.7978 32.0385C24.443 32.0977 22.3319 32.1273 22.2432 32.0799C22.2196 32.0622 22.0185 32.0326 21.7879 32.0089C21.3976 31.9734 20.9482 31.8965 20.0138 31.7131C18.8193 31.4764 17.1163 31.3226 15.2831 31.2989C14.4375 31.2871 13.5859 31.2575 13.3908 31.2397C13.1956 31.222 12.8113 31.1924 12.5393 31.1746C12.2613 31.1569 11.9124 31.1214 11.7587 31.0977C11.4394 31.0445 10.783 31.2338 10.4222 31.4823C10.3099 31.5592 10.1916 31.6066 10.1621 31.5888C10.1325 31.5711 10.1088 31.5888 10.1088 31.6243C10.1088 31.6598 9.90186 31.7782 9.64758 31.8906C9.39922 32.003 9.15085 32.1214 9.10355 32.1509C9.05624 32.1864 8.9084 32.2693 8.77831 32.3344C7.85581 32.8373 6.98653 33.3757 6.77365 33.5887C6.71452 33.6479 6.63764 33.6952 6.59625 33.6952C6.55485 33.6952 6.47207 33.7485 6.41293 33.8136C6.3538 33.8787 6.28284 33.9319 6.25327 33.9319C6.2237 33.9319 6.10543 33.9911 5.98125 34.068C5.55548 34.3343 5.54366 34.3284 5.58505 33.9438C5.63236 33.5355 5.72106 33.2219 5.79202 33.2219C5.82159 33.2219 5.83341 33.2692 5.81567 33.3225C5.78611 33.4172 5.79202 33.4172 5.85115 33.3225C5.89255 33.2574 5.91029 33.1509 5.89255 33.0681C5.88072 32.9852 5.89255 32.9438 5.92803 32.9675C5.96351 32.9911 5.97534 32.9438 5.9576 32.8432C5.93986 32.7604 5.95168 32.6894 5.98125 32.6894C6.01673 32.6894 6.02856 32.648 6.0049 32.6006C5.98716 32.5533 5.99899 32.5119 6.02856 32.5119C6.06404 32.5119 6.08769 32.4586 6.08769 32.3994C6.08769 32.3344 6.11726 32.2634 6.14683 32.2456C6.18231 32.2219 6.19413 32.1805 6.17639 32.1509C6.15274 32.1214 6.19413 32.0977 6.25918 32.0977C6.35971 32.0977 6.38336 32.0622 6.38336 31.9143C6.38336 31.8137 6.40702 31.6894 6.43658 31.6302C6.46615 31.577 6.50163 31.4232 6.51346 31.2989C6.52529 31.1687 6.57851 31.0208 6.63173 30.9616C6.69086 30.9025 6.73817 30.79 6.73817 30.7131C6.73817 30.6303 6.76182 30.5534 6.78548 30.5356C6.81504 30.5179 6.8387 30.3936 6.84461 30.2634C6.85053 30.1273 6.87418 29.9913 6.89192 29.9617C6.95697 29.8552 6.96879 29.4292 6.90966 29.2812C6.86827 29.157 6.87418 29.1333 6.93331 29.157C7.05158 29.1984 7.0161 28.015 6.88601 27.5712C6.75 27.1038 6.21779 26.4352 5.49635 25.8258C5.28346 25.6482 5.08832 25.4648 5.06467 25.4234C5.0351 25.382 4.99371 25.3642 4.95822 25.382C4.92866 25.4057 4.905 25.3938 4.905 25.3702C4.905 25.3406 4.68621 25.0921 4.41419 24.814C3.9352 24.3169 3.46212 23.7667 3.4503 23.7016C3.44438 23.6365 3.21967 23.2637 3.13097 23.1691C3.00088 23.033 2.85304 22.6957 2.80573 22.4354C2.78208 22.317 2.72886 22.2164 2.68746 22.2164C2.6165 22.2164 2.56328 22.0981 2.50415 21.8378C2.49232 21.7786 2.40953 21.5301 2.32674 21.2816C2.14343 20.7313 1.90098 19.7905 1.85367 19.4177C1.83002 19.2639 1.78862 19.1574 1.76497 19.1751C1.7354 19.1929 1.71175 19.1811 1.71175 19.1456C1.71175 19.116 1.7354 19.0746 1.76497 19.0568C1.78862 19.0391 1.78862 18.8852 1.75314 18.7136C1.72357 18.542 1.69992 18.3113 1.69992 18.2048C1.70583 18.0983 1.68809 18.0213 1.66444 18.0391C1.64079 18.0509 1.62896 17.8793 1.64079 17.6486C1.65261 17.3705 1.64079 17.2462 1.59939 17.2758C1.51069 17.3291 1.5166 17.2521 1.61122 17.1575ZM1.62896 16.3173C1.6467 16.335 1.65261 16.3883 1.63487 16.4297C1.61713 16.477 1.59939 16.4593 1.59939 16.3942C1.59348 16.3291 1.61122 16.2936 1.62896 16.3173ZM1.87141 15.0984C1.88324 15.1398 1.88324 15.2108 1.87141 15.2463C1.85367 15.2877 1.84184 15.2581 1.84184 15.1753C1.84184 15.0925 1.85367 15.0629 1.87141 15.0984ZM2.04881 14.412C2.10795 14.3588 2.12569 14.3647 2.12569 14.4534C2.12569 14.5126 2.10203 14.5836 2.07247 14.6132C2.0429 14.6487 2.00742 14.7256 1.98968 14.7907C1.97194 14.8558 1.96602 14.8144 1.97194 14.696C1.97194 14.5777 2.01333 14.4475 2.04881 14.412ZM2.24396 13.8973C2.27944 13.8085 2.32083 13.7493 2.33266 13.7671C2.3504 13.7848 2.32674 13.8854 2.27944 13.9978C2.17891 14.2227 2.15525 14.1458 2.24396 13.8973ZM10.0615 8.44777C10.1088 8.46552 10.0911 8.48327 10.026 8.48327C9.96099 8.48919 9.92551 8.47144 9.94917 8.45369C9.96691 8.43594 10.0201 8.43002 10.0615 8.44777ZM10.6529 8.2111C10.7002 8.22885 10.6824 8.2466 10.6174 8.2466C10.5523 8.25251 10.5169 8.23476 10.5405 8.21701C10.5583 8.19926 10.6115 8.19335 10.6529 8.2111ZM11.8829 8.16376C11.9124 8.14601 11.942 8.15784 11.942 8.18743C11.942 8.22293 11.9124 8.25251 11.8829 8.25251C11.8474 8.25251 11.8237 8.24068 11.8237 8.22885C11.8237 8.2111 11.8474 8.18151 11.8829 8.16376ZM12.1904 8.15193C12.2377 8.16968 12.2199 8.18743 12.1549 8.18743C12.0898 8.19335 12.0544 8.17559 12.078 8.15784C12.0957 8.14009 12.149 8.13418 12.1904 8.15193ZM19.866 6.95079C19.8956 6.95079 19.9251 6.98038 19.9251 7.01588C19.9251 7.04546 19.8956 7.0573 19.866 7.03955C19.8305 7.0218 19.8069 6.99221 19.8069 6.97446C19.8069 6.96263 19.8305 6.95079 19.866 6.95079ZM19.8246 6.60169C19.8305 6.61353 19.8778 6.6727 19.9192 6.73187C19.9902 6.82062 19.9902 6.83245 19.9015 6.79695C19.8483 6.7792 19.8069 6.72003 19.8069 6.66678C19.8069 6.61945 19.8128 6.58986 19.8246 6.60169ZM23.5323 6.56619C23.5678 6.54844 23.5915 6.55436 23.5915 6.58394C23.5915 6.65495 23.3786 6.71412 23.148 6.7082C23.0001 6.70228 23.012 6.69045 23.2248 6.64903C23.3608 6.62536 23.5028 6.58394 23.5323 6.56619ZM23.8694 6.45969C24.0232 6.4301 24.0232 6.43602 23.9167 6.51294C23.7925 6.60169 23.627 6.62536 23.6743 6.54253C23.692 6.51294 23.7807 6.47744 23.8694 6.45969ZM24.3129 6.31768C24.3898 6.30585 24.4785 6.25851 24.514 6.21118C24.5494 6.16384 24.5908 6.14018 24.6086 6.15793C24.6618 6.21118 24.9516 6.05142 24.9102 5.98634C24.8865 5.95083 24.9043 5.94492 24.9516 5.9745C24.993 5.99817 25.0403 5.99225 25.0639 5.96267C25.0817 5.93308 25.2236 5.84433 25.3773 5.77333C25.537 5.69641 25.6612 5.61357 25.6612 5.58398C25.6612 5.5544 25.7085 5.53073 25.7617 5.53073C25.8149 5.53073 25.9095 5.4834 25.9746 5.42423C26.0869 5.32956 26.0869 5.32956 26.016 5.4479C25.9746 5.51298 25.8681 5.60174 25.7735 5.64315C25.6789 5.68457 25.5666 5.74966 25.5252 5.78516C25.3832 5.92125 25.0994 6.09876 24.922 6.16976C24.8215 6.21118 24.6145 6.30585 24.4489 6.38277C24.2893 6.46561 24.1355 6.51294 24.1059 6.49519C24.0291 6.44785 24.1592 6.34135 24.3129 6.31768ZM24.5376 5.9745C24.5672 5.95675 24.5968 5.96858 24.5968 5.99817C24.5968 6.03367 24.5672 6.06326 24.5376 6.06326C24.5021 6.06326 24.4785 6.05142 24.4785 6.03959C24.4785 6.02184 24.5021 5.99225 24.5376 5.9745ZM25.5193 5.44198C25.608 5.38873 25.6553 5.37098 25.6375 5.40648C25.5961 5.47156 25.3655 5.61357 25.3655 5.57215C25.3655 5.5544 25.4365 5.50115 25.5193 5.44198ZM25.8445 5.23489C25.88 5.23489 25.8859 5.25855 25.8681 5.29406C25.8504 5.32364 25.8031 5.35323 25.7735 5.35323C25.738 5.35323 25.7321 5.32364 25.7499 5.29406C25.7676 5.25855 25.8149 5.23489 25.8445 5.23489ZM26.353 5.1343C26.4299 5.12838 26.4891 5.14613 26.4891 5.17572C26.4891 5.2053 26.4358 5.21714 26.3708 5.2053C26.3057 5.19347 26.2525 5.2053 26.2525 5.2408C26.2525 5.27039 26.2111 5.29406 26.1579 5.29406C26.0101 5.29406 26.1934 5.14613 26.353 5.1343ZM26.2525 4.93904C26.2821 4.93904 26.3117 4.95087 26.3117 4.96271C26.3117 4.98046 26.2821 5.01004 26.2525 5.02779C26.217 5.04555 26.1934 5.03371 26.1934 5.00413C26.1934 4.96863 26.217 4.93904 26.2525 4.93904ZM26.4831 4.70236C26.5127 4.70236 26.5245 4.76153 26.5009 4.83254C26.4713 4.96271 26.4772 4.96271 26.5837 4.87396C26.767 4.72012 26.8261 4.70236 26.8261 4.79112C26.8261 4.83845 26.8084 4.86804 26.7966 4.85029C26.7788 4.83254 26.7079 4.8562 26.631 4.90354C26.56 4.95087 26.4891 4.97454 26.4654 4.95679C26.4122 4.89762 26.424 4.70236 26.4831 4.70236ZM27.4352 4.17576C27.4884 4.17576 27.4589 4.21126 27.3761 4.2586C27.1809 4.37102 27.0863 4.37102 27.2341 4.2586C27.2933 4.21126 27.3879 4.17576 27.4352 4.17576ZM27.2578 4.40652C27.2874 4.40652 27.3169 4.41835 27.3169 4.43019C27.3169 4.44794 27.2874 4.47752 27.2578 4.49527C27.2223 4.51302 27.1987 4.50119 27.1987 4.4716C27.1987 4.4361 27.2223 4.40652 27.2578 4.40652ZM27.9083 3.93317C27.9378 3.93317 27.9674 3.96275 27.9674 3.99825C27.9674 4.02784 27.9378 4.03967 27.9083 4.02192C27.8728 4.00417 27.8491 3.97458 27.8491 3.95683C27.8491 3.945 27.8728 3.93317 27.9083 3.93317ZM28.8485 3.4894C28.8781 3.5249 28.7894 3.63732 28.7302 3.63732C28.7007 3.63732 28.7066 3.60182 28.748 3.55448C28.7894 3.50715 28.8367 3.48348 28.8485 3.4894ZM29.091 3.40064C29.1205 3.40064 29.1501 3.41248 29.1501 3.42431C29.1501 3.44206 29.1205 3.47165 29.091 3.4894C29.0555 3.50715 29.0318 3.49531 29.0318 3.46573C29.0318 3.43023 29.0555 3.40064 29.091 3.40064ZM29.2979 3.2823C29.3512 3.24089 29.3866 3.23497 29.3866 3.27047C29.3866 3.30006 29.3452 3.34147 29.2979 3.36514C29.2506 3.38289 29.2092 3.38881 29.2092 3.37698C29.2092 3.36514 29.2506 3.32372 29.2979 3.2823ZM29.5345 3.16397C29.5818 3.16397 29.6232 3.1758 29.6232 3.18763C29.6232 3.19947 29.5818 3.22314 29.5345 3.2468C29.4872 3.26455 29.4458 3.25272 29.4458 3.22314C29.4458 3.18763 29.4872 3.16397 29.5345 3.16397ZM30.3032 2.83262C30.3801 2.7557 30.3919 2.7557 30.3919 2.8267C30.3919 2.87404 30.3505 2.92729 30.3032 2.95096C30.2559 2.96871 30.2145 2.96871 30.2145 2.95096C30.2145 2.93321 30.2559 2.87995 30.3032 2.83262ZM31.6101 2.39477C31.6278 2.39477 31.616 2.43619 31.5746 2.48352C31.5332 2.53086 31.4741 2.57227 31.4445 2.57227C31.4149 2.57227 31.4268 2.53086 31.48 2.48352C31.5273 2.43619 31.5864 2.39477 31.6101 2.39477ZM31.7638 2.3356C31.7224 2.3356 31.7047 2.30601 31.7284 2.27051C31.752 2.22318 31.7816 2.22909 31.8171 2.28235C31.8644 2.34743 31.888 2.34152 31.959 2.25276C32.0063 2.18768 32.0477 2.15809 32.0477 2.18176C32.0477 2.21134 32.0891 2.19951 32.1364 2.15809C32.1837 2.12259 32.2487 2.10484 32.2842 2.12851C32.3138 2.14626 32.3434 2.14034 32.3434 2.11667C32.3434 2.08709 32.4439 2.0575 32.5622 2.0575C32.8342 2.05159 32.7396 2.11076 32.2428 2.27051C32.0536 2.32968 31.8466 2.40068 31.7816 2.42435C31.687 2.45394 31.6811 2.45394 31.752 2.40068C31.8171 2.35335 31.823 2.3356 31.7638 2.3356ZM32.231 0.738031C32.2665 0.738031 32.2724 0.761699 32.2547 0.7972C32.2369 0.826785 32.1896 0.856369 32.16 0.856369C32.1246 0.856369 32.1186 0.826785 32.1364 0.7972C32.1541 0.761699 32.2014 0.738031 32.231 0.738031ZM33.0057 1.90366C33.0352 1.9155 33.053 1.89775 33.053 1.86816C33.053 1.83266 33.118 1.80899 33.2008 1.81491C33.396 1.83266 33.39 1.85041 33.1417 1.95692C32.8815 2.06342 32.7869 2.06342 32.8874 1.95692C32.9288 1.90958 32.982 1.88591 33.0057 1.90366ZM33.7094 1.70841C33.8217 1.70841 33.8217 1.71432 33.7271 1.78532C33.668 1.82674 33.6029 1.86224 33.5734 1.86224C33.5497 1.86224 33.5438 1.82674 33.5615 1.78532C33.5734 1.74391 33.6443 1.70841 33.7094 1.70841ZM39.54 0.96879C39.6583 1.03979 39.6228 1.05163 39.4691 0.998375C39.4158 0.974707 39.3863 0.945123 39.404 0.933289C39.4158 0.915538 39.4809 0.933289 39.54 0.96879ZM39.8653 2.47169C39.9126 2.48944 39.8948 2.50719 39.8298 2.50719C39.7647 2.51311 39.7292 2.49535 39.7529 2.4776C39.7706 2.45985 39.8239 2.45394 39.8653 2.47169ZM43.4429 2.32968C43.5316 2.37702 43.5316 2.38885 43.4547 2.39477C43.3542 2.39477 43.2655 2.3356 43.3069 2.28826C43.3246 2.27643 43.3837 2.29418 43.4429 2.32968Z" fill="black"/>
</svg>
