<svg width="51" height="67" viewBox="0 0 51 67" fill="none" xmlns="http://www.w3.org/2000/svg">
<path d="M1.03081 19.3425C1.08887 19.6328 1.14692 20.492 1.18175 21.2583C1.21659 22.0246 1.27464 22.9418 1.30947 23.2901C1.3443 23.6385 1.40236 24.7763 1.42558 25.8213C1.47202 27.528 1.5533 29.1419 1.65779 30.0824C1.68101 30.2682 1.73907 30.7442 1.7739 31.1274C1.82034 31.5105 1.8784 31.9749 1.90162 32.1723C1.93645 32.3581 2.06417 33.1708 2.18027 33.972C2.43571 35.6207 2.72598 36.9443 2.91175 37.281C2.98141 37.4087 3.05108 37.5597 3.0743 37.6294C3.13235 37.8267 3.34134 38.7788 3.38779 39.0226C3.44584 39.371 3.68966 39.9283 3.85221 40.1257C3.93349 40.2185 4.03798 40.4508 4.08443 40.6249C4.13087 40.7991 4.2702 41.0313 4.39791 41.1474C4.53724 41.2519 4.69979 41.4028 4.78107 41.4725C4.99006 41.6699 5.33838 41.8324 5.76798 41.9137C6.59234 42.0646 7.66052 42.9471 8.49649 44.1662C8.9377 44.7932 9.46018 46.2677 9.56467 47.1269C9.59951 47.3939 9.68078 47.8468 9.75045 48.137C9.82011 48.4273 9.88977 49.6464 9.90139 50.8655C9.94783 53.6289 10.0059 54.0817 10.4355 55.4518C10.9928 57.1702 11.225 57.5185 12.8621 58.935C13.1988 59.2252 13.5936 59.5155 13.7329 59.5736C13.8839 59.6432 14.1277 59.8058 14.2786 59.9335C14.4296 60.0728 14.8359 60.3631 15.1843 60.5837C16.0086 61.1062 17.5993 62.7085 17.8199 63.2309C18.2727 64.334 18.8532 65.437 18.981 65.437C19.0622 65.437 19.1319 65.4834 19.1319 65.5299C19.1319 65.6924 19.8866 65.9014 20.4903 65.9014C20.8154 65.9014 21.6166 65.9594 22.2784 66.0291C22.9402 66.0988 23.5556 66.1568 23.6252 66.1452C23.7065 66.1452 23.8458 66.1336 23.9155 66.122C24.1477 66.1104 25.3204 66.2497 25.5178 66.3194C25.6107 66.3542 25.8429 66.4007 26.0403 66.4239C26.226 66.4471 26.6092 66.5051 26.8878 66.54C27.3987 66.6096 27.8864 66.4239 28.0953 66.0639C28.1534 65.9827 28.2927 65.9478 28.4204 65.9827C28.6527 66.0407 29.6512 65.8317 29.8718 65.6692C29.9298 65.6227 30.1969 65.5182 30.4523 65.437C31.5321 65.0886 32.7048 64.0669 33.0531 63.1613C33.1808 62.8362 33.3898 62.3369 33.5175 62.0583C33.773 61.4777 33.9007 59.9567 33.7498 59.2601C33.5175 58.2616 33.4711 57.9132 33.4827 57.2514C33.4943 56.0323 33.7962 55.2312 34.3071 54.999C35.0037 54.6855 36.5479 53.5476 37.3723 52.7581C38.5101 51.6551 38.7656 51.1094 38.754 49.8438C38.754 48.8801 38.7424 48.7176 38.5334 47.4984C38.3244 46.3025 38.1734 45.6872 38.0573 45.5246C37.9993 45.455 37.9296 45.095 37.8948 44.7119C37.8599 44.3287 37.7554 43.4347 37.6742 42.7381C37.5813 42.0298 37.5348 41.1706 37.5581 40.8223C37.5813 40.474 37.6161 39.6612 37.6393 39.0226C37.6858 37.8383 37.8948 36.4451 38.0573 36.2361C38.1038 36.1664 38.2083 35.911 38.2895 35.6555C38.3708 35.4001 38.5334 35.0169 38.6611 34.808C38.7772 34.599 38.9746 34.0765 39.1139 33.6469C39.2532 33.2173 39.4274 32.7412 39.5203 32.5787C39.6015 32.4161 39.7293 32.0214 39.7989 31.7079C39.8686 31.3828 40.066 30.9184 40.2285 30.6629C40.4027 30.4075 40.6001 29.885 40.6813 29.5019C40.9368 28.2944 41.0761 27.7835 41.3083 27.3539C41.4244 27.1333 41.6102 26.6805 41.7147 26.367C41.8308 26.0419 41.9817 25.6239 42.063 25.4381C42.1443 25.2407 42.272 24.8576 42.3533 24.5673C42.5158 23.9636 43.0035 22.7793 43.2821 22.3613C43.3866 22.1987 43.6188 21.653 43.793 21.1422C43.9672 20.6313 44.1994 20.0856 44.3155 19.923C44.42 19.7605 44.6406 19.3193 44.7915 18.9361C45.0818 18.193 45.732 16.7765 46.6841 14.8143C47.1833 13.8158 47.4504 13.4211 48.2283 12.6083C48.7508 12.0626 49.401 11.4588 49.668 11.2731C50.7362 10.5068 51.0613 10.0075 50.9452 9.33409C50.8988 9.06704 50.8639 8.67228 50.8871 8.44006C50.922 7.8247 50.713 5.49095 50.5969 5.35162C50.5504 5.29356 50.4575 5.02652 50.4111 4.77108C50.3647 4.51565 50.2486 4.2486 50.1557 4.17894C50.0628 4.10927 49.9583 3.78417 49.9235 3.42424C49.8538 2.64633 49.6912 2.44894 48.8669 2.20512C47.88 1.91485 44.0949 1.94968 40.2285 2.28639C38.8701 2.4025 34.1329 2.36767 33.2389 2.23995C33.0415 2.20512 32.4145 2.14707 31.8456 2.11223C30.0111 1.98452 29.21 1.91485 27.898 1.81036C27.1897 1.7523 25.6571 1.69425 24.4728 1.68264C22.5803 1.65942 19.6892 1.49687 17.7386 1.29949C17.3903 1.26465 16.5775 1.2066 15.9389 1.17177C15.3004 1.13694 14.5457 1.06727 14.2554 1.02083C13.6632 0.927944 12.8505 0.939555 9.90138 1.04405C8.75192 1.09049 7.60247 1.12533 7.34703 1.12533C7.09159 1.12533 6.65039 1.17177 6.36012 1.22982C6.06985 1.28788 5.62865 1.36915 5.38482 1.40398C5.141 1.43882 4.8159 1.49687 4.66496 1.5317C4.51402 1.56653 4.22375 1.61298 4.01476 1.6362C2.19188 1.79875 1.69262 1.98452 1.47202 2.53022C1.39075 2.73921 1.30947 2.94821 1.27464 2.99465C1.25142 3.0527 1.30947 3.08753 1.41397 3.08753C1.65779 3.08753 1.64618 3.18042 1.3443 3.85384C1.1237 4.37632 1.10048 4.59692 1.1237 6.33853C1.13531 7.3951 1.15853 8.75355 1.18175 9.35731C1.20497 9.96107 1.17014 11.5285 1.11209 12.8405C0.94954 16.3121 0.926318 18.7504 1.03081 19.3425ZM3.66644 6.83779C3.72449 6.05987 3.72449 6.05987 3.68966 5.93215C3.67805 5.86249 3.66644 5.6535 3.67805 5.45612C3.68966 5.04974 3.5155 5.11941 5.60543 4.71303C7.82307 4.29505 9.28602 4.16733 13.5007 4.08605C14.1393 4.07444 17.4367 4.26021 18.5514 4.36471C19.1551 4.43437 20.0724 4.50404 20.5832 4.53887C21.0941 4.5737 21.8256 4.62014 22.2087 4.66659C22.5919 4.70142 24.1361 4.74786 25.6339 4.78269C28.4437 4.82914 29.001 4.86397 30.8006 5.07296C33.5292 5.38645 38.4405 5.57222 39.5667 5.39806C39.857 5.35162 40.8671 5.28195 41.8308 5.24712C43.4215 5.17746 44.687 5.10779 46.2429 5.0033C46.5564 4.98008 47.0556 4.8988 47.3459 4.82914C48.147 4.63175 48.1818 4.64337 48.2283 4.88719C48.298 5.35162 48.2747 6.77973 48.1702 8.49812C48.1586 8.56778 47.8567 8.95093 47.4852 9.35731C47.1253 9.75207 46.777 10.1701 46.7189 10.2629C46.6608 10.3674 46.4402 10.6809 46.2313 10.948C45.8481 11.4472 45.6507 11.9581 45.523 12.7012C45.4998 12.9102 45.3024 13.3282 45.105 13.6417C44.896 13.9551 44.5941 14.4544 44.4084 14.7679C44.2342 15.0814 43.8627 15.6503 43.5724 16.0335C43.2589 16.4631 42.957 17.0436 42.8061 17.5428C42.5391 18.3788 42.0282 19.4818 41.8656 19.5515C41.8192 19.5747 41.7727 19.6444 41.7727 19.7024C41.7727 19.7489 41.645 20.074 41.4941 20.4107C41.0181 21.444 40.7278 22.1523 40.7278 22.2684C40.7278 22.3381 40.5768 22.5819 40.3911 22.8141C40.2053 23.0579 39.9847 23.5572 39.8686 24.01C39.7641 24.428 39.5203 25.1246 39.3345 25.5426C39.1371 25.9606 38.9862 26.4018 38.9862 26.5179C38.9862 26.634 38.7888 27.1449 38.545 27.6558C38.3011 28.155 38.0573 28.7588 38.0109 28.9794C37.9644 29.2 37.9064 29.5019 37.8716 29.6412C37.8483 29.7805 37.6626 30.1869 37.4768 30.5352C37.2794 30.8835 37.1285 31.2319 37.1285 31.3247C37.1285 31.406 37.0588 31.615 36.9659 31.7892C36.873 31.9517 36.7453 32.2884 36.664 32.5439C36.5828 32.7877 36.4667 33.0431 36.4202 33.1128C35.8861 33.7862 35.2243 37.1998 35.4797 37.9428C35.5378 38.0938 35.5262 38.6511 35.4565 39.1968C35.3869 39.7425 35.3636 40.4972 35.4101 40.8803C35.4914 41.6467 35.561 42.413 35.6771 43.725C35.7236 44.201 35.8629 45.037 36.0022 45.5827C36.1299 46.1284 36.2344 46.6741 36.2228 46.8018C36.2112 46.9179 36.2693 47.1037 36.3506 47.1966C36.4434 47.3011 36.4899 47.8003 36.4783 48.6711C36.455 49.7857 36.4202 50.0412 36.2112 50.3779C35.8629 50.9468 34.0749 52.5607 33.4827 52.8394C32.879 53.1296 32.2636 53.6057 32.043 53.9656C31.5321 54.8016 31.2535 56.9263 31.5553 57.7275C31.625 57.9016 31.7063 58.5983 31.7527 59.2717C31.8108 60.3863 31.7992 60.5605 31.5553 61.083C31.416 61.3964 31.2883 61.7099 31.2767 61.7796C31.207 62.1511 30.8006 62.6736 30.4175 62.8826C30.1853 63.0103 29.8602 63.2193 29.6976 63.347C29.5351 63.4748 29.2216 63.6489 28.9778 63.7534C28.583 63.9044 28.5366 63.9044 28.2811 63.707C28.0837 63.5328 27.9676 63.5096 27.7935 63.6025C27.6541 63.6838 27.4219 63.6721 27.0968 63.5909C25.9358 63.3006 24.6237 63.1845 21.3611 63.1264C20.8851 63.1148 20.8619 63.1032 20.5948 62.4995C20.4439 62.1744 20.2349 61.6635 20.1188 61.3732C19.8401 60.6185 18.1682 59.0279 16.4963 57.9248C15.7416 57.4372 15.0681 56.9495 14.9985 56.8451C14.9172 56.7522 14.5921 56.3922 14.267 56.0439C13.6168 55.3589 13.3498 54.8712 12.9666 53.6057C12.746 52.8742 12.7112 52.4678 12.688 50.5869C12.6763 49.4026 12.6067 48.1138 12.537 47.7307C12.4673 47.3475 12.3861 46.7321 12.3512 46.3606C12.2816 45.6523 12.0494 44.6422 11.7359 43.7482C11.2018 42.1807 9.2628 40.2069 7.76502 39.7077C7.30059 39.5567 7.10321 39.4174 6.83616 39.0226C6.41818 38.4073 5.48932 35.7252 5.25711 34.4945C5.16422 33.9836 5.01328 33.2289 4.9204 32.8109C4.69979 31.8008 4.47919 29.0607 4.32825 25.4962C4.29342 24.695 4.23536 23.7778 4.21214 23.4643C4.18892 23.1392 4.13087 22.1291 4.08443 21.2002C4.04959 20.2714 3.96832 19.3077 3.91026 19.0522C3.85221 18.7968 3.77094 18.4833 3.74771 18.3672C3.58516 17.659 3.71288 13.3978 3.93349 12.2484C4.01476 11.8188 4.02637 11.5169 3.95671 11.3776C3.82899 11.1221 3.75933 10.2746 3.75933 8.63745C3.74771 8.01047 3.71288 7.4996 3.65483 7.4996C3.60839 7.4996 3.57355 7.55765 3.57355 7.62732C3.57355 7.68537 3.5155 7.70859 3.44584 7.66215C3.35295 7.61571 3.36456 7.55765 3.46906 7.4996C3.55033 7.44154 3.63161 7.15128 3.66644 6.83779Z" fill="black"/>
</svg>
