<svg width="51" height="35" viewBox="0 0 51 35" fill="none" xmlns="http://www.w3.org/2000/svg">
<path d="M0.264873 24.7684C0.430093 26.3316 0.913045 27.7169 1.44683 28.1618C1.58663 28.2762 1.66289 28.3778 1.61205 28.3905C1.28161 28.4032 2.7813 30.0173 3.62011 30.5638C4.21745 30.9324 5.5265 31.4026 6.3526 31.5043C6.67033 31.5551 7.0389 31.6314 7.1787 31.6949C7.31851 31.7458 7.63624 31.8729 7.87771 31.9618C8.50047 32.1779 9.40282 32.5592 9.7841 32.7625C10.14 32.9532 11.144 33.22 11.8176 33.2963C12.0591 33.3344 12.8343 33.4869 13.5333 33.6522C15.6049 34.1478 16.9267 34.2749 20.015 34.2749C23.2178 34.2876 25.264 34.097 25.8613 33.7411C26.0646 33.614 26.6493 33.3471 27.1449 33.1565C28.1235 32.7879 28.9751 32.1143 28.9751 31.7076C28.9751 31.4789 29.0259 31.4789 29.4453 31.5806C29.7122 31.6568 30.0172 31.7458 30.1189 31.7839C30.2206 31.822 30.5383 31.8729 30.8179 31.8983C31.0975 31.9237 31.8346 32 32.4701 32.0635C33.9698 32.2287 35.711 32.2287 36.6642 32.0762C37.0836 32.0127 38.0241 31.8983 38.7612 31.8347C40.5659 31.6568 40.8963 31.5933 41.5572 31.2501C41.875 31.0976 42.5231 30.8053 42.9934 30.6019C43.6797 30.3096 44.0737 30.0173 44.9633 29.1277C46.9459 27.1577 47.8102 26.0393 48.7125 24.2854C49.5005 22.7603 49.6657 22.2393 49.7547 21.159C49.7801 20.9048 49.8818 20.4091 49.9962 20.066C50.1868 19.4813 50.2758 17.1428 50.1995 14.5502C50.1868 13.7749 49.9453 12.6311 49.6657 11.9829C49.5513 11.7414 49.3734 11.2966 49.2463 10.9789C48.6871 9.5173 47.7339 8.05573 46.5774 6.86107C46.3613 6.64501 46.1071 6.31457 46.0182 6.12393C45.9165 5.92058 45.5225 5.43763 45.1412 5.04364C44.3914 4.25567 43.8449 3.63292 43.3365 2.97204C42.9807 2.5145 42.9679 2.50179 41.875 1.59944C40.9726 0.8623 40.7692 0.747917 39.7906 0.430185C38.812 0.125163 37.719 0.0107802 37.1344 0.163291C36.8802 0.239547 36.1685 0.35393 35.5712 0.417476C34.9738 0.481023 34.1096 0.658952 33.6648 0.811463C33.22 0.963974 32.737 1.11649 32.5972 1.1419C31.5805 1.34525 30.6527 1.42151 29.6741 1.38338C29.0386 1.34525 28.3396 1.38338 28.1108 1.45964C27.8312 1.5486 27.6406 1.56131 27.5389 1.47234C27.2212 1.20545 24.3997 1.66298 22.6331 2.27303C22.1121 2.45096 21.5402 2.59076 21.3622 2.59076C20.2565 2.59076 16.52 3.65834 16.52 3.97607C16.52 4.0269 16.3167 4.14129 16.0625 4.23025C15.8083 4.31922 15.2618 4.7132 14.8424 5.10719C14.423 5.51389 13.9527 5.90787 13.7875 6.00955C13.635 6.11122 13.4062 6.36541 13.2791 6.56875C13.1521 6.7721 12.9614 7.05171 12.847 7.16609C12.3005 7.77613 11.7795 8.61494 11.6778 9.05977C11.6142 9.33937 11.4109 9.83503 11.2075 10.1782C11.0169 10.5086 10.8771 10.8899 10.9025 11.0043C10.9788 11.3983 10.6865 11.7287 10.1908 11.8177C9.60617 11.9193 8.90716 12.2625 6.60679 13.5588C5.98403 13.9147 3.3278 16.2913 3.31509 16.5201C3.30238 16.5964 3.16258 16.787 2.98465 16.9522C2.80672 17.1174 2.66692 17.3208 2.66692 17.397C2.66692 17.575 1.43412 19.6466 1.28161 19.7482C0.963881 19.9389 0.379256 22.074 0.366547 23.0781C0.353838 23.4466 0.31571 23.8025 0.264873 23.8788C0.214036 23.9423 0.214036 24.349 0.264873 24.7684ZM0.633441 24.3236C0.696987 24.3236 0.760534 24.3871 0.760534 24.4634C0.760534 24.5269 0.696987 24.5523 0.633441 24.5142C0.557186 24.4761 0.506349 24.4125 0.506349 24.3744C0.506349 24.349 0.557186 24.3236 0.633441 24.3236ZM3.40406 22.2901C3.69637 21.4386 4.26829 20.3075 4.43351 20.1931C4.50976 20.1549 4.75124 19.7737 4.96729 19.367C5.20877 18.9094 5.84423 18.1215 6.54324 17.4097C7.64895 16.2786 7.82688 16.1515 9.39011 15.389C10.9279 14.6264 11.1313 14.5629 11.7667 14.601C12.453 14.6391 12.4785 14.6264 12.7581 14.1689C12.9233 13.9147 13.1521 13.2792 13.2791 12.7582C13.5079 11.7287 13.5333 11.6397 13.7113 11.3601C13.7748 11.2585 14.0417 10.712 14.2959 10.1528C14.8424 8.95809 15.3889 8.24637 16.1514 7.738C16.4565 7.53466 16.825 7.26776 16.9648 7.15338C17.219 6.93732 17.6765 6.67043 18.7822 6.07309C19.0873 5.90787 19.5448 5.74265 19.799 5.70452C20.892 5.5266 22.7984 5.10719 22.989 4.99281C23.1034 4.92926 23.6372 4.77675 24.1837 4.64966C25.0098 4.44631 25.1877 4.4336 25.264 4.58611C25.4546 4.91655 26.0519 4.95468 27.1831 4.72591C27.7804 4.59882 29.0767 4.47173 30.0554 4.4336C32.3176 4.34463 32.5718 4.30651 33.9063 3.89981C34.6434 3.68375 35.4187 3.55666 36.2193 3.51853C36.8802 3.49311 37.7444 3.37873 38.1384 3.27706C39.1806 3.02287 39.206 3.02287 40.5151 3.64563C40.8328 3.79814 41.9512 4.853 42.79 5.8062C43.0823 6.13664 43.3874 6.40353 43.4509 6.40353C43.5272 6.40353 43.5907 6.44166 43.5907 6.4925C43.5907 6.6323 44.8362 8.18283 45.5988 9.00893C45.8021 9.21228 46.0309 9.56813 46.1198 9.7969C46.2088 10.013 46.4122 10.318 46.5774 10.4705C46.7426 10.623 47.0857 11.322 47.3399 12.021C47.8102 13.2919 47.8102 13.3047 47.8102 15.3381C47.8229 17.575 47.7466 18.4011 47.4543 19.8753C47.1874 21.2098 46.9205 21.9724 46.6409 22.2265C46.5011 22.3536 46.3867 22.5316 46.3867 22.6332C46.3867 22.7222 46.3232 22.7985 46.2596 22.7985C46.1834 22.7985 46.1326 22.9001 46.1326 23.0399C46.1326 23.167 45.98 23.4212 45.7894 23.6119C45.6115 23.7898 45.3954 24.0821 45.3065 24.2346C45.0396 24.7557 43.3111 26.7383 43.1332 26.7383C43.0315 26.7383 42.9552 26.7892 42.9552 26.84C42.9552 27.1069 40.8201 28.4414 40.21 28.5558C40.0702 28.5812 39.7398 28.6701 39.4602 28.7464C39.1806 28.8354 38.4307 28.9497 37.808 29.026C37.1725 29.0895 36.2702 29.2039 35.7745 29.2675C34.6053 29.4327 31.8855 29.331 30.7417 29.0895C30.1824 28.9752 29.6614 28.7718 29.3945 28.5812C29.1022 28.3397 28.7971 28.238 28.3904 28.2253C27.8948 28.1999 27.7677 28.2507 27.5135 28.5558C27.3356 28.7464 27.2339 28.9879 27.272 29.0768C27.3737 29.3564 26.7382 30.2588 26.2045 30.5892C25.4673 31.0595 25.0987 31.1612 23.3195 31.3264C21.8579 31.4789 16.609 31.3899 16.1387 31.212C15.9608 31.1484 15.4397 31.0595 14.9695 31.0086C14.4992 30.9705 13.6604 30.818 13.1139 30.6782C12.5674 30.5384 11.9193 30.3986 11.6778 30.3732C11.4363 30.3351 11.0932 30.2588 10.9279 30.1952C10.6229 30.0682 9.40282 29.6869 9.02155 29.5852C8.91987 29.5598 8.37337 29.3691 7.81417 29.1785C7.25496 28.9752 6.49241 28.7591 6.11113 28.7083C5.41212 28.6193 4.31912 28.1999 4.31912 28.022C4.31912 27.9711 4.20474 27.8059 4.06494 27.6534C3.54386 27.1069 3.13716 26.1664 3.06091 25.4039C2.95923 24.3744 3.09904 23.1416 3.40406 22.2901Z" fill="black"/>
</svg>
