<svg width="180" height="170" viewBox="0 0 180 170" fill="none" xmlns="http://www.w3.org/2000/svg">
<path d="M147.562 123.23L71.0622 155.73C20.2622 188.13 3.56221 154.897 1.56222 134.23C-6.43778 101.03 18.2289 85.0635 31.5622 81.2301C29.1622 37.2301 72.2289 13.8968 94.0622 7.73012C112.462 -6.26988 133.062 1.89679 141.062 7.73012L177.062 109.73C187.462 148.93 161.729 135.063 147.562 123.23Z" fill="#1941AC"/>
<path d="M39.641 110.21C37.6902 111.043 37.1246 112.023 37.2369 114.374C37.3612 115.997 36.8283 117.486 36.1522 117.667C35.3794 117.874 34.9034 118.416 35.0587 118.995C35.1881 119.478 35.916 119.49 36.6111 118.993C37.5442 118.226 38.1118 118.798 38.7329 121.116C39.7682 124.98 41.8863 123.998 41.4754 119.76C41.2855 117.12 41.6649 116.604 45.3992 115.086C47.7105 114.052 49.6872 113.315 49.8096 113.386C49.9321 113.457 50.0116 115.299 49.9497 117.386C49.8878 119.473 50.1156 121.483 50.5797 121.669C50.9471 121.881 53.5343 119.946 56.4491 117.301C59.2674 114.682 60.9525 112.471 60.3211 112.433C59.6898 112.395 57.8684 113.711 56.2472 115.388C54.7225 117.039 53.0943 118.304 52.7269 118.091C52.3336 117.783 52.4921 115.67 53.0559 113.137C53.799 109.729 53.7593 108.808 52.6968 109.093C51.924 109.3 51.2807 109.99 51.2428 110.621C51.2049 111.252 48.7781 112.627 45.7389 113.649C40.8196 115.381 40.3107 115.414 39.819 113.578C39.4049 112.033 39.9775 111.465 42.4889 110.792C44.131 110.352 46.1266 109.3 46.7699 108.61C48.0566 107.23 45.0364 107.936 39.641 110.21Z" fill="white"/>
<path d="M134.923 87.1637C132.62 90.1618 130.382 98.4226 131.703 99.1038C132.193 99.3866 132.837 98.6966 133.228 97.4529C134.973 91.6019 136.277 88.3538 137.467 86.9996C140.04 84.2396 140.662 86.5578 138.425 90.5736C134.632 97.2838 136.224 98.203 146.482 95.1439L152.928 93.3132L146.784 94.3383C143.422 94.9285 140.272 95.1513 139.783 94.8685C139.389 94.5597 139.934 92.3432 141.059 89.9713C142.28 87.5736 142.895 85.2346 142.547 84.7068C141.45 82.9302 137.155 84.2881 134.923 87.1637Z" fill="white"/>
<path d="M66.1337 109.012C65.4026 111.693 63.8729 114.484 62.8173 115.181C61.0407 116.278 61.0925 116.471 62.6449 116.469C63.566 116.429 64.3267 116.95 64.1664 117.511C63.9094 118.097 64.4959 118.354 65.2686 118.147C66.0414 117.94 66.7744 116.812 66.7536 115.575C66.95 112.831 70.9015 109.805 72.5264 111.233C73.094 111.806 73.7133 112.572 73.8168 112.958C73.9462 113.441 74.7 113.55 75.4728 113.343C77.2114 112.877 76.8611 110.796 74.779 109.594C73.6768 108.958 74.0562 108.442 76.245 107.338C77.8801 106.486 79.341 105.37 79.5721 104.687C79.9187 103.662 77.1245 104.825 74.0802 106.986C73.3144 107.606 72.1414 107.092 71.0512 105.727C68.5998 102.761 67.7115 103.309 66.1337 109.012ZM70.0561 108.582C70.4753 108.988 70.4116 109.522 69.9286 109.652C69.349 109.807 68.7367 109.453 68.6073 108.97C68.452 108.391 68.5416 107.953 68.7348 107.901C69.0246 107.823 69.6111 108.08 70.0561 108.582Z" fill="white"/>
<path d="M81.1782 106.43C80.5316 109.813 80.2645 112.68 80.5095 112.821C80.7544 112.963 81.6806 111.783 82.5998 110.191C84.2451 107.058 89.6386 103.232 88.9264 105.597C88.3746 107.401 91.4351 113.414 92.4906 112.717C93.0184 112.368 92.6991 109.244 91.9346 105.619C90.5938 99.4557 90.3937 99.0952 88.9846 100.405C88.1739 101.243 87.3444 102.397 87.184 102.958C86.4459 105.226 84.8348 104.622 84.7673 102.052C84.71 97.2018 82.3557 100.007 81.1782 106.43Z" fill="white"/>
<path d="M97.6728 99.2154C95.4239 103.959 94.2773 109.339 95.4364 109.029C95.9194 108.899 96.9093 107.185 97.6543 105.328C98.7908 102.229 99.1513 102.029 100.743 102.948C103.045 104.195 102.948 104.221 105.959 101.55L108.443 99.2283L109.245 102.223C109.737 104.058 110.505 104.991 111.374 104.758C112.34 104.499 112.409 102.824 111.689 98.9796C110.984 95.9593 110.169 93.6929 109.59 93.8482C109.107 93.9776 107.73 95.7958 106.432 97.9037C103.79 102.339 101.535 102.425 101.292 98.0387C100.984 94.187 99.7543 94.6201 97.6728 99.2154Z" fill="white"/>
<path d="M115.946 92.4556C114.871 93.4682 113.792 95.621 113.697 97.1993C113.17 103.345 118.814 104.318 125.765 99.3492C130.798 95.723 129.599 95.1125 124.418 98.5714C119.403 101.882 119.983 101.727 117.656 100.383C115.084 98.8982 115.617 97.4096 119.094 96.4778C120.64 96.0637 122.056 95.1666 122.287 94.4835C122.563 93.5814 121.738 93.5953 119.691 94.4544C117.837 95.2619 116.819 95.3275 116.831 94.5996C116.869 93.9683 119.515 92.6381 122.747 91.565C125.98 90.4918 128.555 89.2841 128.425 88.8012C128.063 87.4489 118.359 90.2561 115.946 92.4556Z" fill="white"/>
<path d="M47.6347 85.6023C48.877 90.2388 48.853 91.6946 47.7267 92.514C46.4331 93.4818 46.459 93.5784 48.3788 93.7887C52.8498 94.2471 62.8399 88.2574 62.0894 85.4562C61.7011 84.0073 57.6854 81.7705 52.4208 80.2823C46.3766 78.589 45.8747 79.034 47.6347 85.6023ZM53.042 82.6005C56.5471 83.3178 59.6487 86.0067 59.071 87.7144C58.5192 89.5187 52.1371 90.8146 51.723 89.2691C51.5418 88.593 50.7085 86.6422 49.9788 85.0778C48.3967 81.8782 48.6348 81.6074 53.042 82.6005Z" fill="white"/>
<path d="M92.9499 68.4908C93.4209 69.0893 94.5939 69.6032 95.4891 69.4669C96.7258 69.4461 97.1053 68.9303 96.5825 68.1386C96.1116 67.5401 94.9386 67.0262 94.0434 67.1625C92.8066 67.1833 92.4272 67.6991 92.9499 68.4908Z" fill="white"/>
<path d="M103.099 66.1855C100.821 67.7277 99.1217 69.1147 99.4891 69.3268C100.198 69.6545 110.143 63.8838 109.962 63.2077C109.755 62.4349 107.708 63.2941 103.099 66.1855Z" fill="white"/>
<path d="M113.542 66.9073C112.888 69.8777 112.706 73.4465 113.068 74.7988C113.689 77.117 113.908 77.1619 119.775 75.4865C123.059 74.6065 126.503 73.1659 127.436 72.3982C128.633 71.4563 127.255 71.7221 123.109 73.2473C115.562 75.994 114.653 75.3058 115.881 67.5229C116.884 60.8354 116.884 60.8354 115.628 61.1718C115.145 61.3012 114.169 63.8404 113.542 66.9073Z" fill="white"/>
<path d="M87.5565 72.3172C87.3393 73.8247 87.1618 76.2534 86.9446 77.761C86.543 81.285 84.9319 80.6815 82.9168 76.2521C81.8316 73.7476 80.8708 72.8663 80.0791 73.389C78.9528 74.2084 78.6654 81.6359 79.6489 85.3064C80.3736 88.011 82.5106 86.7137 82.1205 83.7124C81.8409 81.5097 82.0341 81.4579 84.0903 82.5634C85.4116 83.2446 86.9899 83.3394 87.685 82.8425C88.9786 81.8747 90.17 76.2756 90.0161 71.451C89.9865 68.2496 87.8874 68.9156 87.5565 72.3172Z" fill="white"/>
<path d="M65.5371 81.323C65.3148 83.9708 64.6733 86.2132 64.2869 86.3168C63.804 86.4462 63.547 87.0327 63.7023 87.6122C63.8317 88.0952 64.3664 88.1589 64.7718 87.7398C65.2737 87.2947 65.7636 87.5775 65.9706 88.3503C66.2036 89.2196 67.0609 89.7146 67.8336 89.5075C68.6064 89.3005 69.0496 88.25 68.7908 87.284C68.5319 86.3181 68.8975 84.9778 69.6892 84.4551C71.3433 83.2872 71.1242 83.2424 73.4203 85.6295C75.323 87.7078 77.217 87.8215 76.6735 85.793C76.0005 83.2816 68.8156 75.7858 67.4633 76.1481C66.6906 76.3552 65.8559 78.6494 65.5371 81.323ZM70.4203 81.7745C70.5497 82.2575 70.0478 82.7026 69.2751 82.9096C68.4057 83.1426 67.9348 82.5441 67.8622 81.1141C67.8345 79.4651 68.195 79.265 69.0333 80.0756C69.6975 80.6224 70.3168 81.3882 70.4203 81.7745Z" fill="white"/>
<path d="M92.8418 75.042C93.175 78.9903 94.9502 82.1381 95.8177 80.3528C96.1712 79.7404 96.1555 77.3635 95.7275 74.9935C94.768 69.8671 92.4618 69.7604 92.8418 75.042Z" fill="white"/>
<path d="M99.864 75.7486L101.184 80.6749L104.673 79.0152C109.367 76.8259 111.605 74.3625 107.079 76.4035C104.021 77.7406 103.486 77.6768 103.046 76.0347C102.736 74.8756 103.514 73.5284 105.432 72.1862C106.893 71.0701 107.677 70.1351 106.924 70.0265C106.196 70.0145 104.921 70.6666 104.014 71.5309C102.605 72.8402 102.192 72.8472 101.856 71.5914C101.649 70.8187 100.792 70.3237 100.019 70.5308C98.9563 70.8155 98.8805 72.0781 99.864 75.7486Z" fill="white"/>
</svg>
