<?xml version="1.0" standalone="no"?>
<!DOCTYPE svg PUBLIC "-//W3C//DTD SVG 20010904//EN"
 "http://www.w3.org/TR/2001/REC-SVG-20010904/DTD/svg10.dtd">
<svg version="1.0" xmlns="http://www.w3.org/2000/svg"
 width="83.000000pt" height="100.000000pt" viewBox="0 0 83.000000 100.000000"
 preserveAspectRatio="xMidYMid meet">

<g transform="translate(0.000000,100.000000) scale(0.100000,-0.100000)"
fill="#202020" stroke="none">
<path d="M570 884 c-218 -60 -353 -105 -344 -114 5 -5 53 5 114 24 58 18 163
48 235 66 72 18 137 39 145 47 12 11 12 13 -5 12 -11 0 -76 -16 -145 -35z"/>
<path d="M440 753 c-123 -31 -161 -46 -149 -57 7 -6 270 61 282 73 6 6 9 12 6
14 -2 2 -65 -11 -139 -30z"/>
<path d="M182 658 c-16 -16 -15 -140 2 -204 29 -108 109 -228 149 -222 21 3
22 9 30 133 5 72 10 131 11 133 4 3 227 -147 254 -171 32 -30 29 -63 -10 -87
-93 -57 -269 -112 -412 -129 -43 -5 -83 -15 -90 -21 -18 -20 123 -2 252 31
201 52 332 120 332 173 0 34 -31 62 -188 165 l-142 94 0 54 c0 46 -3 54 -17
51 -12 -2 -19 -14 -21 -36 -2 -17 -6 -32 -9 -32 -2 0 -30 18 -62 40 -64 45
-63 44 -79 28z m86 -80 c26 -17 49 -33 51 -35 7 -5 1 -178 -8 -209 -7 -26 -8
-25 -38 32 -17 33 -36 77 -41 99 -15 57 -25 145 -17 145 3 0 27 -14 53 -32z"/>
</g>
</svg>
