<svg width="51" height="47" viewBox="0 0 51 47" fill="none" xmlns="http://www.w3.org/2000/svg">
<path d="M0.641837 32.8658C0.671194 33.6682 0.749478 34.4902 0.808192 34.6761C0.984332 35.1849 1.21919 36.4277 1.21919 36.8876C1.21919 37.1029 1.28768 37.3671 1.36597 37.4748C1.44425 37.5726 1.51275 37.7488 1.51275 37.8564C1.51275 37.9738 1.56168 38.1108 1.63018 38.1793C1.69868 38.2478 1.71825 38.2967 1.67911 38.2967C1.63997 38.2967 1.69868 38.4533 1.80632 38.6392C1.91396 38.8349 2.00203 39.0307 2.00203 39.0796C2.00203 39.1383 2.1586 39.5102 2.34453 39.9211C2.53045 40.3224 2.68702 40.6942 2.68702 40.7333C2.68702 40.7725 2.9023 41.1443 3.1763 41.5553C3.44051 41.9663 3.66558 42.3382 3.66558 42.3871C3.66558 42.5045 4.76156 44.4127 4.84963 44.4421C4.89856 44.4617 4.9377 44.5204 4.9377 44.5693C4.9377 44.6867 5.63248 45.3424 5.75969 45.3424C5.80862 45.3424 5.99454 45.45 6.1609 45.587C6.67953 45.9784 7.46238 46.2231 8.52901 46.3209C9.39992 46.409 9.66413 46.3992 10.584 46.2231C11.6897 46.0078 12.1692 45.9001 12.8151 45.6848C13.3533 45.5087 13.7741 45.4011 13.8719 45.4206C13.9502 45.4402 14.6548 45.176 15.3593 44.8629C15.5746 44.765 15.9269 44.628 16.1422 44.5693C16.8272 44.354 17.7862 43.8549 18.4418 43.3852C18.7941 43.1308 19.1659 42.8764 19.2736 42.8177C19.5769 42.6709 21.7493 41.9565 22.356 41.8195C22.6496 41.751 22.9823 41.6336 23.0899 41.5749C23.1976 41.5064 23.4129 41.4183 23.5596 41.389C23.7162 41.3498 24.4208 41.0367 25.1449 40.6942C25.8592 40.3419 26.4757 40.0581 26.5247 40.0581C26.5638 40.0581 26.6715 39.9994 26.7497 39.9211C26.9454 39.745 28.3546 39.2068 28.8145 39.1187C29.0004 39.0894 29.2451 39.0307 29.3527 38.9817C29.7637 38.8154 30.4389 38.5707 30.5759 38.5414C30.7325 38.5022 31.8382 37.9836 32.2394 37.7585C32.3764 37.6803 32.5819 37.6118 32.6896 37.6118C32.807 37.6118 33.0027 37.5335 33.1299 37.4356C33.2571 37.3378 33.4528 37.2203 33.5605 37.1812C34.0987 36.9855 35.9775 36.1831 36.4472 35.9482C36.7408 35.8014 37.1518 35.6546 37.3475 35.6155C37.553 35.5764 37.7194 35.5176 37.7194 35.4785C37.7194 35.4394 37.9836 35.3219 38.3065 35.2339C38.6294 35.136 38.9132 35.0186 38.9426 34.9696C38.9719 34.9207 39.06 34.9011 39.1285 34.9305C39.2068 34.9599 39.2948 34.9403 39.3242 34.8816C39.3633 34.8229 39.4416 34.8033 39.5199 34.8326C39.5884 34.862 39.7548 34.8326 39.8918 34.7837C40.1462 34.6859 40.5572 34.862 40.5572 35.0773C40.5572 35.136 40.8801 35.4981 41.2617 35.8895C41.8097 36.4375 42.1718 36.6919 42.8079 36.9953C43.6983 37.4258 43.9528 37.4845 45.2542 37.602C46.2719 37.69 47.319 37.5922 47.6419 37.3769C47.7789 37.2888 47.9551 37.2203 48.0431 37.2203C48.1214 37.2203 48.1899 37.1714 48.1899 37.1029C48.1899 37.0442 48.2193 37.0148 48.2486 37.054C48.3563 37.1518 49.3935 36.5745 49.7262 36.2222C50.6754 35.2339 50.9299 32.1416 50.1764 30.7325C50.0883 30.5661 50.0002 30.3998 50.0002 30.3704C49.9905 30.3411 49.9611 30.253 49.922 30.1747C49.7654 29.7735 49.5893 28.9907 49.5012 28.3057C49.4816 28.1589 49.374 27.8164 49.2663 27.5326C49.1587 27.2586 49.0217 26.6911 48.963 26.2801C48.9043 25.8789 48.7575 25.3406 48.6303 25.096C48.3073 24.4599 48.1312 24.0294 47.9551 23.501C47.867 23.2465 47.7593 22.953 47.7104 22.8649C47.4462 22.3756 47.1037 21.4753 46.9178 20.8001C46.8004 20.3892 46.6732 19.9586 46.6242 19.8509C46.5851 19.7433 46.4481 19.3715 46.3209 19.0192C46.2034 18.6669 46.0762 18.3342 46.0371 18.2853C45.9979 18.2265 45.8903 17.933 45.7925 17.6296C45.6555 17.1991 45.5674 17.0523 45.3521 16.9642C44.9509 16.7978 44.8041 16.5924 44.6671 15.9856C44.5986 15.6921 44.4518 15.2811 44.354 15.0854C44.2463 14.8799 44.1485 14.6646 44.1387 14.5961C44.1191 14.5276 44.0604 14.3612 44.0115 14.2242C43.9528 14.0872 43.8745 13.823 43.8353 13.6371C43.7962 13.4512 43.6983 13.1674 43.6201 13.0108C43.4243 12.639 43.0133 11.5136 42.4164 9.73267C42.1522 8.95961 41.8489 8.13762 41.7412 7.91255C41.6336 7.6777 41.5162 7.34499 41.4868 7.15906C41.4574 6.98292 41.3889 6.81657 41.3498 6.78721C41.3009 6.75786 41.2324 6.5915 41.1932 6.41536C41.1541 6.23922 41.066 5.97501 40.9877 5.82823C40.9095 5.68144 40.8507 5.46616 40.8507 5.33895C40.8507 5.22152 40.8116 5.12367 40.7627 5.12367C40.6648 5.12367 40.5474 4.8301 40.2636 3.85154C40.0581 3.14698 39.3438 1.79657 39.1872 1.79657C39.1383 1.79657 38.8741 1.60086 38.6001 1.36601C38.3163 1.12137 37.8661 0.857158 37.5921 0.769087C37.3084 0.681017 37.0344 0.563591 36.9854 0.524448C36.9267 0.47552 36.6136 0.407021 36.3004 0.377665C35.9775 0.348308 35.5763 0.279809 35.4197 0.230881C34.9892 0.103669 32.1416 0.133026 31.0162 0.279809C30.1943 0.377665 28.3546 0.788659 27.8359 0.98437C27.7576 1.01373 27.6402 1.05287 27.5913 1.06265C26.3387 1.35622 22.6594 2.62835 21.534 3.15677C21.3187 3.26441 20.9469 3.43076 20.712 3.51883C20.487 3.61669 20.301 3.72433 20.301 3.76347C20.301 3.80261 20.2228 3.85154 20.1249 3.89068C20.0368 3.92004 19.8216 4.03747 19.665 4.13532C19.4986 4.24296 19.2344 4.39953 19.0583 4.4876C18.8821 4.57567 18.6962 4.71267 18.6277 4.79096C18.569 4.86924 18.4711 4.92795 18.4124 4.92795C18.3635 4.92795 18.2461 5.00624 18.158 5.09431C17.8155 5.46616 16.5923 6.49365 16.4945 6.49365C16.4357 6.49365 16.3868 6.56214 16.3868 6.64043C16.3868 6.71871 16.3281 6.78721 16.2596 6.78721C16.2009 6.78721 15.741 7.17864 15.2615 7.64834C14.7722 8.11805 14.1851 8.64647 13.9404 8.81283C13.4903 9.12596 13.1869 9.39996 12.2965 10.3492C12.0029 10.6525 11.7289 10.8972 11.68 10.8972C11.631 10.8972 11.5919 10.9363 11.5919 10.9754C11.5919 11.0146 11.3962 11.2592 11.1515 11.5136C10.9069 11.7583 10.6427 12.1106 10.5546 12.2867C10.4763 12.4628 10.3785 12.6781 10.3198 12.7564C10.2708 12.8347 10.0458 13.2261 9.8207 13.6175C9.59563 14.009 9.36078 14.3612 9.30206 14.4004C9.22378 14.4493 8.803 15.5649 8.70514 15.9856C8.69536 16.015 8.65622 16.2303 8.60729 16.4749C8.55836 16.7196 8.51922 16.9348 8.50943 16.9642C8.33329 17.8155 8.23544 18.8235 8.21587 20.0956C8.20608 21.1524 8.09844 21.7591 7.93209 21.7689C7.6483 21.7885 7.45259 21.857 7.15903 22.0429C6.99267 22.1506 6.6991 22.3169 6.52296 22.3952C6.34682 22.4833 6.18047 22.6105 6.14133 22.6888C6.11197 22.767 6.03368 22.8355 5.96519 22.8355C5.8869 22.8355 5.76947 22.904 5.6814 22.9823C5.60312 23.0704 5.33891 23.2857 5.09427 23.4716C4.84963 23.6575 4.42885 24.0294 4.15486 24.3034C3.87107 24.5676 3.61665 24.7927 3.57751 24.7927C3.53837 24.7927 3.3818 24.9688 3.21544 25.1939C3.05887 25.4092 2.80445 25.7321 2.65766 25.8984C2.50109 26.0746 2.33474 26.2996 2.28581 26.4073C2.23688 26.5149 2.0901 26.7791 1.9531 26.9944C1.82589 27.2097 1.66932 27.4935 1.62039 27.6305C1.56168 27.7675 1.47361 27.9534 1.4149 28.0415C1.36597 28.1393 1.22897 28.5992 1.12133 29.0787C1.01369 29.5582 0.876691 30.0769 0.817977 30.2334C0.622266 30.7129 0.583124 31.3294 0.641837 32.8658ZM3.11759 30.8108C3.14694 30.6444 3.20566 30.3606 3.2448 30.1747C3.27415 29.9888 3.3133 29.8127 3.32308 29.7833C3.33287 29.7539 3.37201 29.5778 3.41115 29.3919C3.46008 29.2059 3.51879 29.0005 3.54815 28.9515C3.58729 28.8928 3.62644 28.7754 3.63622 28.6677C3.66558 28.472 3.83193 28.0904 4.24293 27.2488C4.68328 26.3388 6.75782 24.411 8.04951 23.7162C8.21587 23.6282 8.53879 23.589 8.94978 23.5988C9.42928 23.6086 9.69349 23.5695 9.96748 23.4227C10.6623 23.0704 10.6623 23.0802 10.672 20.2913C10.6818 17.7373 10.7308 17.3263 11.1418 16.2107C11.22 15.9954 11.3081 15.7019 11.3375 15.5747C11.3864 15.3104 11.9833 14.146 12.5509 13.2261C12.9423 12.5901 14.4884 10.9461 15.2517 10.3589C15.6333 10.0654 16.4651 9.33146 17.0327 8.78347C17.9134 7.94191 19.7237 6.39579 19.8313 6.39579C19.8803 6.39579 19.8901 6.33708 19.8509 6.26858C19.8118 6.20986 19.8118 6.18051 19.8509 6.21965C19.8901 6.24901 20.3402 5.99458 20.8588 5.6423C21.3677 5.29002 22.0527 4.8986 22.3854 4.7616C22.7181 4.6246 23.2074 4.42889 23.4814 4.32125C23.7456 4.21361 24.3914 3.99833 24.9003 3.84176C25.4091 3.68519 26.1626 3.44055 26.5638 3.30355C27.6598 2.9317 29.979 2.33478 31.0652 2.14885C31.985 1.99228 35.1066 1.89443 35.6057 2.01185C36.0069 2.10971 36.2613 2.14885 36.5647 2.17821C36.6625 2.17821 36.9952 2.44242 37.3084 2.75556C37.9249 3.37205 38.0912 3.71454 38.6001 5.41723C38.7664 5.9848 38.9621 6.57193 39.0306 6.73828C39.0991 6.89485 39.3242 7.56027 39.5199 8.20612C39.7254 8.85197 39.97 9.5761 40.0679 9.82074C40.1657 10.0654 40.3125 10.5253 40.4104 10.8482C40.4985 11.1711 40.6159 11.4843 40.6648 11.543C40.7137 11.6017 40.7333 11.6702 40.704 11.6996C40.6746 11.7289 40.7137 11.8072 40.8018 11.8757C40.8801 11.9442 40.9486 12.091 40.9486 12.2084C40.9486 12.3258 40.9877 12.4628 41.0367 12.5216C41.1149 12.6096 41.3596 13.412 41.3498 13.5588C41.3498 13.598 41.4574 13.8426 41.5847 14.0872C41.7217 14.3417 41.8293 14.6157 41.8293 14.694C41.8293 14.782 41.9663 15.0854 42.1326 15.3789C42.299 15.6725 42.5143 16.2205 42.6121 16.6119C42.8568 17.5513 42.9448 17.7568 43.3461 18.344C43.532 18.618 43.6886 18.9213 43.6886 19.0192C43.6886 19.1072 43.7571 19.3127 43.8256 19.4693C43.9723 19.7629 44.1778 20.4577 44.442 21.5634C44.5301 21.9157 44.716 22.4148 44.8726 22.6888C45.0194 22.953 45.2053 23.3933 45.2836 23.6673C45.3619 23.9315 45.587 24.4502 45.7729 24.8122C46.1839 25.5853 46.3698 26.1626 46.5362 27.0923C46.5949 27.4641 46.7319 27.9828 46.8297 28.247C46.9374 28.5014 47.0646 29.0298 47.1233 29.4212C47.1722 29.8029 47.3973 30.6542 47.6224 31.3001C48.2388 33.1593 48.2682 33.7171 47.7985 34.7446C47.6615 35.0479 47.4951 35.2045 47.1624 35.3709C46.7417 35.5861 46.6732 35.5861 45.8609 35.4883C45.3912 35.4296 44.8726 35.3219 44.716 35.2534C44.5497 35.1849 44.3735 35.1262 44.3246 35.1262C44.0506 35.0969 43.2873 34.6663 43.2286 34.5097C43.1993 34.4119 43.0916 34.2455 43.0036 34.1379C42.9057 34.0302 42.7198 33.629 42.573 33.2376C42.2892 32.4841 42.1424 32.3765 41.4379 32.4156C41.2519 32.4254 40.9584 32.396 40.792 32.3471C40.5767 32.2786 40.2734 32.308 39.6667 32.4645C39.2165 32.582 38.7958 32.6994 38.7468 32.7385C38.6881 32.7679 38.4826 32.8266 38.2771 32.8658C38.0814 32.9049 37.8857 32.9734 37.8564 33.0223C37.827 33.0712 37.7389 33.1104 37.6509 33.1104C37.5628 33.1104 37.2692 33.218 36.9952 33.3452C36.7212 33.4725 36.2711 33.6682 36.0069 33.7856C35.7329 33.903 35.4393 34.04 35.3415 34.0987C35.2436 34.1477 34.8033 34.3238 34.3629 34.4902C33.5311 34.7935 33.4235 34.8424 31.3587 35.821C30.0083 36.4668 29.6658 36.6038 29.3038 36.6723C29.1668 36.6919 28.7753 36.7995 28.4329 36.917C28.0904 37.0344 27.7381 37.1225 27.6696 37.1225C27.5913 37.1225 27.4054 37.191 27.2488 37.2693C27.0922 37.3475 26.8867 37.4258 26.7889 37.4454C26.5736 37.4845 25.4189 38.013 24.8024 38.3555C23.9217 38.8447 22.7572 39.3634 22.1994 39.5297C21.8765 39.6178 21.2894 39.8233 20.8882 39.9896C20.487 40.1462 20.0858 40.293 20.0075 40.3028C19.9292 40.3126 19.7922 40.3419 19.7139 40.3811C19.6356 40.4104 19.3421 40.5083 19.0583 40.5866C18.4026 40.7725 18.2265 40.8703 17.4437 41.4966C17.0816 41.7804 16.7391 42.0153 16.6902 42.0153C16.6315 42.0153 16.5825 42.0446 16.5825 42.0838C16.5825 42.1816 16.015 42.5045 15.8486 42.5045C15.7801 42.5045 15.7018 42.5437 15.6823 42.5926C15.6333 42.7296 13.3044 43.4831 12.0812 43.7669C11.8365 43.8158 11.2005 43.9724 10.6623 44.1094C10.1241 44.2464 9.56628 44.3442 9.43906 44.3149C9.30207 44.2855 8.93021 44.217 8.60729 44.1583C8.29415 44.0996 7.91251 43.9919 7.77552 43.9234C7.37431 43.7179 6.53275 42.9253 6.2979 42.5241C6.18047 42.3284 5.94562 41.937 5.76948 41.6728C5.59334 41.3988 5.33891 40.9388 5.19213 40.6453C5.04534 40.3517 4.85942 39.9799 4.77135 39.8233C4.63435 39.5689 4.331 38.7664 3.8515 37.416C3.52858 36.506 3.04909 34.2749 3.12737 34.0596C3.15673 33.9911 3.13716 33.8052 3.07844 33.6486C2.98059 33.3452 3.00994 31.3294 3.11759 30.8108Z" fill="black"/>
</svg>
