<svg width="51" height="50" viewBox="0 0 51 50" fill="none" xmlns="http://www.w3.org/2000/svg">
<path d="M0.424956 21.1435C0.473437 21.3374 0.793412 21.7544 1.22974 22.2101C1.62729 22.6173 1.95696 22.9858 1.95696 23.0246C1.95696 23.0634 2.01513 23.1021 2.07331 23.1021C2.14118 23.1118 2.48055 23.3349 2.81022 23.616C3.14959 23.8972 3.60531 24.256 3.81863 24.4111C4.59432 24.9832 5.07913 26.4473 4.75916 27.223C4.47797 27.9212 4.46827 28.1345 4.72037 28.8908C4.84642 29.2883 5.08883 29.8216 5.24397 30.0931C5.4088 30.3549 5.54455 30.607 5.54455 30.6555C5.54455 30.704 5.60273 30.8106 5.6706 30.8785C5.73847 30.9464 5.9324 31.2276 6.10693 31.5087C6.46569 32.0711 7.32865 32.8177 8.03647 33.1862C8.28858 33.3219 8.66673 33.5256 8.86065 33.6419C9.2582 33.8843 10.0727 33.9522 10.4896 33.7874C10.6254 33.7389 10.8969 33.7098 11.0908 33.7292C11.2944 33.7583 11.7598 33.671 12.2058 33.5353C12.6228 33.4092 13.1464 33.2735 13.3791 33.2347C13.7475 33.1765 13.8154 33.1959 14.0675 33.4674C14.2226 33.6322 14.3778 33.8746 14.4069 34.0201C14.4844 34.3206 14.2614 35.1351 13.8833 35.9108C13.7378 36.2211 13.6215 36.4829 13.6409 36.4829C13.6603 36.4829 13.573 36.7156 13.447 36.9871C13.3112 37.2683 13.2045 37.5786 13.2045 37.6755C13.2045 37.7725 13.1464 37.947 13.0688 38.0634C12.8652 38.3737 12.6228 39.4112 12.5549 40.2062C12.5161 40.7686 12.5355 40.9238 12.6616 41.0304C12.7488 41.0983 12.8167 41.205 12.8167 41.2534C12.8167 41.4764 13.5633 42.0776 13.9318 42.1552C14.8917 42.3394 16.2589 42.194 16.9667 41.8352C17.1994 41.7092 17.3254 41.6995 17.4515 41.777C17.626 41.8934 17.946 43.0763 17.9557 43.6387C17.9557 44.2302 18.3338 44.7441 18.9932 45.064C19.1774 45.1513 19.4198 45.4034 19.5653 45.6555C19.7107 45.8979 19.9143 46.1306 20.0307 46.1694C20.1373 46.2179 20.8161 46.2567 21.5433 46.2664C22.2608 46.2761 22.8911 46.3245 22.9395 46.3827C22.9977 46.4312 23.1044 46.47 23.1819 46.47C23.3274 46.47 23.9382 46.8869 24.5879 47.4396C25.1697 47.9438 25.7223 48.2929 26.052 48.3704C26.2072 48.4092 26.3817 48.4674 26.4399 48.4965C26.4883 48.5256 26.7792 48.6032 27.0701 48.6613C27.361 48.7195 27.8749 48.8456 28.2143 48.9328C28.9318 49.1267 29.8238 49.0395 30.5995 48.6904C31.5498 48.2735 31.8406 48.0214 32.3836 47.1002C32.5969 46.7221 32.9557 46.2373 33.169 46.0143C33.3823 45.7913 33.6441 45.4422 33.7508 45.2386C33.9835 44.8119 34.1871 44.5307 34.2841 44.5307C34.3229 44.5307 34.4489 44.4241 34.5653 44.298C35.0501 43.7744 36.4076 43.4933 37.1251 43.7647C37.2705 43.8229 37.416 43.8617 37.445 43.8714C37.4741 43.8714 37.5323 43.9005 37.5905 43.949C37.639 43.9878 38.0268 44.1041 38.4438 44.1914C39.1807 44.3562 40.1503 44.3368 40.4024 44.1526C40.5381 44.0459 41.3138 43.7841 41.692 43.7066C41.8762 43.6678 42.1283 43.5126 42.2738 43.3575C42.4095 43.2024 42.7489 42.8921 43.0301 42.6788C43.5924 42.2424 43.8348 41.7576 44.0482 40.6329C44.1645 40.0026 44.1548 39.9541 43.8639 39.033C43.6894 38.5094 43.5537 37.9082 43.5537 37.7046C43.5537 37.0744 44.533 35.3194 44.8723 35.3194C44.9305 35.3194 45.1341 35.2127 45.3281 35.0866C45.5123 34.9606 45.8129 34.8248 45.9874 34.7861C46.1716 34.7473 46.4819 34.6115 46.6855 34.4855C46.8891 34.3497 47.277 34.214 47.5485 34.1849C47.8588 34.1461 48.2078 34.0201 48.4987 33.8261C48.7508 33.6613 49.0902 33.4577 49.2453 33.3704C49.6526 33.1474 50.3216 31.916 50.3507 31.3439C50.3798 30.8494 50.2634 30.0834 50.1568 30.0834C50.118 30.0834 50.0113 29.9477 49.9144 29.7925C49.701 29.4241 49.4296 29.1429 48.935 28.7744C47.8588 27.9793 47.4515 27.2133 47.8394 26.7188C47.8879 26.6606 48.1593 26.5346 48.4502 26.4473C48.8672 26.3116 49.0029 26.2146 49.129 25.9625C49.2647 25.6619 49.7204 24.2075 49.8271 23.713C49.8853 23.4803 49.701 22.8694 49.5265 22.6852C49.4683 22.627 49.2938 22.4137 49.1484 22.2198C48.9932 22.0065 48.7411 21.8222 48.5084 21.7447C48.2951 21.6768 48.0915 21.5508 48.0624 21.4635C48.0236 21.3762 47.9751 20.9108 47.946 20.4357C47.9266 19.9509 47.8782 19.4952 47.8491 19.4176C47.8103 19.34 47.8006 18.9037 47.8103 18.448C47.8394 17.5365 47.5291 15.7524 47.2964 15.4034C47.2188 15.2967 46.9764 15.0058 46.7631 14.7634C46.5401 14.521 46.3656 14.298 46.3656 14.2592C46.3656 14.2204 45.9486 13.7744 45.4347 13.2605C44.7366 12.5818 44.3972 12.3103 44.0966 12.223C43.8833 12.1551 43.3016 11.903 42.8264 11.6606C41.9732 11.234 41.9441 11.2146 41.6435 10.594C41.275 9.85713 41.246 9.49837 41.4787 8.12151L41.6435 7.15189L41.3429 6.21136C40.9066 4.87329 40.606 4.3206 39.9855 3.72914C39.1613 2.96314 38.3468 2.64316 37.1445 2.64316C36.5142 2.64316 35.4185 2.93405 35.118 3.17645C35.0404 3.24433 34.6428 3.39946 34.2453 3.51582C33.8478 3.63217 33.3145 3.83579 33.0624 3.97154C32.6066 4.20425 32.5969 4.20425 32.3545 4.02972C32.2285 3.93276 32.1121 3.8261 32.1121 3.77762C32.1121 3.73883 32.054 3.70974 31.9861 3.70974C31.7243 3.70974 31.1619 2.92435 30.8032 2.06139C30.5414 1.45053 30.2989 1.05298 30.1147 0.946326C30.0178 0.897845 29.756 0.73301 29.5426 0.597263C28.9318 0.199719 28.3209 0.0930605 27.3125 0.219111C26.8374 0.277288 26.4011 0.364554 26.3429 0.413035C26.275 0.461516 26.149 0.519693 26.0423 0.539086C25.732 0.587567 24.9079 0.926934 24.6364 1.10147C24.5006 1.19843 24.2776 1.30509 24.1322 1.33417C23.8898 1.40205 23.6958 1.57658 22.4062 2.93405C22.125 3.22493 21.8826 3.45764 21.8633 3.44795C21.8245 3.41886 20.9324 2.93405 20.5058 2.71103C20.3313 2.62377 19.9531 2.47833 19.6719 2.40076C19.4004 2.32319 18.9253 2.19714 18.6344 2.10987C18.3435 2.0323 17.8587 1.95473 17.5678 1.95473C17.0055 1.95473 15.9098 2.17774 15.3668 2.40076C15.1923 2.47833 15.0468 2.51711 15.0468 2.49772C15.0468 2.36197 13.6312 3.19585 13.1755 3.60309C12.8652 3.87458 12.584 4.09759 12.5452 4.09759C12.5064 4.09759 12.3901 4.30121 12.2931 4.56301C12.1864 4.81511 12.0022 5.18357 11.8762 5.37749C11.7501 5.58111 11.6725 5.74595 11.7016 5.74595C11.8083 5.74595 11.4592 6.31802 11.3041 6.40529C11.2168 6.45377 10.9841 6.46346 10.7902 6.41498C10.063 6.25984 9.59756 6.24045 9.2485 6.3762C9.04488 6.44407 8.76369 6.53134 8.60855 6.57012C8.34675 6.6283 7.47409 7.02584 6.91171 7.34582C6.63052 7.50096 5.73847 8.37362 5.73847 8.48997C5.73847 8.52876 5.54455 8.95539 5.31184 9.42081C5.07913 9.88622 4.85612 10.4098 4.81733 10.594C4.77855 10.7783 4.72037 10.9528 4.68159 10.9819C4.6525 11.011 4.55554 11.2922 4.46827 11.6121C4.36161 12.0485 4.34222 12.3975 4.3907 13.0181C4.49736 14.2592 4.48766 15.733 4.37131 16.15C4.31313 16.3827 4.19678 16.5475 4.06103 16.596C3.94468 16.6445 3.69258 16.819 3.50835 16.9838C3.13989 17.3038 2.17027 17.9632 2.06361 17.9632C2.02483 17.9632 1.8503 18.1183 1.66607 18.3025C1.48184 18.4868 1.26853 18.6419 1.21035 18.6419C1.14247 18.6419 1.01642 18.7582 0.919462 18.9037C0.8225 19.0588 0.667361 19.2625 0.580095 19.3594C0.483133 19.4661 0.395868 19.7085 0.395868 19.8927C0.386171 20.0866 0.366779 20.3678 0.357083 20.5327C0.347387 20.6878 0.376475 20.969 0.424956 21.1435ZM2.89749 19.7763C3.05263 19.5921 3.33382 19.3303 3.53744 19.2043C4.45858 18.6419 4.97247 18.2831 5.28275 17.9922C5.46698 17.8274 5.64151 17.7014 5.6609 17.7305C5.68999 17.7498 5.88392 17.6141 6.09723 17.4299C6.64992 16.9645 6.71779 16.6057 6.70809 14.2495C6.6984 12.4072 6.78566 11.3891 6.98928 11.137C7.03776 11.0789 7.12503 10.8074 7.17351 10.5359C7.28987 9.98319 7.58075 9.4305 7.9589 9.01357C8.85095 8.03425 9.03518 7.96638 10.6932 8.04395C11.7598 8.09243 11.8568 8.08273 12.3707 7.85002C12.6713 7.71427 12.9137 7.62701 12.9137 7.6561C12.9137 7.69488 13.0203 7.61731 13.1464 7.50096C13.3694 7.29734 13.7281 6.6186 14.1354 5.64898C14.3293 5.16417 14.7947 4.51453 15.0953 4.29152C15.328 4.11698 16.2685 3.80671 16.5691 3.80671C16.6855 3.80671 16.8115 3.75822 16.8406 3.70974C16.8697 3.65157 17.0927 3.61278 17.3351 3.61278C17.8005 3.61278 19.1386 3.88428 19.2162 3.99093C19.2453 4.02972 19.4004 4.11698 19.5653 4.17516C19.7204 4.24303 19.9628 4.39817 20.0985 4.51453C20.3313 4.73754 21.2427 5.06721 21.776 5.13509C22.6099 5.23205 23.6764 4.55331 24.6945 3.29281C25.1018 2.77891 26.1005 1.96443 26.3138 1.96443C26.3914 1.96443 26.4883 1.92564 26.5368 1.87716C26.6726 1.76081 27.5549 1.47962 27.807 1.47962C28.2046 1.47962 28.6021 1.79959 28.8639 2.34258C29.4554 3.53521 29.8238 3.99093 30.8225 4.72784C31.1037 4.94116 31.3364 5.13508 31.3364 5.17387C31.3364 5.3484 32.054 5.56172 32.5776 5.54232C33.1108 5.52293 34.1483 5.22235 34.1483 5.0866C34.1483 5.01873 35.3119 4.44665 36.0391 4.14607C36.2621 4.05881 36.5918 3.99093 36.7663 4.00063C36.9505 4.00063 37.1929 4.00063 37.2899 4.01033C37.5323 4.01033 38.5407 5.06721 38.7928 5.58111C39.1419 6.30832 39.2776 7.25855 39.2195 8.69359C39.1807 9.88622 39.297 10.8655 39.5394 11.4376C39.617 11.6024 39.6752 11.8061 39.6752 11.8933C39.6752 12.1163 40.9163 12.8242 42.4483 13.4738C42.8555 13.6483 44.436 15.1997 44.8529 15.8397C45.1438 16.276 45.2214 16.499 45.2505 16.9838C45.2796 17.3232 45.3281 17.6335 45.3571 17.682C45.4929 17.9147 45.5899 19.0491 45.4832 19.2431C45.2699 19.6406 45.3475 20.1448 45.8129 21.5023C45.9195 21.8222 46.1038 22.1713 46.2298 22.278C46.3462 22.3846 46.4722 22.5785 46.5013 22.7143C46.5304 22.85 46.5886 23.0052 46.6274 23.0634C46.7437 23.2088 47.3837 23.587 47.5388 23.587C47.8782 23.5966 47.9557 23.7518 47.82 24.159C47.7133 24.4984 47.6455 24.5566 47.1994 24.702C46.6177 24.8959 46.4043 25.0608 46.1619 25.5456C46.0553 25.7492 45.9292 25.914 45.8807 25.914C45.7159 25.914 45.8032 26.6316 46.0262 27.1261C46.1522 27.3879 46.3074 27.7854 46.3752 27.9987C46.4431 28.212 46.6274 28.5708 46.7728 28.7938C46.9182 29.0168 47.0443 29.2398 47.0443 29.2883C47.0443 29.3853 47.4418 29.7537 47.9945 30.1707C48.2854 30.3937 48.4211 30.7621 48.2078 30.7621C48.1497 30.7621 48.1109 30.8203 48.1109 30.8882C48.1109 31.0821 47.723 31.4894 47.3837 31.6542C47.2188 31.7415 46.831 31.9451 46.5207 32.1099C46.2007 32.2747 45.8904 32.4105 45.8323 32.4105C45.7741 32.4105 45.5123 32.5172 45.2505 32.6432C44.9984 32.779 44.5718 32.9341 44.3003 33.002C44.0288 33.0601 43.7088 33.2056 43.5924 33.3219C43.4664 33.4383 43.3113 33.574 43.2434 33.6322C42.9816 33.8649 42.7683 34.1752 42.458 34.8055C41.8083 36.1047 41.6435 36.8901 41.8277 37.7725C41.8762 38.0343 41.9344 38.2961 41.9441 38.3543C41.9538 38.4221 42.0217 38.6355 42.0895 38.8488C42.3319 39.5566 42.0507 40.662 41.5853 40.8559C41.4205 40.9238 41.1199 41.1468 40.9066 41.3407C40.4315 41.7964 39.714 42.0291 38.7056 42.0485C38.085 42.0582 37.9008 42.0194 37.4741 41.7867C37.0475 41.5734 36.8439 41.5249 36.2621 41.5249C35.3313 41.5249 34.4101 41.6801 34.0611 41.8934C33.7993 42.0485 33.4502 42.3297 32.6454 42.9987C32.4709 43.1442 32.1897 43.5126 32.0055 43.8132C31.8213 44.1138 31.5401 44.521 31.3752 44.715C31.2104 44.9089 30.9777 45.2386 30.8516 45.4519C30.5123 46.024 30.202 46.2858 29.4651 46.6542C28.8542 46.9548 28.7573 46.9742 28.2046 46.9063C27.8749 46.8772 27.458 46.7803 27.2834 46.7027C27.0992 46.6251 26.8665 46.5669 26.7695 46.5669C26.6629 46.5669 26.5853 46.5282 26.5853 46.4797C26.5853 46.4215 26.4011 46.3536 26.1684 46.3245C25.8484 46.2761 25.6545 46.1597 25.3442 45.8494C25.1212 45.6167 24.7721 45.3452 24.5685 45.2483C24.3746 45.1513 24.0934 44.9865 23.9382 44.8895C23.4631 44.5695 22.6196 44.3271 21.8051 44.2883C21.0779 44.2399 20.9906 44.2205 20.787 43.9781C20.5349 43.6581 20.3991 43.2218 20.37 42.543C20.341 42.0582 19.8561 40.9044 19.5943 40.6814C19.5168 40.6232 19.1095 40.4583 18.6829 40.3129C17.6939 39.9735 16.6661 39.9541 15.968 40.2644C15.8031 40.3323 15.5316 40.4486 15.3571 40.5262C15.1729 40.6038 15.008 40.6523 14.9886 40.6232C14.9596 40.6038 14.9886 40.2256 15.0371 39.7893C15.1341 39.0621 15.2989 38.5773 15.9292 37.1907C16.0261 36.958 16.1134 36.735 16.1134 36.6768C16.1134 36.6283 16.2685 36.2599 16.4528 35.8623C16.8018 35.1254 16.8406 34.8345 16.734 34.0201C16.6758 33.6419 16.5788 33.4577 16.1716 33.0214C15.5316 32.3329 15.0953 32.0517 14.3487 31.8772C13.7087 31.7318 12.3513 31.7609 11.8083 31.9354C11.6144 31.9936 11.498 31.9936 11.4592 31.916C11.4204 31.8578 11.1974 31.819 10.9647 31.8384C10.3345 31.8675 9.43273 31.3924 8.59885 30.5973C7.86194 29.8798 7.09594 28.7259 7.09594 28.309C7.09594 28.1733 7.05716 28.0375 7.00868 27.9987C6.9505 27.9696 6.9505 27.8242 7.01837 27.6303C7.36744 26.5055 7.4644 25.2159 7.23169 24.6535C7.06685 24.2657 6.33964 23.5385 5.60273 23.044C5.33123 22.8597 4.95308 22.5882 4.75916 22.4428C4.57493 22.2974 4.18708 22.0162 3.90589 21.8029C3.3629 21.3956 2.63569 20.5327 2.63569 20.2806C2.63569 20.1933 2.75204 19.9703 2.89749 19.7763Z" fill="black"/>
</svg>
