<svg width="51" height="62" viewBox="0 0 51 62" fill="none" xmlns="http://www.w3.org/2000/svg">
<path d="M0.235008 42.0527C0.275702 42.3828 0.393261 42.8621 0.48369 43.0565C0.519862 43.1379 0.587685 43.3549 0.637421 43.5403C0.682636 43.7212 0.795673 44.0196 0.881582 44.1959C0.972012 44.3723 1.04436 44.535 1.04436 44.5622C1.04436 44.5893 1.09409 44.6797 1.15287 44.7566C1.21165 44.838 1.27495 44.951 1.29304 45.0143C1.39251 45.3444 2.02552 46.4702 2.26968 46.7551C2.31037 46.8048 2.41889 46.9269 2.50932 47.0264C2.59975 47.1259 2.758 47.3339 2.862 47.4876C3.23276 48.0211 3.45883 48.2924 3.77082 48.5863C3.94715 48.7491 4.14158 48.939 4.20488 49.0113C4.44904 49.2871 4.76554 49.5765 4.80172 49.5539C4.8198 49.5449 4.85145 49.5584 4.87406 49.5901C4.89215 49.6217 5.09109 49.7393 5.31717 49.8478C5.53872 49.9608 5.73314 50.0603 5.74671 50.0739C5.77836 50.1146 6.95847 50.4718 7.17098 50.5079C7.32923 50.5351 7.95772 50.6571 8.04363 50.6752C8.06171 50.6798 8.19736 50.6662 8.34657 50.6481C9.16496 50.5441 10.3179 50.6617 10.7746 50.8968C11.0595 51.0415 11.4483 51.3128 11.602 51.4801C11.6744 51.5569 11.9095 51.7378 12.122 51.878C12.3345 52.0181 12.5154 52.1447 12.5289 52.1583C12.6103 52.2578 13.1891 52.7009 13.2388 52.7009C13.2705 52.7009 13.2976 52.7189 13.2976 52.7461C13.2976 52.7687 13.3338 52.7913 13.3745 52.7913C13.4197 52.7913 13.5146 52.832 13.5915 52.8817C13.6638 52.9315 13.8583 53.04 14.0165 53.1168C14.2923 53.248 14.3375 53.257 14.8756 53.257C15.2825 53.2615 15.477 53.2434 15.5583 53.1982C15.6216 53.1621 15.694 53.1304 15.7166 53.1259C15.8161 53.1123 16.3948 52.8229 16.4084 52.7868C16.4174 52.7642 16.4491 52.7461 16.4807 52.7461C16.5486 52.7461 16.951 52.3211 17.055 52.1402C17.159 51.9593 17.4574 51.5795 17.6428 51.3942C17.7829 51.254 17.9728 51.0867 18.6149 50.5305C18.6872 50.4672 18.7822 50.3949 18.8229 50.3723C18.8636 50.3452 19.0082 50.2502 19.1439 50.1598C19.2795 50.0648 19.4785 49.9699 19.5915 49.9473C19.8899 49.8795 20.4551 49.8749 20.5817 49.9428C20.7264 50.0196 21.165 50.4718 21.165 50.5486C21.165 50.5803 21.2147 50.7024 21.278 50.8199C21.3413 50.9375 21.382 51.055 21.3685 51.0776C21.3504 51.1003 21.3594 51.1183 21.382 51.1183C21.4046 51.1183 21.477 51.254 21.5448 51.4213C21.6171 51.5931 21.694 51.774 21.7166 51.8282C21.7528 51.9006 21.7528 51.9458 21.7166 51.991C21.6669 52.0498 21.6804 52.1945 21.798 52.7235C21.8297 52.8591 21.8387 53.1394 21.8206 53.4243C21.8025 53.777 21.8116 53.9804 21.8658 54.2156C22.0603 55.0701 22.11 55.3278 22.1552 55.6398C22.1823 55.8252 22.214 56.0377 22.223 56.1146C22.2366 56.1869 22.2547 56.3768 22.2682 56.5306C22.2818 56.6843 22.3225 56.8878 22.3632 56.9827C22.4039 57.0777 22.4853 57.349 22.5441 57.5931C22.6028 57.8328 22.7113 58.1493 22.7837 58.2939C22.8606 58.4386 22.9826 58.6783 23.055 58.8275C23.1318 58.9767 23.2358 59.1892 23.2856 59.3022C23.4077 59.569 23.5704 59.8358 23.6925 59.9714C23.7468 60.0347 23.8191 60.1478 23.8508 60.2291C23.9367 60.4326 24.8184 61.2872 25.0851 61.4273C25.2027 61.4906 25.3202 61.5539 25.3474 61.5766C25.6322 61.7891 25.7769 61.8433 26.2245 61.9247C26.7355 62.0106 27.5629 62.0151 27.9472 61.9337C28.1778 61.884 28.1597 61.884 28.6707 61.8614C29.2404 61.8343 29.8327 61.7619 30.1402 61.6851C30.2894 61.6489 30.5109 61.6172 30.633 61.6127C30.7506 61.6082 30.8681 61.5992 30.8862 61.5856C30.9088 61.572 31.0445 61.5494 31.1891 61.5359C31.3338 61.5223 31.587 61.468 31.7543 61.4228C31.9261 61.3731 32.2698 61.3098 32.523 61.2872C33.2509 61.2103 33.5268 61.1741 33.6127 61.1334C33.7574 61.0701 33.9699 60.8395 33.9473 60.7762C33.9337 60.7401 33.9518 60.6406 33.9925 60.5637C34.0965 60.3557 34.1145 59.8629 34.0377 59.2118C33.9156 58.208 33.9879 57.3444 34.2773 56.3407C34.3497 56.092 34.4446 55.7483 34.4808 55.572C34.5215 55.4002 34.5803 55.2284 34.6074 55.1967C34.6345 55.1606 34.6616 55.1063 34.6662 55.0746C34.6797 54.9842 35.1048 54.1297 35.1454 54.1116C35.1681 54.1025 35.1816 54.0664 35.1816 54.0347C35.1816 53.9624 35.48 53.6956 35.5569 53.6956C35.5886 53.6956 35.9864 53.5735 36.4476 53.4243C36.9043 53.2751 37.3519 53.1394 37.4424 53.1259C37.5825 53.1033 38.8214 52.7687 39.1831 52.6556C39.2555 52.633 39.4002 52.6014 39.4996 52.5878C39.7212 52.5517 40.11 52.4431 41.2178 52.1131C41.367 52.0679 41.6112 51.9955 41.7604 51.9548C41.9096 51.9096 42.1945 51.7966 42.3889 51.6971C42.5833 51.5976 42.841 51.4891 42.9541 51.4484C43.0671 51.4122 43.1937 51.3535 43.2299 51.3218C43.266 51.2902 43.37 51.2314 43.456 51.1952C43.5419 51.159 43.7363 51.037 43.8855 50.9284C44.0347 50.8154 44.2924 50.6481 44.4597 50.5622C44.627 50.4718 44.7898 50.3768 44.8214 50.3497C44.8531 50.3226 44.9752 50.2412 45.0927 50.1643C45.2148 50.0874 45.3505 49.9699 45.4002 49.8975C45.4499 49.8297 45.6579 49.6534 45.8614 49.5042C46.0649 49.3595 46.5758 48.8983 47.0008 48.4778C47.6971 47.786 47.7921 47.673 48.0272 47.2479C48.1719 46.9902 48.3166 46.7461 48.3482 46.7054C48.4793 46.5426 48.6376 46.4024 48.7371 46.3663C48.8637 46.3165 49.2254 45.7604 49.3881 45.358C49.4605 45.1816 49.5374 45.0188 49.56 44.9917C49.578 44.9691 49.6414 44.8289 49.6956 44.6843C49.7499 44.5441 49.8086 44.4265 49.8313 44.4265C49.8539 44.4265 49.8674 44.3904 49.8674 44.3451C49.8674 44.3044 49.9172 43.9834 49.9805 43.6353C50.193 42.4461 50.2065 42.2879 50.2111 40.4838C50.2111 39.5298 50.1975 38.6074 50.1794 38.4356C50.1658 38.2592 50.1387 37.6895 50.1252 37.1695C50.1071 36.645 50.089 36.1567 50.0799 36.0844C50.0664 36.0075 50.0483 35.5011 50.0302 34.954C50.0166 34.4069 49.9895 33.7739 49.9714 33.5523C49.9488 33.3263 49.9262 32.8108 49.9217 32.3994C49.9126 31.9879 49.9036 31.59 49.8991 31.5177C49.8946 31.4408 49.8765 31.1966 49.8584 30.9751C49.8448 30.749 49.8177 30.2517 49.8041 29.8673C49.7906 29.483 49.7725 29.0851 49.768 28.9856C49.6233 27.3715 49.5871 24.428 49.6911 23.1303C49.7182 22.7957 49.7544 22.2124 49.768 21.8417C49.7906 21.2403 49.8132 20.9555 49.9081 20.1461C49.9443 19.8432 49.9443 16.3978 49.9081 16.1898C49.89 16.0903 49.8539 15.8959 49.8313 15.7603C49.8086 15.6246 49.777 15.2719 49.7634 14.9826C49.7499 14.6887 49.6956 14.232 49.6504 13.9652C49.6007 13.6985 49.5193 13.1288 49.4695 12.7083C49.4153 12.2832 49.3248 11.7135 49.2661 11.4422C49.2073 11.1664 49.144 10.8816 49.1349 10.8092C49.0581 10.3797 48.9676 9.99989 48.8094 9.44827C48.7506 9.24932 48.7009 9.06394 48.7009 9.03229C48.7009 8.96899 48.5381 8.4671 48.4522 8.2772C48.1176 7.52211 48.0181 7.31412 47.8056 6.94336C47.5886 6.56355 47.3716 6.25609 47.1952 6.07523C47.0551 5.93507 46.7431 5.51005 46.6662 5.36536C46.621 5.27493 46.5351 5.15285 46.4763 5.08955C46.4175 5.02625 46.3407 4.92225 46.309 4.85443C46.2548 4.74591 46.0151 4.43845 45.8116 4.20786C45.7167 4.10386 45.3324 3.75119 45.1741 3.62458C44.9571 3.44825 44.2291 3.19956 44.1251 3.26286C44.1025 3.27643 43.9488 3.19504 43.7815 3.082C43.6097 2.96897 43.4243 2.85593 43.361 2.8288C43.3022 2.80619 43.2208 2.7655 43.1847 2.73837C43.1485 2.71576 42.9315 2.61177 42.7099 2.50778C42.4838 2.40378 42.1312 2.24101 41.9186 2.14153C41.7107 2.04206 41.4303 1.91998 41.2992 1.87024C41.1681 1.82051 41.0324 1.75721 41.0008 1.73008C40.8561 1.58991 39.7755 1.24176 39.0701 1.10611C38.9571 1.08351 38.8169 1.04733 38.7536 1.02473C38.627 0.979511 38.0844 0.857431 37.1937 0.681093C36.8681 0.61327 36.5245 0.540926 36.425 0.518319C36.3256 0.495711 36.0497 0.468583 35.8146 0.455018C35.5795 0.441454 35.1997 0.409803 34.9782 0.387196C34.7521 0.364588 34.4084 0.332938 34.2095 0.319373C34.0106 0.305809 33.685 0.274158 33.4861 0.24703C32.7445 0.152078 32.098 0.124949 30.9992 0.143035C29.8282 0.165643 29.6337 0.174686 28.8741 0.24703C28.6255 0.269637 28.3406 0.292245 28.2411 0.292245C28.1417 0.296766 27.8975 0.332938 27.6985 0.36911C27.4996 0.409804 27.2735 0.450497 27.2012 0.455018C27.1243 0.464061 26.8937 0.49119 26.6812 0.518319C26.4687 0.545448 26.1251 0.577099 25.9126 0.590663C25.5463 0.613271 25.0761 0.649443 24.8229 0.681093C24.7596 0.690136 24.5968 0.717265 24.4612 0.744394C24.3255 0.771523 24.1627 0.803174 24.0949 0.812216C24.0271 0.825781 23.792 0.880039 23.5749 0.934297C23.3534 0.988555 23.0143 1.06542 22.8153 1.11064C22.4853 1.18298 22.0738 1.28697 21.3232 1.49496C21.174 1.53566 20.9073 1.608 20.7355 1.65321C20.5591 1.69843 20.3466 1.76173 20.2607 1.78886C20.1748 1.81599 20.0708 1.84764 20.0346 1.85668C19.9623 1.87477 19.1981 2.16414 18.9721 2.26362C18.8952 2.29527 18.7324 2.35405 18.6103 2.39926C18.3617 2.48517 17.8055 2.77907 17.7829 2.83785C17.7739 2.85593 17.697 2.88306 17.6156 2.90115C17.5297 2.91471 17.4393 2.9554 17.4076 2.99158C17.3805 3.02775 17.3217 3.05488 17.281 3.05488C17.1635 3.0594 16.9374 3.19956 16.7158 3.40303C16.6073 3.51155 16.4943 3.59746 16.4762 3.59746C16.2953 3.59746 14.3828 5.14381 14.3828 5.28849C14.3828 5.30658 14.229 5.4784 14.0436 5.6683C13.8583 5.8582 13.7045 6.0255 13.7045 6.04358C13.7045 6.05715 13.5915 6.20636 13.4558 6.37817C13.3202 6.54999 13.2072 6.71729 13.2072 6.74894C13.2072 6.78059 13.1936 6.80772 13.171 6.80772C13.1529 6.80772 13.0987 6.87102 13.0489 6.94788C12.9992 7.02475 12.8681 7.13778 12.755 7.20561C12.4747 7.36838 12.3074 7.50855 12.1401 7.7301C12.009 7.90644 11.7377 8.52136 11.6201 8.91021C11.593 9.00968 11.489 9.25836 11.394 9.46183C11.2991 9.6653 11.2087 9.89137 11.1906 9.9592C11.1408 10.1807 10.7023 11.3428 10.6299 11.4422C10.6118 11.4649 10.5531 11.6593 10.4988 11.8718C10.44 12.0843 10.3631 12.3375 10.327 12.437C10.2863 12.5364 10.232 12.7173 10.2004 12.8439C10.1687 12.966 10.0738 13.2735 9.99691 13.5221C9.88387 13.8793 9.68493 14.5892 9.6171 14.8786C9.5945 14.9781 9.47694 15.3624 9.30512 15.9185C9.20113 16.2395 9.11522 16.5244 9.1107 16.5515C9.04287 16.8726 8.98409 17.0896 8.90723 17.2976C8.85749 17.4332 8.75802 17.7723 8.68568 18.0481C8.61333 18.3194 8.53647 18.5952 8.50934 18.6585C8.37369 18.9977 8.27422 19.4317 8.13858 20.2953C8.11597 20.4445 8.07075 20.6661 8.03458 20.7927C7.92607 21.177 7.82659 21.905 7.75425 22.7686C7.74521 22.9042 7.70451 23.1574 7.66834 23.3338C7.62313 23.5508 7.596 24.0843 7.58243 25.0474C7.56435 26.3044 7.57791 26.648 7.67738 27.4709C7.69547 27.6066 7.70451 27.7603 7.70451 27.81C7.65478 28.9404 7.5553 29.3926 7.26593 29.7995C7.21167 29.8718 7.1348 29.9939 7.10315 30.0708C7.03985 30.2019 6.10843 31.1786 6.04512 31.1786C6.02704 31.1786 5.75575 31.4318 5.43925 31.7392C4.81076 32.3496 4.64346 32.4943 4.0828 32.8786C3.62161 33.1951 3.51761 33.3037 3.11068 33.8688C2.92982 34.113 2.6947 34.4069 2.59071 34.5245C2.48219 34.6375 2.3375 34.7958 2.2742 34.8817C2.20638 34.9676 2.12951 35.058 2.10691 35.0851C2.03456 35.1665 1.4965 35.9623 1.4965 35.9894C1.4965 36.0301 1.20713 36.4461 1.16644 36.4642C1.11218 36.4868 0.90871 36.9254 0.90871 37.0248C0.90871 37.0701 0.868017 37.1876 0.822802 37.2871C0.682636 37.5765 0.519862 38.3496 0.293788 39.8146C0.216922 40.2894 0.185272 41.6322 0.235008 42.0527ZM1.29304 39.5659C1.3066 39.3896 1.35182 39.1183 1.38347 38.9555C1.41964 38.7928 1.46033 38.5893 1.4739 38.5034C1.51911 38.2411 1.67736 37.6307 1.74519 37.4499C1.78136 37.3594 1.80397 37.2826 1.79492 37.2826C1.76327 37.2826 2.26968 36.324 2.4008 36.1296C2.47315 36.0301 2.59071 35.89 2.66757 35.8176C2.74444 35.7407 2.80774 35.6684 2.80774 35.6458C2.80774 35.6096 2.84391 35.5599 3.08355 35.275C3.14685 35.1982 3.33223 34.945 3.49048 34.7098C3.79342 34.2622 4.16871 33.8598 4.54851 33.5704C4.67059 33.4755 4.86502 33.3172 4.97805 33.2178C5.09109 33.1183 5.19961 33.0324 5.21769 33.0324C5.23578 33.0324 5.27647 33.0143 5.30812 32.9872C5.33977 32.9645 5.46637 32.8651 5.59298 32.7656C5.71506 32.6707 5.9547 32.431 6.11747 32.2366C6.44302 31.8477 6.53345 31.7618 6.72787 31.6578C6.86352 31.5855 7.65025 30.8033 7.69999 30.6948C7.77233 30.5229 7.95319 30.2697 8.01197 30.2517C8.08432 30.2245 8.45508 29.5237 8.58168 29.1665C8.72185 28.7686 8.78063 27.7106 8.70828 26.9284C8.61785 25.9698 8.67663 23.6231 8.80323 22.9947C8.83941 22.8093 8.89819 22.4204 8.93436 22.1356C9.02479 21.3895 9.12878 20.7475 9.23278 20.2456C9.28251 20.006 9.3639 19.6126 9.40911 19.3775C9.45433 19.1423 9.52215 18.8575 9.56737 18.7445C9.60806 18.6314 9.6578 18.4777 9.6804 18.4053C9.7211 18.2607 9.88839 17.6819 9.95169 17.4558C10.0331 17.1665 10.3677 15.8914 10.4943 15.3986C10.5666 15.1137 10.6661 14.7746 10.7113 14.6525C10.7972 14.4355 10.8243 14.3405 10.9464 13.9065C10.9781 13.7934 11.0188 13.6623 11.0414 13.6126C11.0911 13.4905 11.2765 12.8801 11.4031 12.4144C11.4573 12.2019 11.5342 11.9803 11.5659 11.917C11.5975 11.8537 11.6246 11.7768 11.6246 11.7407C11.6246 11.6276 11.9909 10.5832 12.0361 10.5696C12.0858 10.5515 12.3888 10.0948 12.4656 9.92755C12.4928 9.86424 12.5922 9.71051 12.6917 9.58843C12.8409 9.38949 12.9856 9.14533 13.2433 8.63892C13.284 8.56205 13.3925 8.4038 13.4875 8.28624C13.5825 8.16416 13.6593 8.05113 13.6593 8.02852C13.6593 8.01043 13.7317 7.90192 13.813 7.7934C14.125 7.40455 14.1838 7.32769 14.2471 7.19656C14.2833 7.12422 14.4144 6.96145 14.532 6.83484C14.6495 6.70824 14.8033 6.5319 14.8711 6.446C14.9389 6.36009 15.0791 6.20184 15.1876 6.09784C15.2916 5.99385 15.4498 5.82655 15.5312 5.72708C15.6895 5.53718 16.0286 5.27041 16.5757 4.89512C16.7475 4.77757 16.9826 4.60123 17.0911 4.50175C17.2042 4.40228 17.3172 4.32089 17.3489 4.32089C17.3805 4.32089 17.4122 4.30733 17.4212 4.28472C17.4483 4.22594 17.9728 3.92753 18.5877 3.62911C19.3383 3.26739 19.4559 3.21765 19.7452 3.13174C19.8718 3.09557 20.0346 3.03227 20.107 2.9961C20.1793 2.95993 20.5003 2.85593 20.8259 2.76098C21.1469 2.67055 21.6262 2.52586 21.8884 2.44448C22.1507 2.35857 22.5576 2.25909 22.7927 2.2184C23.0278 2.17771 23.2358 2.13249 23.2584 2.11893C23.2811 2.10536 23.3624 2.07823 23.4438 2.05563C23.5207 2.03754 23.697 1.99233 23.8327 1.95163C23.9683 1.91546 24.1673 1.87477 24.2758 1.8612C24.3843 1.84764 24.5516 1.81599 24.6511 1.78886C24.7505 1.76173 24.8907 1.73008 24.963 1.72104C25.0354 1.71199 25.1303 1.69391 25.1756 1.68486C25.2569 1.65774 25.5056 1.63965 26.6134 1.56278C27.2193 1.52209 27.477 1.49044 27.5403 1.44975C27.5719 1.43166 28.7566 1.32314 29.688 1.25532C30.5245 1.19654 32.835 1.2508 33.5539 1.3548C33.8161 1.39097 34.205 1.42262 34.422 1.42714C34.6345 1.42714 34.8606 1.4407 34.9194 1.44975C35.263 1.504 35.7332 1.56731 35.9277 1.58087C36.1357 1.59443 36.4793 1.63965 36.6963 1.67582C36.7461 1.68486 36.9088 1.72556 37.058 1.76625C37.2072 1.80694 37.5011 1.87025 37.7137 1.90642C37.9262 1.94259 38.2517 2.01041 38.4371 2.05563C38.6225 2.10536 38.9978 2.19579 39.2736 2.26361C39.9789 2.43543 40.3045 2.54395 40.6165 2.72029C40.7657 2.80619 40.9058 2.87402 40.9284 2.87402C40.9465 2.87402 41.0776 2.92375 41.2178 2.98253C41.3535 3.04583 41.4665 3.08653 41.4665 3.07748C41.4665 3.06844 41.7785 3.21765 42.1538 3.40755C42.5336 3.59746 42.9179 3.78284 43.0038 3.81901C43.0897 3.85518 43.2841 3.97274 43.4333 4.08125C44.4055 4.79113 44.6677 4.99007 44.7627 5.10311C44.826 5.17546 44.8983 5.25684 44.9254 5.28849C44.9571 5.31562 45.1018 5.49196 45.2555 5.67734C45.4047 5.86272 45.5901 6.0888 45.6624 6.17471C45.7348 6.26061 45.8297 6.4053 45.8749 6.49121C45.9156 6.57712 46.0151 6.71276 46.0965 6.79415C46.1734 6.87102 46.2593 6.96597 46.2819 6.99762C46.309 7.02927 46.404 7.14683 46.4989 7.25534C46.5893 7.36838 46.6662 7.49046 46.6662 7.53567C46.6662 7.57637 46.7476 7.73462 46.8471 7.88383C46.9465 8.03304 47.0279 8.16416 47.0279 8.18225C47.0279 8.20033 47.1003 8.35859 47.1862 8.53492C47.2766 8.71126 47.367 8.94186 47.3896 9.04133C47.4168 9.14533 47.4756 9.36688 47.5253 9.54322C47.575 9.71503 47.6564 10.0225 47.7062 10.2214C47.7559 10.4204 47.8328 10.6917 47.8734 10.8228C47.9141 10.9539 47.9458 11.0941 47.9458 11.1393C47.9413 11.18 47.9774 11.4106 48.0272 11.6457C48.104 12.0346 48.2487 12.9434 48.3166 13.4543C48.3527 13.7572 48.3618 13.7889 48.3979 13.8522C48.4205 13.8838 48.4296 13.9517 48.4251 14.0105C48.4205 14.0647 48.4296 14.2004 48.4477 14.3134C48.4658 14.4264 48.4929 14.5756 48.5019 14.6525C48.6059 15.2946 48.7506 17.5372 48.7597 18.654C48.7687 19.5041 48.7597 19.6397 48.6376 20.96C48.6014 21.3714 48.5562 21.9818 48.5426 22.3164C48.5291 22.651 48.4838 23.2524 48.4477 23.6503C48.407 24.0482 48.3708 24.7083 48.3618 25.1198C48.3346 26.5169 48.3346 27.3398 48.3618 27.3805C48.3753 27.4031 48.3934 27.5975 48.4025 27.8191C48.4115 28.0361 48.4432 28.4295 48.4658 28.6917C48.4929 28.954 48.5291 29.4604 48.5426 29.8221C48.5562 30.1838 48.5788 30.6315 48.5878 30.8168C48.5969 31.0022 48.615 31.5538 48.6285 32.0376C48.6466 32.5214 48.6692 32.9917 48.6828 33.0776C48.6918 33.1635 48.7144 33.7739 48.728 34.434C48.7461 35.474 48.7777 35.9623 48.8591 36.6496C48.8682 36.7355 48.8908 37.468 48.9043 38.2773C48.9179 39.0866 48.9405 39.8372 48.9496 39.9503C48.9767 40.1989 48.9767 40.8681 48.9631 42.0347C48.9496 42.7671 48.936 42.939 48.8772 43.0068C48.728 43.1876 48.5336 43.5991 48.4838 43.8568C48.4477 44.0332 48.3889 44.1688 48.2939 44.2728C48.2216 44.3587 48.1583 44.4491 48.1583 44.4763C48.1583 44.4989 48.1176 44.6074 48.0679 44.7069C48.0181 44.8109 47.9774 44.9103 47.9774 44.9329C47.9774 44.951 47.9051 45.1138 47.8192 45.2901C47.7333 45.471 47.6609 45.6338 47.6609 45.6519C47.6609 45.7061 47.3354 46.199 47.2178 46.3256C47.1591 46.3889 47.0777 46.4974 47.0415 46.5742C47.0008 46.6466 46.9556 46.7189 46.942 46.7325C46.9239 46.7461 46.8606 46.8365 46.8019 46.936C46.6481 47.1982 45.156 48.6767 44.9209 48.8033C44.8712 48.8305 44.7401 48.9435 44.6225 49.052C44.4507 49.2193 43.8945 49.6262 43.8403 49.6262C43.8131 49.6262 43.2118 49.988 43.1892 50.0196C43.144 50.0829 42.7642 50.3316 42.529 50.4537C42.3075 50.5667 42.1131 50.6571 41.6926 50.8244C41.5795 50.8697 41.3987 50.9465 41.2856 50.9963C41.0008 51.1229 40.5848 51.2495 40.2999 51.2992C40.1688 51.3218 39.9428 51.3942 39.8026 51.4575C39.5901 51.5569 39.2736 51.6474 38.514 51.8192C38.4733 51.8282 38.4145 51.8508 38.3919 51.8644C38.3241 51.9051 37.9036 52.0091 37.6504 52.0452C37.5283 52.0633 37.3972 52.0905 37.3565 52.1131C37.162 52.208 36.936 52.2939 36.8772 52.2939C36.7777 52.2939 36.1221 52.5155 36.0136 52.5878C35.9593 52.6195 35.7242 52.7144 35.4936 52.7913C35.2585 52.8727 35.055 52.9631 35.0369 52.9948C35.0188 53.0264 34.9465 53.0671 34.8832 53.0807C34.8154 53.0988 34.6978 53.1621 34.621 53.2208C34.5441 53.2796 34.3587 53.3972 34.205 53.4876C33.8207 53.7092 33.6217 53.9443 33.5494 54.2563C33.5177 54.3964 33.468 54.5095 33.4408 54.5095C33.3685 54.5095 33.1515 55.2329 33.1017 55.6263C33.0791 55.7981 33.043 56.0649 33.0158 56.2276C32.948 56.6753 32.9299 58.4205 32.9797 59.4967L33.0113 60.1658L32.8214 60.2472C32.7129 60.2879 32.4416 60.3512 32.22 60.3829C31.994 60.4145 31.7227 60.4688 31.6096 60.5004C31.3248 60.5863 30.8365 60.6903 30.4341 60.7536C30.2487 60.7808 29.905 60.8441 29.679 60.8938C29.2766 60.9842 29.2539 60.9842 29.1409 60.9074C29.0098 60.8215 28.6481 60.826 28.0196 60.9255C27.8523 60.9526 27.4227 60.9797 27.0701 60.9888C26.5049 60.9978 26.4054 60.9888 26.2472 60.9074C26.1522 60.8576 26.0618 60.8079 26.0482 60.7943C26.0346 60.7808 25.9216 60.7084 25.7995 60.6361C25.4604 60.4462 25.0037 60.0031 24.7731 59.6504C24.7053 59.5464 24.5697 59.3475 24.4792 59.2118C24.1763 58.7732 24.0181 58.4929 23.8508 58.0905C23.7649 57.8734 23.6699 57.6564 23.6473 57.6067C23.5343 57.3535 23.3037 56.4763 23.2765 56.1734C23.263 56.0603 23.2449 55.9428 23.2268 55.9202C23.2132 55.8976 23.1906 55.789 23.1816 55.6805C23.1409 55.3369 23.064 54.9028 22.9917 54.6722C22.8741 54.2563 22.7882 53.6549 22.8199 53.4107C22.8786 52.9269 22.8515 52.6737 22.734 52.5562C22.6526 52.4748 22.6164 52.3753 22.5938 52.1764C22.5802 52.0272 22.5124 51.7649 22.4536 51.5886C22.1416 50.7204 22.0783 50.5305 22.1009 50.5305C22.1145 50.5305 22.1009 50.4944 22.0648 50.4492C22.0286 50.4085 21.9608 50.2547 21.911 50.11C21.8658 49.9654 21.789 49.8252 21.7437 49.8026C21.6985 49.78 21.6624 49.7348 21.6624 49.7076C21.6624 49.6669 21.156 49.156 20.9751 49.0158C20.8033 48.8802 20.5456 48.8169 20.2607 48.835C19.5101 48.8802 19.3021 48.9299 18.9811 49.1244C18.8138 49.2238 18.6646 49.3097 18.6465 49.3097C18.6149 49.3097 18.5832 49.3414 18.2848 49.6262C18.1808 49.7257 18.0859 49.8071 18.0723 49.8071C18.0587 49.8071 18.009 49.8433 17.9593 49.884C17.8643 49.9789 17.6608 50.1462 17.4574 50.3045C17.1996 50.5034 17.0369 50.6798 16.8379 50.9917C16.7701 51.1003 16.6842 51.2178 16.6435 51.2585C16.6073 51.2947 16.5033 51.4348 16.4174 51.5614C16.3315 51.688 16.1914 51.8327 16.1009 51.8825C15.5538 52.1945 15.5312 52.2035 15.0745 52.2216C14.636 52.2397 14.6269 52.2351 14.3375 52.0769C14.1748 51.991 13.9623 51.878 13.8628 51.8282C13.6729 51.7333 13.388 51.5253 13.2253 51.367C13.0851 51.2359 12.9223 51.1048 12.7867 51.0143C12.651 50.9284 11.8281 50.3 11.7015 50.1914C11.6608 50.1553 11.6156 50.1236 11.602 50.1236C11.5885 50.1236 11.4845 50.0648 11.3669 49.9925C11.1047 49.8297 10.865 49.7483 10.3586 49.6443C9.93361 49.5584 9.54476 49.5539 8.79871 49.6172C8.41439 49.6489 8.22448 49.6443 7.96224 49.5991C7.35184 49.4861 7.13028 49.4273 6.9449 49.3459C6.84543 49.3007 6.72335 49.2645 6.66909 49.2645C6.56058 49.2645 5.73314 48.8531 5.4076 48.636C5.28099 48.5547 5.09109 48.3648 4.98258 48.2201C4.86954 48.0754 4.72033 47.9081 4.64346 47.8493C4.45356 47.7091 4.32696 47.5871 4.24557 47.465C4.2094 47.4107 4.09636 47.2751 4.00141 47.1711C3.90194 47.0671 3.74369 46.8727 3.64873 46.737C3.55378 46.6014 3.45883 46.4702 3.43622 46.4431C3.41362 46.416 3.30962 46.2803 3.20111 46.1402C3.08807 46 2.97503 45.8418 2.94338 45.783C2.91173 45.7242 2.86652 45.6519 2.84391 45.6292C2.78965 45.5569 2.44602 45.0143 2.44602 44.9917C2.44602 44.9827 2.36463 44.7973 2.26516 44.5848C2.16569 44.3723 2.0843 44.1824 2.0843 44.1688C2.0843 44.1598 2.00291 43.9879 1.90796 43.798C1.81301 43.6036 1.68641 43.2916 1.63667 43.1017C1.58241 42.9118 1.50103 42.6677 1.45129 42.5637C1.37895 42.3919 1.30208 41.9668 1.25687 41.4876C1.23426 41.2524 1.26139 39.9276 1.29304 39.5659Z" fill="black"/>
</svg>
