<svg width="128" height="168" viewBox="0 0 128 168" fill="none" xmlns="http://www.w3.org/2000/svg">
<path d="M60.96 110.04C60.96 108.2 60.6533 106.853 60.04 106C59.4133 105.133 58.3933 104.7 56.98 104.7C56.0733 104.7 55.3467 104.873 54.8 105.22C54.4667 105.447 54.1733 105.72 53.92 106.04C53.6533 106.36 53.5 106.667 53.46 106.96C52.9 106.333 52.0267 106.02 50.84 106.02C49.9467 106.02 49.26 106.193 48.78 106.54C48.2867 106.887 47.9467 107.487 47.76 108.34C47.68 108.673 47.64 109.153 47.64 109.78C47.64 110.407 47.7267 110.887 47.9 111.22C48.26 111.887 48.74 112.333 49.34 112.56C49.9 112.773 50.76 112.88 51.92 112.88L53.34 112.88C57.7667 112.867 60.2867 112.78 60.9 112.62L60.96 110.04ZM50.52 111.3L50.18 111.24C50.0467 111.213 49.9467 111.18 49.88 111.14C49.8133 111.1 49.7533 111.047 49.7 110.98C49.6333 110.913 49.5867 110.867 49.56 110.84C49.3067 110.587 49.18 110.1 49.18 109.38C49.18 108.78 49.3267 108.313 49.62 107.98C49.9 107.633 50.3333 107.46 50.92 107.46C52.1333 107.46 52.9 108.133 53.22 109.48C53.3267 110.013 53.3933 110.373 53.42 110.56C53.4733 110.933 53.5 111.16 53.5 111.24L51.22 111.28L50.52 111.3ZM55.16 111.3C54.9867 110.087 54.9 109.193 54.9 108.62C54.9 108.087 54.96 107.68 55.08 107.4C55.1867 107.147 55.32 106.94 55.48 106.78C55.6 106.647 55.78 106.54 56.02 106.46C56.26 106.38 56.4667 106.34 56.64 106.34L57.12 106.32C57.6133 106.32 58.0133 106.433 58.32 106.66C58.6 106.873 58.8533 107.293 59.08 107.92C59.28 108.533 59.38 109.627 59.38 111.2C58.5533 111.267 57.1467 111.3 55.16 111.3ZM61 102.643C61 102.443 60.9333 102.25 60.8 102.063C60.6533 101.877 60.5 101.777 60.34 101.763C59.6467 101.71 57.48 101.683 53.84 101.683C53.0133 101.683 52.5267 101.69 52.38 101.703C52.1667 101.717 52.0067 101.797 51.9 101.943C51.8067 102.077 51.76 102.243 51.76 102.443C51.76 102.643 51.82 102.81 51.94 102.943C52.0467 103.063 52.1933 103.123 52.38 103.123L60.52 103.203C60.84 103.203 61 103.017 61 102.643ZM51.86 96.1155C51.86 97.3821 52.2133 98.3755 52.92 99.0955C53.6267 99.8021 54.66 100.155 56.02 100.155C57.3933 100.155 58.5667 99.8021 59.54 99.0955C60.5 98.3888 60.98 97.4755 60.98 96.3555C60.98 95.3155 60.5 94.4688 59.54 93.8155C58.5667 93.1488 57.4267 92.8155 56.12 92.8155C54.8133 92.8155 53.78 93.1155 53.02 93.7155C52.2467 94.3155 51.86 95.1155 51.86 96.1155ZM59.52 96.2155C59.52 97.0021 59.1467 97.6288 58.4 98.0955C57.6667 98.5488 56.86 98.7755 55.98 98.7755C55.1 98.7755 54.4267 98.5621 53.96 98.1355C53.48 97.7088 53.24 97.1088 53.24 96.3355C53.24 95.5755 53.4867 95.0421 53.98 94.7355C54.46 94.4155 55.2467 94.2555 56.34 94.2555C57.42 94.2555 58.2867 94.5221 58.94 95.0555C59.3267 95.3755 59.52 95.7621 59.52 96.2155ZM51.78 86.6116C51.78 87.8916 52.2333 88.9649 53.14 89.8316C54.0333 90.6849 55.2267 91.1116 56.72 91.1116C57.4133 91.1116 58.0933 90.9849 58.76 90.7316C59.4133 90.4649 59.96 90.0849 60.4 89.5916C60.84 89.0716 61.06 88.4982 61.06 87.8716C61.06 87.2582 60.8533 86.6316 60.44 85.9916C60.6667 85.9516 60.8267 85.8782 60.92 85.7716C61 85.6649 61.04 85.5116 61.04 85.3116C61.04 85.0982 61.0067 84.9516 60.94 84.8716C60.8733 84.7782 60.7533 84.7182 60.58 84.6916C60.3267 84.6382 59.98 84.6116 59.54 84.6116L59.08 84.6116C58.3467 84.6116 57.5733 84.7116 56.76 84.9116C56.4133 85.0182 56.16 85.2782 56 85.6916C55.8933 85.9716 55.84 86.3249 55.84 86.7516L55.86 87.3116C55.9 87.7382 56.16 87.9516 56.64 87.9516C56.88 87.9516 57.04 87.8516 57.12 87.6516C57.2 87.4382 57.24 87.0449 57.24 86.4716C57.24 86.2182 57.5867 86.0916 58.28 86.0916C58.68 86.0916 59.0133 86.2516 59.28 86.5716C59.5333 86.8782 59.66 87.2782 59.66 87.7716C59.66 88.2516 59.3667 88.6849 58.78 89.0716C58.2067 89.4449 57.4933 89.6316 56.64 89.6316C55.7733 89.6316 54.9933 89.3649 54.3 88.8316C53.5933 88.2849 53.24 87.5916 53.24 86.7516C53.24 86.4182 53.34 86.0382 53.54 85.6116C53.6467 85.3449 53.7 85.1649 53.7 85.0716C53.7 84.8716 53.6333 84.6982 53.5 84.5516C53.3667 84.4049 53.2067 84.3316 53.02 84.3316C52.6733 84.3316 52.38 84.5716 52.14 85.0516C51.9 85.5316 51.78 86.0516 51.78 86.6116ZM60.24 81.1531C59.04 81.1931 58.2467 81.2198 57.86 81.2331C58.2333 80.6865 58.72 80.0665 59.32 79.3731C59.92 78.6931 60.3333 78.2665 60.56 78.0931C60.8533 77.8531 61 77.6331 61 77.4331C61 77.3798 60.98 77.2931 60.94 77.1731C60.8333 76.8531 60.6333 76.6931 60.34 76.6931C59.9267 76.6931 59.4 77.0198 58.76 77.6731C58.12 78.3531 57.54 79.0998 57.02 79.9131C57.0067 79.8065 56.8467 79.4798 56.54 78.9331C56.2333 78.3865 55.9867 77.9798 55.8 77.7131C55.5733 77.4065 55.28 77.1331 54.92 76.8931C54.56 76.6398 54.24 76.5131 53.96 76.5131C53.3467 76.5131 52.8333 76.8398 52.42 77.4931C51.9933 78.1465 51.78 78.8998 51.78 79.7531C51.78 80.6198 51.9 81.3065 52.14 81.8131C52.38 82.3198 52.7133 82.5731 53.14 82.5731C57.5667 82.5731 60.0533 82.5465 60.6 82.4931C60.8667 82.4931 61 82.3465 61 82.0531C61 81.8265 60.9267 81.6198 60.78 81.4331C60.6333 81.2465 60.46 81.1531 60.26 81.1531L60.24 81.1531ZM56.08 81.2331C54.6667 81.2331 53.7467 81.2265 53.32 81.2131C53.2 80.7331 53.14 80.2398 53.14 79.7331C53.14 79.2531 53.24 78.8265 53.44 78.4531C53.6267 78.0665 53.8867 77.8731 54.22 77.8731C54.5933 77.9131 55 78.3731 55.44 79.2531C55.8667 80.1465 56.08 80.8065 56.08 81.2331ZM60.46 73.2453C59.8467 73.1786 58.8333 72.952 57.42 72.5653C57.6067 71.8453 57.7 70.9053 57.7 69.7453L60.44 69.0453C60.8133 68.952 61 68.6853 61 68.2453C61 68.072 60.9467 67.9253 60.84 67.8053C60.7333 67.6853 60.6 67.6253 60.44 67.6253C58.88 67.9853 57.6533 68.292 56.76 68.5453C55.8133 68.812 54.86 69.1653 53.9 69.6053C52.9533 70.0453 52.3733 70.332 52.16 70.4653C51.9067 70.6253 51.78 70.812 51.78 71.0253C51.78 71.4386 52.1467 71.852 52.88 72.2653C53.6667 72.7186 54.5867 73.1053 55.64 73.4253C58.04 74.1986 59.64 74.5853 60.44 74.5853C60.7867 74.5853 60.96 74.3786 60.96 73.9653C60.96 73.5386 60.7933 73.2986 60.46 73.2453ZM53.62 71.0853C54.4333 70.6986 55.3467 70.3653 56.36 70.0853C56.36 70.8853 56.28 71.5786 56.12 72.1653C55.1867 71.8853 54.3533 71.5253 53.62 71.0853ZM51.76 63.4167C51.76 64.9367 52.04 65.7101 52.6 65.7367L60.12 65.7367C60.4267 65.7367 60.6533 65.6767 60.8 65.5567C60.9333 65.4367 61 65.2034 61 64.8567C61 64.4967 60.8467 64.3034 60.54 64.2767C60.0067 64.2501 59.5467 64.2367 59.16 64.2367C58.5467 64.2367 57.82 64.2567 56.98 64.2967C57.0333 63.9634 57.06 63.6167 57.06 63.2567C57.06 62.4167 56.8733 61.7501 56.5 61.2567C55.98 60.5767 55.1733 60.2367 54.08 60.2367C53.3733 60.2367 52.8133 60.5301 52.4 61.1167C51.9733 61.6901 51.76 62.4567 51.76 63.4167ZM53.18 64.3367C53.1267 63.9901 53.1 63.7301 53.1 63.5567C53.1 63.2367 53.1467 62.8967 53.24 62.5367C53.4 61.9234 53.6533 61.6034 54 61.5767L54.18 61.5767C54.7533 61.5767 55.1533 61.7701 55.38 62.1567C55.54 62.4367 55.62 62.8567 55.62 63.4167C55.62 63.7634 55.6 64.0834 55.56 64.3767L54.72 64.3767C54.0133 64.3767 53.5 64.3634 53.18 64.3367ZM52.58 52.5344C52.38 52.521 52.1933 52.561 52.02 52.6544C51.8467 52.7477 51.76 52.8877 51.76 53.0744C51.76 53.2877 51.82 53.481 51.94 53.6544C52.06 53.8277 52.2133 53.9144 52.4 53.9144C53.8667 53.9144 54.9733 53.8944 55.72 53.8544L55.72 54.4744C55.72 54.5144 55.7267 54.7677 55.74 55.2344C55.7533 55.701 55.6933 56.3277 55.56 57.1144L52.42 57.0744C52.1267 57.0744 51.98 57.2477 51.98 57.5944C51.98 57.7944 52.04 57.9744 52.16 58.1344C52.2667 58.2944 52.4 58.381 52.56 58.3944L55.9 58.4744L56.9 58.4944C57.9133 58.4944 59.1133 58.421 60.5 58.2744C60.6333 58.261 60.7533 58.201 60.86 58.0944C60.9533 57.9877 61 57.8544 61 57.6944C61 57.5077 60.9467 57.3344 60.84 57.1744C60.7333 57.0144 60.58 56.941 60.38 56.9544C58.5267 57.061 57.5133 57.1144 57.34 57.1144L56.92 57.1144C57.0267 56.0877 57.08 55.281 57.08 54.6944C57.08 54.401 57.0667 54.121 57.04 53.8544C58.6667 53.8544 59.7933 53.881 60.42 53.9344C60.8067 53.9477 61 53.7277 61 53.2744C61 52.7944 60.6267 52.5544 59.88 52.5544L56.92 52.5344L52.58 52.5344ZM51.7 45.4567C51.7 45.5234 51.7333 45.6101 51.8 45.7167C51.9067 45.9167 52.28 46.2234 52.92 46.6367L53.92 47.2567L55.08 48.0167C54.7867 48.2167 54.36 48.4767 53.8 48.7967C52.4533 49.5834 51.78 50.0701 51.78 50.2567C51.78 50.5234 51.92 50.7501 52.2 50.9367C52.32 51.0167 52.4267 51.0567 52.52 51.0567C52.6 51.0567 52.6733 51.0367 52.74 50.9967C54.42 50.0767 55.6333 49.3301 56.38 48.7567C56.74 48.7167 57.0933 48.6967 57.44 48.6967L59.6 48.7167C60.3333 48.7167 60.7733 48.6434 60.92 48.4967C60.9733 48.4434 61 48.3567 61 48.2367C61 47.8234 60.8267 47.5767 60.48 47.4967C60.1333 47.4167 59.36 47.3767 58.16 47.3767L56.42 47.3767C56.1 47.1901 55.7933 46.9834 55.5 46.7567L55.08 46.4767L54.36 45.9967L53.56 45.4767C52.9733 45.1167 52.5133 44.9367 52.18 44.9367C51.9 44.9367 51.74 45.1101 51.7 45.4567Z" fill="#202020"/>
<path d="M0.162169 47.0647C0.310786 47.8078 0.459403 50.0074 0.548573 51.9691C0.637743 53.9308 0.78636 56.279 0.87553 57.1707C0.9647 58.0624 1.11332 60.9753 1.17276 63.6504C1.29166 68.0197 1.49972 72.1513 1.76723 74.5589C1.82668 75.0344 1.9753 76.2531 2.06447 77.234C2.18336 78.2148 2.33198 79.4038 2.39142 79.9091C2.48059 80.3847 2.80755 82.4653 3.10479 84.5162C3.7587 88.7369 4.50178 92.1254 4.97736 92.9874C5.1557 93.3143 5.33404 93.7007 5.39349 93.8791C5.5421 94.3844 6.07712 96.8217 6.19602 97.4459C6.34463 98.3376 6.96882 99.7643 7.38495 100.27C7.59301 100.507 7.86052 101.102 7.97941 101.548C8.09831 101.994 8.45499 102.588 8.78194 102.885C9.13863 103.153 9.55475 103.539 9.76282 103.718C10.2978 104.223 11.1895 104.639 12.2893 104.847C14.3997 105.233 17.1342 107.492 19.2743 110.613C20.4038 112.218 21.7413 115.993 22.0088 118.193C22.098 118.876 22.3061 120.036 22.4844 120.779C22.6628 121.522 22.8411 124.643 22.8708 127.764C22.9897 134.838 23.1383 135.997 24.2381 139.504C25.6648 143.904 26.2593 144.795 30.4503 148.421C31.3123 149.165 32.3229 149.908 32.6795 150.056C33.0659 150.235 33.6901 150.651 34.0765 150.978C34.4629 151.334 35.5033 152.077 36.395 152.642C38.5053 153.98 42.5774 158.082 43.1422 159.419C44.3014 162.243 45.7876 165.067 46.1145 165.067C46.3226 165.067 46.5009 165.185 46.5009 165.304C46.5009 165.72 48.4329 166.256 49.9786 166.256C50.8108 166.256 52.8617 166.404 54.556 166.582C56.2502 166.761 57.8255 166.909 58.0039 166.88C58.2119 166.88 58.5686 166.85 58.747 166.82C59.3414 166.791 62.3435 167.147 62.8488 167.326C63.0866 167.415 63.681 167.534 64.1863 167.593C64.6619 167.652 65.6428 167.801 66.3561 167.89C67.664 168.069 68.9124 167.593 69.4474 166.672C69.596 166.464 69.9527 166.374 70.2796 166.464C70.8741 166.612 73.4303 166.077 73.9951 165.661C74.1437 165.542 74.8273 165.275 75.4812 165.067C78.2455 164.175 81.2476 161.559 82.1393 159.241C82.4662 158.409 83.0012 157.13 83.3282 156.417C83.9821 154.931 84.3091 151.037 83.9227 149.254C83.3282 146.698 83.2093 145.806 83.239 144.112C83.2687 140.991 84.0416 138.94 85.3494 138.345C87.1328 137.543 91.086 134.63 93.1964 132.609C96.1092 129.785 96.7632 128.388 96.7334 125.148C96.7334 122.681 96.7037 122.265 96.1687 119.144C95.6337 116.082 95.2473 114.507 94.95 114.091C94.8014 113.913 94.6231 112.991 94.5339 112.01C94.4447 111.029 94.1772 108.741 93.9692 106.957C93.7314 105.144 93.6125 102.945 93.6719 102.053C93.7314 101.161 93.8205 99.0807 93.88 97.4459C93.9989 94.4141 94.5339 90.8473 94.95 90.3123C95.0689 90.1339 95.3364 89.48 95.5445 88.8261C95.7526 88.1722 96.1687 87.1913 96.4956 86.6563C96.7929 86.1213 97.2982 84.7837 97.6549 83.6839C98.0115 82.5842 98.4574 81.3655 98.6952 80.9494C98.9032 80.5333 99.2302 79.5227 99.4085 78.7201C99.5869 77.8879 100.092 76.6989 100.508 76.045C100.954 75.3911 101.459 74.0536 101.668 73.0727C102.321 69.9815 102.678 68.6736 103.273 67.5739C103.57 67.0091 104.045 65.8499 104.313 65.0474C104.61 64.2151 104.997 63.1451 105.205 62.6695C105.413 62.1642 105.74 61.1833 105.948 60.4403C106.364 58.8946 107.612 55.8629 108.326 54.7928C108.593 54.3767 109.188 52.9797 109.633 51.6719C110.079 50.364 110.674 48.967 110.971 48.5509C111.238 48.1348 111.803 47.0053 112.19 46.0244C112.933 44.1221 114.597 40.4959 117.035 35.4726C118.313 32.9164 118.996 31.9058 120.988 29.8252C122.325 28.4282 123.99 26.8826 124.673 26.407C127.408 24.4452 128.24 23.1671 127.943 21.4432C127.824 20.7595 127.735 19.7489 127.794 19.1545C127.884 17.5791 127.349 11.6047 127.051 11.2481C126.932 11.0994 126.695 10.4158 126.576 9.76189C126.457 9.10798 126.16 8.42434 125.922 8.246C125.684 8.06766 125.416 7.23541 125.327 6.31398C125.149 4.32251 124.733 3.81722 122.622 3.19303C120.096 2.44994 110.406 2.53911 100.508 3.40109C97.0307 3.69832 84.9035 3.60916 82.6148 3.2822C82.1095 3.19303 80.5045 3.04441 79.048 2.95524C74.3517 2.62828 72.3008 2.44994 68.9421 2.18243C67.1289 2.03382 63.2055 1.8852 60.1737 1.85548C55.3288 1.79603 47.9276 1.3799 42.9341 0.874606C42.0424 0.785436 39.9618 0.636819 38.327 0.547649C36.6922 0.458479 34.7602 0.280139 34.0171 0.161245C32.5012 -0.0765419 30.4206 -0.0468184 22.8708 0.220692C19.9282 0.339586 16.9856 0.428756 16.3317 0.428756C15.6778 0.428756 14.5483 0.54765 13.8052 0.696267C13.0621 0.844884 11.9326 1.05295 11.3084 1.14212C10.6842 1.23129 9.85198 1.3799 9.46558 1.46907C9.07917 1.55825 8.33609 1.67714 7.80107 1.73659C3.1345 2.15271 1.8564 2.62829 1.29166 4.02529C1.08359 4.56031 0.875528 5.09533 0.786358 5.21422C0.726911 5.36284 0.875528 5.45201 1.14304 5.45201C1.76723 5.45201 1.73751 5.6898 0.964698 7.41375C0.399954 8.7513 0.340507 9.31605 0.399954 13.7746C0.429678 16.4794 0.489125 19.957 0.548571 21.5026C0.608018 23.0483 0.518848 27.0609 0.370232 30.4196C-0.0458954 39.3069 -0.105342 45.5489 0.162169 47.0647ZM6.90937 15.0527C7.05798 13.0612 7.05798 13.0612 6.96881 12.7342C6.93909 12.5559 6.90937 12.0209 6.93909 11.5156C6.96881 10.4753 6.52296 10.6536 11.8732 9.61328C17.5503 8.54324 21.2955 8.21628 32.0851 8.00822C33.7199 7.97849 42.1613 8.45407 45.0147 8.72158C46.5604 8.89992 48.9085 9.07826 50.2163 9.16743C51.5242 9.2566 53.3967 9.37549 54.3776 9.49439C55.3585 9.58356 59.3117 9.70245 63.146 9.79162C70.3391 9.91051 71.7658 9.99968 76.3729 10.5347C83.3579 11.3372 95.9309 11.8128 98.8141 11.367C99.5571 11.2481 102.143 11.0697 104.61 10.9806C108.682 10.8022 111.922 10.6239 115.905 10.3564C116.708 10.2969 117.986 10.0889 118.729 9.91051C120.78 9.40521 120.869 9.43494 120.988 10.0591C121.166 11.2481 121.107 14.904 120.839 19.3031C120.809 19.4814 120.037 20.4623 119.085 21.5026C118.164 22.5132 117.272 23.5833 117.124 23.8211C116.975 24.0886 116.41 24.8911 115.875 25.5747C114.894 26.8528 114.389 28.1607 114.062 30.063C114.003 30.598 113.497 31.668 112.992 32.4706C112.457 33.2731 111.684 34.5512 111.209 35.3537C110.763 36.1563 109.812 37.6127 109.069 38.5936C108.266 39.6933 107.493 41.1795 107.107 42.4576C106.423 44.5977 105.115 47.4214 104.699 47.5998C104.58 47.6592 104.462 47.8375 104.462 47.9862C104.462 48.1051 104.135 48.9373 103.748 49.7993C102.529 52.4447 101.786 54.2578 101.786 54.555C101.786 54.7334 101.4 55.3576 100.924 55.952C100.449 56.5762 99.8841 57.8543 99.5869 59.0135C99.3194 60.0836 98.6952 61.867 98.2196 62.937C97.7143 64.0071 97.3279 65.1366 97.3279 65.4338C97.3279 65.731 96.8226 67.0389 96.1984 68.3467C95.5742 69.6248 94.95 71.1704 94.8311 71.7351C94.7122 72.2999 94.5636 73.0727 94.4745 73.4294C94.415 73.7861 93.9394 74.8264 93.4639 75.7181C92.9586 76.6098 92.5722 77.5015 92.5722 77.7393C92.5722 77.9473 92.3938 78.4824 92.156 78.9282C91.9182 79.3443 91.5913 80.2063 91.3832 80.8602C91.1752 81.4844 90.8779 82.1383 90.759 82.3167C89.3918 84.0406 87.6975 92.7793 88.3514 94.6816C88.5001 95.068 88.4703 96.4947 88.292 97.8917C88.1137 99.2887 88.0542 101.221 88.1731 102.202C88.3812 104.163 88.5595 106.125 88.8567 109.484C88.9756 110.702 89.3323 112.843 89.689 114.24C90.016 115.637 90.2835 117.034 90.2537 117.361C90.224 117.658 90.3726 118.133 90.5807 118.371C90.8185 118.639 90.9374 119.917 90.9077 122.146C90.8482 124.999 90.759 125.653 90.224 126.515C89.3323 127.972 84.7549 132.103 83.239 132.817C81.6934 133.56 80.1181 134.778 79.5533 135.7C78.2455 137.84 77.5321 143.279 78.3049 145.33C78.4833 145.776 78.6913 147.559 78.8102 149.283C78.9589 152.137 78.9291 152.583 78.3049 153.92C77.9483 154.723 77.6213 155.525 77.5916 155.704C77.4132 156.655 76.3729 157.992 75.392 158.527C74.7976 158.854 73.9653 159.389 73.5492 159.716C73.1331 160.043 72.3305 160.489 71.7063 160.757C70.6958 161.143 70.5769 161.143 69.9229 160.638C69.4176 160.192 69.1204 160.132 68.6746 160.37C68.3179 160.578 67.7234 160.549 66.8912 160.341C63.9188 159.597 60.5601 159.3 52.2078 159.152C50.9891 159.122 50.9297 159.092 50.2461 157.547C49.8597 156.714 49.3246 155.406 49.0274 154.663C48.314 152.731 44.0339 148.659 39.7537 145.836C37.8217 144.587 36.0977 143.339 35.9194 143.071C35.7113 142.833 34.8791 141.912 34.0468 141.02C32.3823 139.267 31.6987 138.018 30.7178 134.778C30.1531 132.906 30.0639 131.866 30.0044 127.05C29.9747 124.019 29.7964 120.719 29.618 119.738C29.4397 118.758 29.2316 117.182 29.1425 116.231C28.9641 114.418 28.3697 111.832 27.5671 109.543C26.1998 105.531 21.236 100.478 17.4017 99.1996C16.2128 98.8131 15.7075 98.4565 15.0239 97.4459C13.9538 95.8705 11.5759 89.0044 10.9815 85.8538C10.7437 84.5459 10.3573 82.6139 10.1195 81.5439C9.55475 78.9579 8.99001 71.9432 8.6036 62.8181C8.51443 60.7672 8.36582 58.4191 8.30637 57.6165C8.24692 56.7843 8.0983 54.1984 7.97941 51.8205C7.89024 49.4426 7.68218 46.9756 7.53356 46.3217C7.38494 45.6677 7.17688 44.8652 7.11743 44.568C6.70131 42.7549 7.02826 31.8464 7.59301 28.9038C7.80107 27.804 7.83079 27.0312 7.65245 26.6745C7.3255 26.0206 7.14716 23.8508 7.14715 19.6598C7.11743 18.0547 7.02826 16.7469 6.87964 16.7469C6.76075 16.7469 6.67158 16.8955 6.67158 17.0739C6.67158 17.2225 6.52296 17.2819 6.34462 17.163C6.10684 17.0441 6.13656 16.8955 6.40407 16.7469C6.61213 16.5983 6.8202 15.8552 6.90937 15.0527Z" fill="black"/>
</svg>
