<svg width="128" height="88" viewBox="0 0 128 88" fill="none" xmlns="http://www.w3.org/2000/svg">
<path d="M43.72 38.92C42.0933 38.92 40.7067 39.4667 39.56 40.56C38.4133 41.64 37.84 43.3133 37.84 45.58C37.84 47.8467 38.4467 49.6267 39.66 50.92C40.34 51.6267 41.16 51.98 42.12 51.98C42.5867 51.98 43.14 51.88 43.78 51.68C44.4733 51.44 45.3667 51.0333 46.46 50.46C46.7933 50.22 46.96 49.92 46.96 49.56C46.96 49.2 46.7867 49.02 46.44 49.02C46.2933 49.02 45.9733 49.1333 45.48 49.36C44.08 50.0267 43.08 50.36 42.48 50.36C41.8533 50.36 41.3133 50.1133 40.86 49.62C39.98 48.6867 39.54 47.3733 39.54 45.68C39.54 44.0133 39.9133 42.7467 40.66 41.88C41.3933 41.0267 42.4867 40.6 43.94 40.6C44.54 40.6 45.2133 40.6933 45.96 40.88C46.2667 40.88 46.52 40.8 46.72 40.64C46.92 40.4667 47.02 40.2667 47.02 40.04C47.02 39.8133 46.9067 39.6133 46.68 39.44C45.5733 39.0933 44.5867 38.92 43.72 38.92ZM52.697 42.86C51.4304 42.86 50.437 43.2133 49.717 43.92C49.0104 44.6267 48.657 45.66 48.657 47.02C48.657 48.3933 49.0104 49.5667 49.717 50.54C50.4237 51.5 51.337 51.98 52.457 51.98C53.497 51.98 54.3437 51.5 54.997 50.54C55.6637 49.5667 55.997 48.4267 55.997 47.12C55.997 45.8133 55.697 44.78 55.097 44.02C54.497 43.2467 53.697 42.86 52.697 42.86ZM52.597 50.52C51.8104 50.52 51.1837 50.1467 50.717 49.4C50.2637 48.6667 50.037 47.86 50.037 46.98C50.037 46.1 50.2504 45.4267 50.677 44.96C51.1037 44.48 51.7037 44.24 52.477 44.24C53.237 44.24 53.7704 44.4867 54.077 44.98C54.397 45.46 54.557 46.2467 54.557 47.34C54.557 48.42 54.2904 49.2867 53.757 49.94C53.437 50.3267 53.0504 50.52 52.597 50.52ZM59.2609 45.76C60.3676 47.0133 61.4276 48.6 62.4409 50.52C62.4809 50.5867 62.5609 50.7333 62.6809 50.96C62.8009 51.1867 62.9743 51.44 63.2009 51.72C63.3876 51.9467 63.6476 52.06 63.9809 52.06C64.5409 52.06 64.8209 51.7133 64.8209 51.02L64.7209 43.58C64.7209 43.3533 64.6476 43.1667 64.5009 43.02C64.3543 42.86 64.1943 42.78 64.0209 42.78C63.5809 42.78 63.3076 43.0333 63.2009 43.54V43.7L63.3009 45.34C63.3809 46.58 63.4276 48.02 63.4409 49.66C62.7743 48.26 61.8143 46.7867 60.5609 45.24C60.0409 44.5733 59.6409 44.1133 59.3609 43.86C59.0809 43.5933 58.8409 43.46 58.6409 43.46C58.2676 43.46 58.0276 43.64 57.9209 44C57.8543 44.28 57.8209 44.6667 57.8209 45.16V45.82L57.6609 51.42C57.6743 51.5933 57.7409 51.74 57.8609 51.86C57.9943 51.9667 58.1409 52.02 58.3009 52.02C58.7143 52.02 58.9476 51.84 59.0009 51.48C59.0143 51.4267 59.0209 51.2867 59.0209 51.06L59.0409 50.62L59.2609 45.76ZM71.8895 44.02C73.1429 44.02 73.7695 43.7467 73.7695 43.2C73.7695 42.9333 73.5895 42.76 73.2295 42.68L66.9895 42.88C66.8029 42.8933 66.6295 42.98 66.4695 43.14C66.3229 43.3 66.2495 43.46 66.2495 43.62C66.2495 43.9667 66.4562 44.14 66.8695 44.14C67.6029 44.14 68.4162 44.1067 69.3095 44.04C69.2295 44.96 69.1895 46.1533 69.1895 47.62C69.1895 48.8467 69.2095 50.12 69.2495 51.44C69.2495 51.8133 69.4229 52 69.7695 52C69.9695 52 70.1495 51.94 70.3095 51.82C70.4829 51.6867 70.5695 51.5267 70.5695 51.34C70.5695 50.86 70.5629 50.4867 70.5495 50.22L70.5295 48.72L70.5695 43.98L71.8895 44.02ZM76.5633 51.46C76.6299 50.8467 76.8566 49.8333 77.2433 48.42C77.9633 48.6067 78.9033 48.7 80.0633 48.7L80.7633 51.44C80.8566 51.8133 81.1233 52 81.5633 52C81.7366 52 81.8833 51.9467 82.0033 51.84C82.1233 51.7333 82.1833 51.6 82.1833 51.44C81.8233 49.88 81.5166 48.6533 81.2633 47.76C80.9966 46.8133 80.6433 45.86 80.2033 44.9C79.7633 43.9533 79.4766 43.3733 79.3433 43.16C79.1833 42.9067 78.9966 42.78 78.7833 42.78C78.3699 42.78 77.9566 43.1467 77.5433 43.88C77.0899 44.6667 76.7033 45.5867 76.3833 46.64C75.6099 49.04 75.2233 50.64 75.2233 51.44C75.2233 51.7867 75.4299 51.96 75.8433 51.96C76.2699 51.96 76.5099 51.7933 76.5633 51.46ZM78.7233 44.62C79.1099 45.4333 79.4433 46.3467 79.7233 47.36C78.9233 47.36 78.2299 47.28 77.6433 47.12C77.9233 46.1867 78.2833 45.3533 78.7233 44.62ZM90.3119 44.48C90.5119 44.48 90.7052 44.4 90.8919 44.24C91.0785 44.0667 91.1719 43.8933 91.1719 43.72C91.1719 43.5067 91.0519 43.3467 90.8119 43.24V43.22C90.0652 42.9667 89.2985 42.84 88.5119 42.84C87.1919 42.84 86.0985 43.2533 85.2319 44.08C84.3785 44.8933 83.9519 46.0133 83.9519 47.44C83.9519 48.4933 84.2119 49.48 84.7319 50.4C84.9852 50.8667 85.3319 51.2467 85.7719 51.54C86.2119 51.8333 86.6585 51.98 87.1119 51.98C87.8452 51.98 89.0519 51.6267 90.7319 50.92C91.0385 50.72 91.1919 50.48 91.1919 50.2C91.1919 49.8667 91.0119 49.7 90.6519 49.7C90.5985 49.7 90.1319 49.8533 89.2519 50.16C88.3719 50.4667 87.7652 50.62 87.4319 50.62C87.0852 50.62 86.7519 50.4533 86.4319 50.12C85.7785 49.48 85.4519 48.6133 85.4519 47.52C85.4519 45.36 86.5319 44.28 88.6919 44.28L90.3119 44.48ZM98.2958 44.02C99.5491 44.02 100.176 43.7467 100.176 43.2C100.176 42.9333 99.9958 42.76 99.6358 42.68L93.3958 42.88C93.2091 42.8933 93.0358 42.98 92.8758 43.14C92.7291 43.3 92.6558 43.46 92.6558 43.62C92.6558 43.9667 92.8624 44.14 93.2758 44.14C94.0091 44.14 94.8224 44.1067 95.7158 44.04C95.6358 44.96 95.5958 46.1533 95.5958 47.62C95.5958 48.8467 95.6158 50.12 95.6558 51.44C95.6558 51.8133 95.8291 52 96.1758 52C96.3758 52 96.5558 51.94 96.7158 51.82C96.8891 51.6867 96.9758 51.5267 96.9758 51.34C96.9758 50.86 96.9691 50.4867 96.9558 50.22L96.9358 48.72L96.9758 43.98L98.2958 44.02Z" fill="#202020"/>
<path d="M0.09761 63.1612C0.520574 67.1631 1.75693 70.7095 3.12343 71.8483C3.48132 72.1411 3.67654 72.4014 3.54639 72.4339C2.70047 72.4664 6.53967 76.5985 8.68702 77.9975C10.2162 78.941 13.5674 80.1449 15.6822 80.4051C16.4956 80.5353 17.4391 80.7305 17.797 80.8932C18.1549 81.0233 18.9683 81.3487 19.5865 81.5764C21.1807 82.1295 23.4908 83.1056 24.4668 83.6262C25.3778 84.1142 27.9482 84.7975 29.6725 84.9927C30.2907 85.0903 32.2754 85.4807 34.0649 85.9037C39.3682 87.1726 42.7519 87.4979 50.658 87.4979C58.857 87.5305 64.0953 87.0424 65.6245 86.1314C66.145 85.8061 67.6417 85.1228 68.9106 84.6348C71.4158 83.6913 73.5957 81.9669 73.5957 80.9257C73.5957 80.3401 73.7258 80.3401 74.7995 80.6004C75.4828 80.7956 76.2636 81.0233 76.5239 81.1209C76.7842 81.2185 77.5976 81.3487 78.3134 81.4138C79.0292 81.4788 80.9162 81.674 82.543 81.8367C86.3822 82.2597 90.8396 82.2597 93.2798 81.8693C94.3535 81.7066 96.7611 81.4138 98.6482 81.2511C103.268 80.7956 104.114 80.6329 105.806 79.7544C106.619 79.364 108.279 78.6157 109.483 78.0951C111.239 77.3468 112.248 76.5985 114.526 74.321C119.601 69.2779 121.814 66.4148 124.124 61.9249C126.141 58.0206 126.564 56.6866 126.792 53.9211C126.857 53.2704 127.117 52.0015 127.41 51.123C127.898 49.6264 128.125 43.6398 127.93 37.0026C127.898 35.0179 127.28 32.0897 126.564 30.4303C126.271 29.8122 125.815 28.6734 125.49 27.86C124.059 24.1184 121.618 20.3768 118.658 17.3185C118.105 16.7654 117.454 15.9194 117.226 15.4314C116.966 14.9108 115.957 13.6745 114.981 12.6659C113.061 10.6487 111.662 9.05441 110.361 7.36256C109.45 6.19127 109.417 6.15874 106.619 3.8487C104.309 1.96163 103.789 1.66881 101.284 0.855419C98.7783 0.0745628 95.9802 -0.218255 94.4836 0.172173C93.8329 0.367387 92.0109 0.660208 90.4817 0.822887C88.9525 0.985565 86.7401 1.44106 85.6014 1.83149C84.4626 2.22192 83.2263 2.61234 82.8684 2.67742C80.2655 3.19799 77.8904 3.3932 75.3852 3.2956C73.7584 3.19799 71.9689 3.2956 71.3833 3.49081C70.6675 3.71856 70.1795 3.75109 69.9192 3.52335C69.1058 2.8401 61.8829 4.01138 57.3604 5.5731C56.0264 6.0286 54.5623 6.38649 54.1068 6.38649C51.2762 6.38649 41.7107 9.11948 41.7107 9.93287C41.7107 10.063 41.1902 10.3558 40.5395 10.5836C39.8887 10.8113 38.4897 11.8199 37.416 12.8286C36.3423 13.8697 35.1385 14.8783 34.7156 15.1386C34.3251 15.3989 33.7395 16.0496 33.4141 16.5702C33.0888 17.0907 32.6007 17.8065 32.3079 18.0993C30.9089 19.661 29.5749 21.8084 29.3146 22.9471C29.152 23.6629 28.6314 24.9318 28.1108 25.8103C27.6228 26.6562 27.2649 27.6323 27.33 27.9251C27.5252 28.9337 26.7769 29.7796 25.508 30.0074C24.0113 30.2677 22.2219 31.1461 16.3329 34.4648C14.7387 35.3758 7.9387 41.4599 7.90617 42.0456C7.87363 42.2408 7.51574 42.7288 7.06024 43.1518C6.60474 43.5748 6.24686 44.0953 6.24686 44.2905C6.24686 44.746 3.09089 50.0494 2.70046 50.3096C1.88707 50.7977 0.390433 56.2637 0.357898 58.834C0.325362 59.7775 0.227753 60.6885 0.0976099 60.8837C-0.0325328 61.0464 -0.0325327 62.0876 0.09761 63.1612ZM1.04114 62.0225C1.20382 62.0225 1.3665 62.1852 1.3665 62.3804C1.3665 62.5431 1.20382 62.6081 1.04114 62.5105C0.845923 62.4129 0.715784 62.2502 0.715784 62.1526C0.715784 62.0876 0.845923 62.0225 1.04114 62.0225ZM8.13392 56.8168C8.88224 54.6369 10.3463 51.7412 10.7693 51.4484C10.9645 51.3508 11.5827 50.3747 12.1358 49.3336C12.754 48.1623 14.3808 46.1451 16.1702 44.3231C19.0008 41.4274 19.4563 41.102 23.4582 39.1499C27.395 37.1978 27.9156 37.0351 29.5424 37.1327C31.2993 37.2303 31.3644 37.1978 32.0802 36.0265C32.5031 35.3758 33.0888 33.749 33.4141 32.415C33.9998 29.7796 34.0649 29.5519 34.5204 28.8361C34.683 28.5758 35.3663 27.1768 36.017 25.7452C37.416 22.6869 38.8151 20.8649 40.7672 19.5634C41.5481 19.0429 42.4916 18.3596 42.8495 18.0668C43.5002 17.5137 44.6715 16.8304 47.5021 15.3013C48.2829 14.8783 49.4542 14.4553 50.1049 14.3577C52.903 13.9022 57.7834 12.8285 58.2714 12.5357C58.5642 12.373 59.9307 11.9826 61.3298 11.6573C63.4446 11.1367 63.9001 11.1042 64.0953 11.4946C64.5833 12.3405 66.1125 12.4381 69.0082 11.8525C70.5373 11.5271 73.856 11.2018 76.3612 11.1042C82.1526 10.8764 82.8033 10.7788 86.2195 9.73766C88.1066 9.18456 90.0913 8.8592 92.141 8.76159C93.8329 8.69652 96.0453 8.40369 97.0539 8.14341C99.7218 7.4927 99.7869 7.4927 103.138 9.08695C103.951 9.47738 106.815 12.1778 108.962 14.618C109.71 15.4639 110.491 16.1472 110.654 16.1472C110.849 16.1472 111.012 16.2448 111.012 16.3749C111.012 16.7328 114.2 20.7022 116.152 22.817C116.673 23.3376 117.259 24.2486 117.486 24.8342C117.714 25.3873 118.235 26.1682 118.658 26.5586C119.081 26.949 119.959 28.7385 120.61 30.528C121.814 33.7815 121.814 33.8141 121.814 39.0198C121.846 44.746 121.651 46.8609 120.903 50.635C120.219 54.0512 119.536 56.0034 118.82 56.6541C118.462 56.9795 118.17 57.435 118.17 57.6952C118.17 57.923 118.007 58.1182 117.844 58.1182C117.649 58.1182 117.519 58.3785 117.519 58.7364C117.519 59.0617 117.128 59.7125 116.64 60.2005C116.185 60.656 115.632 61.4043 115.404 61.7947C114.721 63.1287 110.296 68.2043 109.84 68.2043C109.58 68.2043 109.385 68.3344 109.385 68.4646C109.385 69.1478 103.919 72.564 102.357 72.8569C101.999 72.9219 101.153 73.1497 100.438 73.3449C99.7218 73.5727 97.8022 73.8655 96.208 74.0607C94.5812 74.2234 92.2712 74.5162 91.0023 74.6789C88.009 75.1018 81.0464 74.8415 78.1182 74.2234C76.6866 73.9305 75.3526 73.41 74.6694 72.9219C73.9211 72.3038 73.1402 72.0435 72.0991 72.0109C70.8302 71.9459 70.5048 72.076 69.8541 72.8569C69.3986 73.3449 69.1383 73.9631 69.2359 74.1908C69.4962 74.9066 67.8694 77.2167 66.5029 78.0626C64.6159 79.2664 63.6723 79.5267 59.1173 79.9496C55.3757 80.3401 41.9385 80.1123 40.7347 79.6568C40.2792 79.4941 38.9452 79.2664 37.7414 79.1363C36.5376 79.0387 34.3902 78.6482 32.9912 78.2903C31.5921 77.9324 29.9328 77.5745 29.3146 77.5095C28.6965 77.4119 27.818 77.2167 27.395 77.054C26.6142 76.7286 23.4908 75.7525 22.5147 75.4923C22.2544 75.4272 20.8554 74.9392 19.4238 74.4511C17.9922 73.9306 16.0401 73.3774 15.064 73.2473C13.2746 73.0196 10.4765 71.9459 10.4765 71.4904C10.4765 71.3602 10.1837 70.9373 9.82577 70.5468C8.49181 69.1478 7.45068 66.7402 7.25546 64.788C6.99518 62.1526 7.35307 58.9967 8.13392 56.8168Z" fill="black"/>
</svg>
