<svg width="218" height="896" viewBox="0 0 218 896" fill="none" xmlns="http://www.w3.org/2000/svg">
<path d="M0.812944 586.6C1.31294 587.4 1.71295 604.4 1.71296 624.4C1.81295 644.5 2.11295 661.2 2.31295 661.7C2.61295 662.2 3.11295 676.9 3.51295 694.4C3.81295 712 4.31295 726.6 4.51295 726.9C4.71296 727.2 5.11295 743.9 5.41296 763.9C6.11296 804 6.81295 813.3 9.91296 819.5C11.013 821.8 11.913 824.2 11.913 824.8C11.913 825.3 12.3129 826.6 12.8129 827.6C13.4129 828.5 15.1129 832 16.7129 835.3C23.1129 848.2 28.3129 855.8 37.1129 864.9C44.3129 872.4 54.213 877.9 67.9129 882.2C77.513 885.2 121.213 891.3 143.913 892.9C151.313 893.4 158.713 894 160.413 894.3C162.013 894.6 168.113 895.1 173.913 895.4C182.813 896 185.513 895.7 191.813 894C195.913 892.8 199.613 892.1 200.013 892.4C200.413 892.6 201.113 892.3 201.613 891.6C202.613 889.9 206.513 887.8 208.413 887.8C209.313 887.8 209.613 887.2 209.313 886.3C208.713 885 209.913 884.3 212.113 884.7C213.013 884.8 213.213 883.4 213.013 880.5C212.913 879.6 213.613 877.6 214.713 876C216.813 873 216.813 873 217.013 860.7C217.113 853.2 215.613 843.8 214.413 843.8C214.213 843.8 214.213 845.9 214.413 848.5C214.813 852.2 214.613 852.9 213.813 851.5C213.213 850.6 212.613 849 212.413 848C212.213 847.1 212.013 845.8 211.913 845.3C211.813 844.7 211.713 843.2 211.813 841.9C211.913 839.9 212.113 839.8 213.413 840.8C214.613 841.8 214.913 841.8 214.913 840.5C214.913 839.6 214.513 838.7 214.013 838.4C213.613 838.1 212.913 836.4 212.513 834.7C211.413 828.9 208.813 824.6 206.713 825.1C205.113 825.6 205.013 825.4 206.013 824.2C206.913 823.1 206.713 822.8 204.813 822.7C202.813 822.7 202.713 822.5 204.213 821.9C205.213 821.5 206.113 821 206.213 820.7C206.513 820.1 198.713 809.4 197.713 809C197.213 808.8 196.913 807.8 196.913 806.7C196.913 805.6 196.213 804.8 195.313 804.8C194.413 804.8 194.113 805.3 194.513 805.9C195.013 806.7 194.213 806.9 192.013 806.6C189.213 806.2 188.913 806.4 189.513 808.2C189.913 809.9 189.513 809.7 187.513 807.3C184.813 804.1 184.113 802.2 186.013 803.4C186.813 803.9 187.013 803.2 186.613 801.2L186.113 798.3L189.313 802C191.813 804.9 192.513 805.3 192.613 803.8C192.713 802.8 191.713 800.8 190.413 799.4C189.113 798 188.213 796.8 188.413 796.8C189.113 796.8 184.813 788.9 183.813 788.2C183.313 787.9 182.913 786.8 182.913 785.7C182.913 784.4 182.213 783.8 180.813 783.8C179.613 783.8 179.113 783.4 179.413 782.7C179.813 782.1 179.313 781 178.313 780.3C176.713 779.1 176.713 778.9 178.013 778.8C179.513 778.8 183.913 783.8 183.913 785.6C183.913 786.1 184.613 787.1 185.413 787.8C186.213 788.5 186.913 788.8 186.913 788.4C186.913 786 176.313 770.8 174.613 770.8C174.013 770.8 173.813 770.5 174.213 770.2C174.513 769.8 173.413 767.5 171.713 764.9C168.613 760.5 168.513 760.4 167.813 762.8C167.413 764.2 167.113 764.7 167.013 764C166.913 763.4 166.413 762.8 165.813 762.8C165.213 762.8 165.013 763.7 165.413 765C165.913 766.9 165.713 766.8 164.413 764.6C163.413 762.8 162.313 762.1 161.313 762.5C160.013 763 160.013 763.2 161.113 763.9C162.113 764.6 162.113 764.8 160.913 764.8C160.113 764.8 158.113 762.7 156.613 760.2C154.313 756.3 154.013 755.3 155.113 754C156.113 752.8 156.113 752.6 155.113 753.2C154.413 753.6 153.913 753.3 153.913 752.4C153.913 750.5 154.413 750.4 157.213 752C160.113 753.5 163.913 753.9 163.913 752.6C163.913 752 163.213 751.8 162.413 752.2C161.613 752.5 160.913 752.3 160.913 751.7C160.913 751.1 160.413 751 159.913 751.3C159.313 751.6 158.913 751.4 158.913 750.8C158.913 750.2 158.413 750 157.913 750.3C156.513 751.2 151.713 748 152.413 746.8C152.713 746.3 152.513 744.9 151.913 743.8C151.013 742.2 151.113 741.8 152.413 741.8C155.013 741.8 153.913 737.6 151.113 737C150.113 736.8 150.113 737.2 151.013 739C152.113 741 152.013 741.2 150.713 740C148.713 738.4 147.713 734.8 149.413 735.4C151.013 736.1 152.013 732.3 150.613 730.9C150.013 730.3 148.913 729.8 148.113 729.8C147.113 729.8 146.813 728.9 147.113 726.9C147.413 725.1 147.113 724.2 146.413 724.4C145.413 724.8 144.913 723.2 144.713 718.8C144.613 718 144.213 717 143.713 716.7C142.513 715.9 138.813 703.4 137.813 696.8C137.413 693.8 136.513 688.8 136.013 685.8C134.913 680.4 133.613 664 133.513 656.5C133.513 654.5 133.213 652.8 132.813 652.8C132.413 652.8 132.113 650.6 132.313 647.8C132.413 645.1 132.113 642.7 131.513 642.5C130.913 642.3 130.913 641.4 131.413 640.2C131.913 639.2 132.313 634.7 132.413 630.2C132.613 625.8 133.013 621.2 133.413 620C133.813 618.6 133.613 617.1 132.913 616.3C132.213 615.5 132.113 614.8 132.613 614.8C133.713 614.8 133.713 610.8 132.513 608.9C132.013 608.1 132.113 607.3 132.713 606.9C134.013 606.1 134.113 570.8 132.913 570.8C132.413 570.8 132.113 575 132.013 580C131.913 597.2 130.613 618.9 129.813 619.4C129.313 619.7 129.113 616.4 129.413 612.1C129.713 606.4 129.613 604.7 128.813 605.8C128.013 607 127.913 606.7 128.413 604.8C128.713 603.4 129.313 601.4 129.613 600.3C130.013 598.6 129.913 598.5 128.913 599.8C128.013 601.1 127.813 601 128.013 599.3C128.113 598.2 127.913 593.9 127.513 589.8C127.113 585.7 126.713 568 126.513 550.4C126.313 521.8 126.113 518.4 124.613 517.3C123.313 516.3 123.113 515.5 123.813 513.7C124.813 511.3 124.813 511.3 124.813 514.1C124.913 517.6 127.313 517.3 127.613 513.7L127.813 511.3L127.013 513.8C126.413 515.8 126.113 514.9 125.813 510C125.513 505.5 125.713 504.2 126.413 505.2C127.213 506.2 127.513 505.4 127.613 501.9C127.713 498.4 127.513 497.9 126.913 499.8C126.413 501.6 126.213 500.5 126.113 496C126.013 492.5 126.413 489.8 127.013 489.8C127.613 489.8 127.713 489.3 127.413 488.8C127.013 488.2 126.413 488 126.113 488.2C124.813 489 125.313 465.4 126.713 463C127.413 461.8 127.613 460.8 127.013 460.8C126.513 460.8 125.813 459.1 125.413 457.1C124.913 454.3 125.113 453.1 126.313 452.2C128.113 450.9 128.413 449.8 126.813 449.8C126.213 449.8 125.113 449.1 124.313 448.3C123.413 447.4 123.213 446.8 123.913 446.8C124.513 446.8 124.813 446.4 124.513 445.9C124.213 445.4 124.613 444.7 125.513 444.4C126.813 443.9 126.913 443.5 126.013 442.4C125.313 441.5 124.813 437.4 124.913 431.6C125.013 422.3 124.913 419.9 124.813 417.5C124.813 416.9 125.013 413.5 125.213 410.1C125.413 406.7 125.313 404.1 124.813 404.3C124.413 404.6 124.113 402.6 124.213 399.8C124.213 396.6 124.613 395.1 125.313 395.5C126.113 396 126.113 395.8 125.313 394.7C124.813 393.9 124.413 391.3 124.513 388.8C125.113 378.2 125.913 350.6 125.913 342.1C126.013 334.8 126.213 333 127.313 333.4C128.113 333.7 128.513 334.8 128.213 335.9C127.913 337 128.213 337.8 128.813 337.8C129.513 337.8 129.813 337.5 129.613 337C129.313 336.6 129.513 335.4 130.013 334.3C130.713 332.5 130.813 332.6 130.813 335C130.913 336.5 130.213 338.1 129.313 338.6C127.813 339.4 127.813 339.6 129.313 340.1C130.513 340.6 130.813 341.6 130.513 343.5C130.213 345.1 129.813 352.7 129.713 360.5C129.513 371.5 129.113 374.8 128.113 374.8C127.413 374.8 127.113 375.3 127.413 375.8C127.813 376.4 128.613 376.5 129.213 376.1C129.913 375.8 129.613 376.3 128.713 377.4C126.913 379.5 127.213 383.6 129.313 385C130.113 385.6 130.013 386 129.213 386.6C128.513 387 128.313 387.9 128.813 388.7C129.713 390.2 129.113 393.6 127.613 395.6C126.913 396.5 127.013 396.7 128.413 396.2C129.913 395.6 130.013 395.8 129.013 397.6C128.113 399.3 128.113 399.8 129.013 399.8C129.913 399.8 129.913 400.2 129.013 401.2C127.713 402.7 127.913 413.9 129.113 413.1C129.613 412.9 129.913 414.2 129.813 416C129.813 418.7 129.613 418.9 128.913 417.3C128.313 415.8 128.113 416.2 128.213 418.9C128.313 421 128.713 422.4 129.113 422.2C129.713 421.8 129.513 437.6 128.813 442.8C128.313 446.6 129.013 453.9 129.813 453.3C130.313 453 131.113 453.3 131.413 453.9C132.113 455 135.013 450.5 134.813 448.4C134.813 447.8 134.413 448.2 133.913 449.3C133.213 450.8 133.013 450.2 132.813 446.5C132.613 441.3 132.613 441.2 131.513 438C131.113 436.7 131.213 435.2 131.813 434.4C132.513 433.6 132.513 432.8 131.913 432.2C131.313 431.6 131.513 430.2 132.413 428.5C133.113 427 133.413 425.8 132.813 425.8C131.413 425.8 131.713 417.4 133.113 415.9C134.113 414.8 134.113 414.5 133.113 414.1C132.513 413.8 131.913 412.5 131.913 411.2C131.913 409.4 132.313 408.9 133.113 409.4C134.113 410 134.113 409.8 133.313 408.7C131.913 406.8 131.713 401.8 133.013 400.2C133.813 399.3 133.713 397.3 132.813 393.1C131.113 385.1 130.913 382.8 131.913 382.8C132.413 382.8 132.413 381.4 131.913 379.8C131.313 377.8 131.413 376.8 132.113 376.8C132.813 376.8 132.813 376.4 132.013 375.5C131.413 374.7 131.213 373.8 131.613 373.4C132.013 373 131.813 372.4 131.213 372C130.413 371.5 130.513 369.5 131.413 364.6C132.313 359.7 132.313 357.6 131.513 356.8C130.713 356 130.913 355.9 132.113 356.3C133.613 356.9 133.913 356.4 133.813 353.2C133.713 349.8 133.613 349.6 132.913 351.8C132.213 354.1 132.113 354.1 131.913 350.8C131.613 344.9 132.013 340.4 133.113 339C133.813 338.2 133.813 337.8 133.113 337.8C132.013 337.8 132.213 334.7 133.413 332.8C133.713 332.2 133.613 331.8 133.113 331.8C132.613 331.8 132.113 327 132.113 321C132.013 313.9 132.313 310.8 132.913 311.8C133.713 313.1 133.913 313 133.913 311.5C133.913 310.6 133.413 309.8 132.813 309.8C132.313 309.8 132.113 309.3 132.413 308.8C132.813 308.2 133.513 308.1 134.113 308.4C134.813 308.8 134.913 308.6 134.513 307.9C134.113 307.3 133.413 307 132.913 307.3C132.413 307.6 132.213 304 132.513 299C133.013 291.5 132.813 290 131.513 289.5C129.813 288.8 129.313 285.3 130.813 284.4C131.213 284.1 131.413 285 131.113 286.3C130.913 287.7 131.113 288.8 131.713 288.8C133.213 288.8 133.913 279.6 132.613 277.9C131.713 276.8 131.713 276.6 132.613 277.1C133.413 277.6 133.913 276.1 134.413 272.1C134.713 268.9 135.213 265 135.513 263.3C135.813 261 135.713 260.6 134.713 261.6C134.013 262.3 133.413 264.3 133.413 266.1C133.313 267.8 133.113 270.9 133.013 272.8C132.813 276 132.713 276.1 131.913 274C130.913 271.7 131.213 260.1 132.313 259.1C132.613 258.8 132.313 257.8 131.613 257C130.613 255.7 130.713 255.6 131.813 256.3C132.913 256.9 133.113 256.6 132.513 254.5C132.013 252.5 132.213 252 133.213 252.4C134.113 252.7 134.513 254.1 134.213 256.4C134.013 258.2 134.313 259.8 134.813 259.8C135.313 259.8 135.913 257.9 136.113 255.6C136.413 252.5 136.013 250.9 134.713 249.6C133.713 248.6 133.013 246.6 133.013 245C133.113 242.6 133.313 242.7 134.213 246C134.813 248.1 135.613 249.8 136.113 249.8C137.213 249.8 137.113 247 135.813 244.6C135.013 243 135.013 242.7 135.913 243.3C136.813 243.9 136.913 243.3 136.513 241.1C136.013 239 136.313 237.7 137.413 236.8C138.213 236.1 138.813 234.2 138.813 232.4L138.613 229.3L137.913 232.8C137.213 236.3 136.413 235.1 136.913 231.3C137.013 230.2 137.213 227.5 137.313 225.3C137.313 223.1 137.813 220.7 138.213 220C138.713 219.3 138.613 218.8 137.913 218.8C137.313 218.8 137.013 218.4 137.313 217.9C138.013 216.8 139.113 200.2 138.913 193.7C138.913 190.8 139.413 188.5 140.313 187.5C141.913 186 142.113 181.5 140.613 182.5C140.113 182.8 140.013 181.1 140.313 178.7C140.613 176.3 141.113 169.1 141.413 162.8C141.713 156.5 142.213 149.5 142.513 147.4C142.813 145.2 143.213 141.1 143.413 138.4C143.613 135.6 144.013 130.8 144.313 127.8C144.613 124.8 145.013 119.4 145.313 115.8C145.613 112.2 146.313 105.9 146.813 101.7C147.413 97.5001 148.113 89.0001 148.513 82.7001C149.113 72.3001 150.613 67.5 151.913 71.3C152.213 72.3 152.913 72.4 153.913 71.8C155.113 71 154.813 70.6 152.113 69.6C148.813 68.3 147.913 66.4 150.113 65.4C151.113 64.9 151.113 64.7 150.113 64.2C148.413 63.4 148.613 57.9 150.313 57.2C151.413 56.8 151.613 56 150.913 54.3C150.313 52.8 150.313 51.6 150.913 51.3C152.113 50.6 152.213 45.8 151.113 45.8C150.713 45.8 150.313 44 150.313 41.8C150.213 39.6 150.513 38.1 151.013 38.4C151.513 38.7 151.913 38.5 151.913 37.9C151.913 37.4 150.913 36.6 149.713 36.2L147.513 35.5L149.713 33.7L151.913 31.9L149.813 31.3C148.613 30.9 146.613 29.6 145.213 28.4C143.913 27.3 142.313 26.2 141.813 26.2C141.313 26.1 140.313 26 139.613 25.9C138.813 25.8 138.913 25.5 139.913 24.8C141.213 24 141.213 23.7 140.013 22.9C139.313 22.4 138.913 21.6 139.213 21.2C139.513 20.7 138.313 20.2 136.713 20.1C135.013 20 132.713 18.9 131.713 17.8C130.613 16.7 129.313 16.1 128.713 16.4C128.013 16.8 127.913 16.6 128.313 16C128.713 15.3 128.513 14.8 128.013 14.8C127.413 14.8 126.913 15.4 126.813 16C126.813 16.7 126.413 16.4 125.913 15.3C125.413 14.2 125.013 13.9 125.013 14.6C124.913 15.6 124.613 15.6 123.513 14.6C122.813 13.9 122.413 12.8 122.613 12.1C122.813 11.5 122.013 10.7 120.713 10.3C119.413 10 116.813 9 114.913 8.20002C110.013 6.20002 98.8129 3.79999 99.5129 4.90003C99.8129 5.40003 100.913 5.79999 101.913 5.79999C102.913 5.79999 104.113 6.20002 104.413 6.79999C105.213 8.10004 103.313 8.10004 100.913 6.79999C99.9129 6.29999 97.4129 5.50001 95.3129 5.20002C93.3129 4.90003 90.5129 4.20002 89.1129 3.70002C87.7129 3.20002 86.4129 3.00001 86.1129 3.29999C85.8129 3.50001 85.0129 3.29999 84.3129 2.70002C83.5129 2.10004 82.4129 1.79999 81.7129 2.10004C81.0129 2.29999 76.6129 2.00001 71.9129 1.29999C67.2129 0.600043 54.7129 7.09457e-06 44.2129 7.55354e-06L24.9129 8.39717e-06L23.3129 3.40003C22.4129 5.3 21.3129 6.8 20.9129 6.8C20.5129 6.8 20.3129 7.90003 20.4129 9.10005C20.6129 10.4 20.0129 13.9 19.2129 16.9C18.3129 19.9 17.6129 25.3 17.5129 29.1C17.3129 32.8 16.7129 36.4 16.1129 37C15.4129 37.7 15.3129 38.7 15.8129 39.7C16.3129 40.6 16.9129 46.7 17.3129 53.3C17.6129 59.9 18.1129 69 18.5129 73.6C19.1129 81.1 19.0129 82.1 17.1129 84.1C15.1129 86.2001 15.1129 86.6 16.4129 94.8001C17.1129 99.5001 18.4129 107.1 19.3129 111.8C20.2129 116.5 21.4129 122.8 21.9129 125.8C22.5129 128.8 23.1129 138 23.4129 146.3C24.1129 171.7 25.1129 187.8 26.0129 187.2C26.4129 187 26.6129 188.2 26.3129 190C24.6129 199.8 24.6129 200.1 26.0129 199.2C27.2129 198.5 27.2129 198.7 26.0129 200.1C25.0129 201.4 24.7129 205.9 24.9129 220.5C25.5129 262.9 24.9129 308.4 23.7129 316.3C22.4129 324.5 21.7129 335.1 22.0129 342.3C22.7129 359.3 22.1129 378.5 20.9129 381.3C19.3129 385.2 18.9129 389.4 19.9129 392.8C20.4129 394.6 20.3129 396.1 19.6129 396.8C18.7129 397.8 18.7129 397.9 19.9129 397.3C21.1129 396.6 21.2129 396.7 20.3129 397.9C19.7129 398.7 19.1129 400 19.1129 400.8C19.0129 401.6 18.1129 405.9 17.0129 410.3C15.9129 415 15.4129 418.7 15.9129 419.2C16.4129 419.7 16.4129 420.9 15.7129 422.1C15.0129 423.6 15.0129 424.3 16.0129 424.9C17.8129 426 17.8129 427.5 16.1129 432.1C15.3129 434.1 14.9129 436.8 15.2129 438C15.5129 439.2 15.4129 441 14.8129 442C14.3129 443 14.2129 443.8 14.7129 443.8C15.8129 443.8 16.1129 450.6 15.1129 452.2C14.7129 452.8 14.4129 453.5 14.4129 453.8C14.3129 454.1 13.6129 457.7 12.7129 461.8C7.81292 484.1 4.91295 506.1 4.51294 522.3C4.31294 529.4 3.61295 539 2.91295 543.6C2.21295 548.2 1.91295 554.1 2.11295 556.9C2.41295 560 2.21295 561.8 1.61295 561.8C0.912949 561.8 1.01294 562.3 1.71295 563C3.31294 564.6 3.21295 565.9 1.71295 565.5C1.01294 565.4 0.312943 566.3 0.112946 567.5C-0.0870504 569.1 0.212953 569.6 1.11295 569.3C2.11295 568.9 2.41295 570.2 2.21295 575C2.11295 578.5 2.01294 582.3 2.01294 583.6C1.91295 584.9 1.51294 585.6 0.91295 585.3C-0.287047 584.6 -0.287047 584.9 0.812944 586.6ZM20.1129 31.1C20.9129 31.4 20.6129 31.7 19.5129 31.7C18.4129 31.8 17.8129 31.5 18.2129 31.2C18.5129 30.9 19.4129 30.8 20.1129 31.1ZM27.2129 597.1C27.6129 596.8 27.4129 595.9 26.8129 595.1C26.0129 594.3 26.0129 593.4 26.6129 592.5C27.2129 591.9 27.6129 586.1 27.5129 579.8C27.4129 573.2 27.8129 568 28.4129 567.5C29.0129 567.1 28.9129 566.5 28.0129 565.9C27.0129 565.2 26.9129 564.6 27.9129 562.8C28.5129 561.6 28.9129 558.6 28.6129 556.2C28.4129 553.7 28.5129 551.5 28.9129 551.3C29.3129 551.1 29.6129 549 29.7129 546.8C29.8129 544.5 30.4129 541.8 30.9129 540.7C31.5129 539.7 31.7129 538.8 31.3129 538.8C31.0129 538.8 31.1129 538.2 31.6129 537.5C32.1129 536.9 32.6129 533.4 32.8129 529.8C33.0129 526.3 33.5129 522.5 33.9129 521.3C34.3129 520.2 34.4129 517.8 34.1129 516C33.6129 512.4 35.8129 497.4 36.7129 498.3C37.5129 499.1 37.7129 508.8 36.9129 508.3C36.6129 508.1 36.2129 508.9 36.2129 510L36.0129 512.1L37.5129 510C38.4129 508.6 39.0129 505.2 39.0129 500.1C39.1129 489.9 39.0129 488.8 37.9129 491.3C37.1129 493.2 37.0129 493.2 37.0129 491.2C36.9129 490 37.6129 488.8 38.4129 488.4C40.0129 487.8 40.5129 482.7 39.1129 481.4C38.2129 480.4 38.2129 472.5 39.1129 471.8C39.4129 471.5 40.0129 469.5 40.2129 467.3C40.5129 465.1 41.3129 459.6 42.0129 455C43.1129 447.8 43.1129 446.6 41.9129 445.7C40.6129 444.9 40.6129 444.7 41.9129 443.9C42.9129 443.2 43.4129 440.6 43.6129 435.2C44.1129 420.1 45.1129 410.2 47.0129 401.6C48.0129 396.8 48.9129 391.3 48.9129 389.3C48.9129 386 50.5129 376.4 53.4129 363C54.5129 357.5 54.5129 356.7 53.1129 355.9C52.1129 355.3 51.8129 354.4 52.4129 353.2C53.1129 351.4 53.1129 351.4 53.9129 353.3C54.8129 355.7 55.7129 349 56.3129 334.5C56.5129 329.1 57.0129 324.4 57.3129 324.1C57.6129 323.7 57.9129 324.1 58.0129 324.9C58.0129 325.7 58.4129 325.4 58.8129 324.3C59.3129 323.1 59.2129 321.7 58.5129 320.9C57.4129 319.5 56.9129 304.8 58.0129 304.8C58.3129 304.8 58.5129 301.6 58.4129 297.8C58.2129 291.4 59.0129 288.9 60.2129 292C60.5129 292.7 60.8129 292.1 60.8129 290.6C60.9129 288.8 60.5129 288 59.6129 288.3C58.8129 288.7 58.3129 287.8 58.3129 285.7C58.2129 284 57.5129 282.2 56.8129 281.7C55.7129 281 55.8129 280.8 57.3129 280.8C58.5129 280.8 58.9129 280.3 58.5129 279.2C58.2129 278.3 57.9129 276.8 57.9129 275.9C57.9129 274.9 57.2129 274.1 56.4129 274.1C55.2129 274.1 55.2129 274.4 56.2129 275.7C57.1129 276.9 57.1129 277 56.1129 276.4C55.5129 276 54.9129 276.1 54.9129 276.5C54.9129 277 55.5129 278 56.1129 278.7C57.1129 279.8 57.1129 280 56.1129 279.4C55.4129 279 54.9129 279.2 54.9129 279.9C54.9129 280.6 54.2129 280.3 53.4129 279.2C52.6129 278.2 52.0129 276.8 51.9129 276.3C51.9129 275.7 52.4129 276 53.0129 276.8C53.9129 278 54.0129 277.9 53.6129 276C53.3129 274.8 53.7129 273.1 54.5129 272.4C55.3129 271.6 55.9129 270.3 56.0129 269.6C56.1129 268.9 56.5129 269.4 56.9129 270.8C57.5129 272.7 57.7129 272 57.8129 267.8C57.9129 264.6 57.4129 261.6 56.6129 260.9C55.6129 259.8 55.7129 259.5 56.7129 259.1C57.3129 258.8 57.6129 258.2 57.3129 257.6C56.9129 257 57.3129 256.2 58.0129 255.7C59.0129 255.1 59.1129 254.8 58.1129 254.8C57.5129 254.8 56.9129 253.6 56.8129 252C56.8129 249.6 56.7129 249.5 55.9129 251.3C55.5129 252.4 55.3129 254.6 55.5129 256.3C55.9129 258.8 55.8129 258.9 55.0129 257.3C52.8129 252.6 52.5129 250.1 54.1129 250.6C54.7129 250.8 55.0129 249.6 54.7129 247.8C54.2129 244.2 54.6129 243.9 55.9129 247C56.6129 248.8 56.8129 247.8 56.8129 243.1C56.9129 239.1 56.5129 236.8 55.6129 236.5C54.9129 236.2 55.1129 235.9 56.1129 235.9C57.1129 235.8 57.9129 235.3 57.9129 234.7C57.9129 234.2 57.4129 234 56.8129 234.3C56.1129 234.8 55.8129 234 56.0129 232.2C56.1129 230.6 56.1129 227.1 56.1129 224.4C55.9129 220.2 55.7129 219.7 54.4129 220.8C53.1129 221.9 53.0129 221.8 53.5129 220.4C53.8129 219.5 54.5129 218.8 55.0129 218.8C55.5129 218.8 55.9129 217.4 55.9129 215.8C55.9129 214.1 55.4129 212.8 54.8129 212.8C54.3129 212.8 54.1129 213.2 54.4129 213.8C54.7129 214.3 54.5129 214.8 54.0129 214.8C53.4129 214.8 52.9129 213.9 52.9129 212.7C52.9129 211.1 52.4129 210.8 50.6129 211.3L48.4129 211.9L50.6129 210.2C51.9129 209.3 52.9129 207.6 53.0129 206.4C53.0129 204.4 53.1129 204.4 53.8129 206.3C54.4129 207.7 54.7129 206.7 54.7129 203C54.8129 197.5 53.3129 195.8 52.6129 200.5C52.3129 202.5 52.2129 202 52.0129 199C52.0129 196.7 52.3129 194.8 52.9129 194.8C53.4129 194.8 53.9129 195.4 54.0129 196C54.0129 196.7 54.4129 196.4 54.8129 195.3C55.3129 194.2 55.4129 192.7 55.1129 191.9C54.7129 190.8 54.3129 190.9 53.2129 192.4C52.0129 194.1 51.9129 194.1 51.9129 192C51.9129 190.7 52.5129 189.8 53.4129 189.8C54.6129 189.8 54.9129 188 54.9129 179.9C54.9129 169.3 53.9129 164.8 51.5129 164.8C50.5129 164.8 50.2129 164.2 50.6129 163.2C51.0129 162 51.3129 161.9 52.0129 162.9C52.4129 163.7 53.1129 163.9 53.5129 163.5C53.9129 163.1 53.3129 161.9 52.1129 160.8C49.9129 158.7 49.0129 152.5 50.7129 151.4C52.0129 150.6 51.2129 132.3 49.5129 122.7C47.3129 110.2 46.5129 100.5 47.8129 101.3C48.4129 101.6 48.9129 101.4 48.9129 100.9C48.9129 100.3 48.3129 99.8001 47.5129 99.8001C46.5129 99.8001 46.2129 97.2001 46.1129 87.5001C46.1129 80.8001 45.7129 72.7 45.3129 69.4C44.9129 65.2 45.0129 63.7 45.8129 64.2C46.4129 64.6 46.9129 64.4 46.9129 63.9C46.9129 63.3 46.5129 62.8 46.0129 62.8C44.9129 62.8 43.9129 55.9 43.6129 45.5C43.5129 39.5 43.8129 37.5 44.9129 36.8C45.7129 36.3 45.9129 35.8 45.3129 35.8C43.7129 35.8 44.8129 26.6 46.5129 25.2C47.3129 24.6 47.7129 23.4 47.4129 22.6C47.1129 21.9 47.8129 20.2 49.0129 18.9C51.2129 16.6 51.5129 16.5 63.3129 17.2C80.8129 18.1 109.113 24.4 114.813 28.5C120.613 32.9 121.013 34.4 121.013 48.4C121.013 60.2 119.313 81.0001 117.013 99.8001C116.013 107.1 115.613 113.2 114.413 136.3C114.113 142.3 113.413 148.6 112.913 150.3C111.713 154 112.113 156.6 114.013 158C115.113 158.8 115.113 158.9 113.713 158.5C112.313 158 111.913 158.9 111.413 163.6C111.113 166.7 110.413 172.7 109.913 176.8C109.013 183.8 108.613 193.6 107.313 232.3C107.113 240.5 106.413 250.7 105.913 254.8C105.413 258.9 104.713 268.4 104.413 275.8C103.513 298.5 102.913 307.9 101.913 317.3C98.8129 347.6 97.4129 487.5 99.8129 527.8C100.513 540.2 101.313 551 101.713 551.8C102.813 554.8 102.913 556.7 103.413 581.7C103.713 595.6 104.213 607.5 104.513 608C104.813 608.4 105.213 622.7 105.513 639.6C105.713 656.5 106.113 672.1 106.313 674.3C106.613 676.5 107.113 682.3 107.413 687.3C108.013 697.3 110.413 712.4 112.113 717.8C115.213 727.5 116.413 730.5 117.913 732.3C118.813 733.4 120.113 736.5 120.813 739.3C121.413 742 122.413 744.5 122.913 744.8C124.013 745.5 129.313 757 129.013 758.2C128.813 759.3 133.813 774.9 134.913 776.3C135.313 776.8 135.913 778.5 136.313 780C137.213 784 143.613 794.6 148.613 800.3C152.813 805.2 163.813 819.8 173.113 832.8C175.713 836.4 178.813 840.4 180.113 841.8C182.513 844.3 188.413 854 190.713 859.1C191.313 860.6 191.913 864.7 191.913 868.1L191.913 874.3L180.113 873.1C173.713 872.5 167.313 871.9 165.913 871.9C163.513 871.9 163.513 871.9 165.313 873.3C167.113 874.7 166.913 874.8 162.713 874.8C160.113 874.8 157.713 874.3 157.413 873.8C156.913 873 156.313 873.1 155.313 873.9C154.313 874.8 153.613 874.8 152.513 873.9C151.613 873.1 150.413 873.1 148.513 873.8C146.413 874.6 145.913 874.5 145.913 873.1C145.913 871.8 146.713 871.6 150.413 872C152.913 872.3 155.113 872.2 155.413 871.8C156.113 870.6 142.613 870 141.113 871.1C140.013 871.9 140.013 872.3 141.113 872.9C142.113 873.6 142.013 873.8 140.813 873.8C138.513 873.8 137.813 872.7 139.013 871.1C139.913 870.1 139.713 869.8 137.913 869.8C136.413 869.8 135.913 870.3 136.213 871.2C136.613 872.2 136.313 872.5 135.413 872.1C134.613 871.8 134.113 871.2 134.413 870.8C135.413 869.3 132.313 868.1 126.513 868C121.813 867.8 120.813 868 121.213 869.2C121.813 870.7 119.513 870.8 118.213 869.3C117.813 868.9 118.013 868.8 118.613 869.2C119.313 869.6 119.913 869.5 119.913 869C119.913 867.6 118.113 867.1 111.313 866.3C89.9129 863.9 69.1129 855.8 60.3129 846.6C55.3129 841.3 47.4129 830.1 46.4129 826.9C45.9129 825.3 45.4129 824.9 44.9129 825.8C44.4129 826.5 45.1129 828.5 46.513 830.5C47.8129 832.5 48.6129 834.5 48.2129 835.1C47.9129 835.6 48.013 835.8 48.6129 835.5C49.7129 834.8 51.3129 836.5 55.8129 843.5C57.6129 846.4 59.513 848.5 60.013 848.2C60.513 847.9 60.9129 847.9 60.9129 848.2C60.9129 848.4 61.2129 849.3 61.513 850.2C61.8129 851.1 61.7129 851.8 61.2129 851.8C59.8129 851.8 52.9129 845.1 53.6129 844.4C53.9129 844.1 53.513 843.8 52.6129 843.8C50.4129 843.8 49.3129 841.8 51.013 840.7C52.1129 840 52.2129 839.8 51.1129 839.8C49.3129 839.8 46.013 835.8 45.9129 833.6C45.9129 832.7 44.8129 831.1 43.4129 830C42.013 828.9 40.9129 827.5 40.9129 826.9C40.9129 826.3 40.4129 825.8 39.9129 825.8C38.4129 825.8 38.7129 820.1 40.1129 819.5C40.9129 819.1 40.8129 818.9 39.7129 818.9C38.6129 818.8 38.2129 818.2 38.6129 816.8C39.013 815.3 39.513 815 40.4129 815.8C42.013 817.1 43.4129 814.1 42.013 812.4C41.513 811.8 40.8129 809.7 40.4129 807.8C39.7129 804.7 39.8129 804.5 41.3129 805.7C42.1129 806.4 42.6129 807.4 42.3129 807.9C42.013 808.4 42.3129 808.8 42.9129 808.8C43.6129 808.8 43.8129 808 43.3129 806.5C42.9129 805.3 42.513 803.6 42.4129 802.8C42.3129 802 41.7129 800.3 41.1129 799.1C40.4129 797.9 39.6129 794.7 39.3129 792.1C39.013 789.5 38.5129 786.6 38.2129 785.8C37.9129 785 37.5129 783.6 37.4129 782.8C37.2129 781.1 35.5129 773.4 33.8129 766.8C33.2129 764.3 32.5129 760.7 32.2129 758.8C31.9129 756.9 30.9129 754.7 30.0129 754C29.1129 753.3 28.9129 752.9 29.5129 753.2C30.2129 753.5 30.9129 753.1 31.3129 752.3C31.6129 751.5 31.5129 750.8 31.1129 750.8C30.7129 750.8 30.4129 749.1 30.3129 747.1C30.3129 745 29.9129 739.2 29.6129 734.3C29.0129 725.1 28.5129 711.6 27.4129 669.8C27.0129 656.9 26.6129 646.2 26.6129 646.1C26.0129 645.6 26.7129 597.7 27.2129 597.1ZM30.9129 458.3C31.4129 458.6 31.9129 459.3 31.9129 459.9C31.9129 460.4 31.4129 460.8 30.9129 460.8C30.3129 460.8 29.9129 460.1 29.9129 459.2C29.9129 458.4 30.3129 458 30.9129 458.3ZM31.9129 776.8C32.4129 776.8 32.9129 777 32.9129 777.2C32.9129 777.5 32.4129 778 31.9129 778.3C31.3129 778.6 30.9129 778.4 30.9129 777.9C30.9129 777.3 31.3129 776.8 31.9129 776.8ZM35.513 833.1C35.8129 833.4 35.9129 834.3 35.6129 835C35.3129 835.8 35.013 835.5 35.013 834.4C34.9129 833.3 35.2129 832.7 35.513 833.1ZM35.9129 465.3C36.4129 465 36.9129 465.1 36.9129 465.7C36.9129 466.2 36.4129 467 35.9129 467.3C35.3129 467.6 34.9129 467.5 34.9129 466.9C34.9129 466.4 35.3129 465.6 35.9129 465.3ZM36.3129 455.8C37.4129 455.8 37.8129 457.7 36.9129 458.3C36.4129 458.6 35.9129 458.2 35.9129 457.4C35.9129 456.5 36.1129 455.8 36.3129 455.8ZM38.8129 432.8C39.8129 432.8 39.4129 440.6 38.4129 441.6C38.1129 441.9 37.9129 440 37.9129 437.5C37.9129 434.9 38.3129 432.8 38.8129 432.8ZM39.4129 386.8C40.3129 387.5 40.7129 388.3 40.5129 388.5C39.8129 389.2 37.9129 387.8 37.9129 386.6C37.9129 386 38.5129 386 39.4129 386.8ZM39.9129 456.8C40.4129 456.8 40.6129 457.5 40.3129 458.3C39.9129 459.1 39.5129 459.8 39.3129 459.8C39.1129 459.8 38.9129 459.1 38.9129 458.3C38.9129 457.5 39.3129 456.8 39.9129 456.8ZM40.1129 414.3C40.4129 414 40.6129 415 40.5129 416.7C40.4129 418.3 40.1129 420 39.7129 420.3C39.4129 420.7 39.2129 419.6 39.3129 417.9C39.4129 416.2 39.8129 414.6 40.1129 414.3ZM39.9129 88.8001C40.4129 88.8001 40.9129 89.8001 40.8129 91.0001C40.8129 93.2001 40.7129 93.2001 39.9129 91.3001C39.4129 90.2001 39.0129 89.2001 39.0129 89.0001C38.9129 88.9001 39.3129 88.8001 39.9129 88.8001ZM44.9129 379.3C45.4129 379 45.9129 379.2 45.9129 379.7C45.9129 380.3 45.4129 380.8 44.9129 380.8C44.3129 380.8 43.9129 380.6 43.9129 380.4C43.9129 380.1 44.3129 379.6 44.9129 379.3ZM50.5129 340.4C51.8129 339.9 54.2129 344.5 53.4129 345.8C53.1129 346.2 52.0129 346.4 51.0129 346.1C48.9129 345.6 48.6129 341.1 50.5129 340.4ZM50.9129 331.7C50.9129 329.8 51.4129 328.8 52.3129 328.8C53.1129 328.8 53.7129 329.7 53.6129 330.7C53.6129 331.8 53.2129 332.5 52.8129 332.2C52.4129 332 51.9129 332.7 51.6129 333.8C51.3129 334.9 50.5129 335.8 49.7129 335.7C48.7129 335.7 48.7129 335.5 49.6129 335.1C50.3129 334.9 50.9129 333.3 50.9129 331.7ZM50.6129 350.5C50.8129 351.2 50.8129 352.4 50.6129 353C50.3129 353.7 50.1129 353.2 50.1129 351.8C50.1129 350.4 50.3129 349.9 50.6129 350.5ZM52.4129 335.8C52.6129 335.8 52.9129 336.5 53.3129 337.3C53.6129 338.2 53.3129 338.8 52.4129 338.8C51.5129 338.8 51.2129 338.2 51.5129 337.3C51.9129 336.5 52.2129 335.8 52.4129 335.8ZM51.8129 323.2C52.3129 323.5 52.9129 324.6 53.2129 325.7C53.5129 327.1 53.3129 327.5 52.3129 327.1C51.5129 326.8 50.9129 325.7 50.9129 324.6C50.9129 323.6 51.3129 322.9 51.8129 323.2ZM53.1129 316C53.6129 316.2 54.0129 316.7 54.0129 317.1C53.9129 317.5 53.8129 319 53.8129 320.5C53.7129 322.2 53.5129 322.6 53.2129 321.5C53.0129 320.6 52.4129 319.8 51.9129 319.8C51.5129 319.8 51.3129 318.9 51.6129 317.8C51.9129 316.6 52.6129 315.9 53.1129 316ZM52.9129 304.8C53.8129 303.4 54.1129 304.1 53.8129 306.4C53.8129 306.8 54.3129 307.5 55.1129 308C56.1129 308.8 56.1129 309.1 55.1129 309.5C54.5129 309.7 54.1129 310.4 54.4129 310.9C54.8129 311.4 54.3129 311.5 53.5129 311.2C51.7129 310.5 51.4129 307.1 52.9129 304.8ZM53.0129 294.7C54.4129 291.9 56.1129 293.4 55.7129 297.1C55.4129 300.2 53.9129 302.9 52.9129 302.3C51.9129 301.7 51.9129 296.6 53.0129 294.7ZM52.9129 287.3C53.5129 287.7 53.9129 286.8 53.9129 285.4C53.9129 284 54.3129 282.8 54.8129 282.8C55.2129 282.8 55.4129 283.9 55.1129 285.3C54.8129 287 55.1129 287.8 56.0129 287.9C56.8129 287.9 56.5129 288.3 55.4129 288.8C52.5129 290.1 51.9129 290 51.9129 288.2C51.9129 287.4 52.3129 287 52.9129 287.3ZM52.3129 177.8C53.0129 177.8 53.7129 181.8 53.0129 182.2C52.6129 182.5 52.2129 181.6 52.1129 180.2C52.0129 178.9 52.1129 177.8 52.3129 177.8ZM55.0129 260.4C56.4129 261.2 56.1129 264.5 54.6129 265.1C53.6129 265.5 53.4129 264.8 53.7129 262.7C53.9129 261.1 54.5129 260.1 55.0129 260.4ZM53.9129 232.3C54.4129 232 54.9129 232.4 54.9129 233.3C54.9129 234.2 54.4129 234.6 53.9129 234.3C53.3129 234 52.9129 233.5 52.9129 233.3C52.9129 233.1 53.3129 232.6 53.9129 232.3ZM54.5129 340.1C54.8129 340.4 54.9129 341.3 54.6129 342C54.3129 342.8 54.0129 342.5 54.0129 341.4C53.9129 340.3 54.2129 339.7 54.5129 340.1ZM55.1129 238.6C55.9129 239.4 55.9129 240.3 55.1129 242C54.1129 244.2 54.0129 244.1 54.0129 240.8C53.9129 238.2 54.2129 237.7 55.1129 238.6ZM54.5129 228.1C54.8129 228.4 54.9129 229.3 54.6129 230C54.3129 230.8 54.0129 230.5 54.0129 229.4C53.9129 228.3 54.2129 227.7 54.5129 228.1ZM57.1129 853.1C57.9129 853.4 57.6129 853.7 56.513 853.7C55.4129 853.8 54.8129 853.5 55.2129 853.2C55.513 852.9 56.4129 852.8 57.1129 853.1ZM67.6129 854.9C75.213 858.1 78.9129 860.2 78.9129 861.1C78.9129 861.6 78.3129 861.6 77.6129 861C77.013 860.5 74.513 859.4 72.1129 858.7C69.8129 858.1 67.9129 857.2 67.9129 856.8C67.9129 856.4 66.8129 855.6 65.4129 855C60.9129 852.9 62.8129 852.9 67.6129 854.9ZM81.1129 860.8C83.213 860.9 88.6129 863.6 86.9129 863.7C85.713 863.8 85.713 864 86.713 864.7C87.6129 865.2 87.013 865.5 85.013 865.6C83.3129 865.6 81.6129 865.2 81.3129 864.6C80.8129 863.9 81.3129 863.7 82.713 864C83.9129 864.4 85.213 864.2 85.513 863.7C85.8129 863.2 84.6129 862.8 83.013 862.8C81.3129 862.8 79.9129 862.3 79.9129 861.8C79.9129 861.2 80.513 860.8 81.1129 860.8ZM94.8129 864.9C95.113 864.9 96.3129 865.3 97.4129 865.7C99.213 866.4 99.113 866.5 96.8129 867C95.113 867.3 94.213 867 94.213 866.1C94.213 865.4 94.5129 864.8 94.8129 864.9ZM105.113 868.6C105.813 869.3 105.613 869.5 104.313 869.3C103.213 869.1 101.713 868.9 100.913 868.7C100.113 868.6 100.513 868.3 101.813 868.1C103.113 867.8 104.613 868.1 105.113 868.6ZM113.313 867.8C114.713 867.8 116.013 868.6 116.413 869.5C116.913 871 116.813 871.1 115.813 870C115.113 869.4 113.713 868.8 112.713 868.8C111.713 868.8 110.913 868.6 110.913 868.3C110.913 868 112.013 867.8 113.313 867.8ZM111.913 172.8C112.713 171.6 112.913 171.7 112.913 173.5C112.913 174.7 112.413 176 111.913 176.3C110.613 177.1 110.613 174.8 111.913 172.8ZM122.913 469.1C123.213 472.3 123.213 476.8 122.913 479.1C122.513 482.8 122.413 482.5 121.913 476.3C121.213 467.1 122.113 460.8 122.913 469.1ZM123.513 502.1C123.813 502.4 123.913 503.3 123.613 504C123.313 504.8 123.013 504.5 123.013 503.4C122.913 502.3 123.213 501.7 123.513 502.1ZM126.113 869.1C126.913 869.4 126.613 869.7 125.513 869.7C124.413 869.8 123.813 869.5 124.213 869.2C124.513 868.9 125.413 868.8 126.113 869.1ZM124.513 508.1C124.813 508.4 124.913 509.3 124.613 510C124.313 510.8 124.013 510.5 124.013 509.4C123.913 508.3 124.213 507.7 124.513 508.1ZM127.413 328.1C128.113 328.8 128.413 329.7 128.113 330.2C127.813 330.7 128.413 330.8 129.413 330.4C131.013 329.8 131.013 330 129.813 331.4C129.013 332.4 128.313 332.6 128.113 331.9C127.913 331.3 127.413 331 126.913 331.3C126.513 331.5 126.113 330.7 126.113 329.4C126.113 327.5 126.413 327.2 127.413 328.1ZM128.113 316.5C128.613 316.7 128.913 315.3 128.913 313.4C128.913 311.5 129.313 309.7 129.813 309.4C130.713 308.8 130.313 319.5 129.213 323.8L128.613 326.3L127.913 323.8C127.013 320.7 127.113 315.8 128.113 316.5ZM129.913 870.1C131.013 870 131.913 870.3 131.913 870.9C131.913 871.4 131.013 871.8 129.913 871.8C128.813 871.8 127.913 871.4 127.913 871C127.913 870.6 128.813 870.2 129.913 870.1ZM129.913 626.8C131.213 626.8 131.213 627.9 129.913 629.8C129.113 631 128.913 630.9 128.913 629C128.913 627.8 129.313 626.8 129.913 626.8ZM129.413 620.8C130.113 620.8 130.713 623.8 130.113 624.2C129.713 624.5 129.213 623.8 129.213 622.7C129.113 621.7 129.213 620.8 129.413 620.8ZM130.813 296.8C131.313 297.6 131.313 300.3 130.913 302.8L130.213 307.3L130.113 301.3C130.013 297.6 130.313 295.9 130.813 296.8ZM130.313 291.8C130.613 291.8 131.113 292.2 131.413 292.8C131.713 293.3 131.513 293.8 131.013 293.8C130.413 293.8 129.913 293.3 129.913 292.8C129.913 292.2 130.113 291.8 130.313 291.8ZM131.913 279.3C132.413 279.6 132.513 280.6 132.213 281.4C131.813 282.6 131.413 282.7 130.813 281.7C129.913 280.2 130.613 278.5 131.913 279.3ZM131.913 398.3C132.413 398 132.913 398.2 132.913 398.7C132.913 399.3 132.413 399.8 131.913 399.8C131.313 399.8 130.913 399.6 130.913 399.4C130.913 399.1 131.313 398.6 131.913 398.3ZM145.713 45.1C146.213 44.3 147.013 44.2 147.913 44.8C149.113 45.5 149.113 46 148.113 47C147.513 47.6 146.913 49 146.913 50.1C146.913 51.1 146.413 51.6 145.913 51.3C144.713 50.6 144.613 46.8 145.713 45.1ZM145.813 37.4C146.313 37.1 146.913 37.9 147.113 39.3C147.513 41 147.213 41.8 146.313 41.8C144.813 41.8 144.413 38.2 145.813 37.4ZM161.413 768.4C162.313 769.6 162.813 769.8 162.913 769C162.913 768.3 163.413 768 164.013 768.3C164.513 768.7 164.813 769.5 164.613 770.1C164.413 770.8 164.613 772.3 165.013 773.5C165.513 774.9 165.513 775.8 164.913 775.8C164.013 775.8 163.513 774.2 164.113 773.5C164.313 773.4 163.213 771.9 161.713 770.3C160.213 768.7 159.213 767.2 159.413 766.9C159.713 766.7 160.613 767.3 161.413 768.4ZM168.513 769.3C169.213 770.7 170.113 772.4 170.513 773C170.913 773.7 170.313 773.5 169.213 772.5C168.113 771.6 167.013 771 166.713 771.3C166.413 771.6 166.413 770.7 166.713 769.3L167.113 766.7L168.513 769.3ZM169.413 776.8C170.313 776.8 170.913 777.7 170.913 779C170.913 781.1 170.913 781.1 169.413 779.2C167.613 776.8 167.613 776.8 169.413 776.8ZM173.413 874C174.813 874 175.713 874.3 175.413 874.7C174.513 875.5 169.913 875.6 170.413 874.7C170.713 874.4 172.013 874 173.413 874ZM172.413 783.8C173.313 783.8 173.613 784.4 173.213 785.4C172.713 786.7 172.513 786.7 171.813 785.6C170.713 783.9 170.713 783.8 172.413 783.8ZM177.113 789.8C178.113 791 178.913 792.6 178.913 793.4C178.913 794.2 179.413 794.8 180.013 794.8C181.613 794.8 183.613 797.2 183.113 798.6C182.713 800 175.913 792.1 175.913 790C175.913 789.4 175.613 788.9 175.113 788.9C173.413 789.2 172.513 788.6 173.813 788.1C174.613 787.8 176.113 788.5 177.113 789.8ZM174.313 780.8C174.513 780.8 175.013 781.5 175.313 782.4C175.613 783.2 175.513 783.6 174.913 783.3C173.913 782.7 173.513 780.8 174.313 780.8ZM180.913 791.3C181.413 791 181.913 791.2 181.913 791.7C181.913 792.3 181.413 792.8 180.913 792.8C180.313 792.8 179.913 792.6 179.913 792.4C179.913 792.1 180.313 791.6 180.913 791.3ZM180.313 784.8C180.613 784.8 181.113 785.2 181.413 785.8C181.713 786.3 181.513 786.8 181.013 786.8C180.413 786.8 179.913 786.3 179.913 785.8C179.913 785.2 180.113 784.8 180.313 784.8ZM191.513 810.1C191.813 810.4 191.913 811.3 191.613 812C191.313 812.8 191.013 812.5 191.013 811.4C190.913 810.3 191.213 809.7 191.513 810.1ZM193.713 812.8C194.213 812.8 194.613 813.5 194.613 814.3C194.613 815.1 194.213 815.8 193.713 815.8C193.313 815.8 192.913 815.1 192.913 814.3C192.913 813.5 193.313 812.8 193.713 812.8ZM193.813 807.8C194.313 807.8 195.013 808.5 195.313 809.4C195.813 810.8 195.713 810.9 194.413 809.8C192.713 808.4 192.513 807.8 193.813 807.8ZM197.013 818.1C197.613 819 198.413 819.6 199.013 819.3C199.513 818.9 199.913 819.7 199.913 820.9C199.913 823 199.813 823 197.413 820.2C196.113 818.7 195.213 817.1 195.513 816.9C195.813 816.6 196.513 817.1 197.013 818.1ZM197.913 810.8C198.413 810.8 198.913 811.6 198.913 812.5C198.913 814 198.713 814.1 197.913 812.8C196.713 810.9 196.713 810.8 197.913 810.8ZM198.313 814.8C198.513 814.8 199.013 815.5 199.313 816.4C199.613 817.2 199.513 817.6 198.913 817.3C197.913 816.7 197.513 814.8 198.313 814.8ZM200.913 814.8C201.413 814.8 201.913 815.3 201.913 815.9C201.913 816.4 201.413 816.6 200.913 816.3C200.313 816 199.913 815.5 199.913 815.2C199.913 815 200.313 814.8 200.913 814.8ZM202.913 824.3C203.513 823.9 203.913 824.8 203.913 826.2C203.913 827.6 203.413 828.8 202.913 828.8C202.313 828.8 201.913 827.9 201.913 826.9C201.913 825.8 202.313 824.6 202.913 824.3ZM207.213 826.3C206.713 825.9 207.013 825.8 207.713 826.2C208.413 826.6 208.713 827.4 208.413 827.9C208.013 828.4 208.413 828.8 209.113 828.8C209.913 828.9 209.713 829.4 208.513 830.3C205.613 832.5 204.613 832.1 206.413 829.5C207.213 828.2 207.613 826.8 207.213 826.3ZM206.813 832.8C207.313 832.8 207.913 833.6 208.313 834.5C208.613 835.5 209.213 837 209.513 837.8C209.813 838.6 209.113 838.2 208.013 836.9C205.813 834.4 205.313 832.8 206.813 832.8ZM209.013 839.8C210.413 839.8 210.013 841.5 208.513 842.1C207.513 842.5 207.213 842.2 207.613 841.2C207.913 840.5 208.513 839.8 209.013 839.8ZM210.613 831.5C210.813 832.2 210.813 833.4 210.613 834C210.313 834.7 210.113 834.2 210.113 832.8C210.113 831.4 210.313 830.9 210.613 831.5Z" fill="#202020"/>
</svg>
