<svg width="227" height="164" viewBox="0 0 227 164" fill="none" xmlns="http://www.w3.org/2000/svg">
<path d="M0.51656 79.1598C0.596306 79.2405 0.699289 79.9631 0.775108 80.7658C0.850928 81.5686 1.16148 83.4423 1.44748 84.9148C1.73348 86.3873 2.0956 88.609 2.24913 89.8668C2.40266 91.1246 2.66324 92.3562 2.79542 92.6243C2.92761 92.8925 2.97932 93.2137 2.89841 93.347C2.73659 93.6136 3.73521 96.748 4.66006 98.7053C4.95042 99.3755 5.31908 100.394 5.44952 100.983C5.71054 102.134 6.52861 104.064 7.24444 105.138C7.48295 105.514 7.9058 106.398 8.169 107.149C8.90675 109.105 12.0385 113.187 12.8403 113.191C12.9739 113.192 13.08 113.353 13.0789 113.54C13.0766 113.968 20.4663 121.47 21.2129 121.795C21.8529 122.066 23.1786 124.025 23.334 124.936C23.516 125.873 23.309 129.535 23.0069 131.031C22.8977 131.459 22.7864 132.26 22.7302 132.768C22.6739 133.276 22.6182 133.704 22.5914 133.704C22.538 133.703 22.3728 134.585 22.2338 135.574C22.1503 136.188 21.2794 139.045 20.9544 139.846C20.6025 140.646 20.3785 142.517 20.2562 145.351C20.0755 149.094 19.0607 153.849 17.8972 156.464C17.302 157.771 17.4049 158.52 18.3315 160.157C19.47 162.142 21.2311 162.686 23.0542 161.653C23.5368 161.389 24.3402 161.099 24.8486 160.995C27.8987 160.423 31.2745 158.943 34.8151 156.636C35.6736 156.052 36.4513 155.575 36.5048 155.575C36.5582 155.576 37.6578 154.886 38.9723 154.011C40.2866 153.162 42.5654 151.891 44.0124 151.204C45.4862 150.516 47.2281 149.67 47.8982 149.326C49.3454 148.612 51.7022 147.742 52.9866 147.481C53.8963 147.299 57.9053 147.348 59.5346 147.544C60.4428 147.656 64.5576 147.892 70.7572 148.14C75.2733 148.325 76.4488 148.411 81.1771 148.892C84.1958 149.176 85.3977 149.343 89.3225 150.113C93.1673 150.856 94.4758 151.077 95.8115 151.218C96.5327 151.302 98.5092 151.553 100.219 151.777C102.435 152.083 104.76 152.176 108.289 152.115C113.047 152.034 113.555 151.983 114.439 151.64C114.653 151.561 115.562 151.432 116.445 151.357C117.327 151.308 118.424 151.073 118.853 150.862C120.783 149.909 122.524 149.25 122.977 149.333C123.164 149.361 123.245 149.281 123.166 149.12C123.007 148.878 123.971 148.402 124.399 148.512C124.532 148.539 124.613 148.433 124.614 148.299C124.615 147.978 125.74 147.503 126.784 147.375C127.185 147.323 128.015 147.034 128.658 146.689C129.302 146.345 130.051 146.109 130.291 146.163C130.559 146.192 130.773 146.086 130.774 145.952C130.775 145.792 131.311 145.42 131.981 145.103C132.651 144.786 133.187 144.441 133.188 144.307C133.189 144.173 133.377 144.067 133.617 144.069C133.858 144.07 134.233 143.858 134.448 143.592C134.663 143.352 134.744 143.299 134.663 143.486C134.528 143.726 134.876 143.648 135.573 143.277C136.189 142.986 136.619 142.614 136.539 142.507C136.46 142.373 136.674 142.32 136.994 142.402C137.448 142.485 137.501 142.458 137.262 142.27C136.969 142.081 137.023 142.001 137.451 141.87C137.826 141.792 137.959 141.846 137.851 142.032C137.77 142.219 137.958 142.06 138.308 141.687C138.657 141.288 138.952 141.156 139.004 141.317C139.083 141.558 139.351 141.532 139.94 141.242C140.396 141.003 141.119 140.74 141.601 140.609C142.056 140.504 143.635 140.112 145.107 139.745C148.801 138.803 149.923 138.835 164.776 140.2C167.288 140.427 172.366 140.402 174.88 140.175C178.463 139.846 179.533 139.718 181.86 139.33C183.252 139.097 184.617 138.73 184.858 138.517C185.127 138.305 185.341 138.199 185.341 138.333C185.34 138.44 185.527 138.387 185.742 138.201C185.957 138.042 186.225 137.963 186.358 138.044C186.491 138.125 186.946 138.02 187.375 137.836C187.803 137.624 188.393 137.413 188.687 137.361C188.981 137.309 189.276 137.204 189.356 137.124C189.437 137.018 189.785 136.886 190.16 136.861C190.534 136.81 190.909 136.651 190.99 136.518C191.098 136.412 191.499 136.253 191.927 136.229C193.131 136.102 193.907 135.812 193.909 135.464C193.91 135.304 194.043 135.358 194.176 135.573C194.335 135.841 194.442 135.868 194.443 135.627C194.444 135.467 194.765 135.308 195.139 135.31C195.54 135.313 196.023 135.101 196.238 134.835C196.453 134.595 196.56 134.542 196.452 134.729C196.317 134.996 196.451 135.023 197.039 134.893C198.03 134.657 198.217 134.525 198.059 134.256C197.979 134.122 198.194 133.936 198.515 133.831C198.863 133.726 199.157 133.781 199.21 133.942C199.262 134.156 199.663 134.078 200.387 133.708C200.976 133.417 201.406 133.098 201.326 133.044C201.246 132.963 200.845 133.095 200.442 133.36C199.879 133.758 199.745 133.757 199.854 133.464C199.908 133.25 200.739 132.8 201.703 132.484C203.604 131.826 203.872 131.774 203.282 132.145C203.014 132.331 202.987 132.411 203.227 132.412C203.414 132.414 203.629 132.227 203.71 132.014C203.818 131.801 204.087 131.615 204.327 131.616C204.595 131.618 205.023 131.433 205.319 131.194C205.802 130.822 205.802 130.795 205.212 131.086C204.248 131.535 204.196 131.188 205.134 130.711C206.072 130.235 206.34 130.183 206.097 130.556C206.016 130.689 206.552 130.452 207.303 129.974C208.027 129.524 208.591 129.099 208.538 129.018C208.458 128.964 208.083 129.149 207.654 129.415C205.695 130.768 205.723 130.474 207.709 128.987C208.515 128.376 209.185 127.952 209.185 128.032C209.184 128.112 209.425 128.06 209.72 127.901C210.015 127.742 210.177 127.476 210.097 127.315C209.965 127.127 210.045 127.101 210.231 127.236C210.418 127.344 210.819 127.212 211.142 126.893C211.464 126.574 211.84 126.335 212 126.336C212.134 126.31 212.296 126.07 212.297 125.749C212.326 125.428 212.461 125.108 212.596 125.002C213.025 124.71 214.024 122.817 213.892 122.549C213.786 122.414 213.973 122.308 214.267 122.31C214.588 122.312 214.829 122.179 214.83 122.045C214.832 121.725 215.829 120.259 216.447 119.647C216.823 119.275 217.174 118.608 217.77 117.167C217.905 116.847 218.338 115.86 218.744 114.98C219.15 114.099 219.583 113.139 219.691 112.845C219.826 112.552 220.287 111.458 220.747 110.444C221.207 109.404 221.886 107.375 222.268 105.906C222.677 104.437 223.277 102.274 223.631 101.099C223.984 99.9246 224.367 98.4291 224.477 97.7611C224.588 97.0931 224.726 96.2648 224.781 95.8906C224.837 95.5165 224.947 94.9288 225.003 94.5547C225.058 94.1805 225.224 93.1919 225.416 92.3372C225.855 90.2 225.999 88.302 226.101 84.2642C226.165 82.339 226.294 78.1944 226.418 75.0393C226.609 69.3974 226.393 64.9835 225.914 64.6333C225.541 64.3905 225.307 63.2125 225.549 62.8929C225.953 62.387 226.041 60.8898 225.694 60.7542C225.508 60.673 225.349 60.4047 225.377 60.1374C225.378 59.8699 225.305 58.5591 225.205 57.2481C225.106 55.9104 225.009 54.118 224.987 53.2353C224.965 52.3527 224.81 51.3623 224.624 51.0404C224.227 50.3161 224.229 50.0754 224.602 50.2914C224.895 50.4802 224.742 49.0352 224.322 47.7492C224.217 47.3742 223.928 46.3832 223.665 45.5527C223.429 44.7223 223.06 43.8913 222.873 43.7298C222.66 43.5682 222.582 43.2468 222.636 43.0599C222.718 42.8464 222.457 41.7485 222.062 40.5963C221.667 39.4442 221.274 38.0781 221.143 37.5693C221.039 37.0606 220.882 36.3377 220.804 35.9628C220.569 34.9185 218.717 31.405 218.476 31.5642C218.369 31.6438 218.262 31.5095 218.264 31.2421C218.265 31.0014 217.974 30.5184 217.575 30.1686C217.202 29.8189 216.99 29.5236 217.07 29.524C217.525 29.5265 211.286 21.7636 208.973 19.4778C207.511 18.0257 206.315 16.7622 206.315 16.7087C206.317 16.361 205.438 15.7946 205.117 15.9266C204.902 16.0057 204.743 15.9246 204.797 15.7912C204.852 15.524 202.697 13.6937 201.125 12.6422C200.646 12.3454 198.007 11.0206 195.741 9.99199C194.674 9.50481 194.273 9.52937 195.126 10.0154L195.792 10.4202L194.991 10.2286C194.537 10.1459 193.71 9.84723 193.124 9.57661C192.537 9.30598 191.817 9.06137 191.523 9.05977C190.988 9.03012 190.988 9.00338 191.497 8.81894C191.979 8.63435 191.926 8.58057 191.126 8.30878C190.086 7.92871 189.391 7.89819 190.297 8.27754C190.644 8.41314 190.884 8.60165 190.803 8.6547C190.642 8.84103 188.935 8.24338 188.589 7.89383C188.403 7.70561 188.483 7.67931 188.803 7.78802C189.097 7.89659 189.231 7.87058 189.125 7.70954C189.045 7.57539 188.565 7.4658 188.11 7.51681C187.522 7.54036 187.282 7.45882 187.336 7.21843C187.364 7.03137 187.258 6.89707 187.071 6.9228C186.883 6.94852 186.27 6.75798 185.683 6.5141C185.123 6.24361 184.483 6.10641 184.295 6.18562C184.081 6.26469 183.921 6.21033 183.922 6.04987C183.922 5.88941 183.763 5.80831 183.548 5.88738C183.334 5.96645 183.12 5.9118 183.041 5.72416C182.989 5.56341 182.508 5.42708 181.974 5.45092C181.439 5.47475 180.905 5.36488 180.826 5.23072C180.746 5.09657 180.907 5.0707 181.173 5.15238C181.574 5.28828 181.574 5.26154 181.254 5.04585C180.988 4.83045 180.774 4.82929 180.533 5.04192C180.264 5.25442 180.184 5.20049 180.186 4.90632C180.188 4.47843 179.014 4.04415 178.585 4.30925C178.424 4.41535 178.318 4.36129 178.318 4.25431C178.32 4.04037 177.412 3.87497 175.835 3.81291C175.595 3.78486 175.381 3.67672 175.382 3.56975C175.383 3.46278 175.036 3.35392 174.581 3.35145C174.154 3.34912 173.299 3.15727 172.713 2.91339C172.126 2.6695 171.405 2.53186 171.111 2.61049C170.843 2.68927 170.576 2.63433 170.523 2.50032C170.445 2.23246 166.814 1.49063 164.49 1.2373C163.501 1.15169 163.1 1.203 163.099 1.41694C163.098 1.65763 162.884 1.60298 162.431 1.30634C162.005 1.03658 161.765 0.981789 161.764 1.16899C161.763 1.32945 161.575 1.40866 161.362 1.32727C161.149 1.21913 160.908 1.27131 160.827 1.40459C160.557 1.85777 160.077 1.6947 160.267 1.24108C160.402 0.920891 160.322 0.840226 160.001 0.972198C159.787 1.05126 159.519 1.13004 159.465 1.12975C159.385 1.12931 159.385 1.23629 159.464 1.37044C159.544 1.47784 159.303 1.53002 158.956 1.4479C158.582 1.39238 158.289 1.25707 158.289 1.1501C158.29 1.04313 157.889 0.960717 157.408 0.931358C156.714 0.874093 156.66 0.927289 157.087 1.11682C157.54 1.30649 157.486 1.35968 156.738 1.35561C156.203 1.37945 155.91 1.27088 156.018 1.111C156.099 0.95098 156.046 0.843717 155.912 0.842991C155.752 0.842119 155.617 0.948364 155.617 1.08208C155.616 1.18905 155.322 1.24094 154.975 1.18556C154.628 1.10345 154.253 1.18164 154.172 1.34166C154.064 1.4748 153.823 1.55372 153.61 1.44558C153.397 1.36419 153.209 1.41666 153.209 1.55037C153.208 1.71083 152.699 1.9755 152.056 2.13247C151.44 2.31633 150.771 2.60687 150.583 2.76631C150.395 2.92575 149.859 3.08331 149.378 3.13418C148.923 3.18519 148.415 3.34289 148.28 3.47588C147.904 3.84825 147.049 3.81685 147.051 3.41571C147.052 3.25525 147.132 3.2022 147.212 3.28286C147.319 3.36367 147.613 3.33853 147.908 3.17967C148.203 3.02081 148.391 2.83463 148.311 2.7807C148.125 2.59248 140.761 5.03962 140.679 5.33336C140.625 5.46679 140.331 5.57216 140.01 5.57042C139.689 5.56867 138.082 6.12156 136.475 6.78141C134.841 7.44112 133.957 7.89096 134.465 7.81349L135.401 7.65812L134.41 8.16086C133.873 8.45213 133.15 8.74238 132.775 8.84732C132.401 8.92551 131.892 9.08321 131.624 9.18873C131.303 9.29395 131.223 9.26678 131.358 9.05356C131.493 8.84034 131.413 8.78642 131.145 8.89194C130.904 8.97086 130.716 9.15704 130.715 9.29076C130.714 9.42447 130.446 9.52999 130.099 9.5281C129.751 9.52621 128.787 9.94887 127.929 10.4523C127.071 10.9558 126.267 11.3793 126.16 11.3788C126.026 11.378 125.704 11.6437 125.435 11.9899C125.166 12.3361 124.334 12.9467 123.557 13.3436C122.779 13.7673 122.215 14.2189 122.295 14.3263C122.374 14.4605 122.24 14.5667 122.026 14.5655C121.813 14.5644 121.33 14.8292 120.981 15.1482C120.631 15.494 120.068 15.9456 119.719 16.1576C119.37 16.3697 118.86 16.7681 118.592 17.034C118.323 17.3 117.948 17.4317 117.788 17.3239C117.602 17.1891 117.575 17.2425 117.707 17.4839C117.866 17.7522 117.812 17.8054 117.492 17.6699C117.226 17.5615 116.958 17.667 116.796 17.9603C116.634 18.2001 116.5 18.2796 116.501 18.1459C116.502 17.9587 116.422 17.9583 116.287 18.1447C116.179 18.2779 115.67 18.6228 115.161 18.8607C114.651 19.1254 113.445 19.8142 112.479 20.424C109.556 22.2534 108.672 22.6498 104.174 24.0695C102.192 24.7273 100.694 24.9599 96.6833 25.2857C96.1753 25.3097 94.7848 25.4359 93.6082 25.5365C92.4316 25.637 91.0412 25.7364 90.5332 25.7604C90.0253 25.7844 89.4637 25.8348 89.3299 25.8609C89.1693 25.9135 88.6078 25.9372 88.0466 25.9341C87.512 25.9312 87.0571 26.0357 87.0565 26.1427C87.0559 26.2497 86.6281 26.2741 86.0939 26.2177C85.5864 26.1614 85.2119 26.2129 85.2913 26.347C85.3708 26.4812 84.6754 26.5576 83.7669 26.526C82.8583 26.4943 81.949 26.5963 81.7343 26.7556C81.4927 26.9415 81.3058 26.9137 81.0671 26.5648C80.8546 26.3229 80.6146 26.2146 80.4803 26.3476C80.3459 26.4806 79.0087 26.6338 77.5382 26.706C76.0412 26.7514 74.7308 26.878 74.5968 26.9575C74.4627 27.037 73.4463 27.1652 72.3501 27.2394C71.2538 27.3137 70.1038 27.4412 69.8095 27.4931C69.5152 27.545 68.6058 27.6737 67.8035 27.7496C65.4766 28.0311 64.8343 28.1881 65.0199 28.4566C65.0994 28.5907 64.8315 28.6962 64.4306 28.694C64.0297 28.6919 63.3342 28.7951 62.8791 28.9263C62.1027 29.1628 59.6954 29.4974 54.0256 30.1351C53.2768 30.2113 50.9493 30.5998 48.8088 31.016C46.6683 31.4323 44.0199 31.8458 42.9235 31.9468C40.41 32.1471 40.3297 32.1734 39.0449 32.5141C38.456 32.6714 37.5463 32.8536 37.038 32.9311C35.9144 33.1122 35.1114 33.3218 31.4174 34.3447C29.8649 34.7642 28.2588 35.2101 27.8307 35.288C27.4292 35.3928 26.5455 35.7089 25.9023 36.0263C25.2325 36.3169 24.6167 36.5007 24.5371 36.3933C24.4574 36.3126 24.243 36.4184 24.0816 36.6048C23.6779 37.1107 19.8176 39.2292 20.0604 38.8027C20.1682 38.6428 19.9806 38.7487 19.6579 39.0946C19.3355 39.4138 18.9601 39.6257 18.8536 39.5449C18.7203 39.4907 18.5591 39.6503 18.4773 39.944C18.3955 40.2378 18.1269 40.477 17.8596 40.4755C17.3251 40.4726 15.9566 41.4547 14.7202 42.7317C14.2365 43.2105 13.4031 44.0885 12.8387 44.6738C12.2475 45.2589 11.5203 46.2712 11.1961 46.9113C10.2777 48.6714 9.84691 49.2574 9.49945 49.2556C9.33909 49.2547 9.12324 49.6279 9.01385 50.082C8.90447 50.536 8.47276 51.2825 8.06924 51.7617C7.63913 52.214 7.01871 53.2536 6.64017 54.0539C6.28835 54.8543 5.63933 56.2415 5.23363 57.1218C4.82792 58.0021 4.39475 59.016 4.25908 59.3897C4.15014 59.7635 3.79745 60.7244 3.47236 61.5249C2.41574 64.1401 1.76149 66.49 1.456 68.6011C1.37349 69.0286 1.18015 70.1775 1.01455 71.1394C0.683786 72.9829 0.303904 78.9447 0.51656 79.1598ZM7.74531 76.9259C7.96029 76.7131 8.20666 75.6447 8.32069 74.3349C8.52189 71.7418 9.37268 67.6546 9.99541 66.1871C10.239 65.6268 10.673 64.4524 10.9718 63.5715C11.4335 62.2368 12.6781 59.4622 13.7045 57.4888C13.9206 57.0621 13.817 56.4464 13.5746 56.7927C13.3587 57.166 12.0071 59.9667 11.7631 60.6072C11.6004 61.0343 11.4118 61.3007 11.3319 61.2468C11.1459 61.0585 12.2565 58.3367 12.7405 57.8045C12.9555 57.5917 13.1176 57.2716 13.1183 57.1379C13.1199 56.8437 14.2001 54.8171 14.4417 54.6312C14.8978 54.3127 15.8434 52.4458 15.7381 52.1511C15.6589 51.9634 15.8485 51.5098 16.1178 51.1369C16.387 50.7907 16.6285 50.6048 16.6278 50.7385C16.6271 50.8722 16.4114 51.2187 16.1425 51.5114C15.7927 51.9374 15.7655 52.0175 16.0869 51.9123C16.301 51.8599 16.6236 51.514 16.8126 51.1674C16.9747 50.8473 17.2438 50.5011 17.3781 50.3949C17.5121 50.3154 17.8621 49.8626 18.1318 49.4095C19.3453 47.437 21.3324 45.7362 23.959 44.4133C24.4951 44.122 24.9511 43.8303 24.9517 43.7234C24.953 43.4827 25.9975 43.0872 27.764 42.6422C28.4865 42.4856 29.3434 42.1961 29.6383 42.0372C29.9331 41.8784 30.3615 41.747 30.5755 41.7214C30.7894 41.6958 31.5125 41.4323 32.1824 41.115C33.1738 40.6658 33.2544 40.586 32.5857 40.6893C32.1309 40.7671 32.4526 40.5816 33.2559 40.3186C34.0593 40.0288 34.7549 39.8988 34.8075 40.0596C34.9391 40.4347 35.3939 40.3569 35.3425 39.9822C35.2901 39.7947 35.5584 39.609 35.9327 39.5843C36.521 39.534 36.5477 39.5341 36.0655 39.7455C35.5832 39.9568 35.5829 40.0103 36.0106 40.0126C36.2777 40.0408 36.546 39.8551 36.6542 39.615C36.7628 39.2946 36.8699 39.2685 37.0021 39.5366C37.1611 39.7782 37.3216 39.7523 37.6977 39.4067C38.0203 39.0608 38.395 38.9826 38.9824 39.0927C39.7833 39.2576 42.5381 38.9249 43.4222 38.5553C43.6364 38.4762 44.0376 38.4249 44.3048 38.4531C45.1327 38.5646 47.5417 37.9358 47.8646 37.5364C48.1337 37.1902 48.1872 37.1905 48.3191 37.5121C48.4245 37.7801 48.7181 37.862 49.2265 37.7578L49.9757 37.6014L49.3084 37.4373C48.7746 37.3007 48.9621 37.2214 50.1928 37.0142C51.0222 36.8582 51.7172 36.8353 51.7167 36.9422C51.7161 37.0492 51.3945 37.2079 50.9665 37.2591C50.5653 37.3104 51.1533 37.3136 52.2762 37.2662C55.2171 37.1217 57.0897 36.811 57.3593 36.3846C57.5211 36.118 57.6015 36.0917 57.6002 36.3324C57.5991 36.5196 57.7319 36.6808 57.8923 36.6816C58.0259 36.6824 58.0801 36.5489 57.9741 36.3879C57.8683 36.1734 57.9754 36.1472 58.3755 36.2831C58.6957 36.3918 58.9365 36.3396 58.9374 36.1792C58.9383 36.0187 59.1528 35.8862 59.3934 35.8875C59.7943 35.8897 59.8207 35.9433 59.4721 36.1554C59.1235 36.3674 59.1232 36.4209 59.5241 36.4231C59.7646 36.4244 60.0059 36.292 60.0602 36.1318C60.1146 35.9716 61.1051 35.6828 62.2824 35.4486C63.5397 35.2414 64.5305 34.8992 64.7725 34.633C64.9609 34.3934 65.0414 34.3403 64.9333 34.5537C64.6902 35.0337 67.1501 34.8599 72.0454 34.111C73.8912 33.8268 76.2715 33.5456 77.3141 33.5245C78.5705 33.4778 79.2929 33.348 79.4011 33.1079C79.4554 32.9478 79.6701 32.7885 79.8572 32.7895C80.0978 32.7908 80.0973 32.871 79.8022 33.0834C79.4533 33.3489 79.4533 33.3489 79.8013 33.2438C80.0156 33.1648 80.4441 33.0066 80.7119 32.9011C81.0868 32.7694 81.1669 32.7966 81.0321 33.0098C80.8973 33.2231 81.0303 33.3308 81.3778 33.3326C81.6985 33.3344 81.9398 33.202 81.9406 33.0415C81.9415 32.8811 82.129 32.8018 82.3423 32.91C82.5557 32.9914 82.743 32.9389 82.7438 32.8052C82.7446 32.6447 83.0125 32.5392 83.3332 32.541C83.7609 32.5433 83.8406 32.6239 83.5992 32.7831C83.3579 32.9155 83.5446 32.9968 84.1324 33.0267C84.9341 33.0578 84.9611 33.0045 84.5352 32.6812C84.1092 32.3847 84.1628 32.3583 84.9376 32.416C85.4184 32.4721 85.9794 32.5286 86.1665 32.5296C86.3534 32.5574 86.433 32.6648 86.352 32.8248C86.2711 32.9581 86.3238 33.0921 86.4574 33.0928C86.6178 33.0937 86.7524 32.9072 86.7537 32.6665C86.7555 32.3456 86.9965 32.2667 87.9049 32.3251C88.5461 32.3821 89.2147 32.3055 89.4292 32.1729C89.6974 32.0139 89.7506 32.0677 89.6152 32.3879C89.4796 32.7348 89.586 32.8424 90.1741 32.8188C90.575 32.821 90.7358 32.7417 90.5492 32.6604C89.8557 32.3892 90.2847 32.1509 91.5677 32.1311C92.3162 32.1084 92.8503 32.1915 92.7963 32.2982C92.7155 32.4048 92.9021 32.5128 93.1961 32.5144C93.4899 32.5427 93.6507 32.4633 93.5714 32.3024C93.3063 31.8998 95.0436 31.9093 95.3085 32.3386C95.3881 32.446 95.7357 32.4212 96.1108 32.2628C97.1822 31.8407 97.4229 31.8153 100.738 31.7263C102.449 31.6821 104.026 31.5302 104.214 31.3975C104.375 31.2379 104.723 31.1329 104.937 31.134C105.498 31.1371 108.711 30.272 109.3 29.9543C109.568 29.822 109.997 29.6639 110.291 29.612C111.656 29.352 117.124 26.4399 119.271 24.7934C120.586 23.7843 122.25 22.6166 122.947 22.1925C123.644 21.7684 124.128 21.3164 124.075 21.2091C123.995 21.1017 124.103 21.0756 124.316 21.1302C124.503 21.2115 124.958 21.0535 125.307 20.7345C125.656 20.4422 126.032 20.2035 126.192 20.2044C126.326 20.2051 126.3 20.0178 126.114 19.8028C125.928 19.5611 125.85 19.2932 125.957 19.1868C126.065 19.0805 126.304 19.2155 126.49 19.4572C126.782 19.8867 126.996 19.8076 128.687 18.5866C130.833 17.0204 132.71 16.0143 136.406 14.51C137.88 13.9029 139.14 13.2412 139.221 13.0277C139.303 12.7339 139.249 12.7069 138.927 12.9726C138.605 13.2383 138.525 13.2378 138.527 12.9169C138.528 12.703 138.635 12.5966 138.768 12.6775C138.875 12.7583 138.982 12.7054 138.983 12.545C138.984 12.3845 139.171 12.332 139.385 12.4134C139.598 12.5216 139.785 12.4691 139.786 12.3621C139.787 12.2284 140.055 12.0962 140.375 12.0712C140.723 12.0463 141.338 11.9694 141.793 11.8917C142.569 11.7354 142.569 11.7354 141.739 11.9983C141.257 12.1562 140.801 12.3944 140.72 12.5277C140.639 12.6877 140.318 12.7929 140.024 12.7913C139.73 12.7897 139.569 12.9226 139.648 13.0567C139.754 13.2445 139.995 13.2191 140.37 13.0339C140.692 12.8752 141.736 12.453 142.7 12.1373C143.664 11.8216 145.298 11.2154 146.343 10.8199C148.244 10.1082 149.288 9.76616 152.287 8.92666C153.25 8.6912 153.974 8.32073 153.975 8.13352C153.976 7.94632 154.11 7.78659 154.271 7.78746C154.404 7.78819 154.457 7.89545 154.376 8.05547C154.295 8.18875 154.348 8.32276 154.482 8.32349C154.695 8.32465 158.521 7.73034 159.859 7.47018C160.527 7.34009 167.607 7.96695 167.606 8.15415C167.605 8.28787 167.899 8.34295 168.247 8.23787C168.622 8.15968 169.156 8.24281 169.529 8.48553C169.848 8.70122 170.622 8.89264 171.21 8.92258C171.798 8.95252 172.332 9.08914 172.411 9.25003C172.517 9.38433 172.784 9.43927 173.025 9.33361C173.293 9.22809 173.48 9.30933 173.479 9.49654C173.478 9.71048 173.718 9.76527 174.173 9.66077C174.601 9.55612 174.788 9.58389 174.68 9.74376C174.599 9.93053 174.679 9.95771 174.92 9.87879C175.161 9.79986 175.348 9.85437 175.347 9.98808C175.346 10.1485 175.799 10.365 176.333 10.4748C176.894 10.5849 178.975 11.238 180.976 11.971C183.777 12.949 184.711 13.168 184.953 12.9554C185.222 12.7162 185.248 12.7163 185.114 12.9563C185.006 13.1429 184.978 13.3032 185.031 13.3035C185.085 13.3038 186.152 13.684 187.379 14.1453C188.606 14.5799 190.874 15.3945 192.421 15.9378C195.942 17.1604 198.847 18.6739 200.017 19.9105C200.149 20.0716 200.762 20.5564 201.347 21.0142C202.785 22.0918 206.665 26.071 208.125 27.9777C208.788 28.8371 209.638 29.9115 210.009 30.3949C212.107 32.9202 215.227 39.2487 216.064 42.623C216.378 43.8817 216.928 45.837 217.269 47.0155C218.687 51.6499 219.228 55.504 219.381 61.7629C219.638 73.4781 219.225 85.4571 218.338 91.3092C218.143 92.7523 217.376 96.198 217.188 96.4645C217.107 96.5977 216.998 96.9983 216.943 97.2922C216.914 97.613 216.614 98.7613 216.287 99.856C215.96 100.951 215.578 102.393 215.414 103.061C215.25 103.728 215.033 104.369 214.899 104.529C214.764 104.662 214.655 105.009 214.654 105.276C214.652 105.544 214.163 107.012 213.567 108.479C211.644 113.203 210.806 114.91 209.946 115.868C209.623 116.241 209.138 116.853 208.869 117.279C208.114 118.506 203.624 123.322 203.25 123.32C203.17 123.319 202.124 123.902 200.944 124.618C198.826 125.917 195.556 127.557 195.128 127.555C194.995 127.554 193.923 127.976 192.718 128.477C189.315 129.93 181.309 132.534 179.865 132.66C179.143 132.736 177.405 132.914 176.014 133.067C173.527 133.348 167.86 133.397 165.723 133.171C165.136 133.115 163.56 132.972 162.197 132.858C160.835 132.744 158.323 132.489 156.587 132.293C152.474 131.842 147.476 131.815 145.282 132.204C140.519 133.115 132.136 136.251 127.739 138.795C124.307 140.782 119.135 143.241 117.395 143.686C115.361 144.237 114.933 144.315 112.177 144.754C110.572 145.013 101.03 145.095 100.63 144.879C100.524 144.798 99.6158 144.659 98.574 144.547C96.8109 144.377 94.7815 144.018 90.5631 143.166C85.17 142.067 77.4763 141.33 69.1914 141.178C65.3697 141.103 61.5216 140.949 60.6401 140.864C59.7585 140.779 58.022 140.636 56.7929 140.549C55.5372 140.462 53.9612 140.293 53.2668 140.182C51.8249 139.933 48.8535 140.773 47.217 141.887C46.7073 142.232 46.1716 142.443 46.0384 142.362C45.9052 142.281 45.7978 142.361 45.797 142.521C45.7961 142.682 44.8577 143.212 43.7057 143.714C42.5804 144.216 41.4549 144.744 41.2404 144.877C41.0257 145.036 40.3555 145.407 39.7659 145.698C35.584 147.948 31.6419 150.361 30.6745 151.318C30.4057 151.584 30.0571 151.796 29.87 151.795C29.6829 151.794 29.3074 152.033 29.0386 152.326C28.7697 152.618 28.4477 152.857 28.314 152.857C28.1804 152.856 27.6444 153.12 27.0812 153.465C25.1503 154.658 25.097 154.631 25.2935 152.894C25.5174 151.049 25.926 149.634 26.2467 149.636C26.3804 149.637 26.4327 149.851 26.3512 150.091C26.2152 150.518 26.2419 150.519 26.5115 150.092C26.7002 149.799 26.783 149.318 26.7049 148.943C26.6535 148.568 26.7079 148.382 26.8677 148.489C27.0275 148.597 27.0821 148.384 27.0044 147.929C26.9263 147.554 26.9815 147.233 27.1151 147.234C27.2755 147.235 27.3299 147.048 27.2242 146.833C27.1452 146.619 27.1997 146.432 27.3333 146.433C27.4937 146.434 27.6019 146.193 27.6033 145.926C27.6049 145.632 27.7403 145.312 27.8744 145.232C28.0353 145.126 28.0898 144.939 28.0103 144.805C27.9042 144.671 28.0918 144.565 28.3858 144.566C28.8402 144.569 28.948 144.409 28.9516 143.74C28.9541 143.286 29.0641 142.725 29.1991 142.458C29.3341 142.218 29.4982 141.524 29.5547 140.962C29.6114 140.374 29.8556 139.707 30.0976 139.441C30.3663 139.175 30.5829 138.668 30.5848 138.32C30.5868 137.946 30.6956 137.599 30.803 137.519C30.937 137.44 31.047 136.879 31.0769 136.29C31.107 135.675 31.2172 135.061 31.2982 134.928C31.5948 134.448 31.6587 132.523 31.3951 131.853C31.211 131.29 31.2383 131.183 31.505 131.292C32.0385 131.482 31.9073 126.132 31.3302 124.123C30.7269 122.007 28.3379 118.972 25.0921 116.2C24.1343 115.392 23.2568 114.559 23.1509 114.371C23.0183 114.183 22.8317 114.102 22.6709 114.181C22.5366 114.287 22.43 114.233 22.4306 114.126C22.4313 113.992 21.4485 112.864 20.2259 111.6C18.0732 109.342 15.9485 106.843 15.8967 106.549C15.8716 106.255 14.8651 104.564 14.4665 104.134C13.8818 103.516 13.2219 101.988 13.0145 100.81C12.9105 100.275 12.6725 99.8187 12.4854 99.8176C12.1646 99.8159 11.927 99.2797 11.6661 98.1016C11.6141 97.8339 11.246 96.7086 10.878 95.5834C10.0629 93.0918 8.99024 88.8337 8.78559 87.1477C8.68246 86.4518 8.49798 85.9694 8.39064 86.049C8.25657 86.1285 8.14995 86.0745 8.15082 85.914C8.15155 85.7803 8.25947 85.5937 8.39355 85.5142C8.50089 85.4345 8.50467 84.7392 8.34853 83.9628C8.21911 83.1865 8.11787 82.143 8.12049 81.6616C8.14983 81.1804 8.07154 80.8323 7.96419 80.9119C7.85699 80.9648 7.80775 80.189 7.86688 79.1463C7.92717 77.8897 7.87677 77.3278 7.68895 77.4605C7.28673 77.699 7.31535 77.3515 7.74531 76.9259ZM7.84614 73.1288C7.92589 73.2095 7.95131 73.4503 7.87011 73.6371C7.78876 73.8506 7.70902 73.7699 7.71062 73.4757C7.68549 73.1814 7.76654 73.0214 7.84614 73.1288ZM8.97192 67.6257C9.02436 67.8132 9.02261 68.1341 8.96828 68.2943C8.88708 68.481 8.83436 68.347 8.83639 67.9726C8.83843 67.5982 8.89261 67.4648 8.97192 67.6257ZM9.79061 64.5279C10.0592 64.2886 10.1392 64.3158 10.137 64.717C10.1356 64.9844 10.0269 65.3047 9.89257 65.4377C9.75806 65.5974 9.59581 65.9442 9.51403 66.238C9.43225 66.5317 9.40654 66.3444 9.43617 65.8096C9.43908 65.2748 9.62937 64.6875 9.79061 64.5279ZM10.6853 62.206C10.8478 61.8057 11.0363 61.5393 11.0894 61.6199C11.1691 61.7005 11.0597 62.1546 10.8432 62.6615C10.3833 63.6753 10.2782 63.327 10.6853 62.206ZM46.1527 37.7678C46.3661 37.8492 46.2855 37.929 45.9915 37.9274C45.6973 37.9525 45.5374 37.8714 45.6448 37.7918C45.7254 37.712 45.9661 37.6865 46.1527 37.7678ZM48.8313 36.7126C49.0446 36.794 48.964 36.8738 48.67 36.8722C48.3759 36.8973 48.216 36.8162 48.3233 36.7366C48.4039 36.6568 48.6446 36.6314 48.8313 36.7126ZM54.3917 36.5289C54.5258 36.4494 54.6591 36.5036 54.6584 36.6373C54.6575 36.7978 54.5232 36.9308 54.3895 36.93C54.2292 36.9292 54.1226 36.8751 54.1228 36.8216C54.1233 36.7414 54.2309 36.6082 54.3917 36.5289ZM55.7818 36.483C55.9952 36.5644 55.9146 36.6441 55.6206 36.6425C55.3264 36.6677 55.1665 36.5866 55.2739 36.5069C55.3545 36.4271 55.5952 36.4017 55.7818 36.483ZM90.5034 31.2428C90.6371 31.2435 90.77 31.3779 90.7691 31.5384C90.7684 31.6721 90.6344 31.7249 90.5012 31.6439C90.3413 31.5628 90.2351 31.4285 90.2356 31.3483C90.2359 31.2948 90.3431 31.2419 90.5034 31.2428ZM90.3249 29.6639C90.3514 29.7175 90.5637 29.9861 90.7494 30.2546C91.0679 30.6575 91.0676 30.7109 90.6676 30.5483C90.4275 30.4668 90.2418 30.1983 90.2431 29.9576C90.2443 29.7437 90.2717 29.6101 90.3249 29.6639ZM107.084 29.5946C107.245 29.5152 107.351 29.5425 107.351 29.6762C107.349 29.9972 106.385 30.2594 105.343 30.2269C104.675 30.1966 104.729 30.1434 105.692 29.9614C106.307 29.8578 106.95 29.6741 107.084 29.5946ZM108.61 29.1215C109.306 28.9915 109.305 29.0183 108.822 29.3633C108.259 29.7614 107.51 29.8643 107.726 29.4911C107.807 29.3578 108.209 29.1995 108.61 29.1215ZM110.618 28.4905C110.966 28.4389 111.368 28.2272 111.529 28.0141C111.691 27.801 111.878 27.6951 111.958 27.7757C112.197 28.0177 113.511 27.3028 113.326 27.0076C113.22 26.8466 113.3 26.8203 113.513 26.9551C113.699 27.0631 113.913 27.0375 114.021 26.9044C114.102 26.7711 114.746 26.3735 115.442 26.0563C116.166 25.7126 116.729 25.3412 116.73 25.2075C116.731 25.0738 116.945 24.968 117.185 24.9693C117.426 24.9706 117.855 24.759 118.15 24.4932C118.66 24.068 118.66 24.068 118.337 24.6012C118.148 24.8943 117.665 25.2928 117.236 25.4777C116.808 25.6626 116.298 25.954 116.11 26.1135C115.465 26.7251 114.178 27.5204 113.374 27.8369C112.919 28.0217 111.981 28.4445 111.231 28.788C110.507 29.1585 109.811 29.3687 109.678 29.2877C109.332 29.0719 109.922 28.5937 110.618 28.4905ZM111.642 26.945C111.776 26.8655 111.909 26.9197 111.909 27.0534C111.908 27.2138 111.773 27.3468 111.64 27.3461C111.479 27.3452 111.373 27.2912 111.373 27.2377C111.374 27.1574 111.481 27.0243 111.642 26.945ZM116.092 24.5622C116.494 24.3237 116.708 24.2446 116.627 24.4047C116.439 24.6978 115.393 25.334 115.394 25.1468C115.394 25.0665 115.716 24.8276 116.092 24.5622ZM117.567 23.6342C117.727 23.6351 117.753 23.7422 117.672 23.9022C117.591 24.0355 117.377 24.168 117.243 24.1673C117.083 24.1664 117.057 24.0326 117.138 23.8993C117.219 23.7393 117.433 23.6335 117.567 23.6342ZM119.868 23.1921C120.216 23.1672 120.482 23.2489 120.482 23.3826C120.481 23.5163 120.24 23.5685 119.946 23.5134C119.653 23.4583 119.412 23.5105 119.411 23.671C119.41 23.8047 119.223 23.9106 118.982 23.9093C118.314 23.9057 119.146 23.2416 119.868 23.1921ZM119.418 22.3071C119.552 22.3078 119.685 22.362 119.685 22.4155C119.685 22.4957 119.55 22.6287 119.416 22.7082C119.255 22.7876 119.149 22.7335 119.15 22.5998C119.15 22.4393 119.258 22.3062 119.418 22.3071ZM120.467 21.243C120.6 21.2437 120.652 21.5115 120.544 21.8318C120.407 22.4194 120.433 22.4196 120.917 22.021C121.749 21.3302 122.017 21.2514 122.015 21.6526C122.013 21.8665 121.932 21.9998 121.879 21.9193C121.8 21.8386 121.478 21.9439 121.13 22.1559C120.808 22.3681 120.487 22.4733 120.38 22.3925C120.141 22.1238 120.199 21.2416 120.467 21.243ZM124.783 18.8863C125.023 18.8876 124.889 19.0473 124.513 19.2592C123.629 19.7626 123.201 19.7602 123.872 19.2557C124.14 19.0433 124.569 18.8851 124.783 18.8863ZM123.975 19.9249C124.109 19.9256 124.242 19.9798 124.242 20.0333C124.241 20.1136 124.107 20.2465 123.973 20.326C123.812 20.4054 123.706 20.3513 123.706 20.2176C123.707 20.0572 123.815 19.924 123.975 19.9249ZM126.927 17.8014C127.06 17.8022 127.193 17.9366 127.192 18.0971C127.192 18.2308 127.058 18.2835 126.925 18.2026C126.765 18.1215 126.658 17.9872 126.659 17.907C126.659 17.8535 126.766 17.8006 126.927 17.8014ZM131.187 15.8188C131.32 15.98 130.916 16.4859 130.649 16.4845C130.515 16.4838 130.543 16.3235 130.731 16.1105C130.92 15.8976 131.134 15.7918 131.187 15.8188ZM132.285 15.4236C132.419 15.4244 132.552 15.4786 132.552 15.5321C132.552 15.6123 132.417 15.7453 132.283 15.8248C132.122 15.9041 132.016 15.8501 132.016 15.7164C132.017 15.5559 132.125 15.4228 132.285 15.4236ZM133.224 14.8939C133.465 14.708 133.626 14.6821 133.625 14.8426C133.624 14.9763 133.436 15.1625 133.222 15.2683C133.007 15.3473 132.82 15.3731 132.82 15.3196C132.821 15.2661 133.009 15.0799 133.224 14.8939ZM134.296 14.3648C134.509 14.366 134.696 14.4205 134.696 14.474C134.696 14.5274 134.508 14.6334 134.294 14.7392C134.079 14.8183 133.893 14.7638 133.893 14.6301C133.894 14.4696 134.082 14.3636 134.296 14.3648ZM137.778 12.8861C138.128 12.5403 138.181 12.5406 138.179 12.8615C138.178 13.0755 137.99 13.3151 137.775 13.421C137.561 13.5 137.374 13.499 137.375 13.4188C137.375 13.3385 137.563 13.0989 137.778 12.8861ZM143.696 10.9392C143.776 10.9397 143.722 11.1266 143.533 11.3395C143.345 11.5524 143.077 11.7382 142.943 11.7374C142.81 11.7367 142.864 11.5498 143.106 11.3372C143.321 11.1244 143.589 10.9386 143.696 10.9392ZM144.392 10.6756C144.205 10.6746 144.126 10.5404 144.233 10.3805C144.342 10.1672 144.475 10.1946 144.634 10.4362C144.846 10.7315 144.953 10.7054 145.276 10.306C145.492 10.013 145.68 9.88026 145.679 9.98723C145.678 10.1209 145.866 10.0685 146.08 9.88244C146.295 9.72314 146.59 9.64451 146.749 9.75236C146.883 9.83331 147.016 9.80729 147.017 9.70032C147.018 9.56661 147.473 9.43536 148.007 9.43827C149.237 9.41821 148.808 9.68332 146.559 10.3932C145.702 10.656 144.765 10.9718 144.47 11.0772C144.042 11.2085 144.015 11.2084 144.337 10.9695C144.632 10.7571 144.66 10.677 144.392 10.6756ZM146.543 3.46643C146.703 3.4673 146.729 3.57442 146.648 3.73444C146.568 3.86772 146.353 4.00027 146.219 3.99955C146.059 3.99868 146.033 3.86482 146.114 3.73154C146.195 3.57151 146.409 3.4657 146.543 3.46643ZM150.016 8.75385C150.149 8.80806 150.23 8.72827 150.23 8.59455C150.231 8.4341 150.526 8.32872 150.9 8.3575C151.781 8.44252 151.754 8.52261 150.629 8.99788C149.45 9.47286 149.023 9.47053 149.48 8.99163C149.668 8.7787 149.909 8.67304 150.016 8.75385ZM153.201 7.88862C153.709 7.89138 153.709 7.91813 153.279 8.23672C153.011 8.42247 152.716 8.58133 152.582 8.5806C152.476 8.58002 152.45 8.41941 152.531 8.23265C152.585 8.04574 152.907 7.88702 153.201 7.88862ZM179.572 4.68903C180.105 5.01286 179.944 5.06547 179.251 4.821C179.011 4.71272 178.878 4.57828 178.958 4.52523C179.012 4.44529 179.306 4.52712 179.572 4.68903ZM181.005 11.4898C181.219 11.5712 181.138 11.6509 180.844 11.6493C180.55 11.6745 180.39 11.5934 180.497 11.5137C180.578 11.4339 180.819 11.4085 181.005 11.4898ZM197.179 10.9358C197.579 11.152 197.578 11.2055 197.231 11.2303C196.776 11.2278 196.377 10.9582 196.565 10.7453C196.646 10.6923 196.912 10.7739 197.179 10.9358Z" fill="black"/>
</svg>
