<svg width="129" height="93" viewBox="0 0 129 93" fill="none" xmlns="http://www.w3.org/2000/svg">
<path d="M53.784 40.168C53.784 39.848 53.664 39.592 53.424 39.4C53.184 39.208 52.92 39.112 52.632 39.112C52.44 39.112 52.28 39.16 52.152 39.256C51.848 39.448 51.696 40.232 51.696 41.608L51.984 51.568C51.808 51.2 51.216 50.104 50.208 48.28C49.232 46.488 48.56 45.312 48.192 44.752C46.384 41.872 45.04 40.432 44.16 40.432C43.968 40.432 43.784 40.504 43.608 40.648C43.432 40.792 43.344 41.44 43.344 42.592V43.96C43.344 44.472 43.28 46.264 43.152 49.336C43.04 52.024 42.984 53.608 42.984 54.088C42.984 54.36 43.064 54.568 43.224 54.712C43.384 54.84 43.6 54.904 43.872 54.904C44.416 54.904 44.712 54.712 44.76 54.328C45.048 52.312 45.192 48.704 45.192 43.504C46.28 44.864 47.456 46.696 48.72 49L49.944 51.328L50.184 51.76C50.296 51.984 50.408 52.208 50.52 52.432C50.648 52.656 50.752 52.864 50.832 53.056L51.144 53.632C51.4 54.096 51.568 54.368 51.648 54.448L51.888 54.688C52.016 54.816 52.152 54.904 52.296 54.952C52.456 54.984 52.696 55 53.016 55C53.256 55 53.472 54.848 53.664 54.544C53.856 54.224 53.952 53.888 53.952 53.536L53.856 51.544C53.808 50.216 53.784 46.424 53.784 40.168ZM60.0774 49.624C60.4294 49.624 60.6934 49.624 60.8694 49.624C61.0454 49.608 61.1734 49.6 61.2534 49.6C61.4454 49.568 61.6214 49.464 61.7814 49.288C61.9414 49.112 62.0214 48.928 62.0214 48.736C62.0214 48.352 61.7734 48.128 61.2774 48.064C59.2454 48.064 58.0214 48.056 57.6054 48.04C57.5894 47.928 57.5814 47.12 57.5814 45.616C58.1894 45.664 58.7814 45.688 59.3574 45.688C60.9414 45.688 61.9414 45.576 62.3574 45.352C62.5494 45.224 62.6454 45.008 62.6454 44.704C62.6454 44.304 62.3894 44.064 61.8774 43.984H61.8534L57.6534 43.912H56.9814C56.2614 43.928 55.9014 44.232 55.9014 44.824C55.9014 45.848 55.9254 46.984 55.9734 48.232C55.7974 48.408 55.7094 48.6 55.7094 48.808C55.7094 49.048 55.8134 49.224 56.0214 49.336V53.32C56.0214 53.832 56.0694 54.24 56.1654 54.544C56.2614 54.848 56.5094 55 56.9094 55L61.6134 54.952C62.2374 54.952 62.5494 54.616 62.5494 53.944C62.5494 53.592 62.3174 53.392 61.8534 53.344L57.7014 53.416C57.7174 53.4 57.7254 53.176 57.7254 52.744L57.6774 49.6L60.0774 49.624ZM64.5146 45.088C65.1066 49.808 65.4186 52.392 65.4506 52.84C65.4986 53.288 65.6266 53.752 65.8346 54.232C66.0586 54.744 66.3146 55 66.6026 55C67.0666 55 67.5146 54.664 67.9466 53.992C68.3946 53.32 68.9786 52.128 69.6986 50.416C69.9706 50.928 70.2906 51.568 70.6586 52.336C71.2186 53.44 71.6106 54.176 71.8346 54.544C72.0106 54.816 72.2266 54.952 72.4826 54.952C73.0586 54.952 73.3946 54.744 73.4906 54.328C74.6746 48.504 75.2666 45.176 75.2666 44.344C75.2666 44.168 75.2026 44.032 75.0746 43.936C74.9466 43.824 74.7866 43.768 74.5946 43.768C74.4026 43.768 74.1946 43.856 73.9706 44.032C73.7626 44.192 73.6506 44.368 73.6346 44.56C73.3626 46.912 72.9226 49.48 72.3146 52.264C72.2346 52.136 71.8586 51.36 71.1866 49.936C71.1066 49.808 71.0426 49.688 70.9946 49.576C70.9466 49.448 70.8986 49.344 70.8506 49.264C70.5146 48.448 70.1786 48.04 69.8426 48.04C69.4106 48.04 68.9866 48.424 68.5706 49.192L67.9466 50.512C67.7706 50.928 67.4986 51.48 67.1306 52.168C67.0186 51.448 66.8426 50.088 66.6026 48.088L66.1706 44.656C66.0746 44.224 65.8586 44.008 65.5226 44.008C65.2346 44.008 64.9946 44.12 64.8026 44.344C64.6106 44.552 64.5146 44.8 64.5146 45.088ZM84.2186 45.424C84.2186 44.96 83.9226 44.592 83.3306 44.32C82.7386 44.032 81.8986 43.888 80.8106 43.888C79.6906 43.888 78.7546 44.16 78.0026 44.704C77.2346 45.232 76.8506 45.872 76.8506 46.624C76.8506 47.36 77.0586 47.936 77.4746 48.352C77.8586 48.736 78.3546 49.016 78.9626 49.192L79.8506 49.408C80.5226 49.552 81.0506 49.696 81.4346 49.84C81.8346 49.968 82.1706 50.16 82.4426 50.416C82.7146 50.672 82.8506 51.016 82.8506 51.448C82.8506 51.992 82.6586 52.432 82.2746 52.768C81.9066 53.104 81.3866 53.272 80.7146 53.272C80.3146 53.272 79.3706 52.976 77.8826 52.384C77.7866 52.352 77.7146 52.336 77.6666 52.336C77.4586 52.336 77.2746 52.432 77.1146 52.624C76.9546 52.8 76.8746 53 76.8746 53.224C76.8746 53.72 77.2506 54.136 78.0026 54.472C78.7546 54.808 79.6506 54.976 80.6906 54.976C81.7466 54.976 82.6506 54.696 83.4026 54.136C84.1706 53.56 84.5546 52.688 84.5546 51.52C84.5546 51.024 84.4906 50.6 84.3626 50.248C84.2506 49.88 84.1226 49.632 83.9786 49.504C83.8186 49.344 83.6186 49.184 83.3786 49.024C83.1386 48.832 82.5866 48.624 81.7226 48.4C80.8426 48.176 80.1226 47.928 79.5626 47.656C78.9546 47.368 78.6506 47.04 78.6506 46.672C78.6506 46.304 78.8986 46 79.3946 45.76C79.8906 45.504 80.3706 45.376 80.8346 45.376C81.3306 45.376 81.8426 45.504 82.3706 45.76C82.9306 46.016 83.3386 46.144 83.5946 46.144C83.7386 46.144 83.8746 46.08 84.0026 45.952C84.1466 45.808 84.2186 45.632 84.2186 45.424Z" fill="#202020"/>
<path d="M0.292545 44.8355C0.337712 44.8812 0.396041 45.2905 0.438985 45.7452C0.481929 46.1999 0.657822 47.2611 0.819812 48.0951C0.981802 48.9291 1.1869 50.1875 1.27386 50.8999C1.36082 51.6123 1.50841 52.3099 1.58328 52.4618C1.65814 52.6137 1.68743 52.7956 1.64161 52.8711C1.54995 53.0221 2.11557 54.7974 2.63939 55.906C2.80385 56.2856 3.01266 56.8623 3.08654 57.196C3.23438 57.8481 3.69773 58.9413 4.10317 59.5494C4.23826 59.7622 4.47776 60.2633 4.62683 60.6883C5.04469 61.7963 6.81848 64.1084 7.27262 64.1109C7.34831 64.1113 7.40837 64.2025 7.4078 64.3085C7.40648 64.5509 11.5919 68.7998 12.0148 68.9839C12.3773 69.1373 13.1282 70.2472 13.2162 70.7626C13.3193 71.2934 13.202 73.3679 13.0309 74.2153C12.969 74.4573 12.906 74.9114 12.8742 75.199C12.8423 75.4866 12.8107 75.7288 12.7956 75.7288C12.7653 75.7286 12.6718 76.2279 12.593 76.788C12.5457 77.1361 12.0525 78.7542 11.8684 79.2076C11.6691 79.661 11.5422 80.7206 11.473 82.3259C11.3706 84.446 10.7958 87.1391 10.1368 88.62C9.79973 89.3604 9.85798 89.7848 10.3828 90.7117C11.0276 91.8361 12.0251 92.1445 13.0577 91.5593C13.331 91.4094 13.7861 91.2452 14.074 91.1862C15.8016 90.8623 17.7136 90.0245 19.719 88.7175C20.2053 88.3869 20.6457 88.1167 20.676 88.1168C20.7063 88.117 21.3291 87.7265 22.0736 87.2307C22.818 86.7501 24.1087 86.03 24.9283 85.6406C25.763 85.2513 26.7497 84.772 27.1292 84.5771C27.9489 84.1726 29.2838 83.68 30.0112 83.5324C30.5265 83.4292 32.7971 83.4567 33.72 83.5678C34.2343 83.6311 36.565 83.765 40.0764 83.9053C42.6342 84.0101 43.3001 84.0591 45.9781 84.3312C47.6879 84.492 48.3686 84.5866 50.5916 85.0228C52.7693 85.4436 53.5104 85.5688 54.2669 85.6487C54.6754 85.6963 55.7949 85.8387 56.7631 85.9652C58.0186 86.1386 59.3354 86.1912 61.3339 86.1567C64.0288 86.1107 64.3166 86.082 64.8172 85.8878C64.9386 85.843 65.4537 85.7701 65.9535 85.7274C66.4532 85.6998 67.0746 85.5668 67.3175 85.447C68.4104 84.9076 69.3965 84.5343 69.6536 84.5811C69.7595 84.5968 69.8051 84.5516 69.7602 84.4605C69.6701 84.3237 70.2166 84.054 70.4584 84.1159C70.5341 84.1315 70.5798 84.0711 70.5802 83.9954C70.5812 83.8136 71.2185 83.5444 71.8093 83.4719C72.0365 83.4429 72.5067 83.2788 72.8711 83.0839C73.2355 82.8889 73.6601 82.7549 73.7962 82.7859C73.9475 82.8019 74.0689 82.742 74.0693 82.6662C74.0698 82.5754 74.3737 82.3649 74.7532 82.1852C75.1326 82.0055 75.4365 81.8103 75.4369 81.7345C75.4373 81.6588 75.5436 81.5988 75.6798 81.5995C75.8161 81.6003 76.0287 81.4802 76.1506 81.3294C76.2724 81.1938 76.318 81.1637 76.272 81.2695C76.1956 81.4054 76.3926 81.361 76.7874 81.1511C77.1365 80.9864 77.3798 80.7757 77.3347 80.7148C77.2897 80.6388 77.411 80.6092 77.5924 80.6556C77.8495 80.7025 77.8799 80.6875 77.7442 80.5807C77.5783 80.4738 77.6088 80.4285 77.8514 80.3541C78.0636 80.3098 78.1391 80.3405 78.078 80.4462C78.032 80.552 78.1385 80.4617 78.3364 80.2507C78.5344 80.0246 78.7014 79.9497 78.7312 80.0408C78.7758 80.1773 78.9273 80.163 79.2612 79.9982C79.5193 79.8633 79.9289 79.714 80.2018 79.6398C80.4595 79.5806 81.3538 79.3582 82.1876 79.1507C84.2796 78.6168 84.9154 78.6354 93.3282 79.4082C94.7506 79.5371 97.627 79.5225 99.0507 79.3939C101.08 79.208 101.686 79.1356 103.004 78.9155C103.792 78.7835 104.566 78.5756 104.703 78.4552C104.855 78.3348 104.976 78.2749 104.976 78.3506C104.975 78.4112 105.081 78.3815 105.203 78.2761C105.325 78.1859 105.476 78.1413 105.552 78.1871C105.627 78.233 105.885 78.1738 106.128 78.0691C106.371 77.9492 106.704 77.8299 106.871 77.8005C107.038 77.7711 107.204 77.7114 107.25 77.6662C107.296 77.6059 107.493 77.5312 107.705 77.5172C107.917 77.4881 108.13 77.3983 108.175 77.3228C108.236 77.2626 108.464 77.1729 108.706 77.1591C109.388 77.0871 109.828 76.9228 109.829 76.7259C109.829 76.635 109.905 76.6658 109.98 76.7873C110.07 76.9393 110.13 76.9548 110.131 76.8185C110.132 76.7276 110.314 76.6377 110.526 76.6388C110.753 76.6401 111.026 76.5204 111.148 76.3696C111.27 76.2339 111.33 76.2039 111.269 76.3096C111.193 76.4607 111.268 76.4762 111.602 76.4023C112.163 76.269 112.269 76.1939 112.179 76.0419C112.134 75.9659 112.256 75.8606 112.438 75.801C112.635 75.7414 112.801 75.7726 112.831 75.8637C112.861 75.985 113.088 75.9408 113.498 75.731C113.832 75.5662 114.075 75.3857 114.03 75.3552C113.984 75.3095 113.757 75.384 113.529 75.5342C113.21 75.7597 113.134 75.7593 113.196 75.593C113.227 75.472 113.697 75.2171 114.243 75.0383C115.32 74.6654 115.472 74.636 115.138 74.8462C114.986 74.9514 114.97 74.9968 115.106 74.9975C115.212 74.9981 115.334 74.8927 115.38 74.7718C115.441 74.6509 115.593 74.5457 115.73 74.5465C115.881 74.5473 116.124 74.4426 116.291 74.3072C116.565 74.0966 116.565 74.0814 116.231 74.2462C115.684 74.5008 115.655 74.3037 116.186 74.0339C116.718 73.7642 116.869 73.7347 116.732 73.946C116.686 74.0215 116.99 73.8868 117.415 73.6165C117.825 73.3612 118.144 73.1206 118.114 73.075C118.069 73.0444 117.857 73.1493 117.614 73.2995C116.504 74.066 116.52 73.8994 117.645 73.0573C118.101 72.7114 118.481 72.4711 118.481 72.5165C118.48 72.562 118.617 72.5324 118.784 72.4424C118.951 72.3524 119.043 72.2015 118.998 72.1103C118.922 72.0039 118.968 71.989 119.074 72.0653C119.179 72.1265 119.407 72.052 119.589 71.8712C119.772 71.6904 119.985 71.5553 120.075 71.5557C120.151 71.541 120.243 71.4052 120.244 71.2234C120.26 71.0417 120.337 70.8604 120.413 70.8002C120.656 70.6349 121.222 69.5625 121.147 69.4106C121.087 69.3346 121.193 69.2745 121.36 69.2754C121.541 69.2764 121.678 69.2014 121.678 69.1257C121.679 68.9439 122.244 68.1139 122.594 67.7674C122.807 67.5565 123.006 67.1789 123.343 66.3628C123.42 66.1814 123.665 65.6223 123.895 65.1237C124.125 64.625 124.37 64.0811 124.432 63.9148C124.508 63.7486 124.769 63.1289 125.029 62.5548C125.29 61.9654 125.675 60.8163 125.891 59.9844C126.123 59.1525 126.462 57.9274 126.663 57.262C126.863 56.5966 127.08 55.7495 127.142 55.3712C127.205 54.9928 127.283 54.5237 127.315 54.3118C127.346 54.0999 127.408 53.767 127.44 53.5551C127.471 53.3432 127.565 52.7832 127.674 52.2991C127.923 51.0887 128.004 50.0136 128.062 47.7267C128.098 46.6362 128.172 44.2888 128.242 42.5017C128.35 39.3062 128.227 36.8062 127.956 36.6078C127.745 36.4703 127.612 35.8031 127.749 35.6221C127.978 35.3355 128.028 34.4875 127.832 34.4107C127.726 34.3647 127.636 34.2128 127.652 34.0614C127.653 33.9099 127.611 33.1674 127.555 32.4249C127.498 31.6672 127.443 30.652 127.431 30.1521C127.418 29.6522 127.331 29.0912 127.226 28.9089C127.001 28.4987 127.002 28.3624 127.213 28.4847C127.379 28.5916 127.292 27.7732 127.054 27.0448C126.995 26.8324 126.831 26.2711 126.682 25.8007C126.549 25.3304 126.339 24.8597 126.234 24.7682C126.113 24.6767 126.069 24.4947 126.1 24.3888C126.146 24.2679 125.998 23.646 125.774 22.9935C125.551 22.3409 125.328 21.5672 125.254 21.279C125.195 20.9908 125.106 20.5814 125.062 20.3691C124.929 19.7776 123.88 17.7876 123.743 17.8777C123.682 17.9228 123.622 17.8468 123.623 17.6953C123.624 17.559 123.459 17.2854 123.233 17.0873C123.022 16.8892 122.902 16.7219 122.947 16.7222C123.205 16.7236 119.671 12.3267 118.361 11.032C117.533 10.2096 116.855 9.49396 116.856 9.46367C116.857 9.26676 116.359 8.94595 116.177 9.0207C116.055 9.06548 115.965 9.01955 115.995 8.94398C116.027 8.79267 114.806 7.756 113.916 7.16041C113.644 6.99231 112.15 6.24195 110.866 5.65937C110.262 5.38343 110.035 5.39734 110.518 5.67262L110.895 5.90189L110.442 5.79339C110.184 5.74655 109.716 5.57738 109.384 5.4241C109.052 5.27081 108.644 5.13227 108.477 5.13136C108.174 5.11457 108.175 5.09942 108.463 4.99496C108.736 4.89041 108.706 4.85995 108.252 4.70601C107.663 4.49074 107.27 4.47345 107.783 4.68831C107.98 4.76512 108.115 4.87189 108.07 4.90193C107.978 5.00747 107.011 4.66897 106.815 4.47098C106.71 4.36438 106.756 4.34948 106.937 4.41105C107.103 4.47255 107.179 4.45781 107.119 4.3666C107.074 4.29062 106.802 4.22855 106.544 4.25744C106.211 4.27078 106.075 4.2246 106.106 4.08844C106.122 3.98249 106.062 3.90643 105.956 3.921C105.85 3.93557 105.502 3.82764 105.17 3.68951C104.853 3.53631 104.49 3.4586 104.383 3.50347C104.262 3.54825 104.171 3.51746 104.172 3.42658C104.172 3.33569 104.082 3.28976 103.96 3.33454C103.839 3.37933 103.718 3.34837 103.673 3.2421C103.644 3.15105 103.371 3.07383 103.069 3.08733C102.766 3.10083 102.463 3.0386 102.418 2.96262C102.373 2.88663 102.464 2.87198 102.615 2.91825C102.842 2.99522 102.842 2.98007 102.661 2.8579C102.51 2.7359 102.389 2.73525 102.252 2.85568C102.1 2.97604 102.055 2.94549 102.056 2.77888C102.057 2.53652 101.393 2.29055 101.15 2.4407C101.058 2.5008 100.998 2.47017 100.998 2.40958C100.999 2.28841 100.485 2.19473 99.5918 2.15958C99.4556 2.14369 99.3348 2.08244 99.3352 2.02185C99.3355 1.96126 99.139 1.89961 98.8817 1.89821C98.6395 1.89689 98.1556 1.78823 97.8233 1.65009C97.491 1.51196 97.0827 1.434 96.9159 1.47854C96.7643 1.52315 96.6131 1.49204 96.5832 1.41614C96.5386 1.26442 94.4821 0.844253 93.1658 0.700768C92.6059 0.652282 92.3787 0.681341 92.378 0.802518C92.3773 0.938841 92.2563 0.907889 91.9999 0.739872C91.7585 0.587084 91.6224 0.556049 91.6219 0.662078C91.6214 0.752961 91.5151 0.797826 91.3943 0.751726C91.2735 0.690479 91.1371 0.720033 91.0913 0.795521C90.9385 1.0522 90.6665 0.959834 90.7739 0.70291C90.8505 0.521557 90.8054 0.475869 90.6233 0.550616C90.502 0.595399 90.3503 0.640017 90.3201 0.639853C90.2746 0.639606 90.2743 0.700194 90.3193 0.776176C90.3644 0.837011 90.228 0.866565 90.0314 0.820054C89.8197 0.788607 89.6536 0.711966 89.6539 0.651378C89.6542 0.59079 89.4274 0.544114 89.155 0.527485C88.7616 0.495051 88.7311 0.52518 88.9728 0.632527C89.2295 0.739956 89.1991 0.770085 88.7752 0.76778C88.4724 0.781281 88.3062 0.719788 88.3672 0.629234C88.4131 0.538599 88.3832 0.477846 88.3075 0.477434C88.2167 0.47694 88.1406 0.537117 88.1402 0.612853C88.1399 0.673441 87.9732 0.70283 87.7766 0.671465C87.58 0.624954 87.3679 0.669243 87.322 0.759879C87.261 0.835285 87.1245 0.879985 87.0037 0.818738C86.8829 0.772639 86.7767 0.802357 86.7763 0.878092C86.7758 0.968974 86.4874 1.11888 86.1236 1.20779C85.7748 1.31192 85.3954 1.47648 85.289 1.56679C85.1825 1.6571 84.8793 1.74633 84.6066 1.77515C84.3491 1.80404 84.061 1.89336 83.9849 1.96868C83.7718 2.17959 83.2875 2.16181 83.2887 1.9346C83.2892 1.84372 83.3348 1.81367 83.3799 1.85936C83.4402 1.90513 83.6068 1.89089 83.7739 1.80091C83.9409 1.71094 84.0474 1.60548 84.0022 1.57494C83.8968 1.46834 79.7261 2.85438 79.6798 3.02075C79.6491 3.09632 79.4823 3.156 79.3006 3.15502C79.1189 3.15403 78.2089 3.46718 77.2986 3.84092C76.3731 4.21457 75.8721 4.46936 76.16 4.42548L76.6903 4.33748L76.1286 4.62223C75.825 4.7872 75.4153 4.95159 75.2031 5.01103C74.9909 5.05532 74.7028 5.14464 74.5511 5.2044C74.3691 5.264 74.3237 5.24861 74.4001 5.12784C74.4764 5.00708 74.4312 4.97654 74.2795 5.0363C74.143 5.081 74.0364 5.18646 74.036 5.26219C74.0356 5.33793 73.8839 5.39769 73.6871 5.39662C73.4903 5.39555 72.944 5.63494 72.458 5.9201C71.9721 6.20526 71.5166 6.44515 71.456 6.44482C71.3803 6.44441 71.1979 6.59489 71.0454 6.79098C70.893 6.98707 70.4218 7.3329 69.9815 7.55772C69.5412 7.79768 69.2219 8.05346 69.267 8.11429C69.312 8.19027 69.236 8.25045 69.1149 8.24979C68.9938 8.24913 68.7205 8.39912 68.5227 8.57982C68.3248 8.77566 68.0055 9.03143 67.8081 9.15154C67.6106 9.27164 67.3217 9.49729 67.1695 9.64793C67.0173 9.79858 66.805 9.87317 66.7145 9.81208C66.6089 9.73577 66.5936 9.76598 66.6686 9.90272C66.7586 10.0547 66.7281 10.0848 66.5469 10.0081C66.3958 9.94668 66.2441 10.0064 66.1524 10.1726C66.0608 10.3084 65.9849 10.3534 65.9853 10.2777C65.9859 10.1717 65.9405 10.1714 65.8642 10.277C65.8032 10.3524 65.5145 10.5478 65.2262 10.6825C64.9377 10.8325 64.2544 11.2226 63.7075 11.568C62.0517 12.6042 61.5509 12.8287 59.0033 13.6328C57.881 14.0054 57.0325 14.1371 54.7607 14.3216C54.473 14.3352 53.6854 14.4067 53.019 14.4636C52.3526 14.5206 51.5651 14.5769 51.2774 14.5905C50.9897 14.6041 50.6716 14.6327 50.5958 14.6474C50.5048 14.6772 50.1868 14.6906 49.8689 14.6889C49.5662 14.6872 49.3085 14.7464 49.3082 14.807C49.3078 14.8676 49.0656 14.8814 48.763 14.8495C48.4755 14.8176 48.2634 14.8468 48.3084 14.9228C48.3534 14.9987 47.9596 15.042 47.4449 15.0241C46.9303 15.0061 46.4153 15.0639 46.2937 15.1542C46.1569 15.2594 46.051 15.2437 45.9158 15.0461C45.7955 14.9091 45.6595 14.8478 45.5834 14.9231C45.5073 14.9984 44.7499 15.0852 43.9171 15.1261C43.0692 15.1518 42.327 15.2235 42.2511 15.2685C42.1751 15.3135 41.5995 15.3861 40.9786 15.4282C40.3576 15.4703 39.7063 15.5425 39.5396 15.5719C39.3729 15.6012 38.8578 15.6742 38.4034 15.7172C37.0855 15.8766 36.7217 15.9655 36.8268 16.1176C36.8718 16.1936 36.7201 16.2533 36.493 16.2521C36.266 16.2508 35.872 16.3093 35.6143 16.3836C35.1745 16.5176 33.811 16.7071 30.5997 17.0683C30.1756 17.1114 28.8573 17.3315 27.6449 17.5672C26.4326 17.803 24.9326 18.0372 24.3116 18.0944C22.8879 18.2079 22.8424 18.2228 22.1147 18.4157C21.7812 18.5048 21.2659 18.608 20.978 18.6519C20.3417 18.7545 19.8869 18.8732 17.7946 19.4526C16.9152 19.6902 16.0055 19.9427 15.7631 19.9868C15.5357 20.0462 15.0351 20.2252 14.6708 20.405C14.2915 20.5696 13.9427 20.6737 13.8976 20.6129C13.8525 20.5672 13.731 20.6271 13.6396 20.7327C13.411 21.0192 11.2245 22.2191 11.3621 21.9775C11.4231 21.887 11.3168 21.947 11.1341 22.1429C10.9514 22.3237 10.7388 22.4437 10.6785 22.3979C10.603 22.3672 10.5117 22.4576 10.4654 22.624C10.4191 22.7904 10.2669 22.9259 10.1155 22.925C9.81278 22.9234 9.03769 23.4796 8.33738 24.2029C8.06341 24.4741 7.59141 24.9714 7.27169 25.3029C6.93684 25.6343 6.52498 26.2077 6.34135 26.5702C5.82121 27.5671 5.57719 27.8991 5.38039 27.898C5.28957 27.8975 5.16731 28.1089 5.10535 28.3661C5.0434 28.6232 4.79888 29.046 4.57033 29.3174C4.32672 29.5736 3.97532 30.1625 3.76092 30.6157C3.56165 31.0691 3.19405 31.8547 2.96426 32.3534C2.73447 32.852 2.48913 33.4263 2.41228 33.6379C2.35058 33.8496 2.15082 34.3939 1.96669 34.8473C1.36823 36.3285 0.997663 37.6595 0.824637 38.8552C0.777905 39.0973 0.668396 39.748 0.574602 40.2928C0.387261 41.337 0.172098 44.7137 0.292545 44.8355ZM4.38686 43.5703C4.50863 43.4498 4.64816 42.8446 4.71275 42.1027C4.82671 40.634 5.30859 38.3191 5.6613 37.4879C5.79927 37.1705 6.04511 36.5054 6.21435 36.0064C6.47581 35.2505 7.18073 33.679 7.76208 32.5612C7.8845 32.3195 7.82585 31.9708 7.68853 32.167C7.56627 32.3784 6.80072 33.9647 6.6625 34.3275C6.57035 34.5694 6.46356 34.7203 6.41831 34.6897C6.31292 34.5831 6.94198 33.0415 7.21612 32.74C7.33788 32.6195 7.4297 32.4382 7.43011 32.3625C7.43102 32.1959 8.0428 31.048 8.17962 30.9427C8.43796 30.7623 8.97356 29.7049 8.91392 29.538C8.86908 29.4317 8.97645 29.1748 9.12898 28.9635C9.28143 28.7675 9.41825 28.6622 9.41784 28.7379C9.41743 28.8136 9.29525 29.0099 9.14296 29.1757C8.94485 29.417 8.92947 29.4623 9.11145 29.4027C9.23272 29.3731 9.41545 29.1772 9.52249 28.9808C9.61431 28.7996 9.76676 28.6035 9.84278 28.5433C9.91872 28.4983 10.1169 28.2418 10.2697 27.9852C10.957 26.868 12.0825 25.9047 13.5702 25.1554C13.8738 24.9904 14.1321 24.8252 14.1324 24.7646C14.1332 24.6283 14.7248 24.4043 15.7253 24.1522C16.1345 24.0635 16.6199 23.8996 16.7869 23.8096C16.9539 23.7196 17.1965 23.6452 17.3177 23.6307C17.4389 23.6162 17.8484 23.467 18.2279 23.2873C18.7894 23.0328 18.8351 22.9876 18.4563 23.0461C18.1987 23.0902 18.3809 22.9851 18.8359 22.8361C19.2909 22.672 19.6849 22.5984 19.7147 22.6894C19.7893 22.9019 20.0469 22.8579 20.0177 22.6456C19.988 22.5394 20.14 22.4342 20.352 22.4202C20.6852 22.3918 20.7003 22.3918 20.4272 22.5115C20.1541 22.6312 20.1539 22.6615 20.3961 22.6628C20.5474 22.6788 20.6994 22.5736 20.7607 22.4376C20.8222 22.2562 20.8828 22.2414 20.9577 22.3932C21.0478 22.5301 21.1387 22.5154 21.3517 22.3196C21.5344 22.1237 21.7466 22.0794 22.0793 22.1418C22.533 22.2352 24.0933 22.0468 24.594 21.8374C24.7153 21.7926 24.9426 21.7636 25.0939 21.7795C25.5628 21.8427 26.9272 21.4866 27.1101 21.2603C27.2626 21.0642 27.2929 21.0644 27.3676 21.2466C27.4273 21.3984 27.5936 21.4447 27.8815 21.3857L28.3059 21.2971L27.9279 21.2042C27.6256 21.1268 27.7318 21.0819 28.4288 20.9646C28.8986 20.8762 29.2923 20.8632 29.2919 20.9238C29.2916 20.9844 29.1094 21.0743 28.8671 21.1033C28.6398 21.1323 28.9729 21.1341 29.6088 21.1073C31.2745 21.0255 32.3352 20.8495 32.4879 20.6079C32.5795 20.457 32.625 20.4421 32.6243 20.5784C32.6237 20.6844 32.6989 20.7757 32.7898 20.7762C32.8654 20.7766 32.8961 20.701 32.8361 20.6098C32.7762 20.4883 32.8368 20.4735 33.0635 20.5505C33.2448 20.6121 33.3812 20.5825 33.3817 20.4916C33.3822 20.4007 33.5037 20.3257 33.64 20.3264C33.867 20.3276 33.882 20.358 33.6846 20.4781C33.4871 20.5982 33.4869 20.6285 33.714 20.6298C33.8503 20.6305 33.9869 20.5555 34.0177 20.4648C34.0484 20.3741 34.6095 20.2105 35.2763 20.0778C35.9884 19.9605 36.5496 19.7666 36.6867 19.6159C36.7934 19.4801 36.839 19.4501 36.7778 19.5709C36.64 19.8428 38.0333 19.7444 40.806 19.3202C41.8514 19.1592 43.1996 19 43.7901 18.988C44.5018 18.9616 44.9109 18.8881 44.9722 18.7521C45.003 18.6614 45.1246 18.5711 45.2306 18.5717C45.3668 18.5725 45.3665 18.6179 45.1994 18.7382C45.0018 18.8886 45.0018 18.8886 45.1989 18.8291C45.3202 18.7843 45.5629 18.6947 45.7146 18.6349C45.927 18.5604 45.9723 18.5758 45.896 18.6965C45.8196 18.8173 45.895 18.8783 46.0918 18.8794C46.2734 18.8803 46.4101 18.8053 46.4106 18.7145C46.4111 18.6236 46.5173 18.5787 46.6381 18.64C46.7589 18.6861 46.8651 18.6563 46.8655 18.5806C46.866 18.4897 47.0177 18.43 47.1993 18.4309C47.4416 18.4323 47.4867 18.478 47.35 18.5681C47.2133 18.6431 47.319 18.6891 47.652 18.7061C48.1061 18.7237 48.1214 18.6935 47.8801 18.5104C47.6388 18.3425 47.6692 18.3275 48.108 18.3602C48.3804 18.3919 48.6981 18.424 48.8041 18.4245C48.91 18.4402 48.955 18.5011 48.9091 18.5917C48.8633 18.6672 48.8932 18.7431 48.9689 18.7435C49.0597 18.744 49.136 18.6384 49.1367 18.5021C49.1377 18.3203 49.2742 18.2756 49.7887 18.3087C50.1519 18.341 50.5306 18.2976 50.6521 18.2225C50.804 18.1325 50.8341 18.1629 50.7574 18.3443C50.6806 18.5408 50.7409 18.6017 51.074 18.5883C51.301 18.5896 51.3921 18.5446 51.2864 18.4986C50.8936 18.345 51.1366 18.21 51.8633 18.1988C52.2873 18.186 52.5898 18.233 52.5592 18.2935C52.5134 18.3538 52.6191 18.415 52.7856 18.4159C52.952 18.4319 53.0431 18.387 52.9982 18.2959C52.848 18.0678 53.832 18.0732 53.9821 18.3164C54.0272 18.3772 54.224 18.3631 54.4365 18.2734C55.0433 18.0343 55.1796 18.0199 57.0571 17.9695C58.0261 17.9445 58.9197 17.8585 59.0261 17.7833C59.1175 17.6929 59.3146 17.6334 59.4357 17.6341C59.7536 17.6358 61.5729 17.1458 61.9069 16.9659C62.0587 16.891 62.3014 16.8014 62.4681 16.772C63.241 16.6247 66.3382 14.9753 67.5544 14.0428C68.2993 13.4713 69.2415 12.8099 69.6364 12.5697C70.0313 12.3295 70.3052 12.0734 70.2752 12.0127C70.2301 11.9519 70.2908 11.937 70.4117 11.968C70.5174 12.014 70.7753 11.9245 70.9731 11.7438C71.1708 11.5783 71.3834 11.4431 71.4743 11.4436C71.55 11.444 71.5354 11.3379 71.4301 11.2161C71.3249 11.0792 71.2803 10.9275 71.3412 10.8673C71.402 10.807 71.5379 10.8835 71.6431 11.0204C71.8083 11.2636 71.9297 11.2189 72.8871 10.5273C74.1031 9.64019 75.1659 9.07036 77.2596 8.21834C78.0941 7.87448 78.8077 7.49968 78.8537 7.37875C78.9001 7.21238 78.8699 7.19706 78.6874 7.34755C78.5049 7.49803 78.4595 7.49778 78.4605 7.31602C78.4611 7.19484 78.522 7.13458 78.5975 7.18043C78.6578 7.22621 78.7185 7.19624 78.719 7.10536C78.7195 7.01448 78.8256 6.98476 78.9465 7.03086C79.0672 7.0921 79.1734 7.06239 79.1737 7.0018C79.1741 6.92606 79.3259 6.85115 79.5077 6.83699C79.7045 6.82291 80.053 6.77937 80.3106 6.73532C80.7501 6.64683 80.7501 6.64683 80.2799 6.79575C80.007 6.88515 79.7489 7.02007 79.7031 7.09556C79.6571 7.1862 79.4752 7.2458 79.3086 7.24489C79.1421 7.24399 79.0509 7.31923 79.0959 7.39521C79.1559 7.50157 79.2922 7.48716 79.5047 7.38229C79.6868 7.29239 80.2785 7.05325 80.8245 6.87445C81.3705 6.69564 82.2958 6.35228 82.8874 6.12829C83.9645 5.72516 84.5559 5.53146 86.254 5.05597C86.7997 4.92261 87.2096 4.71277 87.2102 4.60674C87.2108 4.50071 87.287 4.41024 87.3778 4.41074C87.4535 4.41115 87.4834 4.4719 87.4375 4.56254C87.3917 4.63802 87.4216 4.71392 87.4973 4.71434C87.6184 4.715 89.785 4.37838 90.5427 4.23103C90.9216 4.15735 94.9314 4.5124 94.9308 4.61843C94.9304 4.69416 95.0968 4.72536 95.2939 4.66584C95.5061 4.62156 95.8086 4.66864 96.0198 4.80612C96.2008 4.92828 96.6392 5.0367 96.9722 5.05366C97.3051 5.07062 97.6075 5.148 97.6524 5.23913C97.7126 5.31519 97.8638 5.34631 98.0003 5.28646C98.1521 5.2267 98.2578 5.27271 98.2572 5.37874C98.2565 5.49992 98.3926 5.53095 98.6503 5.47177C98.8928 5.41249 98.9987 5.42822 98.9377 5.51877C98.8917 5.62455 98.937 5.63995 99.0735 5.59525C99.21 5.55055 99.3158 5.58142 99.3154 5.65715C99.3149 5.74804 99.5716 5.87061 99.874 5.93285C100.192 5.99516 101.37 6.36511 102.504 6.78026C104.09 7.33419 104.619 7.45825 104.756 7.33782C104.908 7.20232 104.923 7.2024 104.847 7.33831C104.786 7.44401 104.77 7.53481 104.801 7.53498C104.831 7.53514 105.435 7.75049 106.13 8.01178C106.825 8.25792 108.109 8.71933 108.986 9.02704C110.98 9.71953 112.626 10.5767 113.288 11.2771C113.363 11.3684 113.71 11.643 114.042 11.9023C114.856 12.5126 117.054 14.7664 117.881 15.8464C118.256 16.3331 118.737 16.9416 118.948 17.2154C120.136 18.6458 121.903 22.2302 122.377 24.1414C122.555 24.8543 122.867 25.9617 123.06 26.6293C123.863 29.2541 124.169 31.4371 124.256 34.982C124.401 41.6175 124.168 48.4023 123.665 51.7169C123.555 52.5342 123.12 54.4859 123.014 54.6368C122.968 54.7123 122.906 54.9392 122.875 55.1056C122.859 55.2873 122.689 55.9377 122.503 56.5577C122.318 57.1778 122.102 57.9946 122.009 58.3728C121.916 58.7509 121.793 59.1138 121.717 59.2043C121.641 59.2796 121.579 59.4762 121.578 59.6277C121.578 59.7791 121.301 60.6107 120.963 61.442C119.874 64.1172 119.399 65.0841 118.912 65.6267C118.729 65.8378 118.455 66.1847 118.302 66.4262C117.874 67.1207 115.331 69.8486 115.119 69.8474C115.074 69.8472 114.482 70.1772 113.813 70.5825C112.613 71.3183 110.761 72.2473 110.519 72.246C110.444 72.2456 109.837 72.4847 109.154 72.7688C107.227 73.5914 102.692 75.0663 101.874 75.1376C101.466 75.1808 100.481 75.2815 99.6933 75.3681C98.2845 75.5271 95.075 75.5551 93.8646 75.4273C93.5317 75.3952 92.639 75.3146 91.8673 75.2498C91.0955 75.1851 89.6733 75.041 88.6899 74.9296C86.3599 74.6746 83.5291 74.6592 82.2865 74.8796C79.589 75.3951 74.841 77.1719 72.3504 78.6125C70.4066 79.738 67.4772 81.1308 66.4918 81.3829C65.3396 81.6948 65.0972 81.7389 63.5365 81.9879C62.6274 82.1345 57.2227 82.1808 56.9963 82.0584C56.9359 82.0126 56.4217 81.9341 55.8316 81.8703C54.833 81.774 53.6835 81.5708 51.2943 81.0882C48.2397 80.4657 43.882 80.0482 39.1895 79.9621C37.0249 79.92 34.8454 79.8324 34.3461 79.7843C33.8468 79.7361 32.8632 79.655 32.1671 79.6058C31.4559 79.5565 30.5632 79.4608 30.1699 79.398C29.3532 79.2573 27.6702 79.7328 26.7434 80.364C26.4547 80.5593 26.1512 80.6789 26.0758 80.633C26.0003 80.5872 25.9395 80.6323 25.9391 80.7232C25.9386 80.814 25.4071 81.1141 24.7546 81.3984C24.1172 81.6827 23.4798 81.9822 23.3582 82.0573C23.2366 82.1475 22.857 82.3575 22.5231 82.5223C20.1545 83.797 17.9217 85.1632 17.3738 85.7056C17.2216 85.8562 17.0241 85.9763 16.9181 85.9757C16.8122 85.9752 16.5995 86.1103 16.4472 86.2761C16.2949 86.4419 16.1125 86.5773 16.0368 86.5769C15.9612 86.5764 15.6576 86.7263 15.3386 86.9215C14.2449 87.5971 14.2147 87.5818 14.3261 86.5978C14.4529 85.5534 14.6843 84.7518 14.8659 84.7528C14.9416 84.7532 14.9713 84.8745 14.9251 85.0106C14.8481 85.2526 14.8632 85.2526 15.0159 85.0111C15.1228 84.8451 15.1697 84.5727 15.1254 84.3604C15.0963 84.1481 15.1272 84.0423 15.2177 84.1034C15.3082 84.1644 15.3391 84.0434 15.2951 83.7857C15.2508 83.5734 15.2821 83.3918 15.3578 83.3922C15.4486 83.3927 15.4795 83.2868 15.4196 83.1653C15.3748 83.0439 15.4057 82.938 15.4814 82.9384C15.5722 82.9389 15.6335 82.8029 15.6343 82.6515C15.6352 82.4848 15.7119 82.3035 15.7878 82.2585C15.879 82.1984 15.9098 82.0925 15.8648 82.0165C15.8047 81.9405 15.911 81.8804 16.0775 81.8813C16.3349 81.8827 16.3959 81.7922 16.398 81.4135C16.3994 81.156 16.4616 80.8383 16.5382 80.6872C16.6146 80.5513 16.7076 80.158 16.7396 79.84C16.7717 79.507 16.91 79.129 17.047 78.9783C17.1992 78.8276 17.3219 78.5405 17.323 78.3436C17.3241 78.1315 17.3858 77.935 17.4466 77.8898C17.5225 77.8448 17.5848 77.5271 17.6017 77.1939C17.6188 76.8456 17.6812 76.4975 17.727 76.4221C17.895 76.1503 17.9312 75.0599 17.7819 74.6804C17.6777 74.3617 17.6931 74.3012 17.8442 74.3626C18.1464 74.4703 18.072 71.4404 17.7452 70.3026C17.4035 69.104 16.0504 67.385 14.212 65.8148C13.6695 65.3574 13.1725 64.8852 13.1125 64.7788C13.0374 64.6724 12.9317 64.6264 12.8406 64.6713C12.7646 64.7315 12.7042 64.7009 12.7045 64.6403C12.7049 64.5645 12.1483 63.9253 11.4558 63.2096C10.2365 61.9306 9.03311 60.5153 9.00374 60.3485C8.98951 60.1818 8.41945 59.2244 8.1937 58.9809C7.86255 58.6307 7.48879 57.7652 7.37131 57.0981C7.3124 56.7948 7.17756 56.5366 7.07159 56.536C6.88993 56.535 6.75534 56.2313 6.60758 55.564C6.57813 55.4124 6.36965 54.7751 6.16118 54.1377C5.69955 52.7265 5.09198 50.3148 4.97606 49.3598C4.91765 48.9657 4.81317 48.6925 4.75237 48.7376C4.67643 48.7826 4.61604 48.752 4.61654 48.6611C4.61695 48.5854 4.67808 48.4797 4.75402 48.4346C4.81482 48.3895 4.81696 47.9957 4.72852 47.5559C4.65521 47.1163 4.59787 46.5252 4.59936 46.2525C4.61598 45.98 4.57163 45.7828 4.51083 45.8279C4.45012 45.8579 4.42223 45.4185 4.45572 44.8279C4.48986 44.1161 4.46132 43.7979 4.35494 43.873C4.12712 44.0081 4.14333 43.8113 4.38686 43.5703ZM4.44397 41.4196C4.48914 41.4653 4.50354 41.6017 4.45754 41.7075C4.41147 41.8284 4.3663 41.7828 4.36721 41.6161C4.35298 41.4494 4.39889 41.3588 4.44397 41.4196ZM5.0816 38.3027C5.1113 38.4089 5.11031 38.5907 5.07954 38.6814C5.03355 38.7872 5.00369 38.7113 5.00484 38.4992C5.00599 38.2872 5.03668 38.2116 5.0816 38.3027ZM5.5453 36.5481C5.69742 36.4126 5.74276 36.428 5.74152 36.6552C5.7407 36.8067 5.67916 36.9881 5.60305 37.0634C5.52687 37.1539 5.43497 37.3503 5.38865 37.5167C5.34233 37.6831 5.32777 37.577 5.34455 37.2741C5.3462 36.9712 5.45398 36.6385 5.5453 36.5481ZM6.05203 35.233C6.14409 35.0063 6.25088 34.8554 6.28091 34.901C6.32608 34.9467 6.26413 35.2039 6.14146 35.491C5.88098 36.0652 5.82149 35.868 6.05203 35.233ZM26.1406 21.3914C26.2614 21.4375 26.2157 21.4827 26.0492 21.4818C25.8826 21.496 25.792 21.4501 25.8528 21.405C25.8985 21.3598 26.0348 21.3454 26.1406 21.3914ZM27.6577 20.7937C27.7785 20.8398 27.7329 20.885 27.5663 20.8841C27.3997 20.8984 27.3092 20.8524 27.37 20.8073C27.4156 20.7621 27.5519 20.7477 27.6577 20.7937ZM30.8071 20.6897C30.883 20.6447 30.9585 20.6754 30.9581 20.7511C30.9576 20.842 30.8815 20.9173 30.8058 20.9169C30.715 20.9164 30.6546 20.8858 30.6548 20.8555C30.655 20.81 30.716 20.7346 30.8071 20.6897ZM31.5944 20.6637C31.7153 20.7098 31.6696 20.755 31.5031 20.7541C31.3365 20.7683 31.2459 20.7224 31.3067 20.6773C31.3524 20.6321 31.4887 20.6177 31.5944 20.6637ZM51.2605 17.6957C51.3362 17.6961 51.4115 17.7722 51.411 17.8631C51.4106 17.9388 51.3347 17.9687 51.2593 17.9229C51.1687 17.8769 51.1085 17.8009 51.1088 17.7554C51.1089 17.7251 51.1697 17.6952 51.2605 17.6957ZM51.1594 16.8014C51.1744 16.8318 51.2946 16.9839 51.3998 17.136C51.5802 17.3641 51.58 17.3944 51.3535 17.3023C51.2175 17.2561 51.1123 17.1041 51.1131 16.9678C51.1137 16.8466 51.1293 16.7709 51.1594 16.8014ZM60.6515 16.7621C60.7426 16.7172 60.8031 16.7327 60.8026 16.8084C60.8017 16.9902 60.2559 17.1387 59.6656 17.1203C59.2872 17.1031 59.3176 17.073 59.8632 16.9699C60.2117 16.9112 60.5756 16.8072 60.6515 16.7621ZM61.5159 16.4942C61.9099 16.4206 61.9098 16.4357 61.6362 16.6312C61.3171 16.8566 60.8929 16.9149 61.0152 16.7035C61.061 16.628 61.2886 16.5384 61.5159 16.4942ZM62.6532 16.1368C62.8502 16.1076 63.0779 15.9876 63.1694 15.867C63.2609 15.7463 63.3672 15.6863 63.4123 15.732C63.5478 15.869 64.2918 15.4641 64.1868 15.2969C64.1267 15.2057 64.1722 15.1908 64.2929 15.2672C64.3986 15.3283 64.5197 15.3138 64.5807 15.2384C64.6265 15.163 64.9911 14.9377 65.3857 14.7581C65.7955 14.5634 66.1145 14.3531 66.1149 14.2773C66.1153 14.2016 66.2368 14.1417 66.373 14.1424C66.5093 14.1432 66.7521 14.0233 66.9195 13.8727C67.2084 13.6319 67.2084 13.6319 67.0251 13.9339C66.9182 14.0999 66.6445 14.3257 66.4017 14.4304C66.1589 14.5351 65.8704 14.7001 65.764 14.7905C65.3987 15.1369 64.6696 15.5873 64.2145 15.7666C63.9566 15.8712 63.4254 16.1107 63.0005 16.3053C62.5906 16.5152 62.1963 16.6342 62.1209 16.5883C61.9248 16.4661 62.2593 16.1953 62.6532 16.1368ZM63.2332 15.2614C63.3092 15.2164 63.3847 15.2471 63.3843 15.3228C63.3838 15.4137 63.3077 15.489 63.232 15.4886C63.1412 15.4881 63.0808 15.4575 63.081 15.4272C63.0812 15.3818 63.1422 15.3064 63.2332 15.2614ZM65.7536 13.9118C65.9814 13.7767 66.1028 13.732 66.0568 13.8226C65.95 13.9886 65.3576 14.349 65.3582 14.2429C65.3584 14.1975 65.5408 14.0622 65.7536 13.9118ZM66.5891 13.3862C66.6799 13.3867 66.6947 13.4474 66.6488 13.538C66.603 13.6135 66.4815 13.6886 66.4058 13.6882C66.3149 13.6877 66.3002 13.6119 66.346 13.5364C66.3919 13.4457 66.5134 13.3858 66.5891 13.3862ZM67.8924 13.1358C68.0892 13.1217 68.2404 13.168 68.24 13.2437C68.2395 13.3195 68.1031 13.349 67.9368 13.3178C67.7704 13.2866 67.634 13.3162 67.6335 13.407C67.6331 13.4828 67.5268 13.5428 67.3906 13.5421C67.0121 13.54 67.4835 13.1639 67.8924 13.1358ZM67.6377 12.6345C67.7134 12.635 67.7889 12.6657 67.7888 12.696C67.7885 12.7414 67.7124 12.8167 67.6365 12.8617C67.5454 12.9067 67.485 12.8761 67.4854 12.8003C67.4859 12.7095 67.5469 12.634 67.6377 12.6345ZM68.2314 12.0319C68.3071 12.0323 68.3366 12.1839 68.275 12.3654C68.1975 12.6982 68.2126 12.6983 68.4864 12.4725C68.9578 12.0813 69.1094 12.0366 69.1082 12.2639C69.1075 12.385 69.0617 12.4605 69.0317 12.4149C68.9865 12.3692 68.8045 12.4288 68.6071 12.5489C68.4247 12.6691 68.2428 12.7287 68.1825 12.6829C68.047 12.5307 68.08 12.031 68.2314 12.0319ZM70.676 10.697C70.8122 10.6978 70.736 10.7882 70.5235 10.9083C70.0223 11.1933 69.7801 11.192 70.1601 10.9063C70.3122 10.7859 70.5549 10.6964 70.676 10.697ZM70.2186 11.2853C70.2943 11.2857 70.3698 11.3164 70.3697 11.3467C70.3694 11.3922 70.2933 11.4675 70.2174 11.5125C70.1263 11.5575 70.0659 11.5268 70.0663 11.4511C70.0668 11.3602 70.1278 11.2848 70.2186 11.2853ZM71.8904 10.0826C71.9661 10.083 72.0414 10.1591 72.0409 10.25C72.0405 10.3258 71.9646 10.3556 71.8892 10.3098C71.7986 10.2639 71.7385 10.1878 71.7387 10.1424C71.7389 10.1121 71.7996 10.0821 71.8904 10.0826ZM74.3036 8.95964C74.3788 9.05094 74.1501 9.3375 73.9987 9.33667C73.9231 9.33626 73.9387 9.24546 74.0453 9.12486C74.1519 9.00426 74.2734 8.94433 74.3036 8.95964ZM74.9255 8.73581C75.0012 8.73622 75.0767 8.76693 75.0765 8.79722C75.0763 8.84266 75.0002 8.91799 74.9242 8.96302C74.8332 9.00797 74.7728 8.97734 74.7732 8.90161C74.7737 8.81072 74.8346 8.73532 74.9255 8.73581ZM75.4569 8.43575C75.5938 8.33046 75.6847 8.31581 75.6842 8.40669C75.6838 8.48243 75.5772 8.58788 75.4558 8.64781C75.3344 8.69259 75.2284 8.70716 75.2286 8.67687C75.2287 8.64658 75.3353 8.54112 75.4569 8.43575ZM76.0641 8.1361C76.1852 8.13676 76.291 8.16763 76.2909 8.19793C76.2907 8.22822 76.1844 8.28823 76.063 8.34816C75.9416 8.39294 75.8358 8.36207 75.8362 8.28634C75.8367 8.19546 75.943 8.13544 76.0641 8.1361ZM78.0367 7.29857C78.2346 7.10272 78.2648 7.10289 78.2639 7.28465C78.2632 7.40583 78.1565 7.54158 78.0351 7.60151C77.9137 7.64629 77.8077 7.64571 77.808 7.60027C77.8082 7.55483 77.9149 7.41908 78.0367 7.29857ZM81.3883 6.19587C81.4337 6.19612 81.4029 6.30198 81.2963 6.42259C81.1896 6.54319 81.0377 6.64839 80.962 6.64798C80.8863 6.64757 80.9172 6.5417 81.0541 6.42127C81.1758 6.30075 81.3278 6.19554 81.3883 6.19587ZM81.7827 6.04654C81.6768 6.04597 81.6318 5.96998 81.6928 5.87943C81.754 5.75858 81.8296 5.77414 81.9197 5.91096C82.0399 6.07824 82.1006 6.06342 82.2835 5.8372C82.4055 5.67124 82.5118 5.59608 82.5115 5.65667C82.5111 5.7324 82.6172 5.70269 82.7389 5.59732C82.8605 5.50709 83.0273 5.46256 83.1178 5.52364C83.1932 5.56949 83.269 5.55476 83.2693 5.49417C83.2697 5.41843 83.5275 5.3441 83.8303 5.34574C84.5267 5.33438 84.2837 5.48453 83.0098 5.88659C82.5246 6.03543 81.9938 6.21431 81.8269 6.274C81.5843 6.34841 81.5692 6.34833 81.7516 6.213C81.9187 6.09272 81.9341 6.04737 81.7827 6.04654ZM83.0009 1.96333C83.0917 1.96383 83.1065 2.0245 83.0606 2.11513C83.0148 2.19062 82.8933 2.2657 82.8176 2.26529C82.7268 2.26479 82.712 2.18898 82.7579 2.11349C82.8038 2.02285 82.9252 1.96292 83.0009 1.96333ZM84.9678 4.95809C85.0433 4.9888 85.089 4.9436 85.0894 4.86787C85.0899 4.77698 85.2567 4.7173 85.4686 4.7336C85.9679 4.78176 85.9525 4.82712 85.3152 5.09631C84.6477 5.36533 84.4054 5.36402 84.6643 5.09277C84.7709 4.97217 84.9075 4.91232 84.9678 4.95809ZM86.7719 4.46803C87.0596 4.4696 87.0595 4.48474 86.8163 4.66519C86.6643 4.7704 86.4973 4.86037 86.4216 4.85996C86.3611 4.85963 86.3464 4.76867 86.3924 4.66289C86.4233 4.55702 86.6054 4.46713 86.7719 4.46803ZM101.708 2.65581C102.01 2.83922 101.919 2.86902 101.526 2.73055C101.39 2.66923 101.315 2.59308 101.361 2.56303C101.391 2.51775 101.558 2.5641 101.708 2.65581ZM102.52 6.50769C102.641 6.55379 102.595 6.59899 102.429 6.59808C102.262 6.61232 102.172 6.56639 102.232 6.52128C102.278 6.47608 102.414 6.46167 102.52 6.50769ZM111.681 6.19396C111.907 6.31637 111.907 6.34667 111.71 6.36074C111.453 6.35934 111.227 6.20664 111.333 6.08604C111.379 6.05599 111.53 6.10225 111.681 6.19396Z" fill="#202020"/>
</svg>
