<svg width="128" height="126" viewBox="0 0 128 126" fill="none" xmlns="http://www.w3.org/2000/svg">
<path d="M32.4912 32.2128C32.2743 32.4297 32.1235 32.59 32.0386 32.6937C31.9632 32.8068 31.8736 32.9247 31.7699 33.0472C31.6756 33.1604 31.6096 33.2547 31.5719 33.3301C31.5719 33.3678 31.5436 33.4338 31.4871 33.5281C31.4305 33.6223 31.4116 33.7261 31.4305 33.8392C31.4588 33.9618 31.5531 34.122 31.7133 34.32C32.0339 34.6406 32.444 34.5604 32.9437 34.0796C33.2454 33.7968 34.3155 32.689 36.154 30.7562L36.451 30.4592C36.8941 31.0909 37.3042 31.5953 37.6813 31.9724C38.5016 32.7927 39.2747 33.2452 40.0006 33.3301C40.4815 33.3961 41.0094 33.3018 41.5845 33.0472C42.1691 32.7832 42.7536 32.359 43.3382 31.7744C44.0736 31.039 44.3281 30.1717 44.1018 29.1723C43.8756 28.1729 43.324 27.2348 42.4472 26.358C41.7967 25.7075 41.2404 25.2643 40.7784 25.0286C40.3353 24.7929 39.9488 24.7929 39.6188 25.0286C39.0248 25.5283 37.9264 26.5796 36.3237 28.1823C34.6172 29.8888 33.3397 31.2323 32.4912 32.2128ZM40.2976 26.5843C40.5616 26.6786 40.934 26.9661 41.4148 27.4469C41.8862 27.9184 42.2162 28.4746 42.4048 29.1157C42.6028 29.7474 42.5085 30.2565 42.1219 30.6431C41.7354 31.0296 41.3158 31.3266 40.8633 31.534C40.637 31.6283 40.2788 31.6377 39.7885 31.5623C39.6659 31.5529 39.4962 31.468 39.2794 31.3077C39.0248 31.1098 38.775 30.8882 38.5298 30.6431C38.3601 30.4734 38.1669 30.2518 37.95 29.9784L37.4975 29.3844C37.9689 28.8376 38.3696 28.3992 38.6996 28.0692C38.9918 27.7769 39.5245 27.282 40.2976 26.5843ZM47.6013 38.3003C47.177 38.9508 46.4416 39.7993 45.3951 40.8458C43.6415 42.5995 42.2508 42.9625 41.2231 41.9348C40.7612 41.4728 40.6433 40.827 40.8696 39.9973C41.1053 39.1771 41.5767 38.3568 42.2838 37.5366C42.6421 37.1406 42.9438 36.8201 43.1889 36.5749C43.7075 36.0564 44.2119 35.5991 44.7021 35.2031C44.8341 35.09 44.9001 34.958 44.9001 34.8072C44.9001 34.6563 44.8388 34.5196 44.7163 34.397C44.5937 34.2745 44.4193 34.1943 44.193 34.1566C43.9762 34.1095 43.8017 34.1425 43.6697 34.2556C43.1229 34.7082 42.6515 35.1324 42.2555 35.5284C41.2373 36.5466 40.4265 37.6026 39.8231 38.6962C39.4177 39.4411 39.2433 40.1812 39.2998 40.9166C39.3752 41.6519 39.7005 42.3072 40.2756 42.8823C41.0864 43.6931 41.8973 44.0797 42.7081 44.042C43.5377 44.0043 44.4428 43.5611 45.4234 42.7126C45.7062 42.4863 46.0598 42.1611 46.484 41.7368C47.2383 40.9826 48.0255 40.101 48.8458 39.0922C48.94 38.9791 48.973 38.8424 48.9448 38.6821C48.9259 38.5313 48.8505 38.3898 48.7185 38.2578C48.5771 38.1164 48.4074 38.0316 48.2094 38.0033C48.0019 37.9844 47.837 38.0363 47.7144 38.1588L47.6013 38.3003ZM50.9981 46.2509C51.5827 46.2509 52.1295 45.9963 52.6386 45.4872C53.1383 44.9875 53.3316 44.3794 53.2184 43.6629C53.1242 42.9464 52.7565 42.2675 52.1154 41.6264C51.4742 40.9853 50.8756 40.7355 50.3193 40.8769C49.763 41.0183 49.0607 41.5133 48.2121 42.3618C46.8733 43.7006 45.6807 44.9215 44.6342 46.0246L44.0402 46.6469C46.2747 48.8813 47.6983 49.9844 48.3111 49.9561C49.1502 49.9656 49.8715 49.6686 50.4749 49.0652C50.8426 48.6975 51.083 48.2402 51.1961 47.6934C51.3187 47.1371 51.2527 46.6563 50.9981 46.2509ZM49.9233 42.6305C50.1779 42.376 50.4089 42.2487 50.6163 42.2487C50.8426 42.2487 51.1066 42.3995 51.4082 42.7012C51.7288 43.0218 51.9221 43.3659 51.9881 43.7336C52.0729 44.1013 52.0022 44.3983 51.7759 44.6246C51.38 45.0205 50.8944 45.1195 50.3193 44.9215C49.763 44.7047 49.2304 44.3417 48.7212 43.8326L49.9233 42.6305ZM49.4142 46.0246C50.1967 46.8072 50.258 47.5284 49.5981 48.1884C49.0324 48.7541 48.2498 48.6786 47.2505 47.9621C46.7413 47.585 46.3878 47.2974 46.1898 47.0994C46.0012 46.892 45.8975 46.7789 45.8787 46.76C46.2935 46.2509 46.7225 45.7748 47.1656 45.3317L47.8444 44.6811C48.495 45.1808 49.0182 45.6287 49.4142 46.0246ZM51.3006 53.9356C51.8475 54.4824 52.3519 54.9208 52.8138 55.2508C53.059 55.4017 53.3088 55.3498 53.5634 55.0953C53.8839 54.7747 53.8886 54.4589 53.5775 54.1477L51.3572 52.182C51.9135 51.5692 52.399 51.0553 52.8138 50.6405C53.191 50.2634 53.9122 49.6458 54.9776 48.7879C55.8167 48.1373 56.4154 47.6424 56.7736 47.3029C56.9245 47.1521 56.9858 46.9777 56.9575 46.7797C56.9292 46.5817 56.8255 46.3931 56.6464 46.214C56.2881 45.8557 55.9911 45.7945 55.7554 46.0302L51.5552 50.0324C50.7161 50.8715 50.1268 51.5173 49.7874 51.9699C49.6743 52.1396 49.7356 52.3423 49.9713 52.578L51.3006 53.9356ZM54.1829 56.7896C54.3243 56.931 54.5081 57.0205 54.7344 57.0583C54.9701 57.0865 55.1492 57.0488 55.2718 56.9451C55.7998 56.4926 57.3507 54.9794 59.9246 52.4055C60.5091 51.821 60.8485 51.4721 60.9428 51.359C61.0842 51.1987 61.1408 51.029 61.1125 50.8499C61.0842 50.6896 60.9994 50.5387 60.858 50.3973C60.7165 50.2559 60.5563 50.1805 60.3771 50.171C60.2168 50.1616 60.0707 50.2229 59.9387 50.3549L54.1263 56.0542C53.9 56.2804 53.9189 56.5256 54.1829 56.7896ZM65.8132 57.785C65.9547 57.9265 66.1479 58.0066 66.3931 58.0254C66.6476 58.0349 66.8362 57.9783 66.9587 57.8557C67.1096 57.7049 67.1379 57.5069 67.0436 57.2618L67.0577 57.2476C66.7089 56.5405 66.2564 55.9088 65.7001 55.3526C64.7667 54.4192 63.7013 53.9384 62.504 53.9101C61.3255 53.8818 60.2318 54.3721 59.223 55.3809C58.4782 56.1257 57.9643 57.0072 57.6815 58.0254C57.5307 58.5346 57.5071 59.0484 57.6108 59.5669C57.7145 60.0855 57.9266 60.505 58.2472 60.8256C58.7657 61.3441 59.8688 61.9475 61.5564 62.6358C61.9147 62.7112 62.1928 62.6499 62.3908 62.4519C62.6265 62.2162 62.6171 61.9711 62.3625 61.7165C62.3248 61.6788 61.8864 61.4573 61.0473 61.0519C60.2082 60.6465 59.6708 60.3259 59.4351 60.0902C59.19 59.8451 59.0721 59.4915 59.0816 59.0295C59.0721 58.115 59.454 57.2712 60.2271 56.4981C61.7544 54.9707 63.2818 54.9707 64.8091 56.4981L65.8132 57.785ZM63.7512 65.5943C64.2321 65.2077 65.1089 64.6514 66.3817 63.9255C66.7588 64.5666 67.3575 65.2973 68.1777 66.1175L66.7352 68.55C66.5372 68.8799 66.5938 69.2005 66.9049 69.5116C67.0275 69.6342 67.1689 69.7002 67.3292 69.7096C67.4895 69.719 67.6262 69.6672 67.7393 69.5541C68.5879 68.1964 69.2384 67.1122 69.6909 66.3014C70.1718 65.4434 70.596 64.5194 70.9637 63.5295C71.322 62.549 71.5294 61.9362 71.586 61.691C71.652 61.3988 71.6096 61.1772 71.4587 61.0263C71.1664 60.7341 70.6149 60.7011 69.8041 60.9273C68.9273 61.163 68.0033 61.5402 67.0322 62.0587C64.7883 63.2089 63.3835 64.0669 62.8179 64.6326C62.5727 64.8777 62.5963 65.1464 62.8886 65.4387C63.1903 65.7404 63.4778 65.7922 63.7512 65.5943ZM70.1152 62.285C69.8135 63.1335 69.4034 64.015 68.8848 64.9296C68.3191 64.3639 67.8855 63.8171 67.5838 63.2891C68.4417 62.8271 69.2855 62.4924 70.1152 62.285ZM78.0126 69.3339C78.8988 70.2201 79.5352 70.4699 79.9218 70.0834C80.1103 69.8948 80.1056 69.645 79.9076 69.3339L75.3539 65.0629C75.2124 64.9404 75.0286 64.8791 74.8023 64.8791C74.5855 64.8885 74.4205 64.9498 74.3073 65.0629C74.0622 65.3081 74.0858 65.5768 74.3781 65.869C74.8966 66.3876 75.4953 66.9391 76.1741 67.5237C75.467 68.1176 74.5949 68.9332 73.5578 69.9702C72.6904 70.8376 71.8042 71.7522 70.8991 72.7138C70.6351 72.9778 70.6257 73.2324 70.8708 73.4775C71.0122 73.6189 71.1819 73.7038 71.3799 73.7321C71.5968 73.7603 71.7712 73.7085 71.9032 73.5765C72.2426 73.2371 72.5019 72.9684 72.681 72.7704L73.7275 71.6956L77.1075 68.3722L78.0126 69.3339ZM74.9818 77.5884C75.1232 77.7299 75.307 77.8194 75.5333 77.8571C75.769 77.8854 75.9481 77.8477 76.0707 77.744C76.5987 77.2915 78.1496 75.7782 80.7235 73.2044C81.308 72.6198 81.6474 72.271 81.7417 72.1579C81.8831 71.9976 81.9397 71.8279 81.9114 71.6487C81.8831 71.4885 81.7983 71.3376 81.6568 71.1962C81.5154 71.0548 81.3551 70.9793 81.176 70.9699C81.0157 70.9605 80.8696 71.0218 80.7376 71.1538L74.9252 76.853C74.6989 77.0793 74.7178 77.3245 74.9818 77.5884ZM86.0606 75.7413C85.1649 74.8457 84.2127 74.3931 83.2039 74.3837C82.2045 74.3837 81.224 74.8645 80.2623 75.8262C79.2912 76.7973 78.7114 77.8768 78.5228 79.0647C78.3437 80.2433 78.6501 81.2285 79.442 82.0205C80.1774 82.7558 81.1155 83.0151 82.2563 82.7983C83.416 82.5814 84.4578 82.011 85.3817 81.0871C86.3057 80.1631 86.8242 79.2203 86.9374 78.2586C87.0599 77.2876 86.7677 76.4485 86.0606 75.7413ZM80.5734 81.0871C80.0172 80.5308 79.838 79.8237 80.036 78.9658C80.234 78.1267 80.6441 77.396 81.2664 76.7737C81.8886 76.1515 82.5156 75.8262 83.1473 75.7979C83.7884 75.7602 84.3824 76.0148 84.9292 76.5616C85.4666 77.099 85.6693 77.6505 85.5373 78.2162C85.4242 78.7819 84.9811 79.4513 84.2079 80.2244C83.4443 80.9881 82.6429 81.4123 81.8038 81.4972C81.3041 81.5443 80.894 81.4076 80.5734 81.0871ZM88.6513 82.4333C88.5476 84.1021 88.1752 85.9736 87.5341 88.0478C87.5153 88.1232 87.4681 88.2835 87.3927 88.5286C87.3173 88.7737 87.2607 89.0754 87.223 89.4337C87.1947 89.726 87.2984 89.99 87.5341 90.2257C87.9301 90.6216 88.3732 90.5745 88.8635 90.0842L94.0536 84.7526C94.2139 84.5924 94.2941 84.4085 94.2941 84.2011C94.3035 83.9843 94.2469 83.8146 94.1243 83.692C93.8132 83.3809 93.4408 83.3667 93.0071 83.6496L92.894 83.7627L91.805 84.9931C90.9848 85.9264 89.9996 86.9777 88.8493 88.1468C89.3679 86.6854 89.7309 84.9648 89.9383 82.9849C90.042 82.1458 90.0844 81.5377 90.0656 81.1605C90.0561 80.774 89.9807 80.51 89.8393 80.3686C89.5753 80.1046 89.2783 80.0622 88.9483 80.2413C88.7032 80.3922 88.4062 80.642 88.0574 80.9908L87.5907 81.4575L83.5177 85.3042C83.4046 85.4362 83.348 85.587 83.348 85.7567C83.3669 85.9264 83.4329 86.0679 83.546 86.181C83.8383 86.4733 84.1306 86.511 84.4228 86.2941C84.47 86.2659 84.5737 86.1716 84.734 86.0113L85.0592 85.7143L88.6513 82.4333ZM99.3913 90.7126C99.6647 90.4391 99.7071 90.0479 99.5186 89.5388C99.3394 89.0202 98.9293 88.4404 98.2882 87.7993C97.6282 87.1393 96.9164 86.7481 96.1528 86.6255C95.3891 86.4841 94.7857 86.6349 94.3426 87.078C93.9089 87.5117 93.692 87.9737 93.692 88.464C93.692 88.9165 93.8193 89.3738 94.0739 89.8357L94.4698 90.4863C94.781 90.9671 95.0072 91.3631 95.1487 91.6742C95.3089 91.9854 95.3938 92.2965 95.4032 92.6076C95.4126 92.9187 95.2901 93.2016 95.0355 93.4561C94.715 93.7767 94.3426 93.9228 93.9183 93.8945C93.5035 93.8757 93.098 93.6683 92.7021 93.2723C92.4664 93.0366 92.0845 92.3059 91.5566 91.0803C91.5188 91.0048 91.4858 90.953 91.4576 90.9247C91.335 90.8021 91.17 90.7503 90.9626 90.7691C90.7646 90.7786 90.5996 90.8493 90.4676 90.9813C90.1753 91.2735 90.1518 91.7402 90.3969 92.3813C90.642 93.0224 91.071 93.6494 91.6838 94.2622C92.3061 94.8845 93.0038 95.2522 93.7769 95.3653C94.5688 95.4785 95.3089 95.1909 95.9972 94.5027C96.2895 94.2104 96.5016 93.9228 96.6336 93.64C96.7844 93.3571 96.8551 93.1356 96.8457 92.9753C96.8457 92.7867 96.8221 92.5746 96.775 92.3389C96.7467 92.0843 96.544 91.6365 96.1669 90.9954C95.7803 90.3449 95.5022 89.7745 95.3325 89.2842C95.1439 88.7562 95.1581 88.3838 95.3749 88.167C95.5918 87.9501 95.917 87.9171 96.3507 88.068C96.7939 88.2094 97.1521 88.4168 97.4255 88.6902C97.7178 88.9825 97.9441 89.3596 98.1044 89.8216C98.2835 90.3024 98.4485 90.6183 98.5993 90.7691C98.6842 90.854 98.802 90.8964 98.9529 90.8964C99.1226 90.8964 99.2687 90.8351 99.3913 90.7126Z" fill="#202020"/>
<path d="M0.178517 53.6948C0.302629 54.1912 1.12176 55.2586 2.23877 56.4252C3.25648 57.4677 4.10044 58.411 4.10044 58.5103C4.10044 58.6096 4.24937 58.7089 4.3983 58.7089C4.57206 58.7337 5.44084 59.3046 6.2848 60.0244C7.15358 60.7443 8.32022 61.6627 8.86631 62.0599C10.8521 63.5244 12.0932 67.2725 11.2741 69.2583C10.5542 71.0455 10.5294 71.5916 11.1748 73.5278C11.4975 74.5455 12.118 75.9107 12.5152 76.6057C12.9372 77.2759 13.2847 77.9213 13.2847 78.0454C13.2847 78.1695 13.4336 78.4426 13.6074 78.6163C13.7811 78.7901 14.2776 79.5099 14.7244 80.2298C15.6428 81.6695 17.852 83.5808 19.664 84.524C20.3094 84.8715 21.2775 85.3928 21.7739 85.6907C22.7916 86.3112 24.8767 86.485 25.944 86.063C26.2915 85.9389 26.9866 85.8644 27.483 85.9141C28.0043 85.9885 29.1957 85.7651 30.3376 85.4176C31.4049 85.0949 32.7453 84.7474 33.3411 84.6481C34.2843 84.4992 34.4581 84.5488 35.1034 85.2439C35.5006 85.6658 35.8978 86.2864 35.9722 86.6587C36.1708 87.4282 35.5999 89.5133 34.6318 91.4991C34.2595 92.2934 33.9616 92.9636 34.0113 92.9636C34.0609 92.9636 33.8375 93.5593 33.5148 94.2543C33.1673 94.9742 32.8943 95.7685 32.8943 96.0167C32.8943 96.2649 32.7453 96.7118 32.5468 97.0096C32.0255 97.8039 31.4049 100.46 31.2312 102.495C31.1319 103.935 31.1815 104.332 31.5042 104.605C31.7276 104.779 31.9014 105.052 31.9014 105.176C31.9014 105.747 33.8127 107.286 34.7559 107.485C37.2133 107.956 40.7133 107.584 42.5253 106.665C43.121 106.343 43.4437 106.318 43.7664 106.517C44.2132 106.814 45.0324 109.843 45.0572 111.282C45.0572 112.797 46.0253 114.112 47.7132 114.931C48.1848 115.155 48.8053 115.8 49.1777 116.445C49.55 117.066 50.0713 117.662 50.3691 117.761C50.6422 117.885 52.3798 117.984 54.2414 118.009C56.0783 118.034 57.6917 118.158 57.8158 118.307C57.9648 118.431 58.2378 118.531 58.4364 118.531C58.8087 118.531 60.3725 119.598 62.0356 121.013C63.525 122.304 64.9398 123.197 65.7838 123.396C66.1809 123.495 66.6277 123.644 66.7767 123.718C66.9008 123.793 67.6455 123.991 68.3901 124.14C69.1348 124.289 70.4504 124.612 71.3191 124.835C73.156 125.332 75.4396 125.108 77.4254 124.215C79.858 123.147 80.6027 122.502 81.9927 120.144C82.5388 119.176 83.4572 117.935 84.0033 117.364C84.5494 116.793 85.2196 115.899 85.4927 115.378C86.0884 114.286 86.6097 113.566 86.8579 113.566C86.9572 113.566 87.2799 113.293 87.5777 112.97C88.8189 111.63 92.294 110.91 94.1308 111.605C94.5032 111.754 94.8755 111.853 94.95 111.878C95.0244 111.878 95.1734 111.953 95.3223 112.077C95.4464 112.176 96.4393 112.474 97.5066 112.697C99.3931 113.119 101.875 113.07 102.521 112.598C102.868 112.325 104.854 111.655 105.822 111.456C106.294 111.357 106.939 110.96 107.311 110.563C107.659 110.165 108.528 109.371 109.248 108.825C110.687 107.708 111.308 106.467 111.854 103.588C112.152 101.974 112.127 101.85 111.382 99.4918C110.935 98.1514 110.588 96.6125 110.588 96.0912C110.588 94.4777 113.095 89.9849 113.964 89.9849C114.113 89.9849 114.634 89.7119 115.13 89.3892C115.602 89.0665 116.372 88.719 116.818 88.6197C117.29 88.5204 118.084 88.1729 118.606 87.8502C119.127 87.5027 120.12 87.1552 120.815 87.0807C121.609 86.9814 122.503 86.6587 123.247 86.1623C123.893 85.7403 124.761 85.219 125.159 84.9956C126.201 84.4247 127.914 81.2723 127.988 79.8078C128.063 78.5418 127.765 76.5809 127.492 76.5809C127.393 76.5809 127.12 76.2334 126.871 75.8362C126.325 74.893 125.63 74.1731 124.364 73.2299C121.609 71.1945 120.567 69.2335 121.559 67.9676C121.684 67.8186 122.379 67.4959 123.123 67.2725C124.191 66.925 124.538 66.6768 124.861 66.0314C125.208 65.2619 126.375 61.5386 126.648 60.2727C126.797 59.6769 126.325 58.1131 125.879 57.6415C125.73 57.4926 125.283 56.9465 124.91 56.45C124.513 55.9039 123.868 55.4323 123.272 55.2337C122.726 55.06 122.205 54.7373 122.13 54.5139C122.031 54.2905 121.907 53.099 121.832 51.8827C121.783 50.6416 121.659 49.475 121.584 49.2764C121.485 49.0778 121.46 47.9608 121.485 46.7942C121.559 44.4609 120.765 39.8936 120.169 39C119.971 38.7269 119.35 37.9822 118.804 37.3617C118.233 36.7411 117.786 36.1702 117.786 36.0709C117.786 35.9716 116.719 34.8298 115.404 33.5142C113.616 31.7767 112.748 31.0817 111.978 30.8583C111.432 30.6845 109.943 30.0391 108.726 29.4186C106.542 28.3264 106.467 28.2767 105.698 26.6881C104.755 24.8016 104.68 23.8832 105.276 20.3584L105.698 17.8762L104.929 15.4684C103.811 12.043 103.042 10.6281 101.453 9.11394C99.3435 7.15299 97.2584 6.33385 94.1805 6.33385C92.567 6.33385 89.7621 7.07852 88.9926 7.69908C88.794 7.87283 87.7763 8.26999 86.7586 8.56786C85.7409 8.86572 84.3757 9.38699 83.7303 9.7345C82.5636 10.3302 82.5388 10.3302 81.9183 9.88344C81.5956 9.63521 81.2977 9.36217 81.2977 9.23806C81.2977 9.13877 81.1488 9.0643 80.975 9.0643C80.3048 9.0643 78.8651 7.0537 77.9467 4.84451C77.2765 3.28071 76.6559 2.263 76.1843 1.98995C75.9361 1.86584 75.2659 1.44386 74.7198 1.09635C73.156 0.0786382 71.5922 -0.194407 69.0107 0.128283C67.7944 0.277217 66.6774 0.500617 66.5284 0.624729C66.3547 0.74884 66.032 0.897774 65.759 0.947418C64.9646 1.07153 62.8547 1.94031 62.1597 2.38711C61.8122 2.63533 61.2413 2.90838 60.869 2.98284C60.2484 3.1566 59.752 3.6034 56.4506 7.07852C55.7308 7.82319 55.1102 8.41892 55.0606 8.3941C54.9613 8.31963 52.6776 7.07852 51.5854 6.50761C51.1386 6.28421 50.1706 5.91187 49.4507 5.7133C48.7557 5.51472 47.5394 5.19203 46.7947 4.96863C46.0501 4.77005 44.809 4.57147 44.0643 4.57147C42.6246 4.57147 39.8197 5.14238 38.4296 5.7133C37.9828 5.91187 37.6105 6.01116 37.6105 5.96152C37.6105 5.61401 33.9864 7.74872 32.8198 8.79126C32.0255 9.48628 31.3056 10.0572 31.2063 10.0572C31.1071 10.0572 30.8092 10.5785 30.561 11.2487C30.2879 11.894 29.8163 12.8373 29.4936 13.3337C29.1709 13.855 28.9723 14.277 29.0468 14.277C29.3199 14.277 28.4263 15.7415 28.0291 15.9649C27.8057 16.089 27.21 16.1138 26.7135 15.9897C24.8518 15.5926 23.6604 15.5429 22.7668 15.8904C22.2455 16.0642 21.5257 16.2876 21.1285 16.3869C20.4583 16.5358 18.2243 17.5535 16.7846 18.3727C16.0648 18.7698 13.7811 21.0038 13.7811 21.3017C13.7811 21.401 13.2847 22.4932 12.6889 23.6846C12.0932 24.8761 11.5223 26.2165 11.423 26.6881C11.3237 27.1597 11.1748 27.6065 11.0755 27.681C11.001 27.7555 10.7528 28.4753 10.5294 29.2945C10.2564 30.4115 10.2067 31.3051 10.3308 32.8937C10.6039 36.0709 10.579 39.8439 10.2812 40.9113C10.1322 41.507 9.83438 41.929 9.48687 42.0531C9.189 42.1772 8.54362 42.624 8.072 43.046C7.12875 43.8651 4.64653 45.553 4.37348 45.553C4.27419 45.553 3.82739 45.9502 3.35577 46.4218C2.88414 46.8935 2.33805 47.2906 2.18912 47.2906C2.01537 47.2906 1.69268 47.5885 1.44445 47.9608C1.19623 48.358 0.799074 48.8792 0.575674 49.1275C0.327451 49.4005 0.10405 50.0211 0.10405 50.4927C0.0792282 50.9891 0.0295837 51.709 0.00476144 52.131C-0.0200608 52.5281 0.054406 53.248 0.178517 53.6948ZM6.5082 50.1948C6.90535 49.7232 7.6252 49.053 8.14647 48.7303C10.5046 47.2906 11.8202 46.3722 12.6145 45.6275C13.0861 45.2055 13.5329 44.8828 13.5825 44.9573C13.657 45.007 14.1535 44.6594 14.6995 44.1878C16.1144 42.9964 16.2882 42.0779 16.2633 36.0461C16.2385 31.3299 16.4619 28.7235 16.9832 28.0782C17.1073 27.9292 17.3307 27.2342 17.4548 26.5392C17.7527 25.1243 18.4974 23.7094 19.4654 22.6421C21.7491 20.135 22.2207 19.9613 26.4653 20.1599C29.1957 20.284 29.444 20.2591 30.7595 19.6634C31.529 19.3159 32.1496 19.0925 32.1496 19.167C32.1496 19.2663 32.4226 19.0677 32.7453 18.7698C33.3162 18.2485 34.2347 16.511 35.2772 14.0288C35.7736 12.7876 36.9651 11.1246 37.7346 10.5536C38.3303 10.1068 40.7381 9.31253 41.5076 9.31253C41.8055 9.31253 42.1281 9.18841 42.2026 9.0643C42.2771 8.91537 42.848 8.81608 43.4686 8.81608C44.66 8.81608 48.0855 9.5111 48.2841 9.78415C48.3585 9.88344 48.7557 10.1068 49.1777 10.2558C49.5748 10.4295 50.1954 10.8267 50.5429 11.1246C51.1386 11.6955 53.4719 12.5394 54.8372 12.7132C56.9719 12.9614 59.7023 11.2238 62.3087 7.99694C63.3512 6.68136 65.9079 4.59629 66.454 4.59629C66.6526 4.59629 66.9008 4.497 67.0249 4.37289C67.3724 4.07502 69.6312 3.35518 70.2766 3.35518C71.2943 3.35518 72.312 4.17431 72.9822 5.56436C74.4964 8.6175 75.4396 9.78415 77.9963 11.6706C78.7162 12.2167 79.3119 12.7132 79.3119 12.8125C79.3119 13.2593 81.1488 13.8054 82.4892 13.7557C83.8544 13.7061 86.5104 12.9366 86.5104 12.5891C86.5104 12.4153 89.489 10.9508 91.3507 10.1813C91.9216 9.9579 92.7656 9.78415 93.2124 9.80897C93.684 9.80897 94.3046 9.80897 94.5528 9.83379C95.1733 9.83379 97.7549 12.5394 98.4002 13.855C99.2938 15.7167 99.6414 18.1493 99.4924 21.8229C99.3931 24.8761 99.691 27.3831 100.312 28.8477C100.51 29.2696 100.659 29.7909 100.659 30.0143C100.659 30.5852 103.836 32.3972 107.758 34.0603C108.801 34.5071 112.847 38.4787 113.914 40.117C114.659 41.234 114.857 41.8049 114.932 43.046C115.006 43.9148 115.13 44.7091 115.205 44.8332C115.552 45.4289 115.801 48.3331 115.528 48.8296C114.982 49.8473 115.18 51.1381 116.372 54.6132C116.645 55.4323 117.116 56.3259 117.439 56.599C117.737 56.872 118.059 57.3684 118.134 57.716C118.208 58.0635 118.357 58.4606 118.457 58.6096C118.755 58.9819 120.393 59.95 120.79 59.95C121.659 59.9748 121.857 60.3719 121.51 61.4145C121.237 62.2833 121.063 62.4322 119.921 62.8045C118.432 63.301 117.886 63.7229 117.265 64.9641C116.992 65.4853 116.669 65.9073 116.545 65.9073C116.123 65.9073 116.347 67.7442 116.918 69.0101C117.24 69.6803 117.638 70.698 117.811 71.2441C117.985 71.7902 118.457 72.7086 118.829 73.2795C119.201 73.8504 119.524 74.4213 119.524 74.5455C119.524 74.7937 120.542 75.7369 121.957 76.8043C122.701 77.3752 123.049 78.3184 122.503 78.3184C122.354 78.3184 122.254 78.4674 122.254 78.6411C122.254 79.1376 121.262 80.1801 120.393 80.6021C119.971 80.8255 118.978 81.3468 118.184 81.7687C117.364 82.1907 116.57 82.5382 116.421 82.5382C116.272 82.5382 115.602 82.8113 114.932 83.134C114.287 83.4815 113.194 83.8786 112.499 84.0524C111.804 84.2013 110.985 84.5737 110.687 84.8715C110.365 85.1694 109.967 85.5169 109.794 85.6658C109.123 86.2616 108.577 87.0559 107.783 88.6693C106.12 91.9955 105.698 94.0061 106.17 96.2649C106.294 96.9351 106.443 97.6053 106.467 97.7543C106.492 97.928 106.666 98.4741 106.84 99.0202C107.46 100.832 106.741 103.662 105.549 104.158C105.127 104.332 104.358 104.903 103.812 105.4C102.595 106.566 100.758 107.162 98.1768 107.212C96.5882 107.236 96.1166 107.137 95.0244 106.541C93.9322 105.995 93.411 105.871 91.9216 105.871C89.5387 105.871 87.1806 106.268 86.287 106.814C85.6168 107.212 84.7232 107.931 82.6629 109.644C82.2161 110.016 81.4963 110.96 81.0247 111.729C80.553 112.499 79.8332 113.541 79.4112 114.038C78.9892 114.534 78.3935 115.378 78.0708 115.924C77.202 117.389 76.4077 118.059 74.5212 119.002C72.9574 119.772 72.7092 119.821 71.2943 119.648C70.4504 119.573 69.383 119.325 68.9362 119.126C68.4646 118.928 67.8689 118.779 67.6206 118.779C67.3476 118.779 67.149 118.679 67.149 118.555C67.149 118.406 66.6774 118.233 66.0816 118.158C65.2625 118.034 64.7661 117.736 63.9718 116.942C63.4008 116.346 62.5072 115.651 61.986 115.403C61.4895 115.155 60.7697 114.733 60.3725 114.484C59.1562 113.665 56.9967 113.045 54.9116 112.946C53.05 112.821 52.8266 112.772 52.3053 112.151C51.6599 111.332 51.3124 110.215 51.2379 108.478C51.1635 107.236 49.9223 104.283 49.2521 103.712C49.0536 103.563 48.011 103.141 46.9189 102.768C44.387 101.9 41.7558 101.85 39.9686 102.644C39.5466 102.818 38.8516 103.116 38.4048 103.314C37.9332 103.513 37.5112 103.637 37.4616 103.563C37.3871 103.513 37.4616 102.545 37.5857 101.428C37.8339 99.5663 38.2559 98.3252 39.8693 94.7756C40.1175 94.1799 40.3409 93.609 40.3409 93.46C40.3409 93.3359 40.7381 92.3927 41.2097 91.375C42.1033 89.4885 42.2026 88.7438 41.9296 86.6587C41.7806 85.6907 41.5324 85.219 40.4899 84.102C38.8516 82.3397 37.7346 81.6198 35.8233 81.173C34.185 80.8007 30.7099 80.8751 29.3199 81.3219C28.8234 81.4709 28.5255 81.4709 28.4263 81.2723C28.327 81.1234 27.7561 81.0241 27.1603 81.0737C25.5469 81.1482 23.2384 79.9319 21.1037 77.8965C19.2172 76.0596 17.2562 73.1058 17.2562 72.0384C17.2562 71.6909 17.157 71.3434 17.0328 71.2441C16.8839 71.1696 16.8839 70.7973 17.0577 70.3009C17.9513 67.4215 18.1995 64.1201 17.6038 62.6804C17.1818 61.6875 15.3201 59.8259 13.4336 58.5599C12.7386 58.0883 11.7705 57.3933 11.2741 57.0209C10.8025 56.6486 9.80956 55.9288 9.08971 55.3827C7.69967 54.3401 5.838 52.131 5.838 51.4856C5.838 51.2622 6.13586 50.6913 6.5082 50.1948Z" fill="black"/>
</svg>
