<svg width="128" height="159" viewBox="0 0 128 159" fill="none" xmlns="http://www.w3.org/2000/svg">
<path d="M49.384 63.112C47.752 63.112 46.416 63.464 45.376 64.168C44.336 64.872 43.816 65.824 43.816 67.024C43.816 68.208 44.16 69.112 44.848 69.736C45.552 70.344 46.64 70.776 48.112 71.032C48.784 71.144 49.4 71.312 49.96 71.536C51.08 71.984 51.64 72.768 51.64 73.888C51.64 74.72 51.36 75.44 50.8 76.048C50.256 76.624 49.688 76.912 49.096 76.912C48.488 76.912 47.856 76.784 47.2 76.528C47.152 76.512 46.824 76.36 46.216 76.072C45.608 75.784 45.28 75.632 45.232 75.616C45.184 75.584 45.096 75.568 44.968 75.568C44.84 75.568 44.712 75.6 44.584 75.664C44.36 75.792 44.176 75.952 44.032 76.144C43.888 76.336 43.816 76.512 43.816 76.672C43.816 77.104 44.224 77.536 45.04 77.968C46.272 78.656 47.52 79 48.784 79C50.048 79 51.024 78.728 51.712 78.184C52.944 77.192 53.56 75.68 53.56 73.648C53.56 71.232 52.272 69.792 49.696 69.328C48.608 69.12 47.736 68.872 47.08 68.584C46.264 68.216 45.856 67.64 45.856 66.856C45.856 66.28 46.192 65.792 46.864 65.392C47.52 64.992 48.168 64.792 48.808 64.792C49.432 64.792 50.136 64.976 50.92 65.344C51.672 65.696 52.168 65.872 52.408 65.872C52.632 65.872 52.808 65.784 52.936 65.608C53.064 65.432 53.128 65.224 53.128 64.984C53.128 64.44 52.76 63.992 52.024 63.64C51.32 63.288 50.44 63.112 49.384 63.112ZM59.3196 73.624C59.6716 73.624 59.9356 73.624 60.1116 73.624C60.2876 73.608 60.4156 73.6 60.4956 73.6C60.6876 73.568 60.8636 73.464 61.0236 73.288C61.1836 73.112 61.2636 72.928 61.2636 72.736C61.2636 72.352 61.0156 72.128 60.5196 72.064C58.4876 72.064 57.2636 72.056 56.8476 72.04C56.8316 71.928 56.8236 71.12 56.8236 69.616C57.4316 69.664 58.0236 69.688 58.5996 69.688C60.1836 69.688 61.1836 69.576 61.5996 69.352C61.7916 69.224 61.8876 69.008 61.8876 68.704C61.8876 68.304 61.6316 68.064 61.1196 67.984H61.0956L56.8956 67.912H56.2236C55.5036 67.928 55.1436 68.232 55.1436 68.824C55.1436 69.848 55.1676 70.984 55.2156 72.232C55.0396 72.408 54.9516 72.6 54.9516 72.808C54.9516 73.048 55.0556 73.224 55.2636 73.336V77.32C55.2636 77.832 55.3116 78.24 55.4076 78.544C55.5036 78.848 55.7516 79 56.1516 79L60.8556 78.952C61.4796 78.952 61.7916 78.616 61.7916 77.944C61.7916 77.592 61.5596 77.392 61.0956 77.344L56.9436 77.416C56.9596 77.4 56.9676 77.176 56.9676 76.744L56.9196 73.6L59.3196 73.624ZM65.8928 78.088C65.8448 76.648 65.8128 75.696 65.7968 75.232C66.4528 75.68 67.1968 76.264 68.0288 76.984C68.8448 77.704 69.3568 78.2 69.5648 78.472C69.8528 78.824 70.1168 79 70.3568 79C70.4208 79 70.5248 78.976 70.6688 78.928C71.0528 78.8 71.2448 78.56 71.2448 78.208C71.2448 77.712 70.8528 77.08 70.0688 76.312C69.2528 75.544 68.3568 74.848 67.3808 74.224C67.5088 74.208 67.9008 74.016 68.5568 73.648C69.2128 73.28 69.7008 72.984 70.0208 72.76C70.3888 72.488 70.7168 72.136 71.0048 71.704C71.3088 71.272 71.4608 70.888 71.4608 70.552C71.4608 69.816 71.0688 69.2 70.2848 68.704C69.5008 68.192 68.5968 67.936 67.5728 67.936C66.5328 67.936 65.7088 68.08 65.1008 68.368C64.4928 68.656 64.1888 69.056 64.1888 69.568C64.1888 74.88 64.2208 77.864 64.2848 78.52C64.2848 78.84 64.4608 79 64.8128 79C65.0848 79 65.3328 78.912 65.5568 78.736C65.7808 78.56 65.8928 78.352 65.8928 78.112V78.088ZM65.7968 73.096C65.7968 71.4 65.8048 70.296 65.8208 69.784C66.3968 69.64 66.9888 69.568 67.5968 69.568C68.1728 69.568 68.6848 69.688 69.1328 69.928C69.5968 70.152 69.8288 70.464 69.8288 70.864C69.7808 71.312 69.2288 71.8 68.1728 72.328C67.1008 72.84 66.3088 73.096 65.7968 73.096ZM74.2062 79C74.4462 79 74.6782 78.92 74.9022 78.76C75.1262 78.584 75.2462 78.4 75.2622 78.208C75.3262 77.376 75.3582 74.776 75.3582 70.408C75.3582 69.416 75.3502 68.832 75.3342 68.656C75.3182 68.4 75.2222 68.208 75.0462 68.08C74.8862 67.968 74.6862 67.912 74.4462 67.912C74.2062 67.912 74.0062 67.984 73.8462 68.128C73.7022 68.256 73.6302 68.432 73.6302 68.656L73.5342 78.424C73.5342 78.808 73.7582 79 74.2062 79ZM81.6556 73.624C82.0076 73.624 82.2716 73.624 82.4476 73.624C82.6236 73.608 82.7516 73.6 82.8316 73.6C83.0236 73.568 83.1996 73.464 83.3596 73.288C83.5196 73.112 83.5996 72.928 83.5996 72.736C83.5996 72.352 83.3516 72.128 82.8556 72.064C80.8236 72.064 79.5996 72.056 79.1836 72.04C79.1676 71.928 79.1596 71.12 79.1596 69.616C79.7676 69.664 80.3596 69.688 80.9356 69.688C82.5196 69.688 83.5196 69.576 83.9356 69.352C84.1276 69.224 84.2236 69.008 84.2236 68.704C84.2236 68.304 83.9676 68.064 83.4556 67.984H83.4316L79.2316 67.912H78.5596C77.8396 67.928 77.4796 68.232 77.4796 68.824C77.4796 69.848 77.5036 70.984 77.5516 72.232C77.3756 72.408 77.2876 72.6 77.2876 72.808C77.2876 73.048 77.3916 73.224 77.5996 73.336V77.32C77.5996 77.832 77.6476 78.24 77.7436 78.544C77.8396 78.848 78.0876 79 78.4876 79L83.1916 78.952C83.8156 78.952 84.1276 78.616 84.1276 77.944C84.1276 77.592 83.8956 77.392 83.4316 77.344L79.2796 77.416C79.2956 77.4 79.3036 77.176 79.3036 76.744L79.2556 73.6L81.6556 73.624ZM93.7968 69.424C93.7968 68.96 93.5008 68.592 92.9088 68.32C92.3168 68.032 91.4768 67.888 90.3888 67.888C89.2688 67.888 88.3328 68.16 87.5808 68.704C86.8128 69.232 86.4288 69.872 86.4288 70.624C86.4288 71.36 86.6368 71.936 87.0527 72.352C87.4368 72.736 87.9328 73.016 88.5408 73.192L89.4288 73.408C90.1008 73.552 90.6288 73.696 91.0128 73.84C91.4128 73.968 91.7488 74.16 92.0208 74.416C92.2928 74.672 92.4288 75.016 92.4288 75.448C92.4288 75.992 92.2368 76.432 91.8528 76.768C91.4848 77.104 90.9648 77.272 90.2928 77.272C89.8928 77.272 88.9488 76.976 87.4608 76.384C87.3648 76.352 87.2928 76.336 87.2448 76.336C87.0368 76.336 86.8528 76.432 86.6928 76.624C86.5328 76.8 86.4528 77 86.4528 77.224C86.4528 77.72 86.8288 78.136 87.5808 78.472C88.3328 78.808 89.2288 78.976 90.2688 78.976C91.3248 78.976 92.2288 78.696 92.9808 78.136C93.7488 77.56 94.1328 76.688 94.1328 75.52C94.1328 75.024 94.0688 74.6 93.9408 74.248C93.8288 73.88 93.7008 73.632 93.5568 73.504C93.3968 73.344 93.1968 73.184 92.9568 73.024C92.7168 72.832 92.1648 72.624 91.3008 72.4C90.4208 72.176 89.7008 71.928 89.1408 71.656C88.5328 71.368 88.2288 71.04 88.2288 70.672C88.2288 70.304 88.4768 70 88.9728 69.76C89.4688 69.504 89.9488 69.376 90.4128 69.376C90.9088 69.376 91.4208 69.504 91.9488 69.76C92.5088 70.016 92.9168 70.144 93.1728 70.144C93.3168 70.144 93.4528 70.08 93.5808 69.952C93.7248 69.808 93.7968 69.632 93.7968 69.424Z" fill="#202020"/>
<path d="M0.0613152 107.302C0.16549 108.147 0.466442 109.374 0.697943 109.872C0.790543 110.08 0.964164 110.636 1.09149 111.111C1.20724 111.574 1.49662 112.337 1.71654 112.789C1.94804 113.24 2.13324 113.657 2.13324 113.726C2.13324 113.796 2.26056 114.027 2.41104 114.224C2.56151 114.433 2.72356 114.722 2.76987 114.884C3.02452 115.729 4.64502 118.611 5.27007 119.34C5.37425 119.468 5.65205 119.78 5.88355 120.035C6.11505 120.29 6.52017 120.822 6.7864 121.216C7.73555 122.581 8.31431 123.276 9.11298 124.028C9.56441 124.445 10.0621 124.931 10.2242 125.116C10.8492 125.822 11.6595 126.563 11.7521 126.505C11.7984 126.482 11.8794 126.517 11.9373 126.598C11.9836 126.679 12.4929 126.98 13.0716 127.258C13.6388 127.547 14.1365 127.802 14.1713 127.836C14.2523 127.941 17.2734 128.855 17.8174 128.948C18.2225 129.017 19.8314 129.33 20.0514 129.376C20.0977 129.387 20.4449 129.353 20.8269 129.306C22.922 129.04 25.8736 129.341 27.0427 129.943C27.7719 130.313 28.7674 131.008 29.1609 131.436C29.3461 131.633 29.948 132.096 30.492 132.455C31.0361 132.814 31.4991 133.138 31.5338 133.173C31.7421 133.427 33.2237 134.562 33.3511 134.562C33.4321 134.562 33.5015 134.608 33.5015 134.677C33.5015 134.735 33.5941 134.793 33.6983 134.793C33.8141 134.793 34.0571 134.897 34.2539 135.025C34.4391 135.152 34.9368 135.43 35.342 135.626C36.048 135.962 36.1638 135.985 37.5412 135.985C38.583 135.997 39.0807 135.951 39.2891 135.835C39.4511 135.742 39.6363 135.661 39.6942 135.65C39.9488 135.615 41.4304 134.874 41.4652 134.781C41.4883 134.724 41.5693 134.677 41.6504 134.677C41.824 134.677 42.8542 133.589 43.1204 133.126C43.3866 132.663 44.1506 131.691 44.6251 131.216C44.984 130.857 45.4701 130.429 47.1138 129.005C47.299 128.843 47.542 128.658 47.6462 128.6C47.7504 128.531 48.1208 128.288 48.468 128.056C48.8153 127.813 49.3246 127.57 49.614 127.512C50.3779 127.339 51.8248 127.327 52.1489 127.501C52.5193 127.698 53.6421 128.855 53.6421 129.052C53.6421 129.133 53.7694 129.445 53.9314 129.746C54.0935 130.047 54.1977 130.348 54.163 130.406C54.1167 130.464 54.1398 130.51 54.1977 130.51C54.2556 130.51 54.4408 130.857 54.6144 131.286C54.7996 131.726 54.9964 132.189 55.0542 132.328C55.1468 132.513 55.1468 132.628 55.0542 132.744C54.9269 132.895 54.9616 133.265 55.2626 134.619C55.3436 134.967 55.3668 135.684 55.3205 136.414C55.2742 137.316 55.2973 137.837 55.4362 138.439C55.9339 140.627 56.0613 141.287 56.177 142.085C56.2465 142.56 56.3275 143.104 56.3506 143.301C56.3854 143.486 56.4317 143.972 56.4664 144.366C56.5011 144.759 56.6053 145.28 56.7095 145.523C56.8136 145.766 57.022 146.461 57.1725 147.086C57.3229 147.699 57.6007 148.509 57.7859 148.88C57.9827 149.25 58.2952 149.864 58.4804 150.246C58.6772 150.628 58.9434 151.172 59.0708 151.461C59.3833 152.144 59.8 152.827 60.1125 153.174C60.2514 153.336 60.4366 153.626 60.5176 153.834C60.7376 154.355 62.9947 156.542 63.6776 156.901C63.9786 157.063 64.2795 157.225 64.349 157.283C65.0782 157.827 65.4486 157.966 66.5945 158.175C67.9025 158.394 70.0207 158.406 71.0046 158.198C71.5949 158.07 71.5486 158.07 72.8566 158.012C74.3151 157.943 75.8314 157.758 76.6185 157.561C77.0005 157.468 77.5676 157.387 77.8802 157.376C78.1811 157.364 78.4821 157.341 78.5284 157.306C78.5862 157.272 78.9335 157.214 79.3039 157.179C79.6743 157.144 80.3225 157.005 80.7508 156.89C81.1906 156.762 82.0703 156.6 82.7185 156.542C84.5821 156.346 85.2882 156.253 85.5081 156.149C85.8785 155.987 86.4225 155.397 86.3647 155.234C86.3299 155.142 86.3762 154.887 86.4804 154.69C86.7466 154.158 86.7929 152.896 86.5962 151.23C86.2836 148.66 86.4688 146.449 87.2096 143.879C87.3948 143.243 87.6379 142.363 87.7305 141.912C87.8347 141.472 87.9852 141.032 88.0546 140.951C88.1241 140.858 88.1935 140.719 88.2051 140.638C88.2398 140.407 89.3279 138.219 89.432 138.173C89.4899 138.15 89.5246 138.057 89.5246 137.976C89.5246 137.791 90.2886 137.108 90.4854 137.108C90.5664 137.108 91.585 136.795 92.7656 136.414C93.9347 136.032 95.0806 135.684 95.3121 135.65C95.671 135.592 98.8425 134.735 99.7685 134.446C99.9537 134.388 100.324 134.307 100.579 134.272C101.146 134.18 102.141 133.902 104.977 133.057C105.359 132.941 105.984 132.756 106.366 132.652C106.748 132.536 107.477 132.246 107.975 131.992C108.473 131.737 109.133 131.459 109.422 131.355C109.711 131.263 110.036 131.112 110.128 131.031C110.221 130.95 110.487 130.8 110.707 130.707C110.927 130.614 111.425 130.302 111.807 130.024C112.189 129.735 112.848 129.306 113.277 129.087C113.705 128.855 114.122 128.612 114.203 128.542C114.284 128.473 114.596 128.265 114.897 128.068C115.21 127.871 115.557 127.57 115.684 127.385C115.812 127.211 116.344 126.76 116.865 126.378C117.386 126.008 118.694 124.827 119.782 123.75C121.564 121.979 121.807 121.69 122.409 120.602C122.78 119.942 123.15 119.317 123.231 119.213C123.567 118.796 123.972 118.437 124.227 118.345C124.551 118.218 125.477 116.794 125.893 115.764C126.079 115.312 126.275 114.896 126.333 114.826C126.379 114.768 126.542 114.409 126.68 114.039C126.819 113.68 126.97 113.379 127.028 113.379C127.086 113.379 127.12 113.287 127.12 113.171C127.12 113.067 127.248 112.245 127.41 111.354C127.954 108.309 127.988 107.904 128 103.286C128 100.843 127.965 98.4822 127.919 98.0423C127.884 97.5909 127.815 96.1324 127.78 94.8013C127.734 93.4586 127.687 92.2085 127.664 92.0233C127.63 91.8265 127.583 90.5301 127.537 89.1295C127.502 87.729 127.433 86.1085 127.387 85.5413C127.329 84.9625 127.271 83.643 127.259 82.5897C127.236 81.5363 127.213 80.5177 127.201 80.3325C127.19 80.1358 127.143 79.5107 127.097 78.9435C127.062 78.3648 126.993 77.0915 126.958 76.1076C126.924 75.1238 126.877 74.1052 126.866 73.8505C126.495 69.7182 126.403 62.1829 126.669 58.8609C126.738 58.0043 126.831 56.5111 126.866 55.562C126.924 54.0225 126.981 53.2933 127.224 51.2214C127.317 50.4458 127.317 41.6257 127.224 41.0932C127.178 40.8386 127.086 40.3408 127.028 39.9936C126.97 39.6463 126.889 38.7435 126.854 38.0027C126.819 37.2503 126.68 36.0812 126.565 35.3983C126.437 34.7154 126.229 33.2569 126.102 32.1804C125.963 31.0924 125.731 29.6339 125.581 28.9394C125.43 28.2334 125.268 27.5041 125.245 27.3189C125.048 26.2193 124.817 25.247 124.412 23.8349C124.261 23.3256 124.134 22.851 124.134 22.77C124.134 22.6079 123.717 21.3231 123.497 20.8369C122.641 18.9039 122.386 18.3714 121.842 17.4223C121.286 16.45 120.731 15.6629 120.279 15.1999C119.921 14.8411 119.122 13.753 118.925 13.3826C118.809 13.1511 118.59 12.8386 118.439 12.6765C118.289 12.5145 118.092 12.2483 118.011 12.0746C117.872 11.7968 117.258 11.0097 116.738 10.4194C116.494 10.1532 115.511 9.25032 115.105 8.92622C114.55 8.4748 112.686 7.83818 112.42 8.00023C112.362 8.03495 111.969 7.82661 111.54 7.53723C111.1 7.24786 110.626 6.95847 110.464 6.88902C110.313 6.83115 110.105 6.72697 110.012 6.65752C109.92 6.59964 109.364 6.33343 108.797 6.0672C108.218 5.80098 107.315 5.38427 106.771 5.12962C106.239 4.87497 105.521 4.56245 105.186 4.43512C104.85 4.3078 104.503 4.14575 104.422 4.07629C104.051 3.71747 101.285 2.82619 99.4791 2.47894C99.1898 2.42107 98.8309 2.32846 98.6689 2.27059C98.3448 2.15484 96.9558 1.84231 94.6755 1.39089C93.8421 1.21726 92.9624 1.03206 92.7078 0.974184C92.4531 0.916309 91.747 0.84686 91.1451 0.812135C90.5432 0.77741 89.5709 0.696396 89.0038 0.638521C88.425 0.580646 87.5453 0.499616 87.036 0.464891C86.5267 0.430166 85.6933 0.349146 85.184 0.279695C83.2857 0.0366201 81.6305 -0.0328398 78.8177 0.0134604C75.8198 0.0713356 75.3221 0.0944956 73.3775 0.279696C72.7409 0.337571 72.0116 0.395434 71.757 0.395434C71.5023 0.407009 70.8773 0.499611 70.368 0.592211C69.8587 0.696387 69.2799 0.800561 69.0947 0.812136C68.8979 0.835286 68.3076 0.904735 67.7636 0.974185C67.2196 1.04363 66.3399 1.12467 65.7958 1.1594C64.8583 1.21727 63.6545 1.30986 63.0063 1.39089C62.8442 1.41404 62.4275 1.48349 62.0803 1.55294C61.733 1.62239 61.3163 1.70342 61.1427 1.72657C60.9691 1.76129 60.3672 1.9002 59.8116 2.0391C59.2444 2.178 58.3763 2.37476 57.867 2.49051C57.022 2.67571 55.9686 2.94195 54.0472 3.4744C53.6652 3.57857 52.9823 3.76377 52.5424 3.87952C52.091 3.99527 51.547 4.15733 51.3271 4.22678C51.1071 4.29623 50.8409 4.37724 50.7483 4.40039C50.5631 4.44669 48.6069 5.18751 48.0282 5.44216C47.8314 5.52318 47.4147 5.67365 47.1022 5.7894C46.4656 6.00933 45.0418 6.7617 44.984 6.91217C44.9608 6.95847 44.764 7.02792 44.5557 7.07422C44.3358 7.10895 44.1043 7.21313 44.0232 7.30573C43.9538 7.39833 43.8033 7.46778 43.6991 7.46778C43.3982 7.47935 42.8194 7.83818 42.2523 8.35906C41.9745 8.63686 41.6851 8.85678 41.6388 8.85678C41.1758 8.85678 36.2795 12.8154 36.2795 13.1858C36.2795 13.2321 35.886 13.672 35.4114 14.1581C34.9368 14.6443 34.5433 15.0726 34.5433 15.1189C34.5433 15.1536 34.2539 15.5356 33.9067 15.9754C33.5594 16.4153 33.27 16.8435 33.27 16.9246C33.27 17.0056 33.2353 17.075 33.1774 17.075C33.1311 17.075 32.9922 17.2371 32.8649 17.4339C32.7376 17.6306 32.4019 17.92 32.1125 18.0936C31.3949 18.5103 30.9666 18.8692 30.5383 19.4363C30.2027 19.8878 29.5082 21.462 29.2072 22.4574C29.1378 22.7121 28.8715 23.3487 28.6285 23.8696C28.3854 24.3905 28.1539 24.9692 28.1076 25.1428C27.9803 25.71 26.8575 28.6848 26.6723 28.9394C26.626 28.9973 26.4755 29.495 26.3366 30.0391C26.1861 30.5831 25.9894 31.2313 25.8968 31.486C25.7926 31.7406 25.6537 32.2036 25.5726 32.5277C25.4916 32.8402 25.2486 33.6273 25.0518 34.264C24.7624 35.1784 24.2531 36.9957 24.0795 37.7365C24.0216 37.9911 23.7206 38.975 23.2808 40.3987C23.0146 41.2205 22.7947 41.9498 22.7831 42.0192C22.6095 42.841 22.459 43.3966 22.2622 43.9291C22.1349 44.2763 21.8802 45.1445 21.695 45.8506C21.5098 46.5451 21.313 47.2511 21.2436 47.4132C20.8963 48.2813 20.6417 49.3925 20.2944 51.6033C20.2366 51.9853 20.1208 52.5525 20.0282 52.8766C19.7504 53.8605 19.4958 55.724 19.3106 57.9349C19.2874 58.2821 19.1832 58.9303 19.0906 59.3817C18.9749 59.9374 18.9054 61.3032 18.8707 63.7687C18.8244 66.9865 18.8591 67.8662 19.1138 69.9729C19.1601 70.3201 19.1832 70.7137 19.1832 70.841C19.0559 73.7348 18.8013 74.8923 18.0605 75.934C17.9216 76.1192 17.7248 76.4317 17.6438 76.6285C17.4817 76.9642 15.0973 79.4644 14.9352 79.4644C14.8889 79.4644 14.1944 80.1126 13.3842 80.8997C11.7752 82.4623 11.347 82.8327 9.91166 83.8166C8.731 84.6269 8.46478 84.9047 7.42302 86.3515C6.96002 86.9766 6.35813 87.729 6.0919 88.0299C5.8141 88.3193 5.44369 88.7244 5.28164 88.9443C5.10802 89.1643 4.91124 89.3958 4.85337 89.4652C4.66817 89.6736 3.29075 91.7108 3.29075 91.7802C3.29075 91.8844 2.54994 92.9493 2.44577 92.9956C2.30687 93.0535 1.78599 94.1763 1.78599 94.4309C1.78599 94.5467 1.68182 94.8476 1.56607 95.1023C1.20724 95.8431 0.79054 97.8224 0.21179 101.573C0.0150142 102.788 -0.06601 106.226 0.0613152 107.302ZM2.76986 100.936C2.80459 100.485 2.92035 99.7901 3.00137 99.3734C3.09397 98.9567 3.19814 98.4359 3.23287 98.2159C3.34862 97.5446 3.75374 95.982 3.92737 95.519C4.01997 95.2875 4.07784 95.0907 4.05469 95.0907C3.97367 95.0907 5.27007 92.6368 5.60575 92.1391C5.79095 91.8844 6.0919 91.5256 6.28867 91.3404C6.48545 91.1436 6.6475 90.9584 6.6475 90.9005C6.6475 90.8079 6.7401 90.6806 7.35357 89.9514C7.51562 89.7546 7.9902 89.1064 8.39533 88.5045C9.17086 87.3586 10.1316 86.3284 11.1039 85.5876C11.4164 85.3445 11.9141 84.9394 12.2035 84.6847C12.4929 84.4301 12.7707 84.2102 12.817 84.2102C12.8633 84.2102 12.9675 84.1639 13.0485 84.0944C13.1295 84.0365 13.4536 83.7819 13.7777 83.5272C14.0902 83.2842 14.7037 82.6707 15.1204 82.173C15.9538 81.1775 16.1853 80.9576 16.683 80.6914C17.0303 80.5062 19.0443 78.5037 19.1717 78.2259C19.3569 77.786 19.8199 77.1378 19.9703 77.0915C20.1555 77.0221 21.1047 75.2279 21.4288 74.3135C21.7876 73.2949 21.9381 70.5864 21.7529 68.5839C21.5214 66.13 21.6719 60.1226 21.996 58.5136C22.0886 58.039 22.239 57.0436 22.3316 56.3144C22.5631 54.4045 22.8294 52.7608 23.0956 51.476C23.2229 50.8625 23.4313 49.8555 23.547 49.2536C23.6628 48.6517 23.8364 47.9225 23.9522 47.6331C24.0563 47.3437 24.1837 46.9502 24.2415 46.765C24.3457 46.3946 24.774 44.913 24.936 44.3342C25.1444 43.5934 26.0009 40.3293 26.325 39.0676C26.5102 38.3384 26.7649 37.4702 26.8806 37.1577C27.1006 36.6021 27.17 36.359 27.4825 35.2478C27.5636 34.9585 27.6677 34.6228 27.7256 34.4954C27.8529 34.1829 28.3275 32.6203 28.6516 31.4281C28.7905 30.884 28.9873 30.3169 29.0683 30.1548C29.1493 29.9928 29.2188 29.796 29.2188 29.7034C29.2188 29.414 30.1564 26.7402 30.2721 26.7055C30.3994 26.6592 31.175 25.4901 31.3717 25.0618C31.4412 24.8998 31.6958 24.5062 31.9505 24.1937C32.3325 23.6844 32.7029 23.0593 33.3626 21.7629C33.4668 21.5662 33.7446 21.161 33.9877 20.8601C34.2308 20.5476 34.4275 20.2582 34.4275 20.2003C34.4275 20.154 34.6127 19.8762 34.8211 19.5984C35.6198 18.603 35.7702 18.4062 35.9323 18.0705C36.0249 17.8853 36.3606 17.4686 36.6615 17.1445C36.9625 16.8204 37.356 16.369 37.5296 16.1491C37.7033 15.9291 38.0621 15.524 38.3399 15.2578C38.6061 14.9915 39.0112 14.5633 39.2196 14.3086C39.6247 13.8225 40.4928 13.1395 41.8934 12.1788C42.3333 11.8779 42.9352 11.4264 43.213 11.1718C43.5024 10.9171 43.7917 10.7088 43.8728 10.7088C43.9538 10.7088 44.0348 10.6741 44.058 10.6162C44.1274 10.4657 45.4701 9.70176 47.0443 8.93781C48.9658 8.01181 49.2667 7.88448 50.0075 7.66455C50.3316 7.57195 50.7483 7.40991 50.9335 7.31731C51.1187 7.22471 51.9405 6.95847 52.7739 6.7154C53.5958 6.4839 54.8227 6.1135 55.4941 5.90515C56.1654 5.68523 57.2072 5.43058 57.8091 5.3264C58.411 5.22223 58.9434 5.10647 59.0013 5.07175C59.0592 5.03702 59.2675 4.96758 59.4759 4.9097C59.6727 4.8634 60.1241 4.74764 60.4713 4.64347C60.8186 4.55087 61.3279 4.4467 61.6057 4.41197C61.8835 4.37725 62.3118 4.29623 62.5664 4.22678C62.8211 4.15733 63.1799 4.0763 63.3651 4.05315C63.5503 4.03 63.7934 3.98369 63.9091 3.96054C64.1175 3.89109 64.7541 3.8448 67.59 3.64803C69.141 3.54385 69.8008 3.46282 69.9628 3.35865C70.0439 3.31235 73.0765 3.03454 75.461 2.86092C77.6024 2.71044 83.5172 2.84935 85.3576 3.11557C86.029 3.20817 87.0244 3.28919 87.58 3.30077C88.1241 3.30077 88.7028 3.33549 88.8533 3.35864C89.733 3.49754 90.9368 3.6596 91.4345 3.69432C91.967 3.72905 92.8467 3.84479 93.4023 3.93739C93.5296 3.96054 93.9463 4.06473 94.3283 4.1689C94.7102 4.27308 95.4626 4.43513 96.0066 4.52773C96.5507 4.62033 97.3841 4.79395 97.8586 4.9097C98.3332 5.03703 99.2939 5.26853 100 5.44216C101.806 5.88201 102.639 6.1598 103.438 6.61122C103.82 6.83115 104.179 7.00478 104.236 7.00478C104.283 7.00478 104.618 7.1321 104.977 7.28258C105.325 7.44463 105.614 7.5488 105.614 7.52565C105.614 7.5025 106.413 7.88447 107.373 8.37062C108.346 8.85677 109.329 9.33135 109.549 9.42395C109.769 9.51655 110.267 9.81751 110.649 10.0953C113.138 11.9126 113.809 12.4219 114.052 12.7113C114.214 12.8965 114.399 13.1048 114.469 13.1858C114.55 13.2553 114.92 13.7067 115.314 14.1813C115.696 14.6559 116.17 15.2346 116.356 15.4545C116.541 15.6745 116.784 16.0449 116.9 16.2648C117.004 16.4847 117.258 16.832 117.467 17.0403C117.664 17.2371 117.883 17.4802 117.941 17.5612C118.011 17.6422 118.254 17.9432 118.497 18.221C118.728 18.5103 118.925 18.8229 118.925 18.9386C118.925 19.0428 119.134 19.4479 119.388 19.8299C119.643 20.2119 119.851 20.5475 119.851 20.5938C119.851 20.6401 120.036 21.0453 120.256 21.4967C120.488 21.9481 120.719 22.5385 120.777 22.7931C120.847 23.0593 120.997 23.6265 121.124 24.0779C121.252 24.5178 121.46 25.3049 121.587 25.8142C121.715 26.3235 121.912 27.018 122.016 27.3537C122.12 27.6893 122.201 28.0482 122.201 28.1639C122.189 28.2681 122.282 28.8584 122.409 29.4603C122.606 30.4558 122.976 32.7823 123.15 34.0903C123.243 34.8659 123.266 34.9469 123.358 35.1089C123.416 35.19 123.439 35.3636 123.428 35.5141C123.416 35.653 123.439 36.0002 123.486 36.2896C123.532 36.5789 123.601 36.9609 123.625 37.1577C123.891 38.8014 124.261 44.5426 124.284 47.4016C124.308 49.5777 124.284 49.9249 123.972 53.3049C123.879 54.3582 123.764 55.9208 123.729 56.7774C123.694 57.6339 123.578 59.1734 123.486 60.192C123.382 61.2106 123.289 62.9005 123.266 63.9539C123.196 67.5306 123.196 69.6372 123.266 69.7414C123.301 69.7993 123.347 70.297 123.37 70.8642C123.393 71.4198 123.474 72.4268 123.532 73.0981C123.601 73.7695 123.694 75.0659 123.729 75.9919C123.764 76.9179 123.821 78.0638 123.845 78.5384C123.868 79.013 123.914 80.4251 123.949 81.6637C123.995 82.9022 124.053 84.106 124.088 84.3259C124.111 84.5458 124.169 86.1085 124.203 87.7984C124.25 90.4607 124.331 91.7108 124.539 93.4702C124.562 93.6901 124.62 95.5653 124.655 97.6372C124.69 99.7091 124.747 101.631 124.771 101.92C124.84 102.557 124.84 104.27 124.805 107.256C124.771 109.131 124.736 109.571 124.585 109.745C124.203 110.208 123.706 111.261 123.578 111.921C123.486 112.372 123.335 112.719 123.092 112.986C122.907 113.206 122.745 113.437 122.745 113.507C122.745 113.564 122.641 113.842 122.513 114.097C122.386 114.363 122.282 114.618 122.282 114.676C122.282 114.722 122.097 115.139 121.877 115.59C121.657 116.053 121.472 116.47 121.472 116.516C121.472 116.655 120.638 117.917 120.337 118.241C120.187 118.403 119.979 118.681 119.886 118.877C119.782 119.063 119.666 119.248 119.631 119.282C119.585 119.317 119.423 119.549 119.272 119.803C118.879 120.475 115.059 124.26 114.457 124.584C114.33 124.653 113.994 124.943 113.693 125.22C113.253 125.649 111.83 126.69 111.691 126.69C111.621 126.69 110.082 127.616 110.024 127.698C109.908 127.86 108.936 128.496 108.334 128.809C107.767 129.098 107.269 129.33 106.193 129.758C105.903 129.874 105.44 130.07 105.151 130.198C104.422 130.522 103.357 130.846 102.628 130.973C102.292 131.031 101.713 131.216 101.354 131.378C100.81 131.633 100 131.865 98.0554 132.304C97.9512 132.328 97.8008 132.385 97.7429 132.42C97.5693 132.524 96.4928 132.791 95.8446 132.883C95.5321 132.929 95.1964 132.999 95.0922 133.057C94.5945 133.3 94.0157 133.52 93.8653 133.52C93.6106 133.52 91.9322 134.087 91.6544 134.272C91.5155 134.353 90.9136 134.596 90.3233 134.793C89.7214 135.001 89.2005 135.233 89.1542 135.314C89.1079 135.395 88.9227 135.499 88.7607 135.534C88.5871 135.58 88.2861 135.742 88.0893 135.893C87.8926 136.043 87.418 136.344 87.0244 136.576C86.0406 137.143 85.5313 137.745 85.3461 138.543C85.265 138.902 85.1377 139.192 85.0683 139.192C84.8831 139.192 84.3275 141.044 84.2001 142.051C84.1423 142.49 84.0497 143.173 83.9802 143.59C83.8066 144.736 83.7603 149.204 83.8876 151.959L83.9686 153.672L83.4825 153.88C83.2047 153.984 82.5102 154.146 81.943 154.227C81.3642 154.308 80.6697 154.447 80.3804 154.528C79.6511 154.748 78.401 155.015 77.3709 155.177C76.8963 155.246 76.0166 155.408 75.4378 155.535C74.4077 155.767 74.3498 155.767 74.0604 155.57C73.7247 155.35 72.7987 155.362 71.1898 155.616C70.7615 155.686 69.6619 155.755 68.7591 155.779C67.3122 155.802 67.0575 155.779 66.6524 155.57C66.4093 155.443 66.1778 155.316 66.1431 155.281C66.1084 155.246 65.819 155.061 65.5065 154.876C64.6383 154.39 63.4693 153.255 62.8789 152.352C62.7053 152.086 62.3581 151.577 62.1266 151.23C61.351 150.107 60.9459 149.389 60.5176 148.359C60.2977 147.803 60.0546 147.248 59.9968 147.12C59.7074 146.472 59.1171 144.227 59.0476 143.451C59.0129 143.162 58.9666 142.861 58.9203 142.803C58.8856 142.745 58.8277 142.467 58.8045 142.189C58.7004 141.31 58.5036 140.199 58.3184 139.608C58.0174 138.543 57.7975 137.004 57.8785 136.379C58.029 135.14 57.9596 134.492 57.6586 134.191C57.4503 133.983 57.3577 133.728 57.2998 133.219C57.2651 132.837 57.0914 132.165 56.941 131.714C56.1423 129.492 55.9802 129.005 56.0381 129.005C56.0728 129.005 56.0381 128.913 55.9455 128.797C55.8529 128.693 55.6793 128.299 55.552 127.929C55.4362 127.559 55.2394 127.2 55.1237 127.142C55.0079 127.084 54.9153 126.968 54.9153 126.899C54.9153 126.795 53.6189 125.487 53.1559 125.128C52.7161 124.781 52.0563 124.619 51.3271 124.665C49.4056 124.781 48.8732 124.908 48.0513 125.406C47.6231 125.66 47.2411 125.88 47.1948 125.88C47.1138 125.88 47.0327 125.961 46.2688 126.69C46.0026 126.945 45.7595 127.153 45.7248 127.153C45.69 127.153 45.5627 127.246 45.4354 127.35C45.1923 127.593 44.6714 128.022 44.1506 128.427C43.4908 128.936 43.0741 129.387 42.5648 130.186C42.3912 130.464 42.1712 130.765 42.0671 130.869C41.9745 130.962 41.7082 131.32 41.4883 131.645C41.2684 131.969 40.9096 132.339 40.6781 132.466C39.2775 133.265 39.2196 133.288 38.0505 133.335C36.9278 133.381 36.9046 133.369 36.1638 132.964C35.7471 132.744 35.2031 132.455 34.9484 132.328C34.4623 132.084 33.733 131.552 33.3163 131.147C32.9575 130.811 32.5408 130.476 32.1936 130.244C31.8463 130.024 29.7397 128.415 29.4156 128.137C29.3114 128.045 29.1956 127.964 29.1609 127.964C29.1262 127.964 28.86 127.813 28.559 127.628C27.8877 127.211 27.2742 127.003 25.9778 126.737C24.8897 126.517 23.8943 126.505 21.9844 126.667C21.0005 126.748 20.5144 126.737 19.843 126.621C18.2804 126.332 17.7132 126.181 17.2386 125.973C16.984 125.857 16.6715 125.764 16.5326 125.764C16.2548 125.764 14.1365 124.711 13.3031 124.156C12.979 123.947 12.4929 123.461 12.2151 123.091C11.9257 122.72 11.5437 122.292 11.347 122.142C10.8608 121.783 10.5367 121.47 10.3284 121.158C10.2358 121.019 9.94638 120.671 9.70331 120.405C9.44866 120.139 9.04353 119.641 8.80045 119.294C8.55738 118.947 8.3143 118.611 8.25643 118.542C8.19855 118.472 7.93232 118.125 7.65452 117.766C7.36515 117.407 7.07577 117.002 6.99475 116.852C6.91372 116.701 6.79798 116.516 6.7401 116.458C6.6012 116.273 5.72149 114.884 5.72149 114.826C5.72149 114.803 5.51315 114.328 5.2585 113.784C5.00385 113.24 4.7955 112.754 4.7955 112.719C4.7955 112.696 4.58714 112.256 4.34407 111.77C4.10099 111.273 3.7769 110.474 3.64957 109.988C3.51067 109.502 3.30232 108.877 3.17499 108.61C2.98979 108.17 2.79302 107.082 2.67727 105.855C2.61939 105.254 2.68884 101.862 2.76986 100.936Z" fill="black"/>
<path d="M1.05989 107.034C1.16162 107.861 1.45552 109.062 1.68159 109.55C1.77202 109.754 1.94157 110.297 2.06592 110.762C2.17895 111.215 2.46155 111.963 2.67632 112.405C2.90239 112.847 3.08325 113.255 3.08325 113.323C3.08325 113.391 3.20759 113.617 3.35454 113.81C3.50149 114.014 3.65974 114.297 3.70495 114.456C3.95364 115.283 5.53616 118.104 6.14656 118.818C6.24829 118.942 6.51959 119.248 6.74566 119.498C6.97174 119.747 7.36736 120.268 7.62735 120.653C8.55426 121.99 9.11945 122.67 9.8994 123.407C10.3402 123.815 10.8263 124.29 10.9846 124.472C11.595 125.163 12.3862 125.888 12.4766 125.831C12.5219 125.809 12.601 125.843 12.6575 125.922C12.7027 126.001 13.2001 126.296 13.7653 126.568C14.3192 126.851 14.8052 127.1 14.8391 127.134C14.9183 127.236 17.8685 128.131 18.3998 128.222C18.7954 128.29 20.3667 128.596 20.5814 128.641C20.6266 128.653 20.9657 128.619 21.3388 128.573C23.3847 128.313 26.2672 128.607 27.4089 129.196C28.121 129.559 29.0931 130.239 29.4775 130.658C29.6583 130.851 30.2461 131.304 30.7774 131.655C31.3087 132.006 31.7608 132.324 31.7947 132.358C31.9982 132.607 33.4451 133.717 33.5694 133.717C33.6485 133.717 33.7164 133.763 33.7164 133.831C33.7164 133.887 33.8068 133.944 33.9085 133.944C34.0216 133.944 34.2589 134.046 34.4511 134.17C34.632 134.295 35.118 134.567 35.5136 134.76C36.2032 135.088 36.3162 135.111 37.6614 135.111C38.6787 135.122 39.1648 135.077 39.3682 134.964C39.5265 134.873 39.7073 134.794 39.7639 134.782C40.0125 134.748 41.4594 134.023 41.4933 133.933C41.5159 133.876 41.5951 133.831 41.6742 133.831C41.8437 133.831 42.8498 132.766 43.1098 132.312C43.3697 131.859 44.1158 130.907 44.5792 130.443C44.9297 130.092 45.4044 129.672 47.0095 128.279C47.1904 128.12 47.4278 127.939 47.5295 127.882C47.6312 127.814 47.993 127.576 48.3321 127.35C48.6712 127.112 49.1686 126.874 49.4511 126.817C50.1972 126.647 51.6102 126.636 51.9267 126.806C52.2884 126.998 53.3848 128.131 53.3848 128.324C53.3848 128.403 53.5092 128.709 53.6674 129.004C53.8257 129.298 53.9274 129.593 53.8935 129.65C53.8483 129.706 53.8709 129.752 53.9274 129.752C53.9839 129.752 54.1648 130.092 54.3344 130.511C54.5152 130.941 54.7074 131.395 54.7639 131.531C54.8543 131.712 54.8543 131.825 54.7639 131.938C54.6396 132.086 54.6735 132.448 54.9674 133.774C55.0465 134.114 55.0691 134.816 55.0239 135.53C54.9787 136.414 55.0013 136.924 55.1369 137.513C55.623 139.654 55.7473 140.3 55.8604 141.082C55.9282 141.547 56.0073 142.079 56.0299 142.272C56.0638 142.453 56.109 142.929 56.143 143.314C56.1769 143.699 56.2786 144.209 56.3803 144.447C56.4821 144.685 56.6855 145.365 56.8325 145.977C56.9794 146.577 57.2507 147.37 57.4316 147.733C57.6237 148.095 57.9289 148.696 58.1098 149.07C58.302 149.444 58.562 149.976 58.6863 150.26C58.9915 150.928 59.3984 151.597 59.7036 151.936C59.8393 152.095 60.0201 152.378 60.0993 152.582C60.314 153.092 62.5183 155.234 63.1852 155.585C63.4791 155.743 63.773 155.902 63.8408 155.959C64.5529 156.491 64.9146 156.627 66.0337 156.831C67.311 157.046 69.3796 157.058 70.3404 156.854C70.9169 156.729 70.8717 156.729 72.149 156.673C73.5733 156.605 75.0541 156.423 75.8227 156.231C76.1958 156.14 76.7497 156.061 77.0549 156.049C77.3488 156.038 77.6426 156.015 77.6879 155.981C77.7444 155.947 78.0835 155.891 78.4452 155.857C78.8069 155.823 79.4399 155.687 79.8582 155.574C80.2877 155.449 81.1468 155.29 81.7798 155.234C83.5997 155.041 84.2892 154.95 84.504 154.848C84.8657 154.69 85.397 154.112 85.3405 153.953C85.3066 153.863 85.3518 153.613 85.4535 153.421C85.7135 152.9 85.7587 151.665 85.5666 150.033C85.2614 147.518 85.4422 145.354 86.1657 142.838C86.3465 142.215 86.5839 141.354 86.6743 140.912C86.7761 140.481 86.923 140.051 86.9908 139.972C87.0587 139.881 87.1265 139.745 87.1378 139.666C87.1717 139.439 88.2342 137.298 88.336 137.252C88.3925 137.23 88.4264 137.139 88.4264 137.06C88.4264 136.878 89.1725 136.21 89.3646 136.21C89.4437 136.21 90.4385 135.904 91.5915 135.53C92.7331 135.156 93.8522 134.816 94.0783 134.782C94.4287 134.726 97.5259 133.887 98.4302 133.604C98.6111 133.547 98.9728 133.468 99.2215 133.434C99.7753 133.343 100.747 133.071 103.517 132.244C103.89 132.131 104.5 131.95 104.873 131.848C105.246 131.734 105.958 131.451 106.445 131.202C106.931 130.953 107.575 130.681 107.858 130.579C108.14 130.488 108.457 130.341 108.547 130.262C108.637 130.182 108.897 130.035 109.112 129.944C109.327 129.854 109.813 129.548 110.186 129.276C110.559 128.993 111.203 128.573 111.622 128.358C112.04 128.131 112.447 127.893 112.526 127.825C112.605 127.758 112.91 127.554 113.204 127.361C113.509 127.168 113.848 126.874 113.973 126.692C114.097 126.522 114.617 126.081 115.126 125.707C115.634 125.344 116.912 124.188 117.974 123.135C119.715 121.401 119.953 121.118 120.54 120.053C120.902 119.407 121.264 118.795 121.343 118.693C121.671 118.285 122.066 117.934 122.315 117.843C122.631 117.719 123.536 116.325 123.943 115.317C124.124 114.875 124.316 114.467 124.372 114.399C124.417 114.342 124.576 113.991 124.711 113.629C124.847 113.277 124.994 112.983 125.05 112.983C125.107 112.983 125.141 112.892 125.141 112.779C125.141 112.677 125.265 111.872 125.424 111C125.955 108.02 125.989 107.623 126 103.103C126 100.712 125.966 98.4005 125.921 97.97C125.887 97.5281 125.819 96.1005 125.785 94.7975C125.74 93.4832 125.695 92.2595 125.672 92.0782C125.638 91.8856 125.593 90.6166 125.548 89.2456C125.514 87.8746 125.446 86.2884 125.401 85.7332C125.344 85.1667 125.288 83.875 125.277 82.844C125.254 81.8129 125.231 80.8158 125.22 80.6345C125.209 80.4419 125.164 79.8301 125.118 79.2749C125.084 78.7084 125.017 77.462 124.983 76.499C124.949 75.5359 124.904 74.5388 124.892 74.2895C124.531 70.2446 124.44 62.8685 124.7 59.6167C124.768 58.7783 124.858 57.3167 124.892 56.3876C124.949 54.8806 125.005 54.1668 125.243 52.1387C125.333 51.3796 125.333 42.7458 125.243 42.2246C125.197 41.9754 125.107 41.4882 125.05 41.1482C124.994 40.8083 124.915 39.9246 124.881 39.1994C124.847 38.4629 124.711 37.3186 124.598 36.6501C124.474 35.9816 124.271 34.554 124.146 33.5002C124.011 32.4352 123.784 31.0076 123.638 30.3277C123.491 29.6366 123.332 28.9228 123.31 28.7415C123.118 27.6651 122.891 26.7134 122.496 25.3311C122.349 24.8325 122.225 24.368 122.225 24.2887C122.225 24.13 121.818 22.8724 121.603 22.3965C120.766 20.5043 120.518 19.9831 119.986 19.054C119.444 18.1023 118.901 17.3318 118.46 16.8786C118.11 16.5274 117.33 15.4623 117.138 15.0998C117.025 14.8731 116.81 14.5672 116.663 14.4086C116.516 14.25 116.324 13.9894 116.245 13.8194C116.109 13.5475 115.51 12.777 115.001 12.1992C114.764 11.9386 113.803 11.0548 113.408 10.7376C112.865 10.2957 111.045 9.67251 110.785 9.83113C110.729 9.86512 110.344 9.66118 109.926 9.37792C109.497 9.09466 109.033 8.8114 108.875 8.74341C108.728 8.68676 108.524 8.58478 108.434 8.5168C108.344 8.46015 107.801 8.19956 107.247 7.93896C106.682 7.67836 105.8 7.27047 105.269 7.0212C104.749 6.77194 104.048 6.46601 103.72 6.34138C103.393 6.21675 103.053 6.05812 102.974 5.99014C102.613 5.6389 99.911 4.76646 98.1476 4.42655C97.865 4.3699 97.5146 4.27925 97.3563 4.2226C97.0398 4.10929 95.6834 3.80338 93.4566 3.36149C92.6427 3.19154 91.7836 3.01025 91.5349 2.9536C91.2862 2.89695 90.5967 2.82896 90.0089 2.79497C89.4211 2.76098 88.4716 2.68168 87.9177 2.62503C87.3525 2.56838 86.4935 2.48906 85.9961 2.45507C85.4987 2.42108 84.6849 2.34177 84.1875 2.27379C82.3337 2.03585 80.7173 1.96786 77.9705 2.01318C75.0428 2.06983 74.5567 2.0925 72.6577 2.27379C72.036 2.33044 71.3239 2.38708 71.0752 2.38708C70.8265 2.39841 70.2161 2.48906 69.7187 2.5797C69.2214 2.68167 68.6562 2.78364 68.4753 2.79497C68.2832 2.81764 67.7067 2.88562 67.1754 2.9536C66.6441 3.02158 65.785 3.1009 65.2538 3.13489C64.3382 3.19155 63.1626 3.28218 62.5296 3.36149C62.3713 3.38415 61.9644 3.45213 61.6253 3.52012C61.2861 3.5881 60.8792 3.66741 60.7097 3.69008C60.5401 3.72407 59.9523 3.86004 59.4097 3.996C58.8558 4.13196 58.0081 4.32457 57.5107 4.43787C56.6855 4.61916 55.6569 4.87977 53.7805 5.40097C53.4074 5.50294 52.7405 5.68422 52.311 5.79752C51.8701 5.91083 51.3389 6.06946 51.1241 6.13744C50.9093 6.20542 50.6493 6.28473 50.5589 6.30739C50.378 6.35271 48.4677 7.07786 47.9025 7.32713C47.7104 7.40644 47.3034 7.55373 46.9982 7.66704C46.3765 7.88231 44.9862 8.61878 44.9296 8.76608C44.907 8.8114 44.7149 8.87938 44.5114 8.9247C44.2966 8.95869 44.0706 9.06067 43.9914 9.15131C43.9236 9.24195 43.7767 9.30993 43.6749 9.30993C43.381 9.32127 42.8159 9.67251 42.262 10.1824C41.9907 10.4543 41.7081 10.6696 41.6629 10.6696C41.2107 10.6696 36.4292 14.5446 36.4292 14.9071C36.4292 14.9525 36.0449 15.383 35.5815 15.8589C35.118 16.3348 34.7337 16.754 34.7337 16.7993C34.7337 16.8333 34.4511 17.2072 34.112 17.6378C33.7729 18.0683 33.4903 18.4875 33.4903 18.5668C33.4903 18.6461 33.4564 18.7141 33.3998 18.7141C33.3546 18.7141 33.219 18.8728 33.0946 19.0654C32.9703 19.258 32.6425 19.5413 32.3599 19.7112C31.6591 20.1191 31.2408 20.4703 30.8226 21.0255C30.4948 21.4674 29.8166 23.0083 29.5227 23.9828C29.4548 24.232 29.1949 24.8552 28.9575 25.3651C28.7201 25.8749 28.494 26.4414 28.4488 26.6114C28.3245 27.1666 27.228 30.0785 27.0472 30.3278C27.0019 30.3844 26.855 30.8716 26.7193 31.4041C26.5724 31.9367 26.3802 32.5712 26.2898 32.8204C26.1881 33.0697 26.0524 33.5229 25.9733 33.8402C25.8942 34.1461 25.6568 34.9165 25.4646 35.5397C25.182 36.4348 24.6847 38.2137 24.5151 38.9388C24.4586 39.1881 24.1647 40.1512 23.7352 41.5448C23.4752 42.3493 23.2604 43.0631 23.2491 43.1311C23.0795 43.9355 22.9326 44.4794 22.7404 45.0006C22.6161 45.3405 22.3674 46.1903 22.1865 46.8814C22.0057 47.5612 21.8135 48.2524 21.7457 48.411C21.4066 49.2608 21.1579 50.3485 20.8188 52.5126C20.7623 52.8865 20.6492 53.4417 20.5588 53.7589C20.2875 54.722 20.0388 56.5462 19.858 58.7103C19.8354 59.0502 19.7336 59.6847 19.6432 60.1266C19.5302 60.6705 19.4624 62.0074 19.4284 64.4208C19.3832 67.5706 19.4171 68.4317 19.6658 70.4939C19.711 70.8338 19.7336 71.219 19.7336 71.3436C19.6093 74.1762 19.3606 75.3093 18.6372 76.329C18.5015 76.5103 18.3094 76.8162 18.2302 77.0088C18.072 77.3374 15.7434 79.7848 15.5852 79.7848C15.54 79.7848 14.8617 80.4193 14.0705 81.1897C12.4993 82.7193 12.081 83.0819 10.6794 84.045C9.52638 84.8381 9.26639 85.11 8.24905 86.5263C7.7969 87.1382 7.20911 87.8746 6.94913 88.1692C6.67784 88.4525 6.31611 88.8491 6.15786 89.0643C5.98831 89.2796 5.79614 89.5062 5.73962 89.5742C5.55876 89.7781 4.21363 91.7723 4.21363 91.8403C4.21363 91.9422 3.49019 92.9846 3.38845 93.03C3.25281 93.0866 2.74414 94.1857 2.74414 94.4349C2.74414 94.5482 2.64241 94.8428 2.52937 95.0921C2.17896 95.8172 1.77202 97.7547 1.20683 101.426C1.01467 102.615 0.935545 105.981 1.05989 107.034ZM3.70495 100.803C3.73886 100.361 3.85191 99.6809 3.93103 99.273C4.02146 98.8651 4.1232 98.3552 4.15711 98.1399C4.27014 97.4828 4.66577 95.9532 4.83533 95.5C4.92576 95.2734 4.98228 95.0807 4.95967 95.0807C4.88054 95.0807 6.14656 92.6787 6.47437 92.1915C6.65523 91.9422 6.94912 91.591 7.14129 91.4097C7.33345 91.2171 7.4917 91.0358 7.4917 90.9792C7.4917 90.8885 7.58213 90.7639 8.18123 90.0501C8.33948 89.8575 8.80294 89.223 9.19857 88.6338C9.95592 87.5121 10.8941 86.5037 11.8436 85.7785C12.1488 85.5406 12.6349 85.144 12.9175 84.8948C13.2001 84.6455 13.4714 84.4302 13.5166 84.4302C13.5618 84.4302 13.6635 84.3849 13.7427 84.3169C13.8218 84.2603 14.1383 84.011 14.4548 83.7617C14.76 83.5238 15.3591 82.9233 15.766 82.4361C16.5799 81.4617 16.806 81.2464 17.292 80.9858C17.6312 80.8045 19.598 78.8443 19.7223 78.5724C19.9032 78.1419 20.3553 77.5074 20.5023 77.462C20.6832 77.3941 21.6101 75.6379 21.9266 74.7428C22.277 73.7457 22.4239 71.0944 22.2431 69.1342C22.017 66.7322 22.1639 60.8517 22.4805 59.2768C22.5709 58.8123 22.7178 57.8379 22.8083 57.1241C23.0343 55.2545 23.2943 53.6456 23.5543 52.388C23.6786 51.7875 23.8821 50.8017 23.9951 50.2125C24.1082 49.6234 24.2777 48.9095 24.3908 48.6263C24.4925 48.343 24.6169 47.9578 24.6734 47.7765C24.7751 47.4139 25.1933 45.9636 25.3516 45.3971C25.5551 44.672 26.3915 41.4768 26.708 40.2418C26.8889 39.528 27.1376 38.6782 27.2506 38.3723C27.4654 37.8285 27.5332 37.5905 27.8384 36.5028C27.9175 36.2195 28.0193 35.891 28.0758 35.7663C28.2001 35.4604 28.6636 33.9308 28.9801 32.7638C29.1157 32.2313 29.3079 31.6761 29.387 31.5174C29.4662 31.3588 29.534 31.1662 29.534 31.0756C29.534 30.7923 30.4496 28.175 30.5626 28.141C30.687 28.0957 31.4443 26.9513 31.6365 26.5321C31.7043 26.3735 31.953 25.9882 32.2017 25.6823C32.5747 25.1838 32.9364 24.5719 33.5807 23.3029C33.6824 23.1103 33.9537 22.7138 34.1911 22.4192C34.4285 22.1132 34.6206 21.83 34.6206 21.7733C34.6206 21.728 34.8015 21.4561 35.005 21.1842C35.7849 20.2097 35.9319 20.0171 36.0901 19.6885C36.1806 19.5073 36.5084 19.0994 36.8023 18.7821C37.0962 18.4649 37.4805 18.023 37.65 17.8077C37.8196 17.5924 38.17 17.1959 38.4413 16.9353C38.7013 16.6747 39.0969 16.2554 39.3004 16.0062C39.696 15.5303 40.5438 14.8618 41.9116 13.9214C42.3411 13.6268 42.9289 13.1849 43.2002 12.9357C43.4828 12.6864 43.7654 12.4824 43.8445 12.4824C43.9236 12.4824 44.0027 12.4484 44.0254 12.3918C44.0932 12.2445 45.4044 11.4967 46.9417 10.7489C48.8181 9.84247 49.112 9.71783 49.8355 9.50255C50.152 9.41191 50.5589 9.25329 50.7398 9.16265C50.9206 9.07201 51.7232 8.81139 52.5371 8.57346C53.3396 8.34685 54.5378 7.98429 55.1934 7.78034C55.8491 7.56506 56.8664 7.3158 57.4542 7.21382C58.042 7.11185 58.5619 6.99854 58.6185 6.96455C58.675 6.93056 58.8785 6.86258 59.0819 6.80593C59.2741 6.76061 59.7149 6.64729 60.054 6.54532C60.3931 6.45468 60.8905 6.35271 61.1618 6.31872C61.4331 6.28473 61.8513 6.20542 62.1 6.13744C62.3487 6.06946 62.6991 5.99014 62.88 5.96748C63.0608 5.94482 63.2982 5.89949 63.4112 5.87683C63.6147 5.80885 64.2364 5.76354 67.0058 5.57092C68.5205 5.46895 69.1648 5.38963 69.3231 5.28766C69.4022 5.24234 72.3638 4.97041 74.6924 4.80045C76.7836 4.65316 82.5598 4.78912 84.3571 5.04972C85.0127 5.14037 85.9848 5.21967 86.5274 5.231C87.0586 5.231 87.6238 5.265 87.7708 5.28766C88.6299 5.42362 89.8055 5.58225 90.2915 5.61624C90.8115 5.65023 91.6706 5.76353 92.2131 5.85417C92.3375 5.87684 92.7444 5.97881 93.1174 6.08079C93.4905 6.18276 94.2252 6.34139 94.7565 6.43203C95.2878 6.52267 96.1016 6.69262 96.5651 6.80593C97.0285 6.93056 97.9667 7.15717 98.6563 7.32713C100.42 7.75768 101.234 8.0296 102.013 8.47149C102.387 8.68676 102.737 8.85672 102.793 8.85672C102.839 8.85672 103.166 8.98136 103.517 9.12865C103.856 9.28728 104.139 9.38925 104.139 9.36659C104.139 9.34392 104.919 9.71782 105.857 10.1937C106.806 10.6696 107.767 11.1341 107.982 11.2248C108.197 11.3154 108.683 11.61 109.056 11.8819C111.486 13.6608 112.142 14.1593 112.379 14.4426C112.537 14.6239 112.718 14.8278 112.786 14.9071C112.865 14.9751 113.227 15.417 113.611 15.8815C113.984 16.3461 114.448 16.9126 114.628 17.1279C114.809 17.3432 115.047 17.7057 115.16 17.921C115.261 18.1363 115.51 18.4762 115.714 18.6801C115.906 18.8728 116.121 19.1107 116.177 19.19C116.245 19.2693 116.482 19.5639 116.72 19.8358C116.946 20.1191 117.138 20.425 117.138 20.5383C117.138 20.6403 117.341 21.0369 117.59 21.4108C117.839 21.7847 118.042 22.1132 118.042 22.1586C118.042 22.2039 118.223 22.6004 118.438 23.0423C118.664 23.4842 118.89 24.0621 118.946 24.3113C119.014 24.5719 119.161 25.1271 119.286 25.569C119.41 25.9995 119.613 26.77 119.738 27.2685C119.862 27.7671 120.054 28.4469 120.156 28.7755C120.258 29.1041 120.337 29.4553 120.337 29.5686C120.326 29.6706 120.416 30.2484 120.54 30.8376C120.732 31.812 121.094 34.0894 121.264 35.3698C121.354 36.1289 121.377 36.2082 121.467 36.3668C121.524 36.4461 121.546 36.6161 121.535 36.7634C121.524 36.8994 121.546 37.2393 121.592 37.5225C121.637 37.8058 121.705 38.1797 121.727 38.3723C121.987 39.9812 122.349 45.6011 122.371 48.3997C122.394 50.5298 122.371 50.8697 122.066 54.1782C121.976 55.2092 121.863 56.7388 121.829 57.5773C121.795 58.4157 121.682 59.9226 121.592 60.9197C121.49 61.9168 121.399 63.571 121.377 64.6021C121.309 68.1032 121.309 70.1653 121.377 70.2673C121.411 70.3239 121.456 70.8111 121.479 71.3663C121.501 71.9102 121.58 72.8959 121.637 73.5531C121.705 74.2102 121.795 75.4792 121.829 76.3856C121.863 77.2921 121.919 78.4138 121.942 78.8783C121.965 79.3429 122.01 80.7252 122.044 81.9375C122.089 83.1499 122.145 84.3282 122.179 84.5435C122.202 84.7588 122.258 86.2884 122.292 87.9426C122.338 90.5486 122.417 91.7723 122.62 93.4945C122.643 93.7098 122.699 95.5453 122.733 97.5734C122.767 99.6016 122.824 101.482 122.846 101.766C122.914 102.389 122.914 104.066 122.88 106.989C122.846 108.824 122.812 109.255 122.665 109.425C122.292 109.878 121.806 110.909 121.682 111.555C121.592 111.997 121.445 112.337 121.207 112.597C121.026 112.813 120.868 113.039 120.868 113.107C120.868 113.164 120.766 113.436 120.642 113.685C120.518 113.946 120.416 114.195 120.416 114.252C120.416 114.297 120.235 114.705 120.02 115.147C119.806 115.6 119.625 116.008 119.625 116.053C119.625 116.189 118.811 117.424 118.517 117.741C118.37 117.9 118.167 118.172 118.076 118.365C117.974 118.546 117.861 118.727 117.827 118.761C117.782 118.795 117.624 119.022 117.477 119.271C117.093 119.928 113.362 123.633 112.775 123.951C112.65 124.018 112.322 124.302 112.029 124.574C111.599 124.993 110.209 126.013 110.073 126.013C110.005 126.013 108.502 126.919 108.445 126.998C108.332 127.157 107.383 127.78 106.795 128.086C106.241 128.369 105.755 128.596 104.704 129.015C104.421 129.128 103.969 129.321 103.686 129.446C102.974 129.763 101.934 130.08 101.222 130.205C100.894 130.262 100.329 130.443 99.9788 130.601C99.4475 130.851 98.6563 131.077 96.7573 131.508C96.6555 131.531 96.5086 131.587 96.4521 131.621C96.2825 131.723 95.2312 131.984 94.5982 132.074C94.293 132.12 93.9652 132.188 93.8635 132.244C93.3774 132.482 92.8123 132.698 92.6653 132.698C92.4166 132.698 90.7776 133.253 90.5063 133.434C90.3706 133.513 89.7829 133.751 89.2064 133.944C88.6186 134.148 88.1099 134.374 88.0647 134.454C88.0195 134.533 87.8386 134.635 87.6804 134.669C87.5108 134.714 87.2169 134.873 87.0247 135.02C86.8326 135.168 86.3691 135.462 85.9848 135.689C85.024 136.244 84.5266 136.833 84.3458 137.615C84.2666 137.966 84.1423 138.249 84.0745 138.249C83.8936 138.249 83.351 140.062 83.2267 141.048C83.1702 141.479 83.0797 142.147 83.0119 142.555C82.8424 143.677 82.7971 148.05 82.9215 150.747L83.0006 152.424L82.5259 152.628C82.2546 152.73 81.5763 152.888 81.0225 152.968C80.4573 153.047 79.7791 153.183 79.4965 153.262C78.7843 153.477 77.5635 153.738 76.5575 153.897C76.094 153.965 75.235 154.123 74.6698 154.248C73.6637 154.474 73.6072 154.474 73.3246 154.282C72.9968 154.067 72.0925 154.078 70.5213 154.327C70.1031 154.395 69.0292 154.463 68.1475 154.486C66.7345 154.508 66.4859 154.486 66.0902 154.282C65.8529 154.157 65.6268 154.033 65.5929 153.999C65.559 153.965 65.2764 153.783 64.9712 153.602C64.1234 153.126 62.9817 152.016 62.4052 151.132C62.2357 150.871 61.8966 150.373 61.6705 150.033C60.9131 148.934 60.5175 148.231 60.0993 147.223C59.8845 146.679 59.6471 146.135 59.5906 146.011C59.308 145.376 58.7315 143.178 58.6637 142.419C58.6298 142.136 58.5846 141.841 58.5393 141.784C58.5054 141.728 58.4489 141.456 58.4263 141.184C58.3246 140.323 58.1324 139.235 57.9515 138.657C57.6577 137.615 57.4429 136.108 57.522 135.496C57.669 134.284 57.6011 133.649 57.3072 133.355C57.1038 133.151 57.0133 132.901 56.9568 132.403C56.9229 132.029 56.7534 131.372 56.6064 130.93C55.8264 128.755 55.6682 128.279 55.7247 128.279C55.7586 128.279 55.7247 128.188 55.6343 128.075C55.5439 127.973 55.3743 127.588 55.25 127.225C55.1369 126.862 54.9448 126.511 54.8317 126.455C54.7187 126.398 54.6283 126.285 54.6283 126.217C54.6283 126.115 53.3622 124.834 52.9101 124.483C52.4805 124.143 51.8362 123.984 51.1241 124.03C49.2477 124.143 48.7277 124.268 47.9251 124.755C47.5069 125.004 47.1339 125.22 47.0887 125.22C47.0095 125.22 46.9304 125.299 46.1844 126.013C45.9244 126.262 45.687 126.466 45.6531 126.466C45.6192 126.466 45.4948 126.556 45.3705 126.658C45.1331 126.896 44.6245 127.316 44.1158 127.712C43.4715 128.211 43.0645 128.653 42.5672 129.434C42.3976 129.706 42.1829 130.001 42.0811 130.103C41.9907 130.194 41.7307 130.545 41.5159 130.862C41.3012 131.179 40.9507 131.542 40.7247 131.666C39.3569 132.448 39.3004 132.471 38.1587 132.516C37.0623 132.562 37.0397 132.55 36.3162 132.154C35.9093 131.938 35.378 131.655 35.1293 131.531C34.6546 131.293 33.9424 130.771 33.5355 130.375C33.1851 130.046 32.7781 129.718 32.439 129.491C32.0999 129.276 30.0426 127.701 29.7261 127.429C29.6244 127.338 29.5114 127.259 29.4775 127.259C29.4435 127.259 29.1836 127.112 28.8897 126.93C28.234 126.522 27.635 126.319 26.3689 126.058C25.3064 125.843 24.3343 125.831 22.4691 125.99C21.5083 126.069 21.0336 126.058 20.378 125.945C18.852 125.661 18.2981 125.514 17.8346 125.31C17.5859 125.197 17.2807 125.106 17.1451 125.106C16.8738 125.106 14.8052 124.075 13.9914 123.531C13.6748 123.327 13.2001 122.851 12.9288 122.489C12.6462 122.126 12.2732 121.707 12.081 121.56C11.6063 121.209 11.2898 120.903 11.0863 120.597C10.9959 120.461 10.7133 120.121 10.4759 119.86C10.2272 119.6 9.83158 119.112 9.5942 118.773C9.35682 118.433 9.11945 118.104 9.06293 118.036C9.00641 117.968 8.74642 117.628 8.47513 117.277C8.19254 116.926 7.90994 116.529 7.83082 116.382C7.75169 116.235 7.63866 116.053 7.58214 115.997C7.44649 115.815 6.5874 114.456 6.5874 114.399C6.5874 114.376 6.38394 113.912 6.13526 113.379C5.88658 112.847 5.68311 112.371 5.68311 112.337C5.68311 112.314 5.47964 111.884 5.24226 111.408C5.00488 110.921 4.68838 110.139 4.56404 109.663C4.4284 109.187 4.22493 108.575 4.10059 108.315C3.91973 107.884 3.72756 106.819 3.61453 105.618C3.55801 105.029 3.62583 101.709 3.70495 100.803Z" fill="black"/>
<path d="M2.05845 106.324C2.15774 107.129 2.44459 108.3 2.66523 108.774C2.75349 108.973 2.91898 109.503 3.04033 109.955C3.15066 110.397 3.42647 111.125 3.63609 111.556C3.85674 111.986 4.03325 112.384 4.03325 112.45C4.03325 112.516 4.15461 112.737 4.29803 112.924C4.44145 113.123 4.59591 113.399 4.64004 113.554C4.88275 114.359 6.42729 117.108 7.02304 117.803C7.12234 117.925 7.38712 118.223 7.60777 118.465C7.82842 118.708 8.21455 119.216 8.46829 119.591C9.37295 120.894 9.92458 121.556 10.6858 122.274C11.1161 122.671 11.5905 123.135 11.7449 123.311C12.3407 123.984 13.113 124.691 13.2012 124.636C13.2453 124.614 13.3226 124.647 13.3777 124.724C13.4219 124.801 13.9073 125.088 14.4589 125.353C14.9995 125.629 15.4739 125.872 15.507 125.905C15.5842 126.004 18.4637 126.876 18.9822 126.965C19.3683 127.031 20.9019 127.329 21.1115 127.373C21.1556 127.384 21.4866 127.351 21.8506 127.307C23.8475 127.053 26.6608 127.34 27.7751 127.914C28.4701 128.267 29.4189 128.929 29.794 129.338C29.9705 129.526 30.5442 129.967 31.0627 130.309C31.5813 130.651 32.0226 130.96 32.0556 130.994C32.2542 131.236 33.6664 132.318 33.7877 132.318C33.865 132.318 33.9312 132.362 33.9312 132.428C33.9312 132.484 34.0194 132.539 34.1187 132.539C34.229 132.539 34.4607 132.638 34.6483 132.76C34.8248 132.881 35.2992 133.146 35.6853 133.334C36.3583 133.654 36.4686 133.676 37.7815 133.676C38.7744 133.687 39.2488 133.643 39.4474 133.532C39.6018 133.444 39.7784 133.367 39.8335 133.356C40.0762 133.323 41.4884 132.616 41.5215 132.528C41.5435 132.473 41.6208 132.428 41.698 132.428C41.8635 132.428 42.8454 131.391 43.0991 130.949C43.3529 130.508 44.081 129.581 44.5333 129.128C44.8753 128.786 45.3387 128.378 46.9053 127.02C47.0818 126.865 47.3135 126.689 47.4128 126.634C47.5121 126.567 47.8651 126.336 48.1961 126.115C48.5271 125.883 49.0125 125.651 49.2883 125.596C50.0165 125.43 51.3955 125.419 51.7044 125.585C52.0575 125.773 53.1276 126.876 53.1276 127.064C53.1276 127.141 53.249 127.439 53.4034 127.726C53.5579 128.013 53.6572 128.3 53.6241 128.355C53.5799 128.411 53.602 128.455 53.6572 128.455C53.7123 128.455 53.8888 128.786 54.0543 129.194C54.2309 129.614 54.4184 130.055 54.4736 130.188C54.5618 130.364 54.5618 130.475 54.4736 130.585C54.3522 130.729 54.3853 131.082 54.6722 132.373C54.7494 132.704 54.7714 133.389 54.7273 134.084C54.6832 134.945 54.7052 135.442 54.8376 136.016C55.312 138.102 55.4334 138.731 55.5437 139.493C55.6099 139.945 55.6871 140.464 55.7092 140.652C55.7423 140.828 55.7864 141.292 55.8195 141.667C55.8526 142.043 55.9519 142.539 56.0512 142.771C56.1505 143.003 56.3491 143.665 56.4925 144.261C56.6359 144.846 56.9007 145.619 57.0772 145.972C57.2648 146.325 57.5627 146.91 57.7392 147.275C57.9267 147.639 58.1805 148.158 58.3018 148.434C58.5997 149.085 58.9969 149.736 59.2947 150.067C59.4271 150.222 59.6037 150.498 59.6809 150.696C59.8905 151.193 62.0418 153.279 62.6927 153.621C62.9796 153.776 63.2664 153.93 63.3326 153.986C64.0277 154.504 64.3807 154.637 65.4729 154.836C66.7196 155.045 68.7385 155.056 69.6763 154.858C70.2389 154.736 70.1948 154.736 71.4415 154.681C72.8315 154.615 74.2768 154.438 75.027 154.251C75.3911 154.162 75.9317 154.085 76.2295 154.074C76.5164 154.063 76.8032 154.041 76.8474 154.008C76.9025 153.975 77.2335 153.919 77.5865 153.886C77.9396 153.853 78.5574 153.721 78.9656 153.61C79.3848 153.489 80.2233 153.334 80.8411 153.279C82.6173 153.092 83.2903 153.003 83.4999 152.904C83.853 152.749 84.3715 152.186 84.3163 152.032C84.2832 151.944 84.3273 151.701 84.4266 151.513C84.6804 151.005 84.7245 149.802 84.537 148.213C84.2391 145.762 84.4156 143.654 85.1217 141.204C85.2982 140.597 85.5299 139.758 85.6181 139.327C85.7174 138.908 85.8609 138.488 85.9271 138.411C85.9932 138.323 86.0594 138.19 86.0705 138.113C86.1036 137.892 87.1406 135.806 87.2399 135.762C87.2951 135.74 87.3282 135.652 87.3282 135.574C87.3282 135.398 88.0563 134.746 88.2439 134.746C88.3211 134.746 89.2919 134.448 90.4173 134.084C91.5315 133.72 92.6237 133.389 92.8444 133.356C93.1864 133.3 96.2093 132.484 97.0919 132.208C97.2684 132.153 97.6214 132.075 97.8641 132.042C98.4047 131.954 99.3535 131.689 102.056 130.883C102.421 130.773 103.016 130.596 103.38 130.497C103.744 130.386 104.439 130.111 104.914 129.868C105.388 129.625 106.017 129.36 106.293 129.261C106.569 129.172 106.878 129.029 106.966 128.952C107.054 128.874 107.308 128.731 107.518 128.642C107.727 128.554 108.202 128.256 108.566 127.991C108.93 127.715 109.559 127.307 109.967 127.097C110.375 126.876 110.772 126.645 110.849 126.578C110.927 126.512 111.224 126.313 111.511 126.126C111.809 125.938 112.14 125.651 112.261 125.475C112.383 125.309 112.89 124.879 113.387 124.514C113.883 124.161 115.13 123.035 116.167 122.009C117.866 120.32 118.098 120.044 118.671 119.006C119.024 118.377 119.377 117.781 119.455 117.682C119.775 117.284 120.161 116.942 120.403 116.854C120.712 116.733 121.595 115.375 121.992 114.392C122.169 113.962 122.356 113.565 122.411 113.498C122.455 113.443 122.61 113.101 122.742 112.748C122.875 112.406 123.018 112.119 123.073 112.119C123.128 112.119 123.162 112.03 123.162 111.92C123.162 111.821 123.283 111.037 123.437 110.187C123.956 107.284 123.989 106.898 124 102.494C124 100.165 123.967 97.9128 123.923 97.4933C123.89 97.0629 123.823 95.6721 123.79 94.4027C123.746 93.1223 123.702 91.9302 123.68 91.7536C123.647 91.566 123.603 90.3297 123.559 88.9941C123.526 87.6585 123.459 86.1132 123.415 85.5723C123.36 85.0204 123.305 83.7621 123.294 82.7577C123.272 81.7532 123.25 80.7819 123.239 80.6053C123.228 80.4176 123.184 79.8216 123.139 79.2807C123.106 78.7288 123.04 77.5146 123.007 76.5764C122.974 75.6382 122.93 74.6668 122.919 74.424C122.566 70.4834 122.478 63.2977 122.731 60.1298C122.797 59.313 122.886 57.8891 122.919 56.984C122.974 55.516 123.029 54.8206 123.261 52.8448C123.349 52.1052 123.349 43.6943 123.261 43.1866C123.217 42.9437 123.128 42.4691 123.073 42.138C123.018 41.8068 122.941 40.9459 122.908 40.2394C122.875 39.522 122.742 38.4071 122.632 37.7559C122.511 37.1046 122.312 35.7139 122.191 34.6873C122.058 33.6498 121.838 32.259 121.694 31.5967C121.551 30.9234 121.396 30.228 121.374 30.0514C121.187 29.0028 120.966 28.0756 120.58 26.729C120.437 26.2433 120.315 25.7907 120.315 25.7135C120.315 25.5589 119.918 24.3337 119.708 23.8701C118.892 22.0268 118.649 21.519 118.131 20.6139C117.601 19.6867 117.072 18.9362 116.641 18.4946C116.299 18.1525 115.538 17.1149 115.351 16.7617C115.24 16.5409 115.031 16.2429 114.887 16.0884C114.744 15.9338 114.556 15.68 114.479 15.5144C114.347 15.2495 113.762 14.4989 113.265 13.936C113.034 13.6821 112.096 12.8211 111.71 12.5121C111.18 12.0816 109.404 11.4745 109.15 11.629C109.095 11.6621 108.72 11.4635 108.312 11.1875C107.893 10.9116 107.44 10.6356 107.286 10.5694C107.142 10.5142 106.944 10.4148 106.856 10.3486C106.767 10.2934 106.238 10.0396 105.697 9.78569C105.146 9.53182 104.285 9.13445 103.767 8.89162C103.259 8.64878 102.575 8.35075 102.255 8.22934C101.935 8.10792 101.604 7.95339 101.527 7.88716C101.174 7.54498 98.5371 6.69506 96.8161 6.36392C96.5403 6.30873 96.1982 6.22042 96.0438 6.16523C95.7349 6.05485 94.411 5.75683 92.2376 5.32635C91.4433 5.16078 90.6048 4.98417 90.3621 4.92898C90.1194 4.87379 89.4464 4.80756 88.8727 4.77445C88.299 4.74134 87.3723 4.66408 86.8317 4.60889C86.2801 4.5537 85.4416 4.47643 84.9562 4.44332C84.4708 4.4102 83.6764 4.33294 83.191 4.26671C81.3817 4.03492 79.804 3.96868 77.1232 4.01283C74.2658 4.06802 73.7914 4.09011 71.9379 4.26671C71.3311 4.3219 70.6361 4.37708 70.3934 4.37708C70.1507 4.38812 69.5549 4.47643 69.0695 4.56473C68.5841 4.66407 68.0324 4.76341 67.8559 4.77445C67.6684 4.79653 67.1057 4.86275 66.5872 4.92898C66.0687 4.99521 65.2302 5.07248 64.7117 5.1056C63.818 5.16079 62.6707 5.24908 62.0528 5.32635C61.8984 5.34842 61.5012 5.41465 61.1703 5.48088C60.8393 5.54711 60.4421 5.62438 60.2766 5.64645C60.1111 5.67957 59.5374 5.81203 59.0079 5.94448C58.4673 6.07694 57.6399 6.26457 57.1544 6.37495C56.3491 6.55156 55.3451 6.80544 53.5137 7.31319C53.1497 7.41253 52.4988 7.58913 52.0795 7.69951C51.6493 7.80989 51.1307 7.96443 50.9211 8.03066C50.7115 8.09689 50.4578 8.17414 50.3695 8.19622C50.193 8.24037 48.3285 8.94681 47.7769 9.18965C47.5893 9.26691 47.1922 9.4104 46.8943 9.52078C46.2875 9.7305 44.9305 10.448 44.8753 10.5915C44.8533 10.6356 44.6657 10.7018 44.4671 10.746C44.2575 10.7791 44.0369 10.8784 43.9596 10.9668C43.8935 11.0551 43.75 11.1213 43.6507 11.1213C43.3639 11.1323 42.8123 11.4745 42.2717 11.9712C42.0069 12.2361 41.7311 12.4458 41.687 12.4458C41.2457 12.4458 36.5789 16.2208 36.5789 16.574C36.5789 16.6182 36.2038 17.0376 35.7515 17.5012C35.2992 17.9648 34.9241 18.3732 34.9241 18.4174C34.9241 18.4505 34.6483 18.8147 34.3173 19.2342C33.9863 19.6536 33.7105 20.062 33.7105 20.1393C33.7105 20.2166 33.6774 20.2828 33.6223 20.2828C33.5781 20.2828 33.4457 20.4373 33.3244 20.625C33.203 20.8126 32.8831 21.0886 32.6073 21.2541C31.9233 21.6515 31.5151 21.9937 31.1069 22.5345C30.7869 22.965 30.125 24.4662 29.8381 25.4154C29.7719 25.6583 29.5182 26.2654 29.2865 26.7621C29.0548 27.2588 28.8342 27.8107 28.79 27.9763C28.6687 28.5171 27.5985 31.3539 27.422 31.5967C27.3779 31.6519 27.2345 32.1265 27.1021 32.6453C26.9587 33.1641 26.7711 33.7822 26.6828 34.0251C26.5836 34.2679 26.4512 34.7094 26.3739 35.0185C26.2967 35.3165 26.065 36.0671 25.8775 36.6742C25.6017 37.5462 25.1162 39.2791 24.9508 39.9856C24.8956 40.2284 24.6087 41.1666 24.1895 42.5243C23.9358 43.308 23.7262 44.0034 23.7151 44.0696C23.5496 44.8533 23.4062 45.3831 23.2187 45.8909C23.0973 46.222 22.8546 47.0499 22.6781 47.7232C22.5016 48.3855 22.314 49.0588 22.2478 49.2133C21.9168 50.0411 21.6741 51.1008 21.3431 53.209C21.288 53.5733 21.1777 54.1142 21.0894 54.4232C20.8246 55.3614 20.5819 57.1386 20.4054 59.2468C20.3833 59.5779 20.284 60.1961 20.1958 60.6266C20.0854 61.1564 20.0193 62.4588 19.9862 64.8099C19.942 67.8785 19.9751 68.7174 20.2178 70.7263C20.262 71.0574 20.284 71.4327 20.284 71.5541C20.1627 74.3136 19.92 75.4174 19.2139 76.4108C19.0815 76.5874 18.8939 76.8855 18.8167 77.0731C18.6623 77.3932 16.3896 79.7774 16.2351 79.7774C16.191 79.7774 15.5291 80.3955 14.7568 81.1461C13.2233 82.6362 12.8151 82.9895 11.4471 83.9277C10.3217 84.7003 10.068 84.9653 9.07508 86.345C8.63378 86.9411 8.0601 87.6585 7.80635 87.9455C7.54157 88.2215 7.18853 88.6078 7.03407 88.8175C6.86859 89.0272 6.68104 89.248 6.62587 89.3142C6.44935 89.5129 5.1365 91.4556 5.1365 91.5218C5.1365 91.6211 4.43042 92.6366 4.33113 92.6808C4.19874 92.736 3.70228 93.8067 3.70228 94.0495C3.70228 94.1599 3.60299 94.4469 3.49267 94.6897C3.15066 95.3961 2.75349 97.2836 2.20187 100.86C2.01432 102.019 1.93709 105.297 2.05845 106.324ZM4.64003 100.253C4.67313 99.8224 4.78346 99.1601 4.86069 98.7627C4.94895 98.3653 5.04824 97.8686 5.08134 97.6589C5.19166 97.0187 5.57779 95.5286 5.74328 95.0871C5.83154 94.8663 5.8867 94.6787 5.86464 94.6787C5.78741 94.6787 7.02305 92.3386 7.34299 91.864C7.51951 91.6211 7.80634 91.279 7.9939 91.1024C8.18145 90.9147 8.3359 90.7381 8.3359 90.6829C8.3359 90.5946 8.42416 90.4732 9.00888 89.7778C9.16334 89.5902 9.61567 88.972 10.0018 88.3981C10.741 87.3053 11.6567 86.3229 12.5834 85.6165C12.8813 85.3847 13.3557 84.9984 13.6315 84.7555C13.9073 84.5127 14.1721 84.303 14.2162 84.303C14.2603 84.303 14.3596 84.2588 14.4368 84.1926C14.5141 84.1374 14.823 83.8946 15.1319 83.6517C15.4298 83.4199 16.0145 82.8349 16.4116 82.3603C17.206 81.411 17.4266 81.2013 17.901 80.9474C18.232 80.7708 20.1516 78.8613 20.273 78.5963C20.4495 78.1769 20.8908 77.5588 21.0342 77.5146C21.2108 77.4484 22.1154 75.7375 22.4243 74.8655C22.7663 73.8942 22.9098 71.3113 22.7332 69.4017C22.5126 67.0617 22.656 61.333 22.9649 59.7987C23.0532 59.3461 23.1966 58.3969 23.2849 57.7015C23.5055 55.8802 23.7593 54.3128 24.013 53.0876C24.1344 52.5026 24.3329 51.5423 24.4433 50.9683C24.5536 50.3944 24.7191 49.699 24.8294 49.423C24.9287 49.1471 25.05 48.7718 25.1052 48.5952C25.2045 48.242 25.6127 46.8291 25.7672 46.2772C25.9657 45.5708 26.7821 42.4581 27.0911 41.2549C27.2676 40.5595 27.5103 39.7317 27.6206 39.4337C27.8302 38.9038 27.8964 38.672 28.1943 37.6124C28.2715 37.3364 28.3708 37.0163 28.426 36.8949C28.5473 36.5969 28.9997 35.1068 29.3086 33.9699C29.441 33.4511 29.6285 32.9102 29.7057 32.7557C29.783 32.6012 29.8492 32.4135 29.8492 32.3252C29.8492 32.0493 30.7428 29.4995 30.8531 29.4664C30.9745 29.4222 31.7136 28.3074 31.9012 27.899C31.9674 27.7445 32.2101 27.3692 32.4528 27.0711C32.8169 26.5855 33.1699 25.9894 33.7988 24.7532C33.8981 24.5655 34.1628 24.1792 34.3945 23.8922C34.6262 23.5942 34.8138 23.3182 34.8138 23.263C34.8138 23.2189 34.9903 22.954 35.1889 22.6891C35.9501 21.7398 36.0935 21.5522 36.248 21.2321C36.3362 21.0555 36.6562 20.6581 36.943 20.349C37.2299 20.04 37.605 19.6095 37.7704 19.3998C37.9359 19.19 38.2779 18.8037 38.5427 18.5498C38.7965 18.296 39.1826 17.8876 39.3812 17.6447C39.7673 17.1811 40.5948 16.5299 41.9297 15.6137C42.3489 15.3267 42.9226 14.8963 43.1874 14.6534C43.4632 14.4106 43.739 14.2119 43.8162 14.2119C43.8935 14.2119 43.9707 14.1788 43.9927 14.1236C44.0589 13.9801 45.3387 13.2516 46.8391 12.5231C48.6705 11.6401 48.9573 11.5187 49.6634 11.3089C49.9723 11.2206 50.3695 11.0661 50.546 10.9778C50.7225 10.8895 51.5058 10.6356 52.3002 10.4038C53.0835 10.1831 54.2529 9.82985 54.8928 9.63116C55.5327 9.42144 56.5256 9.17861 57.0993 9.07927C57.673 8.97992 58.1805 8.86954 58.2356 8.83643C58.2908 8.80331 58.4894 8.73709 58.688 8.6819C58.8755 8.63775 59.3058 8.52736 59.6367 8.42801C59.9677 8.33971 60.4531 8.24038 60.7179 8.20726C60.9827 8.17415 61.3909 8.09689 61.6336 8.03066C61.8763 7.96443 62.2183 7.88716 62.3949 7.86509C62.5714 7.84301 62.8031 7.79885 62.9134 7.77678C63.112 7.71055 63.7187 7.66641 66.4217 7.47876C67.9 7.37942 68.5289 7.30215 68.6833 7.20281C68.7606 7.15865 71.6511 6.89374 73.9237 6.72817C75.9648 6.58468 81.6023 6.71714 83.3565 6.97101C83.9964 7.05932 84.9452 7.13658 85.4747 7.14761C85.9932 7.14761 86.5449 7.18073 86.6883 7.20281C87.5268 7.33526 88.6741 7.4898 89.1485 7.52291C89.656 7.55602 90.4945 7.6664 91.024 7.7547C91.1454 7.77678 91.5426 7.87613 91.9066 7.97547C92.2707 8.07481 92.9878 8.22934 93.5063 8.31765C94.0249 8.40595 94.8192 8.57152 95.2715 8.6819C95.7239 8.80331 96.6395 9.02408 97.3125 9.18965C99.0336 9.60909 99.8279 9.87399 100.589 10.3045C100.953 10.5142 101.295 10.6798 101.35 10.6798C101.395 10.6798 101.714 10.8012 102.056 10.9447C102.387 11.0992 102.663 11.1985 102.663 11.1765C102.663 11.1544 103.424 11.5186 104.34 11.9822C105.267 12.4458 106.205 12.8984 106.414 12.9867C106.624 13.075 107.098 13.362 107.462 13.6269C109.834 15.3599 110.474 15.8455 110.706 16.1215C110.86 16.2981 111.037 16.4968 111.103 16.574C111.18 16.6403 111.533 17.0707 111.908 17.5233C112.273 17.9759 112.725 18.5278 112.901 18.7375C113.078 18.9472 113.31 19.3004 113.42 19.5101C113.519 19.7199 113.762 20.051 113.96 20.2497C114.148 20.4373 114.358 20.6691 114.413 20.7464C114.479 20.8236 114.711 21.1106 114.942 21.3755C115.163 21.6515 115.351 21.9495 115.351 22.0599C115.351 22.1592 115.549 22.5456 115.792 22.9098C116.035 23.2741 116.233 23.5942 116.233 23.6383C116.233 23.6825 116.41 24.0688 116.619 24.4993C116.84 24.9298 117.061 25.4927 117.116 25.7355C117.182 25.9894 117.325 26.5303 117.447 26.9608C117.568 27.3802 117.767 28.1308 117.888 28.6164C118.009 29.1021 118.197 29.7644 118.296 30.0845C118.396 30.4046 118.473 30.7468 118.473 30.8572C118.462 30.9565 118.55 31.5194 118.671 32.0934C118.859 33.0427 119.212 35.2613 119.377 36.5086C119.466 37.2481 119.488 37.3254 119.576 37.4799C119.631 37.5572 119.653 37.7228 119.642 37.8663C119.631 37.9987 119.653 38.3299 119.697 38.6058C119.741 38.8818 119.808 39.246 119.83 39.4337C120.083 41.0011 120.437 46.4759 120.459 49.2023C120.481 51.2774 120.459 51.6085 120.161 54.8316C120.072 55.8361 119.962 57.3262 119.929 58.143C119.896 58.9598 119.786 60.4279 119.697 61.3992C119.598 62.3705 119.51 63.9821 119.488 64.9865C119.422 68.3973 119.422 70.4062 119.488 70.5055C119.521 70.5607 119.565 71.0353 119.587 71.5762C119.609 72.106 119.686 73.0663 119.741 73.7065C119.808 74.3467 119.896 75.583 119.929 76.466C119.962 77.3491 120.017 78.4418 120.039 78.8944C120.061 79.3469 120.106 80.6936 120.139 81.8746C120.183 83.0557 120.238 84.2036 120.271 84.4133C120.293 84.6231 120.348 86.1132 120.381 87.7247C120.425 90.2635 120.503 91.4556 120.701 93.1333C120.723 93.3431 120.779 95.1312 120.812 97.107C120.845 99.0828 120.9 100.915 120.922 101.191C120.988 101.798 120.988 103.432 120.955 106.28C120.922 108.068 120.889 108.487 120.745 108.653C120.381 109.094 119.907 110.099 119.786 110.728C119.697 111.158 119.554 111.489 119.322 111.743C119.146 111.953 118.991 112.174 118.991 112.24C118.991 112.295 118.892 112.56 118.771 112.803C118.649 113.057 118.55 113.3 118.55 113.355C118.55 113.399 118.373 113.796 118.164 114.227C117.954 114.668 117.778 115.066 117.778 115.11C117.778 115.242 116.983 116.446 116.697 116.755C116.553 116.909 116.355 117.174 116.266 117.362C116.167 117.538 116.057 117.715 116.024 117.748C115.979 117.781 115.825 118.002 115.682 118.245C115.306 118.885 111.666 122.494 111.092 122.803C110.971 122.87 110.651 123.146 110.364 123.41C109.945 123.819 108.588 124.812 108.455 124.812C108.389 124.812 106.922 125.695 106.867 125.773C106.756 125.927 105.83 126.534 105.256 126.832C104.715 127.108 104.241 127.329 103.215 127.737C102.939 127.848 102.498 128.035 102.222 128.157C101.527 128.466 100.512 128.775 99.8169 128.896C99.497 128.952 98.9453 129.128 98.6033 129.283C98.0848 129.526 97.3125 129.746 95.4591 130.166C95.3598 130.188 95.2164 130.243 95.1612 130.276C94.9957 130.375 93.9697 130.629 93.3519 130.718C93.054 130.762 92.7341 130.828 92.6348 130.883C92.1604 131.115 91.6088 131.325 91.4653 131.325C91.2226 131.325 89.6229 131.866 89.3581 132.042C89.2258 132.119 88.6521 132.351 88.0894 132.539C87.5157 132.738 87.0193 132.958 86.9751 133.036C86.931 133.113 86.7545 133.212 86.6 133.245C86.4345 133.289 86.1477 133.444 85.9602 133.587C85.7726 133.731 85.3203 134.018 84.9452 134.239C84.0074 134.78 83.522 135.354 83.3455 136.115C83.2682 136.457 83.1469 136.733 83.0807 136.733C82.9042 136.733 82.3746 138.499 82.2532 139.46C82.1981 139.879 82.1098 140.53 82.0436 140.928C81.8781 142.02 81.834 146.281 81.9554 148.908L82.0326 150.542L81.5692 150.74C81.3045 150.84 80.6425 150.994 80.1019 151.072C79.5503 151.149 78.8884 151.281 78.6125 151.359C77.9175 151.568 76.726 151.822 75.7441 151.977C75.2918 152.043 74.4533 152.197 73.9017 152.319C72.9198 152.54 72.8646 152.54 72.5888 152.352C72.2689 152.142 71.3863 152.153 69.8528 152.396C69.4446 152.462 68.3965 152.529 67.536 152.551C66.1569 152.573 65.9142 152.551 65.5281 152.352C65.2964 152.231 65.0757 152.109 65.0426 152.076C65.0095 152.043 64.7337 151.866 64.4359 151.69C63.6084 151.226 62.4942 150.144 61.9315 149.283C61.766 149.03 61.435 148.544 61.2144 148.213C60.4752 147.142 60.0891 146.458 59.6809 145.475C59.4713 144.946 59.2396 144.416 59.1844 144.294C58.9086 143.676 58.346 141.535 58.2798 140.795C58.2467 140.519 58.2025 140.232 58.1584 140.177C58.1253 140.122 58.0701 139.857 58.0481 139.592C57.9488 138.753 57.7612 137.694 57.5847 137.131C57.2979 136.115 57.0883 134.647 57.1655 134.051C57.3089 132.87 57.2427 132.252 56.9559 131.965C56.7573 131.766 56.669 131.523 56.6139 131.038C56.5808 130.673 56.4153 130.033 56.2719 129.603C55.5106 127.483 55.3562 127.02 55.4113 127.02C55.4444 127.02 55.4113 126.932 55.3231 126.821C55.2348 126.722 55.0693 126.347 54.948 125.993C54.8376 125.64 54.6501 125.298 54.5398 125.243C54.4294 125.188 54.3412 125.077 54.3412 125.011C54.3412 124.912 53.1055 123.664 52.6642 123.322C52.245 122.991 51.6162 122.837 50.9211 122.881C49.0897 122.991 48.5822 123.112 47.7989 123.587C47.3907 123.83 47.0267 124.04 46.9825 124.04C46.9053 124.04 46.8281 124.117 46.0999 124.812C45.8462 125.055 45.6145 125.254 45.5814 125.254C45.5483 125.254 45.427 125.342 45.3056 125.441C45.0739 125.673 44.5775 126.082 44.081 126.468C43.4522 126.954 43.055 127.384 42.5696 128.146C42.4041 128.411 42.1945 128.698 42.0952 128.797C42.0069 128.885 41.7532 129.227 41.5436 129.537C41.3339 129.846 40.9919 130.199 40.7713 130.32C39.4363 131.082 39.3812 131.104 38.2669 131.148C37.1968 131.192 37.1747 131.181 36.4686 130.795C36.0715 130.585 35.5529 130.309 35.3102 130.188C34.8469 129.956 34.1518 129.448 33.7546 129.062C33.4126 128.742 33.0155 128.422 32.6845 128.201C32.3535 127.991 30.3456 126.457 30.0367 126.192C29.9374 126.104 29.8271 126.026 29.794 126.026C29.7609 126.026 29.5072 125.883 29.2203 125.706C28.5804 125.309 27.9957 125.11 26.7601 124.856C25.723 124.647 24.7742 124.636 22.9539 124.79C22.0161 124.867 21.5528 124.856 20.9129 124.746C19.4235 124.47 18.8829 124.327 18.4306 124.128C18.1879 124.018 17.89 123.929 17.7576 123.929C17.4928 123.929 15.4739 122.925 14.6796 122.395C14.3707 122.196 13.9073 121.733 13.6425 121.379C13.3667 121.026 13.0026 120.618 12.8151 120.474C12.3517 120.132 12.0428 119.834 11.8442 119.536C11.756 119.404 11.4802 119.073 11.2485 118.819C11.0058 118.565 10.6196 118.09 10.3879 117.759C10.1563 117.428 9.92458 117.108 9.86942 117.042C9.81425 116.975 9.5605 116.644 9.29573 116.302C9.01991 115.96 8.7441 115.574 8.66688 115.43C8.58965 115.287 8.47933 115.11 8.42417 115.055C8.29178 114.878 7.45331 113.554 7.45331 113.498C7.45331 113.476 7.25473 113.024 7.01201 112.505C6.7693 111.986 6.57072 111.523 6.57072 111.489C6.57072 111.467 6.37213 111.048 6.14045 110.584C5.90877 110.11 5.59986 109.348 5.47851 108.885C5.34612 108.421 5.14753 107.825 5.02617 107.571C4.84965 107.152 4.6621 106.114 4.55178 104.944C4.49662 104.37 4.56281 101.136 4.64003 100.253Z" fill="black"/>
</svg>
