<svg width="409" height="505" viewBox="0 0 409 505" fill="none" xmlns="http://www.w3.org/2000/svg">
<path d="M0.19555 342.203C0.527795 344.898 1.48757 348.811 2.22585 350.398C2.52117 351.063 3.07488 352.834 3.48095 354.348C3.85009 355.825 4.77294 358.261 5.47433 359.701C6.21261 361.14 6.80325 362.469 6.80325 362.691C6.80325 362.912 7.20931 363.65 7.6892 364.278C8.16909 364.942 8.68588 365.865 8.83355 366.382C9.64565 369.077 14.8137 378.269 16.8071 380.594C17.1393 381 18.0252 381.997 18.7635 382.809C19.5018 383.621 20.7938 385.319 21.6429 386.574C24.6699 390.93 26.5156 393.145 29.0627 395.544C30.5023 396.873 32.0897 398.424 32.6065 399.014C34.5998 401.266 37.1839 403.629 37.4792 403.444C37.6268 403.37 37.8852 403.481 38.0698 403.739C38.2175 403.998 39.8417 404.958 41.6874 405.844C43.4962 406.766 45.0836 407.579 45.1943 407.689C45.4527 408.022 55.0874 410.938 56.8224 411.233C58.1143 411.455 63.2454 412.451 63.9468 412.599C64.0945 412.636 65.2019 412.525 66.4201 412.377C73.1016 411.528 82.5148 412.488 86.2432 414.408C88.5688 415.589 91.7434 417.804 92.9985 419.17C93.5891 419.797 95.5087 421.274 97.2437 422.418C98.9787 423.563 100.455 424.596 100.566 424.707C101.23 425.519 105.955 429.137 106.362 429.137C106.62 429.137 106.841 429.284 106.841 429.506C106.841 429.69 107.137 429.875 107.469 429.875C107.838 429.875 108.613 430.207 109.241 430.613C109.832 431.019 111.419 431.905 112.711 432.533C114.963 433.603 115.332 433.677 119.725 433.677C123.047 433.714 124.634 433.566 125.299 433.197C125.815 432.902 126.406 432.644 126.591 432.607C127.403 432.496 132.128 430.133 132.239 429.838C132.312 429.653 132.571 429.506 132.829 429.506C133.383 429.506 136.668 426.036 137.517 424.559C138.366 423.083 140.803 419.982 142.316 418.468C143.461 417.324 145.011 415.958 150.253 411.418C150.843 410.901 151.619 410.31 151.951 410.126C152.283 409.904 153.464 409.129 154.572 408.391C155.679 407.616 157.303 406.84 158.226 406.656C160.663 406.102 165.277 406.065 166.311 406.619C167.492 407.246 171.073 410.938 171.073 411.565C171.073 411.824 171.479 412.82 171.995 413.78C172.512 414.74 172.844 415.7 172.734 415.884C172.586 416.069 172.66 416.217 172.844 416.217C173.029 416.217 173.62 417.324 174.173 418.69C174.764 420.093 175.392 421.569 175.576 422.012C175.871 422.603 175.871 422.972 175.576 423.341C175.17 423.821 175.281 425.002 176.241 429.321C176.499 430.429 176.573 432.717 176.425 435.043C176.278 437.922 176.351 439.583 176.794 441.503C178.382 448.48 178.788 450.584 179.157 453.131C179.378 454.645 179.637 456.38 179.711 457.007C179.821 457.598 179.969 459.148 180.08 460.403C180.19 461.658 180.523 463.319 180.855 464.095C181.187 464.87 181.852 467.085 182.331 469.078C182.811 471.035 183.697 473.619 184.288 474.8C184.916 475.981 185.912 477.938 186.503 479.156C187.13 480.374 187.979 482.109 188.385 483.032C189.382 485.21 190.711 487.388 191.708 488.495C192.151 489.012 192.741 489.935 193 490.599C193.701 492.26 200.899 499.237 203.077 500.382C204.037 500.898 204.997 501.415 205.218 501.6C207.544 503.335 208.725 503.778 212.38 504.442C216.551 505.144 223.307 505.18 226.444 504.516C228.327 504.11 228.179 504.11 232.351 503.925C237.002 503.704 241.838 503.113 244.348 502.486C245.566 502.19 247.375 501.932 248.371 501.895C249.331 501.858 250.291 501.784 250.439 501.674C250.623 501.563 251.731 501.378 252.912 501.267C254.093 501.157 256.16 500.714 257.526 500.345C258.929 499.939 261.734 499.422 263.802 499.237C269.745 498.61 271.997 498.314 272.698 497.982C273.879 497.465 275.614 495.583 275.43 495.066C275.319 494.771 275.467 493.958 275.799 493.331C276.648 491.633 276.796 487.609 276.168 482.293C275.171 474.098 275.762 467.048 278.125 458.853C278.715 456.822 279.49 454.017 279.786 452.577C280.118 451.175 280.598 449.772 280.819 449.513C281.041 449.218 281.262 448.775 281.299 448.517C281.41 447.778 284.88 440.802 285.212 440.654C285.397 440.58 285.507 440.285 285.507 440.026C285.507 439.436 287.944 437.258 288.571 437.258C288.83 437.258 292.078 436.261 295.843 435.043C299.572 433.825 303.226 432.717 303.965 432.607C305.109 432.422 315.224 429.69 318.177 428.767C318.767 428.583 319.949 428.325 320.761 428.214C322.57 427.918 325.744 427.033 334.788 424.338C336.006 423.969 338 423.378 339.218 423.046C340.436 422.677 342.762 421.754 344.349 420.942C345.936 420.129 348.04 419.244 348.963 418.911C349.886 418.616 350.92 418.136 351.215 417.878C351.51 417.619 352.359 417.139 353.061 416.844C353.762 416.549 355.35 415.552 356.568 414.666C357.786 413.743 359.89 412.377 361.256 411.676C362.622 410.938 363.951 410.163 364.209 409.941C364.467 409.72 365.464 409.055 366.424 408.428C367.421 407.8 368.528 406.84 368.934 406.25C369.34 405.696 371.038 404.256 372.699 403.038C374.36 401.857 378.532 398.092 382.002 394.659C387.687 389.011 388.462 388.088 390.381 384.618C391.563 382.514 392.744 380.52 393.002 380.188C394.073 378.859 395.365 377.715 396.177 377.419C397.211 377.013 400.164 372.473 401.493 369.188C402.083 367.748 402.711 366.419 402.895 366.197C403.043 366.013 403.56 364.869 404.003 363.687C404.446 362.543 404.926 361.583 405.11 361.583C405.295 361.583 405.406 361.288 405.406 360.919C405.406 360.586 405.812 357.966 406.328 355.123C408.063 345.415 408.174 344.123 408.211 329.394C408.211 321.605 408.1 314.074 407.953 312.671C407.842 311.232 407.62 306.581 407.51 302.335C407.362 298.053 407.214 294.067 407.141 293.476C407.03 292.848 406.882 288.714 406.734 284.247C406.624 279.781 406.402 274.613 406.255 272.804C406.07 270.958 405.885 266.75 405.849 263.391C405.775 260.031 405.701 256.783 405.664 256.192C405.627 255.565 405.479 253.571 405.332 251.763C405.221 249.917 404.999 245.856 404.889 242.719C404.778 239.581 404.63 236.332 404.593 235.52C403.412 222.342 403.117 198.311 403.966 187.716C404.187 184.984 404.483 180.222 404.593 177.195C404.778 172.286 404.963 169.96 405.738 163.353C406.033 160.879 406.033 132.75 405.738 131.052C405.59 130.24 405.295 128.653 405.11 127.546C404.926 126.438 404.667 123.559 404.557 121.196C404.446 118.797 404.003 115.068 403.634 112.89C403.228 110.712 402.563 106.061 402.157 102.628C401.714 99.1583 400.976 94.507 400.496 92.2922C400.016 90.0404 399.499 87.7148 399.425 87.1241C398.798 83.6173 398.06 80.5165 396.768 76.0129C396.288 74.3887 395.882 72.8752 395.882 72.6168C395.882 72.1 394.553 68.0025 393.851 66.4521C391.12 60.2874 390.308 58.5893 388.573 55.5623C386.801 52.4615 385.029 49.9513 383.589 48.4747C382.445 47.3304 379.898 43.8604 379.27 42.6791C378.901 41.9409 378.2 40.9442 377.72 40.4274C377.24 39.9106 376.612 39.0615 376.354 38.5078C375.911 37.6219 373.954 35.1117 372.293 33.229C371.518 32.38 368.38 29.5007 367.088 28.4671C365.316 27.0274 359.373 24.9971 358.524 25.5139C358.34 25.6247 357.085 24.9602 355.719 24.0374C354.316 23.1145 352.802 22.1916 352.286 21.9701C351.806 21.7856 351.141 21.4533 350.846 21.2318C350.551 21.0473 348.779 20.1982 346.97 19.3492C345.124 18.5002 342.245 17.1713 340.51 16.3591C338.812 15.547 336.523 14.5503 335.453 14.1443C334.382 13.7382 333.275 13.2214 333.016 12.9999C331.835 11.8556 323.012 9.01316 317.254 7.90574C316.331 7.72116 315.187 7.42585 314.67 7.24128C313.636 6.87214 309.206 5.87543 301.934 4.43577C299.276 3.88205 296.471 3.29142 295.659 3.10685C294.847 2.92228 292.595 2.70078 290.675 2.59006C288.756 2.47931 285.655 2.22089 283.846 2.03632C282.001 1.85175 279.195 1.59336 277.571 1.48261C275.947 1.37186 273.289 1.11347 271.664 0.891974C265.61 0.116797 260.332 -0.104699 251.362 0.0429451C241.801 0.227516 240.213 0.301368 234.012 0.891975C231.981 1.07655 229.656 1.26115 228.844 1.26115C228.032 1.29804 226.038 1.59336 224.414 1.88868C222.79 2.22089 220.944 2.55314 220.353 2.59007C219.726 2.66389 217.843 2.88538 216.108 3.10685C214.373 3.32835 211.568 3.58674 209.833 3.69749C206.843 3.88206 203.004 4.17738 200.936 4.43577C200.42 4.50959 199.091 4.73109 197.983 4.95258C196.876 5.17408 195.547 5.43247 194.993 5.5063C194.439 5.61704 192.52 6.06001 190.748 6.503C188.939 6.94596 186.171 7.5735 184.546 7.94264C181.852 8.53327 178.492 9.3823 172.365 11.0804C171.146 11.4126 168.968 12.0032 167.566 12.3724C166.126 12.7415 164.391 13.2583 163.69 13.4798C162.988 13.7013 162.139 13.9597 161.844 14.0335C161.253 14.1812 155.015 16.5437 153.169 17.3558C152.542 17.6142 151.213 18.0941 150.216 18.4633C148.186 19.1647 143.645 21.5641 143.461 22.044C143.387 22.1916 142.759 22.4131 142.095 22.5608C141.393 22.6715 140.655 23.0038 140.397 23.2991C140.175 23.5944 139.695 23.8159 139.363 23.8159C138.403 23.8528 136.558 24.9971 134.749 26.6583C133.863 27.5442 132.94 28.2456 132.792 28.2456C131.316 28.2456 115.701 40.8703 115.701 42.0516C115.701 42.1993 114.446 43.602 112.932 45.1524C111.419 46.7028 110.164 48.0687 110.164 48.2163C110.164 48.3271 109.241 49.5452 108.133 50.948C107.026 52.3508 106.103 53.7166 106.103 53.975C106.103 54.2334 105.992 54.4549 105.808 54.4549C105.66 54.4549 105.217 54.9717 104.811 55.5992C104.405 56.2268 103.335 57.1496 102.412 57.7034C100.123 59.0323 98.7572 60.1766 97.3913 61.9854C96.3208 63.4251 94.1059 68.4454 93.1462 71.6201C92.9247 72.4322 92.0756 74.4625 91.3004 76.1237C90.5252 77.7848 89.7869 79.6305 89.6393 80.1842C89.2332 81.9931 85.6525 91.4801 85.0619 92.2922C84.9142 92.4768 84.4343 94.0641 83.9914 95.7991C83.5115 97.534 82.8839 99.6013 82.5886 100.413C82.2564 101.226 81.8134 102.702 81.555 103.736C81.2966 104.732 80.5214 107.243 79.8939 109.273C78.971 112.189 77.3468 117.985 76.793 120.347C76.6085 121.159 75.6487 124.297 74.246 128.838C73.3969 131.458 72.6955 133.784 72.6586 134.006C72.1049 136.626 71.625 138.398 70.9975 140.096C70.5914 141.204 69.7793 143.972 69.1887 146.224C68.598 148.439 67.9705 150.691 67.749 151.208C66.6416 153.976 65.8295 157.52 64.722 164.571C64.5375 165.789 64.1683 167.598 63.873 168.631C62.987 171.769 62.1749 177.712 61.5843 184.763C61.5105 185.87 61.1782 187.938 60.8829 189.377C60.5138 191.149 60.2923 195.505 60.1815 203.368C60.0339 213.63 60.1446 216.436 60.9567 223.154C61.1044 224.261 61.1782 225.516 61.1782 225.923C60.7722 235.151 59.9601 238.843 57.5976 242.165C57.1546 242.756 56.527 243.752 56.2686 244.38C55.7518 245.45 48.1474 253.424 47.6306 253.424C47.483 253.424 45.2681 255.491 42.6841 258.001C37.553 262.985 36.1872 264.166 31.6098 267.304C27.8445 269.888 26.9954 270.774 23.6731 275.388C22.1966 277.381 20.277 279.781 19.428 280.74C18.542 281.663 17.3608 282.955 16.844 283.657C16.2903 284.358 15.6627 285.096 15.4781 285.318C14.8875 285.982 10.4947 292.479 10.4947 292.701C10.4947 293.033 8.13216 296.429 7.79995 296.577C7.35696 296.761 5.69582 300.342 5.69582 301.154C5.69582 301.523 5.36358 302.483 4.99444 303.295C3.85009 305.658 2.52117 311.97 0.675438 323.93C0.0479049 327.806 -0.210487 338.77 0.19555 342.203ZM8.83355 321.9C8.9443 320.46 9.31344 318.246 9.57183 316.917C9.86715 315.588 10.1994 313.927 10.3101 313.225C10.6793 311.084 11.9713 306.101 12.525 304.624C12.8203 303.886 13.0049 303.258 12.9311 303.258C12.6727 303.258 16.8071 295.432 17.8776 293.845C18.4682 293.033 19.428 291.889 20.0555 291.298C20.6831 290.67 21.1999 290.08 21.1999 289.895C21.1999 289.6 21.4952 289.194 23.4517 286.868C23.9685 286.241 25.482 284.174 26.774 282.254C29.2472 278.599 32.3111 275.314 35.4119 272.952C36.4087 272.176 37.996 270.884 38.9188 270.072C39.8417 269.26 40.7276 268.559 40.8753 268.559C41.0229 268.559 41.3552 268.411 41.6136 268.19C41.872 268.005 42.9056 267.193 43.9392 266.381C44.9359 265.606 46.8924 263.649 48.2213 262.062C50.8791 258.887 51.6174 258.186 53.2047 257.337C54.3122 256.746 60.7353 250.36 61.1413 249.474C61.732 248.071 63.2085 246.004 63.6884 245.856C64.279 245.635 67.306 239.913 68.3396 236.997C69.484 233.748 69.9639 225.11 69.3732 218.724C68.635 210.898 69.1149 191.74 70.1485 186.609C70.4438 185.095 70.9237 181.921 71.219 179.595C71.9573 173.504 72.8063 168.262 73.6553 164.165C74.0614 162.208 74.7258 158.997 75.095 157.077C75.4641 155.158 76.0178 152.832 76.387 151.909C76.7192 150.986 77.1253 149.731 77.3099 149.14C77.6421 147.959 79.0079 143.234 79.5247 141.388C80.1892 139.026 82.9209 128.616 83.9545 124.592C84.5451 122.267 85.3572 119.498 85.7264 118.501C86.4277 116.73 86.6492 115.954 87.6459 112.411C87.9043 111.488 88.2365 110.417 88.4211 110.011C88.8272 109.014 90.3407 104.031 91.3742 100.229C91.8172 98.4938 92.4448 96.685 92.7032 96.1682C92.9616 95.6514 93.1831 95.0239 93.1831 94.7286C93.1831 93.8057 96.1731 85.2785 96.5423 85.1677C96.9483 85.0201 99.4216 81.2917 100.049 79.9259C100.271 79.409 101.083 78.1539 101.895 77.1573C103.113 75.533 104.294 73.5397 106.398 69.4052C106.731 68.7777 107.617 67.4857 108.392 66.5259C109.167 65.5292 109.795 64.6063 109.795 64.4218C109.795 64.2741 110.385 63.3882 111.05 62.5022C113.597 59.3276 114.077 58.7 114.593 57.6295C114.889 57.0389 115.959 55.71 116.919 54.6764C117.879 53.6427 119.134 52.2031 119.688 51.5017C120.241 50.8003 121.386 49.5083 122.272 48.6593C123.121 47.8103 124.413 46.4444 125.077 45.6323C126.369 44.0819 129.138 41.9039 133.604 38.8401C135.007 37.8803 136.927 36.4406 137.813 35.6285C138.736 34.8164 139.658 34.1519 139.917 34.1519C140.175 34.1519 140.434 34.0412 140.507 33.8566C140.729 33.3767 145.011 30.9403 150.031 28.504C156.159 25.5509 157.119 25.1448 159.481 24.4434C160.515 24.1481 161.844 23.6313 162.435 23.336C163.025 23.0407 165.646 22.1916 168.304 21.4164C170.925 20.6781 174.838 19.4969 176.979 18.8324C179.12 18.1311 182.442 17.3189 184.362 16.9867C186.281 16.6545 187.979 16.2853 188.164 16.1746C188.349 16.0638 189.013 15.8424 189.677 15.6578C190.305 15.5101 191.745 15.141 192.852 14.8088C193.96 14.5134 195.584 14.1812 196.47 14.0704C197.356 13.9597 198.721 13.7013 199.534 13.4798C200.346 13.2583 201.49 12.9999 202.081 12.9261C202.671 12.8523 203.447 12.7046 203.816 12.6308C204.48 12.4093 206.51 12.2616 215.554 11.6341C220.501 11.3019 222.605 11.0435 223.122 10.7112C223.38 10.5636 233.052 9.67762 240.656 9.12391C247.485 8.64402 266.349 9.08698 272.218 9.93604C274.359 10.2313 277.534 10.4898 279.306 10.5266C281.041 10.5266 282.886 10.6374 283.366 10.7112C286.172 11.1542 290.011 11.671 291.598 11.7817C293.296 11.8925 296.102 12.2616 297.874 12.557C298.28 12.6308 299.609 12.963 300.827 13.2952C302.045 13.6275 304.444 14.1443 306.179 14.4396C307.914 14.7349 310.572 15.2886 312.086 15.6578C313.599 16.0638 316.663 16.8021 318.915 17.3558C324.674 18.7586 327.331 19.6445 329.879 21.0842C331.097 21.7856 332.241 22.3393 332.426 22.3393C332.573 22.3393 333.644 22.7453 334.788 23.2252C335.896 23.742 336.818 24.0743 336.818 24.0004C336.818 23.9266 339.366 25.1448 342.429 26.6952C345.53 28.2456 348.668 29.7591 349.369 30.0544C350.071 30.3497 351.658 31.3095 352.876 32.1954C360.813 37.991 362.954 39.6152 363.729 40.5381C364.246 41.1288 364.837 41.7932 365.058 42.0516C365.316 42.2731 366.498 43.7128 367.753 45.2263C368.971 46.7397 370.484 48.5855 371.075 49.2868C371.666 49.9882 372.441 51.1695 372.81 51.8709C373.142 52.5722 373.954 53.6797 374.619 54.3441C375.246 54.9717 375.948 55.7469 376.132 56.0053C376.354 56.2637 377.129 57.2235 377.904 58.1094C378.643 59.0323 379.27 60.0289 379.27 60.3981C379.27 60.7303 379.935 62.0223 380.747 63.2405C381.559 64.4587 382.223 65.5292 382.223 65.6769C382.223 65.8245 382.814 67.1165 383.515 68.5562C384.254 69.9959 384.992 71.8785 385.176 72.6906C385.398 73.5396 385.878 75.3485 386.284 76.7881C386.69 78.1909 387.354 80.7011 387.76 82.3253C388.166 83.9495 388.794 86.1644 389.126 87.2349C389.458 88.3054 389.717 89.4498 389.717 89.8189C389.68 90.1512 389.975 92.0338 390.381 93.9533C391.009 97.128 392.19 104.548 392.744 108.719C393.039 111.192 393.113 111.451 393.408 111.968C393.593 112.226 393.667 112.78 393.63 113.26C393.593 113.703 393.667 114.81 393.814 115.733C393.962 116.656 394.184 117.874 394.257 118.501C395.106 123.743 396.288 142.053 396.362 151.171C396.435 158.111 396.362 159.218 395.365 169.997C395.069 173.356 394.7 178.34 394.59 181.071C394.479 183.803 394.11 188.713 393.814 191.961C393.482 195.21 393.187 200.599 393.113 203.958C392.892 215.365 392.892 222.083 393.113 222.416C393.224 222.6 393.371 224.188 393.445 225.996C393.519 227.768 393.777 230.98 393.962 233.121C394.184 235.262 394.479 239.396 394.59 242.349C394.7 245.303 394.885 248.957 394.959 250.471C395.033 251.984 395.18 256.488 395.291 260.438C395.439 264.387 395.623 268.226 395.734 268.928C395.808 269.629 395.992 274.613 396.103 280.002C396.251 288.493 396.509 292.479 397.174 298.09C397.247 298.792 397.432 304.772 397.543 311.379C397.654 317.987 397.838 324.115 397.912 325.038C398.133 327.068 398.133 332.531 398.023 342.055C397.912 348.036 397.801 349.438 397.321 349.992C396.103 351.469 394.516 354.828 394.11 356.932C393.814 358.372 393.335 359.479 392.559 360.328C391.969 361.029 391.452 361.768 391.452 361.989C391.452 362.174 391.12 363.06 390.714 363.872C390.308 364.721 389.975 365.533 389.975 365.718C389.975 365.865 389.385 367.194 388.683 368.634C387.982 370.11 387.391 371.439 387.391 371.587C387.391 372.03 384.733 376.054 383.774 377.087C383.294 377.604 382.629 378.49 382.334 379.118C382.002 379.708 381.633 380.299 381.522 380.41C381.374 380.52 380.857 381.259 380.378 382.071C379.122 384.212 366.941 396.283 365.021 397.316C364.615 397.538 363.545 398.461 362.585 399.347C361.182 400.712 356.642 404.035 356.199 404.035C355.977 404.035 351.067 406.988 350.883 407.246C350.514 407.763 347.413 409.793 345.493 410.79C343.685 411.713 342.097 412.451 338.664 413.817C337.741 414.186 336.265 414.814 335.342 415.22C333.016 416.253 329.62 417.287 327.295 417.693C326.224 417.878 324.378 418.468 323.234 418.985C321.499 419.797 318.915 420.536 312.713 421.938C312.381 422.012 311.901 422.197 311.717 422.307C311.163 422.64 307.73 423.489 305.663 423.784C304.666 423.932 303.595 424.153 303.263 424.338C301.676 425.113 299.83 425.814 299.35 425.814C298.538 425.814 293.186 427.623 292.3 428.214C291.857 428.472 289.937 429.247 288.055 429.875C286.135 430.539 284.474 431.278 284.326 431.536C284.178 431.794 283.588 432.127 283.071 432.237C282.517 432.385 281.558 432.902 280.93 433.382C280.302 433.862 278.789 434.821 277.534 435.56C274.396 437.369 272.772 439.288 272.181 441.835C271.923 442.98 271.517 443.902 271.295 443.902C270.705 443.902 268.933 449.809 268.527 453.02C268.342 454.423 268.047 456.601 267.825 457.93C267.272 461.584 267.124 475.833 267.53 484.619L267.788 490.082L266.238 490.747C265.352 491.079 263.137 491.596 261.328 491.854C259.483 492.113 257.268 492.556 256.345 492.814C254.019 493.515 250.033 494.364 246.747 494.881C245.234 495.103 242.428 495.62 240.583 496.026C237.297 496.764 237.113 496.764 236.19 496.136C235.119 495.435 232.166 495.472 227.035 496.284C225.669 496.506 222.162 496.727 219.283 496.801C214.669 496.875 213.856 496.801 212.564 496.136C211.789 495.73 211.051 495.324 210.94 495.214C210.829 495.103 209.907 494.512 208.91 493.922C206.141 492.371 202.413 488.753 200.53 485.874C199.977 485.025 198.869 483.401 198.131 482.293C195.658 478.713 194.366 476.424 193 473.139C192.298 471.367 191.523 469.595 191.339 469.189C190.416 467.122 188.533 459.96 188.312 457.487C188.201 456.564 188.053 455.604 187.906 455.42C187.795 455.235 187.61 454.349 187.536 453.463C187.204 450.658 186.577 447.114 185.986 445.231C185.026 441.835 184.325 436.926 184.583 434.932C185.063 430.982 184.842 428.915 183.882 427.955C183.217 427.291 182.922 426.479 182.738 424.855C182.627 423.636 182.073 421.495 181.593 420.056C179.046 412.968 178.529 411.418 178.714 411.418C178.825 411.418 178.714 411.122 178.419 410.753C178.123 410.421 177.57 409.166 177.163 407.985C176.794 406.803 176.167 405.659 175.798 405.474C175.428 405.29 175.133 404.921 175.133 404.699C175.133 404.367 170.999 400.196 169.522 399.051C168.119 397.944 166.015 397.427 163.69 397.575C157.562 397.944 155.864 398.35 153.243 399.937C151.877 400.749 150.659 401.451 150.511 401.451C150.253 401.451 149.994 401.709 147.558 404.035C146.709 404.847 145.934 405.511 145.823 405.511C145.712 405.511 145.306 405.807 144.9 406.139C144.125 406.914 142.464 408.28 140.803 409.572C138.699 411.196 137.37 412.636 135.745 415.183C135.192 416.069 134.49 417.029 134.158 417.361C133.863 417.656 133.014 418.801 132.312 419.834C131.611 420.868 130.467 422.049 129.728 422.455C125.262 425.002 125.077 425.076 121.349 425.224C117.768 425.371 117.694 425.334 115.332 424.042C114.003 423.341 112.268 422.418 111.456 422.012C109.905 421.237 107.58 419.539 106.251 418.247C105.106 417.176 103.778 416.106 102.67 415.368C101.563 414.666 94.8442 409.535 93.8106 408.649C93.4784 408.354 93.1092 408.095 92.9985 408.095C92.8878 408.095 92.0387 407.616 91.0789 407.025C88.9379 405.696 86.9814 405.032 82.847 404.182C79.3771 403.481 76.2024 403.444 70.1115 403.961C66.9738 404.219 65.4234 404.182 63.2824 403.813C58.2989 402.89 56.4901 402.411 54.9766 401.746C54.1645 401.377 53.1678 401.082 52.7248 401.082C51.8389 401.082 45.0836 397.722 42.4257 395.951C41.3921 395.286 39.8417 393.736 38.9557 392.554C38.0329 391.373 36.8147 390.007 36.1872 389.527C34.6367 388.383 33.6031 387.386 32.9387 386.39C32.6434 385.947 31.7205 384.839 30.9453 383.99C30.1332 383.141 28.8412 381.554 28.066 380.446C27.2908 379.339 26.5156 378.269 26.331 378.047C26.1464 377.826 25.2974 376.718 24.4115 375.574C23.4886 374.429 22.5657 373.137 22.3073 372.658C22.0489 372.178 21.6798 371.587 21.4952 371.402C21.0522 370.812 18.2467 366.382 18.2467 366.197C18.2467 366.124 17.5823 364.61 16.7702 362.875C15.958 361.14 15.2936 359.59 15.2936 359.479C15.2936 359.405 14.6291 358.002 13.8539 356.452C13.0787 354.865 12.0451 352.318 11.639 350.767C11.1961 349.217 10.5316 347.223 10.1255 346.374C9.53494 344.972 8.90737 341.502 8.53823 337.589C8.35366 335.669 8.57516 324.853 8.83355 321.9Z" fill="black"/>
</svg>
