<svg width="128" height="119" viewBox="0 0 128 119" fill="none" xmlns="http://www.w3.org/2000/svg">
<path d="M55.18 53.82C54.5 53.82 53.8733 54.3867 53.3 55.52C52.82 56.44 52.2333 58.2333 51.54 60.9C50.8333 63.62 50.48 65.4533 50.48 66.4C50.48 66.7867 50.7067 66.98 51.16 66.98C51.6133 66.98 51.8667 66.8533 51.92 66.6C52.3467 63.5733 52.6733 61.9533 52.9 61.74C52.9533 61.6867 53.1267 61.66 53.42 61.66C53.6467 61.66 54.24 61.7133 55.2 61.82C56.1067 61.9267 56.64 62.0267 56.8 62.12C56.9067 62.1867 57.12 63.0667 57.44 64.76L57.74 66.3C57.7933 66.5533 57.9 66.74 58.06 66.86C58.2333 66.9667 58.4267 67.02 58.64 67.02C58.9867 67.02 59.2 66.94 59.28 66.78C59.36 66.6067 59.3867 66.4467 59.36 66.3C58.56 61.6733 57.74 58.2667 56.9 56.08C56.5533 55.2 56.26 54.5933 56.02 54.26C55.8067 53.9667 55.5267 53.82 55.18 53.82ZM55.1 56.04C55.3267 56.04 55.62 56.6867 55.98 57.98C56.34 59.26 56.52 59.9933 56.52 60.18C56.52 60.34 56.5067 60.4467 56.48 60.5C56.4533 60.5267 56.3533 60.54 56.18 60.54C55.8067 60.54 55.2867 60.5 54.62 60.42C53.8867 60.34 53.4667 60.2467 53.36 60.14C53.3333 60.1133 53.32 60.0667 53.32 60C53.32 59.7067 53.5667 58.98 54.06 57.82C54.5667 56.6333 54.9133 56.04 55.1 56.04ZM62.0656 66.24C62.0256 65.04 61.999 64.2467 61.9856 63.86C62.5323 64.2333 63.1523 64.72 63.8456 65.32C64.5256 65.92 64.9523 66.3333 65.1256 66.56C65.3656 66.8533 65.5856 67 65.7856 67C65.839 67 65.9256 66.98 66.0456 66.94C66.3656 66.8333 66.5256 66.6333 66.5256 66.34C66.5256 65.9267 66.199 65.4 65.5456 64.76C64.8656 64.12 64.119 63.54 63.3056 63.02C63.4123 63.0067 63.739 62.8467 64.2856 62.54C64.8323 62.2333 65.239 61.9867 65.5056 61.8C65.8123 61.5733 66.0856 61.28 66.3256 60.92C66.579 60.56 66.7056 60.24 66.7056 59.96C66.7056 59.3467 66.379 58.8333 65.7256 58.42C65.0723 57.9933 64.319 57.78 63.4656 57.78C62.599 57.78 61.9123 57.9 61.4056 58.14C60.899 58.38 60.6456 58.7133 60.6456 59.14C60.6456 63.5667 60.6723 66.0533 60.7256 66.6C60.7256 66.8667 60.8723 67 61.1656 67C61.3923 67 61.599 66.9267 61.7856 66.78C61.9723 66.6333 62.0656 66.46 62.0656 66.26V66.24ZM61.9856 62.08C61.9856 60.6667 61.9923 59.7467 62.0056 59.32C62.4856 59.2 62.979 59.14 63.4856 59.14C63.9656 59.14 64.3923 59.24 64.7656 59.44C65.1523 59.6267 65.3456 59.8867 65.3456 60.22C65.3056 60.5933 64.8456 61 63.9656 61.44C63.0723 61.8667 62.4123 62.08 61.9856 62.08ZM73.8934 59.02C75.1468 59.02 75.7734 58.7467 75.7734 58.2C75.7734 57.9333 75.5934 57.76 75.2334 57.68L68.9934 57.88C68.8068 57.8933 68.6334 57.98 68.4734 58.14C68.3268 58.3 68.2534 58.46 68.2534 58.62C68.2534 58.9667 68.4601 59.14 68.8734 59.14C69.6068 59.14 70.4201 59.1067 71.3134 59.04C71.2334 59.96 71.1934 61.1533 71.1934 62.62C71.1934 63.8467 71.2134 65.12 71.2534 66.44C71.2534 66.8133 71.4268 67 71.7734 67C71.9734 67 72.1534 66.94 72.3134 66.82C72.4868 66.6867 72.5734 66.5267 72.5734 66.34C72.5734 65.86 72.5668 65.4867 72.5534 65.22L72.5334 63.72L72.5734 58.98L73.8934 59.02Z" fill="#202020"/>
<path d="M0.0640475 83.751C0.139201 85.8052 0.339609 87.9095 0.489916 88.3855C0.940835 89.6881 1.54206 92.8696 1.54206 94.047C1.54206 94.5981 1.71742 95.2745 1.91783 95.5501C2.11823 95.8006 2.29359 96.2515 2.29359 96.5271C2.29359 96.8277 2.41885 97.1784 2.5942 97.3538C2.76956 97.5291 2.81966 97.6544 2.71946 97.6544C2.61926 97.6544 2.76956 98.0552 3.04512 98.5312C3.32069 99.0322 3.54614 99.5332 3.54614 99.6584C3.54614 99.8088 3.94696 100.761 4.42293 101.813C4.8989 102.84 5.29972 103.792 5.29972 103.892C5.29972 103.992 5.85084 104.944 6.55227 105.996C7.22865 107.049 7.80482 108 7.80482 108.126C7.80482 108.426 10.6105 113.311 10.836 113.386C10.9613 113.437 11.0615 113.587 11.0615 113.712C11.0615 114.013 12.8401 115.691 13.1657 115.691C13.291 115.691 13.767 115.967 14.1928 116.317C15.5205 117.319 17.5246 117.946 20.2552 118.196C22.4847 118.422 23.1611 118.397 25.5159 117.946C28.3467 117.395 29.5742 117.119 31.2276 116.568C32.6054 116.117 33.6826 115.841 33.9331 115.892C34.1335 115.942 35.9372 115.265 37.7408 114.464C38.292 114.213 39.1938 113.862 39.7449 113.712C41.4985 113.161 43.9535 111.883 45.6319 110.681C46.5338 110.03 47.4857 109.378 47.7613 109.228C48.5378 108.852 54.0992 107.023 55.6523 106.673C56.4039 106.497 57.2556 106.197 57.5312 106.046C57.8067 105.871 58.3579 105.646 58.7336 105.57C59.1344 105.47 60.9381 104.669 62.7919 103.792C64.6206 102.89 66.1988 102.164 66.3241 102.164C66.4243 102.164 66.6999 102.013 66.9003 101.813C67.4013 101.362 71.0086 99.9841 72.186 99.7586C72.662 99.6835 73.2883 99.5332 73.5638 99.4079C74.616 98.9821 76.3445 98.3558 76.6952 98.2806C77.096 98.1804 79.9268 96.8527 80.9539 96.2766C81.3046 96.0761 81.8307 95.9008 82.1063 95.9008C82.4069 95.9008 82.9079 95.7004 83.2335 95.4499C83.5592 95.1994 84.0602 94.8987 84.3358 94.7985C85.7136 94.2975 90.5234 92.2433 91.7259 91.6421C92.4774 91.2663 93.5295 90.8906 94.0306 90.7904C94.5566 90.6902 94.9825 90.5399 94.9825 90.4397C94.9825 90.3395 95.6589 90.0388 96.4856 89.8134C97.3122 89.5629 98.0387 89.2623 98.1139 89.137C98.189 89.0117 98.4145 88.9616 98.5898 89.0368C98.7903 89.112 99.0157 89.0618 99.0909 88.9115C99.1911 88.7612 99.3915 88.7111 99.5919 88.7863C99.7672 88.8614 100.193 88.7863 100.544 88.661C101.195 88.4105 102.247 88.8614 102.247 89.4126C102.247 89.5629 103.074 90.4898 104.051 91.4918C105.454 92.8947 106.381 93.546 108.009 94.3226C110.289 95.4248 110.94 95.5751 114.272 95.8757C116.877 96.1012 119.558 95.8507 120.384 95.2996C120.735 95.0741 121.186 94.8987 121.411 94.8987C121.612 94.8987 121.787 94.7735 121.787 94.5981C121.787 94.4478 121.862 94.3727 121.937 94.4729C122.213 94.7234 124.868 93.2454 125.72 92.3435C128.15 89.8134 128.801 81.8972 126.872 78.2899C126.647 77.864 126.422 77.4382 126.422 77.363C126.397 77.2879 126.321 77.0624 126.221 76.862C125.82 75.8349 125.369 73.8308 125.144 72.0772C125.094 71.7015 124.818 70.8247 124.543 70.0982C124.267 69.3968 123.916 67.9438 123.766 66.8917C123.616 65.8646 123.24 64.4868 122.914 63.8605C122.088 62.2322 121.637 61.1299 121.186 59.7772C120.96 59.1258 120.685 58.3743 120.56 58.1489C119.883 56.8963 119.006 54.5916 118.53 52.8631C118.23 51.8109 117.904 50.7087 117.779 50.4331C117.679 50.1576 117.328 49.2056 117.002 48.3038C116.702 47.4019 116.376 46.5502 116.276 46.425C116.176 46.2747 115.9 45.5231 115.65 44.7465C115.299 43.6443 115.073 43.2685 114.522 43.0431C113.495 42.6172 113.119 42.0911 112.769 40.538C112.593 39.7864 112.218 38.7343 111.967 38.2333C111.692 37.7072 111.441 37.1561 111.416 36.9807C111.366 36.8054 111.216 36.3795 111.09 36.0288C110.94 35.6781 110.74 35.0017 110.639 34.5257C110.539 34.0497 110.289 33.3233 110.088 32.9224C109.587 31.9705 108.535 29.0896 107.007 24.5303C106.331 22.5513 105.554 20.447 105.278 19.8708C105.003 19.2696 104.702 18.4179 104.627 17.9419C104.552 17.491 104.377 17.0651 104.276 16.99C104.151 16.9148 103.976 16.4889 103.876 16.038C103.775 15.5871 103.55 14.9107 103.35 14.535C103.149 14.1592 102.999 13.6081 102.999 13.2824C102.999 12.9818 102.899 12.7313 102.773 12.7313C102.523 12.7313 102.222 11.9798 101.496 9.47465C100.97 7.67098 99.141 4.21393 98.7401 4.21393C98.6149 4.21393 97.9385 3.71291 97.2371 3.11169C96.5106 2.48541 95.3583 1.80903 94.6568 1.58357C93.9303 1.35811 93.2289 1.0575 93.1037 0.957296C92.9534 0.832041 92.1517 0.656683 91.3501 0.58153C90.5234 0.506377 89.4963 0.33102 89.0955 0.205764C87.9932 -0.119899 80.7034 -0.0447457 77.8225 0.33102C75.7182 0.581531 71.0086 1.63368 69.6809 2.1347C69.4805 2.20985 69.1799 2.31005 69.0547 2.3351C65.8481 3.08664 56.4289 6.34327 53.548 7.69603C52.9969 7.97159 52.045 8.39746 51.4438 8.62292C50.8676 8.87343 50.3916 9.14899 50.3916 9.2492C50.3916 9.3494 50.1912 9.47466 49.9407 9.57486C49.7152 9.65001 49.1641 9.95063 48.7633 10.2011C48.3374 10.4767 47.6611 10.8775 47.2101 11.103C46.7592 11.3284 46.2832 11.6791 46.1079 11.8796C45.9576 12.08 45.7071 12.2303 45.5568 12.2303C45.4315 12.2303 45.1309 12.4307 44.9054 12.6561C44.0286 13.6081 40.8973 16.2384 40.6468 16.2384C40.4965 16.2384 40.3712 16.4138 40.3712 16.6142C40.3712 16.8146 40.2209 16.99 40.0455 16.99C39.8952 16.99 38.7178 17.992 37.4903 19.1945C36.2378 20.3969 34.7347 21.7497 34.1084 22.1755C32.9561 22.9772 32.1795 23.6786 29.8999 26.1086C29.1483 26.8851 28.4469 27.5114 28.3216 27.5114C28.1964 27.5114 28.0962 27.6116 28.0962 27.7118C28.0962 27.812 27.5952 28.4383 26.9689 29.0896C26.3426 29.7159 25.6662 30.6177 25.4408 31.0687C25.2404 31.5196 24.9898 32.0707 24.8395 32.2711C24.7143 32.4715 24.1381 33.4736 23.5619 34.4756C22.9858 35.4777 22.3845 36.3795 22.2342 36.4797C22.0338 36.6049 20.9566 39.4608 20.7061 40.538C20.6811 40.6131 20.5809 41.1642 20.4556 41.7905C20.3303 42.4168 20.2301 42.9679 20.2051 43.0431C19.7542 45.2225 19.5037 47.8028 19.4536 51.0594C19.4285 53.7649 19.1529 55.3181 18.7271 55.3431C18.0006 55.3932 17.4996 55.5686 16.748 56.0446C16.3222 56.3201 15.5706 56.746 15.1197 56.9464C14.6688 57.1719 14.2429 57.4975 14.1427 57.6979C14.0676 57.8983 13.8672 58.0737 13.6918 58.0737C13.4914 58.0737 13.1908 58.2491 12.9653 58.4495C12.7649 58.6749 12.0886 59.2261 11.4623 59.702C10.836 60.178 9.7588 61.1299 9.05737 61.8314C8.33089 62.5077 7.67957 63.0839 7.57936 63.0839C7.47916 63.0839 7.07834 63.5348 6.65247 64.111C6.25166 64.6621 5.60033 65.4888 5.22456 65.9147C4.82375 66.3656 4.39788 66.9418 4.27262 67.2173C4.14737 67.4929 3.7716 68.1693 3.42089 68.7204C3.09522 69.2715 2.69441 69.998 2.56915 70.3487C2.41885 70.6994 2.19339 71.1754 2.04308 71.4009C1.91782 71.6514 1.56711 72.8288 1.29155 74.0563C1.01599 75.2838 0.665272 76.6115 0.514966 77.0123C0.0139452 78.2398 -0.086259 79.818 0.0640475 83.751ZM6.40196 78.4903C6.47712 78.0644 6.62742 77.338 6.72763 76.862C6.80278 76.386 6.90298 75.9351 6.92804 75.8599C6.95309 75.7848 7.05329 75.3339 7.1535 74.8579C7.27875 74.3819 7.42906 73.8559 7.50421 73.7306C7.60441 73.5803 7.70462 73.2797 7.72967 73.0041C7.80482 72.5031 8.23069 71.5261 9.28283 69.3717C10.4101 67.042 15.721 62.1069 19.0277 60.3283C19.4536 60.1028 20.2802 60.0026 21.3324 60.0277C22.5599 60.0527 23.2363 59.9525 23.9377 59.5768C25.7163 58.6749 25.7163 58.7 25.7414 51.5604C25.7664 45.0221 25.8917 43.97 26.9438 41.1141C27.1442 40.563 27.3697 39.8115 27.4449 39.4858C27.5701 38.8094 29.0982 35.8284 30.5512 33.4736C31.5532 31.8452 35.5113 27.6367 37.4653 26.1336C38.4423 25.3821 40.5716 23.5032 42.0246 22.1004C44.2792 19.946 48.9136 15.9879 49.1892 15.9879C49.3144 15.9879 49.3395 15.8376 49.2393 15.6623C49.1391 15.512 49.1391 15.4368 49.2393 15.537C49.3395 15.6122 50.4918 14.9608 51.8195 14.059C53.1222 13.1572 54.8758 12.1551 55.7275 11.8044C56.5792 11.4537 57.8318 10.9527 58.5332 10.6771C59.2096 10.4015 60.863 9.85042 62.1656 9.4496C63.4683 9.04879 65.3972 8.42251 66.4243 8.0718C69.23 7.11986 75.1671 5.59174 77.9478 5.11577C80.3026 4.71495 88.2939 4.46444 89.5715 4.76506C90.5986 5.01557 91.2499 5.11577 92.0265 5.19092C92.277 5.19092 93.1287 5.8673 93.9303 6.66894C95.5086 8.24715 95.9344 9.12394 97.2371 13.4828C97.663 14.9358 98.164 16.4388 98.3393 16.8647C98.5147 17.2655 99.0909 18.969 99.5919 20.6224C100.118 22.2757 100.744 24.1295 100.995 24.7558C101.245 25.3821 101.621 26.5595 101.872 27.3862C102.097 28.2128 102.398 29.0145 102.523 29.1648C102.648 29.3151 102.698 29.4904 102.623 29.5656C102.548 29.6408 102.648 29.8412 102.874 30.0165C103.074 30.1919 103.249 30.5676 103.249 30.8683C103.249 31.1689 103.35 31.5196 103.475 31.6699C103.675 31.8953 104.301 33.9495 104.276 34.3253C104.276 34.4255 104.552 35.0518 104.878 35.6781C105.228 36.3294 105.504 37.0308 105.504 37.2312C105.504 37.4567 105.855 38.2333 106.281 38.9848C106.706 39.7363 107.258 41.1392 107.508 42.1412C108.134 44.5461 108.36 45.0722 109.387 46.5753C109.863 47.2767 110.264 48.0533 110.264 48.3038C110.264 48.5292 110.439 49.0553 110.614 49.4561C110.99 50.2077 111.516 51.9863 112.193 54.8171C112.418 55.7189 112.894 56.9965 113.295 57.6979C113.671 58.3743 114.147 59.5016 114.347 60.203C114.547 60.8794 115.124 62.2071 115.6 63.134C116.652 65.113 117.128 66.5911 117.553 68.9709C117.704 69.9228 118.055 71.2505 118.305 71.9269C118.581 72.5783 118.906 73.931 119.057 74.9331C119.182 75.91 119.758 78.0895 120.334 79.7429C121.912 84.5026 121.988 85.9305 120.785 88.5608C120.434 89.3374 120.008 89.7382 119.157 90.1641C118.08 90.7152 117.904 90.7152 115.825 90.4647C114.623 90.3144 113.295 90.0388 112.894 89.8635C112.468 89.6881 112.017 89.5378 111.892 89.5378C111.191 89.4627 109.237 88.3604 109.086 87.9596C109.011 87.7091 108.736 87.2832 108.51 87.0077C108.26 86.7321 107.784 85.705 107.408 84.703C106.681 82.774 106.306 82.4985 104.502 82.5987C104.026 82.6237 103.274 82.5486 102.849 82.4233C102.297 82.248 101.521 82.3231 99.9677 82.7239C98.8153 83.0245 97.7381 83.3252 97.6129 83.4254C97.4625 83.5005 96.9365 83.6508 96.4104 83.751C95.9094 83.8512 95.4084 84.0266 95.3332 84.1518C95.2581 84.2771 95.0326 84.3773 94.8071 84.3773C94.5817 84.3773 93.8301 84.6529 93.1287 84.9785C92.4273 85.3042 91.2749 85.8052 90.5986 86.1058C89.8971 86.4064 89.1456 86.7572 88.8951 86.9075C88.6446 87.0327 87.5173 87.4836 86.39 87.9095C84.2606 88.6861 83.9851 88.8113 78.6993 91.3164C75.2423 92.9698 74.3655 93.3205 73.4386 93.4959C73.0879 93.546 72.0858 93.8215 71.209 94.1222C70.3323 94.4228 69.4304 94.6482 69.2551 94.6482C69.0547 94.6482 68.5787 94.8236 68.1779 95.024C67.7771 95.2244 67.251 95.4248 67.0005 95.4749C66.4493 95.5751 63.4933 96.9279 61.9151 97.8047C59.6605 99.0572 56.6794 100.385 55.2515 100.811C54.4248 101.036 52.9218 101.562 51.8947 101.988C50.8676 102.389 49.8405 102.765 49.6401 102.79C49.4397 102.815 49.089 102.89 48.8886 102.99C48.6881 103.065 47.9366 103.316 47.2101 103.516C45.5317 103.992 45.0808 104.243 43.0767 105.846C42.1498 106.573 41.273 107.174 41.1478 107.174C40.9975 107.174 40.8722 107.249 40.8722 107.349C40.8722 107.6 39.4193 108.426 38.9934 108.426C38.818 108.426 38.6176 108.527 38.5675 108.652C38.4423 109.002 32.4801 110.931 29.3487 111.658C28.7225 111.783 27.0941 112.184 25.7163 112.535C24.3385 112.885 22.9106 113.136 22.5849 113.061C22.2342 112.986 21.2823 112.81 20.4556 112.66C19.654 112.51 18.677 112.234 18.3263 112.059C17.2992 111.533 15.1448 109.504 14.5436 108.476C14.2429 107.975 13.6417 106.973 13.1908 106.297C12.7399 105.596 12.0886 104.418 11.7128 103.667C11.337 102.915 10.8611 101.963 10.6356 101.562C10.2849 100.911 9.5083 98.8568 8.28079 95.3998C7.45411 93.07 6.22661 87.3584 6.42702 86.8073C6.50217 86.6319 6.45207 86.1559 6.30176 85.7551C6.05125 84.9785 6.1264 79.818 6.40196 78.4903Z" fill="black"/>
</svg>
