<svg width="189" height="175" viewBox="0 0 189 175" fill="none" xmlns="http://www.w3.org/2000/svg">
<path d="M0.0943429 123.413C0.205091 126.44 0.50041 129.541 0.721891 130.242C1.38635 132.162 2.27231 136.85 2.27231 138.585C2.27231 139.397 2.5307 140.394 2.82602 140.8C3.12134 141.169 3.37973 141.833 3.37973 142.239C3.37973 142.682 3.5643 143.199 3.82271 143.457C4.08111 143.716 4.15494 143.9 4.00728 143.9C3.85962 143.9 4.08111 144.491 4.48717 145.192C4.89323 145.931 5.22546 146.669 5.22546 146.854C5.22546 147.075 5.81608 148.478 6.51747 150.028C7.21884 151.542 7.80946 152.944 7.80946 153.092C7.80946 153.24 8.62158 154.643 9.6552 156.193C10.6519 157.743 11.5009 159.146 11.5009 159.331C11.5009 159.774 15.6353 166.972 15.9676 167.083C16.1521 167.157 16.2998 167.378 16.2998 167.563C16.2998 168.006 18.9207 170.479 19.4006 170.479C19.5852 170.479 20.2866 170.885 20.9141 171.402C22.8706 172.878 25.8237 173.801 29.8474 174.17C33.1328 174.503 34.1295 174.466 37.5994 173.801C41.7708 172.989 43.5796 172.583 46.0159 171.771C48.0462 171.106 49.6336 170.7 50.0027 170.774C50.298 170.848 52.9559 169.851 55.6137 168.67C56.4258 168.301 57.7547 167.784 58.5669 167.563C61.1509 166.75 64.7685 164.868 67.2418 163.096C68.5707 162.136 69.9734 161.176 70.3795 160.955C71.5238 160.401 79.7188 157.706 82.0075 157.19C83.115 156.931 84.3701 156.488 84.7761 156.267C85.1822 156.008 85.9943 155.676 86.548 155.565C87.1387 155.418 89.7965 154.236 92.5282 152.944C95.2229 151.616 97.5485 150.545 97.7331 150.545C97.8808 150.545 98.2868 150.324 98.5821 150.028C99.3204 149.364 104.636 147.333 106.371 147.001C107.072 146.89 107.995 146.669 108.401 146.484C109.952 145.857 112.499 144.934 113.016 144.823C113.606 144.676 117.778 142.719 119.291 141.87C119.808 141.575 120.583 141.316 120.989 141.316C121.432 141.316 122.17 141.021 122.65 140.652C123.13 140.283 123.869 139.84 124.275 139.692C126.305 138.954 133.392 135.927 135.164 135.041C136.272 134.487 137.822 133.934 138.56 133.786C139.336 133.638 139.963 133.417 139.963 133.269C139.963 133.121 140.96 132.678 142.178 132.346C143.396 131.977 144.467 131.534 144.578 131.349C144.688 131.165 145.021 131.091 145.279 131.202C145.574 131.313 145.906 131.239 146.017 131.017C146.165 130.796 146.46 130.722 146.756 130.833C147.014 130.943 147.641 130.833 148.158 130.648C149.118 130.279 150.668 130.943 150.668 131.756C150.668 131.977 151.887 133.343 153.326 134.819C155.393 136.887 156.759 137.846 159.159 138.991C162.518 140.615 163.478 140.837 168.387 141.279C172.226 141.612 176.176 141.243 177.395 140.43C177.911 140.098 178.576 139.84 178.908 139.84C179.203 139.84 179.462 139.655 179.462 139.397C179.462 139.175 179.572 139.065 179.683 139.212C180.089 139.581 184.002 137.403 185.257 136.075C188.838 132.346 189.798 120.681 186.955 115.366C186.623 114.738 186.291 114.11 186.291 114C186.254 113.889 186.143 113.557 185.996 113.261C185.405 111.748 184.74 108.795 184.408 106.211C184.334 105.657 183.928 104.365 183.522 103.295C183.116 102.261 182.599 100.12 182.378 98.5695C182.156 97.056 181.603 95.0257 181.123 94.1028C179.905 91.7034 179.24 90.0791 178.576 88.0857C178.244 87.126 177.837 86.0185 177.653 85.6863C176.656 83.8406 175.364 80.4445 174.663 77.8974C174.22 76.3469 173.74 74.7227 173.555 74.3167C173.408 73.9106 172.891 72.5078 172.411 71.1789C171.968 69.85 171.488 68.5949 171.341 68.4103C171.193 68.1889 170.787 67.0814 170.418 65.9371C169.901 64.3128 169.569 63.7591 168.757 63.4269C167.243 62.7993 166.689 62.0241 166.173 59.7354C165.914 58.628 165.36 57.0776 164.991 56.3393C164.585 55.5641 164.216 54.752 164.179 54.4936C164.105 54.2352 163.884 53.6076 163.699 53.0908C163.478 52.574 163.182 51.5773 163.035 50.876C162.887 50.1746 162.518 49.1041 162.223 48.5134C161.484 47.1107 159.934 42.8655 157.682 36.1471C156.685 33.2309 155.541 30.1301 155.135 29.281C154.729 28.3951 154.286 27.14 154.175 26.4386C154.065 25.7741 153.806 25.1466 153.659 25.0358C153.474 24.9251 153.216 24.2976 153.068 23.6331C152.92 22.9686 152.588 21.972 152.293 21.4182C151.997 20.8645 151.776 20.0524 151.776 19.5725C151.776 19.1295 151.628 18.7604 151.444 18.7604C151.074 18.7604 150.632 17.653 149.561 13.9615C148.786 11.3037 146.091 6.20947 145.5 6.20947C145.316 6.20947 144.319 5.47119 143.286 4.58524C142.215 3.66237 140.517 2.66568 139.483 2.33345C138.413 2.00122 137.379 1.55826 137.195 1.4106C136.973 1.22603 135.792 0.967623 134.611 0.856875C133.392 0.746142 131.879 0.487734 131.288 0.303164C129.664 -0.176725 118.922 -0.065976 114.677 0.487735C111.576 0.856876 104.636 2.40729 102.68 3.14557C102.384 3.25632 101.941 3.40398 101.757 3.44089C97.0317 4.54833 83.1519 9.3472 78.9067 11.3406C78.0946 11.7466 76.6919 12.3742 75.8059 12.7064C74.9569 13.0756 74.2555 13.4816 74.2555 13.6293C74.2555 13.7769 73.9602 13.9615 73.591 14.1092C73.2588 14.2199 72.4467 14.6629 71.8561 15.032C71.2285 15.4381 70.2318 16.0287 69.5674 16.361C68.9029 16.6932 68.2015 17.21 67.9431 17.5053C67.7216 17.8006 67.3525 18.0221 67.131 18.0221C66.9464 18.0221 66.5035 18.3174 66.1712 18.6496C64.8792 20.0524 60.2649 23.9284 59.8958 23.9284C59.6743 23.9284 59.4897 24.1868 59.4897 24.4821C59.4897 24.7775 59.2682 25.0358 59.0098 25.0358C58.7883 25.0358 57.0534 26.5124 55.2446 28.2843C53.3988 30.0562 51.184 32.0496 50.2611 32.6771C48.563 33.8584 47.4187 34.892 44.0595 38.4727C42.952 39.6171 41.9184 40.5399 41.7339 40.5399C41.5493 40.5399 41.4016 40.6876 41.4016 40.8352C41.4016 40.9829 40.6633 41.9058 39.7405 42.8655C38.8176 43.7884 37.8209 45.1173 37.4887 45.7818C37.1934 46.4462 36.8242 47.2584 36.6027 47.5537C36.4182 47.849 35.5691 49.3256 34.7201 50.8021C33.8711 52.2787 32.9851 53.6076 32.7636 53.7553C32.4683 53.9399 30.881 58.1481 30.5119 59.7355C30.4749 59.8462 30.3273 60.6583 30.1427 61.5812C29.9581 62.504 29.8105 63.3162 29.7736 63.4269C29.1091 66.6384 28.74 70.4406 28.6661 75.2395C28.6292 79.2263 28.2232 81.515 27.5956 81.5519C26.5251 81.6257 25.7868 81.8841 24.6794 82.5855C24.0518 82.9916 22.9444 83.6191 22.2799 83.9144C21.6155 84.2467 20.9879 84.7265 20.8403 85.0219C20.7295 85.3172 20.4342 85.5756 20.1758 85.5756C19.8805 85.5756 19.4375 85.834 19.1053 86.1293C18.81 86.4615 17.8133 87.2736 16.8904 87.975C15.9676 88.6764 14.3802 90.0791 13.3466 91.1127C12.2761 92.1094 11.3163 92.9585 11.1687 92.9585C11.021 92.9585 10.4304 93.6229 9.80285 94.472C9.21222 95.2841 8.25244 96.5023 7.69873 97.1298C7.10809 97.7943 6.48054 98.6433 6.29597 99.0493C6.1114 99.4554 5.55769 100.452 5.04088 101.264C4.561 102.076 3.97036 103.147 3.78579 103.664C3.5643 104.18 3.23207 104.882 3.01059 105.214C2.82602 105.583 2.30922 107.318 1.90315 109.127C1.4971 110.936 0.980298 112.892 0.758802 113.483C0.0205205 115.292 -0.127139 117.617 0.0943429 123.413ZM9.4337 115.661C9.54445 115.033 9.76593 113.963 9.91359 113.261C10.0243 112.56 10.172 111.896 10.2089 111.785C10.2458 111.674 10.3935 111.01 10.5411 110.308C10.7257 109.607 10.9472 108.832 11.0579 108.647C11.2056 108.426 11.3533 107.983 11.3902 107.577C11.5009 106.838 12.1285 105.399 13.6789 102.224C15.34 98.7909 23.1659 91.5188 28.0386 88.8979C28.6661 88.5656 29.8843 88.418 31.4347 88.4549C33.2435 88.4918 34.2402 88.3442 35.2738 87.7904C37.8948 86.4615 37.8948 86.4984 37.9317 75.9778C37.9686 66.3431 38.1532 64.7927 39.7036 60.5845C39.9989 59.7724 40.3311 58.6649 40.4419 58.185C40.6264 57.1884 42.8782 52.7955 45.0193 49.3256C46.4958 46.9261 52.3283 40.7245 55.2076 38.5096C56.6473 37.4022 59.785 34.6336 61.9261 32.5664C65.2484 29.3918 72.0775 23.5593 72.4836 23.5593C72.6682 23.5593 72.7051 23.3378 72.5574 23.0794C72.4098 22.8579 72.4098 22.7472 72.5574 22.8948C72.7051 23.0056 74.4032 22.0458 76.3596 20.7169C78.2792 19.3879 80.8632 17.9114 82.1183 17.3946C83.3734 16.8778 85.2191 16.1395 86.2527 15.7334C87.2494 15.3274 89.6857 14.5152 91.6053 13.9246C93.5248 13.334 96.3673 12.4111 97.8808 11.8943C102.015 10.4916 110.764 8.23976 114.861 7.53839C118.331 6.94777 130.107 6.57862 131.99 7.02159C133.503 7.39073 134.463 7.53839 135.607 7.64914C135.976 7.64914 137.232 8.64583 138.413 9.82709C140.738 12.1527 141.366 13.4447 143.286 19.8678C143.913 22.0089 144.651 24.2237 144.91 24.8513C145.168 25.4419 146.017 27.9521 146.755 30.3884C147.531 32.8248 148.454 35.5565 148.823 36.4793C149.192 37.4022 149.746 39.1372 150.115 40.3553C150.447 41.5735 150.89 42.7548 151.074 42.9763C151.259 43.1978 151.333 43.4562 151.222 43.5669C151.111 43.6777 151.259 43.973 151.591 44.2314C151.887 44.4898 152.145 45.0435 152.145 45.4865C152.145 45.9294 152.293 46.4462 152.477 46.6677C152.773 47 153.695 50.0269 153.659 50.5807C153.659 50.7283 154.065 51.6512 154.544 52.574C155.061 53.5338 155.467 54.5674 155.467 54.8627C155.467 55.195 155.984 56.3393 156.612 57.4467C157.239 58.5542 158.051 60.6214 158.42 62.098C159.343 65.6418 159.676 66.417 161.189 68.6318C161.89 69.6654 162.481 70.8098 162.481 71.1789C162.481 71.5112 162.739 72.2864 162.998 72.877C163.552 73.9844 164.327 76.6053 165.323 80.7767C165.656 82.1056 166.357 83.9882 166.948 85.0218C167.501 86.0185 168.203 87.6797 168.498 88.7133C168.793 89.71 169.642 91.6665 170.344 93.0323C171.894 95.9485 172.596 98.1265 173.223 101.633C173.445 103.036 173.961 104.993 174.331 105.989C174.737 106.949 175.217 108.942 175.438 110.419C175.623 111.859 176.472 115.07 177.321 117.507C179.646 124.52 179.757 126.624 177.985 130.5C177.468 131.645 176.841 132.235 175.586 132.863C173.998 133.675 173.74 133.675 170.676 133.306C168.904 133.084 166.948 132.678 166.357 132.42C165.73 132.162 165.065 131.94 164.881 131.94C163.847 131.829 160.968 130.205 160.746 129.615C160.635 129.245 160.229 128.618 159.897 128.212C159.528 127.806 158.827 126.292 158.273 124.816C157.202 121.973 156.649 121.567 153.991 121.715C153.289 121.752 152.182 121.641 151.554 121.456C150.742 121.198 149.598 121.309 147.309 121.899C145.611 122.342 144.024 122.785 143.839 122.933C143.618 123.044 142.843 123.265 142.067 123.413C141.329 123.561 140.591 123.819 140.48 124.004C140.369 124.188 140.037 124.336 139.705 124.336C139.373 124.336 138.265 124.742 137.232 125.222C136.198 125.702 134.5 126.44 133.503 126.883C132.47 127.326 131.362 127.843 130.993 128.064C130.624 128.249 128.963 128.913 127.302 129.541C124.164 130.685 123.758 130.87 115.969 134.561C110.875 136.997 109.583 137.514 108.217 137.773C107.7 137.846 106.223 138.252 104.931 138.695C103.639 139.138 102.31 139.471 102.052 139.471C101.757 139.471 101.055 139.729 100.465 140.024C99.8741 140.32 99.0989 140.615 98.7298 140.689C97.9177 140.837 93.5618 142.83 91.2362 144.122C87.9139 145.968 83.521 147.924 81.4169 148.552C80.1987 148.884 77.9839 149.659 76.4704 150.287C74.9569 150.877 73.4434 151.431 73.1481 151.468C72.8528 151.505 72.336 151.616 72.0406 151.763C71.7453 151.874 70.6379 152.243 69.5674 152.538C67.0941 153.24 66.4296 153.609 63.4765 155.971C62.1106 157.042 60.8186 157.928 60.6341 157.928C60.4126 157.928 60.228 158.039 60.228 158.186C60.228 158.555 58.087 159.774 57.4594 159.774C57.201 159.774 56.9057 159.921 56.8319 160.106C56.6473 160.623 47.8617 163.465 43.2474 164.536C42.3245 164.72 39.9251 165.311 37.8948 165.828C35.8645 166.344 33.7603 166.714 33.2804 166.603C32.7636 166.492 31.3609 166.234 30.1427 166.012C28.9615 165.791 27.5218 165.385 27.005 165.126C25.4915 164.351 22.3168 161.361 21.4309 159.847C20.9879 159.109 20.102 157.633 19.4375 156.636C18.7731 155.602 17.8133 153.867 17.2596 152.76C16.7059 151.652 16.0045 150.25 15.6723 149.659C15.1554 148.699 14.0111 145.672 12.2023 140.578C10.9841 137.145 9.17531 128.729 9.47062 127.916C9.58136 127.658 9.50754 126.957 9.28604 126.366C8.9169 125.222 9.02765 117.617 9.4337 115.661Z" fill="black"/>
</svg>
