<svg width="934" height="641" viewBox="0 0 934 641" fill="none" xmlns="http://www.w3.org/2000/svg">
<path d="M108.111 563.662C108.591 568.202 109.993 572.226 111.544 573.518C111.95 573.85 112.171 574.145 112.024 574.182C111.064 574.219 115.42 578.907 117.856 580.495C119.591 581.565 123.393 582.931 125.793 583.226C126.716 583.374 127.786 583.596 128.192 583.78C128.598 583.928 129.521 584.297 130.222 584.555C132.031 585.183 134.652 586.29 135.76 586.881C136.793 587.435 139.71 588.21 141.666 588.431C142.367 588.542 144.619 588.985 146.649 589.465C152.666 590.905 156.506 591.274 165.476 591.274C174.778 591.311 180.721 590.757 182.456 589.723C183.047 589.354 184.745 588.579 186.185 588.025C189.027 586.955 191.5 584.998 191.5 583.817C191.5 583.153 191.648 583.153 192.866 583.448C193.642 583.669 194.527 583.928 194.823 584.039C195.118 584.149 196.041 584.297 196.853 584.371C197.665 584.445 199.806 584.666 201.652 584.851C206.008 585.331 211.065 585.331 213.834 584.888C215.052 584.703 217.784 584.371 219.925 584.186C225.166 583.669 226.126 583.485 228.046 582.488C228.969 582.045 230.851 581.196 232.217 580.606C234.211 579.756 235.355 578.907 237.939 576.323C243.698 570.602 246.208 567.353 248.829 562.259C251.117 557.829 251.597 556.316 251.856 553.178C251.929 552.44 252.225 551 252.557 550.003C253.111 548.305 253.369 541.513 253.148 533.983C253.111 531.731 252.409 528.408 251.597 526.526C251.265 525.824 250.748 524.532 250.379 523.61C248.755 519.364 245.986 515.119 242.627 511.649C241.999 511.022 241.261 510.062 241.003 509.508C240.707 508.918 239.563 507.515 238.456 506.371C236.278 504.082 234.69 502.273 233.214 500.353C232.18 499.025 232.143 498.988 228.969 496.367C226.348 494.226 225.757 493.893 222.915 492.971C220.072 492.085 216.898 491.752 215.2 492.195C214.461 492.417 212.394 492.749 210.659 492.934C208.924 493.118 206.414 493.635 205.122 494.078C203.83 494.521 202.427 494.964 202.021 495.038C199.068 495.628 196.373 495.85 193.531 495.739C191.685 495.628 189.655 495.739 188.99 495.961C188.178 496.219 187.624 496.256 187.329 495.998C186.406 495.222 178.211 496.551 173.08 498.323C171.567 498.84 169.906 499.246 169.389 499.246C166.177 499.246 155.324 502.347 155.324 503.27C155.324 503.417 154.734 503.75 153.995 504.008C153.257 504.266 151.67 505.411 150.452 506.555C149.233 507.736 147.868 508.881 147.388 509.176C146.945 509.471 146.28 510.21 145.911 510.8C145.542 511.391 144.988 512.203 144.656 512.535C143.069 514.307 141.555 516.743 141.26 518.035C141.075 518.848 140.485 520.287 139.894 521.284C139.34 522.244 138.934 523.351 139.008 523.683C139.23 524.828 138.381 525.788 136.941 526.046C135.243 526.341 133.213 527.338 126.531 531.103C124.722 532.137 117.007 539.04 116.97 539.704C116.933 539.926 116.527 540.479 116.01 540.959C115.494 541.439 115.088 542.03 115.088 542.251C115.088 542.768 111.507 548.785 111.064 549.081C110.141 549.634 108.443 555.836 108.406 558.752C108.369 559.823 108.258 560.856 108.111 561.078C107.963 561.262 107.963 562.444 108.111 563.662ZM109.181 562.37C109.366 562.37 109.55 562.554 109.55 562.776C109.55 562.96 109.366 563.034 109.181 562.923C108.96 562.813 108.812 562.628 108.812 562.517C108.812 562.444 108.96 562.37 109.181 562.37ZM117.229 556.463C118.078 553.99 119.739 550.705 120.219 550.373C120.44 550.262 121.142 549.154 121.769 547.973C122.47 546.644 124.316 544.356 126.346 542.288C129.558 539.003 130.075 538.634 134.615 536.419C139.082 534.204 139.673 534.019 141.518 534.13C143.512 534.241 143.586 534.204 144.398 532.875C144.878 532.137 145.542 530.291 145.911 528.778C146.576 525.788 146.649 525.529 147.166 524.717C147.351 524.422 148.126 522.834 148.864 521.21C150.452 517.74 152.039 515.673 154.254 514.196C155.14 513.606 156.21 512.831 156.616 512.498C157.355 511.871 158.684 511.096 161.895 509.361C162.781 508.881 164.11 508.401 164.848 508.29C168.023 507.773 173.56 506.555 174.114 506.223C174.446 506.038 175.996 505.595 177.584 505.226C179.983 504.636 180.5 504.599 180.721 505.042C181.275 506.001 183.01 506.112 186.296 505.448C188.031 505.079 191.796 504.709 194.638 504.599C201.209 504.34 201.947 504.229 205.823 503.048C207.964 502.421 210.216 502.052 212.542 501.941C214.461 501.867 216.971 501.535 218.116 501.239C221.143 500.501 221.217 500.501 225.019 502.31C225.942 502.753 229.19 505.817 231.627 508.585C232.476 509.545 233.361 510.32 233.546 510.32C233.768 510.32 233.952 510.431 233.952 510.579C233.952 510.985 237.57 515.488 239.785 517.888C240.375 518.478 241.04 519.512 241.298 520.177C241.556 520.804 242.147 521.69 242.627 522.133C243.107 522.576 244.104 524.606 244.842 526.637C246.208 530.328 246.208 530.365 246.208 536.271C246.245 542.768 246.023 545.168 245.174 549.45C244.399 553.326 243.624 555.541 242.812 556.279C242.406 556.648 242.073 557.165 242.073 557.46C242.073 557.719 241.889 557.94 241.704 557.94C241.483 557.94 241.335 558.235 241.335 558.641C241.335 559.011 240.892 559.749 240.338 560.303C239.822 560.819 239.194 561.668 238.936 562.111C238.16 563.625 233.14 569.384 232.623 569.384C232.328 569.384 232.106 569.531 232.106 569.679C232.106 570.454 225.905 574.33 224.133 574.662C223.727 574.736 222.767 574.995 221.955 575.216C221.143 575.474 218.965 575.807 217.156 576.028C215.31 576.213 212.689 576.545 211.25 576.729C207.854 577.209 199.954 576.914 196.632 576.213C195.007 575.88 193.494 575.29 192.719 574.736C191.87 574.035 190.984 573.739 189.802 573.702C188.363 573.629 187.994 573.776 187.255 574.662C186.739 575.216 186.443 575.917 186.554 576.176C186.849 576.988 185.004 579.609 183.453 580.569C181.312 581.934 180.242 582.23 175.074 582.71C170.828 583.153 155.583 582.894 154.217 582.377C153.7 582.193 152.187 581.934 150.821 581.787C149.455 581.676 147.019 581.233 145.431 580.827C143.844 580.421 141.961 580.015 141.26 579.941C140.559 579.83 139.562 579.609 139.082 579.424C138.196 579.055 134.652 577.948 133.545 577.652C133.249 577.579 131.662 577.025 130.038 576.471C128.414 575.88 126.199 575.253 125.091 575.105C123.061 574.847 119.886 573.629 119.886 573.112C119.886 572.964 119.554 572.484 119.148 572.041C117.635 570.454 116.453 567.722 116.232 565.507C115.937 562.517 116.343 558.937 117.229 556.463Z" fill="#C78B8B"/>
</svg>
