<svg width="933" height="641" viewBox="0 0 933 641" fill="none" xmlns="http://www.w3.org/2000/svg">
<path d="M686.308 137.559C686.356 137.608 686.418 138.039 686.463 138.518C686.508 138.998 686.694 140.116 686.864 140.995C687.035 141.875 687.251 143.201 687.343 143.952C687.435 144.703 687.59 145.438 687.669 145.599C687.748 145.759 687.779 145.95 687.731 146.03C687.634 146.189 688.23 148.061 688.782 149.229C688.956 149.629 689.176 150.237 689.254 150.589C689.41 151.277 689.898 152.429 690.325 153.07C690.468 153.294 690.72 153.823 690.877 154.27C691.318 155.439 693.188 157.876 693.667 157.878C693.746 157.879 693.81 157.975 693.809 158.087C693.808 158.342 698.22 162.821 698.665 163.015C699.048 163.177 699.839 164.347 699.932 164.89C700.041 165.45 699.917 167.637 699.737 168.53C699.671 168.785 699.605 169.264 699.571 169.567C699.538 169.87 699.505 170.125 699.489 170.125C699.457 170.125 699.358 170.652 699.275 171.242C699.225 171.609 698.705 173.315 698.511 173.793C698.301 174.271 698.167 175.388 698.094 177.08C697.986 179.315 697.381 182.154 696.686 183.715C696.33 184.495 696.392 184.943 696.945 185.92C697.625 187.105 698.676 187.43 699.765 186.813C700.053 186.655 700.533 186.482 700.836 186.42C702.657 186.078 704.673 185.195 706.787 183.817C707.299 183.469 707.764 183.184 707.796 183.184C707.828 183.184 708.484 182.773 709.269 182.25C710.054 181.743 711.414 180.984 712.278 180.574C713.158 180.164 714.198 179.658 714.598 179.453C715.462 179.026 716.87 178.507 717.636 178.352C718.18 178.243 720.573 178.272 721.546 178.389C722.088 178.456 724.545 178.597 728.247 178.745C730.943 178.855 731.645 178.907 734.468 179.194C736.27 179.363 736.988 179.463 739.331 179.923C741.627 180.366 742.408 180.498 743.206 180.582C743.636 180.633 744.816 180.783 745.837 180.916C747.16 181.099 748.548 181.154 750.655 181.118C753.496 181.07 753.799 181.039 754.327 180.835C754.455 180.787 754.998 180.71 755.525 180.665C756.052 180.636 756.707 180.496 756.963 180.37C758.115 179.801 759.154 179.408 759.425 179.457C759.537 179.474 759.585 179.426 759.538 179.33C759.443 179.186 760.019 178.901 760.274 178.967C760.353 178.983 760.402 178.919 760.402 178.84C760.403 178.648 761.075 178.364 761.698 178.288C761.937 178.257 762.433 178.084 762.817 177.879C763.201 177.673 763.649 177.532 763.792 177.565C763.952 177.582 764.08 177.518 764.08 177.439C764.081 177.343 764.401 177.121 764.801 176.931C765.201 176.742 765.521 176.536 765.522 176.456C765.522 176.377 765.634 176.313 765.778 176.314C765.922 176.315 766.146 176.188 766.274 176.029C766.403 175.886 766.451 175.855 766.402 175.966C766.322 176.109 766.529 176.063 766.945 175.841C767.313 175.668 767.57 175.446 767.522 175.381C767.475 175.301 767.603 175.27 767.794 175.319C768.065 175.368 768.097 175.353 767.954 175.24C767.779 175.127 767.811 175.08 768.067 175.001C768.291 174.954 768.37 174.987 768.306 175.098C768.257 175.21 768.37 175.115 768.578 174.892C768.787 174.654 768.963 174.575 768.994 174.671C769.042 174.815 769.201 174.8 769.553 174.626C769.825 174.484 770.257 174.326 770.545 174.248C770.816 174.186 771.759 173.951 772.638 173.733C774.843 173.17 775.514 173.189 784.382 174.004C785.881 174.14 788.913 174.125 790.414 173.989C792.554 173.793 793.193 173.717 794.582 173.485C795.413 173.345 796.228 173.126 796.372 172.999C796.532 172.873 796.66 172.809 796.66 172.889C796.66 172.953 796.772 172.922 796.9 172.811C797.028 172.716 797.188 172.669 797.267 172.717C797.347 172.765 797.618 172.703 797.874 172.592C798.13 172.466 798.482 172.34 798.658 172.309C798.834 172.278 799.01 172.215 799.058 172.168C799.106 172.104 799.314 172.025 799.537 172.011C799.761 171.98 799.985 171.885 800.033 171.806C800.097 171.742 800.337 171.648 800.593 171.633C801.311 171.557 801.775 171.384 801.776 171.177C801.776 171.081 801.856 171.113 801.935 171.241C802.03 171.401 802.094 171.418 802.095 171.274C802.095 171.178 802.287 171.084 802.511 171.085C802.75 171.086 803.038 170.96 803.166 170.801C803.295 170.658 803.359 170.626 803.294 170.738C803.214 170.897 803.293 170.913 803.645 170.835C804.236 170.695 804.348 170.616 804.253 170.456C804.206 170.375 804.334 170.264 804.526 170.201C804.734 170.139 804.909 170.172 804.941 170.268C804.972 170.396 805.212 170.349 805.644 170.128C805.996 169.954 806.252 169.764 806.204 169.732C806.157 169.683 805.917 169.762 805.677 169.92C805.34 170.158 805.26 170.158 805.325 169.982C805.358 169.855 805.854 169.586 806.43 169.397C807.565 169.004 807.724 168.973 807.372 169.195C807.212 169.306 807.196 169.354 807.339 169.355C807.451 169.355 807.579 169.244 807.628 169.117C807.692 168.989 807.853 168.878 807.996 168.879C808.156 168.88 808.412 168.77 808.588 168.627C808.877 168.405 808.877 168.389 808.525 168.563C807.949 168.831 807.918 168.623 808.478 168.339C809.038 168.054 809.198 168.023 809.053 168.246C809.005 168.326 809.325 168.184 809.773 167.899C810.205 167.63 810.542 167.376 810.51 167.328C810.462 167.296 810.238 167.406 809.982 167.565C808.813 168.373 808.83 168.197 810.016 167.309C810.496 166.945 810.897 166.691 810.896 166.739C810.896 166.787 811.04 166.756 811.216 166.661C811.392 166.566 811.489 166.407 811.441 166.311C811.362 166.199 811.41 166.183 811.521 166.264C811.633 166.328 811.872 166.25 812.065 166.059C812.258 165.868 812.482 165.726 812.577 165.726C812.657 165.711 812.754 165.568 812.755 165.376C812.772 165.185 812.853 164.993 812.933 164.93C813.189 164.756 813.786 163.625 813.707 163.465C813.643 163.385 813.756 163.322 813.931 163.323C814.123 163.324 814.267 163.245 814.267 163.165C814.268 162.973 814.863 162.098 815.232 161.733C815.457 161.511 815.667 161.113 816.022 160.252C816.103 160.061 816.362 159.472 816.604 158.946C816.846 158.42 817.105 157.847 817.169 157.672C817.25 157.496 817.525 156.843 817.8 156.238C818.074 155.617 818.48 154.405 818.708 153.528C818.952 152.652 819.31 151.36 819.522 150.659C819.733 149.957 819.961 149.064 820.027 148.665C820.093 148.267 820.176 147.772 820.209 147.549C820.242 147.325 820.308 146.974 820.341 146.751C820.374 146.528 820.473 145.937 820.587 145.427C820.85 144.151 820.935 143.018 820.996 140.607C821.035 139.458 821.112 136.983 821.186 135.099C821.3 131.731 821.171 129.095 820.885 128.886C820.662 128.741 820.522 128.038 820.667 127.847C820.908 127.545 820.961 126.651 820.754 126.57C820.642 126.522 820.547 126.361 820.564 126.202C820.565 126.042 820.521 125.259 820.462 124.477C820.402 123.678 820.344 122.608 820.331 122.081C820.318 121.554 820.226 120.962 820.115 120.77C819.878 120.338 819.879 120.194 820.101 120.323C820.276 120.436 820.185 119.573 819.934 118.805C819.871 118.581 819.699 117.99 819.542 117.494C819.401 116.998 819.181 116.502 819.069 116.405C818.942 116.309 818.895 116.117 818.928 116.005C818.977 115.878 818.821 115.222 818.585 114.535C818.349 113.847 818.114 113.031 818.036 112.727C817.974 112.423 817.881 111.992 817.834 111.768C817.694 111.145 816.588 109.047 816.444 109.142C816.38 109.189 816.316 109.109 816.317 108.949C816.318 108.806 816.144 108.517 815.906 108.309C815.684 108.1 815.557 107.923 815.605 107.924C815.876 107.925 812.151 103.29 810.77 101.925C809.897 101.058 809.183 100.304 809.183 100.272C809.184 100.065 808.66 99.7264 808.468 99.8052C808.34 99.8524 808.244 99.804 808.277 99.7243C808.309 99.5648 807.023 98.472 806.084 97.8441C805.798 97.6669 804.223 96.876 802.87 96.2618C802.233 95.9709 801.993 95.9856 802.502 96.2758L802.9 96.5175L802.422 96.4031C802.151 96.3537 801.657 96.1754 801.307 96.0138C800.957 95.8522 800.527 95.7062 800.351 95.7052C800.032 95.6875 800.032 95.6716 800.336 95.5614C800.624 95.4512 800.592 95.4191 800.114 95.2568C799.493 95.0299 799.078 95.0117 799.62 95.2382C799.827 95.3192 799.97 95.4317 799.922 95.4634C799.825 95.5746 798.806 95.2178 798.599 95.0091C798.488 94.8967 798.536 94.881 798.727 94.9459C798.903 95.0107 798.983 94.9952 798.919 94.8991C798.872 94.819 798.585 94.7535 798.313 94.784C797.962 94.798 797.819 94.7494 797.852 94.6058C797.868 94.4941 797.805 94.414 797.693 94.4293C797.581 94.4447 797.215 94.3309 796.865 94.1853C796.53 94.0238 796.148 93.9419 796.036 93.9892C795.908 94.0364 795.812 94.0039 795.813 93.9081C795.813 93.8123 795.718 93.7639 795.59 93.8111C795.462 93.8583 795.334 93.8257 795.287 93.7137C795.256 93.6177 794.969 93.5363 794.65 93.5505C794.33 93.5648 794.012 93.4991 793.964 93.4191C793.917 93.339 794.013 93.3235 794.172 93.3723C794.411 93.4534 794.411 93.4374 794.22 93.3087C794.061 93.1801 793.934 93.1794 793.789 93.3063C793.629 93.4332 793.581 93.401 793.582 93.2254C793.584 92.9699 792.883 92.7106 792.627 92.8689C792.531 92.9322 792.467 92.8999 792.467 92.8361C792.468 92.7083 791.926 92.6096 790.985 92.5725C790.841 92.5558 790.714 92.4912 790.714 92.4273C790.714 92.3635 790.507 92.2985 790.236 92.297C789.981 92.2956 789.471 92.1811 789.12 92.0355C788.77 91.8898 788.34 91.8077 788.164 91.8546C788.004 91.9016 787.845 91.8688 787.813 91.7888C787.766 91.6289 785.598 91.186 784.211 91.0347C783.621 90.9836 783.381 91.0142 783.38 91.142C783.379 91.2857 783.252 91.2531 782.982 91.0759C782.727 90.9149 782.584 90.8822 782.583 90.9939C782.583 91.0897 782.471 91.137 782.343 91.0884C782.216 91.0239 782.072 91.055 782.024 91.1346C781.863 91.4052 781.576 91.3078 781.689 91.037C781.77 90.8458 781.722 90.7976 781.531 90.8764C781.403 90.9237 781.243 90.9707 781.211 90.9705C781.163 90.9703 781.163 91.0341 781.21 91.1142C781.258 91.1783 781.114 91.2095 780.907 91.1605C780.683 91.1273 780.508 91.0465 780.509 90.9827C780.509 90.9188 780.27 90.8696 779.983 90.8521C779.568 90.8179 779.536 90.8496 779.791 90.9628C780.061 91.076 780.029 91.1078 779.582 91.1054C779.263 91.1196 779.088 91.0548 779.152 90.9593C779.201 90.8638 779.169 90.7997 779.089 90.7993C778.994 90.7988 778.913 90.8622 778.913 90.942C778.913 91.0059 778.737 91.0369 778.53 91.0038C778.322 90.9548 778.099 91.0015 778.05 91.097C777.986 91.1765 777.842 91.2236 777.715 91.1591C777.588 91.1105 777.476 91.1418 777.475 91.2217C777.475 91.3175 777.171 91.4755 776.787 91.5692C776.42 91.679 776.02 91.8524 775.907 91.9476C775.795 92.0428 775.475 92.1369 775.188 92.1673C774.917 92.1977 774.613 92.2919 774.533 92.3713C774.308 92.5936 773.797 92.5749 773.799 92.3354C773.799 92.2396 773.847 92.2079 773.895 92.2561C773.959 92.3043 774.134 92.2893 774.31 92.1944C774.486 92.0996 774.599 91.9884 774.551 91.9562C774.44 91.8439 770.043 93.305 769.994 93.4803C769.962 93.56 769.786 93.6229 769.595 93.6219C769.403 93.6208 768.444 93.9509 767.484 94.3449C766.509 94.7388 765.981 95.0074 766.284 94.9611L766.843 94.8684L766.251 95.1685C765.931 95.3424 765.499 95.5157 765.275 95.5784C765.052 95.6251 764.748 95.7192 764.588 95.7822C764.396 95.8451 764.348 95.8288 764.429 95.7015C764.509 95.5742 764.462 95.542 764.302 95.605C764.158 95.6521 764.046 95.7633 764.045 95.8431C764.045 95.923 763.885 95.986 763.677 95.9849C763.47 95.9837 762.894 96.2361 762.382 96.5367C761.869 96.8373 761.389 97.0902 761.325 97.0898C761.246 97.0894 761.053 97.248 760.893 97.4547C760.732 97.6614 760.235 98.026 759.771 98.263C759.307 98.5159 758.97 98.7856 759.018 98.8497C759.065 98.9298 758.985 98.9932 758.857 98.9925C758.73 98.9918 758.442 99.1499 758.233 99.3404C758.025 99.5469 757.688 99.8165 757.48 99.9431C757.272 100.07 756.967 100.308 756.807 100.466C756.646 100.625 756.422 100.704 756.327 100.639C756.216 100.559 756.2 100.591 756.279 100.735C756.374 100.895 756.341 100.927 756.15 100.846C755.991 100.781 755.831 100.844 755.735 101.019C755.638 101.163 755.558 101.21 755.558 101.13C755.559 101.018 755.511 101.018 755.431 101.13C755.366 101.209 755.062 101.415 754.758 101.557C754.454 101.715 753.734 102.126 753.157 102.49C751.412 103.583 750.884 103.819 748.198 104.667C747.015 105.06 746.121 105.199 743.726 105.393C743.423 105.407 742.593 105.483 741.89 105.543C741.188 105.603 740.357 105.662 740.054 105.677C739.751 105.691 739.416 105.721 739.336 105.737C739.24 105.768 738.905 105.782 738.569 105.78C738.25 105.779 737.979 105.841 737.978 105.905C737.978 105.969 737.722 105.983 737.404 105.95C737.1 105.916 736.877 105.947 736.924 106.027C736.972 106.107 736.557 106.153 736.014 106.134C735.472 106.115 734.929 106.176 734.801 106.271C734.656 106.382 734.545 106.365 734.402 106.157C734.275 106.012 734.132 105.948 734.052 106.027C733.972 106.107 733.173 106.198 732.295 106.241C731.401 106.268 730.619 106.344 730.539 106.391C730.459 106.439 729.852 106.515 729.198 106.56C728.543 106.604 727.856 106.68 727.681 106.711C727.505 106.742 726.962 106.819 726.483 106.864C725.094 107.032 724.71 107.126 724.821 107.286C724.868 107.366 724.709 107.429 724.469 107.428C724.23 107.427 723.815 107.488 723.543 107.567C723.079 107.708 721.642 107.908 718.257 108.289C717.81 108.334 716.42 108.566 715.142 108.815C713.864 109.063 712.283 109.31 711.628 109.37C710.127 109.49 710.079 109.506 709.312 109.709C708.961 109.803 708.418 109.912 708.114 109.958C707.443 110.066 706.964 110.191 704.758 110.802C703.831 111.052 702.872 111.319 702.617 111.365C702.377 111.428 701.849 111.616 701.465 111.806C701.065 111.979 700.698 112.089 700.65 112.025C700.603 111.977 700.475 112.04 700.378 112.151C700.137 112.453 697.832 113.718 697.977 113.464C698.042 113.368 697.93 113.431 697.737 113.638C697.545 113.828 697.32 113.955 697.257 113.907C697.177 113.874 697.081 113.97 697.032 114.145C696.983 114.32 696.823 114.463 696.663 114.462C696.344 114.461 695.527 115.047 694.789 115.809C694.5 116.095 694.003 116.62 693.666 116.969C693.313 117.318 692.878 117.923 692.685 118.305C692.137 119.356 691.879 119.706 691.672 119.705C691.576 119.704 691.447 119.927 691.382 120.198C691.317 120.469 691.059 120.915 690.818 121.201C690.561 121.471 690.191 122.092 689.965 122.57C689.755 123.047 689.367 123.876 689.125 124.401C688.883 124.927 688.624 125.532 688.543 125.755C688.478 125.979 688.267 126.552 688.073 127.03C687.442 128.592 687.052 129.995 686.869 131.255C686.82 131.51 686.705 132.196 686.606 132.771C686.408 133.871 686.182 137.431 686.308 137.559ZM690.625 136.226C690.753 136.099 690.9 135.461 690.968 134.679C691.088 133.13 691.596 130.69 691.968 129.814C692.113 129.479 692.373 128.778 692.551 128.252C692.827 127.455 693.57 125.799 694.182 124.62C694.312 124.366 694.25 123.998 694.105 124.205C693.976 124.428 693.169 126.1 693.023 126.482C692.926 126.737 692.814 126.896 692.766 126.864C692.655 126.752 693.318 125.127 693.607 124.809C693.735 124.682 693.832 124.491 693.833 124.411C693.834 124.235 694.478 123.025 694.623 122.914C694.895 122.724 695.46 121.609 695.397 121.433C695.349 121.321 695.463 121.051 695.623 120.828C695.784 120.621 695.928 120.51 695.928 120.59C695.927 120.67 695.799 120.877 695.638 121.052C695.429 121.306 695.413 121.354 695.605 121.291C695.733 121.26 695.925 121.053 696.038 120.846C696.135 120.655 696.296 120.448 696.376 120.385C696.456 120.337 696.665 120.067 696.826 119.797C697.55 118.619 698.737 117.603 700.305 116.814C700.625 116.64 700.897 116.465 700.898 116.402C700.899 116.258 701.522 116.022 702.577 115.756C703.008 115.663 703.52 115.49 703.696 115.395C703.872 115.3 704.128 115.222 704.256 115.206C704.383 115.191 704.815 115.034 705.215 114.844C705.807 114.576 705.855 114.528 705.456 114.59C705.184 114.636 705.376 114.526 705.856 114.369C706.336 114.196 706.751 114.118 706.782 114.214C706.861 114.438 707.132 114.392 707.102 114.168C707.07 114.056 707.231 113.945 707.454 113.93C707.805 113.9 707.821 113.9 707.533 114.027C707.245 114.153 707.245 114.185 707.501 114.186C707.66 114.203 707.82 114.092 707.885 113.949C707.95 113.757 708.014 113.742 708.093 113.902C708.188 114.046 708.283 114.031 708.508 113.824C708.701 113.618 708.924 113.571 709.275 113.637C709.753 113.735 711.398 113.537 711.926 113.316C712.054 113.269 712.293 113.238 712.453 113.255C712.947 113.321 714.385 112.946 714.578 112.708C714.739 112.501 714.771 112.501 714.85 112.693C714.913 112.853 715.088 112.902 715.391 112.84L715.839 112.746L715.44 112.648C715.122 112.567 715.234 112.52 715.968 112.396C716.464 112.303 716.879 112.289 716.878 112.353C716.878 112.417 716.686 112.511 716.43 112.542C716.191 112.573 716.542 112.575 717.212 112.546C718.968 112.46 720.086 112.274 720.247 112.02C720.344 111.861 720.392 111.845 720.391 111.989C720.39 112.1 720.47 112.197 720.565 112.197C720.645 112.198 720.678 112.118 720.614 112.022C720.551 111.894 720.615 111.878 720.854 111.959C721.045 112.024 721.189 111.993 721.189 111.897C721.19 111.801 721.318 111.722 721.462 111.723C721.701 111.724 721.717 111.756 721.509 111.883C721.3 112.01 721.3 112.042 721.54 112.043C721.683 112.044 721.827 111.965 721.86 111.869C721.892 111.773 722.484 111.601 723.187 111.461C723.937 111.337 724.529 111.133 724.673 110.974C724.786 110.831 724.834 110.799 724.769 110.927C724.624 111.213 726.093 111.11 729.016 110.662C730.118 110.493 731.539 110.325 732.161 110.312C732.912 110.284 733.343 110.207 733.408 110.063C733.44 109.968 733.568 109.873 733.68 109.873C733.823 109.874 733.823 109.922 733.647 110.049C733.439 110.207 733.439 110.207 733.646 110.145C733.774 110.097 734.03 110.003 734.19 109.94C734.414 109.861 734.462 109.878 734.381 110.005C734.301 110.132 734.38 110.197 734.588 110.198C734.779 110.199 734.923 110.12 734.924 110.024C734.924 109.928 735.036 109.881 735.164 109.945C735.291 109.994 735.403 109.963 735.403 109.883C735.404 109.787 735.564 109.724 735.755 109.725C736.011 109.726 736.058 109.775 735.914 109.87C735.77 109.949 735.881 109.997 736.232 110.015C736.711 110.034 736.727 110.002 736.473 109.809C736.219 109.632 736.251 109.616 736.713 109.65C737 109.684 737.335 109.718 737.447 109.718C737.558 109.735 737.606 109.799 737.558 109.894C737.509 109.974 737.541 110.054 737.621 110.054C737.716 110.055 737.797 109.944 737.797 109.8C737.799 109.608 737.942 109.561 738.485 109.596C738.868 109.63 739.267 109.584 739.395 109.505C739.555 109.41 739.587 109.442 739.506 109.634C739.425 109.841 739.489 109.905 739.84 109.891C740.079 109.892 740.175 109.845 740.064 109.796C739.65 109.634 739.906 109.492 740.672 109.48C741.119 109.467 741.438 109.516 741.405 109.58C741.357 109.644 741.468 109.708 741.644 109.709C741.819 109.726 741.915 109.679 741.868 109.583C741.71 109.342 742.747 109.348 742.905 109.604C742.953 109.668 743.16 109.653 743.384 109.559C744.024 109.307 744.168 109.292 746.147 109.239C747.168 109.212 748.11 109.122 748.222 109.042C748.319 108.947 748.526 108.884 748.654 108.885C748.989 108.887 750.907 108.37 751.259 108.181C751.419 108.102 751.675 108.007 751.851 107.976C752.665 107.821 755.93 106.082 757.212 105.099C757.998 104.497 758.991 103.8 759.407 103.546C759.823 103.293 760.112 103.023 760.081 102.959C760.033 102.895 760.097 102.879 760.225 102.912C760.336 102.961 760.608 102.866 760.816 102.676C761.025 102.501 761.249 102.359 761.345 102.359C761.424 102.36 761.409 102.248 761.298 102.119C761.187 101.975 761.14 101.815 761.204 101.752C761.268 101.688 761.412 101.769 761.523 101.913C761.697 102.17 761.825 102.122 762.834 101.393C764.116 100.458 765.236 99.8575 767.443 98.9594C768.323 98.5969 769.075 98.2018 769.124 98.0743C769.173 97.8989 769.141 97.8828 768.948 98.0414C768.756 98.2001 768.708 98.1998 768.709 98.0082C768.71 97.8804 768.774 97.8169 768.854 97.8653C768.917 97.9135 768.981 97.8819 768.982 97.7861C768.982 97.6903 769.094 97.659 769.221 97.7076C769.349 97.7721 769.461 97.7408 769.461 97.6769C769.461 97.5971 769.621 97.5181 769.813 97.5032C770.021 97.4884 770.388 97.4425 770.659 97.396C771.123 97.3028 771.123 97.3028 770.627 97.4597C770.339 97.554 770.067 97.6962 770.019 97.7758C769.971 97.8713 769.779 97.9342 769.603 97.9332C769.428 97.9323 769.331 98.0116 769.379 98.0917C769.442 98.2038 769.586 98.1886 769.81 98.078C770.002 97.9833 770.626 97.7312 771.201 97.5427C771.777 97.3542 772.752 96.9923 773.376 96.7561C774.511 96.3312 775.135 96.127 776.925 95.6258C777.5 95.4852 777.932 95.264 777.933 95.1522C777.933 95.0404 778.014 94.9451 778.109 94.9456C778.189 94.946 778.221 95.0101 778.172 95.1056C778.124 95.1852 778.155 95.2652 778.235 95.2656C778.363 95.2663 780.647 94.9115 781.446 94.7561C781.845 94.6785 786.072 95.0528 786.071 95.1645C786.071 95.2444 786.246 95.2772 786.454 95.2145C786.678 95.1678 786.997 95.2175 787.219 95.3624C787.41 95.4912 787.872 95.6054 788.223 95.6233C788.574 95.6412 788.893 95.7228 788.94 95.8188C789.004 95.899 789.163 95.9318 789.307 95.8687C789.467 95.8057 789.578 95.8542 789.578 95.966C789.577 96.0937 789.721 96.1265 789.992 96.0641C790.248 96.0016 790.359 96.0182 790.295 96.1136C790.247 96.2251 790.294 96.2414 790.438 96.1942C790.582 96.1471 790.694 96.1797 790.693 96.2595C790.693 96.3553 790.963 96.4845 791.282 96.5501C791.617 96.6158 792.86 97.0058 794.054 97.4434C795.727 98.0273 796.284 98.1581 796.429 98.0312C796.589 97.8883 796.605 97.8884 796.524 98.0317C796.46 98.1431 796.444 98.2388 796.475 98.239C796.507 98.2392 797.144 98.4662 797.877 98.7416C798.61 99.0011 799.964 99.4875 800.887 99.8119C802.99 100.542 804.724 101.445 805.423 102.184C805.502 102.28 805.867 102.569 806.217 102.843C807.075 103.486 809.392 105.862 810.264 107C810.66 107.514 811.167 108.155 811.389 108.444C812.641 109.951 814.504 113.73 815.004 115.745C815.191 116.496 815.52 117.664 815.723 118.367C816.57 121.134 816.893 123.435 816.984 127.172C817.138 134.167 816.891 141.319 816.362 144.813C816.245 145.675 815.787 147.732 815.675 147.891C815.626 147.971 815.561 148.21 815.528 148.386C815.511 148.577 815.332 149.263 815.137 149.916C814.942 150.57 814.714 151.431 814.616 151.83C814.518 152.228 814.388 152.611 814.308 152.706C814.228 152.786 814.163 152.993 814.162 153.152C814.161 153.312 813.869 154.189 813.513 155.065C812.365 157.885 811.865 158.904 811.351 159.476C811.158 159.699 810.869 160.065 810.708 160.319C810.257 161.051 807.576 163.927 807.353 163.926C807.305 163.925 806.681 164.273 805.976 164.701C804.711 165.476 802.759 166.455 802.504 166.454C802.424 166.454 801.784 166.706 801.065 167.005C799.033 167.872 794.253 169.427 793.391 169.502C792.96 169.548 791.922 169.654 791.092 169.745C789.607 169.913 786.223 169.942 784.947 169.808C784.596 169.774 783.655 169.689 782.842 169.621C782.028 169.552 780.529 169.4 779.492 169.283C777.036 169.014 774.052 168.998 772.742 169.23C769.899 169.774 764.894 171.647 762.268 173.165C760.219 174.352 757.131 175.82 756.092 176.086C754.878 176.414 754.622 176.461 752.977 176.723C752.019 176.878 746.321 176.927 746.083 176.798C746.019 176.75 745.477 176.667 744.855 176.599C743.802 176.498 742.591 176.284 740.072 175.775C736.852 175.119 732.258 174.679 727.312 174.588C725.03 174.544 722.732 174.451 722.206 174.401C721.68 174.35 720.643 174.264 719.909 174.212C719.159 174.16 718.218 174.059 717.804 173.993C716.943 173.845 715.169 174.346 714.192 175.012C713.887 175.218 713.567 175.344 713.488 175.295C713.408 175.247 713.344 175.294 713.344 175.39C713.343 175.486 712.783 175.802 712.095 176.102C711.423 176.402 710.751 176.717 710.623 176.797C710.495 176.892 710.095 177.113 709.743 177.287C707.246 178.63 704.892 180.071 704.315 180.642C704.154 180.801 703.946 180.928 703.834 180.927C703.723 180.927 703.498 181.069 703.338 181.244C703.177 181.419 702.985 181.561 702.905 181.561C702.826 181.56 702.506 181.718 702.169 181.924C701.016 182.636 700.985 182.62 701.102 181.583C701.236 180.482 701.48 179.637 701.671 179.638C701.751 179.638 701.782 179.766 701.733 179.91C701.652 180.165 701.668 180.165 701.829 179.91C701.942 179.735 701.991 179.448 701.945 179.224C701.914 179.001 701.946 178.889 702.042 178.953C702.137 179.018 702.17 178.89 702.123 178.619C702.077 178.395 702.11 178.203 702.189 178.204C702.285 178.204 702.318 178.093 702.255 177.965C702.207 177.837 702.24 177.725 702.32 177.725C702.416 177.726 702.48 177.583 702.481 177.423C702.482 177.247 702.563 177.056 702.643 177.009C702.739 176.945 702.771 176.834 702.724 176.754C702.661 176.673 702.773 176.61 702.948 176.611C703.219 176.613 703.284 176.517 703.286 176.118C703.287 175.847 703.353 175.512 703.434 175.352C703.514 175.209 703.612 174.794 703.646 174.459C703.68 174.108 703.826 173.71 703.97 173.551C704.131 173.392 704.26 173.089 704.261 172.882C704.262 172.658 704.327 172.451 704.391 172.403C704.471 172.356 704.537 172.021 704.555 171.67C704.573 171.303 704.639 170.936 704.687 170.856C704.864 170.57 704.902 169.42 704.745 169.02C704.635 168.684 704.651 168.621 704.811 168.685C705.129 168.799 705.051 165.605 704.706 164.405C704.346 163.142 702.92 161.33 700.982 159.675C700.41 159.192 699.886 158.695 699.823 158.583C699.743 158.47 699.632 158.422 699.536 158.469C699.456 158.533 699.392 158.5 699.393 158.436C699.393 158.357 698.806 157.683 698.076 156.928C696.791 155.58 695.522 154.088 695.491 153.912C695.476 153.737 694.875 152.727 694.637 152.471C694.288 152.101 693.894 151.189 693.771 150.486C693.708 150.166 693.566 149.894 693.455 149.893C693.263 149.892 693.121 149.572 692.965 148.869C692.934 148.709 692.715 148.037 692.495 147.365C692.008 145.878 691.368 143.335 691.246 142.329C691.184 141.913 691.074 141.625 691.01 141.673C690.93 141.72 690.866 141.688 690.867 141.592C690.867 141.512 690.931 141.401 691.012 141.353C691.076 141.306 691.078 140.891 690.985 140.427C690.907 139.964 690.847 139.34 690.849 139.053C690.866 138.766 690.819 138.558 690.755 138.605C690.691 138.637 690.662 138.174 690.697 137.551C690.733 136.801 690.703 136.465 690.591 136.545C690.351 136.687 690.368 136.48 690.625 136.226ZM690.685 133.958C690.732 134.007 690.748 134.15 690.699 134.262C690.65 134.389 690.603 134.341 690.604 134.166C690.589 133.99 690.637 133.894 690.685 133.958ZM691.357 130.673C691.388 130.785 691.387 130.976 691.355 131.072C691.306 131.183 691.275 131.103 691.276 130.88C691.277 130.656 691.31 130.577 691.357 130.673ZM691.846 128.823C692.006 128.68 692.054 128.697 692.053 128.936C692.052 129.096 691.987 129.287 691.907 129.366C691.826 129.462 691.729 129.669 691.681 129.844C691.632 130.02 691.616 129.908 691.634 129.588C691.636 129.269 691.749 128.918 691.846 128.823ZM692.38 127.437C692.477 127.198 692.589 127.039 692.621 127.087C692.669 127.135 692.603 127.406 692.474 127.709C692.2 128.314 692.137 128.106 692.38 127.437ZM713.556 112.846C713.684 112.894 713.635 112.942 713.46 112.941C713.284 112.956 713.189 112.908 713.253 112.86C713.301 112.812 713.445 112.797 713.556 112.846ZM715.155 112.216C715.283 112.264 715.235 112.312 715.059 112.311C714.884 112.326 714.788 112.278 714.852 112.23C714.9 112.182 715.044 112.167 715.155 112.216ZM718.475 112.106C718.555 112.059 718.635 112.091 718.635 112.171C718.634 112.267 718.554 112.346 718.474 112.346C718.378 112.345 718.315 112.313 718.315 112.281C718.315 112.233 718.379 112.153 718.475 112.106ZM719.305 112.079C719.433 112.127 719.385 112.175 719.209 112.174C719.033 112.189 718.938 112.14 719.002 112.093C719.05 112.045 719.194 112.03 719.305 112.079ZM740.036 108.95C740.116 108.95 740.195 109.031 740.195 109.126C740.194 109.206 740.115 109.238 740.035 109.189C739.939 109.141 739.876 109.061 739.876 109.013C739.877 108.981 739.941 108.949 740.036 108.95ZM739.93 108.007C739.945 108.039 740.072 108.2 740.183 108.36C740.373 108.6 740.373 108.632 740.134 108.535C739.991 108.487 739.88 108.326 739.881 108.183C739.882 108.055 739.898 107.975 739.93 108.007ZM749.936 107.966C750.032 107.918 750.096 107.935 750.095 108.015C750.094 108.206 749.519 108.363 748.896 108.343C748.498 108.325 748.53 108.293 749.105 108.185C749.472 108.123 749.856 108.013 749.936 107.966ZM750.847 107.683C751.262 107.606 751.262 107.622 750.974 107.828C750.637 108.065 750.19 108.127 750.319 107.904C750.367 107.824 750.607 107.73 750.847 107.683ZM752.046 107.307C752.254 107.276 752.494 107.149 752.59 107.022C752.686 106.895 752.799 106.832 752.846 106.88C752.989 107.024 753.773 106.597 753.663 106.421C753.599 106.325 753.647 106.309 753.774 106.39C753.886 106.454 754.014 106.439 754.078 106.36C754.126 106.28 754.51 106.043 754.926 105.853C755.358 105.648 755.695 105.426 755.695 105.346C755.696 105.267 755.824 105.203 755.967 105.204C756.111 105.205 756.367 105.079 756.543 104.92C756.848 104.666 756.848 104.666 756.655 104.984C756.542 105.159 756.253 105.397 755.997 105.508C755.741 105.618 755.437 105.792 755.325 105.887C754.94 106.253 754.172 106.727 753.692 106.916C753.42 107.027 752.86 107.279 752.412 107.484C751.98 107.705 751.564 107.831 751.485 107.783C751.278 107.654 751.631 107.368 752.046 107.307ZM752.657 106.384C752.737 106.336 752.817 106.369 752.817 106.449C752.816 106.544 752.736 106.624 752.656 106.623C752.56 106.623 752.497 106.591 752.497 106.559C752.497 106.511 752.561 106.431 752.657 106.384ZM755.314 104.961C755.554 104.819 755.682 104.772 755.634 104.867C755.521 105.042 754.897 105.422 754.897 105.31C754.898 105.262 755.09 105.12 755.314 104.961ZM756.195 104.407C756.291 104.408 756.306 104.472 756.258 104.567C756.21 104.647 756.081 104.726 756.002 104.725C755.906 104.725 755.89 104.645 755.939 104.565C755.987 104.47 756.115 104.407 756.195 104.407ZM757.569 104.143C757.776 104.128 757.936 104.177 757.935 104.257C757.935 104.337 757.791 104.368 757.616 104.335C757.44 104.302 757.296 104.333 757.296 104.429C757.295 104.509 757.183 104.572 757.04 104.571C756.641 104.569 757.138 104.173 757.569 104.143ZM757.3 103.615C757.38 103.615 757.46 103.648 757.46 103.679C757.459 103.727 757.379 103.807 757.299 103.854C757.203 103.902 757.139 103.869 757.14 103.789C757.14 103.694 757.205 103.614 757.3 103.615ZM757.926 102.979C758.006 102.98 758.037 103.14 757.972 103.331C757.89 103.682 757.906 103.682 758.195 103.444C758.692 103.031 758.852 102.984 758.85 103.224C758.85 103.352 758.801 103.431 758.77 103.383C758.722 103.335 758.53 103.398 758.322 103.524C758.13 103.651 757.938 103.714 757.875 103.666C757.732 103.505 757.767 102.979 757.926 102.979ZM760.503 101.572C760.647 101.573 760.566 101.668 760.342 101.795C759.814 102.095 759.559 102.094 759.959 101.793C760.12 101.666 760.375 101.572 760.503 101.572ZM760.021 102.192C760.101 102.193 760.18 102.225 760.18 102.257C760.18 102.305 760.1 102.384 760.02 102.432C759.924 102.479 759.86 102.447 759.86 102.367C759.861 102.271 759.925 102.192 760.021 102.192ZM761.783 100.925C761.863 100.925 761.942 101.005 761.942 101.101C761.941 101.181 761.862 101.212 761.782 101.164C761.687 101.116 761.623 101.035 761.623 100.988C761.624 100.956 761.688 100.924 761.783 100.925ZM764.327 99.7408C764.406 99.837 764.165 100.139 764.006 100.138C763.926 100.138 763.942 100.042 764.055 99.915C764.167 99.7878 764.295 99.7247 764.327 99.7408ZM764.983 99.5049C765.062 99.5053 765.142 99.5377 765.142 99.5696C765.142 99.6175 765.061 99.6969 764.981 99.7444C764.885 99.7917 764.822 99.7595 764.822 99.6796C764.823 99.5838 764.887 99.5043 764.983 99.5049ZM765.543 99.1885C765.687 99.0776 765.783 99.0621 765.782 99.1579C765.782 99.2378 765.67 99.3489 765.542 99.4121C765.414 99.4593 765.302 99.4747 765.302 99.4427C765.302 99.4108 765.415 99.2996 765.543 99.1885ZM766.183 98.8727C766.311 98.8734 766.422 98.9059 766.422 98.9378C766.422 98.9698 766.31 99.033 766.182 99.0962C766.054 99.1434 765.942 99.1109 765.943 99.031C765.943 98.9352 766.055 98.872 766.183 98.8727ZM768.262 97.9898C768.471 97.7833 768.503 97.7835 768.502 97.9751C768.501 98.1029 768.389 98.246 768.261 98.3091C768.133 98.3563 768.021 98.3557 768.021 98.3078C768.022 98.2599 768.134 98.1168 768.262 97.9898ZM771.796 96.8274C771.843 96.8276 771.811 96.9392 771.698 97.0664C771.586 97.1935 771.426 97.3044 771.346 97.304C771.266 97.3035 771.299 97.1919 771.443 97.065C771.571 96.9379 771.732 96.827 771.796 96.8274ZM772.211 96.67C772.1 96.6694 772.052 96.5893 772.116 96.4938C772.181 96.3664 772.261 96.3828 772.356 96.527C772.482 96.7034 772.546 96.6878 772.739 96.4493C772.868 96.2743 772.98 96.1951 772.98 96.259C772.979 96.3388 773.091 96.3075 773.219 96.1964C773.347 96.1013 773.523 96.0544 773.619 96.1187C773.698 96.1671 773.778 96.1515 773.778 96.0877C773.779 96.0078 774.051 95.9295 774.37 95.9312C775.104 95.9192 774.848 96.0775 773.505 96.5014C772.993 96.6583 772.434 96.8468 772.258 96.9097C772.002 96.9882 771.986 96.9881 772.178 96.8454C772.355 96.7186 772.371 96.6708 772.211 96.67ZM773.495 92.3657C773.591 92.3662 773.607 92.4301 773.558 92.5257C773.51 92.6053 773.382 92.6844 773.302 92.684C773.206 92.6834 773.191 92.6035 773.239 92.5239C773.288 92.4284 773.416 92.3652 773.495 92.3657ZM775.569 95.5226C775.648 95.5549 775.697 95.5073 775.697 95.4275C775.697 95.3317 775.873 95.2687 776.097 95.2859C776.623 95.3367 776.607 95.3845 775.935 95.6683C775.231 95.9519 774.976 95.9505 775.249 95.6645C775.361 95.5374 775.505 95.4743 775.569 95.5226ZM777.471 95.006C777.774 95.0076 777.774 95.0236 777.517 95.2138C777.357 95.3247 777.181 95.4196 777.101 95.4191C777.038 95.4188 777.022 95.3229 777.071 95.2114C777.103 95.0998 777.295 95.005 777.471 95.006ZM793.216 93.0956C793.534 93.289 793.438 93.3204 793.024 93.1744C792.881 93.1098 792.801 93.0295 792.849 92.9978C792.882 92.9501 793.057 92.999 793.216 93.0956ZM794.072 97.1561C794.199 97.2047 794.151 97.2523 793.975 97.2514C793.8 97.2664 793.704 97.218 793.768 97.1704C793.816 97.1228 793.96 97.1076 794.072 97.1561ZM803.728 96.8254C803.967 96.9544 803.967 96.9863 803.759 97.0012C803.488 96.9997 803.249 96.8387 803.362 96.7116C803.41 96.6799 803.569 96.7287 803.728 96.8254Z" fill="#202020"/>
<path d="M799.234 463.914C798.974 464.174 798.793 464.367 798.691 464.491C798.6 464.627 798.493 464.768 798.368 464.915C798.255 465.051 798.176 465.164 798.131 465.255C798.131 465.3 798.097 465.379 798.029 465.492C797.961 465.605 797.938 465.73 797.961 465.866C797.995 466.013 798.108 466.205 798.3 466.443C798.685 466.827 799.177 466.731 799.777 466.154C800.139 465.815 801.423 464.485 803.629 462.166L803.986 461.81C804.517 462.568 805.009 463.173 805.462 463.625C806.446 464.61 807.374 465.153 808.245 465.255C808.822 465.334 809.456 465.221 810.146 464.915C810.847 464.598 811.549 464.089 812.25 463.388C813.133 462.505 813.438 461.465 813.167 460.265C812.895 459.066 812.233 457.94 811.181 456.888C810.4 456.108 809.733 455.576 809.179 455.293C808.647 455.01 808.183 455.01 807.787 455.293C807.074 455.893 805.756 457.154 803.833 459.077C801.785 461.125 800.252 462.737 799.234 463.914ZM808.602 457.16C808.918 457.273 809.365 457.618 809.942 458.195C810.508 458.761 810.904 459.428 811.13 460.197C811.368 460.955 811.255 461.566 810.791 462.03C810.327 462.494 809.823 462.851 809.28 463.099C809.009 463.213 808.579 463.224 807.991 463.133C807.844 463.122 807.64 463.02 807.38 462.828C807.074 462.59 806.774 462.324 806.48 462.03C806.277 461.827 806.045 461.561 805.784 461.233L805.241 460.52C805.807 459.864 806.288 459.338 806.684 458.942C807.035 458.591 807.674 457.997 808.602 457.16ZM817.366 471.219C816.857 472 815.974 473.018 814.719 474.274C812.614 476.378 810.945 476.814 809.712 475.58C809.158 475.026 809.016 474.251 809.288 473.255C809.571 472.271 810.137 471.287 810.985 470.302C811.415 469.827 811.777 469.443 812.071 469.148C812.693 468.526 813.299 467.978 813.887 467.502C814.045 467.367 814.125 467.208 814.125 467.027C814.125 466.846 814.051 466.682 813.904 466.535C813.757 466.388 813.548 466.292 813.276 466.247C813.016 466.19 812.807 466.23 812.648 466.365C811.992 466.908 811.426 467.417 810.951 467.893C809.729 469.115 808.756 470.382 808.032 471.694C807.546 472.588 807.336 473.476 807.404 474.358C807.495 475.241 807.885 476.027 808.575 476.717C809.548 477.69 810.521 478.154 811.494 478.109C812.49 478.064 813.576 477.532 814.752 476.514C815.092 476.242 815.516 475.852 816.025 475.343C816.93 474.438 817.875 473.38 818.859 472.169C818.973 472.033 819.012 471.869 818.978 471.677C818.956 471.496 818.865 471.326 818.707 471.168C818.537 470.998 818.333 470.896 818.096 470.863C817.847 470.84 817.649 470.902 817.502 471.049L817.366 471.219ZM821.442 480.76C822.144 480.76 822.8 480.454 823.411 479.843C824.01 479.244 824.242 478.514 824.107 477.654C823.993 476.794 823.552 475.98 822.783 475.21C822.014 474.441 821.295 474.141 820.628 474.311C819.96 474.481 819.117 475.075 818.099 476.093C816.492 477.699 815.061 479.164 813.805 480.488L813.093 481.235C815.774 483.916 817.482 485.24 818.218 485.206C819.225 485.217 820.09 484.861 820.814 484.137C821.256 483.696 821.544 483.147 821.68 482.491C821.827 481.823 821.748 481.246 821.442 480.76ZM820.152 476.415C820.458 476.11 820.735 475.957 820.984 475.957C821.256 475.957 821.572 476.138 821.934 476.5C822.319 476.885 822.551 477.298 822.63 477.739C822.732 478.18 822.647 478.537 822.376 478.808C821.9 479.283 821.318 479.402 820.628 479.164C819.96 478.904 819.321 478.469 818.71 477.858L820.152 476.415ZM819.542 480.488C820.481 481.427 820.554 482.293 819.762 483.085C819.083 483.763 818.144 483.673 816.945 482.813C816.334 482.361 815.91 482.015 815.672 481.778C815.446 481.529 815.321 481.393 815.299 481.371C815.797 480.76 816.311 480.188 816.843 479.657L817.658 478.876C818.438 479.476 819.066 480.013 819.542 480.488ZM821.805 489.981C822.461 490.638 823.067 491.164 823.621 491.56C823.915 491.741 824.215 491.678 824.521 491.373C824.905 490.988 824.911 490.609 824.537 490.236L821.873 487.877C822.541 487.142 823.123 486.525 823.621 486.027C824.074 485.575 824.939 484.834 826.218 483.804C827.224 483.023 827.943 482.429 828.373 482.022C828.554 481.841 828.627 481.632 828.593 481.394C828.56 481.157 828.435 480.93 828.22 480.715C827.79 480.285 827.434 480.212 827.151 480.495L822.111 485.297C821.104 486.304 820.397 487.079 819.989 487.622C819.854 487.826 819.927 488.069 820.21 488.352L821.805 489.981ZM825.264 493.406C825.434 493.576 825.654 493.683 825.926 493.728C826.209 493.762 826.424 493.717 826.571 493.593C827.204 493.05 829.065 491.234 832.154 488.145C832.855 487.444 833.263 487.025 833.376 486.889C833.546 486.697 833.613 486.493 833.579 486.278C833.546 486.086 833.444 485.905 833.274 485.735C833.104 485.566 832.912 485.475 832.697 485.464C832.505 485.453 832.329 485.526 832.171 485.684L825.196 492.524C824.924 492.795 824.947 493.089 825.264 493.406ZM839.22 494.601C839.39 494.77 839.622 494.866 839.916 494.889C840.222 494.9 840.448 494.833 840.595 494.685C840.776 494.504 840.81 494.267 840.697 493.973L840.714 493.956C840.295 493.107 839.752 492.349 839.085 491.682C837.965 490.562 836.686 489.985 835.249 489.951C833.835 489.917 832.523 490.505 831.312 491.716C830.418 492.609 829.802 493.667 829.462 494.889C829.281 495.5 829.253 496.117 829.377 496.739C829.502 497.361 829.756 497.865 830.141 498.249C830.763 498.872 832.087 499.596 834.112 500.422C834.542 500.512 834.876 500.438 835.113 500.201C835.396 499.918 835.385 499.624 835.08 499.318C835.034 499.273 834.508 499.007 833.501 498.521C832.494 498.034 831.849 497.65 831.567 497.367C831.272 497.073 831.131 496.648 831.142 496.094C831.131 494.997 831.589 493.984 832.517 493.056C834.35 491.223 836.183 491.223 838.015 493.056L839.22 494.601ZM836.746 503.972C837.323 503.508 838.375 502.84 839.902 501.969C840.355 502.738 841.073 503.615 842.058 504.6L840.327 507.519C840.089 507.915 840.157 508.299 840.53 508.673C840.677 508.82 840.847 508.899 841.04 508.91C841.232 508.921 841.396 508.859 841.532 508.723C842.55 507.094 843.331 505.793 843.874 504.82C844.451 503.791 844.96 502.682 845.401 501.494C845.831 500.317 846.08 499.582 846.148 499.288C846.227 498.937 846.176 498.671 845.995 498.49C845.644 498.139 844.982 498.1 844.009 498.371C842.957 498.654 841.848 499.107 840.683 499.729C837.99 501.109 836.305 502.139 835.626 502.818C835.332 503.112 835.36 503.434 835.711 503.785C836.073 504.147 836.418 504.209 836.746 503.972ZM844.383 500.001C844.021 501.019 843.529 502.077 842.906 503.174C842.227 502.495 841.707 501.839 841.345 501.205C842.375 500.651 843.387 500.249 844.383 500.001ZM853.86 508.459C854.923 509.523 855.687 509.823 856.151 509.359C856.377 509.132 856.371 508.833 856.134 508.459L850.669 503.334C850.499 503.187 850.279 503.113 850.007 503.113C849.747 503.125 849.549 503.198 849.413 503.334C849.119 503.628 849.147 503.951 849.498 504.301C850.12 504.924 850.839 505.586 851.653 506.287C850.805 507 849.758 507.978 848.514 509.223C847.473 510.264 846.409 511.361 845.323 512.515C845.007 512.832 844.995 513.137 845.289 513.432C845.459 513.601 845.663 513.703 845.9 513.737C846.161 513.771 846.37 513.709 846.528 513.55C846.936 513.143 847.247 512.821 847.462 512.583L848.717 511.293L852.773 507.305L853.86 508.459ZM850.223 518.365C850.392 518.534 850.613 518.642 850.884 518.687C851.167 518.721 851.382 518.676 851.529 518.551C852.163 518.008 854.024 516.192 857.113 513.104C857.814 512.402 858.221 511.984 858.334 511.848C858.504 511.656 858.572 511.452 858.538 511.237C858.504 511.045 858.402 510.864 858.233 510.694C858.063 510.524 857.871 510.434 857.656 510.422C857.463 510.411 857.288 510.485 857.13 510.643L850.155 517.482C849.883 517.754 849.906 518.048 850.223 518.365ZM863.517 516.148C862.442 515.073 861.3 514.53 860.089 514.519C858.89 514.519 857.713 515.096 856.559 516.25C855.394 517.415 854.698 518.711 854.472 520.136C854.257 521.55 854.625 522.733 855.575 523.683C856.457 524.566 857.583 524.877 858.952 524.617C860.344 524.356 861.594 523.672 862.703 522.563C863.811 521.454 864.434 520.323 864.569 519.169C864.716 518.004 864.366 516.997 863.517 516.148ZM856.933 522.563C856.265 521.896 856.05 521.047 856.288 520.017C856.525 519.011 857.017 518.134 857.764 517.387C858.511 516.64 859.263 516.25 860.021 516.216C860.791 516.171 861.503 516.476 862.16 517.132C862.804 517.777 863.048 518.439 862.889 519.118C862.753 519.797 862.222 520.6 861.294 521.528C860.378 522.444 859.416 522.953 858.409 523.055C857.809 523.112 857.317 522.948 856.933 522.563ZM866.626 524.179C866.502 526.181 866.055 528.427 865.285 530.916C865.263 531.006 865.206 531.199 865.116 531.493C865.025 531.787 864.957 532.149 864.912 532.579C864.878 532.93 865.003 533.247 865.285 533.529C865.761 534.005 866.292 533.948 866.881 533.36L873.109 526.962C873.301 526.769 873.397 526.549 873.397 526.3C873.409 526.04 873.341 525.836 873.194 525.689C872.82 525.316 872.373 525.299 871.853 525.638L871.717 525.774L870.411 527.25C869.426 528.37 868.244 529.632 866.864 531.035C867.486 529.281 867.921 527.216 868.17 524.84C868.295 523.834 868.346 523.104 868.323 522.651C868.312 522.187 868.221 521.871 868.052 521.701C867.735 521.384 867.378 521.333 866.982 521.548C866.688 521.729 866.332 522.029 865.913 522.448L865.353 523.008L860.466 527.624C860.33 527.782 860.262 527.963 860.262 528.167C860.285 528.37 860.364 528.54 860.5 528.676C860.85 529.027 861.201 529.072 861.552 528.812C861.608 528.778 861.733 528.664 861.925 528.472L862.316 528.116L866.626 524.179ZM879.514 534.114C879.842 533.786 879.893 533.316 879.667 532.705C879.452 532.083 878.96 531.387 878.19 530.618C877.398 529.826 876.544 529.356 875.628 529.209C874.711 529.039 873.987 529.22 873.456 529.752C872.935 530.273 872.675 530.827 872.675 531.415C872.675 531.958 872.828 532.507 873.133 533.061L873.608 533.842C873.982 534.419 874.253 534.894 874.423 535.268C874.615 535.641 874.717 536.014 874.728 536.388C874.74 536.761 874.593 537.1 874.287 537.406C873.902 537.791 873.456 537.966 872.946 537.932C872.449 537.909 871.962 537.661 871.487 537.185C871.204 536.902 870.746 536.026 870.112 534.555C870.067 534.464 870.027 534.402 869.994 534.368C869.846 534.221 869.648 534.159 869.4 534.182C869.162 534.193 868.964 534.278 868.806 534.436C868.455 534.787 868.427 535.347 868.721 536.116C869.015 536.886 869.53 537.638 870.265 538.373C871.012 539.12 871.849 539.561 872.777 539.697C873.727 539.833 874.615 539.488 875.441 538.662C875.792 538.311 876.046 537.966 876.205 537.627C876.386 537.287 876.471 537.021 876.459 536.829C876.459 536.603 876.431 536.348 876.374 536.065C876.341 535.76 876.097 535.222 875.645 534.453C875.181 533.672 874.847 532.988 874.643 532.4C874.417 531.766 874.434 531.319 874.694 531.059C874.955 530.799 875.345 530.759 875.865 530.94C876.397 531.11 876.827 531.359 877.155 531.687C877.506 532.038 877.777 532.49 877.97 533.045C878.185 533.622 878.383 534.001 878.564 534.182C878.665 534.283 878.807 534.334 878.988 534.334C879.192 534.334 879.367 534.261 879.514 534.114Z" fill="#202020"/>
<path d="M206.952 352.248C206.952 350.04 206.584 348.424 205.848 347.4C205.096 346.36 203.872 345.84 202.176 345.84C201.088 345.84 200.216 346.048 199.56 346.464C199.16 346.736 198.808 347.064 198.504 347.448C198.184 347.832 198 348.2 197.952 348.552C197.28 347.8 196.232 347.424 194.808 347.424C193.736 347.424 192.912 347.632 192.336 348.048C191.744 348.464 191.336 349.184 191.112 350.208C191.016 350.608 190.968 351.184 190.968 351.936C190.968 352.688 191.072 353.264 191.28 353.664C191.712 354.464 192.288 355 193.008 355.272C193.68 355.528 194.712 355.656 196.104 355.656L197.808 355.656C203.12 355.64 206.144 355.536 206.88 355.344L206.952 352.248ZM194.424 353.76L194.016 353.688C193.856 353.656 193.736 353.616 193.656 353.568C193.576 353.52 193.504 353.456 193.44 353.376C193.36 353.296 193.304 353.24 193.272 353.208C192.968 352.904 192.816 352.32 192.816 351.456C192.816 350.736 192.992 350.176 193.344 349.776C193.68 349.36 194.2 349.152 194.904 349.152C196.36 349.152 197.28 349.96 197.664 351.576C197.792 352.216 197.872 352.648 197.904 352.872C197.968 353.32 198 353.592 198 353.688L195.264 353.736L194.424 353.76ZM199.992 353.76C199.784 352.304 199.68 351.232 199.68 350.544C199.68 349.904 199.752 349.416 199.896 349.08C200.024 348.776 200.184 348.528 200.376 348.336C200.52 348.176 200.736 348.048 201.024 347.952C201.312 347.856 201.56 347.808 201.768 347.808L202.344 347.784C202.936 347.784 203.416 347.92 203.784 348.192C204.12 348.448 204.424 348.952 204.696 349.704C204.936 350.44 205.056 351.752 205.056 353.64C204.064 353.72 202.376 353.76 199.992 353.76ZM207 343.372C207 343.132 206.92 342.9 206.76 342.676C206.584 342.452 206.4 342.332 206.208 342.316C205.376 342.252 202.776 342.22 198.408 342.22C197.416 342.22 196.832 342.228 196.656 342.244C196.4 342.26 196.208 342.356 196.08 342.532C195.968 342.692 195.912 342.892 195.912 343.132C195.912 343.372 195.984 343.572 196.128 343.732C196.256 343.876 196.432 343.948 196.656 343.948L206.424 344.044C206.808 344.044 207 343.82 207 343.372ZM196.032 335.539C196.032 337.059 196.456 338.251 197.304 339.115C198.152 339.963 199.392 340.387 201.024 340.387C202.672 340.387 204.08 339.963 205.248 339.115C206.4 338.267 206.976 337.171 206.976 335.827C206.976 334.579 206.4 333.563 205.248 332.779C204.08 331.979 202.712 331.579 201.144 331.579C199.576 331.579 198.336 331.939 197.424 332.659C196.496 333.379 196.032 334.339 196.032 335.539ZM205.224 335.659C205.224 336.603 204.776 337.355 203.88 337.915C203 338.459 202.032 338.731 200.976 338.731C199.92 338.731 199.112 338.475 198.552 337.963C197.976 337.451 197.688 336.731 197.688 335.803C197.688 334.891 197.984 334.251 198.576 333.883C199.152 333.499 200.096 333.307 201.408 333.307C202.704 333.307 203.744 333.627 204.528 334.267C204.992 334.651 205.224 335.115 205.224 335.659ZM195.936 324.134C195.936 325.67 196.48 326.958 197.568 327.998C198.64 329.022 200.072 329.534 201.864 329.534C202.696 329.534 203.512 329.382 204.312 329.078C205.096 328.758 205.752 328.302 206.28 327.71C206.808 327.086 207.072 326.398 207.072 325.646C207.072 324.91 206.824 324.158 206.328 323.39C206.6 323.342 206.792 323.254 206.904 323.126C207 322.998 207.048 322.814 207.048 322.574C207.048 322.318 207.008 322.142 206.928 322.046C206.848 321.934 206.704 321.862 206.496 321.83C206.192 321.766 205.776 321.734 205.248 321.734L204.696 321.734C203.816 321.734 202.888 321.854 201.912 322.094C201.496 322.222 201.192 322.534 201 323.03C200.872 323.366 200.808 323.79 200.808 324.302L200.832 324.974C200.88 325.486 201.192 325.742 201.768 325.742C202.056 325.742 202.248 325.622 202.344 325.382C202.44 325.126 202.488 324.654 202.488 323.966C202.488 323.662 202.904 323.51 203.736 323.51C204.216 323.51 204.616 323.702 204.936 324.086C205.24 324.454 205.392 324.934 205.392 325.526C205.392 326.102 205.04 326.622 204.336 327.086C203.648 327.534 202.792 327.758 201.768 327.758C200.728 327.758 199.792 327.438 198.96 326.798C198.112 326.142 197.688 325.31 197.688 324.302C197.688 323.902 197.808 323.446 198.048 322.934C198.176 322.614 198.24 322.398 198.24 322.286C198.24 322.046 198.16 321.838 198 321.662C197.84 321.486 197.648 321.398 197.424 321.398C197.008 321.398 196.656 321.686 196.368 322.262C196.08 322.838 195.936 323.462 195.936 324.134ZM206.088 317.584C204.648 317.632 203.696 317.664 203.232 317.68C203.68 317.024 204.264 316.28 204.984 315.448C205.704 314.632 206.2 314.12 206.472 313.912C206.824 313.624 207 313.36 207 313.12C207 313.056 206.976 312.952 206.928 312.808C206.8 312.424 206.56 312.232 206.208 312.232C205.712 312.232 205.08 312.624 204.312 313.408C203.544 314.224 202.848 315.12 202.224 316.096C202.208 315.968 202.016 315.576 201.648 314.92C201.28 314.264 200.984 313.776 200.76 313.456C200.488 313.088 200.136 312.76 199.704 312.472C199.272 312.168 198.888 312.016 198.552 312.016C197.816 312.016 197.2 312.408 196.704 313.192C196.192 313.976 195.936 314.88 195.936 315.904C195.936 316.944 196.08 317.768 196.368 318.376C196.656 318.984 197.056 319.288 197.568 319.288C202.88 319.288 205.864 319.256 206.52 319.192C206.84 319.192 207 319.016 207 318.664C207 318.392 206.912 318.144 206.736 317.92C206.56 317.696 206.352 317.584 206.112 317.584L206.088 317.584ZM201.096 317.68C199.4 317.68 198.296 317.672 197.784 317.656C197.64 317.08 197.568 316.488 197.568 315.88C197.568 315.304 197.688 314.792 197.928 314.344C198.152 313.88 198.464 313.648 198.864 313.648C199.312 313.696 199.8 314.248 200.328 315.304C200.84 316.376 201.096 317.168 201.096 317.68ZM206.352 308.094C205.616 308.014 204.4 307.742 202.704 307.278C202.928 306.414 203.04 305.286 203.04 303.894L206.328 303.054C206.776 302.942 207 302.622 207 302.094C207 301.886 206.936 301.71 206.808 301.566C206.68 301.422 206.52 301.35 206.328 301.35C204.456 301.782 202.984 302.15 201.912 302.454C200.776 302.774 199.632 303.198 198.48 303.726C197.344 304.254 196.648 304.598 196.392 304.758C196.088 304.95 195.936 305.174 195.936 305.43C195.936 305.926 196.376 306.422 197.256 306.918C198.2 307.462 199.304 307.926 200.568 308.31C203.448 309.238 205.368 309.702 206.328 309.702C206.744 309.702 206.952 309.454 206.952 308.958C206.952 308.446 206.752 308.158 206.352 308.094ZM198.144 305.502C199.12 305.038 200.216 304.638 201.432 304.302C201.432 305.262 201.336 306.094 201.144 306.798C200.024 306.462 199.024 306.03 198.144 305.502ZM195.912 296.3C195.912 298.124 196.248 299.052 196.92 299.084L205.944 299.084C206.312 299.084 206.584 299.012 206.76 298.868C206.92 298.724 207 298.444 207 298.028C207 297.596 206.816 297.364 206.448 297.332C205.808 297.3 205.256 297.284 204.792 297.284C204.056 297.284 203.184 297.308 202.176 297.356C202.24 296.956 202.272 296.54 202.272 296.108C202.272 295.1 202.048 294.3 201.6 293.708C200.976 292.892 200.008 292.484 198.696 292.484C197.848 292.484 197.176 292.836 196.68 293.54C196.168 294.228 195.912 295.148 195.912 296.3ZM197.616 297.404C197.552 296.988 197.52 296.676 197.52 296.468C197.52 296.084 197.576 295.676 197.688 295.244C197.88 294.508 198.184 294.124 198.6 294.092L198.816 294.092C199.504 294.092 199.984 294.324 200.256 294.788C200.448 295.124 200.544 295.628 200.544 296.3C200.544 296.716 200.52 297.1 200.472 297.452L199.464 297.452C198.616 297.452 198 297.436 197.616 297.404ZM196.896 283.241C196.656 283.225 196.432 283.273 196.224 283.385C196.016 283.497 195.912 283.665 195.912 283.889C195.912 284.145 195.984 284.377 196.128 284.585C196.272 284.793 196.456 284.897 196.68 284.897C198.44 284.897 199.768 284.873 200.664 284.825L200.664 285.569C200.664 285.617 200.672 285.921 200.688 286.481C200.704 287.041 200.632 287.793 200.472 288.737L196.704 288.689C196.352 288.689 196.176 288.897 196.176 289.313C196.176 289.553 196.248 289.769 196.392 289.961C196.52 290.153 196.68 290.257 196.872 290.273L200.88 290.369L202.08 290.393C203.296 290.393 204.736 290.305 206.4 290.129C206.56 290.113 206.704 290.041 206.832 289.913C206.944 289.785 207 289.625 207 289.433C207 289.209 206.936 289.001 206.808 288.809C206.68 288.617 206.496 288.529 206.256 288.545C204.032 288.673 202.816 288.737 202.608 288.737L202.104 288.737C202.232 287.505 202.296 286.537 202.296 285.833C202.296 285.481 202.28 285.145 202.248 284.825C204.2 284.825 205.552 284.857 206.304 284.921C206.768 284.937 207 284.673 207 284.129C207 283.553 206.552 283.265 205.656 283.265L202.104 283.241L196.896 283.241ZM195.84 274.748C195.84 274.828 195.88 274.932 195.96 275.06C196.088 275.3 196.536 275.668 197.304 276.164L198.504 276.908L199.896 277.82C199.544 278.06 199.032 278.372 198.36 278.756C196.744 279.7 195.936 280.284 195.936 280.508C195.936 280.828 196.104 281.1 196.44 281.324C196.584 281.42 196.712 281.468 196.824 281.468C196.92 281.468 197.008 281.444 197.088 281.396C199.104 280.292 200.56 279.396 201.456 278.708C201.888 278.66 202.312 278.636 202.728 278.636L205.32 278.66C206.2 278.66 206.728 278.572 206.904 278.396C206.968 278.332 207 278.228 207 278.084C207 277.588 206.792 277.292 206.376 277.196C205.96 277.1 205.032 277.052 203.592 277.052L201.504 277.052C201.12 276.828 200.752 276.58 200.4 276.308L199.896 275.972L199.032 275.396L198.072 274.772C197.368 274.34 196.816 274.124 196.416 274.124C196.08 274.124 195.888 274.332 195.84 274.748Z" fill="#202020"/>
<path d="M157.064 536.304C155.112 536.304 153.448 536.96 152.072 538.272C150.696 539.568 150.008 541.576 150.008 544.296C150.008 547.016 150.736 549.152 152.192 550.704C153.008 551.552 153.992 551.976 155.144 551.976C155.704 551.976 156.368 551.856 157.136 551.616C157.968 551.328 159.04 550.84 160.352 550.152C160.752 549.864 160.952 549.504 160.952 549.072C160.952 548.64 160.744 548.424 160.328 548.424C160.152 548.424 159.768 548.56 159.176 548.832C157.496 549.632 156.296 550.032 155.576 550.032C154.824 550.032 154.176 549.736 153.632 549.144C152.576 548.024 152.048 546.448 152.048 544.416C152.048 542.416 152.496 540.896 153.392 539.856C154.272 538.832 155.584 538.32 157.328 538.32C158.048 538.32 158.856 538.432 159.752 538.656C160.12 538.656 160.424 538.56 160.664 538.368C160.904 538.16 161.024 537.92 161.024 537.648C161.024 537.376 160.888 537.136 160.616 536.928C159.288 536.512 158.104 536.304 157.064 536.304ZM167.836 541.032C166.316 541.032 165.124 541.456 164.26 542.304C163.412 543.152 162.988 544.392 162.988 546.024C162.988 547.672 163.412 549.08 164.26 550.248C165.108 551.4 166.204 551.976 167.548 551.976C168.796 551.976 169.812 551.4 170.596 550.248C171.396 549.08 171.796 547.712 171.796 546.144C171.796 544.576 171.436 543.336 170.716 542.424C169.996 541.496 169.036 541.032 167.836 541.032ZM167.716 550.224C166.772 550.224 166.02 549.776 165.46 548.88C164.916 548 164.644 547.032 164.644 545.976C164.644 544.92 164.9 544.112 165.412 543.552C165.924 542.976 166.644 542.688 167.572 542.688C168.484 542.688 169.124 542.984 169.492 543.576C169.876 544.152 170.068 545.096 170.068 546.408C170.068 547.704 169.748 548.744 169.108 549.528C168.724 549.992 168.26 550.224 167.716 550.224ZM175.713 544.512C177.041 546.016 178.313 547.92 179.529 550.224C179.577 550.304 179.673 550.48 179.817 550.752C179.961 551.024 180.169 551.328 180.441 551.664C180.665 551.936 180.977 552.072 181.377 552.072C182.049 552.072 182.385 551.656 182.385 550.824L182.265 541.896C182.265 541.624 182.177 541.4 182.001 541.224C181.825 541.032 181.633 540.936 181.425 540.936C180.897 540.936 180.569 541.24 180.441 541.848V542.04L180.561 544.008C180.657 545.496 180.713 547.224 180.729 549.192C179.929 547.512 178.777 545.744 177.273 543.888C176.649 543.088 176.169 542.536 175.833 542.232C175.497 541.912 175.209 541.752 174.969 541.752C174.521 541.752 174.233 541.968 174.105 542.4C174.025 542.736 173.985 543.2 173.985 543.792V544.584L173.793 551.304C173.809 551.512 173.889 551.688 174.033 551.832C174.193 551.96 174.369 552.024 174.561 552.024C175.057 552.024 175.337 551.808 175.401 551.376C175.417 551.312 175.425 551.144 175.425 550.872L175.449 550.344L175.713 544.512ZM190.867 542.424C192.371 542.424 193.123 542.096 193.123 541.44C193.123 541.12 192.907 540.912 192.475 540.816L184.987 541.056C184.763 541.072 184.555 541.176 184.363 541.368C184.187 541.56 184.099 541.752 184.099 541.944C184.099 542.36 184.347 542.568 184.843 542.568C185.723 542.568 186.699 542.528 187.771 542.448C187.675 543.552 187.627 544.984 187.627 546.744C187.627 548.216 187.651 549.744 187.699 551.328C187.699 551.776 187.907 552 188.323 552C188.563 552 188.779 551.928 188.971 551.784C189.179 551.624 189.283 551.432 189.283 551.208C189.283 550.632 189.275 550.184 189.259 549.864L189.235 548.064L189.283 542.376L190.867 542.424ZM196.476 551.352C196.556 550.616 196.828 549.4 197.292 547.704C198.156 547.928 199.284 548.04 200.676 548.04L201.516 551.328C201.628 551.776 201.948 552 202.476 552C202.684 552 202.86 551.936 203.004 551.808C203.148 551.68 203.22 551.52 203.22 551.328C202.788 549.456 202.42 547.984 202.116 546.912C201.796 545.776 201.372 544.632 200.844 543.48C200.316 542.344 199.972 541.648 199.812 541.392C199.62 541.088 199.396 540.936 199.14 540.936C198.644 540.936 198.148 541.376 197.652 542.256C197.108 543.2 196.644 544.304 196.26 545.568C195.332 548.448 194.868 550.368 194.868 551.328C194.868 551.744 195.116 551.952 195.612 551.952C196.124 551.952 196.412 551.752 196.476 551.352ZM199.068 543.144C199.532 544.12 199.932 545.216 200.268 546.432C199.308 546.432 198.476 546.336 197.772 546.144C198.108 545.024 198.54 544.024 199.068 543.144ZM212.974 542.976C213.214 542.976 213.446 542.88 213.67 542.688C213.894 542.48 214.006 542.272 214.006 542.064C214.006 541.808 213.862 541.616 213.574 541.488V541.464C212.678 541.16 211.758 541.008 210.814 541.008C209.23 541.008 207.918 541.504 206.878 542.496C205.854 543.472 205.342 544.816 205.342 546.528C205.342 547.792 205.654 548.976 206.278 550.08C206.582 550.64 206.998 551.096 207.526 551.448C208.054 551.8 208.59 551.976 209.134 551.976C210.014 551.976 211.462 551.552 213.478 550.704C213.846 550.464 214.03 550.176 214.03 549.84C214.03 549.44 213.814 549.24 213.382 549.24C213.318 549.24 212.758 549.424 211.702 549.792C210.646 550.16 209.918 550.344 209.518 550.344C209.102 550.344 208.702 550.144 208.318 549.744C207.534 548.976 207.142 547.936 207.142 546.624C207.142 544.032 208.438 542.736 211.03 542.736L212.974 542.976ZM222.555 542.424C224.059 542.424 224.811 542.096 224.811 541.44C224.811 541.12 224.595 540.912 224.163 540.816L216.675 541.056C216.451 541.072 216.243 541.176 216.051 541.368C215.875 541.56 215.787 541.752 215.787 541.944C215.787 542.36 216.035 542.568 216.531 542.568C217.411 542.568 218.387 542.528 219.459 542.448C219.363 543.552 219.315 544.984 219.315 546.744C219.315 548.216 219.339 549.744 219.387 551.328C219.387 551.776 219.595 552 220.011 552C220.251 552 220.467 551.928 220.659 551.784C220.867 551.624 220.971 551.432 220.971 551.208C220.971 550.632 220.963 550.184 220.947 549.864L220.923 548.064L220.971 542.376L222.555 542.424Z" fill="#202020"/>
<path d="M480.384 330.112C478.752 330.112 477.416 330.464 476.376 331.168C475.336 331.872 474.816 332.824 474.816 334.024C474.816 335.208 475.16 336.112 475.848 336.736C476.552 337.344 477.64 337.776 479.112 338.032C479.784 338.144 480.4 338.312 480.96 338.536C482.08 338.984 482.64 339.768 482.64 340.888C482.64 341.72 482.36 342.44 481.8 343.048C481.256 343.624 480.688 343.912 480.096 343.912C479.488 343.912 478.856 343.784 478.2 343.528C478.152 343.512 477.824 343.36 477.216 343.072C476.608 342.784 476.28 342.632 476.232 342.616C476.184 342.584 476.096 342.568 475.968 342.568C475.84 342.568 475.712 342.6 475.584 342.664C475.36 342.792 475.176 342.952 475.032 343.144C474.888 343.336 474.816 343.512 474.816 343.672C474.816 344.104 475.224 344.536 476.04 344.968C477.272 345.656 478.52 346 479.784 346C481.048 346 482.024 345.728 482.712 345.184C483.944 344.192 484.56 342.68 484.56 340.648C484.56 338.232 483.272 336.792 480.696 336.328C479.608 336.12 478.736 335.872 478.08 335.584C477.264 335.216 476.856 334.64 476.856 333.856C476.856 333.28 477.192 332.792 477.864 332.392C478.52 331.992 479.168 331.792 479.808 331.792C480.432 331.792 481.136 331.976 481.92 332.344C482.672 332.696 483.168 332.872 483.408 332.872C483.632 332.872 483.808 332.784 483.936 332.608C484.064 332.432 484.128 332.224 484.128 331.984C484.128 331.44 483.76 330.992 483.024 330.64C482.32 330.288 481.44 330.112 480.384 330.112ZM490.32 340.624C490.672 340.624 490.936 340.624 491.112 340.624C491.288 340.608 491.416 340.6 491.496 340.6C491.688 340.568 491.864 340.464 492.024 340.288C492.184 340.112 492.264 339.928 492.264 339.736C492.264 339.352 492.016 339.128 491.52 339.064C489.488 339.064 488.264 339.056 487.848 339.04C487.832 338.928 487.824 338.12 487.824 336.616C488.432 336.664 489.024 336.688 489.6 336.688C491.184 336.688 492.184 336.576 492.6 336.352C492.792 336.224 492.888 336.008 492.888 335.704C492.888 335.304 492.632 335.064 492.12 334.984H492.096L487.896 334.912H487.224C486.504 334.928 486.144 335.232 486.144 335.824C486.144 336.848 486.168 337.984 486.216 339.232C486.04 339.408 485.952 339.6 485.952 339.808C485.952 340.048 486.056 340.224 486.264 340.336V344.32C486.264 344.832 486.312 345.24 486.408 345.544C486.504 345.848 486.752 346 487.152 346L491.856 345.952C492.48 345.952 492.792 345.616 492.792 344.944C492.792 344.592 492.56 344.392 492.096 344.344L487.944 344.416C487.96 344.4 487.968 344.176 487.968 343.744L487.92 340.6L490.32 340.624ZM496.893 345.088C496.845 343.648 496.813 342.696 496.797 342.232C497.453 342.68 498.197 343.264 499.029 343.984C499.845 344.704 500.357 345.2 500.565 345.472C500.853 345.824 501.117 346 501.357 346C501.421 346 501.525 345.976 501.669 345.928C502.053 345.8 502.245 345.56 502.245 345.208C502.245 344.712 501.853 344.08 501.069 343.312C500.253 342.544 499.357 341.848 498.381 341.224C498.509 341.208 498.901 341.016 499.557 340.648C500.213 340.28 500.701 339.984 501.021 339.76C501.389 339.488 501.717 339.136 502.005 338.704C502.309 338.272 502.461 337.888 502.461 337.552C502.461 336.816 502.069 336.2 501.285 335.704C500.501 335.192 499.597 334.936 498.573 334.936C497.533 334.936 496.709 335.08 496.101 335.368C495.493 335.656 495.189 336.056 495.189 336.568C495.189 341.88 495.221 344.864 495.285 345.52C495.285 345.84 495.461 346 495.813 346C496.085 346 496.333 345.912 496.557 345.736C496.781 345.56 496.893 345.352 496.893 345.112V345.088ZM496.797 340.096C496.797 338.4 496.805 337.296 496.821 336.784C497.397 336.64 497.989 336.568 498.597 336.568C499.173 336.568 499.685 336.688 500.133 336.928C500.597 337.152 500.829 337.464 500.829 337.864C500.781 338.312 500.229 338.8 499.173 339.328C498.101 339.84 497.309 340.096 496.797 340.096ZM505.206 346C505.446 346 505.678 345.92 505.902 345.76C506.126 345.584 506.246 345.4 506.262 345.208C506.326 344.376 506.358 341.776 506.358 337.408C506.358 336.416 506.35 335.832 506.334 335.656C506.318 335.4 506.222 335.208 506.046 335.08C505.886 334.968 505.686 334.912 505.446 334.912C505.206 334.912 505.006 334.984 504.846 335.128C504.702 335.256 504.63 335.432 504.63 335.656L504.534 345.424C504.534 345.808 504.758 346 505.206 346ZM512.656 340.624C513.008 340.624 513.272 340.624 513.448 340.624C513.624 340.608 513.752 340.6 513.832 340.6C514.024 340.568 514.2 340.464 514.36 340.288C514.52 340.112 514.6 339.928 514.6 339.736C514.6 339.352 514.352 339.128 513.856 339.064C511.824 339.064 510.6 339.056 510.184 339.04C510.168 338.928 510.16 338.12 510.16 336.616C510.768 336.664 511.36 336.688 511.936 336.688C513.52 336.688 514.52 336.576 514.936 336.352C515.128 336.224 515.224 336.008 515.224 335.704C515.224 335.304 514.968 335.064 514.456 334.984H514.432L510.232 334.912H509.56C508.84 334.928 508.48 335.232 508.48 335.824C508.48 336.848 508.504 337.984 508.552 339.232C508.376 339.408 508.288 339.6 508.288 339.808C508.288 340.048 508.392 340.224 508.6 340.336V344.32C508.6 344.832 508.648 345.24 508.744 345.544C508.84 345.848 509.088 346 509.488 346L514.192 345.952C514.816 345.952 515.128 345.616 515.128 344.944C515.128 344.592 514.896 344.392 514.432 344.344L510.28 344.416C510.296 344.4 510.304 344.176 510.304 343.744L510.256 340.6L512.656 340.624ZM524.797 336.424C524.797 335.96 524.501 335.592 523.909 335.32C523.317 335.032 522.477 334.888 521.389 334.888C520.269 334.888 519.333 335.16 518.581 335.704C517.813 336.232 517.429 336.872 517.429 337.624C517.429 338.36 517.637 338.936 518.053 339.352C518.437 339.736 518.933 340.016 519.541 340.192L520.429 340.408C521.101 340.552 521.629 340.696 522.013 340.84C522.413 340.968 522.749 341.16 523.021 341.416C523.293 341.672 523.429 342.016 523.429 342.448C523.429 342.992 523.237 343.432 522.853 343.768C522.485 344.104 521.965 344.272 521.293 344.272C520.893 344.272 519.949 343.976 518.461 343.384C518.365 343.352 518.293 343.336 518.245 343.336C518.037 343.336 517.853 343.432 517.693 343.624C517.533 343.8 517.453 344 517.453 344.224C517.453 344.72 517.829 345.136 518.581 345.472C519.333 345.808 520.229 345.976 521.269 345.976C522.325 345.976 523.229 345.696 523.981 345.136C524.749 344.56 525.133 343.688 525.133 342.52C525.133 342.024 525.069 341.6 524.941 341.248C524.829 340.88 524.701 340.632 524.557 340.504C524.397 340.344 524.197 340.184 523.957 340.024C523.717 339.832 523.165 339.624 522.301 339.4C521.421 339.176 520.701 338.928 520.141 338.656C519.533 338.368 519.229 338.04 519.229 337.672C519.229 337.304 519.477 337 519.973 336.76C520.469 336.504 520.949 336.376 521.413 336.376C521.909 336.376 522.421 336.504 522.949 336.76C523.509 337.016 523.917 337.144 524.173 337.144C524.317 337.144 524.453 337.08 524.581 336.952C524.725 336.808 524.797 336.632 524.797 336.424Z" fill="#202020"/>
<path d="M746.784 132.168C746.784 131.848 746.664 131.592 746.424 131.4C746.184 131.208 745.92 131.112 745.632 131.112C745.44 131.112 745.28 131.16 745.152 131.256C744.848 131.448 744.696 132.232 744.696 133.608L744.984 143.568C744.808 143.2 744.216 142.104 743.208 140.28C742.232 138.488 741.56 137.312 741.192 136.752C739.384 133.872 738.04 132.432 737.16 132.432C736.968 132.432 736.784 132.504 736.608 132.648C736.432 132.792 736.344 133.44 736.344 134.592V135.96C736.344 136.472 736.28 138.264 736.152 141.336C736.04 144.024 735.984 145.608 735.984 146.088C735.984 146.36 736.064 146.568 736.224 146.712C736.384 146.84 736.6 146.904 736.872 146.904C737.416 146.904 737.712 146.712 737.76 146.328C738.048 144.312 738.192 140.704 738.192 135.504C739.28 136.864 740.456 138.696 741.72 141L742.944 143.328L743.184 143.76C743.296 143.984 743.408 144.208 743.52 144.432C743.648 144.656 743.752 144.864 743.832 145.056L744.144 145.632C744.4 146.096 744.568 146.368 744.648 146.448L744.888 146.688C745.016 146.816 745.152 146.904 745.296 146.952C745.456 146.984 745.696 147 746.016 147C746.256 147 746.472 146.848 746.664 146.544C746.856 146.224 746.952 145.888 746.952 145.536L746.856 143.544C746.808 142.216 746.784 138.424 746.784 132.168ZM753.077 141.624C753.429 141.624 753.693 141.624 753.869 141.624C754.045 141.608 754.173 141.6 754.253 141.6C754.445 141.568 754.621 141.464 754.781 141.288C754.941 141.112 755.021 140.928 755.021 140.736C755.021 140.352 754.773 140.128 754.277 140.064C752.245 140.064 751.021 140.056 750.605 140.04C750.589 139.928 750.581 139.12 750.581 137.616C751.189 137.664 751.781 137.688 752.357 137.688C753.941 137.688 754.941 137.576 755.357 137.352C755.549 137.224 755.645 137.008 755.645 136.704C755.645 136.304 755.389 136.064 754.877 135.984H754.853L750.653 135.912H749.981C749.261 135.928 748.901 136.232 748.901 136.824C748.901 137.848 748.925 138.984 748.973 140.232C748.797 140.408 748.709 140.6 748.709 140.808C748.709 141.048 748.813 141.224 749.021 141.336V145.32C749.021 145.832 749.069 146.24 749.165 146.544C749.261 146.848 749.509 147 749.909 147L754.613 146.952C755.237 146.952 755.549 146.616 755.549 145.944C755.549 145.592 755.317 145.392 754.853 145.344L750.701 145.416C750.717 145.4 750.725 145.176 750.725 144.744L750.677 141.6L753.077 141.624ZM757.515 137.088C758.107 141.808 758.419 144.392 758.451 144.84C758.499 145.288 758.627 145.752 758.835 146.232C759.059 146.744 759.315 147 759.603 147C760.067 147 760.515 146.664 760.947 145.992C761.395 145.32 761.979 144.128 762.699 142.416C762.971 142.928 763.291 143.568 763.659 144.336C764.219 145.44 764.611 146.176 764.835 146.544C765.011 146.816 765.227 146.952 765.483 146.952C766.059 146.952 766.395 146.744 766.491 146.328C767.675 140.504 768.267 137.176 768.267 136.344C768.267 136.168 768.203 136.032 768.075 135.936C767.947 135.824 767.787 135.768 767.595 135.768C767.403 135.768 767.195 135.856 766.971 136.032C766.763 136.192 766.651 136.368 766.635 136.56C766.363 138.912 765.923 141.48 765.315 144.264C765.235 144.136 764.859 143.36 764.187 141.936C764.107 141.808 764.043 141.688 763.995 141.576C763.947 141.448 763.899 141.344 763.851 141.264C763.515 140.448 763.179 140.04 762.843 140.04C762.411 140.04 761.987 140.424 761.571 141.192L760.947 142.512C760.771 142.928 760.499 143.48 760.131 144.168C760.019 143.448 759.843 142.088 759.603 140.088L759.171 136.656C759.075 136.224 758.859 136.008 758.523 136.008C758.235 136.008 757.995 136.12 757.803 136.344C757.611 136.552 757.515 136.8 757.515 137.088ZM777.219 137.424C777.219 136.96 776.923 136.592 776.331 136.32C775.739 136.032 774.899 135.888 773.811 135.888C772.691 135.888 771.755 136.16 771.003 136.704C770.235 137.232 769.851 137.872 769.851 138.624C769.851 139.36 770.059 139.936 770.475 140.352C770.859 140.736 771.355 141.016 771.963 141.192L772.851 141.408C773.523 141.552 774.051 141.696 774.435 141.84C774.835 141.968 775.171 142.16 775.443 142.416C775.715 142.672 775.851 143.016 775.851 143.448C775.851 143.992 775.659 144.432 775.275 144.768C774.907 145.104 774.387 145.272 773.715 145.272C773.315 145.272 772.371 144.976 770.883 144.384C770.787 144.352 770.715 144.336 770.667 144.336C770.459 144.336 770.275 144.432 770.115 144.624C769.955 144.8 769.875 145 769.875 145.224C769.875 145.72 770.251 146.136 771.003 146.472C771.755 146.808 772.651 146.976 773.691 146.976C774.747 146.976 775.651 146.696 776.403 146.136C777.171 145.56 777.555 144.688 777.555 143.52C777.555 143.024 777.491 142.6 777.363 142.248C777.251 141.88 777.123 141.632 776.979 141.504C776.819 141.344 776.619 141.184 776.379 141.024C776.139 140.832 775.587 140.624 774.723 140.4C773.843 140.176 773.123 139.928 772.563 139.656C771.955 139.368 771.651 139.04 771.651 138.672C771.651 138.304 771.899 138 772.395 137.76C772.891 137.504 773.371 137.376 773.835 137.376C774.331 137.376 774.843 137.504 775.371 137.76C775.931 138.016 776.339 138.144 776.595 138.144C776.739 138.144 776.875 138.08 777.003 137.952C777.147 137.808 777.219 137.632 777.219 137.424Z" fill="#202020"/>
</svg>
