<svg width="934" height="641" viewBox="0 0 934 641" fill="none" xmlns="http://www.w3.org/2000/svg">
<path d="M279.196 428.203C279.528 430.898 280.488 434.811 281.226 436.398C281.521 437.063 282.075 438.834 282.481 440.348C282.85 441.825 283.773 444.261 284.474 445.701C285.213 447.14 285.803 448.469 285.803 448.691C285.803 448.912 286.209 449.65 286.689 450.278C287.169 450.942 287.686 451.865 287.834 452.382C288.646 455.077 293.814 464.269 295.807 466.594C296.139 467 297.025 467.997 297.764 468.809C298.502 469.621 299.794 471.319 300.643 472.574C303.67 476.93 305.516 479.145 308.063 481.544C309.502 482.873 311.09 484.424 311.606 485.014C313.6 487.266 316.184 489.629 316.479 489.444C316.627 489.37 316.885 489.481 317.07 489.739C317.217 489.998 318.842 490.958 320.687 491.844C322.496 492.766 324.084 493.579 324.194 493.689C324.453 494.022 334.087 496.938 335.822 497.233C337.114 497.455 342.245 498.451 342.947 498.599C343.094 498.636 344.202 498.525 345.42 498.377C352.102 497.528 361.515 498.488 365.243 500.408C367.569 501.589 370.743 503.804 371.999 505.17C372.589 505.797 374.509 507.274 376.244 508.418C377.979 509.563 379.455 510.596 379.566 510.707C380.23 511.519 384.955 515.137 385.362 515.137C385.62 515.137 385.841 515.284 385.841 515.506C385.841 515.69 386.137 515.875 386.469 515.875C386.838 515.875 387.613 516.207 388.241 516.613C388.832 517.019 390.419 517.905 391.711 518.533C393.963 519.603 394.332 519.677 398.725 519.677C402.047 519.714 403.634 519.566 404.299 519.197C404.815 518.902 405.406 518.644 405.591 518.607C406.403 518.496 411.128 516.133 411.239 515.838C411.312 515.653 411.571 515.506 411.829 515.506C412.383 515.506 415.668 512.036 416.517 510.559C417.366 509.083 419.803 505.982 421.316 504.468C422.461 503.324 424.011 501.958 429.253 497.418C429.843 496.901 430.619 496.31 430.951 496.126C431.283 495.904 432.464 495.129 433.572 494.391C434.679 493.616 436.303 492.84 437.226 492.656C439.663 492.102 444.277 492.065 445.311 492.619C446.492 493.246 450.073 496.938 450.073 497.565C450.073 497.824 450.479 498.82 450.995 499.78C451.512 500.74 451.844 501.7 451.734 501.884C451.586 502.069 451.66 502.217 451.844 502.217C452.029 502.217 452.62 503.324 453.173 504.69C453.764 506.093 454.392 507.569 454.576 508.012C454.871 508.603 454.871 508.972 454.576 509.341C454.17 509.821 454.281 511.002 455.241 515.321C455.499 516.429 455.573 518.717 455.425 521.043C455.278 523.922 455.351 525.583 455.794 527.503C457.382 534.48 457.788 536.584 458.157 539.131C458.378 540.645 458.637 542.38 458.711 543.007C458.821 543.598 458.969 545.148 459.08 546.403C459.19 547.658 459.523 549.319 459.855 550.095C460.187 550.87 460.852 553.085 461.331 555.078C461.811 557.035 462.697 559.619 463.288 560.8C463.916 561.981 464.912 563.938 465.503 565.156C466.13 566.374 466.979 568.109 467.385 569.032C468.382 571.21 469.711 573.388 470.708 574.495C471.151 575.012 471.741 575.935 472 576.599C472.701 578.26 479.899 585.237 482.077 586.382C483.037 586.898 483.997 587.415 484.218 587.6C486.544 589.335 487.725 589.778 491.38 590.442C495.551 591.144 502.307 591.18 505.444 590.516C507.327 590.11 507.179 590.11 511.351 589.925C516.002 589.704 520.838 589.113 523.348 588.486C524.566 588.19 526.375 587.932 527.371 587.895C528.331 587.858 529.291 587.784 529.439 587.674C529.623 587.563 530.731 587.378 531.912 587.267C533.093 587.157 535.16 586.714 536.526 586.345C537.929 585.939 540.734 585.422 542.802 585.237C548.745 584.61 550.997 584.314 551.698 583.982C552.879 583.465 554.614 581.583 554.43 581.066C554.319 580.771 554.467 579.958 554.799 579.331C555.648 577.633 555.796 573.609 555.168 568.293C554.171 560.098 554.762 553.048 557.125 544.853C557.715 542.822 558.49 540.017 558.786 538.577C559.118 537.175 559.598 535.772 559.819 535.513C560.041 535.218 560.262 534.775 560.299 534.517C560.41 533.778 563.88 526.802 564.212 526.654C564.397 526.58 564.507 526.285 564.507 526.026C564.507 525.436 566.944 523.258 567.571 523.258C567.83 523.258 571.078 522.261 574.843 521.043C578.572 519.825 582.226 518.717 582.965 518.607C584.109 518.422 594.224 515.69 597.177 514.767C597.767 514.583 598.949 514.325 599.761 514.214C601.57 513.918 604.744 513.033 613.788 510.338C615.006 509.969 617 509.378 618.218 509.046C619.436 508.677 621.762 507.754 623.349 506.942C624.936 506.129 627.04 505.244 627.963 504.911C628.886 504.616 629.92 504.136 630.215 503.878C630.51 503.619 631.359 503.139 632.061 502.844C632.762 502.549 634.35 501.552 635.568 500.666C636.786 499.743 638.89 498.377 640.256 497.676C641.622 496.938 642.951 496.163 643.209 495.941C643.467 495.72 644.464 495.055 645.424 494.428C646.421 493.8 647.528 492.84 647.934 492.25C648.34 491.696 650.038 490.256 651.699 489.038C653.36 487.857 657.532 484.092 661.002 480.659C666.687 475.011 667.462 474.088 669.381 470.618C670.563 468.514 671.744 466.52 672.002 466.188C673.073 464.859 674.365 463.715 675.177 463.419C676.211 463.013 679.164 458.473 680.493 455.188C681.083 453.748 681.711 452.419 681.895 452.197C682.043 452.013 682.56 450.869 683.003 449.687C683.446 448.543 683.926 447.583 684.11 447.583C684.295 447.583 684.406 447.288 684.406 446.919C684.406 446.586 684.812 443.966 685.328 441.123C687.063 431.415 687.174 430.123 687.211 415.394C687.211 407.605 687.1 400.074 686.953 398.671C686.842 397.232 686.62 392.581 686.51 388.335C686.362 384.053 686.214 380.067 686.141 379.476C686.03 378.848 685.882 374.714 685.734 370.247C685.624 365.781 685.402 360.613 685.255 358.804C685.07 356.958 684.885 352.75 684.849 349.391C684.775 346.031 684.701 342.783 684.664 342.192C684.627 341.565 684.479 339.571 684.332 337.763C684.221 335.917 683.999 331.856 683.889 328.719C683.778 325.581 683.63 322.332 683.593 321.52C682.412 308.342 682.117 284.311 682.966 273.716C683.187 270.984 683.483 266.222 683.593 263.195C683.778 258.286 683.963 255.96 684.738 249.353C685.033 246.879 685.033 218.75 684.738 217.052C684.59 216.24 684.295 214.653 684.11 213.546C683.926 212.438 683.667 209.559 683.557 207.196C683.446 204.797 683.003 201.068 682.634 198.89C682.228 196.712 681.563 192.061 681.157 188.628C680.714 185.158 679.976 180.507 679.496 178.292C679.016 176.04 678.499 173.715 678.425 173.124C677.798 169.617 677.06 166.516 675.768 162.013C675.288 160.389 674.882 158.875 674.882 158.617C674.882 158.1 673.553 154.002 672.851 152.452C670.12 146.287 669.308 144.589 667.573 141.562C665.801 138.461 664.029 135.951 662.589 134.475C661.445 133.33 658.898 129.86 658.27 128.679C657.901 127.941 657.2 126.944 656.72 126.427C656.24 125.911 655.612 125.062 655.354 124.508C654.911 123.622 652.954 121.112 651.293 119.229C650.518 118.38 647.38 115.501 646.088 114.467C644.316 113.027 638.373 110.997 637.524 111.514C637.34 111.625 636.085 110.96 634.719 110.037C633.316 109.114 631.802 108.192 631.286 107.97C630.806 107.786 630.141 107.453 629.846 107.232C629.551 107.047 627.779 106.198 625.97 105.349C624.124 104.5 621.245 103.171 619.51 102.359C617.812 101.547 615.523 100.55 614.453 100.144C613.382 99.7382 612.275 99.2214 612.016 98.9999C610.835 97.8556 602.012 95.0132 596.254 93.9057C595.331 93.7212 594.187 93.4258 593.67 93.2413C592.636 92.8721 588.206 91.8754 580.934 90.4358C578.276 89.8821 575.471 89.2914 574.659 89.1068C573.847 88.9223 571.595 88.7008 569.675 88.5901C567.756 88.4793 564.655 88.2209 562.846 88.0363C561.001 87.8518 558.195 87.5934 556.571 87.4826C554.947 87.3719 552.289 87.1135 550.664 86.892C544.61 86.1168 539.332 85.8953 530.362 86.0429C520.801 86.2275 519.213 86.3014 513.012 86.892C510.981 87.0765 508.656 87.2611 507.844 87.2611C507.032 87.298 505.038 87.5934 503.414 87.8887C501.79 88.2209 499.944 88.5531 499.353 88.5901C498.726 88.6639 496.843 88.8854 495.108 89.1069C493.373 89.3283 490.568 89.5867 488.833 89.6975C485.843 89.8821 482.004 90.1774 479.936 90.4358C479.42 90.5096 478.091 90.7311 476.983 90.9526C475.876 91.1741 474.547 91.4325 473.993 91.5063C473.439 91.617 471.52 92.06 469.748 92.503C467.939 92.946 465.171 93.5735 463.546 93.9426C460.852 94.5333 457.492 95.3823 451.365 97.0804C450.146 97.4126 447.968 98.0032 446.566 98.3724C445.126 98.7415 443.391 99.2583 442.69 99.4798C441.988 99.7013 441.139 99.9597 440.844 100.034C440.253 100.181 434.015 102.544 432.169 103.356C431.542 103.614 430.213 104.094 429.216 104.463C427.186 105.165 422.645 107.564 422.461 108.044C422.387 108.192 421.759 108.413 421.095 108.561C420.393 108.672 419.655 109.004 419.397 109.299C419.175 109.594 418.695 109.816 418.363 109.816C417.403 109.853 415.558 110.997 413.749 112.658C412.863 113.544 411.94 114.246 411.792 114.246C410.316 114.246 394.701 126.87 394.701 128.052C394.701 128.199 393.446 129.602 391.932 131.152C390.419 132.703 389.164 134.069 389.164 134.216C389.164 134.327 388.241 135.545 387.133 136.948C386.026 138.351 385.103 139.717 385.103 139.975C385.103 140.233 384.992 140.455 384.808 140.455C384.66 140.455 384.217 140.972 383.811 141.599C383.405 142.227 382.335 143.15 381.412 143.703C379.123 145.032 377.757 146.177 376.391 147.985C375.321 149.425 373.106 154.445 372.146 157.62C371.925 158.432 371.076 160.463 370.3 162.124C369.525 163.785 368.787 165.631 368.639 166.184C368.233 167.993 364.653 177.48 364.062 178.292C363.914 178.477 363.434 180.064 362.991 181.799C362.511 183.534 361.884 185.601 361.589 186.413C361.256 187.226 360.813 188.702 360.555 189.736C360.297 190.732 359.521 193.243 358.894 195.273C357.971 198.189 356.347 203.985 355.793 206.347C355.608 207.159 354.649 210.297 353.246 214.838C352.397 217.458 351.696 219.784 351.659 220.006C351.105 222.626 350.625 224.398 349.997 226.096C349.591 227.204 348.779 229.972 348.189 232.224C347.598 234.439 346.971 236.691 346.749 237.208C345.642 239.976 344.829 243.52 343.722 250.571C343.537 251.789 343.168 253.598 342.873 254.631C341.987 257.769 341.175 263.712 340.584 270.763C340.51 271.87 340.178 273.938 339.883 275.377C339.514 277.149 339.292 281.505 339.182 289.368C339.034 299.63 339.145 302.436 339.957 309.154C340.104 310.261 340.178 311.516 340.178 311.923C339.772 321.151 338.96 324.843 336.598 328.165C336.155 328.756 335.527 329.752 335.269 330.38C334.752 331.45 327.147 339.424 326.631 339.424C326.483 339.424 324.268 341.491 321.684 344.001C316.553 348.985 315.187 350.166 310.61 353.304C306.845 355.888 305.995 356.774 302.673 361.388C301.197 363.381 299.277 365.781 298.428 366.74C297.542 367.663 296.361 368.955 295.844 369.657C295.29 370.358 294.663 371.096 294.478 371.318C293.888 371.982 289.495 378.479 289.495 378.701C289.495 379.033 287.132 382.429 286.8 382.577C286.357 382.761 284.696 386.342 284.696 387.154C284.696 387.523 284.364 388.483 283.994 389.295C282.85 391.658 281.521 397.97 279.675 409.93C279.048 413.806 278.79 424.77 279.196 428.203ZM287.834 407.9C287.944 406.46 288.313 404.246 288.572 402.917C288.867 401.588 289.199 399.927 289.31 399.225C289.679 397.084 290.971 392.101 291.525 390.624C291.82 389.886 292.005 389.258 291.931 389.258C291.673 389.258 295.807 381.432 296.878 379.845C297.468 379.033 298.428 377.889 299.056 377.298C299.683 376.67 300.2 376.08 300.2 375.895C300.2 375.6 300.495 375.194 302.452 372.868C302.968 372.241 304.482 370.174 305.774 368.254C308.247 364.599 311.311 361.314 314.412 358.952C315.409 358.176 316.996 356.884 317.919 356.072C318.842 355.26 319.728 354.559 319.875 354.559C320.023 354.559 320.355 354.411 320.614 354.19C320.872 354.005 321.906 353.193 322.939 352.381C323.936 351.606 325.892 349.649 327.221 348.062C329.879 344.887 330.617 344.186 332.205 343.337C333.312 342.746 339.735 336.36 340.141 335.474C340.732 334.071 342.209 332.004 342.688 331.856C343.279 331.635 346.306 325.913 347.34 322.997C348.484 319.748 348.964 311.11 348.373 304.724C347.635 296.898 348.115 277.74 349.148 272.609C349.444 271.095 349.924 267.921 350.219 265.595C350.957 259.504 351.806 254.262 352.655 250.165C353.061 248.208 353.726 244.997 354.095 243.077C354.464 241.158 355.018 238.832 355.387 237.909C355.719 236.986 356.125 235.731 356.31 235.14C356.642 233.959 358.008 229.234 358.525 227.388C359.189 225.026 361.921 214.616 362.954 210.592C363.545 208.267 364.357 205.498 364.726 204.501C365.428 202.73 365.649 201.954 366.646 198.411C366.904 197.488 367.237 196.417 367.421 196.011C367.827 195.014 369.341 190.031 370.374 186.229C370.817 184.494 371.445 182.685 371.703 182.168C371.962 181.651 372.183 181.024 372.183 180.729C372.183 179.806 375.173 171.278 375.542 171.168C375.948 171.02 378.422 167.292 379.049 165.926C379.271 165.409 380.083 164.154 380.895 163.157C382.113 161.533 383.294 159.54 385.398 155.405C385.731 154.778 386.617 153.486 387.392 152.526C388.167 151.529 388.795 150.606 388.795 150.422C388.795 150.274 389.385 149.388 390.05 148.502C392.597 145.328 393.077 144.7 393.593 143.63C393.889 143.039 394.959 141.71 395.919 140.676C396.879 139.643 398.134 138.203 398.688 137.502C399.241 136.8 400.386 135.508 401.272 134.659C402.121 133.81 403.413 132.444 404.077 131.632C405.369 130.082 408.138 127.904 412.604 124.84C414.007 123.88 415.927 122.441 416.813 121.628C417.736 120.816 418.658 120.152 418.917 120.152C419.175 120.152 419.434 120.041 419.507 119.857C419.729 119.377 424.011 116.94 429.031 114.504C435.159 111.551 436.119 111.145 438.481 110.443C439.515 110.148 440.844 109.631 441.435 109.336C442.025 109.041 444.646 108.192 447.304 107.416C449.925 106.678 453.838 105.497 455.979 104.832C458.12 104.131 461.442 103.319 463.362 102.987C465.281 102.654 466.979 102.285 467.164 102.175C467.349 102.064 468.013 101.842 468.677 101.658C469.305 101.51 470.745 101.141 471.852 100.809C472.96 100.513 474.584 100.181 475.47 100.07C476.356 99.9597 477.721 99.7013 478.534 99.4798C479.346 99.2583 480.49 98.9999 481.081 98.9261C481.671 98.8523 482.447 98.7046 482.816 98.6308C483.48 98.4093 485.51 98.2616 494.554 97.6341C499.501 97.3019 501.605 97.0435 502.122 96.7112C502.38 96.5636 512.052 95.6776 519.656 95.1239C526.485 94.644 545.349 95.087 551.218 95.936C553.359 96.2313 556.534 96.4898 558.306 96.5266C560.041 96.5266 561.886 96.6374 562.366 96.7112C565.172 97.1542 569.011 97.671 570.598 97.7817C572.296 97.8925 575.102 98.2616 576.874 98.557C577.28 98.6308 578.609 98.963 579.827 99.2952C581.045 99.6275 583.444 100.144 585.179 100.44C586.914 100.735 589.572 101.289 591.086 101.658C592.599 102.064 595.663 102.802 597.915 103.356C603.674 104.759 606.331 105.645 608.879 107.084C610.097 107.786 611.241 108.339 611.426 108.339C611.573 108.339 612.644 108.745 613.788 109.225C614.896 109.742 615.818 110.074 615.818 110C615.818 109.927 618.366 111.145 621.429 112.695C624.53 114.246 627.668 115.759 628.369 116.054C629.071 116.35 630.658 117.31 631.876 118.195C639.813 123.991 641.954 125.615 642.729 126.538C643.246 127.129 643.837 127.793 644.058 128.052C644.316 128.273 645.498 129.713 646.753 131.226C647.971 132.74 649.484 134.585 650.075 135.287C650.666 135.988 651.441 137.169 651.81 137.871C652.142 138.572 652.954 139.68 653.619 140.344C654.246 140.972 654.948 141.747 655.132 142.005C655.354 142.264 656.129 143.223 656.904 144.109C657.643 145.032 658.27 146.029 658.27 146.398C658.27 146.73 658.935 148.022 659.747 149.241C660.559 150.459 661.223 151.529 661.223 151.677C661.223 151.825 661.814 153.117 662.515 154.556C663.254 155.996 663.992 157.878 664.176 158.691C664.398 159.54 664.878 161.348 665.284 162.788C665.69 164.191 666.354 166.701 666.76 168.325C667.166 169.95 667.794 172.164 668.126 173.235C668.458 174.305 668.717 175.45 668.717 175.819C668.68 176.151 668.975 178.034 669.381 179.953C670.009 183.128 671.19 190.548 671.744 194.719C672.039 197.192 672.113 197.451 672.408 197.968C672.593 198.226 672.667 198.78 672.63 199.26C672.593 199.703 672.667 200.81 672.814 201.733C672.962 202.656 673.184 203.874 673.257 204.501C674.106 209.743 675.288 228.053 675.362 237.171C675.435 244.111 675.362 245.218 674.365 255.997C674.069 259.356 673.7 264.34 673.59 267.071C673.479 269.803 673.11 274.713 672.814 277.961C672.482 281.21 672.187 286.599 672.113 289.958C671.892 301.365 671.892 308.083 672.113 308.416C672.224 308.6 672.371 310.188 672.445 311.996C672.519 313.768 672.777 316.98 672.962 319.121C673.184 321.262 673.479 325.396 673.59 328.349C673.7 331.303 673.885 334.957 673.959 336.471C674.033 337.984 674.18 342.488 674.291 346.438C674.439 350.387 674.623 354.226 674.734 354.928C674.808 355.629 674.992 360.613 675.103 366.002C675.251 374.493 675.509 378.479 676.174 384.09C676.247 384.792 676.432 390.772 676.543 397.379C676.654 403.987 676.838 410.115 676.912 411.038C677.133 413.068 677.133 418.531 677.023 428.055C676.912 434.036 676.801 435.438 676.321 435.992C675.103 437.469 673.516 440.828 673.11 442.932C672.814 444.372 672.335 445.479 671.559 446.328C670.969 447.029 670.452 447.768 670.452 447.989C670.452 448.174 670.12 449.06 669.714 449.872C669.308 450.721 668.975 451.533 668.975 451.718C668.975 451.865 668.385 453.194 667.683 454.634C666.982 456.11 666.391 457.439 666.391 457.587C666.391 458.03 663.733 462.054 662.774 463.087C662.294 463.604 661.629 464.49 661.334 465.118C661.002 465.708 660.633 466.299 660.522 466.41C660.374 466.52 659.857 467.259 659.378 468.071C658.122 470.212 645.941 482.283 644.021 483.316C643.615 483.538 642.545 484.461 641.585 485.347C640.182 486.712 635.642 490.035 635.199 490.035C634.977 490.035 630.067 492.988 629.883 493.246C629.514 493.763 626.413 495.793 624.493 496.79C622.685 497.713 621.097 498.451 617.664 499.817C616.741 500.186 615.265 500.814 614.342 501.22C612.016 502.253 608.62 503.287 606.295 503.693C605.224 503.878 603.378 504.468 602.234 504.985C600.499 505.797 597.915 506.536 591.713 507.938C591.381 508.012 590.901 508.197 590.717 508.307C590.163 508.64 586.73 509.489 584.663 509.784C583.666 509.932 582.595 510.153 582.263 510.338C580.676 511.113 578.83 511.814 578.35 511.814C577.538 511.814 572.186 513.623 571.3 514.214C570.857 514.472 568.937 515.247 567.055 515.875C565.135 516.539 563.474 517.278 563.326 517.536C563.178 517.794 562.588 518.127 562.071 518.237C561.517 518.385 560.558 518.902 559.93 519.382C559.302 519.862 557.789 520.821 556.534 521.56C553.396 523.369 551.772 525.288 551.181 527.835C550.923 528.98 550.517 529.902 550.295 529.902C549.705 529.902 547.933 535.809 547.527 539.02C547.342 540.423 547.047 542.601 546.825 543.93C546.272 547.584 546.124 561.833 546.53 570.619L546.788 576.082L545.238 576.747C544.352 577.079 542.137 577.596 540.328 577.854C538.483 578.113 536.268 578.556 535.345 578.814C533.019 579.515 529.033 580.364 525.747 580.881C524.234 581.103 521.428 581.62 519.583 582.026C516.297 582.764 516.113 582.764 515.19 582.136C514.119 581.435 511.166 581.472 506.035 582.284C504.669 582.506 501.162 582.727 498.283 582.801C493.669 582.875 492.856 582.801 491.564 582.136C490.789 581.73 490.051 581.324 489.94 581.214C489.829 581.103 488.907 580.512 487.91 579.922C485.141 578.371 481.413 574.753 479.53 571.874C478.977 571.025 477.869 569.401 477.131 568.293C474.658 564.713 473.366 562.424 472 559.139C471.298 557.367 470.523 555.595 470.339 555.189C469.416 553.122 467.533 545.96 467.312 543.487C467.201 542.564 467.053 541.604 466.906 541.42C466.795 541.235 466.61 540.349 466.536 539.463C466.204 536.658 465.577 533.114 464.986 531.231C464.026 527.835 463.325 522.926 463.583 520.932C464.063 516.982 463.842 514.915 462.882 513.955C462.217 513.291 461.922 512.479 461.738 510.855C461.627 509.636 461.073 507.495 460.593 506.056C458.046 498.968 457.529 497.418 457.714 497.418C457.825 497.418 457.714 497.122 457.419 496.753C457.123 496.421 456.57 495.166 456.163 493.985C455.794 492.803 455.167 491.659 454.798 491.474C454.428 491.29 454.133 490.921 454.133 490.699C454.133 490.367 449.999 486.196 448.522 485.051C447.119 483.944 445.015 483.427 442.69 483.575C436.562 483.944 434.864 484.35 432.243 485.937C430.877 486.749 429.659 487.451 429.511 487.451C429.253 487.451 428.994 487.709 426.558 490.035C425.709 490.847 424.934 491.511 424.823 491.511C424.712 491.511 424.306 491.807 423.9 492.139C423.125 492.914 421.464 494.28 419.803 495.572C417.699 497.196 416.37 498.636 414.745 501.183C414.192 502.069 413.49 503.029 413.158 503.361C412.863 503.656 412.014 504.801 411.312 505.834C410.611 506.868 409.467 508.049 408.728 508.455C404.262 511.002 404.077 511.076 400.349 511.224C396.768 511.371 396.694 511.334 394.332 510.042C393.003 509.341 391.268 508.418 390.456 508.012C388.905 507.237 386.58 505.539 385.251 504.247C384.106 503.176 382.778 502.106 381.67 501.368C380.563 500.666 373.844 495.535 372.811 494.649C372.478 494.354 372.109 494.095 371.999 494.095C371.888 494.095 371.039 493.616 370.079 493.025C367.938 491.696 365.981 491.032 361.847 490.182C358.377 489.481 355.202 489.444 349.112 489.961C345.974 490.219 344.423 490.182 342.282 489.813C337.299 488.89 335.49 488.411 333.977 487.746C333.165 487.377 332.168 487.082 331.725 487.082C330.839 487.082 324.084 483.722 321.426 481.951C320.392 481.286 318.842 479.736 317.956 478.554C317.033 477.373 315.815 476.007 315.187 475.527C313.637 474.383 312.603 473.386 311.939 472.39C311.643 471.947 310.721 470.839 309.945 469.99C309.133 469.141 307.841 467.554 307.066 466.446C306.291 465.339 305.516 464.269 305.331 464.047C305.146 463.826 304.297 462.718 303.411 461.574C302.489 460.429 301.566 459.137 301.307 458.658C301.049 458.178 300.68 457.587 300.495 457.402C300.052 456.812 297.247 452.382 297.247 452.197C297.247 452.124 296.582 450.61 295.77 448.875C294.958 447.14 294.294 445.59 294.294 445.479C294.294 445.405 293.629 444.002 292.854 442.452C292.079 440.865 291.045 438.318 290.639 436.767C290.196 435.217 289.532 433.223 289.126 432.374C288.535 430.972 287.907 427.502 287.538 423.589C287.354 421.669 287.575 410.853 287.834 407.9Z" fill="#7D9DF0"/>
</svg>
