<svg width="934" height="641" viewBox="0 0 934 641" fill="none" xmlns="http://www.w3.org/2000/svg">
<path d="M130.201 275.451C130.386 276.374 130.571 279.106 130.681 281.542C130.792 283.978 130.977 286.895 131.087 288.002C131.198 289.11 131.383 292.727 131.456 296.049C131.604 301.476 131.863 306.607 132.195 309.597C132.269 310.188 132.453 311.701 132.564 312.919C132.712 314.138 132.896 315.614 132.97 316.242C133.081 316.832 133.487 319.416 133.856 321.963C134.668 327.205 135.591 331.414 136.182 332.484C136.403 332.89 136.625 333.37 136.698 333.591C136.883 334.219 137.547 337.246 137.695 338.021C137.88 339.129 138.655 340.901 139.172 341.528C139.43 341.823 139.762 342.562 139.91 343.115C140.058 343.669 140.501 344.407 140.907 344.777C141.35 345.109 141.866 345.589 142.125 345.81C142.789 346.438 143.897 346.955 145.262 347.213C147.883 347.693 151.28 350.498 153.937 354.374C155.34 356.368 157.001 361.056 157.334 363.787C157.444 364.637 157.703 366.076 157.924 366.999C158.146 367.922 158.367 371.798 158.404 375.674C158.552 384.46 158.736 385.899 160.102 390.255C161.874 395.719 162.612 396.826 167.817 401.329C168.888 402.252 170.143 403.175 170.586 403.36C171.066 403.581 171.841 404.098 172.321 404.504C172.801 404.947 174.093 405.87 175.2 406.571C177.821 408.233 182.878 413.327 183.58 414.988C185.019 418.495 186.865 422.002 187.271 422.002C187.53 422.002 187.751 422.149 187.751 422.297C187.751 422.814 190.15 423.478 192.07 423.478C193.104 423.478 195.651 423.663 197.755 423.884C199.859 424.106 201.815 424.29 202.037 424.253C202.295 424.253 202.738 424.216 202.96 424.18C203.698 424.143 207.426 424.586 208.054 424.807C208.349 424.918 209.088 425.065 209.715 425.139C210.306 425.213 211.524 425.398 212.41 425.508C214.034 425.73 215.585 425.139 216.249 423.995C216.434 423.737 216.877 423.626 217.283 423.737C218.021 423.921 221.196 423.257 221.897 422.74C222.081 422.592 222.931 422.26 223.743 422.002C227.176 420.894 230.904 417.646 232.011 414.766C232.418 413.733 233.082 412.145 233.488 411.259C234.3 409.414 234.706 404.578 234.226 402.363C233.488 399.188 233.34 398.081 233.377 395.977C233.414 392.101 234.374 389.554 235.998 388.815C238.213 387.819 243.123 384.201 245.744 381.691C249.361 378.184 250.173 376.449 250.136 372.425C250.136 369.362 250.1 368.845 249.435 364.969C248.771 361.167 248.291 359.21 247.922 358.693C247.737 358.472 247.516 357.327 247.405 356.109C247.294 354.891 246.962 352.049 246.703 349.834C246.408 347.582 246.26 344.85 246.334 343.743C246.408 342.636 246.519 340.052 246.593 338.021C246.74 334.256 247.405 329.826 247.922 329.162C248.069 328.94 248.401 328.128 248.66 327.316C248.918 326.504 249.435 325.286 249.841 324.621C250.21 323.957 250.838 322.296 251.281 320.93C251.724 319.564 252.278 318.05 252.573 317.534C252.831 317.017 253.237 315.762 253.459 314.765C253.68 313.731 254.308 312.255 254.825 311.443C255.378 310.631 256.006 308.97 256.264 307.751C257.076 303.912 257.519 302.288 258.258 300.922C258.627 300.221 259.217 298.781 259.55 297.784C259.919 296.751 260.399 295.422 260.657 294.831C260.915 294.204 261.322 292.986 261.58 292.063C262.097 290.143 263.647 286.378 264.533 285.049C264.865 284.532 265.604 282.797 266.157 281.173C266.711 279.549 267.449 277.814 267.818 277.297C268.151 276.78 268.852 275.377 269.332 274.159C270.255 271.797 272.322 267.293 275.349 261.055C276.936 257.88 277.785 256.625 280.259 254.041C281.92 252.306 283.987 250.386 284.836 249.796C288.232 247.359 289.266 245.772 288.897 243.631C288.749 242.782 288.638 241.527 288.712 240.789C288.823 238.832 288.158 231.412 287.789 230.969C287.642 230.785 287.346 229.936 287.199 229.124C287.051 228.311 286.682 227.462 286.386 227.241C286.091 227.019 285.759 225.986 285.648 224.841C285.427 222.368 284.91 221.741 282.289 220.965C279.151 220.043 267.117 220.153 254.825 221.224C250.506 221.593 235.445 221.482 232.602 221.076C231.975 220.965 229.981 220.781 228.172 220.67C222.34 220.264 219.793 220.043 215.621 219.71C213.37 219.526 208.497 219.341 204.732 219.304C198.715 219.23 189.523 218.714 183.321 218.086C182.214 217.975 179.63 217.791 177.6 217.68C175.569 217.569 173.17 217.348 172.247 217.2C170.364 216.905 167.78 216.942 158.404 217.274C154.75 217.422 151.095 217.532 150.283 217.532C149.471 217.532 148.068 217.68 147.145 217.865C146.222 218.049 144.82 218.308 144.044 218.418C143.269 218.529 142.235 218.714 141.756 218.824C141.276 218.935 140.353 219.083 139.688 219.157C133.893 219.673 132.306 220.264 131.604 221.999C131.346 222.664 131.087 223.328 130.977 223.476C130.903 223.66 131.087 223.771 131.42 223.771C132.195 223.771 132.158 224.066 131.198 226.207C130.497 227.868 130.423 228.57 130.497 234.107C130.534 237.466 130.607 241.785 130.681 243.705C130.755 245.624 130.644 250.608 130.46 254.779C129.943 265.817 129.869 273.569 130.201 275.451ZM138.581 235.694C138.766 233.221 138.766 233.221 138.655 232.815C138.618 232.594 138.581 231.929 138.618 231.302C138.655 230.01 138.101 230.231 144.746 228.939C151.796 227.61 156.448 227.204 169.848 226.946C171.878 226.909 182.362 227.499 185.905 227.832C187.825 228.053 190.741 228.275 192.365 228.385C193.99 228.496 196.315 228.644 197.533 228.791C198.752 228.902 203.661 229.05 208.423 229.16C217.356 229.308 219.128 229.419 224.85 230.083C233.525 231.08 249.14 231.671 252.72 231.117C253.643 230.969 256.855 230.748 259.919 230.637C264.976 230.416 269 230.194 273.946 229.862C274.943 229.788 276.53 229.53 277.453 229.308C280 228.681 280.111 228.717 280.259 229.493C280.48 230.969 280.406 235.51 280.074 240.973C280.037 241.195 279.077 242.413 277.896 243.705C276.752 244.96 275.644 246.289 275.46 246.584C275.275 246.916 274.574 247.913 273.909 248.762C272.691 250.349 272.064 251.974 271.658 254.336C271.584 255.001 270.956 256.33 270.329 257.326C269.664 258.323 268.704 259.91 268.114 260.907C267.56 261.904 266.379 263.712 265.456 264.931C264.459 266.296 263.5 268.142 263.02 269.729C262.171 272.387 260.546 275.894 260.03 276.116C259.882 276.189 259.734 276.411 259.734 276.596C259.734 276.743 259.328 277.777 258.848 278.847C257.335 282.133 256.412 284.384 256.412 284.754C256.412 284.975 255.932 285.75 255.341 286.489C254.751 287.264 254.049 288.851 253.68 290.291C253.348 291.62 252.573 293.835 251.982 295.164C251.355 296.492 250.875 297.895 250.875 298.264C250.875 298.633 250.247 300.258 249.472 301.882C248.697 303.469 247.922 305.389 247.774 306.09C247.626 306.792 247.442 307.751 247.331 308.194C247.257 308.637 246.667 309.929 246.076 311.037C245.448 312.144 244.968 313.252 244.968 313.547C244.968 313.805 244.747 314.47 244.452 315.023C244.156 315.54 243.75 316.611 243.492 317.423C243.233 318.198 242.864 319.01 242.717 319.232C241.019 321.373 238.914 332.226 239.727 334.588C239.911 335.068 239.874 336.84 239.653 338.575C239.431 340.31 239.357 342.709 239.505 343.928C239.764 346.364 239.985 348.8 240.354 352.972C240.502 354.485 240.945 357.143 241.388 358.878C241.794 360.613 242.126 362.348 242.089 362.754C242.052 363.123 242.237 363.714 242.495 364.009C242.79 364.341 242.938 365.929 242.901 368.697C242.827 372.241 242.717 373.053 242.052 374.124C240.945 375.932 235.26 381.063 233.377 381.949C231.458 382.872 229.501 384.386 228.8 385.53C227.176 388.188 226.29 394.943 227.25 397.49C227.471 398.044 227.729 400.259 227.877 402.4C228.062 405.944 228.025 406.498 227.25 408.159C226.807 409.155 226.4 410.152 226.364 410.374C226.142 411.555 224.85 413.216 223.632 413.88C222.894 414.286 221.86 414.951 221.343 415.357C220.826 415.763 219.83 416.317 219.055 416.649C217.799 417.129 217.652 417.129 216.84 416.501C216.212 415.948 215.843 415.874 215.289 416.169C214.846 416.428 214.108 416.391 213.074 416.132C209.383 415.209 205.212 414.84 194.839 414.656C193.325 414.619 193.251 414.582 192.402 412.662C191.922 411.629 191.258 410.004 190.889 409.082C190.003 406.682 184.687 401.625 179.371 398.118C176.972 396.568 174.831 395.017 174.609 394.685C174.351 394.39 173.317 393.245 172.284 392.138C170.217 389.96 169.368 388.409 168.149 384.386C167.448 382.06 167.337 380.768 167.264 374.788C167.227 371.023 167.005 366.925 166.784 365.707C166.562 364.489 166.304 362.532 166.193 361.351C165.972 359.099 165.233 355.888 164.237 353.045C162.538 348.062 156.374 341.786 151.612 340.199C150.135 339.719 149.508 339.276 148.659 338.021C147.33 336.065 144.377 327.537 143.638 323.625C143.343 322 142.863 319.601 142.568 318.272C141.866 315.06 141.165 306.349 140.685 295.016C140.574 292.469 140.39 289.553 140.316 288.556C140.242 287.522 140.058 284.311 139.91 281.358C139.799 278.404 139.541 275.34 139.356 274.528C139.172 273.716 138.913 272.72 138.839 272.35C138.323 270.099 138.729 256.551 139.43 252.896C139.688 251.531 139.725 250.571 139.504 250.128C139.098 249.316 138.876 246.621 138.876 241.416C138.839 239.423 138.729 237.798 138.544 237.798C138.396 237.798 138.286 237.983 138.286 238.205C138.286 238.389 138.101 238.463 137.88 238.315C137.584 238.168 137.621 237.983 137.953 237.798C138.212 237.614 138.47 236.691 138.581 235.694Z" fill="#EA2D2D"/>
</svg>
