<svg width="934" height="641" viewBox="0 0 934 641" fill="none" xmlns="http://www.w3.org/2000/svg">
<path d="M743.265 486.852C743.45 487.59 744.668 489.178 746.329 490.913C747.843 492.463 749.098 493.866 749.098 494.014C749.098 494.161 749.319 494.309 749.541 494.309C749.799 494.346 751.091 495.195 752.346 496.265C753.638 497.336 755.373 498.702 756.185 499.292C759.139 501.47 760.984 507.044 759.766 509.998C758.696 512.655 758.659 513.467 759.619 516.347C760.098 517.86 761.021 519.891 761.612 520.924C762.239 521.921 762.756 522.881 762.756 523.065C762.756 523.25 762.978 523.656 763.236 523.914C763.495 524.173 764.233 525.243 764.897 526.314C766.263 528.455 769.549 531.297 772.243 532.7C773.203 533.217 774.643 533.992 775.381 534.435C776.894 535.358 779.995 535.616 781.583 534.989C782.099 534.804 783.133 534.693 783.871 534.767C784.647 534.878 786.418 534.546 788.116 534.029C789.704 533.549 791.697 533.032 792.583 532.884C793.986 532.663 794.244 532.737 795.204 533.77C795.795 534.398 796.385 535.321 796.496 535.875C796.791 537.019 795.942 540.12 794.503 543.073C793.949 544.254 793.506 545.251 793.58 545.251C793.654 545.251 793.321 546.137 792.842 547.17C792.325 548.241 791.919 549.422 791.919 549.791C791.919 550.16 791.697 550.825 791.402 551.268C790.627 552.449 789.704 556.399 789.445 559.426C789.298 561.567 789.372 562.158 789.851 562.564C790.184 562.822 790.442 563.228 790.442 563.413C790.442 564.262 793.285 566.55 794.687 566.846C798.342 567.547 803.547 566.993 806.241 565.628C807.127 565.148 807.607 565.111 808.087 565.406C808.752 565.849 809.97 570.353 810.007 572.494C810.007 574.745 811.446 576.702 813.957 577.92C814.658 578.252 815.581 579.212 816.135 580.172C816.688 581.095 817.463 581.981 817.906 582.128C818.313 582.313 820.897 582.461 823.665 582.498C826.397 582.534 828.796 582.719 828.981 582.94C829.202 583.125 829.608 583.273 829.904 583.273C830.457 583.273 832.783 584.86 835.256 586.964C837.471 588.884 839.575 590.213 840.83 590.508C841.421 590.656 842.085 590.877 842.307 590.988C842.491 591.099 843.599 591.394 844.706 591.615C845.814 591.837 847.77 592.317 849.062 592.649C851.794 593.387 855.19 593.055 858.143 591.726C861.761 590.139 862.868 589.179 864.935 585.672C865.748 584.232 867.113 582.387 867.926 581.538C868.738 580.689 869.734 579.36 870.14 578.585C871.026 576.96 871.802 575.89 872.171 575.89C872.318 575.89 872.798 575.484 873.241 575.004C875.087 573.01 880.255 571.94 882.987 572.974C883.54 573.195 884.094 573.343 884.205 573.38C884.316 573.38 884.537 573.49 884.759 573.675C884.943 573.823 886.42 574.266 888.007 574.598C890.813 575.225 894.504 575.152 895.464 574.45C895.981 574.044 898.934 573.047 900.373 572.752C901.075 572.604 902.035 572.014 902.588 571.423C903.105 570.833 904.397 569.651 905.468 568.839C907.609 567.178 908.531 565.332 909.344 561.05C909.787 558.651 909.75 558.466 908.642 554.959C907.978 552.966 907.461 550.677 907.461 549.902C907.461 547.503 911.189 540.821 912.481 540.821C912.703 540.821 913.478 540.415 914.216 539.935C914.918 539.455 916.062 538.938 916.726 538.791C917.428 538.643 918.609 538.126 919.384 537.646C920.16 537.13 921.636 536.613 922.67 536.502C923.851 536.354 925.18 535.875 926.287 535.136C927.247 534.509 928.539 533.734 929.13 533.401C930.68 532.552 933.227 527.864 933.338 525.686C933.449 523.804 933.006 520.887 932.6 520.887C932.452 520.887 932.046 520.37 931.677 519.78C930.865 518.377 929.831 517.307 927.948 515.904C923.851 512.877 922.301 509.961 923.777 508.078C923.962 507.856 924.995 507.377 926.103 507.044C927.69 506.528 928.207 506.158 928.687 505.199C929.204 504.054 930.939 498.517 931.345 496.634C931.566 495.749 930.865 493.423 930.2 492.722C929.979 492.5 929.314 491.688 928.761 490.95C928.17 490.138 927.21 489.436 926.324 489.141C925.512 488.882 924.737 488.403 924.626 488.07C924.478 487.738 924.294 485.966 924.183 484.157C924.109 482.312 923.925 480.577 923.814 480.281C923.666 479.986 923.629 478.325 923.666 476.59C923.777 473.12 922.596 466.328 921.71 464.999C921.415 464.593 920.492 463.485 919.68 462.562C918.831 461.64 918.166 460.791 918.166 460.643C918.166 460.495 916.579 458.797 914.622 456.841C911.964 454.257 910.672 453.223 909.528 452.891C908.716 452.632 906.501 451.673 904.692 450.75C901.444 449.126 901.333 449.052 900.189 446.689C898.786 443.884 898.675 442.518 899.561 437.276L900.189 433.585L899.044 430.004C897.383 424.91 896.239 422.806 893.876 420.554C890.739 417.638 887.638 416.419 883.06 416.419C880.661 416.419 876.49 417.527 875.345 418.45C875.05 418.708 873.537 419.299 872.023 419.742C870.51 420.185 868.479 420.96 867.519 421.477C865.785 422.363 865.748 422.363 864.825 421.698C864.345 421.329 863.902 420.923 863.902 420.738C863.902 420.591 863.68 420.48 863.422 420.48C862.425 420.48 860.284 417.49 858.918 414.204C857.922 411.879 856.999 410.365 856.297 409.959C855.928 409.775 854.932 409.147 854.12 408.63C851.794 407.117 849.468 406.711 845.629 407.191C843.82 407.412 842.159 407.744 841.938 407.929C841.679 408.114 841.199 408.335 840.793 408.409C839.612 408.593 836.474 409.885 835.441 410.55C834.924 410.919 834.075 411.325 833.521 411.436C832.598 411.694 831.86 412.359 826.95 417.527C825.88 418.634 824.957 419.52 824.883 419.483C824.736 419.373 821.34 417.527 819.715 416.678C819.051 416.346 817.611 415.792 816.541 415.496C815.507 415.201 813.698 414.721 812.591 414.389C811.483 414.094 809.638 413.798 808.53 413.798C806.389 413.798 802.218 414.647 800.151 415.496C799.486 415.792 798.932 415.939 798.932 415.866C798.932 415.349 793.543 418.523 791.808 420.074C790.627 421.107 789.556 421.957 789.408 421.957C789.261 421.957 788.818 422.732 788.449 423.728C788.043 424.688 787.341 426.091 786.861 426.829C786.382 427.604 786.086 428.232 786.197 428.232C786.603 428.232 785.274 430.41 784.683 430.742C784.351 430.927 783.465 430.964 782.727 430.779C779.958 430.188 778.187 430.115 776.858 430.631C776.082 430.89 775.012 431.222 774.421 431.37C773.425 431.591 770.102 433.105 767.961 434.323C766.891 434.914 763.495 438.236 763.495 438.679C763.495 438.826 762.756 440.451 761.87 442.223C760.984 443.994 760.135 445.988 759.988 446.689C759.84 447.391 759.619 448.055 759.471 448.166C759.36 448.277 758.991 449.347 758.659 450.565C758.253 452.226 758.179 453.555 758.363 455.918C758.77 460.643 758.733 466.254 758.29 467.841C758.068 468.727 757.625 469.355 757.108 469.539C756.665 469.724 755.706 470.388 755.004 471.016C753.601 472.234 749.91 474.744 749.504 474.744C749.356 474.744 748.692 475.335 747.99 476.036C747.289 476.738 746.477 477.328 746.256 477.328C745.997 477.328 745.517 477.771 745.148 478.325C744.779 478.916 744.188 479.691 743.856 480.06C743.487 480.466 743.155 481.389 743.155 482.09C743.118 482.828 743.044 483.899 743.007 484.527C742.97 485.117 743.081 486.188 743.265 486.852ZM752.679 481.647C753.269 480.946 754.34 479.949 755.115 479.469C758.622 477.328 760.578 475.962 761.76 474.855C762.461 474.227 763.125 473.748 763.199 473.858C763.31 473.932 764.048 473.415 764.86 472.714C766.965 470.942 767.223 469.576 767.186 460.606C767.149 453.592 767.481 449.716 768.257 448.756C768.441 448.535 768.773 447.501 768.958 446.468C769.401 444.364 770.508 442.259 771.948 440.672C775.344 436.944 776.045 436.685 782.358 436.981C786.418 437.165 786.788 437.128 788.744 436.242C789.888 435.726 790.811 435.393 790.811 435.504C790.811 435.652 791.217 435.356 791.697 434.914C792.546 434.138 793.912 431.554 795.462 427.863C796.201 426.017 797.973 423.544 799.117 422.695C800.003 422.03 803.584 420.849 804.728 420.849C805.171 420.849 805.651 420.665 805.762 420.48C805.872 420.258 806.721 420.111 807.644 420.111C809.416 420.111 814.51 421.144 814.806 421.55C814.916 421.698 815.507 422.03 816.135 422.252C816.725 422.51 817.648 423.101 818.165 423.544C819.051 424.393 822.521 425.648 824.551 425.906C827.726 426.276 831.786 423.692 835.662 418.893C837.213 416.936 841.015 413.835 841.827 413.835C842.122 413.835 842.491 413.688 842.676 413.503C843.193 413.06 846.552 411.99 847.512 411.99C849.025 411.99 850.539 413.208 851.536 415.275C853.787 419.815 855.19 421.55 858.992 424.356C860.063 425.168 860.949 425.906 860.949 426.054C860.949 426.718 863.68 427.531 865.674 427.457C867.704 427.383 871.654 426.239 871.654 425.722C871.654 425.463 876.084 423.285 878.852 422.141C879.701 421.809 880.956 421.55 881.621 421.587C882.322 421.587 883.245 421.587 883.614 421.624C884.537 421.624 888.376 425.648 889.336 427.604C890.665 430.373 891.182 433.991 890.96 439.454C890.813 443.994 891.255 447.723 892.178 449.901C892.474 450.528 892.695 451.304 892.695 451.636C892.695 452.485 897.42 455.18 903.253 457.653C904.803 458.317 910.82 464.224 912.407 466.66C913.515 468.321 913.81 469.17 913.921 471.016C914.032 472.308 914.216 473.489 914.327 473.674C914.844 474.56 915.213 478.879 914.807 479.617C913.995 481.13 914.29 483.05 916.062 488.218C916.468 489.436 917.169 490.765 917.649 491.171C918.092 491.577 918.572 492.315 918.683 492.832C918.794 493.349 919.015 493.94 919.163 494.161C919.606 494.715 922.042 496.155 922.633 496.155C923.925 496.191 924.22 496.782 923.703 498.333C923.297 499.625 923.039 499.846 921.341 500.4C919.126 501.138 918.314 501.766 917.391 503.611C916.985 504.387 916.505 505.014 916.32 505.014C915.693 505.014 916.025 507.746 916.874 509.628C917.354 510.625 917.945 512.139 918.203 512.951C918.461 513.763 919.163 515.129 919.717 515.978C920.27 516.827 920.75 517.676 920.75 517.86C920.75 518.229 922.264 519.632 924.368 521.219C925.475 522.069 925.992 523.471 925.18 523.471C924.958 523.471 924.811 523.693 924.811 523.951C924.811 524.689 923.334 526.24 922.042 526.867C921.415 527.2 919.938 527.975 918.757 528.602C917.539 529.23 916.357 529.747 916.136 529.747C915.914 529.747 914.918 530.153 913.921 530.633C912.961 531.149 911.337 531.74 910.303 531.999C909.27 532.22 908.052 532.774 907.609 533.217C907.129 533.66 906.538 534.176 906.28 534.398C905.283 535.284 904.471 536.465 903.29 538.865C900.816 543.811 900.189 546.801 900.89 550.16C901.075 551.157 901.296 552.154 901.333 552.375C901.37 552.634 901.628 553.446 901.887 554.258C902.81 556.953 901.739 561.161 899.967 561.899C899.34 562.158 898.195 563.007 897.383 563.745C895.574 565.48 892.843 566.366 889.004 566.44C886.641 566.477 885.94 566.329 884.316 565.443C882.691 564.631 881.916 564.446 879.701 564.446C876.157 564.446 872.651 565.037 871.322 565.849C870.325 566.44 868.996 567.51 865.932 570.057C865.268 570.611 864.197 572.014 863.496 573.158C862.794 574.302 861.724 575.853 861.096 576.591C860.469 577.329 859.583 578.585 859.103 579.397C857.811 581.575 856.63 582.571 853.824 583.974C851.499 585.118 851.129 585.192 849.025 584.934C847.77 584.823 846.183 584.454 845.518 584.159C844.817 583.863 843.931 583.642 843.562 583.642C843.156 583.642 842.861 583.494 842.861 583.31C842.861 583.088 842.159 582.83 841.273 582.719C840.055 582.534 839.317 582.091 838.136 580.91C837.287 580.024 835.958 578.991 835.182 578.621C834.444 578.252 833.374 577.625 832.783 577.256C830.974 576.037 827.763 575.115 824.662 574.967C821.893 574.782 821.561 574.709 820.786 573.786C819.826 572.568 819.309 570.906 819.198 568.322C819.088 566.477 817.242 562.084 816.245 561.235C815.95 561.013 814.4 560.386 812.775 559.832C809.01 558.54 805.097 558.466 802.439 559.647C801.812 559.906 800.778 560.349 800.114 560.644C799.412 560.939 798.785 561.124 798.711 561.013C798.6 560.939 798.711 559.5 798.896 557.839C799.265 555.07 799.892 553.224 802.292 547.946C802.661 547.06 802.993 546.211 802.993 545.989C802.993 545.805 803.584 544.402 804.285 542.888C805.614 540.083 805.762 538.975 805.356 535.875C805.134 534.435 804.765 533.734 803.215 532.072C800.778 529.451 799.117 528.381 796.275 527.716C793.838 527.163 788.67 527.273 786.603 527.938C785.865 528.159 785.422 528.159 785.274 527.864C785.126 527.643 784.277 527.495 783.391 527.569C780.992 527.68 777.559 525.871 774.384 522.844C771.579 520.112 768.663 515.719 768.663 514.132C768.663 513.615 768.515 513.098 768.33 512.951C768.109 512.84 768.109 512.286 768.367 511.548C769.696 507.266 770.065 502.356 769.179 500.215C768.552 498.739 765.783 495.97 762.978 494.087C761.944 493.386 760.504 492.352 759.766 491.799C759.065 491.245 757.588 490.174 756.518 489.362C754.451 487.812 751.682 484.527 751.682 483.567C751.682 483.235 752.125 482.385 752.679 481.647Z" fill="#7DF0B9"/>
</svg>
