<svg width="934" height="641" viewBox="0 0 934 641" fill="none" xmlns="http://www.w3.org/2000/svg">
<path d="M686.308 137.263C686.356 137.312 686.418 137.743 686.463 138.222C686.508 138.702 686.694 139.82 686.864 140.699C687.035 141.579 687.251 142.905 687.343 143.656C687.435 144.407 687.59 145.142 687.669 145.303C687.748 145.463 687.779 145.654 687.731 145.734C687.634 145.893 688.23 147.765 688.782 148.933C688.956 149.333 689.176 149.941 689.254 150.293C689.41 150.981 689.898 152.133 690.325 152.774C690.468 152.998 690.72 153.527 690.877 153.974C691.318 155.143 693.188 157.58 693.667 157.582C693.746 157.583 693.81 157.679 693.809 157.791C693.808 158.046 698.22 162.525 698.665 162.719C699.048 162.881 699.839 164.051 699.932 164.594C700.041 165.154 699.917 167.341 699.737 168.234C699.671 168.489 699.605 168.968 699.571 169.271C699.538 169.574 699.505 169.829 699.489 169.829C699.457 169.829 699.358 170.356 699.275 170.946C699.225 171.313 698.705 173.019 698.511 173.497C698.301 173.975 698.167 175.092 698.094 176.784C697.986 179.019 697.381 181.858 696.686 183.419C696.33 184.199 696.392 184.647 696.945 185.624C697.625 186.809 698.676 187.134 699.765 186.517C700.053 186.359 700.533 186.186 700.836 186.124C702.657 185.782 704.673 184.899 706.787 183.521C707.299 183.173 707.764 182.888 707.796 182.888C707.828 182.888 708.484 182.477 709.269 181.954C710.054 181.447 711.414 180.688 712.278 180.278C713.158 179.868 714.198 179.362 714.598 179.157C715.462 178.73 716.87 178.211 717.636 178.056C718.18 177.947 720.573 177.976 721.546 178.093C722.088 178.16 724.545 178.301 728.247 178.449C730.943 178.559 731.645 178.611 734.468 178.898C736.27 179.067 736.988 179.167 739.331 179.627C741.627 180.07 742.408 180.202 743.206 180.286C743.636 180.337 744.816 180.487 745.837 180.62C747.16 180.803 748.548 180.858 750.655 180.822C753.496 180.774 753.799 180.743 754.327 180.539C754.455 180.491 754.998 180.414 755.525 180.369C756.052 180.34 756.707 180.2 756.963 180.074C758.115 179.505 759.154 179.112 759.425 179.161C759.537 179.178 759.585 179.13 759.538 179.034C759.443 178.89 760.019 178.605 760.274 178.671C760.353 178.687 760.402 178.623 760.402 178.544C760.403 178.352 761.075 178.068 761.698 177.992C761.937 177.961 762.433 177.788 762.817 177.583C763.201 177.377 763.649 177.236 763.792 177.269C763.952 177.286 764.08 177.222 764.08 177.143C764.081 177.047 764.401 176.825 764.801 176.635C765.201 176.446 765.521 176.24 765.522 176.16C765.522 176.081 765.634 176.017 765.778 176.018C765.922 176.019 766.146 175.892 766.274 175.733C766.403 175.59 766.451 175.559 766.402 175.67C766.322 175.813 766.529 175.767 766.945 175.545C767.313 175.372 767.57 175.15 767.522 175.085C767.475 175.005 767.603 174.974 767.794 175.023C768.065 175.072 768.097 175.057 767.954 174.944C767.779 174.831 767.811 174.784 768.067 174.705C768.291 174.658 768.37 174.691 768.306 174.802C768.257 174.914 768.37 174.819 768.578 174.596C768.787 174.358 768.963 174.279 768.994 174.375C769.042 174.519 769.201 174.504 769.553 174.33C769.825 174.188 770.257 174.03 770.545 173.952C770.816 173.89 771.759 173.655 772.638 173.437C774.843 172.874 775.514 172.893 784.382 173.708C785.881 173.844 788.913 173.829 790.414 173.693C792.554 173.497 793.193 173.421 794.582 173.189C795.413 173.049 796.228 172.83 796.372 172.703C796.532 172.577 796.66 172.513 796.66 172.593C796.66 172.657 796.772 172.626 796.9 172.515C797.028 172.42 797.188 172.373 797.267 172.421C797.347 172.469 797.618 172.407 797.874 172.296C798.13 172.17 798.482 172.044 798.658 172.013C798.834 171.982 799.01 171.919 799.058 171.872C799.106 171.808 799.314 171.729 799.537 171.715C799.761 171.684 799.985 171.589 800.033 171.51C800.097 171.446 800.337 171.352 800.593 171.337C801.311 171.261 801.775 171.088 801.776 170.881C801.776 170.785 801.856 170.817 801.935 170.945C802.03 171.105 802.094 171.122 802.095 170.978C802.095 170.882 802.287 170.788 802.511 170.789C802.75 170.79 803.038 170.664 803.166 170.505C803.295 170.362 803.359 170.33 803.294 170.442C803.214 170.601 803.293 170.617 803.645 170.539C804.236 170.399 804.348 170.32 804.253 170.159C804.206 170.079 804.334 169.968 804.526 169.905C804.734 169.843 804.909 169.876 804.941 169.972C804.972 170.1 805.212 170.053 805.644 169.832C805.996 169.658 806.252 169.468 806.204 169.436C806.157 169.387 805.917 169.466 805.677 169.624C805.34 169.862 805.26 169.862 805.325 169.686C805.358 169.559 805.854 169.29 806.43 169.101C807.565 168.708 807.724 168.677 807.372 168.899C807.212 169.01 807.196 169.058 807.339 169.059C807.451 169.059 807.579 168.948 807.628 168.821C807.692 168.693 807.853 168.582 807.996 168.583C808.156 168.584 808.412 168.474 808.588 168.331C808.877 168.109 808.877 168.093 808.525 168.267C807.949 168.535 807.918 168.327 808.478 168.043C809.038 167.758 809.198 167.727 809.053 167.95C809.005 168.03 809.325 167.888 809.773 167.603C810.205 167.334 810.542 167.08 810.51 167.032C810.462 167 810.238 167.11 809.982 167.269C808.813 168.077 808.83 167.901 810.016 167.013C810.496 166.649 810.897 166.395 810.896 166.443C810.896 166.491 811.04 166.46 811.216 166.365C811.392 166.27 811.489 166.111 811.441 166.015C811.362 165.903 811.41 165.887 811.521 165.968C811.633 166.032 811.872 165.954 812.065 165.763C812.258 165.572 812.482 165.43 812.577 165.43C812.657 165.415 812.754 165.272 812.755 165.08C812.772 164.889 812.853 164.697 812.933 164.634C813.189 164.46 813.786 163.329 813.707 163.169C813.643 163.089 813.756 163.026 813.931 163.027C814.123 163.028 814.267 162.949 814.267 162.869C814.268 162.677 814.863 161.802 815.232 161.437C815.457 161.215 815.667 160.817 816.022 159.956C816.103 159.765 816.362 159.176 816.604 158.65C816.846 158.124 817.105 157.551 817.169 157.376C817.25 157.2 817.525 156.547 817.8 155.942C818.074 155.321 818.48 154.109 818.708 153.232C818.952 152.356 819.31 151.064 819.522 150.363C819.733 149.661 819.961 148.768 820.027 148.369C820.093 147.971 820.176 147.476 820.209 147.253C820.242 147.029 820.308 146.678 820.341 146.455C820.374 146.232 820.473 145.641 820.587 145.131C820.85 143.855 820.935 142.722 820.996 140.311C821.035 139.162 821.112 136.687 821.186 134.803C821.3 131.435 821.171 128.799 820.885 128.59C820.662 128.445 820.522 127.742 820.667 127.551C820.908 127.249 820.961 126.355 820.754 126.274C820.642 126.226 820.547 126.065 820.564 125.906C820.565 125.746 820.521 124.963 820.462 124.181C820.402 123.382 820.344 122.312 820.331 121.785C820.318 121.258 820.226 120.666 820.115 120.474C819.878 120.042 819.879 119.898 820.101 120.027C820.276 120.14 820.185 119.277 819.934 118.509C819.871 118.285 819.699 117.694 819.542 117.198C819.401 116.702 819.181 116.206 819.069 116.109C818.942 116.013 818.895 115.821 818.928 115.709C818.977 115.582 818.821 114.926 818.585 114.239C818.349 113.551 818.114 112.735 818.036 112.431C817.974 112.127 817.881 111.696 817.834 111.472C817.694 110.849 816.588 108.751 816.444 108.846C816.38 108.893 816.316 108.813 816.317 108.653C816.318 108.51 816.144 108.221 815.906 108.013C815.684 107.804 815.557 107.627 815.605 107.628C815.876 107.629 812.151 102.994 810.77 101.629C809.897 100.762 809.183 100.008 809.183 99.9761C809.184 99.7685 808.66 99.4304 808.468 99.5092C808.34 99.5564 808.244 99.508 808.277 99.4283C808.309 99.2688 807.023 98.176 806.084 97.5481C805.798 97.3709 804.223 96.58 802.87 95.9658C802.233 95.6749 801.993 95.6896 802.502 95.9798L802.9 96.2215L802.422 96.1071C802.151 96.0577 801.657 95.8794 801.307 95.7178C800.957 95.5562 800.527 95.4102 800.351 95.4092C800.032 95.3915 800.032 95.3756 800.336 95.2654C800.624 95.1552 800.592 95.1231 800.114 94.9608C799.493 94.7339 799.078 94.7157 799.62 94.9422C799.827 95.0231 799.97 95.1357 799.922 95.1674C799.825 95.2786 798.806 94.9218 798.599 94.7131C798.488 94.6007 798.536 94.585 798.727 94.6499C798.903 94.7147 798.983 94.6992 798.919 94.6031C798.872 94.523 798.585 94.4575 798.313 94.488C797.962 94.502 797.819 94.4534 797.852 94.3098C797.868 94.1981 797.805 94.118 797.693 94.1333C797.581 94.1487 797.215 94.0349 796.865 93.8893C796.53 93.7278 796.148 93.6459 796.036 93.6932C795.908 93.7404 795.812 93.7079 795.813 93.6121C795.813 93.5163 795.718 93.4679 795.59 93.5151C795.462 93.5623 795.334 93.5297 795.287 93.4177C795.256 93.3217 794.969 93.2403 794.65 93.2545C794.33 93.2687 794.012 93.2031 793.964 93.123C793.917 93.0429 794.013 93.0275 794.172 93.0763C794.411 93.1574 794.411 93.1414 794.22 93.0127C794.061 92.8841 793.934 92.8834 793.789 93.0103C793.629 93.1372 793.581 93.105 793.582 92.9294C793.584 92.6739 792.883 92.4146 792.627 92.5729C792.531 92.6362 792.467 92.6039 792.467 92.5401C792.468 92.4123 791.926 92.3136 790.985 92.2765C790.841 92.2598 790.714 92.1952 790.714 92.1313C790.714 92.0675 790.507 92.0025 790.236 92.001C789.981 91.9996 789.471 91.8851 789.12 91.7394C788.77 91.5938 788.34 91.5117 788.164 91.5586C788.004 91.6056 787.845 91.5728 787.813 91.4928C787.766 91.3329 785.598 90.89 784.211 90.7387C783.621 90.6876 783.381 90.7182 783.38 90.846C783.379 90.9897 783.252 90.9571 782.982 90.7799C782.727 90.6189 782.584 90.5862 782.583 90.6979C782.583 90.7937 782.471 90.841 782.343 90.7924C782.216 90.7279 782.072 90.759 782.024 90.8386C781.863 91.1092 781.576 91.0118 781.689 90.741C781.77 90.5498 781.722 90.5016 781.531 90.5804C781.403 90.6276 781.243 90.6747 781.211 90.6745C781.163 90.6742 781.163 90.7381 781.21 90.8182C781.258 90.8823 781.114 90.9135 780.907 90.8645C780.683 90.8313 780.508 90.7505 780.509 90.6867C780.509 90.6228 780.27 90.5736 779.983 90.5561C779.568 90.5219 779.536 90.5536 779.791 90.6668C780.061 90.78 780.029 90.8118 779.582 90.8094C779.263 90.8236 779.088 90.7588 779.152 90.6633C779.201 90.5678 779.169 90.5037 779.089 90.5033C778.994 90.5028 778.913 90.5662 778.913 90.646C778.913 90.7099 778.737 90.7409 778.53 90.7078C778.322 90.6588 778.099 90.7055 778.05 90.801C777.986 90.8805 777.842 90.9276 777.715 90.8631C777.588 90.8145 777.476 90.8458 777.475 90.9256C777.475 91.0214 777.171 91.1795 776.787 91.2732C776.42 91.383 776.02 91.5564 775.907 91.6516C775.795 91.7468 775.475 91.8409 775.188 91.8713C774.917 91.9017 774.613 91.9959 774.533 92.0753C774.308 92.2976 773.797 92.2789 773.799 92.0394C773.799 91.9436 773.847 91.9119 773.895 91.9601C773.959 92.0083 774.134 91.9933 774.31 91.8984C774.486 91.8036 774.599 91.6924 774.551 91.6602C774.44 91.5479 770.043 93.0089 769.994 93.1843C769.962 93.264 769.786 93.3269 769.595 93.3259C769.403 93.3248 768.444 93.6549 767.484 94.0489C766.509 94.4428 765.981 94.7114 766.284 94.6651L766.843 94.5724L766.251 94.8725C765.931 95.0464 765.499 95.2197 765.275 95.2824C765.052 95.3291 764.748 95.4232 764.588 95.4862C764.396 95.549 764.348 95.5328 764.429 95.4055C764.509 95.2782 764.462 95.246 764.302 95.309C764.158 95.3561 764.046 95.4673 764.045 95.5471C764.045 95.627 763.885 95.69 763.677 95.6888C763.47 95.6877 762.894 95.9401 762.382 96.2407C761.869 96.5413 761.389 96.7942 761.325 96.7938C761.246 96.7934 761.053 96.952 760.893 97.1587C760.732 97.3654 760.235 97.73 759.771 97.967C759.307 98.2199 758.97 98.4895 759.018 98.5537C759.065 98.6338 758.985 98.6972 758.857 98.6965C758.73 98.6958 758.442 98.8539 758.233 99.0444C758.025 99.2509 757.688 99.5205 757.48 99.6471C757.272 99.7737 756.967 100.012 756.807 100.17C756.646 100.329 756.422 100.408 756.327 100.343C756.216 100.263 756.2 100.295 756.279 100.439C756.374 100.599 756.341 100.631 756.15 100.55C755.991 100.485 755.831 100.548 755.735 100.723C755.638 100.867 755.558 100.914 755.558 100.834C755.559 100.722 755.511 100.722 755.431 100.834C755.366 100.913 755.062 101.119 754.758 101.261C754.454 101.419 753.734 101.83 753.157 102.194C751.412 103.287 750.884 103.523 748.198 104.371C747.015 104.764 746.121 104.903 743.726 105.097C743.423 105.111 742.593 105.187 741.89 105.247C741.188 105.307 740.357 105.366 740.054 105.381C739.751 105.395 739.416 105.425 739.336 105.441C739.24 105.472 738.905 105.486 738.569 105.484C738.25 105.483 737.979 105.545 737.978 105.609C737.978 105.673 737.722 105.687 737.404 105.654C737.1 105.62 736.877 105.651 736.924 105.731C736.972 105.811 736.557 105.857 736.014 105.838C735.472 105.819 734.929 105.88 734.801 105.975C734.656 106.086 734.545 106.069 734.402 105.861C734.275 105.716 734.132 105.652 734.052 105.731C733.972 105.811 733.173 105.902 732.295 105.945C731.401 105.972 730.619 106.048 730.539 106.095C730.459 106.143 729.852 106.219 729.198 106.264C728.543 106.308 727.856 106.384 727.681 106.415C727.505 106.446 726.962 106.523 726.483 106.568C725.094 106.736 724.71 106.83 724.821 106.99C724.868 107.07 724.709 107.133 724.469 107.132C724.23 107.131 723.815 107.192 723.543 107.271C723.079 107.412 721.642 107.612 718.257 107.993C717.81 108.038 716.42 108.27 715.142 108.518C713.864 108.767 712.283 109.014 711.628 109.074C710.127 109.194 710.079 109.21 709.312 109.413C708.961 109.507 708.418 109.616 708.114 109.662C707.443 109.77 706.964 109.895 704.758 110.506C703.831 110.756 702.872 111.023 702.617 111.069C702.377 111.132 701.849 111.32 701.465 111.51C701.065 111.683 700.698 111.793 700.65 111.729C700.603 111.681 700.475 111.744 700.378 111.855C700.137 112.157 697.832 113.422 697.977 113.168C698.042 113.072 697.93 113.135 697.737 113.342C697.545 113.532 697.32 113.659 697.257 113.611C697.177 113.578 697.081 113.674 697.032 113.849C696.983 114.024 696.823 114.167 696.663 114.166C696.344 114.165 695.527 114.751 694.789 115.513C694.5 115.799 694.003 116.324 693.666 116.673C693.313 117.022 692.878 117.627 692.685 118.009C692.137 119.06 691.879 119.41 691.672 119.409C691.576 119.408 691.447 119.631 691.382 119.902C691.317 120.173 691.059 120.619 690.818 120.905C690.561 121.175 690.191 121.796 689.965 122.274C689.755 122.751 689.367 123.58 689.125 124.105C688.883 124.631 688.624 125.236 688.543 125.459C688.478 125.683 688.267 126.256 688.073 126.734C687.442 128.296 687.052 129.699 686.869 130.959C686.82 131.214 686.705 131.9 686.606 132.475C686.408 133.575 686.182 137.135 686.308 137.263ZM690.625 135.93C690.753 135.803 690.9 135.165 690.968 134.383C691.088 132.834 691.596 130.394 691.968 129.518C692.113 129.183 692.373 128.482 692.551 127.956C692.827 127.159 693.57 125.503 694.182 124.324C694.312 124.07 694.25 123.702 694.105 123.909C693.976 124.132 693.169 125.804 693.023 126.186C692.926 126.441 692.814 126.6 692.766 126.568C692.655 126.456 693.318 124.831 693.607 124.513C693.735 124.386 693.832 124.195 693.833 124.115C693.834 123.939 694.478 122.729 694.623 122.618C694.895 122.428 695.46 121.313 695.397 121.137C695.349 121.025 695.463 120.755 695.623 120.532C695.784 120.325 695.928 120.214 695.928 120.294C695.927 120.374 695.799 120.581 695.638 120.756C695.429 121.01 695.413 121.058 695.605 120.995C695.733 120.964 695.925 120.757 696.038 120.55C696.135 120.359 696.296 120.152 696.376 120.089C696.456 120.041 696.665 119.771 696.826 119.501C697.55 118.323 698.737 117.307 700.305 116.518C700.625 116.344 700.897 116.169 700.898 116.106C700.899 115.962 701.522 115.726 702.577 115.46C703.008 115.367 703.52 115.194 703.696 115.099C703.872 115.004 704.128 114.926 704.256 114.91C704.383 114.895 704.815 114.738 705.215 114.548C705.807 114.28 705.855 114.232 705.456 114.294C705.184 114.34 705.376 114.23 705.856 114.073C706.336 113.9 706.751 113.822 706.782 113.918C706.861 114.142 707.132 114.096 707.102 113.872C707.07 113.76 707.231 113.649 707.454 113.634C707.805 113.604 707.821 113.604 707.533 113.731C707.245 113.857 707.245 113.889 707.501 113.89C707.66 113.907 707.82 113.796 707.885 113.653C707.95 113.461 708.014 113.446 708.093 113.606C708.188 113.75 708.283 113.735 708.508 113.528C708.701 113.322 708.924 113.275 709.275 113.341C709.753 113.439 711.398 113.241 711.926 113.02C712.054 112.973 712.293 112.942 712.453 112.959C712.947 113.025 714.385 112.65 714.578 112.412C714.739 112.205 714.771 112.205 714.85 112.397C714.913 112.557 715.088 112.606 715.391 112.544L715.839 112.45L715.44 112.352C715.122 112.271 715.234 112.224 715.968 112.1C716.464 112.007 716.879 111.993 716.878 112.057C716.878 112.121 716.686 112.215 716.43 112.246C716.191 112.277 716.542 112.279 717.212 112.25C718.968 112.164 720.086 111.978 720.247 111.724C720.344 111.565 720.392 111.549 720.391 111.693C720.39 111.804 720.47 111.901 720.565 111.901C720.645 111.902 720.678 111.822 720.614 111.726C720.551 111.598 720.615 111.582 720.854 111.663C721.045 111.728 721.189 111.697 721.189 111.601C721.19 111.505 721.318 111.426 721.462 111.427C721.701 111.428 721.717 111.46 721.509 111.587C721.3 111.714 721.3 111.746 721.54 111.747C721.683 111.748 721.827 111.669 721.86 111.573C721.892 111.477 722.484 111.305 723.187 111.165C723.937 111.041 724.529 110.837 724.673 110.678C724.786 110.535 724.834 110.503 724.769 110.631C724.624 110.917 726.093 110.814 729.016 110.366C730.118 110.197 731.539 110.029 732.161 110.016C732.912 109.988 733.343 109.911 733.408 109.767C733.44 109.672 733.568 109.577 733.68 109.577C733.823 109.578 733.823 109.626 733.647 109.753C733.439 109.911 733.439 109.911 733.646 109.849C733.774 109.801 734.03 109.707 734.19 109.644C734.414 109.565 734.462 109.582 734.381 109.709C734.301 109.836 734.38 109.901 734.588 109.902C734.779 109.903 734.923 109.824 734.924 109.728C734.924 109.632 735.036 109.585 735.164 109.649C735.291 109.698 735.403 109.667 735.403 109.587C735.404 109.491 735.564 109.428 735.755 109.429C736.011 109.43 736.058 109.479 735.914 109.574C735.77 109.653 735.881 109.701 736.232 109.719C736.711 109.738 736.727 109.706 736.473 109.513C736.219 109.336 736.251 109.32 736.713 109.354C737 109.388 737.335 109.422 737.447 109.422C737.558 109.439 737.606 109.503 737.558 109.598C737.509 109.678 737.541 109.758 737.621 109.758C737.716 109.759 737.797 109.648 737.797 109.504C737.799 109.312 737.942 109.265 738.485 109.3C738.868 109.334 739.267 109.288 739.395 109.209C739.555 109.114 739.587 109.146 739.506 109.338C739.425 109.545 739.489 109.609 739.84 109.595C740.079 109.596 740.175 109.549 740.064 109.5C739.65 109.338 739.906 109.196 740.672 109.184C741.119 109.171 741.438 109.22 741.405 109.284C741.357 109.348 741.468 109.412 741.644 109.413C741.819 109.43 741.915 109.383 741.868 109.287C741.71 109.046 742.747 109.052 742.905 109.308C742.953 109.372 743.16 109.357 743.384 109.263C744.024 109.011 744.168 108.996 746.147 108.943C747.168 108.916 748.11 108.826 748.222 108.746C748.319 108.651 748.526 108.588 748.654 108.589C748.989 108.591 750.907 108.074 751.259 107.885C751.419 107.806 751.675 107.711 751.851 107.68C752.665 107.525 755.93 105.786 757.212 104.803C757.998 104.201 758.991 103.504 759.407 103.25C759.823 102.997 760.112 102.727 760.081 102.663C760.033 102.599 760.097 102.583 760.225 102.616C760.336 102.665 760.608 102.57 760.816 102.38C761.025 102.205 761.249 102.063 761.345 102.063C761.424 102.064 761.409 101.952 761.298 101.823C761.187 101.679 761.14 101.519 761.204 101.456C761.268 101.392 761.412 101.473 761.523 101.617C761.697 101.874 761.825 101.826 762.834 101.097C764.116 100.162 765.236 99.5615 767.443 98.6634C768.323 98.3009 769.075 97.9058 769.124 97.7783C769.173 97.6029 769.141 97.5868 768.948 97.7454C768.756 97.904 768.708 97.9038 768.709 97.7122C768.71 97.5844 768.774 97.5209 768.854 97.5693C768.917 97.6175 768.981 97.5859 768.982 97.4901C768.982 97.3943 769.094 97.363 769.221 97.4116C769.349 97.4761 769.461 97.4448 769.461 97.3809C769.461 97.3011 769.621 97.2221 769.813 97.2072C770.021 97.1924 770.388 97.1465 770.659 97.1C771.123 97.0068 771.123 97.0068 770.627 97.1637C770.339 97.258 770.067 97.4002 770.019 97.4798C769.971 97.5753 769.779 97.6382 769.603 97.6372C769.428 97.6362 769.331 97.7156 769.379 97.7957C769.442 97.9078 769.586 97.8926 769.81 97.782C770.002 97.6873 770.626 97.4352 771.201 97.2467C771.777 97.0582 772.752 96.6963 773.376 96.4601C774.511 96.0352 775.135 95.831 776.925 95.3298C777.5 95.1892 777.932 94.968 777.933 94.8562C777.933 94.7444 778.014 94.6491 778.109 94.6496C778.189 94.65 778.221 94.7141 778.172 94.8096C778.124 94.8892 778.155 94.9692 778.235 94.9696C778.363 94.9703 780.647 94.6155 781.446 94.4601C781.845 94.3825 786.072 94.7567 786.071 94.8685C786.071 94.9484 786.246 94.9812 786.454 94.9185C786.678 94.8718 786.997 94.9215 787.219 95.0664C787.41 95.1952 787.872 95.3094 788.223 95.3273C788.574 95.3452 788.893 95.4268 788.94 95.5228C789.004 95.603 789.163 95.6358 789.307 95.5727C789.467 95.5097 789.578 95.5582 789.578 95.67C789.577 95.7977 789.721 95.8305 789.992 95.7681C790.248 95.7056 790.359 95.7222 790.295 95.8176C790.247 95.9291 790.294 95.9453 790.438 95.8982C790.582 95.8511 790.694 95.8837 790.693 95.9635C790.693 96.0593 790.963 96.1885 791.282 96.2541C791.617 96.3198 792.86 96.7098 794.054 97.1474C795.727 97.7313 796.284 97.8621 796.429 97.7352C796.589 97.5923 796.605 97.5924 796.524 97.7357C796.46 97.8471 796.444 97.9428 796.475 97.943C796.507 97.9432 797.144 98.1702 797.877 98.4456C798.61 98.7051 799.964 99.1915 800.887 99.5159C802.99 100.246 804.724 101.149 805.423 101.888C805.502 101.984 805.867 102.273 806.217 102.547C807.075 103.19 809.392 105.566 810.264 106.704C810.66 107.218 811.167 107.859 811.389 108.148C812.641 109.655 814.504 113.434 815.004 115.449C815.191 116.2 815.52 117.368 815.723 118.071C816.57 120.838 816.893 123.139 816.984 126.876C817.138 133.871 816.891 141.023 816.362 144.517C816.245 145.379 815.787 147.436 815.675 147.595C815.626 147.675 815.561 147.914 815.528 148.09C815.511 148.281 815.332 148.967 815.137 149.62C814.942 150.274 814.714 151.135 814.616 151.534C814.518 151.932 814.388 152.315 814.308 152.41C814.228 152.49 814.163 152.697 814.162 152.856C814.161 153.016 813.869 153.893 813.513 154.769C812.365 157.589 811.865 158.608 811.351 159.18C811.158 159.403 810.869 159.769 810.708 160.023C810.257 160.755 807.576 163.631 807.353 163.63C807.305 163.629 806.681 163.977 805.976 164.405C804.711 165.18 802.759 166.159 802.504 166.158C802.424 166.158 801.784 166.41 801.065 166.709C799.033 167.576 794.253 169.131 793.391 169.206C792.96 169.252 791.922 169.358 791.092 169.449C789.607 169.617 786.223 169.646 784.947 169.512C784.596 169.478 783.655 169.393 782.842 169.325C782.028 169.256 780.529 169.104 779.492 168.987C777.036 168.718 774.052 168.702 772.742 168.934C769.899 169.478 764.894 171.351 762.268 172.869C760.219 174.056 757.131 175.524 756.092 175.79C754.878 176.118 754.622 176.165 752.977 176.427C752.019 176.582 746.321 176.631 746.083 176.502C746.019 176.454 745.477 176.371 744.855 176.303C743.802 176.202 742.591 175.988 740.072 175.479C736.852 174.823 732.258 174.383 727.312 174.292C725.03 174.248 722.732 174.155 722.206 174.105C721.68 174.054 720.643 173.968 719.909 173.916C719.159 173.864 718.218 173.763 717.804 173.697C716.943 173.549 715.169 174.05 714.192 174.716C713.887 174.922 713.567 175.048 713.488 174.999C713.408 174.951 713.344 174.998 713.344 175.094C713.343 175.19 712.783 175.506 712.095 175.806C711.423 176.106 710.751 176.421 710.623 176.501C710.495 176.596 710.095 176.817 709.743 176.991C707.246 178.334 704.892 179.775 704.315 180.346C704.154 180.505 703.946 180.632 703.834 180.631C703.723 180.631 703.498 180.773 703.338 180.948C703.177 181.123 702.985 181.265 702.905 181.265C702.826 181.264 702.506 181.422 702.169 181.628C701.016 182.34 700.985 182.324 701.102 181.287C701.236 180.186 701.48 179.341 701.671 179.342C701.751 179.342 701.782 179.47 701.733 179.614C701.652 179.869 701.668 179.869 701.829 179.614C701.942 179.439 701.991 179.152 701.945 178.928C701.914 178.705 701.946 178.593 702.042 178.657C702.137 178.722 702.17 178.594 702.123 178.323C702.077 178.099 702.11 177.907 702.189 177.908C702.285 177.908 702.318 177.797 702.255 177.669C702.207 177.541 702.24 177.429 702.32 177.429C702.416 177.43 702.48 177.287 702.481 177.127C702.482 176.951 702.563 176.76 702.643 176.713C702.739 176.649 702.771 176.538 702.724 176.458C702.661 176.377 702.773 176.314 702.948 176.315C703.219 176.317 703.284 176.221 703.286 175.822C703.287 175.551 703.353 175.216 703.434 175.056C703.514 174.913 703.612 174.498 703.646 174.163C703.68 173.812 703.826 173.414 703.97 173.255C704.131 173.096 704.26 172.793 704.261 172.586C704.262 172.362 704.327 172.155 704.391 172.107C704.471 172.06 704.537 171.725 704.555 171.374C704.573 171.007 704.639 170.64 704.687 170.56C704.864 170.274 704.902 169.124 704.745 168.724C704.635 168.388 704.651 168.325 704.811 168.389C705.129 168.503 705.051 165.309 704.706 164.109C704.346 162.846 702.92 161.034 700.982 159.379C700.41 158.896 699.886 158.399 699.823 158.287C699.743 158.174 699.632 158.126 699.536 158.173C699.456 158.237 699.392 158.204 699.393 158.14C699.393 158.061 698.806 157.387 698.076 156.632C696.791 155.284 695.522 153.792 695.491 153.616C695.476 153.441 694.875 152.431 694.637 152.175C694.288 151.805 693.894 150.893 693.771 150.19C693.708 149.87 693.566 149.598 693.455 149.597C693.263 149.596 693.121 149.276 692.965 148.573C692.934 148.413 692.715 147.741 692.495 147.069C692.008 145.582 691.368 143.039 691.246 142.033C691.184 141.617 691.074 141.329 691.01 141.377C690.93 141.424 690.866 141.392 690.867 141.296C690.867 141.216 690.931 141.105 691.012 141.057C691.076 141.01 691.078 140.595 690.985 140.131C690.907 139.668 690.847 139.044 690.849 138.757C690.866 138.47 690.819 138.262 690.755 138.309C690.691 138.341 690.662 137.878 690.697 137.255C690.733 136.505 690.703 136.169 690.591 136.249C690.351 136.391 690.368 136.184 690.625 135.93ZM690.685 133.662C690.732 133.711 690.748 133.854 690.699 133.966C690.65 134.093 690.603 134.045 690.604 133.87C690.589 133.694 690.637 133.598 690.685 133.662ZM691.357 130.377C691.388 130.489 691.387 130.68 691.355 130.776C691.306 130.887 691.275 130.807 691.276 130.584C691.277 130.36 691.31 130.281 691.357 130.377ZM691.846 128.527C692.006 128.384 692.054 128.401 692.053 128.64C692.052 128.8 691.987 128.991 691.907 129.07C691.826 129.166 691.729 129.373 691.681 129.548C691.632 129.724 691.616 129.612 691.634 129.292C691.636 128.973 691.749 128.622 691.846 128.527ZM692.38 127.141C692.477 126.902 692.589 126.743 692.621 126.791C692.669 126.839 692.603 127.11 692.474 127.413C692.2 128.018 692.137 127.81 692.38 127.141ZM713.556 112.55C713.684 112.598 713.635 112.646 713.46 112.645C713.284 112.66 713.189 112.612 713.253 112.564C713.301 112.516 713.445 112.501 713.556 112.55ZM715.155 111.92C715.283 111.968 715.235 112.016 715.059 112.015C714.884 112.03 714.788 111.982 714.852 111.934C714.9 111.886 715.044 111.871 715.155 111.92ZM718.475 111.81C718.555 111.763 718.635 111.795 718.635 111.875C718.634 111.971 718.554 112.05 718.474 112.05C718.378 112.049 718.315 112.017 718.315 111.985C718.315 111.937 718.379 111.857 718.475 111.81ZM719.305 111.783C719.433 111.831 719.385 111.879 719.209 111.878C719.033 111.893 718.938 111.844 719.002 111.797C719.05 111.749 719.194 111.734 719.305 111.783ZM740.036 108.654C740.116 108.654 740.195 108.735 740.195 108.83C740.194 108.91 740.115 108.942 740.035 108.893C739.939 108.845 739.876 108.765 739.876 108.717C739.877 108.685 739.941 108.653 740.036 108.654ZM739.93 107.711C739.945 107.743 740.072 107.904 740.183 108.064C740.373 108.304 740.373 108.336 740.134 108.239C739.991 108.191 739.88 108.03 739.881 107.887C739.882 107.759 739.898 107.679 739.93 107.711ZM749.936 107.67C750.032 107.622 750.096 107.639 750.095 107.719C750.094 107.91 749.519 108.067 748.896 108.047C748.498 108.029 748.53 107.997 749.105 107.889C749.472 107.827 749.856 107.717 749.936 107.67ZM750.847 107.387C751.262 107.31 751.262 107.326 750.974 107.532C750.637 107.769 750.19 107.831 750.319 107.608C750.367 107.528 750.607 107.434 750.847 107.387ZM752.046 107.011C752.254 106.98 752.494 106.853 752.59 106.726C752.686 106.599 752.799 106.536 752.846 106.584C752.989 106.728 753.773 106.301 753.663 106.125C753.599 106.029 753.647 106.013 753.774 106.094C753.886 106.158 754.014 106.143 754.078 106.064C754.126 105.984 754.51 105.747 754.926 105.557C755.358 105.352 755.695 105.13 755.695 105.05C755.696 104.971 755.824 104.907 755.967 104.908C756.111 104.909 756.367 104.783 756.543 104.624C756.848 104.37 756.848 104.37 756.655 104.688C756.542 104.863 756.253 105.101 755.997 105.212C755.741 105.322 755.437 105.496 755.325 105.591C754.94 105.957 754.172 106.431 753.692 106.62C753.42 106.731 752.86 106.983 752.412 107.188C751.98 107.409 751.564 107.535 751.485 107.487C751.278 107.358 751.631 107.072 752.046 107.011ZM752.657 106.088C752.737 106.04 752.817 106.073 752.817 106.153C752.816 106.248 752.736 106.328 752.656 106.327C752.56 106.327 752.497 106.295 752.497 106.263C752.497 106.215 752.561 106.135 752.657 106.088ZM755.314 104.665C755.554 104.523 755.682 104.476 755.634 104.571C755.521 104.746 754.897 105.126 754.897 105.014C754.898 104.966 755.09 104.824 755.314 104.665ZM756.195 104.111C756.291 104.112 756.306 104.176 756.258 104.271C756.21 104.351 756.081 104.43 756.002 104.429C755.906 104.429 755.89 104.349 755.939 104.269C755.987 104.174 756.115 104.111 756.195 104.111ZM757.569 103.847C757.776 103.832 757.936 103.881 757.935 103.961C757.935 104.041 757.791 104.072 757.616 104.039C757.44 104.006 757.296 104.037 757.296 104.133C757.295 104.213 757.183 104.276 757.04 104.275C756.641 104.273 757.138 103.877 757.569 103.847ZM757.3 103.319C757.38 103.319 757.46 103.351 757.46 103.383C757.459 103.431 757.379 103.511 757.299 103.558C757.203 103.606 757.139 103.573 757.14 103.493C757.14 103.398 757.205 103.318 757.3 103.319ZM757.926 102.683C758.006 102.684 758.037 102.844 757.972 103.035C757.89 103.386 757.906 103.386 758.195 103.148C758.692 102.735 758.852 102.688 758.85 102.928C758.85 103.056 758.801 103.135 758.77 103.087C758.722 103.039 758.53 103.102 758.322 103.228C758.13 103.355 757.938 103.418 757.875 103.37C757.732 103.209 757.767 102.683 757.926 102.683ZM760.503 101.276C760.647 101.277 760.566 101.372 760.342 101.499C759.814 101.799 759.559 101.798 759.959 101.497C760.12 101.37 760.375 101.276 760.503 101.276ZM760.021 101.896C760.101 101.897 760.18 101.929 760.18 101.961C760.18 102.009 760.1 102.088 760.02 102.136C759.924 102.183 759.86 102.151 759.86 102.071C759.861 101.975 759.925 101.896 760.021 101.896ZM761.783 100.629C761.863 100.629 761.942 100.709 761.942 100.805C761.941 100.885 761.862 100.916 761.782 100.868C761.687 100.82 761.623 100.739 761.623 100.692C761.624 100.66 761.688 100.628 761.783 100.629ZM764.327 99.4448C764.406 99.541 764.165 99.8431 764.006 99.8422C763.926 99.8418 763.942 99.7461 764.055 99.619C764.167 99.4918 764.295 99.4287 764.327 99.4448ZM764.983 99.2089C765.062 99.2093 765.142 99.2417 765.142 99.2736C765.142 99.3215 765.061 99.4009 764.981 99.4484C764.885 99.4957 764.822 99.4635 764.822 99.3836C764.823 99.2878 764.887 99.2083 764.983 99.2089ZM765.543 98.8925C765.687 98.7816 765.783 98.7661 765.782 98.8619C765.782 98.9417 765.67 99.0529 765.542 99.1161C765.414 99.1633 765.302 99.1787 765.302 99.1467C765.302 99.1148 765.415 99.0036 765.543 98.8925ZM766.183 98.5767C766.311 98.5774 766.422 98.6099 766.422 98.6418C766.422 98.6738 766.31 98.737 766.182 98.8002C766.054 98.8474 765.942 98.8149 765.943 98.735C765.943 98.6392 766.055 98.576 766.183 98.5767ZM768.262 97.6938C768.471 97.4873 768.503 97.4875 768.502 97.6791C768.501 97.8069 768.389 97.95 768.261 98.0131C768.133 98.0603 768.021 98.0597 768.021 98.0118C768.022 97.9639 768.134 97.8208 768.262 97.6938ZM771.796 96.5314C771.843 96.5316 771.811 96.6432 771.698 96.7704C771.586 96.8975 771.426 97.0084 771.346 97.008C771.266 97.0075 771.299 96.8959 771.443 96.769C771.571 96.6419 771.732 96.531 771.796 96.5314ZM772.211 96.374C772.1 96.3734 772.052 96.2933 772.116 96.1978C772.181 96.0704 772.261 96.0868 772.356 96.231C772.482 96.4074 772.546 96.3918 772.739 96.1533C772.868 95.9783 772.98 95.8991 772.98 95.963C772.979 96.0428 773.091 96.0115 773.219 95.9004C773.347 95.8053 773.523 95.7584 773.619 95.8227C773.698 95.8711 773.778 95.8555 773.778 95.7917C773.779 95.7118 774.051 95.6335 774.37 95.6352C775.104 95.6232 774.848 95.7815 773.505 96.2053C772.993 96.3622 772.434 96.5508 772.258 96.6137C772.002 96.6922 771.986 96.6921 772.178 96.5494C772.355 96.4226 772.371 96.3748 772.211 96.374ZM773.495 92.0697C773.591 92.0702 773.607 92.1341 773.558 92.2297C773.51 92.3092 773.382 92.3884 773.302 92.388C773.206 92.3874 773.191 92.3075 773.239 92.2279C773.288 92.1324 773.416 92.0692 773.495 92.0697ZM775.569 95.2266C775.648 95.2589 775.697 95.2113 775.697 95.1315C775.697 95.0357 775.873 94.9727 776.097 94.9899C776.623 95.0407 776.607 95.0885 775.935 95.3723C775.231 95.6559 774.976 95.6545 775.249 95.3685C775.361 95.2414 775.505 95.1783 775.569 95.2266ZM777.471 94.71C777.774 94.7116 777.774 94.7276 777.517 94.9178C777.357 95.0287 777.181 95.1236 777.101 95.1231C777.038 95.1228 777.022 95.0269 777.071 94.9154C777.103 94.8038 777.295 94.709 777.471 94.71ZM793.216 92.7996C793.534 92.993 793.438 93.0244 793.024 92.8784C792.881 92.8138 792.801 92.7335 792.849 92.7018C792.882 92.6541 793.057 92.703 793.216 92.7996ZM794.072 96.8601C794.199 96.9087 794.151 96.9563 793.975 96.9554C793.8 96.9704 793.704 96.922 793.768 96.8744C793.816 96.8268 793.96 96.8116 794.072 96.8601ZM803.728 96.5294C803.967 96.6584 803.967 96.6903 803.759 96.7052C803.488 96.7037 803.249 96.5427 803.362 96.4156C803.41 96.3839 803.569 96.4327 803.728 96.5294Z" fill="#D7C9C9"/>
</svg>
