<svg width="933" height="641" viewBox="0 0 933 641" fill="none" xmlns="http://www.w3.org/2000/svg">
<path d="M686.308 137.559C686.356 137.608 686.418 138.039 686.463 138.518C686.508 138.998 686.694 140.116 686.864 140.995C687.035 141.875 687.251 143.201 687.343 143.952C687.435 144.703 687.59 145.438 687.669 145.599C687.748 145.759 687.779 145.95 687.731 146.03C687.634 146.189 688.23 148.061 688.782 149.229C688.956 149.629 689.176 150.237 689.254 150.589C689.41 151.277 689.898 152.429 690.325 153.07C690.468 153.294 690.72 153.823 690.877 154.27C691.318 155.439 693.188 157.876 693.667 157.878C693.746 157.879 693.81 157.975 693.809 158.087C693.808 158.342 698.22 162.821 698.665 163.015C699.048 163.177 699.839 164.347 699.932 164.89C700.041 165.45 699.917 167.637 699.737 168.53C699.671 168.785 699.605 169.264 699.571 169.567C699.538 169.87 699.505 170.125 699.489 170.125C699.457 170.125 699.358 170.652 699.275 171.242C699.225 171.609 698.705 173.315 698.511 173.793C698.301 174.271 698.167 175.388 698.094 177.08C697.986 179.315 697.381 182.154 696.686 183.715C696.33 184.495 696.392 184.943 696.945 185.92C697.625 187.105 698.676 187.43 699.765 186.813C700.053 186.655 700.533 186.482 700.836 186.42C702.657 186.078 704.673 185.195 706.787 183.817C707.299 183.469 707.764 183.184 707.796 183.184C707.828 183.184 708.484 182.773 709.269 182.25C710.054 181.743 711.414 180.984 712.278 180.574C713.158 180.164 714.198 179.658 714.598 179.453C715.462 179.026 716.87 178.507 717.636 178.352C718.18 178.243 720.573 178.272 721.546 178.389C722.088 178.456 724.545 178.597 728.247 178.745C730.943 178.855 731.645 178.907 734.468 179.194C736.27 179.363 736.988 179.463 739.331 179.923C741.627 180.366 742.408 180.498 743.206 180.582C743.636 180.633 744.816 180.783 745.837 180.916C747.16 181.099 748.548 181.154 750.655 181.118C753.496 181.07 753.799 181.039 754.327 180.835C754.455 180.787 754.998 180.71 755.525 180.665C756.052 180.636 756.707 180.496 756.963 180.37C758.115 179.801 759.154 179.408 759.425 179.457C759.537 179.474 759.585 179.426 759.538 179.33C759.443 179.186 760.019 178.901 760.274 178.967C760.353 178.983 760.402 178.919 760.402 178.84C760.403 178.648 761.075 178.364 761.698 178.288C761.937 178.257 762.433 178.084 762.817 177.879C763.201 177.673 763.649 177.532 763.792 177.565C763.952 177.582 764.08 177.518 764.08 177.439C764.081 177.343 764.401 177.121 764.801 176.931C765.201 176.742 765.521 176.536 765.522 176.456C765.522 176.377 765.634 176.313 765.778 176.314C765.922 176.315 766.146 176.188 766.274 176.029C766.403 175.886 766.451 175.855 766.402 175.966C766.322 176.109 766.529 176.063 766.945 175.841C767.313 175.668 767.57 175.446 767.522 175.381C767.475 175.301 767.603 175.27 767.794 175.319C768.065 175.368 768.097 175.353 767.954 175.24C767.779 175.127 767.811 175.08 768.067 175.001C768.291 174.954 768.37 174.987 768.306 175.098C768.257 175.21 768.37 175.115 768.578 174.892C768.787 174.654 768.963 174.575 768.994 174.671C769.042 174.815 769.201 174.8 769.553 174.626C769.825 174.484 770.257 174.326 770.545 174.248C770.816 174.186 771.759 173.951 772.638 173.733C774.843 173.17 775.514 173.189 784.382 174.004C785.881 174.14 788.913 174.125 790.414 173.989C792.554 173.793 793.193 173.717 794.582 173.485C795.413 173.345 796.228 173.126 796.372 172.999C796.532 172.873 796.66 172.809 796.66 172.889C796.66 172.953 796.772 172.922 796.9 172.811C797.028 172.716 797.188 172.669 797.267 172.717C797.347 172.765 797.618 172.703 797.874 172.592C798.13 172.466 798.482 172.34 798.658 172.309C798.834 172.278 799.01 172.215 799.058 172.168C799.106 172.104 799.314 172.025 799.537 172.011C799.761 171.98 799.985 171.885 800.033 171.806C800.097 171.742 800.337 171.648 800.593 171.633C801.311 171.557 801.775 171.384 801.776 171.177C801.776 171.081 801.856 171.113 801.935 171.241C802.03 171.401 802.094 171.418 802.095 171.274C802.095 171.178 802.287 171.084 802.511 171.085C802.75 171.086 803.038 170.96 803.166 170.801C803.295 170.658 803.359 170.626 803.294 170.738C803.214 170.897 803.293 170.913 803.645 170.835C804.236 170.695 804.348 170.616 804.253 170.456C804.206 170.375 804.334 170.264 804.526 170.201C804.734 170.139 804.909 170.172 804.941 170.268C804.972 170.396 805.212 170.349 805.644 170.128C805.996 169.954 806.252 169.764 806.204 169.732C806.157 169.683 805.917 169.762 805.677 169.92C805.34 170.158 805.26 170.158 805.325 169.982C805.358 169.855 805.854 169.586 806.43 169.397C807.565 169.004 807.724 168.973 807.372 169.195C807.212 169.306 807.196 169.354 807.339 169.355C807.451 169.355 807.579 169.244 807.628 169.117C807.692 168.989 807.853 168.878 807.996 168.879C808.156 168.88 808.412 168.77 808.588 168.627C808.877 168.405 808.877 168.389 808.525 168.563C807.949 168.831 807.918 168.623 808.478 168.339C809.038 168.054 809.198 168.023 809.053 168.246C809.005 168.326 809.325 168.184 809.773 167.899C810.205 167.63 810.542 167.376 810.51 167.328C810.462 167.296 810.238 167.406 809.982 167.565C808.813 168.373 808.83 168.197 810.016 167.309C810.496 166.945 810.897 166.691 810.896 166.739C810.896 166.787 811.04 166.756 811.216 166.661C811.392 166.566 811.489 166.407 811.441 166.311C811.362 166.199 811.41 166.183 811.521 166.264C811.633 166.328 811.872 166.25 812.065 166.059C812.258 165.868 812.482 165.726 812.577 165.726C812.657 165.711 812.754 165.568 812.755 165.376C812.772 165.185 812.853 164.993 812.933 164.93C813.189 164.756 813.786 163.625 813.707 163.465C813.643 163.385 813.756 163.322 813.931 163.323C814.123 163.324 814.267 163.245 814.267 163.165C814.268 162.973 814.863 162.098 815.232 161.733C815.457 161.511 815.667 161.113 816.022 160.252C816.103 160.061 816.362 159.472 816.604 158.946C816.846 158.42 817.105 157.847 817.169 157.672C817.25 157.496 817.525 156.843 817.8 156.238C818.074 155.617 818.48 154.405 818.708 153.528C818.952 152.652 819.31 151.36 819.522 150.659C819.733 149.957 819.961 149.064 820.027 148.665C820.093 148.267 820.176 147.772 820.209 147.549C820.242 147.325 820.308 146.974 820.341 146.751C820.374 146.528 820.473 145.937 820.587 145.427C820.85 144.151 820.935 143.018 820.996 140.607C821.035 139.458 821.112 136.983 821.186 135.099C821.3 131.731 821.171 129.095 820.885 128.886C820.662 128.741 820.522 128.038 820.667 127.847C820.908 127.545 820.961 126.651 820.754 126.57C820.642 126.522 820.547 126.361 820.564 126.202C820.565 126.042 820.521 125.259 820.462 124.477C820.402 123.678 820.344 122.608 820.331 122.081C820.318 121.554 820.226 120.962 820.115 120.77C819.878 120.338 819.879 120.194 820.101 120.323C820.276 120.436 820.185 119.573 819.934 118.805C819.871 118.581 819.699 117.99 819.542 117.494C819.401 116.998 819.181 116.502 819.069 116.405C818.942 116.309 818.895 116.117 818.928 116.005C818.977 115.878 818.821 115.222 818.585 114.535C818.349 113.847 818.114 113.031 818.036 112.727C817.974 112.423 817.881 111.992 817.834 111.768C817.694 111.145 816.588 109.047 816.444 109.142C816.38 109.189 816.316 109.109 816.317 108.949C816.318 108.806 816.144 108.517 815.906 108.309C815.684 108.1 815.557 107.923 815.605 107.924C815.876 107.925 812.151 103.29 810.77 101.925C809.897 101.058 809.183 100.304 809.183 100.272C809.184 100.065 808.66 99.7264 808.468 99.8052C808.34 99.8524 808.244 99.804 808.277 99.7243C808.309 99.5648 807.023 98.472 806.084 97.8441C805.798 97.6669 804.223 96.876 802.87 96.2618C802.233 95.9709 801.993 95.9856 802.502 96.2758L802.9 96.5175L802.422 96.4031C802.151 96.3537 801.657 96.1754 801.307 96.0138C800.957 95.8522 800.527 95.7062 800.351 95.7052C800.032 95.6875 800.032 95.6716 800.336 95.5614C800.624 95.4512 800.592 95.4191 800.114 95.2568C799.493 95.0299 799.078 95.0117 799.62 95.2382C799.827 95.3192 799.97 95.4317 799.922 95.4634C799.825 95.5746 798.806 95.2178 798.599 95.0091C798.488 94.8967 798.536 94.881 798.727 94.9459C798.903 95.0107 798.983 94.9952 798.919 94.8991C798.872 94.819 798.585 94.7535 798.313 94.784C797.962 94.798 797.819 94.7494 797.852 94.6058C797.868 94.4941 797.805 94.414 797.693 94.4293C797.581 94.4447 797.215 94.3309 796.865 94.1853C796.53 94.0238 796.148 93.9419 796.036 93.9892C795.908 94.0364 795.812 94.0039 795.813 93.9081C795.813 93.8123 795.718 93.7639 795.59 93.8111C795.462 93.8583 795.334 93.8257 795.287 93.7137C795.256 93.6177 794.969 93.5363 794.65 93.5505C794.33 93.5648 794.012 93.4991 793.964 93.4191C793.917 93.339 794.013 93.3235 794.172 93.3723C794.411 93.4534 794.411 93.4374 794.22 93.3087C794.061 93.1801 793.934 93.1794 793.789 93.3063C793.629 93.4332 793.581 93.401 793.582 93.2254C793.584 92.9699 792.883 92.7106 792.627 92.8689C792.531 92.9322 792.467 92.8999 792.467 92.8361C792.468 92.7083 791.926 92.6096 790.985 92.5725C790.841 92.5558 790.714 92.4912 790.714 92.4273C790.714 92.3635 790.507 92.2985 790.236 92.297C789.981 92.2956 789.471 92.1811 789.12 92.0355C788.77 91.8898 788.34 91.8077 788.164 91.8546C788.004 91.9016 787.845 91.8688 787.813 91.7888C787.766 91.6289 785.598 91.186 784.211 91.0347C783.621 90.9836 783.381 91.0142 783.38 91.142C783.379 91.2857 783.252 91.2531 782.982 91.0759C782.727 90.9149 782.584 90.8822 782.583 90.9939C782.583 91.0897 782.471 91.137 782.343 91.0884C782.216 91.0239 782.072 91.055 782.024 91.1346C781.863 91.4052 781.576 91.3078 781.689 91.037C781.77 90.8458 781.722 90.7976 781.531 90.8764C781.403 90.9237 781.243 90.9707 781.211 90.9705C781.163 90.9703 781.163 91.0341 781.21 91.1142C781.258 91.1783 781.114 91.2095 780.907 91.1605C780.683 91.1273 780.508 91.0465 780.509 90.9827C780.509 90.9188 780.27 90.8696 779.983 90.8521C779.568 90.8179 779.536 90.8496 779.791 90.9628C780.061 91.076 780.029 91.1078 779.582 91.1054C779.263 91.1196 779.088 91.0548 779.152 90.9593C779.201 90.8638 779.169 90.7997 779.089 90.7993C778.994 90.7988 778.913 90.8622 778.913 90.942C778.913 91.0059 778.737 91.0369 778.53 91.0038C778.322 90.9548 778.099 91.0015 778.05 91.097C777.986 91.1765 777.842 91.2236 777.715 91.1591C777.588 91.1105 777.476 91.1418 777.475 91.2217C777.475 91.3175 777.171 91.4755 776.787 91.5692C776.42 91.679 776.02 91.8524 775.907 91.9476C775.795 92.0428 775.475 92.1369 775.188 92.1673C774.917 92.1977 774.613 92.2919 774.533 92.3713C774.308 92.5936 773.797 92.5749 773.799 92.3354C773.799 92.2396 773.847 92.2079 773.895 92.2561C773.959 92.3043 774.134 92.2893 774.31 92.1944C774.486 92.0996 774.599 91.9884 774.551 91.9562C774.44 91.8439 770.043 93.305 769.994 93.4803C769.962 93.56 769.786 93.6229 769.595 93.6219C769.403 93.6208 768.444 93.9509 767.484 94.3449C766.509 94.7388 765.981 95.0074 766.284 94.9611L766.843 94.8684L766.251 95.1685C765.931 95.3424 765.499 95.5157 765.275 95.5784C765.052 95.6251 764.748 95.7192 764.588 95.7822C764.396 95.8451 764.348 95.8288 764.429 95.7015C764.509 95.5742 764.462 95.542 764.302 95.605C764.158 95.6521 764.046 95.7633 764.045 95.8431C764.045 95.923 763.885 95.986 763.677 95.9849C763.47 95.9837 762.894 96.2361 762.382 96.5367C761.869 96.8373 761.389 97.0902 761.325 97.0898C761.246 97.0894 761.053 97.248 760.893 97.4547C760.732 97.6614 760.235 98.026 759.771 98.263C759.307 98.5159 758.97 98.7856 759.018 98.8497C759.065 98.9298 758.985 98.9932 758.857 98.9925C758.73 98.9918 758.442 99.1499 758.233 99.3404C758.025 99.5469 757.688 99.8165 757.48 99.9431C757.272 100.07 756.967 100.308 756.807 100.466C756.646 100.625 756.422 100.704 756.327 100.639C756.216 100.559 756.2 100.591 756.279 100.735C756.374 100.895 756.341 100.927 756.15 100.846C755.991 100.781 755.831 100.844 755.735 101.019C755.638 101.163 755.558 101.21 755.558 101.13C755.559 101.018 755.511 101.018 755.431 101.13C755.366 101.209 755.062 101.415 754.758 101.557C754.454 101.715 753.734 102.126 753.157 102.49C751.412 103.583 750.884 103.819 748.198 104.667C747.015 105.06 746.121 105.199 743.726 105.393C743.423 105.407 742.593 105.483 741.89 105.543C741.188 105.603 740.357 105.662 740.054 105.677C739.751 105.691 739.416 105.721 739.336 105.737C739.24 105.768 738.905 105.782 738.569 105.78C738.25 105.779 737.979 105.841 737.978 105.905C737.978 105.969 737.722 105.983 737.404 105.95C737.1 105.916 736.877 105.947 736.924 106.027C736.972 106.107 736.557 106.153 736.014 106.134C735.472 106.115 734.929 106.176 734.801 106.271C734.656 106.382 734.545 106.365 734.402 106.157C734.275 106.012 734.132 105.948 734.052 106.027C733.972 106.107 733.173 106.198 732.295 106.241C731.401 106.268 730.619 106.344 730.539 106.391C730.459 106.439 729.852 106.515 729.198 106.56C728.543 106.604 727.856 106.68 727.681 106.711C727.505 106.742 726.962 106.819 726.483 106.864C725.094 107.032 724.71 107.126 724.821 107.286C724.868 107.366 724.709 107.429 724.469 107.428C724.23 107.427 723.815 107.488 723.543 107.567C723.079 107.708 721.642 107.908 718.257 108.289C717.81 108.334 716.42 108.566 715.142 108.815C713.864 109.063 712.283 109.31 711.628 109.37C710.127 109.49 710.079 109.506 709.312 109.709C708.961 109.803 708.418 109.912 708.114 109.958C707.443 110.066 706.964 110.191 704.758 110.802C703.831 111.052 702.872 111.319 702.617 111.365C702.377 111.428 701.849 111.616 701.465 111.806C701.065 111.979 700.698 112.089 700.65 112.025C700.603 111.977 700.475 112.04 700.378 112.151C700.137 112.453 697.832 113.718 697.977 113.464C698.042 113.368 697.93 113.431 697.737 113.638C697.545 113.828 697.32 113.955 697.257 113.907C697.177 113.874 697.081 113.97 697.032 114.145C696.983 114.32 696.823 114.463 696.663 114.462C696.344 114.461 695.527 115.047 694.789 115.809C694.5 116.095 694.003 116.62 693.666 116.969C693.313 117.318 692.878 117.923 692.685 118.305C692.137 119.356 691.879 119.706 691.672 119.705C691.576 119.704 691.447 119.927 691.382 120.198C691.317 120.469 691.059 120.915 690.818 121.201C690.561 121.471 690.191 122.092 689.965 122.57C689.755 123.047 689.367 123.876 689.125 124.401C688.883 124.927 688.624 125.532 688.543 125.755C688.478 125.979 688.267 126.552 688.073 127.03C687.442 128.592 687.052 129.995 686.869 131.255C686.82 131.51 686.705 132.196 686.606 132.771C686.408 133.871 686.182 137.431 686.308 137.559ZM690.625 136.226C690.753 136.099 690.9 135.461 690.968 134.679C691.088 133.13 691.596 130.69 691.968 129.814C692.113 129.479 692.373 128.778 692.551 128.252C692.827 127.455 693.57 125.799 694.182 124.62C694.312 124.366 694.25 123.998 694.105 124.205C693.976 124.428 693.169 126.1 693.023 126.482C692.926 126.737 692.814 126.896 692.766 126.864C692.655 126.752 693.318 125.127 693.607 124.809C693.735 124.682 693.832 124.491 693.833 124.411C693.834 124.235 694.478 123.025 694.623 122.914C694.895 122.724 695.46 121.609 695.397 121.433C695.349 121.321 695.463 121.051 695.623 120.828C695.784 120.621 695.928 120.51 695.928 120.59C695.927 120.67 695.799 120.877 695.638 121.052C695.429 121.306 695.413 121.354 695.605 121.291C695.733 121.26 695.925 121.053 696.038 120.846C696.135 120.655 696.296 120.448 696.376 120.385C696.456 120.337 696.665 120.067 696.826 119.797C697.55 118.619 698.737 117.603 700.305 116.814C700.625 116.64 700.897 116.465 700.898 116.402C700.899 116.258 701.522 116.022 702.577 115.756C703.008 115.663 703.52 115.49 703.696 115.395C703.872 115.3 704.128 115.222 704.256 115.206C704.383 115.191 704.815 115.034 705.215 114.844C705.807 114.576 705.855 114.528 705.456 114.59C705.184 114.636 705.376 114.526 705.856 114.369C706.336 114.196 706.751 114.118 706.782 114.214C706.861 114.438 707.132 114.392 707.102 114.168C707.07 114.056 707.231 113.945 707.454 113.93C707.805 113.9 707.821 113.9 707.533 114.027C707.245 114.153 707.245 114.185 707.501 114.186C707.66 114.203 707.82 114.092 707.885 113.949C707.95 113.757 708.014 113.742 708.093 113.902C708.188 114.046 708.283 114.031 708.508 113.824C708.701 113.618 708.924 113.571 709.275 113.637C709.753 113.735 711.398 113.537 711.926 113.316C712.054 113.269 712.293 113.238 712.453 113.255C712.947 113.321 714.385 112.946 714.578 112.708C714.739 112.501 714.771 112.501 714.85 112.693C714.913 112.853 715.088 112.902 715.391 112.84L715.839 112.746L715.44 112.648C715.122 112.567 715.234 112.52 715.968 112.396C716.464 112.303 716.879 112.289 716.878 112.353C716.878 112.417 716.686 112.511 716.43 112.542C716.191 112.573 716.542 112.575 717.212 112.546C718.968 112.46 720.086 112.274 720.247 112.02C720.344 111.861 720.392 111.845 720.391 111.989C720.39 112.1 720.47 112.197 720.565 112.197C720.645 112.198 720.678 112.118 720.614 112.022C720.551 111.894 720.615 111.878 720.854 111.959C721.045 112.024 721.189 111.993 721.189 111.897C721.19 111.801 721.318 111.722 721.462 111.723C721.701 111.724 721.717 111.756 721.509 111.883C721.3 112.01 721.3 112.042 721.54 112.043C721.683 112.044 721.827 111.965 721.86 111.869C721.892 111.773 722.484 111.601 723.187 111.461C723.937 111.337 724.529 111.133 724.673 110.974C724.786 110.831 724.834 110.799 724.769 110.927C724.624 111.213 726.093 111.11 729.016 110.662C730.118 110.493 731.539 110.325 732.161 110.312C732.912 110.284 733.343 110.207 733.408 110.063C733.44 109.968 733.568 109.873 733.68 109.873C733.823 109.874 733.823 109.922 733.647 110.049C733.439 110.207 733.439 110.207 733.646 110.145C733.774 110.097 734.03 110.003 734.19 109.94C734.414 109.861 734.462 109.878 734.381 110.005C734.301 110.132 734.38 110.197 734.588 110.198C734.779 110.199 734.923 110.12 734.924 110.024C734.924 109.928 735.036 109.881 735.164 109.945C735.291 109.994 735.403 109.963 735.403 109.883C735.404 109.787 735.564 109.724 735.755 109.725C736.011 109.726 736.058 109.775 735.914 109.87C735.77 109.949 735.881 109.997 736.232 110.015C736.711 110.034 736.727 110.002 736.473 109.809C736.219 109.632 736.251 109.616 736.713 109.65C737 109.684 737.335 109.718 737.447 109.718C737.558 109.735 737.606 109.799 737.558 109.894C737.509 109.974 737.541 110.054 737.621 110.054C737.716 110.055 737.797 109.944 737.797 109.8C737.799 109.608 737.942 109.561 738.485 109.596C738.868 109.63 739.267 109.584 739.395 109.505C739.555 109.41 739.587 109.442 739.506 109.634C739.425 109.841 739.489 109.905 739.84 109.891C740.079 109.892 740.175 109.845 740.064 109.796C739.65 109.634 739.906 109.492 740.672 109.48C741.119 109.467 741.438 109.516 741.405 109.58C741.357 109.644 741.468 109.708 741.644 109.709C741.819 109.726 741.915 109.679 741.868 109.583C741.71 109.342 742.747 109.348 742.905 109.604C742.953 109.668 743.16 109.653 743.384 109.559C744.024 109.307 744.168 109.292 746.147 109.239C747.168 109.212 748.11 109.122 748.222 109.042C748.319 108.947 748.526 108.884 748.654 108.885C748.989 108.887 750.907 108.37 751.259 108.181C751.419 108.102 751.675 108.007 751.851 107.976C752.665 107.821 755.93 106.082 757.212 105.099C757.998 104.497 758.991 103.8 759.407 103.546C759.823 103.293 760.112 103.023 760.081 102.959C760.033 102.895 760.097 102.879 760.225 102.912C760.336 102.961 760.608 102.866 760.816 102.676C761.025 102.501 761.249 102.359 761.345 102.359C761.424 102.36 761.409 102.248 761.298 102.119C761.187 101.975 761.14 101.815 761.204 101.752C761.268 101.688 761.412 101.769 761.523 101.913C761.697 102.17 761.825 102.122 762.834 101.393C764.116 100.458 765.236 99.8575 767.443 98.9594C768.323 98.5969 769.075 98.2018 769.124 98.0743C769.173 97.8989 769.141 97.8828 768.948 98.0414C768.756 98.2001 768.708 98.1998 768.709 98.0082C768.71 97.8804 768.774 97.8169 768.854 97.8653C768.917 97.9135 768.981 97.8819 768.982 97.7861C768.982 97.6903 769.094 97.659 769.221 97.7076C769.349 97.7721 769.461 97.7408 769.461 97.6769C769.461 97.5971 769.621 97.5181 769.813 97.5032C770.021 97.4884 770.388 97.4425 770.659 97.396C771.123 97.3028 771.123 97.3028 770.627 97.4597C770.339 97.554 770.067 97.6962 770.019 97.7758C769.971 97.8713 769.779 97.9342 769.603 97.9332C769.428 97.9323 769.331 98.0116 769.379 98.0917C769.442 98.2038 769.586 98.1886 769.81 98.078C770.002 97.9833 770.626 97.7312 771.201 97.5427C771.777 97.3542 772.752 96.9923 773.376 96.7561C774.511 96.3312 775.135 96.127 776.925 95.6258C777.5 95.4852 777.932 95.264 777.933 95.1522C777.933 95.0404 778.014 94.9451 778.109 94.9456C778.189 94.946 778.221 95.0101 778.172 95.1056C778.124 95.1852 778.155 95.2652 778.235 95.2656C778.363 95.2663 780.647 94.9115 781.446 94.7561C781.845 94.6785 786.072 95.0528 786.071 95.1645C786.071 95.2444 786.246 95.2772 786.454 95.2145C786.678 95.1678 786.997 95.2175 787.219 95.3624C787.41 95.4912 787.872 95.6054 788.223 95.6233C788.574 95.6412 788.893 95.7228 788.94 95.8188C789.004 95.899 789.163 95.9318 789.307 95.8687C789.467 95.8057 789.578 95.8542 789.578 95.966C789.577 96.0937 789.721 96.1265 789.992 96.0641C790.248 96.0016 790.359 96.0182 790.295 96.1136C790.247 96.2251 790.294 96.2414 790.438 96.1942C790.582 96.1471 790.694 96.1797 790.693 96.2595C790.693 96.3553 790.963 96.4845 791.282 96.5501C791.617 96.6158 792.86 97.0058 794.054 97.4434C795.727 98.0273 796.284 98.1581 796.429 98.0312C796.589 97.8883 796.605 97.8884 796.524 98.0317C796.46 98.1431 796.444 98.2388 796.475 98.239C796.507 98.2392 797.144 98.4662 797.877 98.7416C798.61 99.0011 799.964 99.4875 800.887 99.8119C802.99 100.542 804.724 101.445 805.423 102.184C805.502 102.28 805.867 102.569 806.217 102.843C807.075 103.486 809.392 105.862 810.264 107C810.66 107.514 811.167 108.155 811.389 108.444C812.641 109.951 814.504 113.73 815.004 115.745C815.191 116.496 815.52 117.664 815.723 118.367C816.57 121.134 816.893 123.435 816.984 127.172C817.138 134.167 816.891 141.319 816.362 144.813C816.245 145.675 815.787 147.732 815.675 147.891C815.626 147.971 815.561 148.21 815.528 148.386C815.511 148.577 815.332 149.263 815.137 149.916C814.942 150.57 814.714 151.431 814.616 151.83C814.518 152.228 814.388 152.611 814.308 152.706C814.228 152.786 814.163 152.993 814.162 153.152C814.161 153.312 813.869 154.189 813.513 155.065C812.365 157.885 811.865 158.904 811.351 159.476C811.158 159.699 810.869 160.065 810.708 160.319C810.257 161.051 807.576 163.927 807.353 163.926C807.305 163.925 806.681 164.273 805.976 164.701C804.711 165.476 802.759 166.455 802.504 166.454C802.424 166.454 801.784 166.706 801.065 167.005C799.033 167.872 794.253 169.427 793.391 169.502C792.96 169.548 791.922 169.654 791.092 169.745C789.607 169.913 786.223 169.942 784.947 169.808C784.596 169.774 783.655 169.689 782.842 169.621C782.028 169.552 780.529 169.4 779.492 169.283C777.036 169.014 774.052 168.998 772.742 169.23C769.899 169.774 764.894 171.647 762.268 173.165C760.219 174.352 757.131 175.82 756.092 176.086C754.878 176.414 754.622 176.461 752.977 176.723C752.019 176.878 746.321 176.927 746.083 176.798C746.019 176.75 745.477 176.667 744.855 176.599C743.802 176.498 742.591 176.284 740.072 175.775C736.852 175.119 732.258 174.679 727.312 174.588C725.03 174.544 722.732 174.451 722.206 174.401C721.68 174.35 720.643 174.264 719.909 174.212C719.159 174.16 718.218 174.059 717.804 173.993C716.943 173.845 715.169 174.346 714.192 175.012C713.887 175.218 713.567 175.344 713.488 175.295C713.408 175.247 713.344 175.294 713.344 175.39C713.343 175.486 712.783 175.802 712.095 176.102C711.423 176.402 710.751 176.717 710.623 176.797C710.495 176.892 710.095 177.113 709.743 177.287C707.246 178.63 704.892 180.071 704.315 180.642C704.154 180.801 703.946 180.928 703.834 180.927C703.723 180.927 703.498 181.069 703.338 181.244C703.177 181.419 702.985 181.561 702.905 181.561C702.826 181.56 702.506 181.718 702.169 181.924C701.016 182.636 700.985 182.62 701.102 181.583C701.236 180.482 701.48 179.637 701.671 179.638C701.751 179.638 701.782 179.766 701.733 179.91C701.652 180.165 701.668 180.165 701.829 179.91C701.942 179.735 701.991 179.448 701.945 179.224C701.914 179.001 701.946 178.889 702.042 178.953C702.137 179.018 702.17 178.89 702.123 178.619C702.077 178.395 702.11 178.203 702.189 178.204C702.285 178.204 702.318 178.093 702.255 177.965C702.207 177.837 702.24 177.725 702.32 177.725C702.416 177.726 702.48 177.583 702.481 177.423C702.482 177.247 702.563 177.056 702.643 177.009C702.739 176.945 702.771 176.834 702.724 176.754C702.661 176.673 702.773 176.61 702.948 176.611C703.219 176.613 703.284 176.517 703.286 176.118C703.287 175.847 703.353 175.512 703.434 175.352C703.514 175.209 703.612 174.794 703.646 174.459C703.68 174.108 703.826 173.71 703.97 173.551C704.131 173.392 704.26 173.089 704.261 172.882C704.262 172.658 704.327 172.451 704.391 172.403C704.471 172.356 704.537 172.021 704.555 171.67C704.573 171.303 704.639 170.936 704.687 170.856C704.864 170.57 704.902 169.42 704.745 169.02C704.635 168.684 704.651 168.621 704.811 168.685C705.129 168.799 705.051 165.605 704.706 164.405C704.346 163.142 702.92 161.33 700.982 159.675C700.41 159.192 699.886 158.695 699.823 158.583C699.743 158.47 699.632 158.422 699.536 158.469C699.456 158.533 699.392 158.5 699.393 158.436C699.393 158.357 698.806 157.683 698.076 156.928C696.791 155.58 695.522 154.088 695.491 153.912C695.476 153.737 694.875 152.727 694.637 152.471C694.288 152.101 693.894 151.189 693.771 150.486C693.708 150.166 693.566 149.894 693.455 149.893C693.263 149.892 693.121 149.572 692.965 148.869C692.934 148.709 692.715 148.037 692.495 147.365C692.008 145.878 691.368 143.335 691.246 142.329C691.184 141.913 691.074 141.625 691.01 141.673C690.93 141.72 690.866 141.688 690.867 141.592C690.867 141.512 690.931 141.401 691.012 141.353C691.076 141.306 691.078 140.891 690.985 140.427C690.907 139.964 690.847 139.34 690.849 139.053C690.866 138.766 690.819 138.558 690.755 138.605C690.691 138.637 690.662 138.174 690.697 137.551C690.733 136.801 690.703 136.465 690.591 136.545C690.351 136.687 690.368 136.48 690.625 136.226ZM690.685 133.958C690.732 134.007 690.748 134.15 690.699 134.262C690.65 134.389 690.603 134.341 690.604 134.166C690.589 133.99 690.637 133.894 690.685 133.958ZM691.357 130.673C691.388 130.785 691.387 130.976 691.355 131.072C691.306 131.183 691.275 131.103 691.276 130.88C691.277 130.656 691.31 130.577 691.357 130.673ZM691.846 128.823C692.006 128.68 692.054 128.697 692.053 128.936C692.052 129.096 691.987 129.287 691.907 129.366C691.826 129.462 691.729 129.669 691.681 129.844C691.632 130.02 691.616 129.908 691.634 129.588C691.636 129.269 691.749 128.918 691.846 128.823ZM692.38 127.437C692.477 127.198 692.589 127.039 692.621 127.087C692.669 127.135 692.603 127.406 692.474 127.709C692.2 128.314 692.137 128.106 692.38 127.437ZM713.556 112.846C713.684 112.894 713.635 112.942 713.46 112.941C713.284 112.956 713.189 112.908 713.253 112.86C713.301 112.812 713.445 112.797 713.556 112.846ZM715.155 112.216C715.283 112.264 715.235 112.312 715.059 112.311C714.884 112.326 714.788 112.278 714.852 112.23C714.9 112.182 715.044 112.167 715.155 112.216ZM718.475 112.106C718.555 112.059 718.635 112.091 718.635 112.171C718.634 112.267 718.554 112.346 718.474 112.346C718.378 112.345 718.315 112.313 718.315 112.281C718.315 112.233 718.379 112.153 718.475 112.106ZM719.305 112.079C719.433 112.127 719.385 112.175 719.209 112.174C719.033 112.189 718.938 112.14 719.002 112.093C719.05 112.045 719.194 112.03 719.305 112.079ZM740.036 108.95C740.116 108.95 740.195 109.031 740.195 109.126C740.194 109.206 740.115 109.238 740.035 109.189C739.939 109.141 739.876 109.061 739.876 109.013C739.877 108.981 739.941 108.949 740.036 108.95ZM739.93 108.007C739.945 108.039 740.072 108.2 740.183 108.36C740.373 108.6 740.373 108.632 740.134 108.535C739.991 108.487 739.88 108.326 739.881 108.183C739.882 108.055 739.898 107.975 739.93 108.007ZM749.936 107.966C750.032 107.918 750.096 107.935 750.095 108.015C750.094 108.206 749.519 108.363 748.896 108.343C748.498 108.325 748.53 108.293 749.105 108.185C749.472 108.123 749.856 108.013 749.936 107.966ZM750.847 107.683C751.262 107.606 751.262 107.622 750.974 107.828C750.637 108.065 750.19 108.127 750.319 107.904C750.367 107.824 750.607 107.73 750.847 107.683ZM752.046 107.307C752.254 107.276 752.494 107.149 752.59 107.022C752.686 106.895 752.799 106.832 752.846 106.88C752.989 107.024 753.773 106.597 753.663 106.421C753.599 106.325 753.647 106.309 753.774 106.39C753.886 106.454 754.014 106.439 754.078 106.36C754.126 106.28 754.51 106.043 754.926 105.853C755.358 105.648 755.695 105.426 755.695 105.346C755.696 105.267 755.824 105.203 755.967 105.204C756.111 105.205 756.367 105.079 756.543 104.92C756.848 104.666 756.848 104.666 756.655 104.984C756.542 105.159 756.253 105.397 755.997 105.508C755.741 105.618 755.437 105.792 755.325 105.887C754.94 106.253 754.172 106.727 753.692 106.916C753.42 107.027 752.86 107.279 752.412 107.484C751.98 107.705 751.564 107.831 751.485 107.783C751.278 107.654 751.631 107.368 752.046 107.307ZM752.657 106.384C752.737 106.336 752.817 106.369 752.817 106.449C752.816 106.544 752.736 106.624 752.656 106.623C752.56 106.623 752.497 106.591 752.497 106.559C752.497 106.511 752.561 106.431 752.657 106.384ZM755.314 104.961C755.554 104.819 755.682 104.772 755.634 104.867C755.521 105.042 754.897 105.422 754.897 105.31C754.898 105.262 755.09 105.12 755.314 104.961ZM756.195 104.407C756.291 104.408 756.306 104.472 756.258 104.567C756.21 104.647 756.081 104.726 756.002 104.725C755.906 104.725 755.89 104.645 755.939 104.565C755.987 104.47 756.115 104.407 756.195 104.407ZM757.569 104.143C757.776 104.128 757.936 104.177 757.935 104.257C757.935 104.337 757.791 104.368 757.616 104.335C757.44 104.302 757.296 104.333 757.296 104.429C757.295 104.509 757.183 104.572 757.04 104.571C756.641 104.569 757.138 104.173 757.569 104.143ZM757.3 103.615C757.38 103.615 757.46 103.648 757.46 103.679C757.459 103.727 757.379 103.807 757.299 103.854C757.203 103.902 757.139 103.869 757.14 103.789C757.14 103.694 757.205 103.614 757.3 103.615ZM757.926 102.979C758.006 102.98 758.037 103.14 757.972 103.331C757.89 103.682 757.906 103.682 758.195 103.444C758.692 103.031 758.852 102.984 758.85 103.224C758.85 103.352 758.801 103.431 758.77 103.383C758.722 103.335 758.53 103.398 758.322 103.524C758.13 103.651 757.938 103.714 757.875 103.666C757.732 103.505 757.767 102.979 757.926 102.979ZM760.503 101.572C760.647 101.573 760.566 101.668 760.342 101.795C759.814 102.095 759.559 102.094 759.959 101.793C760.12 101.666 760.375 101.572 760.503 101.572ZM760.021 102.192C760.101 102.193 760.18 102.225 760.18 102.257C760.18 102.305 760.1 102.384 760.02 102.432C759.924 102.479 759.86 102.447 759.86 102.367C759.861 102.271 759.925 102.192 760.021 102.192ZM761.783 100.925C761.863 100.925 761.942 101.005 761.942 101.101C761.941 101.181 761.862 101.212 761.782 101.164C761.687 101.116 761.623 101.035 761.623 100.988C761.624 100.956 761.688 100.924 761.783 100.925ZM764.327 99.7408C764.406 99.837 764.165 100.139 764.006 100.138C763.926 100.138 763.942 100.042 764.055 99.915C764.167 99.7878 764.295 99.7247 764.327 99.7408ZM764.983 99.5049C765.062 99.5053 765.142 99.5377 765.142 99.5696C765.142 99.6175 765.061 99.6969 764.981 99.7444C764.885 99.7917 764.822 99.7595 764.822 99.6796C764.823 99.5838 764.887 99.5043 764.983 99.5049ZM765.543 99.1885C765.687 99.0776 765.783 99.0621 765.782 99.1579C765.782 99.2378 765.67 99.3489 765.542 99.4121C765.414 99.4593 765.302 99.4747 765.302 99.4427C765.302 99.4108 765.415 99.2996 765.543 99.1885ZM766.183 98.8727C766.311 98.8734 766.422 98.9059 766.422 98.9378C766.422 98.9698 766.31 99.033 766.182 99.0962C766.054 99.1434 765.942 99.1109 765.943 99.031C765.943 98.9352 766.055 98.872 766.183 98.8727ZM768.262 97.9898C768.471 97.7833 768.503 97.7835 768.502 97.9751C768.501 98.1029 768.389 98.246 768.261 98.3091C768.133 98.3563 768.021 98.3557 768.021 98.3078C768.022 98.2599 768.134 98.1168 768.262 97.9898ZM771.796 96.8274C771.843 96.8276 771.811 96.9392 771.698 97.0664C771.586 97.1935 771.426 97.3044 771.346 97.304C771.266 97.3035 771.299 97.1919 771.443 97.065C771.571 96.9379 771.732 96.827 771.796 96.8274ZM772.211 96.67C772.1 96.6694 772.052 96.5893 772.116 96.4938C772.181 96.3664 772.261 96.3828 772.356 96.527C772.482 96.7034 772.546 96.6878 772.739 96.4493C772.868 96.2743 772.98 96.1951 772.98 96.259C772.979 96.3388 773.091 96.3075 773.219 96.1964C773.347 96.1013 773.523 96.0544 773.619 96.1187C773.698 96.1671 773.778 96.1515 773.778 96.0877C773.779 96.0078 774.051 95.9295 774.37 95.9312C775.104 95.9192 774.848 96.0775 773.505 96.5014C772.993 96.6583 772.434 96.8468 772.258 96.9097C772.002 96.9882 771.986 96.9881 772.178 96.8454C772.355 96.7186 772.371 96.6708 772.211 96.67ZM773.495 92.3657C773.591 92.3662 773.607 92.4301 773.558 92.5257C773.51 92.6053 773.382 92.6844 773.302 92.684C773.206 92.6834 773.191 92.6035 773.239 92.5239C773.288 92.4284 773.416 92.3652 773.495 92.3657ZM775.569 95.5226C775.648 95.5549 775.697 95.5073 775.697 95.4275C775.697 95.3317 775.873 95.2687 776.097 95.2859C776.623 95.3367 776.607 95.3845 775.935 95.6683C775.231 95.9519 774.976 95.9505 775.249 95.6645C775.361 95.5374 775.505 95.4743 775.569 95.5226ZM777.471 95.006C777.774 95.0076 777.774 95.0236 777.517 95.2138C777.357 95.3247 777.181 95.4196 777.101 95.4191C777.038 95.4188 777.022 95.3229 777.071 95.2114C777.103 95.0998 777.295 95.005 777.471 95.006ZM793.216 93.0956C793.534 93.289 793.438 93.3204 793.024 93.1744C792.881 93.1098 792.801 93.0295 792.849 92.9978C792.882 92.9501 793.057 92.999 793.216 93.0956ZM794.072 97.1561C794.199 97.2047 794.151 97.2523 793.975 97.2514C793.8 97.2664 793.704 97.218 793.768 97.1704C793.816 97.1228 793.96 97.1076 794.072 97.1561ZM803.728 96.8254C803.967 96.9544 803.967 96.9863 803.759 97.0012C803.488 96.9997 803.249 96.8387 803.362 96.7116C803.41 96.6799 803.569 96.7287 803.728 96.8254Z" fill="#202020"/>
</svg>
