<svg width="193" height="180" viewBox="0 0 193 180" fill="none" xmlns="http://www.w3.org/2000/svg">
<path d="M34.0001 85C37.7211 61.4144 41.9499 10.1083 134.539 7.29533C131.746 5.86177 130.84 5.53351 136.193 7.25049C135.638 7.26372 135.087 7.27867 134.539 7.29533C137.847 8.99314 143.803 12.2413 145.142 15.4784L185.823 121.791C187.258 126.087 188.317 135.568 181.071 139.127C176.614 143.307 158.053 145.428 149 129L39.9145 172.453C30.0047 170.683 9.312 160.664 5.81943 134.743C2.51772 121.416 1.57873 97.1254 34.0001 85Z" fill="#2042AD"/>
<path d="M0.371481 124.412C0.465769 127.439 0.744224 130.542 0.961888 131.244C1.6159 133.167 2.47635 137.86 2.46692 139.595C2.4625 140.407 2.71547 141.405 3.00858 141.813C3.30189 142.184 3.55666 142.85 3.55445 143.256C3.55205 143.699 3.7338 144.216 3.9908 144.476C4.2478 144.736 4.32062 144.921 4.17296 144.92C4.0253 144.919 4.24359 145.511 4.64582 146.215C5.04786 146.955 5.37607 147.695 5.37507 147.88C5.37387 148.101 5.95685 149.507 6.6498 151.061C7.34293 152.579 7.92591 153.985 7.92511 154.132C7.92431 154.28 8.72879 155.687 9.75396 157.243C10.7422 158.799 11.5836 160.206 11.5826 160.391C11.5802 160.834 15.6754 168.055 16.007 168.167C16.1912 168.242 16.3376 168.464 16.3366 168.649C16.3342 169.092 18.9417 171.579 19.4215 171.582C19.6061 171.583 20.3053 171.993 20.93 172.513C22.8784 174 25.8265 174.939 29.8481 175.33C33.1317 175.68 34.1285 175.649 37.602 175.003C41.7777 174.214 43.5887 173.817 46.0295 173.019C48.0633 172.365 49.6528 171.968 50.0216 172.044C50.3165 172.119 52.9797 171.137 55.6439 169.97C56.4581 169.605 57.7898 169.096 58.6031 168.879C61.1915 168.081 64.8193 166.218 67.3021 164.459C68.6363 163.507 70.0442 162.555 70.4515 162.335C71.5988 161.788 79.8083 159.138 82.0998 158.633C83.2086 158.381 84.4661 157.945 84.8734 157.725C85.2808 157.469 86.0948 157.141 86.6491 157.034C87.2405 156.889 89.9047 155.722 92.6434 154.445C95.3453 153.131 97.6767 152.073 97.8613 152.074C98.0089 152.075 98.4162 151.856 98.7131 151.562C99.455 150.902 104.782 148.9 106.518 148.577C107.22 148.471 108.144 148.254 108.551 148.072C110.105 147.453 112.657 146.544 113.175 146.436C113.766 146.291 117.948 144.357 119.466 143.517C119.985 143.224 120.761 142.97 121.167 142.972C121.61 142.975 122.35 142.683 122.832 142.317C123.314 141.95 124.055 141.511 124.461 141.366C126.496 140.639 133.6 137.65 135.376 136.774C136.487 136.226 138.04 135.681 138.779 135.537C139.555 135.394 140.184 135.176 140.185 135.028C140.186 134.881 141.185 134.443 142.405 134.117C143.625 133.755 144.698 133.318 144.809 133.134C144.921 132.95 145.254 132.878 145.512 132.99C145.806 133.102 146.139 133.03 146.251 132.809C146.4 132.589 146.695 132.516 146.99 132.629C147.248 132.741 147.876 132.634 148.394 132.452C149.356 132.088 150.902 132.761 150.898 133.573C150.897 133.794 152.108 135.167 153.539 136.651C155.595 138.73 156.956 139.697 159.349 140.854C162.699 142.497 163.658 142.723 168.565 143.193C172.402 143.546 176.354 143.198 177.576 142.393C178.095 142.064 178.761 141.809 179.093 141.811C179.388 141.812 179.648 141.629 179.649 141.371C179.65 141.149 179.762 141.039 179.872 141.187C180.276 141.559 184.201 139.402 185.463 138.08C189.064 134.371 190.087 122.711 187.273 117.38C186.945 116.751 186.616 116.122 186.616 116.011C186.58 115.9 186.471 115.567 186.325 115.271C185.743 113.754 185.094 110.798 184.776 108.212C184.705 107.658 184.306 106.364 183.906 105.291C183.506 104.255 183.001 102.111 182.787 100.56C182.574 99.045 182.032 97.0118 181.557 96.0863C180.352 93.6803 179.696 92.0524 179.042 90.0555C178.715 89.0939 178.315 87.9843 178.133 87.6511C177.146 85.7999 175.872 82.3968 175.185 79.846C174.75 78.2932 174.279 76.6663 174.097 76.2593C173.951 75.8524 173.442 74.4469 172.97 73.1154C172.534 71.7841 172.061 70.5264 171.914 70.341C171.768 70.1187 171.368 69.0091 171.005 67.8628C170.497 66.2358 170.168 65.6802 169.357 65.3436C167.847 64.7078 167.298 63.9296 166.793 61.6382C166.541 60.5293 165.996 58.9759 165.631 58.2357C165.229 57.4583 164.864 56.6441 164.829 56.3855C164.756 56.1267 164.538 55.498 164.356 54.9802C164.138 54.4622 163.848 53.4639 163.704 52.7618C163.56 52.0596 163.197 50.9871 162.905 50.3948C162.174 48.9881 160.647 44.7346 158.431 38.004C157.451 35.0824 156.323 31.9754 155.922 31.1242C155.521 30.236 155.084 28.9785 154.977 28.2766C154.87 27.6115 154.615 26.9826 154.468 26.871C154.284 26.7593 154.029 26.1303 153.885 25.4651C153.741 24.7998 153.414 23.8014 153.122 23.246C152.83 22.6907 152.613 21.8774 152.615 21.3975C152.618 20.9546 152.472 20.5846 152.288 20.5836C151.918 20.5816 151.481 19.4718 150.431 15.7746C149.67 13.1126 147.003 8.00379 146.413 8.00058C146.228 7.99958 145.235 7.25589 144.207 6.36432C143.141 5.43565 141.449 4.42974 140.417 4.0919C139.348 3.75385 138.317 3.30528 138.133 3.15662C137.913 2.97084 136.733 2.70602 135.552 2.58885C134.335 2.47149 132.823 2.20486 132.233 2.01708C130.611 1.52837 119.869 1.58071 115.621 2.11133C112.518 2.4636 105.57 3.97626 103.609 4.70389C103.313 4.81303 102.87 4.95828 102.685 4.99419C97.9537 6.07592 84.048 10.7993 79.7921 12.7695C78.9778 13.1712 77.5716 13.7911 76.6839 14.1185C75.8328 14.483 75.1293 14.8852 75.1285 15.0329C75.1277 15.1805 74.8314 15.3635 74.4614 15.5092C74.1286 15.6181 73.3141 16.0567 72.7214 16.4226C72.0917 16.8252 71.0918 17.4104 70.4255 17.739C69.7593 18.0676 69.0551 18.5806 68.7951 18.8745C68.572 19.1686 68.2017 19.3881 67.9802 19.3869C67.7956 19.3859 67.3511 19.6788 67.017 20.0092C65.7174 21.4049 61.0821 25.2558 60.713 25.2538C60.4915 25.2526 60.3055 25.51 60.3039 25.8053C60.3023 26.1006 60.0794 26.3578 59.821 26.3564C59.5995 26.3552 57.8565 27.8223 56.0381 29.5844C54.1828 31.3462 51.9571 33.3275 51.0309 33.95C49.3264 35.122 48.1764 36.1494 44.7978 39.7118C43.6842 40.8501 42.6456 41.7673 42.461 41.7663C42.2764 41.7653 42.128 41.9122 42.1272 42.0598C42.1264 42.2075 41.3831 43.1263 40.455 44.0811C39.5271 44.9989 38.5232 46.3224 38.1874 46.985C37.8885 47.6479 37.5149 48.458 37.2918 48.7521C37.1056 49.0464 36.2486 50.5183 35.3915 51.9902C34.5345 53.4622 33.6413 54.7863 33.419 54.9327C33.1227 55.1157 31.5126 59.3152 31.1348 60.9005C31.0973 61.0111 30.9452 61.8224 30.7556 62.7442C30.566 63.6661 30.4139 64.4774 30.3764 64.5879C29.6945 67.7958 29.3047 71.5959 29.2048 76.3943C29.1462 80.3808 28.7277 82.6673 28.1 82.7008C27.0291 82.7688 26.2894 83.0232 25.1781 83.7185C24.5484 84.1212 23.4376 84.7427 22.7715 85.0344C22.1053 85.363 21.4751 85.8395 21.3258 86.134C21.2135 86.4287 20.9168 86.6855 20.6584 86.6841C20.3631 86.6825 19.9187 86.9385 19.5849 87.232C19.2878 87.5626 18.2867 88.3693 17.36 89.0656C16.4333 89.762 14.8384 91.1561 13.7992 92.184C12.7233 93.1749 11.7589 94.0187 11.6112 94.0179C11.4636 94.0171 10.8693 94.6783 10.2372 95.5239C9.64216 96.3328 8.67578 97.5458 8.11866 98.1703C7.52442 98.8315 6.89227 99.6771 6.70549 100.082C6.51871 100.487 5.95959 101.481 5.43837 102.29C4.95409 103.1 4.35764 104.167 4.17026 104.683C3.94596 105.198 3.60992 105.898 3.38663 106.229C3.20006 106.597 2.67383 108.329 2.25794 110.136C1.84206 111.942 1.31463 113.896 1.08992 114.485C0.341817 116.29 0.181515 118.615 0.371481 124.412ZM9.75285 116.711C9.86701 116.084 10.0943 115.014 10.2458 114.314C10.3603 113.613 10.5116 112.949 10.5491 112.839C10.5866 112.728 10.7379 112.065 10.8894 111.364C11.0778 110.664 11.3035 109.89 11.4152 109.706C11.5641 109.485 11.7141 109.043 11.7532 108.637C11.868 107.899 12.5034 106.463 14.071 103.297C15.7508 99.873 23.6161 92.6435 28.503 90.0491C29.1323 89.7203 30.3513 89.5792 31.9015 89.6246C33.7101 89.6713 34.7075 89.5291 35.7441 88.981C38.3723 87.6663 38.3721 87.7033 38.4662 77.183C38.5555 67.5487 38.7485 65.9993 40.3217 61.7995C40.6215 60.989 40.9597 59.8834 41.0731 59.4041C41.2631 58.4085 43.5387 54.028 45.6986 50.5697C47.1882 48.1783 53.0543 42.0085 55.9456 39.8093C57.3913 38.7097 60.544 35.9582 62.6963 33.9027C66.0358 30.7462 72.8966 24.9509 73.3026 24.9531C73.4872 24.9541 73.5253 24.7328 73.379 24.4736C73.2326 24.2513 73.2332 24.1406 73.3801 24.2891C73.5271 24.4006 75.2304 23.4501 77.194 22.1318C79.1208 20.8134 81.7128 19.3508 82.9707 18.8409C84.2285 18.3309 86.0783 17.6027 87.1141 17.2022C88.1129 16.8016 90.5537 16.0027 92.4764 15.4225C94.3991 14.8424 97.2465 13.935 98.7628 13.4264C102.905 12.0461 111.666 9.84197 115.767 9.16289C119.24 8.59114 131.018 8.28602 132.898 8.73922C134.409 9.11659 135.368 9.26946 136.512 9.38643C136.881 9.38844 138.131 10.3919 139.306 11.5796C141.618 13.9178 142.239 15.2132 144.124 21.6467C144.739 23.7911 145.466 26.0099 145.721 26.6389C145.976 27.2309 146.811 29.7457 147.536 32.186C148.298 34.6266 149.206 37.3632 149.57 38.288C149.934 39.2129 150.479 40.9509 150.841 42.171C151.167 43.391 151.603 44.5747 151.787 44.7971C151.97 45.0196 152.043 45.2784 151.931 45.3886C151.82 45.4987 151.966 45.7948 152.297 46.055C152.591 46.315 152.846 46.8701 152.844 47.3131C152.841 47.7561 152.986 48.2737 153.169 48.4962C153.463 48.83 154.369 51.862 154.329 52.4155C154.329 52.5631 154.73 53.4882 155.204 54.4136C155.716 55.3762 156.116 56.412 156.115 56.7073C156.113 57.0395 156.624 58.1867 157.245 59.2975C157.867 60.4083 158.668 62.4799 159.029 63.9585C159.932 67.5072 160.26 68.2843 161.762 70.5073C162.457 71.5447 163.042 72.6923 163.04 73.0614C163.038 73.3936 163.292 74.1702 163.547 74.7623C164.095 75.8727 164.856 78.4978 165.83 82.6745C166.155 84.0052 166.846 85.8916 167.431 86.9284C167.979 87.9281 168.672 89.593 168.961 90.6282C169.251 91.6265 170.09 93.5876 170.784 94.9572C172.318 97.8818 173.008 100.064 173.616 103.574C173.83 104.978 174.336 106.937 174.7 107.936C175.101 108.898 175.57 110.894 175.783 112.371C175.96 113.812 176.792 117.028 177.627 119.469C179.915 126.495 180.014 128.6 178.221 132.466C177.698 133.608 177.067 134.195 175.809 134.816C174.217 135.619 173.959 135.618 170.897 135.232C169.126 135.001 167.172 134.584 166.583 134.323C165.957 134.061 165.293 133.836 165.109 133.835C164.076 133.718 161.205 132.079 160.987 131.487C160.878 131.117 160.476 130.487 160.146 130.079C159.779 129.671 159.086 128.154 158.54 126.674C157.485 123.826 156.933 123.417 154.275 123.55C153.573 123.583 152.466 123.467 151.84 123.279C151.029 123.016 149.884 123.12 147.592 123.699C145.892 124.132 144.302 124.567 144.117 124.713C143.895 124.823 143.118 125.04 142.342 125.184C141.603 125.327 140.864 125.582 140.752 125.766C140.64 125.95 140.307 126.095 139.975 126.094C139.643 126.092 138.533 126.492 137.497 126.966C136.461 127.44 134.759 128.169 133.76 128.607C132.724 129.044 131.613 129.555 131.243 129.775C130.873 129.957 129.208 130.613 127.544 131.231C124.4 132.358 123.993 132.541 116.184 136.19C111.076 138.598 109.781 139.108 108.414 139.359C107.897 139.43 106.418 139.828 105.124 140.264C103.83 140.7 102.499 141.025 102.24 141.024C101.945 141.022 101.242 141.277 100.65 141.569C100.058 141.861 99.2811 142.152 98.9115 142.224C98.0986 142.367 93.7319 144.337 91.3993 145.616C88.0671 147.444 83.6637 149.376 81.5562 149.992C80.3362 150.318 78.1171 151.081 76.6003 151.7C75.0836 152.283 73.5671 152.828 73.2716 152.863C72.9761 152.899 72.4587 153.007 72.1626 153.153C71.8666 153.262 70.7572 153.625 69.6851 153.914C67.2081 154.602 66.5416 154.968 63.5757 157.314C62.204 158.377 60.9072 159.256 60.7226 159.255C60.5012 159.254 60.316 159.364 60.3152 159.512C60.3132 159.881 58.1656 161.087 57.538 161.084C57.2796 161.082 56.9835 161.228 56.9087 161.413C56.7213 161.928 47.9203 164.723 43.3003 165.768C42.3764 165.948 39.9738 166.526 37.9407 167.031C35.9076 167.537 33.8015 167.895 33.3223 167.781C32.8061 167.668 31.4047 167.402 30.1878 167.174C29.0077 166.946 27.5703 166.532 27.0549 166.271C25.5457 165.487 22.3873 162.48 21.5096 160.962C21.0707 160.221 20.1928 158.74 19.5337 157.739C18.8749 156.702 17.9246 154.962 17.3769 153.852C16.8292 152.741 16.1355 151.335 15.8065 150.742C15.2949 149.78 14.167 146.746 12.3859 141.642C11.1864 138.203 9.42341 129.777 9.72314 128.966C9.83527 128.708 9.76527 128.007 9.54698 127.415C9.18407 126.268 9.33617 118.665 9.75285 116.711Z" fill="#202020"/>
<path d="M145.469 111.008C146.311 107.835 147.866 104.92 149.938 102.395C150.909 101.164 152.075 100.128 153.306 99.1564C153.889 98.7031 154.471 98.2497 155.119 97.9259C155.508 97.7316 155.637 97.6669 156.026 97.9907C157.321 99.0916 155.831 101.099 155.054 102.006C153.824 103.431 152.399 104.726 150.909 105.892C149.873 106.734 148.189 108.158 148.708 109.713C149.226 111.332 151.557 111.461 152.982 111.656C157.58 112.303 162.243 112.562 166.841 112.433C167.489 112.433 168.784 112.044 168.978 111.267C169.173 110.425 168.007 110.36 167.489 110.36C163.279 110.49 159.005 110.231 154.86 109.648C154.277 109.583 153.111 109.583 152.593 109.13C151.946 108.547 152.658 107.77 153.047 107.317C153.63 106.734 154.342 106.28 154.99 105.697C155.831 104.985 156.609 104.208 157.386 103.431C158.552 102.2 159.976 100.711 160.171 98.9621C160.365 97.084 158.94 95.9183 157.192 95.724C153.37 95.3354 149.873 98.5735 147.477 101.164C144.822 104.014 142.944 107.511 141.907 111.267C141.519 112.627 145.146 112.303 145.469 111.008Z" fill="white"/>
<path d="M125.522 99.0917C123.838 100.84 122.025 102.783 121.572 105.244C121.183 107.317 121.766 109.648 123.579 110.879C125.911 112.433 129.214 111.72 131.804 111.138C134.719 110.49 137.568 109.583 140.288 108.353C140.806 108.094 141.778 107.64 141.325 106.928C140.871 106.28 139.511 106.475 138.928 106.734C136.726 107.705 134.46 108.547 132.128 109.065C130.509 109.454 127.919 110.36 126.429 109.13C125.134 108.094 124.939 106.086 125.328 104.532C125.911 102.459 127.465 100.84 128.89 99.2859C129.473 98.6383 128.437 98.185 127.983 98.1202C127.077 98.185 126.105 98.444 125.522 99.0917Z" fill="white"/>
<path d="M123.709 104.856C126.688 104.661 129.667 104.402 132.646 104.208C133.359 104.143 134.524 103.884 134.783 103.042C134.978 102.265 133.747 102.136 133.294 102.136C130.315 102.33 127.336 102.589 124.357 102.783C123.644 102.848 122.478 103.107 122.219 103.949C122.025 104.726 123.256 104.856 123.709 104.856Z" fill="white"/>
<path d="M129.084 99.545C132.841 99.6098 136.532 99.6745 140.288 99.7393C141.13 99.7393 142.231 99.6098 142.685 98.8974C143.138 98.2497 142.361 97.7316 141.778 97.7316C138.022 97.6669 134.33 97.6021 130.574 97.5373C129.732 97.5373 128.631 97.6669 128.178 98.3793C127.659 99.0269 128.437 99.545 129.084 99.545Z" fill="white"/>
<path d="M100.653 110.814C102.79 106.28 105.64 102.136 109.008 98.5088C107.907 98.3792 106.741 98.3145 105.64 98.185C103.891 101.423 103.309 107.705 108.425 107.835C110.886 107.899 112.894 106.604 114.642 105.05C116.52 103.301 118.398 101.617 120.341 99.8688C119.24 99.804 118.204 99.6745 117.103 99.6097C115.678 103.301 115.355 107.381 116.067 111.267C116.326 112.562 119.953 111.85 119.694 110.49C118.981 106.734 119.305 102.913 120.665 99.3507C120.924 98.7678 120.017 98.5088 119.629 98.444C118.916 98.3793 118.01 98.5735 117.427 99.0269C116.002 100.322 114.577 101.617 113.153 102.913C112.505 103.56 111.793 104.143 111.145 104.791C110.756 105.115 110.109 105.762 109.655 105.827C108.619 106.021 108.166 104.208 108.036 103.431C107.842 101.747 108.166 99.9983 108.943 98.5088C109.332 97.7964 108.684 97.4078 108.036 97.343C107.13 97.2783 106.223 97.5373 105.64 98.185C102.078 102.006 99.2285 106.345 96.9618 111.008C96.5732 111.785 98.0628 111.915 98.4513 111.915C99.358 111.915 100.265 111.591 100.653 110.814Z" fill="white"/>
<path d="M82.3901 110.619C85.3692 106.604 87.7654 102.136 89.3845 97.4078C89.8378 96.0478 86.3406 96.5011 85.8873 97.343C84.6568 99.545 82.3901 106.086 86.8587 106.151C88.9311 106.216 90.7445 104.791 92.3636 103.56C93.9179 102.395 95.3427 101.099 96.6379 99.6745C95.4722 99.6745 94.3065 99.6745 93.1407 99.6098C91.1331 104.208 90.7445 109.389 92.0398 114.246C92.3636 115.541 96.0551 114.764 95.6665 113.469C94.436 108.741 94.8246 103.819 96.7675 99.3507C97.0913 98.6383 95.8608 98.444 95.4722 98.444C94.6303 98.444 93.8531 98.7031 93.2703 99.2859C92.3636 100.257 91.3921 101.164 90.4207 101.941C89.9026 102.33 89.3845 102.783 88.8016 103.172C88.6073 103.301 88.413 103.431 88.2187 103.56C88.0892 103.625 87.5711 103.884 87.5063 104.014C87.2473 104.208 87.5063 104.208 88.3483 104.014C88.2835 103.949 88.2187 103.819 88.154 103.69C88.0892 103.496 88.0244 103.236 88.0244 103.042C87.9597 102.459 88.0244 101.812 88.0892 101.164C88.2835 99.8688 88.6721 98.5735 89.3197 97.4078C88.154 97.4078 86.9882 97.4078 85.8225 97.343C84.2034 101.876 81.9367 106.151 79.0871 110.037C78.569 110.749 79.4109 111.138 79.9938 111.202C80.7062 111.591 81.872 111.332 82.3901 110.619Z" fill="white"/>
<path d="M79.6053 101.099C71.5746 103.107 63.8678 105.827 56.4201 109.389C55.8372 109.648 55.3839 110.36 56.0315 110.814C56.7439 111.267 57.9096 110.943 58.622 110.619C65.4869 107.381 72.6756 104.791 80.0586 102.977C80.6415 102.848 81.8072 102.459 81.6777 101.617C81.4834 100.905 80.1234 100.97 79.6053 101.099Z" fill="white"/>
<path d="M62.443 112.692C64.904 108.029 67.4298 103.431 69.8908 98.7678C68.7898 98.8974 67.6241 99.0917 66.5231 99.2212C68.5955 102.913 70.6679 106.604 72.7404 110.296C73.1289 110.943 74.5537 110.684 75.1366 110.49C75.7195 110.296 76.5614 109.778 76.1728 109.065C74.1004 105.374 72.028 101.682 69.9556 97.9907C69.6965 97.5373 68.6603 97.6021 68.2717 97.6021C67.7536 97.6669 66.8469 97.9259 66.5231 98.444C64.0621 103.107 61.5364 107.705 59.0754 112.368C58.2982 113.922 61.8602 113.728 62.443 112.692Z" fill="white"/>
<path d="M47.3532 98.9621C44.5684 102.848 42.6255 107.317 41.654 112.044C41.395 113.21 43.5969 112.951 44.115 112.757C48.6485 110.879 52.9876 108.612 57.1324 105.957C57.6505 105.633 58.2334 104.985 57.521 104.532C56.8086 104.143 55.5781 104.273 54.9305 104.726C51.1094 107.252 47.0294 109.454 42.755 111.202C43.5969 111.461 44.4388 111.656 45.216 111.915C46.1227 107.381 47.9361 103.107 50.6561 99.3507C51.1742 98.6383 50.3323 98.2497 49.7494 98.185C48.9723 97.9907 47.8713 98.2497 47.3532 98.9621Z" fill="white"/>
<path d="M32.5225 111.332C32.7167 107.317 32.911 103.366 33.1701 99.3507C33.1701 98.9621 33.1701 98.5088 33.2349 98.1202C33.2349 97.9907 33.3644 97.6669 33.3644 97.6021C33.3644 97.4078 32.9758 97.7316 32.9758 97.7964C32.8463 97.7964 32.8463 97.7964 32.9758 97.7964C33.0406 97.7964 33.1701 97.7964 33.2349 97.7964C33.4939 97.7964 33.753 97.7316 34.012 97.7316C34.5301 97.6669 35.0482 97.6669 35.5016 97.6021C37.5092 97.4078 39.5169 97.2783 41.5893 97.084C42.2369 97.0192 43.5322 96.7602 43.7265 95.9183C43.9208 95.1411 42.755 94.9468 42.2369 95.0116C39.9055 95.2059 37.574 95.4002 35.2425 95.5944C33.3644 95.7887 30.3205 95.724 29.6729 97.9907C29.4138 98.9621 29.4786 100.128 29.4138 101.099C29.3491 102.265 29.2843 103.431 29.2195 104.597C29.09 106.928 28.9605 109.259 28.831 111.591C28.7662 112.368 29.7376 112.562 30.3205 112.498C30.9681 112.433 32.5225 112.109 32.5225 111.332Z" fill="white"/>
<path d="M27.0176 105.309C32.5225 104.467 38.0921 103.56 43.597 102.718C44.1798 102.654 45.3456 102.136 45.2161 101.358C45.0865 100.581 43.7265 100.711 43.2084 100.775C37.7035 101.617 32.1339 102.524 26.629 103.366C26.0462 103.431 24.8804 103.949 25.01 104.726C25.1395 105.503 26.4995 105.374 27.0176 105.309Z" fill="white"/>
<path d="M72.8311 77.2917C73.3553 77.0005 73.8212 76.7675 74.3454 76.4763C74.5201 76.4181 74.5201 76.4181 74.2871 76.4763C74.3454 76.4181 74.4619 76.4181 74.5201 76.3598C74.6366 76.3016 74.7531 76.2433 74.8695 76.2433C75.1607 76.1269 75.4519 76.0104 75.7431 75.8939C76.0343 75.7774 76.2673 75.7192 76.5585 75.6027C76.675 75.5445 76.6167 75.6027 76.442 75.6609C76.5003 75.6609 76.6167 75.6027 76.675 75.6027C76.7915 75.5445 76.9662 75.5445 77.0827 75.4862C77.3739 75.428 77.6651 75.3697 77.898 75.3115C78.0145 75.3115 78.1892 75.2533 78.3057 75.2533C78.4222 75.2533 78.9463 75.1368 78.4804 75.2533C78.8881 75.195 79.354 75.1368 79.7035 74.9038C79.9364 74.7873 80.2859 74.5544 80.3441 74.2632C80.5188 73.5643 79.4123 73.3896 79.0046 73.4478C76.1508 73.8555 73.3553 74.7291 70.851 76.1851C70.3851 76.4181 69.8027 77.1169 70.5015 77.4664C71.1422 77.8158 72.1905 77.6411 72.8311 77.2917Z" fill="white"/>
<path d="M114.589 73.9137C116.744 73.5643 118.899 72.8654 120.821 71.8171C121.054 71.7006 121.403 71.4094 121.462 71.1765C121.52 70.9435 121.403 70.6523 121.17 70.5358C120.471 70.1864 119.481 70.3611 118.841 70.7105C118.666 70.827 118.433 70.9435 118.258 71.0017C118.142 71.06 118.025 71.1182 117.909 71.1765C117.618 71.2929 118.2 71.06 117.909 71.1765C117.501 71.3512 117.035 71.5259 116.569 71.7006C116.336 71.7589 116.162 71.8171 115.929 71.9336C115.812 71.9918 115.871 71.9336 116.103 71.8753C116.045 71.8753 115.987 71.9336 115.929 71.9336C115.812 71.9336 115.696 71.9918 115.579 71.9918C115.113 72.1083 114.647 72.1665 114.182 72.283C113.832 72.3413 113.366 72.516 113.075 72.7489C112.9 72.8654 112.667 73.2149 112.726 73.4478C112.959 74.0885 114.065 74.0302 114.589 73.9137Z" fill="white"/>
<path d="M76.442 79.2718C76.2673 77.1752 76.442 75.0785 76.9079 73.0401C77.1409 72.0501 77.4321 71.06 77.7815 70.1281C77.9563 69.6622 78.1892 69.1963 78.3639 68.7304C78.5387 68.3227 78.7134 67.7985 79.1211 67.5656C78.8881 67.6821 78.6551 67.7985 78.4222 67.915C78.4804 67.915 78.5387 67.8568 78.5969 67.8568C78.3057 67.915 78.0145 67.9732 77.7233 68.0315C77.7815 68.0315 77.8398 68.0315 77.898 68.0315C77.6651 68.0315 77.3739 67.9733 77.1409 67.9733C77.0244 67.8568 77.0244 67.8568 77.1409 68.0315C77.1991 68.148 77.2574 68.2062 77.2574 68.3227C77.3739 68.5556 77.4321 68.7886 77.5486 69.0216C77.7815 69.5457 78.0145 70.0699 78.2475 70.5941C78.7134 71.5841 79.1211 72.6324 79.587 73.6225C80.5188 75.6609 81.3924 77.6993 82.3243 79.7377C82.6155 80.3784 83.5473 80.3784 84.1297 80.2619C84.4791 80.2036 85.8769 79.6795 85.5857 79.0388C83.8385 75.195 82.1495 71.2929 80.4023 67.4491C79.9364 66.459 79.1211 66.1096 78.0145 66.2843C76.7332 66.459 76.0343 67.2161 75.4519 68.2645C74.5783 69.9534 73.9377 71.7589 73.53 73.6225C73.0641 75.7192 72.9476 77.874 73.1223 80.0289C73.1806 80.7278 74.5201 80.6113 74.9278 80.5531C75.5684 80.3784 76.5003 79.9707 76.442 79.2718Z" fill="white"/>
<path d="M90.9438 80.1454C91.3515 75.7774 92.3416 71.5259 93.7976 67.3909C92.691 67.5656 91.6427 67.6821 90.5361 67.8568C90.7108 70.2446 91.235 72.6325 92.1086 74.8456C92.5163 75.8939 92.924 77.0587 93.5646 77.9323C94.2635 78.8641 95.4283 79.2136 96.5931 79.0389C97.8744 78.8059 98.6897 78.1653 99.2139 77.0005C99.738 75.7774 100.204 74.5544 100.728 73.2731C101.718 70.827 102.708 68.3227 103.698 65.8766C103.99 65.1777 102.708 65.0613 102.359 65.0613C101.66 65.1195 100.728 65.4107 100.437 66.1096C99.6216 68.0897 98.8644 70.0699 98.0491 72.0501C97.6414 73.0401 97.2337 74.0885 96.826 75.0785C96.6513 75.5445 96.4766 75.9521 96.3019 76.4181C96.1854 76.7093 96.0689 76.9422 96.0107 77.2334L95.7777 77.6411C96.2436 77.5246 96.7096 77.4081 97.1755 77.2917C97.1172 77.2917 97.1172 77.2334 97.059 77.2334C96.9425 77.0587 96.7678 76.9422 96.6513 76.7675C96.4184 76.4181 96.2436 76.0104 96.0689 75.6027C95.6612 74.7291 95.3118 73.8555 95.0788 72.9819C94.4964 71.1182 94.0888 69.1381 93.9723 67.2161C93.914 66.5755 92.7492 66.6337 92.3998 66.692C91.8174 66.7502 90.9438 67.0414 90.7108 67.6821C89.1966 71.7589 88.2648 76.0686 87.8571 80.4366C87.7988 81.1355 88.6724 81.3102 89.1966 81.252C89.546 81.1355 90.8856 80.8443 90.9438 80.1454Z" fill="white"/>
<path d="M107.6 77.4081C107.251 74.6126 107.426 71.7589 108.241 69.0216C108.591 67.7985 105.271 68.0897 104.98 69.2545C104.164 72.1083 103.931 75.1368 104.339 78.107C104.455 78.8059 105.679 78.7477 106.144 78.6312C106.669 78.4565 107.717 78.107 107.6 77.4081Z" fill="white"/>
<path d="M106.028 65.3525C106.261 65.8766 106.552 66.3425 106.96 66.7502C107.367 67.1579 107.833 67.5073 108.358 67.7403C108.707 67.915 109.056 67.9733 109.406 67.915C109.639 67.915 109.872 67.8568 110.047 67.7985C110.279 67.7403 110.454 67.6821 110.629 67.5656C110.745 67.5073 110.804 67.4491 110.92 67.3909C111.095 67.2744 111.211 67.0997 111.27 66.9249C111.27 66.8667 111.27 66.7502 111.27 66.692C111.211 66.5173 111.095 66.4008 110.978 66.2843C110.687 66.1678 110.454 65.9931 110.163 65.7601C110.221 65.8184 110.279 65.8766 110.396 65.9349C109.93 65.5854 109.581 65.1195 109.289 64.5953C109.348 64.6536 109.348 64.7118 109.406 64.8283C109.406 64.7701 109.348 64.7118 109.348 64.6536C109.348 64.5371 109.231 64.4206 109.115 64.3624C108.998 64.2459 108.882 64.1877 108.707 64.1294C108.532 64.0712 108.358 64.0712 108.125 64.0712C107.892 64.0712 107.717 64.0712 107.484 64.1294C107.076 64.2459 106.669 64.3624 106.377 64.5953C106.319 64.6536 106.203 64.7701 106.144 64.8283C106.028 65.003 105.97 65.1777 106.028 65.3525Z" fill="white"/>
<path d="M111.444 70.5941C111.328 73.5061 111.27 76.4763 111.153 79.3883C111.153 79.6213 111.561 79.8542 111.735 79.9125C112.143 80.0289 112.551 79.9707 112.959 79.9125C115.754 79.4465 118.491 78.8641 121.229 78.1653C121.695 78.0488 122.859 77.6993 122.685 76.9422C122.568 76.2433 121.345 76.3016 120.879 76.4181C118.142 77.1169 115.405 77.7576 112.609 78.1653C113.191 78.34 113.832 78.5147 114.415 78.6894C114.531 75.7774 114.589 72.8072 114.706 69.8952C114.706 69.6622 114.298 69.4293 114.123 69.371C113.774 69.2545 113.25 69.2545 112.9 69.371C112.318 69.5457 111.503 69.8369 111.444 70.5941Z" fill="white"/>
<path d="M130.663 64.8283C128.858 67.7403 127.402 70.9435 126.004 74.0302C125.247 75.7192 123.791 78.34 125.83 79.7377C126.82 80.4366 128.101 80.4949 129.266 80.4949C130.663 80.4949 132.119 80.3201 133.517 80.2037C137.012 79.9707 140.564 79.7377 144.059 79.5048C144.641 79.4465 145.806 79.2136 145.981 78.4565C146.155 77.7576 145.107 77.6411 144.641 77.6411C141.787 77.8158 138.934 77.9905 136.08 78.2235C134.624 78.34 133.226 78.3982 131.77 78.5147C130.838 78.5729 129.848 78.8059 128.974 78.5147C127.053 77.9323 128.683 75.0785 129.207 73.9137C129.965 72.2248 130.78 70.5358 131.654 68.9051C132.294 67.6238 132.935 66.3425 133.692 65.1195C134.449 63.7217 131.246 63.8382 130.663 64.8283Z" fill="white"/>
<path d="M114.356 68.7304C117.618 67.6238 120.704 66.692 123.966 65.8184C124.432 65.7019 125.597 65.3525 125.422 64.5953C125.305 63.8965 124.082 63.9547 123.616 64.0712C120.064 64.9448 116.569 65.9931 113.133 67.2161C112.667 67.3909 111.735 67.915 112.201 68.4974C112.667 69.1381 113.774 68.9051 114.356 68.7304Z" fill="white"/>
<path d="M61.6491 79.3883C61.1249 74.5544 60.9502 69.6622 61.1249 64.8283C60.0766 65.236 59.0283 65.5854 57.9217 65.9931C60.1931 67.0997 62.2315 68.5557 63.9204 70.4193C65.027 71.6424 67.8225 74.8456 65.7259 76.3598C65.8423 76.2433 65.2599 76.5928 65.4929 76.4763C65.4347 76.5345 64.8523 76.7093 65.027 76.651C64.5028 76.8257 63.9204 76.884 63.3963 77.0005C62.9886 77.0587 62.2315 77.1752 61.6491 77.2334C61.1831 77.2917 60.7755 77.3499 60.3095 77.4664C59.5524 77.6411 58.9118 77.8741 58.2711 78.2235C57.9799 78.34 57.747 78.5147 57.4558 78.6312C57.8052 78.4565 57.1063 78.7477 57.0481 78.8059C56.7569 78.9224 56.4657 79.0389 56.1745 79.1553C55.5921 79.2136 54.6603 79.7377 55.1262 80.3784C55.5339 81.019 56.8734 80.7861 57.4558 80.5531C58.3294 80.2619 59.1447 79.9125 59.9601 79.5048C60.1348 79.4465 60.3095 79.3301 60.4843 79.2136C60.5425 79.2136 60.0766 79.3301 60.426 79.2718C60.4843 79.2718 60.8337 79.1553 60.5425 79.2136C60.1931 79.2718 60.659 79.2136 60.7755 79.1553C60.9502 79.0971 61.1249 79.0971 61.2996 79.0389C61.7655 78.9806 62.0567 78.9224 62.5227 78.8641C63.6292 78.7477 64.7358 78.5729 65.7841 78.2235C67.706 77.6993 69.9191 76.4763 69.9774 74.2049C69.9774 72.1083 68.2302 70.0699 66.8324 68.6139C65.0852 66.8085 63.0468 65.3525 60.7755 64.2459C59.8436 63.78 57.6305 64.0712 57.5723 65.4107C57.3975 70.3029 57.5723 75.1368 58.0964 79.9707C58.2711 81.3102 61.7655 80.7278 61.6491 79.3883Z" fill="white"/>
</svg>
