<svg width="193" height="179" viewBox="0 0 193 179" fill="none" xmlns="http://www.w3.org/2000/svg">
<path d="M34.0001 84.6975C37.7211 61.1119 41.9499 9.8058 134.539 6.99277C131.746 5.55921 130.84 5.23096 136.193 6.94793C135.638 6.96117 135.087 6.97612 134.539 6.99277C137.847 8.69059 143.803 11.9388 145.142 15.1759L185.823 121.489C187.258 125.784 188.317 135.265 181.071 138.825C176.614 143.004 158.053 145.125 149 128.697L39.9145 172.15C30.0047 170.381 9.312 160.362 5.81943 134.441C2.51772 121.114 1.57873 96.8229 34.0001 84.6975Z" fill="#2042AD"/>
<path d="M0.371484 124.109C0.465767 127.137 0.744219 130.239 0.961888 130.942C1.6159 132.865 2.47635 137.558 2.46691 139.293C2.4625 140.105 2.71547 141.103 3.00858 141.51C3.30188 141.881 3.55667 142.547 3.55446 142.953C3.55205 143.396 3.73381 143.914 3.9908 144.174C4.24779 144.433 4.32062 144.618 4.17296 144.618C4.02531 144.617 4.24358 145.209 4.64582 145.912C5.04786 146.653 5.37607 147.393 5.37506 147.577C5.37386 147.799 5.95686 149.205 6.64979 150.759C7.34293 152.276 7.92592 153.682 7.92512 153.83C7.92432 153.977 8.72879 155.385 9.75395 156.941C10.7422 158.496 11.5836 159.904 11.5826 160.088C11.5802 160.531 15.6754 167.752 16.007 167.865C16.1912 167.939 16.3376 168.162 16.3366 168.346C16.3342 168.789 18.9417 171.277 19.4216 171.279C19.6061 171.28 20.3053 171.69 20.93 172.21C22.8784 173.698 25.8265 174.636 29.8481 175.028C33.1316 175.378 34.1285 175.346 37.6021 174.701C41.7777 173.911 43.5887 173.515 46.0295 172.716C48.0633 172.063 49.6529 171.665 50.0216 171.741C50.3165 171.816 52.9797 170.834 55.6439 169.667C56.4581 169.303 57.7898 168.793 58.6031 168.576C61.1915 167.778 64.8193 165.915 67.3021 164.157C68.6363 163.204 70.0442 162.252 70.4515 162.033C71.5988 161.485 79.8083 158.835 82.0998 158.331C83.2086 158.078 84.4661 157.642 84.8734 157.423C85.2808 157.167 86.0947 156.839 86.6491 156.731C87.2405 156.587 89.9047 155.42 92.6434 154.143C95.3453 152.829 97.6767 151.771 97.8613 151.772C98.0089 151.773 98.4162 151.553 98.7131 151.26C99.455 150.599 104.782 148.598 106.518 148.275C107.22 148.168 108.144 147.952 108.551 147.769C110.105 147.15 112.657 146.241 113.175 146.133C113.766 145.989 117.948 144.055 119.466 143.214C119.985 142.922 120.761 142.667 121.167 142.67C121.61 142.672 122.35 142.381 122.832 142.014C123.314 141.648 124.055 141.209 124.461 141.063C126.496 140.336 133.6 137.348 135.376 136.471C136.487 135.924 138.04 135.378 138.779 135.235C139.555 135.091 140.184 134.873 140.185 134.726C140.186 134.578 141.185 134.14 142.405 133.815C143.625 133.452 144.698 133.015 144.809 132.831C144.921 132.647 145.254 132.575 145.512 132.687C145.806 132.8 146.139 132.728 146.251 132.507C146.4 132.286 146.695 132.214 146.99 132.326C147.248 132.438 147.876 132.331 148.394 132.149C149.356 131.785 150.902 132.458 150.898 133.27C150.897 133.492 152.108 134.864 153.539 136.349C155.595 138.427 156.956 139.394 159.349 140.552C162.699 142.194 163.658 142.421 168.565 142.89C172.402 143.244 176.354 142.896 177.576 142.09C178.095 141.761 178.761 141.506 179.093 141.508C179.388 141.51 179.648 141.326 179.649 141.068C179.65 140.847 179.762 140.736 179.872 140.885C180.276 141.256 184.201 139.099 185.463 137.777C189.064 134.069 190.087 122.409 187.273 117.078C186.945 116.449 186.616 115.819 186.616 115.708C186.58 115.598 186.471 115.265 186.325 114.969C185.743 113.452 185.094 110.495 184.776 107.909C184.705 107.355 184.306 106.061 183.906 104.988C183.506 103.953 183.001 101.809 182.787 100.257C182.574 98.7425 182.032 96.7092 181.557 95.7838C180.352 93.3777 179.696 91.7499 179.042 89.7529C178.715 88.7914 178.315 87.6818 178.133 87.3485C177.146 85.4974 175.872 82.0943 175.185 79.5434C174.75 77.9906 174.279 76.3638 174.097 75.9568C173.951 75.5499 173.442 74.1444 172.97 72.8129C172.534 71.4815 172.061 70.2239 171.914 70.0385C171.768 69.8162 171.368 68.7066 171.005 67.5602C170.497 65.9332 170.168 65.3777 169.357 65.0411C167.847 64.4053 167.298 63.6271 166.793 61.3356C166.541 60.2268 165.996 58.6734 165.631 57.9331C165.229 57.1557 164.864 56.3416 164.829 56.083C164.756 55.8242 164.538 55.1955 164.356 54.6777C164.138 54.1597 163.848 53.1614 163.704 52.4592C163.56 51.7571 163.197 50.6845 162.905 50.0923C162.174 48.6856 160.647 44.432 158.431 37.7015C157.451 34.7798 156.323 31.6729 155.922 30.8216C155.521 29.9335 155.084 28.676 154.977 27.974C154.87 27.309 154.615 26.68 154.468 26.5685C154.284 26.4568 154.029 25.8278 153.885 25.1626C153.741 24.4973 153.414 23.4988 153.122 22.9435C152.83 22.3882 152.613 21.5749 152.615 21.095C152.618 20.652 152.472 20.2821 152.288 20.2811C151.918 20.2791 151.481 19.1693 150.431 15.472C149.67 12.81 147.003 7.70126 146.413 7.69804C146.228 7.69704 145.235 6.95334 144.207 6.06179C143.141 5.13312 141.449 4.12721 140.417 3.78937C139.348 3.45132 138.317 3.00273 138.133 2.85407C137.913 2.6683 136.733 2.40348 135.552 2.28632C134.335 2.16895 132.823 1.90232 132.233 1.71454C130.611 1.22583 119.869 1.27816 115.621 1.80879C112.518 2.16107 105.57 3.67372 103.609 4.40136C103.313 4.5105 102.87 4.65574 102.685 4.69165C97.9537 5.77338 84.048 10.4967 79.7921 12.467C78.9778 12.8686 77.5716 13.4885 76.6839 13.8159C75.8328 14.1805 75.1293 14.5827 75.1285 14.7304C75.1277 14.878 74.8314 15.061 74.4614 15.2066C74.1286 15.3156 73.3141 15.7541 72.7214 16.12C72.0917 16.5227 71.0918 17.1079 70.4256 17.4365C69.7593 17.7651 69.0551 18.2781 68.7951 18.572C68.572 18.8661 68.2017 19.0856 67.9802 19.0844C67.7956 19.0834 67.3511 19.3763 67.017 19.7067C65.7174 21.1024 61.0821 24.9533 60.713 24.9513C60.4915 24.9501 60.3055 25.2075 60.3039 25.5028C60.3023 25.7981 60.0794 26.0553 59.821 26.0539C59.5995 26.0527 57.8565 27.5198 56.0381 29.2818C54.1828 31.0437 51.9571 33.025 51.0309 33.6475C49.3264 34.8195 48.1764 35.8469 44.7978 39.4092C43.6842 40.5476 42.6456 41.4648 42.461 41.4638C42.2764 41.4628 42.128 41.6096 42.1272 41.7573C42.1264 41.9049 41.3831 42.8238 40.455 43.7785C39.5271 44.6963 38.5232 46.0198 38.1874 46.6825C37.8885 47.3453 37.5149 48.1554 37.2918 48.4495C37.1056 48.7438 36.2486 50.2158 35.3915 51.6877C34.5345 53.1597 33.6413 54.4837 33.419 54.6302C33.1227 54.8131 31.5126 59.0127 31.1348 60.598C31.0973 60.7085 30.9452 61.5198 30.7556 62.4417C30.566 63.3635 30.4139 64.1748 30.3764 64.2854C29.6945 67.4933 29.3047 71.2934 29.2048 76.0918C29.1462 80.0783 28.7277 82.3648 28.1 82.3983C27.0291 82.4663 26.2894 82.7207 25.1781 83.416C24.5484 83.8186 23.4376 84.4402 22.7715 84.7319C22.1053 85.0605 21.4751 85.5369 21.3258 85.8314C21.2135 86.1261 20.9168 86.3829 20.6584 86.3815C20.3631 86.3799 19.9187 86.6359 19.5849 86.9294C19.2878 87.26 18.2867 88.0667 17.36 88.7631C16.4333 89.4594 14.8384 90.8535 13.7992 91.8815C12.7233 92.8723 11.7589 93.7161 11.6112 93.7153C11.4636 93.7145 10.8694 94.3758 10.2372 95.2214C9.64216 96.0303 8.67578 97.2432 8.11866 97.8678C7.52442 98.529 6.89227 99.3746 6.70549 99.7796C6.51872 100.185 5.95959 101.178 5.43838 101.988C4.95408 102.797 4.35764 103.864 4.17026 104.38C3.94596 104.896 3.60993 105.595 3.38664 105.926C3.20006 106.295 2.67383 108.027 2.25794 109.833C1.84205 111.64 1.31462 113.593 1.08993 114.183C0.341813 115.988 0.181513 118.312 0.371484 124.109ZM9.75285 116.408C9.86701 115.781 10.0943 114.712 10.2458 114.011C10.3603 113.31 10.5116 112.647 10.5491 112.536C10.5866 112.426 10.7379 111.762 10.8894 111.061C11.0778 110.361 11.3035 109.587 11.4152 109.403C11.5641 109.182 11.7141 108.74 11.7532 108.334C11.868 107.597 12.5034 106.161 14.071 102.994C15.7508 99.5704 23.6161 92.3409 28.503 89.7465C29.1323 89.4177 30.3513 89.2767 31.9015 89.322C33.7101 89.3688 34.7075 89.2266 35.7441 88.6785C38.3722 87.3638 38.3721 87.4007 38.4662 76.8805C38.5555 67.2461 38.7485 65.6968 40.3217 61.497C40.6215 60.6865 40.9597 59.5809 41.0731 59.1016C41.2631 58.1059 43.5387 53.7254 45.6986 50.2672C47.1882 47.8758 53.0543 41.706 55.9456 39.5068C57.3913 38.4072 60.544 35.6557 62.6963 33.6002C66.0358 30.4436 72.8966 24.6484 73.3026 24.6506C73.4872 24.6516 73.5253 24.4303 73.379 24.1711C73.2326 23.9488 73.2332 23.8381 73.3801 23.9865C73.5271 24.0981 75.2304 23.1475 77.194 21.8293C79.1208 20.5108 81.7128 19.0483 82.9707 18.5383C84.2285 18.0284 86.0783 17.3001 87.1141 16.8997C88.1129 16.4991 90.5537 15.7002 92.4764 15.12C94.3991 14.5398 97.2465 13.6324 98.7628 13.1239C102.905 11.7436 111.666 9.53944 115.767 8.86035C119.24 8.2886 131.018 7.98349 132.898 8.43669C134.409 8.81406 135.368 8.96693 136.512 9.08389C136.881 9.0859 138.131 10.0894 139.306 11.2771C141.618 13.6153 142.239 14.9107 144.124 21.3441C144.739 23.4886 145.466 25.7074 145.721 26.3364C145.976 26.9284 146.811 29.4431 147.536 31.8835C148.298 34.324 149.206 37.0607 149.57 37.9855C149.934 38.9104 150.479 40.6483 150.841 41.8685C151.167 43.0885 151.603 44.2721 151.787 44.4946C151.97 44.7171 152.043 44.9759 151.931 45.086C151.82 45.1962 151.966 45.4923 152.297 45.7525C152.591 46.0125 152.846 46.5676 152.844 47.0106C152.841 47.4535 152.986 47.9711 153.169 48.1936C153.463 48.5275 154.369 51.5594 154.329 52.1129C154.329 52.2606 154.73 53.1856 155.204 54.1111C155.716 55.0737 156.116 56.1095 156.115 56.4048C156.113 56.737 156.624 57.8841 157.245 58.995C157.867 60.1058 158.668 62.1774 159.029 63.656C159.932 67.2047 160.26 67.9817 161.762 70.2048C162.457 71.2422 163.042 72.3897 163.04 72.7589C163.038 73.0911 163.292 73.8677 163.547 74.4597C164.095 75.5701 164.856 78.1952 165.83 82.3719C166.155 83.7026 166.846 85.5891 167.431 86.6259C167.979 87.6256 168.672 89.2905 168.961 90.3257C169.251 91.324 170.09 93.285 170.784 94.6547C172.318 97.5793 173.008 99.761 173.616 103.271C173.83 104.675 174.336 106.634 174.7 107.633C175.101 108.595 175.57 110.591 175.783 112.069C175.96 113.509 176.792 116.726 177.627 119.167C179.915 126.193 180.014 128.297 178.221 132.164C177.698 133.305 177.067 133.893 175.809 134.513C174.217 135.317 173.959 135.315 170.897 134.93C169.126 134.698 167.172 134.282 166.583 134.02C165.957 133.758 165.293 133.533 165.109 133.532C164.076 133.416 161.205 131.776 160.987 131.184C160.878 130.814 160.476 130.185 160.146 129.777C159.779 129.369 159.086 127.851 158.54 126.372C157.485 123.524 156.933 123.115 154.275 123.248C153.573 123.281 152.466 123.164 151.84 122.976C151.029 122.713 149.884 122.818 147.592 123.396C145.892 123.83 144.302 124.264 144.117 124.411C143.895 124.52 143.118 124.738 142.342 124.881C141.603 125.025 140.864 125.279 140.752 125.463C140.64 125.647 140.307 125.793 139.975 125.791C139.643 125.789 138.533 126.189 137.497 126.664C136.461 127.138 134.759 127.867 133.76 128.304C132.724 128.742 131.613 129.253 131.243 129.472C130.873 129.655 129.208 130.31 127.544 130.928C124.4 132.056 123.993 132.238 116.184 135.887C111.076 138.296 109.781 138.806 108.414 139.057C107.897 139.128 106.418 139.526 105.124 139.961C103.83 140.397 102.499 140.722 102.24 140.721C101.945 140.719 101.242 140.974 100.65 141.266C100.058 141.558 99.2811 141.849 98.9115 141.921C98.0986 142.064 93.7319 144.034 91.3993 145.313C88.0671 147.141 83.6637 149.074 81.5562 149.69C80.3362 150.015 78.1171 150.778 76.6003 151.398C75.0836 151.98 73.5671 152.526 73.2716 152.561C72.9761 152.596 72.4587 152.704 72.1626 152.85C71.8667 152.959 70.7572 153.322 69.6851 153.612C67.2081 154.3 66.5416 154.665 63.5757 157.012C62.204 158.075 60.9072 158.954 60.7226 158.953C60.5012 158.952 60.316 159.061 60.3152 159.209C60.3132 159.578 58.1655 160.785 57.538 160.781C57.2796 160.78 56.9835 160.926 56.9087 161.11C56.7213 161.626 47.9203 164.42 43.3003 165.466C42.3764 165.645 39.9738 166.223 37.9407 166.729C35.9076 167.234 33.8015 167.592 33.3223 167.479C32.8061 167.365 31.4047 167.099 30.1878 166.871C29.0077 166.643 27.5703 166.229 27.0549 165.968C25.5457 165.185 22.3873 162.177 21.5096 160.659C21.0707 159.918 20.1928 158.437 19.5337 157.437C18.8749 156.4 17.9246 154.659 17.3769 153.549C16.8292 152.439 16.1355 151.032 15.8064 150.44C15.2949 149.477 14.167 146.444 12.3859 141.34C11.1864 137.9 9.4234 129.474 9.72313 128.664C9.83528 128.406 9.76526 127.704 9.54699 127.112C9.18407 125.966 9.33616 118.362 9.75285 116.408Z" fill="#202020"/>
<rect x="66" y="67" width="60" height="8" rx="4" fill="white"/>
<rect x="66" y="85" width="60" height="8" rx="4" fill="white"/>
<rect x="66" y="103" width="60" height="8" rx="4" fill="white"/>
</svg>
