<svg width="159" height="209" viewBox="0 0 159 209" fill="none" xmlns="http://www.w3.org/2000/svg">
<path d="M0.201394 58.4512C0.385965 59.3741 0.570535 62.1057 0.681283 64.5421C0.792032 66.9784 0.976602 69.8947 1.08735 71.0021C1.19808 72.1095 1.38265 75.7272 1.45649 79.0495C1.60415 84.4759 1.86254 89.607 2.19477 92.5971C2.26861 93.1877 2.45318 94.7012 2.56393 95.9194C2.71157 97.1376 2.89616 98.6141 2.96998 99.2417C3.08073 99.8323 3.48678 102.416 3.85592 104.963C4.66804 110.205 5.59091 114.414 6.18155 115.484C6.40303 115.89 6.62451 116.37 6.69834 116.591C6.88292 117.219 7.54737 120.246 7.69503 121.021C7.8796 122.129 8.6548 123.901 9.1716 124.528C9.43 124.823 9.76223 125.562 9.90989 126.115C10.0576 126.669 10.5005 127.407 10.9066 127.777C11.3496 128.109 11.8664 128.589 12.1248 128.81C12.7892 129.438 13.8966 129.955 15.2625 130.213C17.8834 130.693 21.2796 133.498 23.9374 137.374C25.3401 139.368 27.0013 144.056 27.3335 146.787C27.4443 147.637 27.7027 149.076 27.9241 149.999C28.1456 150.922 28.3671 154.798 28.404 158.674C28.5517 167.46 28.7363 168.899 30.1021 173.255C31.874 178.719 32.6123 179.826 37.8172 184.329C38.8877 185.252 40.1428 186.175 40.5858 186.36C41.0657 186.581 41.8409 187.098 42.3208 187.504C42.8007 187.947 44.0927 188.87 45.2001 189.571C47.821 191.233 52.8783 196.327 53.5797 197.988C55.0194 201.495 56.8651 205.002 57.2711 205.002C57.5295 205.002 57.751 205.149 57.751 205.297C57.751 205.814 60.1505 206.478 62.07 206.478C63.1036 206.478 65.6507 206.663 67.7549 206.884C69.859 207.106 71.8154 207.29 72.0369 207.253C72.2953 207.253 72.7383 207.216 72.9598 207.18C73.6981 207.143 77.4264 207.586 78.054 207.807C78.3493 207.918 79.0876 208.065 79.7151 208.139C80.3058 208.213 81.5239 208.398 82.4099 208.508C84.0341 208.73 85.5845 208.139 86.249 206.995C86.4336 206.737 86.8765 206.626 87.2826 206.737C88.0209 206.921 91.1955 206.257 91.8969 205.74C92.0815 205.592 92.9305 205.26 93.7426 205.002C97.1757 203.894 100.904 200.646 102.011 197.766C102.418 196.733 103.082 195.145 103.488 194.259C104.3 192.414 104.706 187.578 104.226 185.363C103.488 182.188 103.34 181.081 103.377 178.977C103.414 175.101 104.374 172.554 105.998 171.815C108.213 170.819 113.123 167.201 115.744 164.691C119.361 161.184 120.173 159.449 120.136 155.425C120.136 152.362 120.1 151.845 119.435 147.969C118.771 144.167 118.291 142.21 117.922 141.693C117.737 141.472 117.516 140.327 117.405 139.109C117.294 137.891 116.962 135.049 116.703 132.834C116.408 130.582 116.26 127.85 116.334 126.743C116.408 125.636 116.519 123.052 116.593 121.021C116.74 117.256 117.405 112.826 117.922 112.162C118.069 111.94 118.401 111.128 118.66 110.316C118.918 109.504 119.435 108.286 119.841 107.621C120.21 106.957 120.838 105.296 121.281 103.93C121.724 102.564 122.278 101.05 122.573 100.534C122.831 100.017 123.237 98.7618 123.459 97.7651C123.68 96.7315 124.308 95.2549 124.825 94.4428C125.378 93.6307 126.006 91.9695 126.264 90.7513C127.076 86.9122 127.519 85.288 128.258 83.9222C128.627 83.2208 129.217 81.7811 129.55 80.7844C129.919 79.7508 130.399 78.4219 130.657 77.8313C130.915 77.2037 131.322 75.9856 131.58 75.0627C132.097 73.1431 133.647 69.3779 134.533 68.049C134.865 67.5322 135.604 65.7972 136.157 64.1729C136.711 62.5487 137.449 60.8137 137.818 60.2969C138.151 59.7801 138.852 58.3774 139.332 57.1592C140.255 54.7967 142.322 50.2931 145.349 44.0546C146.936 40.8799 147.785 39.6248 150.259 37.0408C151.92 35.3058 153.987 33.3863 154.836 32.7957C158.232 30.3593 159.266 28.772 158.897 26.6309C158.749 25.7819 158.638 24.5268 158.712 23.7885C158.823 21.8321 158.158 14.4122 157.789 13.9693C157.642 13.7847 157.346 12.9357 157.199 12.1236C157.051 11.3114 156.682 10.4624 156.386 10.2409C156.091 10.0194 155.759 8.98582 155.648 7.84148C155.427 5.36821 154.91 4.74066 152.289 3.96545C149.151 3.0426 137.117 3.15334 124.825 4.22386C120.506 4.593 105.445 4.48226 102.602 4.0762C101.975 3.96546 99.9812 3.78089 98.1724 3.67014C92.3399 3.26409 89.7928 3.04261 85.6215 2.71038C83.3697 2.52579 78.497 2.34122 74.7317 2.30431C68.7146 2.23049 59.5229 1.71367 53.3213 1.08614C52.2139 0.975392 49.6298 0.790822 47.5996 0.680074C45.5693 0.569326 43.1698 0.347844 42.247 0.200185C40.3643 -0.0951334 37.7803 -0.058207 28.404 0.274023C24.7495 0.421683 21.095 0.532416 20.2829 0.532416C19.4707 0.532416 18.068 0.680075 17.1451 0.864645C16.2223 1.04922 14.8195 1.30762 14.0443 1.41837C13.2691 1.5291 12.2355 1.71368 11.7556 1.82442C11.2757 1.93517 10.3529 2.08283 9.68841 2.15665C3.89283 2.67345 2.30552 3.26409 1.60415 4.99908C1.34574 5.66354 1.08735 6.32799 0.976599 6.47565C0.902762 6.66022 1.08735 6.77096 1.41958 6.77096C2.19477 6.77096 2.15786 7.06628 1.19808 9.20731C0.496711 10.8685 0.422873 11.5698 0.496711 17.107C0.533622 20.4662 0.60746 24.7852 0.681282 26.7048C0.755104 28.6243 0.644371 33.6078 0.459801 37.7791C-0.0569986 48.8165 -0.130836 56.5686 0.201394 58.4512ZM8.58097 18.6943C8.76554 16.2211 8.76554 16.2211 8.65479 15.815C8.61788 15.5935 8.58097 14.9291 8.61788 14.3015C8.65479 13.0095 8.10108 13.231 14.7457 11.939C21.7963 10.6101 26.4476 10.204 39.8475 9.94561C41.8778 9.9087 52.3615 10.4993 55.9053 10.8315C57.8249 11.053 60.7411 11.2745 62.3653 11.3853C63.9896 11.496 66.3152 11.6437 67.5334 11.7913C68.7515 11.9021 73.6612 12.0497 78.4231 12.1605C87.3564 12.3081 89.1283 12.4189 94.8501 13.0833C103.525 14.08 119.14 14.6707 122.72 14.1169C123.643 13.9693 126.855 13.7478 129.919 13.637C134.976 13.4156 139 13.1941 143.946 12.8618C144.943 12.788 146.53 12.5296 147.453 12.3081C150 11.6806 150.111 11.7175 150.259 12.4927C150.48 13.9693 150.406 18.5098 150.074 23.9731C150.037 24.1946 149.077 25.4128 147.896 26.7048C146.752 27.9599 145.644 29.2888 145.46 29.5841C145.275 29.9163 144.574 30.913 143.909 31.762C142.691 33.3494 142.064 34.9736 141.658 37.3361C141.584 38.0006 140.956 39.3295 140.329 40.3262C139.664 41.3229 138.704 42.9102 138.114 43.9069C137.56 44.9036 136.379 46.7124 135.456 47.9306C134.459 49.2964 133.5 51.1421 133.02 52.7295C132.171 55.3873 130.546 58.8942 130.03 59.1157C129.882 59.1895 129.734 59.411 129.734 59.5956C129.734 59.7432 129.328 60.7768 128.848 61.8473C127.335 65.1327 126.412 67.3845 126.412 67.7536C126.412 67.9751 125.932 68.7503 125.341 69.4886C124.751 70.2638 124.049 71.8512 123.68 73.2908C123.348 74.6197 122.573 76.8346 121.982 78.1635C121.355 79.4924 120.875 80.8952 120.875 81.2643C120.875 81.6335 120.247 83.2577 119.472 84.882C118.697 86.4693 117.922 88.3888 117.774 89.0902C117.626 89.7916 117.442 90.7513 117.331 91.1943C117.257 91.6373 116.667 92.9293 116.076 94.0367C115.448 95.1442 114.968 96.2516 114.968 96.5469C114.968 96.8053 114.747 97.4698 114.452 98.0235C114.156 98.5403 113.75 99.6108 113.492 100.423C113.233 101.198 112.864 102.01 112.717 102.232C111.019 104.373 108.914 115.226 109.727 117.588C109.911 118.068 109.874 119.84 109.653 121.575C109.431 123.31 109.357 125.709 109.505 126.928C109.764 129.364 109.985 131.8 110.354 135.972C110.502 137.485 110.945 140.143 111.388 141.878C111.794 143.613 112.126 145.348 112.089 145.754C112.052 146.123 112.237 146.714 112.495 147.009C112.79 147.341 112.938 148.929 112.901 151.697C112.827 155.241 112.717 156.053 112.052 157.124C110.945 158.932 105.26 164.063 103.377 164.949C101.458 165.872 99.5013 167.386 98.7999 168.53C97.1757 171.188 96.2897 177.943 97.2495 180.49C97.471 181.044 97.7294 183.259 97.8771 185.4C98.0616 188.944 98.0247 189.498 97.2495 191.159C96.8065 192.155 96.4005 193.152 96.3636 193.374C96.1421 194.555 94.8501 196.216 93.6319 196.88C92.8936 197.286 91.86 197.951 91.3432 198.357C90.8264 198.763 89.8297 199.317 89.0545 199.649C87.7994 200.129 87.6518 200.129 86.8396 199.501C86.2121 198.948 85.8429 198.874 85.2892 199.169C84.8463 199.428 84.108 199.391 83.0744 199.132C79.3829 198.209 75.2116 197.84 64.8386 197.656C63.3251 197.619 63.2513 197.582 62.4023 195.662C61.9224 194.629 61.2579 193.004 60.8888 192.082C60.0028 189.682 54.6871 184.625 49.3715 181.118C46.972 179.568 44.831 178.017 44.6095 177.685C44.3511 177.39 43.3175 176.245 42.2839 175.138C40.2167 172.96 39.3676 171.409 38.1495 167.386C37.4481 165.06 37.3373 163.768 37.2635 157.788C37.2266 154.023 37.0051 149.925 36.7836 148.707C36.5621 147.489 36.3037 145.532 36.193 144.351C35.9715 142.099 35.2332 138.888 34.2365 136.045C32.5385 131.062 26.3737 124.786 21.6118 123.199C20.1352 122.719 19.5077 122.276 18.6586 121.021C17.3297 119.065 14.3765 110.537 13.6383 106.625C13.3429 105 12.863 102.601 12.5677 101.272C11.8664 98.0604 11.165 89.3486 10.6851 78.0159C10.5744 75.4688 10.3898 72.5525 10.3159 71.5558C10.2421 70.5222 10.0575 67.3107 9.90989 64.3575C9.79914 61.4044 9.54075 58.3405 9.35618 57.5283C9.17159 56.7162 8.9132 55.7195 8.83936 55.3504C8.32256 53.0986 8.72863 39.551 9.43 35.8965C9.68841 34.5306 9.72532 33.5709 9.50382 33.1279C9.09777 32.3158 8.87629 29.621 8.87629 24.4161C8.83936 22.4227 8.72863 20.7985 8.54406 20.7985C8.3964 20.7985 8.28565 20.983 8.28565 21.2045C8.28565 21.3891 8.10108 21.4629 7.8796 21.3153C7.58428 21.1676 7.62119 20.983 7.95342 20.7985C8.21183 20.6139 8.47022 19.691 8.58097 18.6943Z" fill="black"/>
</svg>
