<svg width="146" height="100" viewBox="0 0 146 100" fill="none" xmlns="http://www.w3.org/2000/svg">
<path d="M0.110732 71.6618C0.59062 76.2022 1.99337 80.2259 3.54378 81.5179C3.94984 81.8502 4.17132 82.1455 4.02367 82.1824C3.06389 82.2193 7.41979 86.9074 9.85614 88.4948C11.5911 89.5653 15.3933 90.9311 17.7928 91.2264C18.7156 91.3741 19.7861 91.5956 20.1922 91.7801C20.5983 91.9278 21.5211 92.297 22.2225 92.5554C24.0313 93.1829 26.6522 94.2903 27.7597 94.881C28.7933 95.4347 31.7095 96.2099 33.666 96.4314C34.3674 96.5421 36.6191 96.9851 38.6494 97.465C44.6665 98.9046 48.5056 99.2738 57.4758 99.2738C66.7782 99.3107 72.7215 98.757 74.4565 97.7234C75.0471 97.3542 76.7452 96.579 78.1848 96.0253C81.0272 94.9548 83.5005 92.9983 83.5005 91.8171C83.5005 91.1526 83.6482 91.1526 84.8663 91.4479C85.6415 91.6694 86.5275 91.9278 86.8228 92.0385C87.1181 92.1493 88.041 92.2969 88.8531 92.3708C89.6652 92.4446 91.8063 92.6661 93.652 92.8507C98.0079 93.3306 103.065 93.3306 105.834 92.8876C107.052 92.703 109.784 92.3708 111.925 92.1862C117.166 91.6694 118.126 91.4848 120.046 90.4881C120.969 90.0452 122.851 89.1961 124.217 88.6055C126.211 87.7565 127.355 86.9074 129.939 84.3234C135.698 78.6017 138.208 75.3532 140.829 70.259C143.117 65.8293 143.597 64.3158 143.856 61.1781C143.929 60.4398 144.225 59.0001 144.557 58.0034C145.111 56.3053 145.369 49.5131 145.148 41.9825C145.111 39.7308 144.409 36.4085 143.597 34.5258C143.265 33.8244 142.748 32.5324 142.379 31.6096C140.755 27.3644 137.986 23.1193 134.627 19.6493C133.999 19.0217 133.261 18.062 133.003 17.5083C132.707 16.9176 131.563 15.5149 130.456 14.3705C128.278 12.0818 126.69 10.273 125.214 8.35347C124.18 7.02455 124.143 6.98763 120.969 4.36671C118.348 2.22567 117.757 1.89344 114.915 0.970575C112.072 0.0846278 108.898 -0.247598 107.2 0.195375C106.461 0.416862 104.394 0.749092 102.659 0.933664C100.924 1.11824 98.4139 1.63504 97.1219 2.07801C95.8299 2.52099 94.4272 2.96395 94.0211 3.03778C91.068 3.62841 88.3732 3.8499 85.5308 3.73916C83.6851 3.62842 81.6548 3.73916 80.9903 3.96065C80.1782 4.21905 79.6245 4.25596 79.3292 3.99756C78.4063 3.22236 70.2113 4.55128 65.0802 6.32318C63.5667 6.83998 61.9055 7.24604 61.3887 7.24604C58.1772 7.24604 47.3243 10.3468 47.3243 11.2697C47.3243 11.4174 46.7337 11.7496 45.9954 12.008C45.2571 12.2664 43.6698 13.4108 42.4516 14.5551C41.2334 15.7364 39.8676 16.8807 39.3877 17.176C38.9447 17.4713 38.2803 18.2096 37.9111 18.8003C37.542 19.3909 36.9883 20.203 36.656 20.5352C35.0687 22.3071 33.5552 24.7435 33.2599 26.0355C33.0753 26.8476 32.4847 28.2873 31.8941 29.284C31.3404 30.2437 30.9343 31.3512 31.0081 31.6834C31.2296 32.8278 30.3806 33.7875 28.9409 34.0459C27.2429 34.3412 25.2126 35.3379 18.531 39.1032C16.7222 40.1368 9.00711 47.0398 8.9702 47.7043C8.93328 47.9258 8.52722 48.4795 8.01042 48.9594C7.49362 49.4393 7.08757 50.0299 7.08757 50.2514C7.08757 50.7682 3.50686 56.7852 3.06389 57.0806C2.14103 57.6343 0.442965 63.8359 0.40605 66.7521C0.369136 67.8227 0.25839 68.8563 0.110732 69.0778C-0.0369261 69.2623 -0.0369261 70.4436 0.110732 71.6618ZM1.18124 70.3698C1.36581 70.3698 1.5504 70.5543 1.5504 70.7758C1.5504 70.9604 1.36581 71.0342 1.18124 70.9235C0.959756 70.8127 0.812102 70.6282 0.812102 70.5174C0.812102 70.4436 0.959756 70.3698 1.18124 70.3698ZM9.22861 64.4634C10.0776 61.9902 11.7388 58.7048 12.2187 58.3726C12.4402 58.2618 13.1415 57.1544 13.7691 55.9731C14.4704 54.6442 16.3162 52.3555 18.3465 50.2883C21.558 47.0029 22.0748 46.6338 26.6153 44.4189C31.082 42.204 31.6726 42.0195 33.5183 42.1302C35.5117 42.2409 35.5855 42.204 36.3976 40.8751C36.8775 40.1368 37.542 38.2911 37.9111 36.7776C38.5756 33.7875 38.6494 33.5291 39.1662 32.717C39.3508 32.4217 40.126 30.8344 40.8643 29.2101C42.4516 25.7402 44.0389 23.673 46.2538 22.1964C47.1398 21.6058 48.2103 20.8306 48.6163 20.4983C49.3546 19.8708 50.6835 19.0956 53.8951 17.3606C54.781 16.8807 56.11 16.4008 56.8483 16.2901C60.0229 15.7733 65.5601 14.5551 66.1138 14.2229C66.446 14.0383 67.9964 13.5953 69.5837 13.2262C71.9832 12.6355 72.5 12.5986 72.7215 13.0416C73.2752 14.0014 75.0102 14.1121 78.2956 13.4477C80.0305 13.0785 83.7958 12.7094 86.6382 12.5986C93.209 12.3402 93.9473 12.2295 97.8233 11.0482C99.9643 10.4207 102.216 10.0515 104.542 9.94079C106.461 9.86696 108.971 9.53473 110.116 9.23941C113.143 8.50112 113.217 8.50113 117.019 10.3099C117.942 10.7529 121.19 13.8168 123.627 16.5854C124.476 17.5452 125.361 18.3204 125.546 18.3204C125.768 18.3204 125.952 18.4311 125.952 18.5788C125.952 18.9848 129.57 23.4884 131.785 25.8878C132.375 26.4785 133.04 27.5121 133.298 28.1765C133.556 28.8041 134.147 29.69 134.627 30.133C135.107 30.576 136.104 32.6063 136.842 34.6366C138.208 38.328 138.208 38.3649 138.208 44.2712C138.245 50.7682 138.023 53.1676 137.174 57.4497C136.399 61.3257 135.624 63.5406 134.812 64.2789C134.406 64.648 134.073 65.1648 134.073 65.4601C134.073 65.7185 133.889 65.94 133.704 65.94C133.483 65.94 133.335 66.2353 133.335 66.6414C133.335 67.0105 132.892 67.7488 132.338 68.3025C131.822 68.8193 131.194 69.6684 130.936 70.1114C130.16 71.6248 125.14 77.3835 124.623 77.3835C124.328 77.3835 124.106 77.5312 124.106 77.6788C124.106 78.454 117.905 82.33 116.133 82.6623C115.727 82.7361 114.767 82.9945 113.955 83.216C113.143 83.4744 110.965 83.8066 109.156 84.0281C107.31 84.2127 104.689 84.5449 103.25 84.7295C99.8536 85.2094 91.9539 84.9141 88.6316 84.2127C87.0074 83.8805 85.4939 83.2898 84.7187 82.7361C83.8696 82.0347 82.9837 81.7394 81.8024 81.7025C80.3628 81.6287 79.9936 81.7763 79.2553 82.6623C78.7385 83.216 78.4432 83.9174 78.554 84.1758C78.8493 84.9879 77.0035 87.6088 75.4531 88.5686C73.3121 89.9344 72.2416 90.2297 67.0736 90.7096C62.8284 91.1526 47.5827 90.8942 46.2169 90.3774C45.7001 90.1928 44.1866 89.9344 42.8208 89.7868C41.4549 89.676 39.0186 89.2331 37.4313 88.827C35.8439 88.4209 33.9613 88.0149 33.2599 87.941C32.5585 87.8303 31.5619 87.6088 31.082 87.4242C30.196 87.0551 26.6522 85.9477 25.5448 85.6523C25.2495 85.5785 23.6622 85.0248 22.0379 84.4711C20.4137 83.8805 18.1988 83.2529 17.0914 83.1053C15.0611 82.8469 11.8864 81.6287 11.8864 81.1119C11.8864 80.9642 11.5542 80.4843 11.1481 80.0413C9.63465 78.454 8.4534 75.7224 8.23192 73.5075C7.9366 70.5174 8.34266 66.9367 9.22861 64.4634Z" fill="black"/>
</svg>
