<svg width="191" height="187" viewBox="0 0 191 187" fill="none" xmlns="http://www.w3.org/2000/svg">
<path d="M0.265437 79.8522C0.450008 80.5904 1.66818 82.1778 3.32933 83.9127C4.84283 85.4631 6.09791 86.8659 6.09791 87.0136C6.09791 87.1612 6.31941 87.3089 6.54089 87.3089C6.7993 87.3458 8.0913 88.1948 9.34639 89.2653C10.6384 90.3359 12.3734 91.7017 13.1855 92.2923C16.1387 94.4703 17.9844 100.044 16.7662 102.998C15.6957 105.655 15.6588 106.467 16.6185 109.347C17.0984 110.86 18.0213 112.891 18.6119 113.924C19.2395 114.921 19.7563 115.881 19.7563 116.065C19.7563 116.25 19.9777 116.656 20.2362 116.914C20.4945 117.173 21.2328 118.243 21.8973 119.314C23.2631 121.455 26.5485 124.297 29.2433 125.7C30.2031 126.217 31.6427 126.992 32.381 127.435C33.8945 128.358 36.9953 128.616 38.5826 127.989C39.0994 127.804 40.133 127.693 40.8713 127.767C41.6465 127.878 43.4184 127.546 45.1165 127.029C46.7038 126.549 48.6972 126.032 49.5831 125.884C50.9859 125.663 51.2443 125.737 52.2041 126.77C52.7947 127.398 53.3853 128.321 53.4961 128.875C53.7914 130.019 52.9423 133.12 51.5027 136.073C50.949 137.254 50.506 138.251 50.5798 138.251C50.6537 138.251 50.3214 139.137 49.8415 140.17C49.3247 141.241 48.9187 142.422 48.9187 142.791C48.9187 143.16 48.6972 143.825 48.4019 144.268C47.6267 145.449 46.7038 149.399 46.4454 152.426C46.2978 154.567 46.3716 155.158 46.8515 155.564C47.1837 155.822 47.4421 156.228 47.4421 156.413C47.4421 157.262 50.2845 159.55 51.6873 159.846C55.3418 160.547 60.5467 159.993 63.2415 158.628C64.1274 158.148 64.6073 158.111 65.0872 158.406C65.7517 158.849 66.9698 163.353 67.0068 165.494C67.0068 167.745 68.4464 169.702 70.9566 170.92C71.658 171.252 72.5808 172.212 73.1346 173.172C73.6883 174.095 74.4635 174.981 74.9065 175.128C75.3125 175.313 77.8965 175.461 80.6651 175.498C83.3968 175.534 85.7962 175.719 85.9808 175.94C86.2023 176.125 86.6083 176.273 86.9037 176.273C87.4574 176.273 89.783 177.86 92.2563 179.964C94.4711 181.884 96.5752 183.213 97.8303 183.508C98.421 183.656 99.0854 183.877 99.3069 183.988C99.4915 184.099 100.599 184.394 101.706 184.615C102.814 184.837 104.77 185.317 106.062 185.649C108.794 186.387 112.19 186.055 115.143 184.726C118.761 183.139 119.868 182.179 121.935 178.672C122.748 177.232 124.113 175.387 124.926 174.538C125.738 173.689 126.734 172.36 127.14 171.585C128.026 169.96 128.802 168.89 129.171 168.89C129.318 168.89 129.798 168.484 130.241 168.004C132.087 166.01 137.255 164.94 139.987 165.974C140.54 166.195 141.094 166.343 141.205 166.38C141.316 166.38 141.537 166.49 141.759 166.675C141.943 166.823 143.42 167.266 145.007 167.598C147.813 168.225 151.504 168.152 152.464 167.45C152.981 167.044 155.934 166.047 157.373 165.752C158.075 165.604 159.035 165.014 159.588 164.423C160.105 163.833 161.397 162.651 162.468 161.839C164.609 160.178 165.531 158.332 166.344 154.05C166.787 151.651 166.75 151.466 165.642 147.959C164.978 145.966 164.461 143.677 164.461 142.902C164.461 140.503 168.189 133.821 169.481 133.821C169.703 133.821 170.478 133.415 171.216 132.935C171.918 132.455 173.062 131.938 173.726 131.791C174.428 131.643 175.609 131.126 176.384 130.646C177.16 130.13 178.636 129.613 179.67 129.502C180.851 129.354 182.18 128.875 183.287 128.136C184.247 127.509 185.539 126.734 186.13 126.401C187.68 125.552 190.227 120.864 190.338 118.686C190.449 116.804 190.006 113.887 189.6 113.887C189.452 113.887 189.046 113.37 188.677 112.78C187.865 111.377 186.831 110.307 184.948 108.904C180.851 105.877 179.301 102.961 180.777 101.078C180.962 100.856 181.995 100.377 183.103 100.044C184.69 99.5275 185.207 99.1584 185.687 98.1986C186.204 97.0543 187.939 91.5171 188.345 89.6345C188.566 88.7485 187.865 86.4229 187.2 85.7215C186.979 85.5001 186.314 84.6879 185.761 83.9496C185.17 83.1375 184.21 82.4361 183.324 82.1408C182.512 81.8824 181.737 81.4026 181.626 81.0703C181.478 80.7381 181.294 78.9662 181.183 77.1574C181.109 75.3117 180.925 73.5767 180.814 73.2814C180.666 72.9861 180.629 71.3249 180.666 69.5899C180.777 66.12 179.596 59.3277 178.71 57.9988C178.415 57.5927 177.492 56.4853 176.68 55.5624C175.831 54.6396 175.166 53.7905 175.166 53.6429C175.166 53.4952 173.579 51.7972 171.622 49.8407C168.964 47.2567 167.672 46.2231 166.528 45.8908C165.716 45.6324 163.501 44.6727 161.692 43.7498C158.444 42.1256 158.333 42.0517 157.189 39.6892C155.786 36.8837 155.675 35.5179 156.561 30.276L157.189 26.5846L156.044 23.0039C154.383 17.9097 153.239 15.8056 150.876 13.5538C147.739 10.6375 144.638 9.41934 140.06 9.41934C137.661 9.41934 133.49 10.5268 132.345 11.4496C132.05 11.7081 130.537 12.2987 129.023 12.7417C127.51 13.1846 125.479 13.9598 124.519 14.4766C122.785 15.3626 122.748 15.3626 121.825 14.6981C121.345 14.329 120.902 13.9229 120.902 13.7383C120.902 13.5907 120.68 13.4799 120.422 13.4799C119.425 13.4799 117.284 10.4899 115.918 7.20449C114.922 4.87888 113.999 3.36538 113.297 2.95932C112.928 2.77475 111.932 2.1472 111.12 1.63041C108.794 0.116916 106.468 -0.28915 102.629 0.190739C100.82 0.41222 99.1592 0.74445 98.9378 0.92902C98.6794 1.11361 98.1995 1.33509 97.7934 1.40891C96.6122 1.59349 93.4744 2.88549 92.4408 3.54996C91.924 3.9191 91.075 4.32515 90.5213 4.4359C89.5984 4.69431 88.8601 5.35877 83.9505 10.5268C82.88 11.6342 81.9571 12.5202 81.8833 12.4833C81.7356 12.3725 78.3395 10.5268 76.7153 9.67775C76.0508 9.34553 74.6111 8.79181 73.5406 8.4965C72.507 8.20118 70.6982 7.72129 69.5908 7.38906C68.4833 7.09374 66.6376 6.79842 65.5302 6.79842C63.3891 6.79842 59.2178 7.64747 57.1506 8.4965C56.4861 8.79181 55.9324 8.93947 55.9324 8.86564C55.9324 8.34884 50.5429 11.5235 48.8079 13.0739C47.6267 14.1075 46.5561 14.9565 46.4085 14.9565C46.2608 14.9565 45.8179 15.7317 45.4487 16.7284C45.0427 17.6882 44.3413 19.0909 43.8614 19.8292C43.3815 20.6044 43.0862 21.232 43.1969 21.232C43.603 21.232 42.2741 23.4099 41.6834 23.7422C41.3512 23.9267 40.4653 23.9637 39.727 23.7791C36.9584 23.1885 35.1865 23.1146 33.8576 23.6314C33.0824 23.8898 32.0119 24.2221 31.4212 24.3697C30.4245 24.5912 27.1022 26.1047 24.9612 27.3229C23.8907 27.9135 20.4945 31.2358 20.4945 31.6788C20.4945 31.8264 19.7563 33.4507 18.8703 35.2226C17.9844 36.9945 17.1353 38.9878 16.9877 39.6892C16.84 40.3906 16.6185 41.055 16.4709 41.1658C16.3601 41.2765 15.991 42.3471 15.6588 43.5652C15.2527 45.2264 15.1789 46.5553 15.3634 48.9178C15.7695 53.6429 15.7326 59.2539 15.2896 60.8412C15.0681 61.7271 14.6252 62.3547 14.1083 62.5393C13.6654 62.7238 12.7056 63.3883 12.0042 64.0158C10.6015 65.234 6.91003 67.7442 6.50398 67.7442C6.35632 67.7442 5.69186 68.3348 4.99049 69.0362C4.2891 69.7376 3.47698 70.3282 3.2555 70.3282C2.9971 70.3282 2.51722 70.7712 2.14807 71.3249C1.77893 71.9155 1.18829 72.6907 0.856059 73.0599C0.486918 73.4659 0.154689 74.3888 0.154689 75.0902C0.117778 75.8285 0.0439405 76.899 0.00702956 77.5265C-0.0298814 78.1172 0.0808669 79.1877 0.265437 79.8522ZM9.67861 74.6472C10.2693 73.9458 11.3398 72.9491 12.115 72.4693C15.6219 70.3282 17.5783 68.9624 18.7596 67.8549C19.4609 67.2274 20.1254 66.7475 20.1992 66.8583C20.31 66.9321 21.0483 66.4153 21.8604 65.7139C23.9645 63.942 24.2229 62.5762 24.186 53.606C24.1491 46.5922 24.4813 42.7162 25.2565 41.7564C25.4411 41.5349 25.7733 40.5013 25.9579 39.4677C26.4009 37.3636 27.5083 35.2595 28.948 33.6722C32.3441 29.9438 33.0455 29.6854 39.3578 29.9807C43.4184 30.1653 43.7876 30.1284 45.744 29.2424C46.8884 28.7256 47.8112 28.3934 47.8112 28.5041C47.8112 28.6518 48.2173 28.3565 48.6972 27.9135C49.5462 27.1383 50.9121 24.5543 52.4625 20.8628C53.2008 19.0171 54.9726 16.5438 56.117 15.6948C57.0029 15.0304 60.5836 13.8491 61.728 13.8491C62.171 13.8491 62.6509 13.6645 62.7616 13.4799C62.8723 13.2585 63.7214 13.1108 64.6442 13.1108C66.4161 13.1108 71.5103 14.1444 71.8056 14.5505C71.9164 14.6981 72.507 15.0304 73.1346 15.2518C73.7252 15.5102 74.648 16.1009 75.1649 16.5438C76.0508 17.3929 79.5208 18.648 81.5511 18.9064C84.7257 19.2755 88.7863 16.6915 92.6623 11.8926C94.2127 9.93616 98.0149 6.83535 98.827 6.83535C99.1223 6.83535 99.4915 6.68769 99.6761 6.50312C100.193 6.06014 103.552 4.98961 104.512 4.98961C106.025 4.98961 107.539 6.2078 108.536 8.275C110.787 12.8155 112.19 14.5505 115.992 17.356C117.063 18.1681 117.949 18.9064 117.949 19.054C117.949 19.7185 120.68 20.5306 122.674 20.4568C124.704 20.383 128.654 19.2386 128.654 18.7218C128.654 18.4634 133.084 16.2854 135.852 15.1411C136.701 14.8089 137.956 14.5505 138.621 14.5874C139.322 14.5874 140.245 14.5874 140.614 14.6243C141.537 14.6243 145.376 18.648 146.336 20.6044C147.665 23.373 148.182 26.9906 147.96 32.454C147.813 36.9944 148.255 40.7228 149.178 42.9008C149.474 43.5283 149.695 44.3035 149.695 44.6357C149.695 45.4848 154.42 48.1795 160.253 50.6528C161.803 51.3173 167.82 57.2236 169.407 59.6599C170.515 61.3211 170.81 62.1701 170.921 64.0158C171.032 65.3078 171.216 66.4891 171.327 66.6737C171.844 67.5596 172.213 71.8786 171.807 72.6169C170.995 74.1304 171.29 76.05 173.062 81.218C173.468 82.4362 174.169 83.7651 174.649 84.1711C175.092 84.5772 175.572 85.3155 175.683 85.8323C175.794 86.3491 176.015 86.9397 176.163 87.1612C176.606 87.7149 179.042 89.1546 179.633 89.1546C180.925 89.1915 181.22 89.7821 180.703 91.3325C180.297 92.6245 180.039 92.846 178.341 93.3998C176.126 94.138 175.314 94.7656 174.391 96.6113C173.985 97.3865 173.505 98.0141 173.32 98.0141C172.693 98.0141 173.025 100.746 173.874 102.628C174.354 103.625 174.945 105.139 175.203 105.951C175.461 106.763 176.163 108.129 176.717 108.978C177.27 109.827 177.75 110.676 177.75 110.86C177.75 111.229 179.264 112.632 181.368 114.219C182.475 115.069 182.992 116.471 182.18 116.471C181.958 116.471 181.811 116.693 181.811 116.951C181.811 117.689 180.334 119.24 179.042 119.867C178.415 120.2 176.938 120.975 175.757 121.602C174.539 122.23 173.357 122.747 173.136 122.747C172.914 122.747 171.918 123.153 170.921 123.633C169.961 124.149 168.337 124.74 167.303 124.999C166.27 125.22 165.052 125.774 164.609 126.217C164.129 126.66 163.538 127.176 163.28 127.398C162.283 128.284 161.471 129.465 160.29 131.865C157.816 136.811 157.189 139.801 157.89 143.16C158.075 144.157 158.296 145.154 158.333 145.375C158.37 145.634 158.628 146.446 158.887 147.258C159.81 149.953 158.739 154.161 156.967 154.899C156.34 155.158 155.195 156.007 154.383 156.745C152.574 158.48 149.843 159.366 146.004 159.44C143.641 159.477 142.94 159.329 141.316 158.443C139.691 157.631 138.916 157.446 136.701 157.446C133.157 157.446 129.651 158.037 128.322 158.849C127.325 159.44 125.996 160.51 122.932 163.057C122.268 163.611 121.197 165.014 120.496 166.158C119.794 167.302 118.724 168.853 118.096 169.591C117.469 170.329 116.583 171.585 116.103 172.397C114.811 174.575 113.63 175.571 110.824 176.974C108.499 178.118 108.129 178.192 106.025 177.934C104.77 177.823 103.183 177.454 102.518 177.159C101.817 176.863 100.931 176.642 100.562 176.642C100.156 176.642 99.8606 176.494 99.8606 176.31C99.8606 176.088 99.1593 175.83 98.2733 175.719C97.0551 175.534 96.3168 175.091 95.1356 173.91C94.2866 173.024 92.9576 171.991 92.1824 171.621C91.4441 171.252 90.3736 170.625 89.783 170.256C87.9742 169.037 84.7626 168.115 81.6618 167.967C78.8932 167.782 78.561 167.709 77.7858 166.786C76.826 165.568 76.3092 163.906 76.1985 161.322C76.0877 159.477 74.242 155.084 73.2453 154.235C72.95 154.013 71.3996 153.386 69.7754 152.832C66.0101 151.54 62.0971 151.466 59.4393 152.647C58.8118 152.906 57.7782 153.349 57.1137 153.644C56.4123 153.939 55.7848 154.124 55.7109 154.013C55.6002 153.939 55.7109 152.5 55.8955 150.839C56.2647 148.07 56.8922 146.224 59.2916 140.946C59.6608 140.06 59.993 139.211 59.993 138.989C59.993 138.805 60.5836 137.402 61.285 135.888C62.6139 133.083 62.7616 131.975 62.3555 128.875C62.1341 127.435 61.7649 126.734 60.2145 125.072C57.7781 122.451 56.117 121.381 53.2746 120.716C50.8382 120.163 45.6702 120.273 43.603 120.938C42.8647 121.159 42.4217 121.159 42.2741 120.864C42.1264 120.643 41.2774 120.495 40.3914 120.569C37.992 120.68 34.559 118.871 31.3843 115.844C28.5788 113.112 25.6626 108.719 25.6626 107.132C25.6626 106.615 25.5149 106.098 25.3303 105.951C25.1089 105.84 25.1089 105.286 25.3673 104.548C26.6962 100.266 27.0653 95.3562 26.1794 93.2152C25.5518 91.7386 22.7832 88.97 19.9777 87.0874C18.9441 86.386 17.5045 85.3524 16.7662 84.7987C16.0648 84.245 14.5882 83.1744 13.5177 82.3623C11.4505 80.8119 8.68193 77.5265 8.68193 76.5668C8.68193 76.2345 9.1249 75.3855 9.67861 74.6472Z" fill="black"/>
</svg>
