<svg width="30" height="87" viewBox="0 0 30 87" fill="none" xmlns="http://www.w3.org/2000/svg">
<path d="M0.55796 29.118C1.30514 29.997 2.20615 30.1508 4.40373 29.6893C6.49143 29.2718 8.3374 28.5686 9.89768 27.6016L10.9745 26.9424L10.9745 42.3914C10.9745 50.874 11.0844 60.8291 11.1943 64.521C11.3261 68.2129 11.5019 74.52 11.6118 78.5416C11.7656 83.7498 11.8975 85.9474 12.0953 86.1892C12.293 86.4529 12.8424 86.4968 14.6884 86.4529C16.908 86.3869 17.0178 86.365 17.2596 85.8375C17.4793 85.42 17.5892 79.4426 17.787 61.774C17.9188 48.8303 18.0068 35.6228 18.0068 32.3704C18.0068 29.14 18.0727 26.5029 18.1386 26.5029C18.2045 26.5029 19.0836 26.9424 20.0505 27.4698C23.0612 29.118 27.3465 30.3047 28.8628 29.9311C29.566 29.7553 29.9616 28.7664 29.6539 27.9313C29.5221 27.6016 28.8848 26.5688 28.2475 25.6458C23.3029 18.5916 19.567 10.7242 17.7211 3.40628C17.0618 0.835107 16.886 0.483495 16.0509 0.131882C15.1938 -0.219731 14.0511 0.153858 13.3259 0.988938C13.0402 1.34055 12.5348 2.5712 12.1832 3.77987C10.513 9.66938 8.35937 15.1414 6.4255 18.3279C4.51361 21.4924 2.338 24.6349 1.15131 25.9095C-0.189217 27.3819 -0.321072 28.0631 0.55796 29.118ZM8.35937 22.5252C10.7547 19.119 12.6227 15.3831 14.2928 10.6143C14.5785 9.80124 14.8862 9.14196 14.9521 9.14196C15.018 9.14196 15.2598 9.60346 15.4795 10.1748C16.6442 13.2514 20.0065 19.2069 22.9733 23.4043C23.9622 24.8107 24.7313 25.9754 24.7094 26.0194C24.5775 26.1732 21.8525 24.8766 19.6989 23.646C17.2156 22.2176 16.5563 22.0637 15.8971 22.7889C15.5015 23.2285 15.4795 23.8658 15.4795 41.5343C15.5015 51.5773 15.6114 62.9168 15.7652 66.7186C15.8971 70.5204 16.0729 76.1462 16.1608 79.1789L16.3146 84.7388L14.7324 84.7388L13.1721 84.7388L13.1721 80.7172C13.1721 78.5196 13.282 70.2787 13.3918 62.4333C13.5017 54.566 13.6116 42.5232 13.6555 35.6448L13.6995 23.1625L13.0842 22.6131C12.2711 21.9319 11.6997 22.0637 10.0955 23.2944C8.64506 24.4371 6.46945 25.5799 6.64526 25.1404C6.71119 24.9645 7.48034 23.7998 8.35937 22.5252Z" fill="#2042AD"/>
</svg>
