<svg width="119" height="121" viewBox="0 0 119 121" fill="none" xmlns="http://www.w3.org/2000/svg">
<path d="M13 17.5L2.5 47.5L7.5 76.5V107L16.5 118L77 114.5L107 112.5V85L114 47.5L112 16L90.5 4.5L32 7L13 17.5Z" fill="#2042AD" stroke="black"/>
<path d="M118.835 25.5796C118.627 22.3638 117.971 19.8392 117.047 18.7572C116.749 18.4266 116.51 17.9457 116.51 17.7053C116.51 17.4648 116.302 16.9539 116.034 16.5933C115.795 16.2326 115.646 15.9321 115.765 15.9321C115.855 15.9321 115.735 15.5413 115.467 15.0304C115.199 14.5495 114.871 14.1288 114.722 14.1288C114.543 14.1288 114.424 13.9485 114.424 13.7381C114.424 13.4976 114.096 13.0168 113.679 12.626C113.262 12.2353 112.934 11.7545 112.934 11.5741C112.934 10.372 107.241 5.86375 103.873 4.36102C102.234 3.63971 98.5979 2.40747 97.5845 2.2572C97.2567 2.19709 95.3194 1.80638 93.2629 1.41567C91.2063 0.994901 88.9412 0.574136 88.1961 0.483972C86.9145 0.303644 86.8847 0.303644 87.6 0.724409C88.0173 0.994901 88.7624 1.20528 89.2392 1.23534C89.8651 1.26539 89.9546 1.3255 89.5075 1.41567C89.1796 1.47578 88.1365 1.41567 87.2125 1.26539C86.0502 1.08506 85.4839 1.08506 85.3945 1.3255C85.3348 1.50583 85.2454 1.35556 85.2454 0.994901C85.2156 0.514027 85.0368 0.303644 84.6195 0.303644C84.2917 0.303644 84.0234 0.453917 84.0234 0.634245C84.0234 0.814573 83.8148 0.874682 83.5466 0.784518C83.3081 0.694354 83.1889 0.724409 83.2783 0.904737C83.3677 1.08506 83.2485 1.20528 82.9803 1.20528C82.6524 1.20528 82.5332 1.05501 82.6226 0.784518C82.8611 0.21348 82.4736 0.0932614 79.7018 0.033152C77.1982 -0.057012 76.7511 0.183425 78.9865 0.423862C79.7018 0.483972 80.3873 0.574136 80.5363 0.574136C80.6555 0.60419 80.7449 0.754463 80.7449 0.934791C80.7449 1.08506 80.6257 1.17523 80.5065 1.08506C80.1787 0.874682 72.5785 0.544081 69.5682 0.574135C68.2568 0.60419 67.0647 0.754463 66.9156 0.904736C66.7666 1.05501 66.4388 1.05501 66.0811 0.874681C65.7831 0.724408 65.3658 0.664299 65.187 0.784517C65.0081 0.904736 64.9485 0.874681 65.038 0.694354C65.3062 0.243534 62.5344 0.0030966 61.9979 0.423862C61.7296 0.604189 61.6402 0.634244 61.7296 0.453916C61.8489 0.273588 61.2826 0.15337 60.299 0.15337C59.4049 0.15337 58.6896 0.243534 58.6896 0.333698C58.6896 0.453916 58.481 0.634244 58.2127 0.724408C57.8551 0.844626 57.7656 0.784517 57.9147 0.453916C58.0935 -0.0570129 57.6464 -0.177231 57.3484 0.303643C57.259 0.483971 56.8417 0.604189 56.4244 0.604189C55.9476 0.604189 55.7389 0.724408 55.888 0.93479C56.0072 1.17523 55.888 1.20528 55.4409 1.05501C54.964 0.904736 54.815 0.9949 54.7852 1.41566C54.7852 1.83643 54.7256 1.86648 54.5766 1.50583C54.3381 0.964845 53.6228 0.754462 53.6228 1.23534C53.6228 1.41566 53.3546 1.50583 53.0267 1.41566C52.6989 1.3255 52.4306 1.35556 52.4306 1.44572C52.4306 1.56594 52.073 1.6561 51.6259 1.68616C49.4204 1.77632 47.7811 1.9867 47.6321 2.22714C47.5129 2.34736 47.185 2.34736 46.887 2.16703C46.4995 1.95665 46.1419 1.9867 45.6054 2.34736C44.8603 2.82823 44.8603 2.82823 45.2775 2.28725C45.6948 1.74627 45.665 1.71621 44.9199 1.92659C44.4132 2.04681 44.0854 1.9867 44.0854 1.83643C44.0854 1.6561 43.8767 1.59599 43.6383 1.68616C43.3999 1.80637 43.2508 1.9867 43.3402 2.10692C43.3999 2.22714 43.072 2.28725 42.5951 2.22714C42.0885 2.16703 41.701 2.25719 41.701 2.43752C41.701 2.61785 41.5818 2.6479 41.4029 2.55774C41.2539 2.46758 41.1049 2.49763 41.1049 2.67796C41.1049 2.85829 40.8069 3.12878 40.4492 3.30911C39.7935 3.63971 39.7935 3.60965 40.33 3.18889C41.0453 2.5878 40.6876 2.13698 39.9127 2.6479C39.5849 2.85829 38.9888 3.00856 38.6013 3.00856C38.1841 3.00856 37.7668 3.15883 37.6774 3.30911C37.588 3.48943 37.1111 3.54954 36.6342 3.45938C35.8891 3.33916 35.7997 3.39927 35.8891 3.9102C35.9487 4.2408 35.8891 4.51129 35.7103 4.51129C35.5613 4.51129 35.442 4.36102 35.442 4.18069C35.442 3.94025 35.3228 3.94025 35.0844 4.15064C34.1008 4.96211 30.0772 5.5632 30.5243 4.84189C30.7031 4.51129 27.3054 5.11238 26.8583 5.50309C26.5901 5.71348 26.5305 5.68342 26.6795 5.29271C26.9477 4.5714 26.0536 4.69162 24.772 5.5632C24.1759 5.98397 23.5202 6.31457 23.3414 6.31457C23.1328 6.31457 22.9241 6.43479 22.8645 6.55501C22.8347 6.67523 22.179 7.09599 21.4339 7.45665C20.4504 7.93752 20.0629 8.02768 19.8841 7.72714C19.735 7.45665 19.5264 7.57686 19.1688 8.05774C18.7813 8.59872 18.5131 8.71894 17.917 8.56867C17.2613 8.41839 17.2017 8.44845 17.5295 8.83916C17.8872 9.25992 17.8276 9.32003 17.3209 9.32003C16.993 9.32003 16.546 9.59053 16.3373 9.95118C16.0989 10.2818 15.7114 10.6124 15.473 10.6424C15.2346 10.7025 14.4596 10.973 13.7741 11.2736C12.7906 11.6944 12.5522 11.9047 12.8204 12.2053C13.0588 12.5058 12.9396 12.5659 12.1051 12.4157C11.4494 12.3255 11.0023 12.3856 10.8533 12.626C10.6745 12.8965 10.7341 12.9566 11.0321 12.8064C11.2706 12.6862 11.1811 12.8064 10.8831 13.0468C10.5553 13.3173 10.1678 13.5277 10.0188 13.5277C9.89955 13.5277 9.86975 13.678 9.95916 13.8282C10.0486 14.0086 9.86975 14.1288 9.5419 14.1288C9.18424 14.1288 8.916 14.3392 8.916 14.5796C8.916 14.82 8.58815 15.0905 8.17089 15.2107C7.66421 15.331 7.42577 15.6015 7.42577 16.0523C7.42577 16.9239 6.97871 17.6151 6.71046 17.1643C6.59125 16.984 6.65086 16.8337 6.82968 16.8337C7.00851 16.8337 7.06812 16.7135 6.97871 16.5331C6.68066 16.0823 5.57789 17.2845 5.13082 18.5468C4.68376 19.8993 4.62415 21.0413 5.04141 21.0413C5.22024 21.0413 5.33946 21.3419 5.33946 21.7025C5.33946 22.3337 5.33946 22.3337 4.86258 21.7627C4.41551 21.2217 4.41551 21.2517 4.83278 21.943C5.22024 22.6342 5.19043 22.9348 4.44532 25.249C3.34255 28.7954 2.92529 29.7572 2.62724 29.7572C2.47822 29.7572 2.41861 30.0878 2.53783 30.4785C2.62724 30.8692 2.56763 31.4703 2.38881 31.8009C2.18017 32.2217 2.15037 32.4922 2.359 32.6124C2.77626 32.8528 2.74646 34.8665 2.3292 34.8665C2.15037 34.8665 2.06096 35.0468 2.12056 35.2572C2.18017 35.4375 1.94174 35.9484 1.55428 36.3392C0.77936 37.1807 0.600533 36.8501 1.37545 36.0086C1.82252 35.4976 1.82252 35.4676 1.40526 35.6178C0.689947 35.8883 0.600533 36.3993 0.838969 38.3228C0.958187 39.2545 1.0178 40.3665 0.928383 40.7572C0.838969 41.208 0.928383 41.4785 1.16682 41.4785C1.37545 41.4785 1.46486 41.2381 1.37545 40.8774C1.28604 40.5468 1.34565 40.2162 1.46486 40.126C1.58408 40.0359 1.76291 40.667 1.82252 41.4785C1.88213 42.5605 1.79271 42.9812 1.52447 42.9812C1.31584 42.9812 1.22643 42.861 1.31584 42.6807C1.40526 42.5304 1.31584 42.3801 1.10721 42.3801C0.838969 42.3801 0.838969 42.29 1.16682 42.0796C1.55428 41.8392 1.55428 41.779 1.13701 41.779C0.749555 41.779 0.660142 42.0796 0.689946 43.1315C0.719751 44.0031 0.838969 44.484 1.10721 44.484C1.31584 44.484 1.61389 44.7845 1.73311 45.1752C1.94174 45.7162 1.88213 45.8965 1.34565 46.137C0.719751 46.4075 0.660142 46.678 0.600532 49.3829C0.570728 51.2162 0.660141 52.2982 0.868773 52.2982C1.0178 52.2982 1.13701 52.208 1.0774 52.0577C1.0476 51.9375 1.10721 51.8173 1.25623 51.7572C1.37545 51.7271 1.46486 51.7572 1.46486 51.8474C1.46486 51.9375 1.46486 52.1479 1.46486 52.2982C1.46486 52.4785 1.25623 52.5987 1.0178 52.5987C0.77936 52.5987 0.570728 52.8692 0.570728 53.1698C0.570728 53.5004 0.421705 53.861 0.242878 53.9812C0.00444142 54.1015 0.034246 54.2517 0.302487 54.4321C0.600532 54.6124 0.630337 54.7025 0.362096 54.7025C-0.144581 54.7025 -0.114777 55.8747 0.421705 56.8064C0.660141 57.2271 0.838968 58.0987 0.868773 58.7599C0.868773 59.4211 1.0774 60.2627 1.31584 60.6233C1.64369 61.1042 1.6735 61.2845 1.37545 61.4047C1.13701 61.4648 1.0178 62.2463 1.0178 63.8091C1.0178 65.8228 1.0774 66.1233 1.61389 66.2435C2.03115 66.3637 2.09076 66.484 1.85232 66.6643C1.64369 66.7845 1.49467 67.2353 1.49467 67.626C1.46486 69.2189 1.49467 69.9403 1.58408 71.1725C1.64369 71.8637 1.55428 72.4348 1.43506 72.4348C1.0178 72.4348 1.13701 74.2381 1.55428 74.3883C2.00134 74.5687 2.20998 83.1342 1.76291 83.4047C1.58408 83.525 1.46486 83.7954 1.46486 84.0359C1.46486 84.3064 1.61389 84.3965 1.82252 84.2763C2.06095 84.126 2.09076 84.2763 1.97154 84.7872C1.85232 85.178 1.76291 86.32 1.7331 87.3118C1.7033 88.3036 1.61389 88.8146 1.55428 88.4539C1.34564 87.4321 0.958185 87.6124 1.10721 88.6643C1.19662 89.2353 1.34564 89.4758 1.58408 89.3556C1.82252 89.2053 1.82252 89.2654 1.58408 89.596C1.34564 89.8665 1.31584 90.4375 1.46486 91.2189C1.58408 91.8801 1.7331 92.3009 1.76291 92.1206C1.91193 91.4293 2.26958 94.3446 2.32919 96.7189C2.359 98.1315 2.44841 99.3938 2.53783 99.5441C2.62724 99.6643 2.50802 99.7845 2.29939 99.7845C2.06095 99.7845 1.91193 100.175 1.91193 100.806C1.91193 101.377 2.00134 101.768 2.15037 101.678C2.26958 101.618 2.3888 101.918 2.41861 102.399C2.44841 102.85 2.47822 103.451 2.53783 103.692C2.56763 103.932 2.62724 104.413 2.65704 104.744C2.68685 105.315 2.71665 105.315 2.92528 104.774C3.10411 104.293 3.22333 104.443 3.52137 105.555C3.73001 106.306 3.93864 107.599 3.96844 108.44C4.02805 109.642 3.96844 109.913 3.61079 109.763C3.31274 109.672 3.22333 109.763 3.31274 110.033C3.40216 110.274 3.75981 110.424 4.11747 110.424C4.59434 110.394 4.74336 110.514 4.62414 110.815C4.53473 111.055 4.44532 111.356 4.44532 111.446C4.44532 111.566 4.29629 111.446 4.14727 111.205C3.90883 110.815 3.84922 110.845 3.84922 111.295C3.84922 111.596 4.05786 111.806 4.38571 111.806C4.77317 111.806 4.80297 111.866 4.47512 112.077C4.20688 112.257 4.17707 112.498 4.3261 112.738C4.47512 112.979 4.62414 113.58 4.65395 114.06C4.77317 115.924 5.45867 117.276 6.91909 118.479C7.72381 119.11 8.67756 119.681 9.00541 119.741C9.36306 119.801 10.4062 120.011 11.3004 120.192C13.8636 120.703 23.252 121.244 23.1328 120.883C23.0732 120.703 23.3712 120.492 23.6096 120.552C24.3547 120.763 25.0104 120.763 24.8614 120.522C24.772 120.342 24.9806 120.222 25.3681 120.222C25.9046 120.222 25.9642 120.282 25.6065 120.522C25.3681 120.672 25.3085 120.823 25.4873 120.823C25.6363 120.823 25.9344 120.672 26.1132 120.492C26.5305 120.071 29.7792 119.861 29.7792 120.252C29.7792 120.402 30.1368 120.522 30.5541 120.522C31.1502 120.522 31.2992 120.402 31.1502 120.041C31.031 119.741 31.0906 119.651 31.3588 119.831C31.9549 120.192 35.144 120.192 35.144 119.801C35.144 119.621 35.2632 119.651 35.4122 119.891C35.6209 120.192 35.7997 120.222 36.3064 119.921C36.664 119.741 37.1111 119.651 37.3197 119.711C37.5284 119.771 37.9158 119.711 38.2139 119.56C38.5715 119.38 38.7205 119.41 38.7205 119.681C38.7205 119.951 38.8099 119.951 39.0782 119.681C39.5551 119.2 40.5088 119.23 40.5088 119.711C40.5088 119.981 40.5684 119.981 40.7472 119.711C40.8665 119.53 41.5818 119.32 42.3567 119.26C43.1316 119.17 43.6979 119.23 43.6085 119.38C43.5191 119.5 43.8171 119.621 44.2344 119.621C44.6516 119.621 44.9497 119.5 44.8603 119.35C44.7709 119.2 45.0093 119.11 45.4266 119.11C45.8438 119.11 46.1121 119.17 46.0525 119.29C45.963 119.41 46.1717 119.5 46.4995 119.5C46.7976 119.5 47.0658 119.35 47.0658 119.17C47.0658 118.989 47.185 119.019 47.3042 119.23C47.5129 119.591 48.5858 119.621 48.8541 119.29C48.9435 119.17 50.7616 119.019 52.8777 118.899C55.0236 118.809 57.8849 118.569 59.2857 118.418C60.6865 118.268 62.8026 118.118 63.9948 118.118C65.3062 118.118 66.1109 117.998 65.9917 117.817C65.9023 117.667 66.558 117.547 67.6906 117.577C68.7337 117.607 71.2075 117.577 73.2342 117.577C76.3339 117.517 76.8405 117.457 76.5127 117.096C76.2147 116.795 76.0656 116.765 75.8868 117.036C75.708 117.246 75.6782 117.216 75.7378 116.946C75.9464 116.224 76.4531 116.254 77.4068 117.066C78.2712 117.787 79.672 118.058 79.97 117.547C80.0594 117.427 79.672 117.336 79.1355 117.427C78.5096 117.487 78.0625 117.366 77.9731 117.156C77.8837 116.856 78.2414 116.765 79.2845 116.765C80.3277 116.765 80.7151 116.886 80.6257 117.126C80.5363 117.336 80.6257 117.577 80.8046 117.697C80.9834 117.817 81.043 117.787 80.9536 117.637C80.5661 116.976 81.2218 116.585 82.1756 116.946C82.8909 117.186 83.2485 117.186 83.5466 116.946C83.8148 116.705 83.934 116.735 83.934 117.066C83.934 117.306 83.785 117.547 83.6062 117.547C83.4274 117.577 83.8148 117.697 84.4705 117.787C85.1262 117.907 85.9607 117.877 86.3184 117.757C86.8251 117.607 86.9443 117.637 86.8251 117.968C86.676 118.328 87.2423 118.358 90.193 118.268C94.7233 118.118 99.3132 117.667 100.028 117.246C100.356 117.096 100.863 116.946 101.191 116.976C102.085 117.036 104.35 116.315 104.827 115.834C105.065 115.593 105.453 115.443 105.691 115.533C105.93 115.623 106.496 115.323 106.973 114.812C107.45 114.301 108.046 113.91 108.314 113.91C108.553 113.91 108.761 113.64 108.761 113.309C108.761 112.888 108.91 112.768 109.298 112.888C109.626 113.009 109.685 112.979 109.447 112.798C108.94 112.438 109.208 108.921 109.924 106.968C110.251 106.036 110.609 104.713 110.728 104.022C110.848 103.361 111.026 102.85 111.116 102.94C111.235 103 111.295 102.67 111.205 102.219C111.146 101.738 111.295 100.897 111.563 100.356C111.801 99.7845 111.98 99.0632 111.92 98.7326C111.861 98.402 111.92 97.9812 112.07 97.831C112.457 97.32 112.844 91.79 112.725 88.3638C112.487 81.1206 112.457 73.126 112.666 72.1342C112.785 71.5632 112.964 69.9403 113.053 68.5577C113.172 67.1452 113.351 65.943 113.5 65.8528C113.709 65.6725 113.917 64.861 114.245 62.8173C114.573 60.5933 114.812 59.5113 115.02 59.5113C115.139 59.5113 115.229 59.0605 115.259 58.5495C115.288 58.0086 115.378 57.2271 115.467 56.8064C115.586 56.3856 115.735 55.6643 115.795 55.1834C115.884 54.7025 116.093 53.9812 116.242 53.6206C116.361 53.2299 116.57 52.0577 116.659 51.0359C116.957 47.6397 117.077 46.9785 117.673 44.4539C118.358 41.6889 118.776 38.6534 118.895 36.0687C119.044 32.1315 119.044 28.4949 118.835 25.5796ZM110.43 9.62058C110.341 9.62058 110.192 9.50037 110.102 9.32004C110.013 9.16976 110.073 9.01949 110.222 9.01949C110.4 9.01949 110.549 9.16976 110.549 9.32004C110.549 9.50037 110.49 9.62058 110.43 9.62058ZM109.655 39.0741C109.506 39.0741 109.357 38.9539 109.357 38.7736C109.357 38.6233 109.506 38.473 109.655 38.473C109.834 38.473 109.953 38.6233 109.953 38.7736C109.953 38.9539 109.834 39.0741 109.655 39.0741ZM108.702 8.23807C108.314 7.93752 107.956 7.57687 107.867 7.4867C107.778 7.39654 107.45 7.21621 107.122 7.09599C106.735 6.91567 106.645 6.79545 106.913 6.70528C107.36 6.52496 109.357 7.99763 109.357 8.47851C109.357 8.65884 109.059 8.56867 108.702 8.23807ZM108.91 36.5195C108.791 37.6916 108.672 38.9539 108.642 39.3747C108.582 39.7954 108.523 40.4266 108.523 40.8173C108.493 41.208 108.344 41.4485 108.165 41.3282C108.016 41.2381 107.927 41.6288 108.016 42.3801C108.076 43.0413 108.016 43.5823 107.897 43.5823C107.748 43.5823 107.539 44.1834 107.45 44.9348C107.331 45.6862 107.122 46.2872 106.973 46.2872C106.824 46.2872 106.735 46.708 106.794 47.2189C106.854 47.6998 106.675 48.902 106.377 49.8337C106.079 50.7654 105.9 51.7872 105.96 52.0878C105.989 52.3583 105.93 52.5987 105.781 52.5987C105.662 52.5987 105.602 52.8993 105.721 53.2599C105.84 53.7408 105.781 53.831 105.483 53.6506C105.185 53.4703 105.125 53.5304 105.274 53.8911C105.363 54.1616 105.334 54.4621 105.214 54.5222C104.976 54.6725 104.618 56.6561 104.41 59.0605C104.35 59.7217 104.231 60.4129 104.142 60.6233C104.082 60.8337 104.112 61.0741 104.261 61.1342C104.38 61.2244 104.44 61.7053 104.35 62.2463C104.261 62.9375 104.32 63.1479 104.559 62.9676C104.827 62.8173 104.827 62.9676 104.529 63.4485C104.32 63.8392 104.052 64.2299 103.963 64.32C103.724 64.5004 103.128 70.902 102.949 75.1397C102.77 79.9485 102.502 82.8337 101.936 86.4102C101.757 87.5823 101.459 90.8282 101.31 93.6233C101.131 96.4485 100.803 99.5441 100.535 100.536C100.267 101.528 99.9391 102.94 99.8198 103.692C99.6708 104.443 99.4324 105.465 99.2834 105.946C98.9853 106.998 99.1343 108.891 99.5516 109.041C99.7006 109.101 99.8198 109.342 99.8198 109.582C99.8198 109.823 100.088 110.003 100.416 110.003C100.923 110.003 100.982 110.063 100.654 110.424C100.416 110.694 100.207 110.724 100.088 110.514C99.9689 110.334 99.641 110.304 99.343 110.454C99.0151 110.574 98.6575 110.724 98.4786 110.785C98.3296 110.815 97.3759 111.085 96.3923 111.356C94.0378 112.047 86.527 112.197 81.9371 111.656C79.6422 111.386 76.2743 111.295 71.8036 111.386C65.4254 111.506 63.9054 111.566 60.7759 111.987C60.0308 112.077 59.3751 112.167 59.2857 112.167C59.1963 112.167 58.8684 112.317 58.5406 112.498C58.2127 112.678 55.9476 112.858 53.4738 112.888C47.4831 112.979 40.5088 113.369 40.5088 113.58C40.5088 113.67 38.8099 113.76 36.6938 113.76C34.6075 113.79 31.7761 113.88 30.3753 114.03C28.9745 114.151 27.3054 114.331 26.6497 114.391C21.3743 114.902 15.3538 114.241 14.2212 113.009C13.7145 112.438 12.5223 108.56 12.5223 107.418C12.5223 106.336 11.5984 101.738 11.2408 101.137C10.9129 100.566 10.5552 77.6643 10.5552 57.708C10.5552 50.0441 10.9725 37.2408 11.3004 33.7845C11.7474 29.3665 12.6714 26.2709 13.9828 24.7982C14.2808 24.4676 14.8769 23.6561 15.2942 22.9949C15.7412 22.3638 16.7248 21.1315 17.4997 20.29C18.2746 19.4184 19.1688 18.3965 19.5264 18.0058C20.4206 16.9539 23.252 14.3392 23.8481 13.9785C24.1461 13.8282 25.0999 13.2572 25.9642 12.7463C26.8285 12.2353 28.0207 11.7244 28.587 11.6042C30.8521 11.1534 32.4616 10.7025 32.4616 10.5222C32.4616 10.402 32.6404 10.3118 32.849 10.2818C33.0279 10.2517 34.3393 10.0413 35.7401 9.80091C37.1409 9.56047 38.959 9.25993 39.7637 9.13971C40.5982 9.04954 41.3433 8.89927 41.4626 8.83916C41.5818 8.749 42.3865 8.56867 43.2508 8.4184C44.1152 8.26812 46.0525 7.93752 47.5129 7.66703C49.0031 7.39654 52.0134 7.12605 54.2189 7.06594C56.4244 6.97577 59.1963 6.85556 60.3288 6.73534C61.4912 6.61512 64.6505 6.55501 67.3627 6.58506C70.4326 6.64517 72.3997 6.52495 72.5189 6.34463C72.6381 6.19435 73.3832 6.10419 74.2476 6.1643C75.0821 6.22441 76.006 6.1643 76.3339 5.98397C76.6319 5.8337 76.8704 5.80364 76.8704 5.95392C76.8704 6.07414 77.2876 6.22441 77.7645 6.25446C78.2712 6.28452 78.6586 6.19435 78.6586 6.01403C78.6586 5.80364 78.8375 5.77359 79.2249 6.01403C79.5528 6.1643 80.3873 6.31457 81.1026 6.31457C81.8179 6.31457 82.8909 6.46485 83.5466 6.64517C84.4705 6.88561 84.7686 6.88561 84.9474 6.55501C85.1858 6.19435 85.3348 6.40474 85.2454 6.97577C85.2454 7.09599 85.4243 7.12605 85.6627 7.03588C85.9905 6.91567 86.1098 7.06594 86.1098 7.54681C86.1098 8.20802 86.1396 8.20802 86.527 7.66703C86.9145 7.09599 87.0039 7.12605 90.1632 7.78725C92.5773 8.29818 93.7099 8.68889 94.7233 9.4102C95.4684 9.95118 96.1539 10.4621 96.1837 10.6124C96.3923 11.0332 100.058 13.5277 101.399 14.1288C102.145 14.4594 103.694 15.6616 104.827 16.7736C106.556 18.4867 106.943 19.0577 107.39 20.5905C107.688 21.5823 107.986 22.6042 108.076 22.8446C108.284 23.4157 108.344 23.626 108.731 26.0905C109.298 29.5168 109.328 31.4102 108.91 36.5195ZM107.986 46.5878C107.927 46.5878 107.867 46.3774 107.867 46.137C107.867 45.8965 107.986 45.6862 108.165 45.6862C108.314 45.6862 108.374 45.8965 108.284 46.137C108.165 46.3774 108.046 46.5878 107.986 46.5878ZM106.943 51.8474C106.526 52.9293 106.675 50.7654 107.122 49.443L107.539 48.2408L107.36 49.7435C107.271 50.5851 107.092 51.5168 106.943 51.8474ZM106.466 54.4922C106.407 54.2818 106.407 53.9211 106.466 53.7408C106.556 53.5304 106.615 53.6807 106.615 54.1015C106.615 54.5222 106.556 54.6725 106.466 54.4922ZM105.691 6.04408C105.423 5.74354 105.453 5.71348 105.87 5.89381C106.168 5.98397 106.317 6.1643 106.228 6.25446C106.138 6.34463 105.9 6.25446 105.691 6.04408ZM105.87 57.1971C105.811 56.9867 105.811 56.626 105.87 56.4457C105.96 56.2353 106.019 56.3856 106.019 56.8064C106.019 57.2271 105.96 57.3774 105.87 57.1971ZM105.185 61.014C105.036 61.014 104.887 60.9539 104.887 60.8938C104.887 60.8036 105.036 60.6534 105.185 60.5632C105.363 60.473 105.483 60.5331 105.483 60.6834C105.483 60.8638 105.363 61.014 105.185 61.014ZM88.1961 2.40747C88.0471 2.40747 87.898 2.34736 87.898 2.28725C87.898 2.19709 88.0471 2.04681 88.1961 1.95665C88.3749 1.86649 88.4941 1.92659 88.4941 2.07687C88.4941 2.2572 88.3749 2.40747 88.1961 2.40747ZM85.6329 117.727C85.5435 117.637 85.5137 117.366 85.6031 117.156C85.6925 116.916 85.7819 117.006 85.7819 117.336C85.8117 117.667 85.7223 117.847 85.6329 117.727ZM84.5599 117.427C84.3215 117.336 84.4109 117.246 84.7388 117.246C85.0666 117.216 85.2454 117.306 85.1262 117.397C85.0368 117.487 84.7686 117.517 84.5599 117.427ZM65.187 5.92386C64.9485 5.8337 65.038 5.74353 65.3658 5.74353C65.6937 5.71348 65.8725 5.80364 65.7533 5.89381C65.6638 5.98397 65.3956 6.01403 65.187 5.92386ZM63.3987 117.727C63.1901 117.637 63.3391 117.577 63.7564 117.577C64.1736 117.577 64.3226 117.637 64.1438 117.727C63.9352 117.787 63.5775 117.787 63.3987 117.727ZM60.9547 117.877C60.5375 117.968 60.0308 117.907 59.8222 117.787C59.5837 117.607 59.852 117.517 60.5673 117.517C61.8191 117.517 61.9979 117.697 60.9547 117.877ZM50.7616 3.51949C50.6722 3.42933 50.6424 3.15883 50.7318 2.94845C50.8212 2.70801 50.9106 2.79818 50.9106 3.12878C50.9404 3.45938 50.851 3.63971 50.7616 3.51949ZM43.7873 114.511C43.6383 114.511 43.4893 114.451 43.4893 114.391C43.4893 114.301 43.6383 114.151 43.7873 114.06C43.9661 113.97 44.0854 114.03 44.0854 114.181C44.0854 114.361 43.9661 114.511 43.7873 114.511ZM42.8336 115.323C42.5951 115.233 42.6845 115.142 43.0124 115.142C43.3402 115.112 43.5191 115.203 43.3998 115.293C43.3104 115.383 43.0422 115.413 42.8336 115.323ZM6.35281 18.1561C6.11437 18.2463 5.99516 18.2162 6.08457 18.0359C6.17398 17.8556 6.38261 17.7353 6.56144 17.7353C6.97871 17.7353 6.88929 17.9457 6.35281 18.1561ZM1.76291 39.5249C1.61389 39.6151 1.46486 39.4949 1.46486 39.2244C1.46486 38.9539 1.61389 38.8337 1.76291 38.9239C1.94174 39.014 2.06096 39.1643 2.06096 39.2244C2.06096 39.2845 1.94174 39.4348 1.76291 39.5249ZM1.76291 65.8228C1.61389 65.8228 1.49467 65.3719 1.49467 64.861L1.52447 63.8692L1.76291 64.7709C1.88213 65.2818 2.00135 65.7025 2.03115 65.7627C2.03115 65.7927 1.94174 65.8228 1.76291 65.8228ZM1.55428 63.3583C1.49467 63.0577 1.49467 62.5769 1.55428 62.3064C1.64369 62.0058 1.7033 62.2463 1.7033 62.8173C1.7033 63.3883 1.64369 63.6288 1.55428 63.3583ZM1.22643 51.096C1.10721 51.096 0.958187 50.7654 0.928382 50.3446C0.898578 49.9239 0.987991 49.5933 1.10721 49.5933C1.22643 49.5933 1.37545 49.9239 1.40525 50.3446C1.43506 50.7654 1.34565 51.096 1.22643 51.096Z" fill="#202020"/>
<path d="M45.558 47.118C46.3052 47.997 47.2062 48.1508 49.4038 47.6893C51.4915 47.2718 53.3374 46.5686 54.8977 45.6016L55.9745 44.9424L55.9745 60.3914C55.9745 68.874 56.0844 78.8291 56.1943 82.521C56.3261 86.2129 56.5019 92.52 56.6118 96.5416C56.7657 101.75 56.8975 103.947 57.0953 104.189C57.2931 104.453 57.8425 104.497 59.6884 104.453C61.908 104.387 62.0179 104.365 62.2596 103.838C62.4794 103.42 62.5892 97.4426 62.787 79.774C62.9189 66.8303 63.0068 53.6228 63.0068 50.3704C63.0068 47.14 63.0727 44.5029 63.1386 44.5029C63.2046 44.5029 64.0836 44.9424 65.0505 45.4698C68.0612 47.118 72.3465 48.3047 73.8628 47.9311C74.5661 47.7553 74.9616 46.7664 74.654 45.9313C74.5221 45.6016 73.8848 44.5688 73.2475 43.6458C68.303 36.5916 64.5671 28.7242 62.7211 21.4063C62.0618 18.8351 61.886 18.4835 61.0509 18.1319C60.1939 17.7803 59.0511 18.1539 58.3259 18.9889C58.0402 19.3406 57.5348 20.5712 57.1832 21.7799C55.513 27.6694 53.3594 33.1414 51.4255 36.3279C49.5136 39.4924 47.338 42.6349 46.1513 43.9095C44.8108 45.3819 44.679 46.0631 45.558 47.118ZM53.3594 40.5252C55.7548 37.119 57.6227 33.3831 59.2929 28.6143C59.5786 27.8012 59.8862 27.142 59.9521 27.142C60.0181 27.142 60.2598 27.6035 60.4796 28.1748C61.6443 31.2514 65.0066 37.2069 67.9733 41.4043C68.9622 42.8107 69.7314 43.9754 69.7094 44.0194C69.5775 44.1732 66.8525 42.8766 64.6989 41.646C62.2157 40.2176 61.5564 40.0637 60.8971 40.7889C60.5015 41.2285 60.4796 41.8658 60.4796 59.5343C60.5015 69.5773 60.6114 80.9168 60.7653 84.7186C60.8971 88.5204 61.0729 94.1462 61.1608 97.1789L61.3146 102.739L59.7324 102.739L58.1721 102.739L58.1721 98.7172C58.1721 96.5196 58.282 88.2787 58.3919 80.4333C58.5017 72.566 58.6116 60.5232 58.6556 53.6448L58.6995 41.1625L58.0842 40.6131C57.2711 39.9319 56.6997 40.0637 55.0955 41.2944C53.6451 42.4371 51.4695 43.5799 51.6453 43.1404C51.7112 42.9645 52.4804 41.7998 53.3594 40.5252Z" fill="white"/>
</svg>
