<svg width="189" height="175" viewBox="0 0 189 175" fill="none" xmlns="http://www.w3.org/2000/svg">
<path d="M47.9242 83.8784C48.0621 83.6865 48.2388 83.538 48.4545 83.4328C48.7565 83.2855 49.0791 83.235 49.4221 83.2814C49.5578 83.3042 49.6864 83.3305 49.8077 83.3603C49.9291 83.3901 50.0397 83.4163 50.1397 83.4387C50.254 83.4542 50.3971 83.4556 50.569 83.443C50.7408 83.4303 50.8911 83.4283 51.0199 83.4367C51.5635 83.4564 52.3716 83.5073 53.4441 83.5894L55.9005 83.7532C57.3165 83.8459 58.5537 83.919 59.6122 83.9723L61.3505 84.0324C62.3736 84.0497 63.2462 84.0869 63.9684 84.1442C64.7049 84.1944 65.4194 84.3088 66.1117 84.4873C66.6326 84.6428 67.0708 84.8296 67.4264 85.0477C67.7821 85.2659 68.0511 85.562 68.2334 85.9359L68.3276 86.1837C68.5906 87.0879 68.5412 88.0999 68.1795 89.2198C67.9132 90.0974 67.5042 90.9377 66.9525 91.7409C66.4151 92.537 65.7521 93.3677 64.9636 94.2329C63.604 95.6792 61.9684 97.1801 60.0568 98.7355C59.8547 98.9052 59.7069 99.0219 59.6132 99.0853L58.834 99.7324L57.6986 100.58C57.3454 100.841 56.9059 101.145 56.3801 101.49C56.3296 101.532 56.2358 101.614 56.0987 101.734C55.9689 101.833 55.8465 101.91 55.7314 101.967C55.6739 101.995 55.5806 102.022 55.4515 102.05C55.1215 102.139 54.8828 102.033 54.7355 101.731C54.6373 101.53 54.597 101.265 54.6146 100.936C54.6107 100.599 54.6421 100.317 54.7088 100.089C54.8947 99.3751 55.3592 98.7213 56.1021 98.1276C56.2536 98.0003 56.3332 97.908 56.3409 97.8508C56.356 97.7723 56.3252 97.636 56.2484 97.4421C56.1221 97.1832 55.9471 96.7879 55.7234 96.2562C55.1721 94.8339 54.7356 93.7562 54.4136 93.0231C54.1345 92.3048 53.9179 91.7696 53.764 91.4174C53.7433 91.3385 53.7121 91.238 53.6704 91.1159C53.6216 90.9795 53.5552 90.825 53.471 90.6524C53.3798 90.4655 53.2669 90.3069 53.1322 90.1768C52.4725 89.5907 51.5489 88.9196 50.3614 88.1637C50.3684 88.1781 50.3861 88.1962 50.4145 88.2179C50.4503 88.2183 50.4894 88.2437 50.5318 88.2942C50.1835 88.0546 49.6394 87.7237 48.8994 87.3013C48.8068 87.2575 48.6965 87.1956 48.5685 87.1156C48.4404 87.0356 48.3301 86.9737 48.2375 86.9298C48.1734 86.9077 48.0878 86.8783 47.9808 86.8414C47.8668 86.7902 47.7742 86.7464 47.703 86.7099C47.561 86.6012 47.4619 86.4893 47.4058 86.3742C47.2515 86.0578 47.2484 85.6499 47.3964 85.1505C47.5301 84.6581 47.706 84.234 47.9242 83.8784ZM59.7256 95.3189C60.894 94.3931 62.1246 93.3211 63.4175 92.1031C64.111 91.4445 64.6639 90.881 65.0764 90.4128C65.4889 89.9446 65.8411 89.4257 66.133 88.8561C65.4705 88.5562 64.7855 88.3562 64.078 88.2562C63.378 88.1348 62.4059 88.0215 61.1619 87.9162L59.0706 87.7345L55.6714 87.3897C56.94 88.6401 57.8969 89.9269 58.5421 91.2499C59.012 92.2134 59.3418 93.2364 59.5315 94.3188L59.7256 95.3189ZM73.0432 84.9786L73.081 85.4942L75.2117 86.0304L74.7556 85.4785C74.4586 85.1249 73.8399 84.3675 72.8997 83.2061L73.0432 84.9786ZM72.4302 77.4805C73.2418 78.6334 74.1142 79.7833 75.0474 80.9303C75.988 82.0559 77.088 83.3441 78.3474 84.7948C79.536 86.1733 80.3212 87.0899 80.7031 87.5444C80.7385 87.5806 80.7773 87.6418 80.8194 87.7281C80.9877 88.0732 80.9408 88.4699 80.6788 88.9181C80.4098 89.352 80.0667 89.6706 79.6497 89.874C79.3045 90.0423 78.9929 90.0786 78.7148 89.9828C78.0803 89.7404 77.4348 89.5301 76.7782 89.3519C76.1216 89.1736 75.2757 88.9721 74.2403 88.7472L73.2444 88.5119C73.2717 90.1008 73.2707 91.2851 73.2415 92.0648C73.2461 92.3296 73.0782 92.6607 72.738 93.058C72.4051 93.434 72.0589 93.7096 71.6994 93.885C71.2967 94.0814 71.0323 94.0501 70.906 93.7913C70.8709 93.7194 70.8504 93.6226 70.8445 93.5009C70.7569 92.2263 70.6712 90.7549 70.5875 89.0868L70.504 87.7657C69.9691 87.5816 69.7017 87.4895 69.7017 87.4895C69.5519 87.4379 69.4455 87.3474 69.3823 87.218C69.2631 86.9735 69.3091 86.6663 69.5202 86.2962C69.7244 85.9118 70.0031 85.589 70.3563 85.3277C70.24 83.3373 70.0665 81.3391 69.8359 79.3332C69.7952 79.1038 69.8908 78.8436 70.1227 78.5525C70.3619 78.24 70.6435 77.978 70.9676 77.7665C71.177 77.5754 71.368 77.4378 71.5406 77.3536C71.9433 77.1572 72.2398 77.1995 72.4302 77.4805ZM84.4571 72.2823C85.3885 75.0679 86.4188 77.6184 87.548 79.9337C88.0951 81.0554 88.6923 82.1704 89.3397 83.2788C89.4105 83.3511 89.46 83.416 89.4881 83.4735C89.5091 83.5166 89.5263 83.5884 89.5396 83.6887C89.5466 83.7031 89.5429 83.7138 89.5285 83.7208L89.5496 83.7639C89.5825 84.0505 89.4864 84.3644 89.2612 84.7056C89.029 85.0325 88.7401 85.298 88.3947 85.5021C87.8475 85.8402 87.4287 85.8575 87.1383 85.5541C85.9757 84.4478 84.2658 82.9675 82.0085 81.1134L81.4551 80.6356C82.2168 82.4893 83.0812 84.4442 84.0484 86.5003C84.1957 86.8023 84.1276 87.1738 83.8442 87.6146C83.5538 88.0411 83.2 88.356 82.783 88.5594C82.5241 88.6857 82.291 88.737 82.0838 88.7135C81.8765 88.69 81.7239 88.5597 81.6261 88.3226C79.8046 84.3689 78.279 80.5291 77.0492 76.8031L77.0287 76.7063C76.8456 76.404 76.8995 76.0217 77.1903 75.5594C77.4811 75.0972 77.835 74.7643 78.2521 74.5609C78.6835 74.3505 79.0197 74.3646 79.2606 74.6031C80.331 75.6298 81.7996 76.9073 83.6665 78.4356C83.0935 77.0417 82.5747 75.5947 82.11 74.0946C82.0129 73.7859 82.1203 73.422 82.4321 73.0029C82.7369 72.5694 83.0907 72.2545 83.4933 72.0581C84.011 71.8056 84.3323 71.8803 84.4571 72.2823ZM86.4887 72.1726C86.3628 71.878 86.4486 71.5246 86.7461 71.1125C87.0365 70.6861 87.3831 70.3746 87.7857 70.1782C88.0158 70.066 88.2273 70.0252 88.4202 70.0557C88.6061 70.0718 88.741 70.1841 88.8248 70.3924L93.9119 82.4107C94.0448 82.7197 93.9661 83.0874 93.6756 83.5139C93.3782 83.926 93.0281 84.2303 92.6254 84.4266C92.0934 84.6862 91.7328 84.6039 91.5438 84.1798L86.4887 72.1726ZM85.0569 69.3463C85.1263 69.5616 85.2503 69.6881 85.4288 69.7256C85.6217 69.7561 85.8332 69.7153 86.0633 69.6031C86.4516 69.4137 86.7944 69.113 87.0919 68.7009C87.3894 68.2888 87.486 67.9212 87.3819 67.5982C87.1462 66.823 86.9623 66.2452 86.8301 65.8646C86.7123 65.477 86.4017 65.406 85.8984 65.6515C85.5101 65.8408 85.16 66.1451 84.8482 66.5642C84.5364 66.9833 84.4327 67.3365 84.5372 67.6237L85.0569 69.3463ZM103.613 75.356C103.864 75.3227 104.035 75.3996 104.126 75.5865C104.239 75.8166 104.225 76.1349 104.085 76.5414C103.93 76.9907 103.615 77.331 103.141 77.5625C102.911 77.6747 102.702 77.7406 102.516 77.7603C101.635 77.8875 100.885 78.102 100.267 78.4035C99.188 78.9296 98.2562 79.8113 97.4712 81.0486C97.3473 81.2692 97.1698 81.4893 96.9387 81.7088C96.7149 81.907 96.488 82.0622 96.2579 82.1744C96.0422 82.2796 95.8521 82.3278 95.6876 82.319C95.5161 82.2959 95.3882 82.198 95.3041 82.0254C95.255 81.9248 95.2273 81.8315 95.2209 81.7456C95.0699 80.3773 94.8886 79.1662 94.6772 78.1122C94.4802 77.0512 94.1898 76.0179 93.8062 75.0123C93.3044 73.6549 92.9062 72.6742 92.6116 72.0702C91.8331 70.474 90.9277 69.4024 89.8955 68.8555C89.7816 68.8043 89.6895 68.7068 89.6194 68.563C89.4791 68.2754 89.5507 67.9111 89.8341 67.4703C90.1105 67.015 90.4428 66.6927 90.8311 66.5034C91.09 66.3771 91.305 66.3435 91.4761 66.4024C91.6982 66.3831 91.8765 66.4385 92.0112 66.5687C92.8336 67.3425 93.7225 67.9058 94.6779 68.2587C95.6263 68.5973 96.5319 68.5561 97.3947 68.1353C97.5529 68.0581 97.7762 67.9136 98.0645 67.7018C98.2518 67.5749 98.3742 67.4974 98.4318 67.4693C98.6762 67.3501 98.884 67.3199 99.0552 67.3789C99.2337 67.4164 99.3686 67.5286 99.4597 67.7156C99.5579 67.9169 99.5698 68.1603 99.4955 68.4458C99.4355 68.7243 99.2899 68.9733 99.0587 69.1929C98.5673 69.6818 98.0268 70.07 97.4372 70.3576C96.7325 70.7012 95.9865 70.8871 95.1991 70.9151C95.5631 71.7344 95.8217 72.356 95.975 72.7797L96.4868 74.2123C96.9985 73.8381 97.5173 73.4783 98.0431 73.1328L98.3346 72.964C98.9098 72.6834 99.2921 72.7373 99.4815 73.1256C99.6077 73.3844 99.5761 73.6847 99.3867 74.0263C99.1973 74.3679 98.9656 74.6411 98.6916 74.8459C98.2879 75.1496 97.7223 75.5412 96.9949 76.0206C97.1804 76.8024 97.3304 77.5481 97.4451 78.2576C98.2259 77.4496 99.1052 76.8071 100.083 76.3301C101.162 75.8041 102.338 75.4794 103.613 75.356ZM99.9119 58.8168C99.8074 58.5296 99.9183 58.1729 100.244 57.7468C100.564 57.3062 100.917 56.9913 101.306 56.8019C101.766 56.5775 102.073 56.6414 102.227 56.9935C103.252 59.6799 104.604 63.4178 106.281 68.2073C107.444 71.4675 108.199 73.5823 108.547 74.5518C108.666 74.8678 108.569 75.2532 108.257 75.7081C107.952 76.1416 107.598 76.4566 107.196 76.6529C106.635 76.9265 106.274 76.8442 106.114 76.4061C104.205 71.2137 102.137 65.3506 99.9119 58.8168ZM71.0205 104.79C71.589 104.46 71.989 104.531 72.2205 105.006C72.3397 105.25 72.3974 105.569 72.3935 105.963C72.397 106.335 72.3614 106.682 72.2866 107.003C72.2119 107.324 72.1093 107.57 71.9788 107.741C71.8557 107.89 71.6935 108.013 71.4921 108.112L70.8776 108.385C70.6763 108.483 70.5251 108.574 70.4241 108.659C69.7896 109.147 69.133 109.698 68.4542 110.314C68.4398 110.321 68.2992 110.434 68.0323 110.653C67.9818 110.696 67.8555 110.802 67.6534 110.972C67.4588 111.12 67.2892 111.265 67.1447 111.407C67.0145 111.541 66.9346 111.669 66.9047 111.791C66.8311 112.005 66.8679 112.263 67.0152 112.565C67.1554 112.852 67.3813 113.169 67.6927 113.516C68.0115 113.841 68.1956 114.036 68.2451 114.101C68.6207 114.47 68.8613 114.744 68.9669 114.924C69.4439 114.442 70.0288 113.908 70.7215 113.321C71.4073 112.719 72.0521 112.271 72.6561 111.976C73.5046 111.563 74.0516 111.607 74.2971 112.111C74.4093 112.341 74.4596 112.681 74.448 113.132C74.415 113.575 74.3039 113.95 74.1149 114.256C73.9258 114.561 73.7015 114.813 73.4419 115.011C73.1754 115.195 72.8081 115.427 72.3402 115.709C72.2539 115.751 72.128 115.821 71.9624 115.92C71.8113 116.011 71.6817 116.092 71.5736 116.163C71.5087 116.212 71.3611 116.311 71.1306 116.459C70.8932 116.592 70.7057 116.737 70.5682 116.893C70.3946 117.085 70.2895 117.216 70.253 117.287C70.2239 117.337 70.2339 117.412 70.283 117.513C70.3251 117.599 70.381 117.732 70.4508 117.912C70.6184 118.329 70.8411 118.968 71.1188 119.829L71.275 120.314C71.6082 121.362 71.871 122.284 72.0635 123.08C72.256 123.876 72.3697 124.675 72.4048 125.477C72.4138 126.007 72.3472 126.6 72.2047 127.257C72.0766 127.907 71.8328 128.319 71.4733 128.495C71.3727 128.544 71.2687 128.568 71.1613 128.567C70.8394 128.563 70.5171 128.231 70.1944 127.57C69.984 127.138 69.7333 126.442 69.4422 125.48L69.265 124.952L68.0425 121.57C67.8202 120.895 67.6463 120.392 67.5207 120.062L67.2592 120.456C66.8081 121.21 66.4388 121.658 66.1512 121.798C66.0361 121.854 65.9286 121.871 65.8287 121.848C65.6217 121.789 65.4762 121.673 65.392 121.501C65.2447 121.199 65.2416 120.791 65.3826 120.277C65.5237 119.763 65.6926 119.325 65.8894 118.962C65.9697 118.798 66.0714 118.641 66.1945 118.492C66.3836 118.187 66.5006 117.934 66.5455 117.734C66.5978 117.512 66.5433 117.236 66.3819 116.906C66.2627 116.661 66.0791 116.412 65.8312 116.16C65.6611 115.993 65.4585 115.852 65.2235 115.735C64.9815 115.604 64.8356 115.524 64.7858 115.494C64.4442 115.305 64.181 115.149 63.9962 115.025C63.8043 114.887 63.6558 114.711 63.5506 114.495C63.4664 114.322 63.4149 114.107 63.396 113.849C63.3729 113.291 63.5214 112.738 63.8417 112.19C64.1763 111.635 64.6441 111.006 65.245 110.304L65.7011 109.761C66.5995 108.646 67.4713 107.678 68.3166 106.857C69.1693 106.013 70.0706 105.325 71.0205 104.79ZM73.6279 105.014C73.5234 104.727 73.6342 104.37 73.9604 103.944C74.2796 103.503 74.6334 103.188 75.0217 102.999C75.4819 102.775 75.7889 102.838 75.9429 103.191C76.9682 105.877 78.3195 109.615 79.9968 114.404C81.1596 117.664 81.9151 119.779 82.2633 120.749C82.3819 121.065 82.285 121.45 81.9728 121.905C81.668 122.339 81.3143 122.654 80.9116 122.85C80.3508 123.124 79.9902 123.041 79.83 122.603C77.9206 117.411 75.8532 111.548 73.6279 105.014ZM86.0044 112.035L86.0422 112.551L88.1729 113.087L87.7168 112.535C87.4198 112.181 86.8011 111.424 85.8609 110.263L86.0044 112.035ZM85.3915 104.537C86.203 105.69 87.0754 106.84 88.0086 107.987C88.9492 109.112 90.0492 110.401 91.3086 111.851C92.4972 113.23 93.2824 114.146 93.6643 114.601C93.6997 114.637 93.7385 114.698 93.7806 114.785C93.9489 115.13 93.9021 115.526 93.64 115.975C93.371 116.408 93.0279 116.727 92.6109 116.93C92.2657 117.099 91.9541 117.135 91.676 117.039C91.0415 116.797 90.396 116.587 89.7394 116.408C89.0829 116.23 88.2369 116.029 87.2015 115.804L86.2056 115.568C86.2329 117.157 86.2319 118.342 86.2027 119.121C86.2073 119.386 86.0394 119.717 85.6992 120.114C85.3663 120.49 85.0201 120.766 84.6606 120.941C84.2579 121.138 83.9935 121.107 83.8672 120.848C83.8321 120.776 83.8116 120.679 83.8057 120.557C83.7181 119.283 83.6324 117.811 83.5487 116.143L83.4652 114.822C82.9303 114.638 82.6629 114.546 82.6629 114.546C82.5131 114.494 82.4067 114.404 82.3435 114.274C82.2243 114.03 82.2703 113.723 82.4814 113.353C82.6856 112.968 82.9643 112.645 83.3175 112.384C83.2012 110.394 83.0277 108.396 82.7971 106.39C82.7564 106.16 82.852 105.9 83.0839 105.609C83.3231 105.296 83.6048 105.034 83.9289 104.823C84.1383 104.632 84.3292 104.494 84.5018 104.41C84.9045 104.214 85.201 104.256 85.3915 104.537ZM99.1141 98.2714C99.1639 98.3005 99.2312 98.3656 99.3161 98.4666C100.351 100.151 102.025 102.798 104.336 106.405L105.816 108.728C106.013 109.023 105.97 109.391 105.687 109.832C105.418 110.266 105.068 110.588 104.636 110.798C104.377 110.925 104.13 110.983 103.894 110.974C103.665 110.943 103.488 110.816 103.361 110.593C102.199 108.685 100.977 106.726 99.6944 104.717C99.713 105.741 99.6999 106.7 99.6553 107.594C99.6539 107.737 99.6021 107.904 99.5001 108.096C99.3973 108.36 99.2301 108.62 98.9986 108.875C98.7745 109.109 98.533 109.289 98.2741 109.415C97.8283 109.633 97.4599 109.626 97.1688 109.394C96.6294 108.945 96.0689 108.453 95.4874 107.917L95.6952 108.617C96.0904 109.902 96.5892 111.563 97.1916 113.602C97.2958 113.925 97.1811 114.31 96.8475 114.757C96.5213 115.183 96.1496 115.498 95.7326 115.702C95.5025 115.814 95.3017 115.858 95.1302 115.835C94.9587 115.812 94.8417 115.7 94.7793 115.499C93.0867 110.094 91.8739 106.093 91.1411 103.495C91.0513 103.165 91.166 102.78 91.4852 102.339C91.8044 101.899 92.1617 101.591 92.557 101.416C92.773 101.275 92.9777 101.202 93.1709 101.197C93.3716 101.17 93.5248 101.229 93.6308 101.373C94.7828 102.823 95.9546 104.094 97.1459 105.186C97.084 103.489 96.9722 101.764 96.8106 100.009C96.7777 99.7224 96.8989 99.4052 97.1743 99.0573C97.464 98.7023 97.7886 98.4372 98.1481 98.2618C98.5796 98.0514 98.9015 98.0546 99.1141 98.2714ZM111.079 92.4357C111.129 92.4648 111.196 92.5299 111.281 92.6309C112.317 94.3156 113.99 96.9619 116.301 100.57L117.781 102.892C117.979 103.187 117.936 103.556 117.652 103.996C117.383 104.43 117.033 104.752 116.602 104.963C116.343 105.089 116.095 105.147 115.859 105.138C115.631 105.107 115.453 104.98 115.326 104.757C114.164 102.849 112.942 100.891 111.66 98.8816C111.678 99.9051 111.665 100.864 111.621 101.758C111.619 101.901 111.567 102.069 111.465 102.261C111.363 102.525 111.195 102.784 110.964 103.039C110.74 103.273 110.498 103.453 110.239 103.58C109.794 103.797 109.425 103.79 109.134 103.558C108.595 103.109 108.034 102.617 107.453 102.082L107.66 102.781C108.056 104.066 108.554 105.728 109.157 107.766C109.261 108.089 109.146 108.474 108.813 108.922C108.487 109.348 108.115 109.663 107.698 109.866C107.468 109.978 107.267 110.023 107.095 110C106.924 109.976 106.807 109.864 106.745 109.663C105.052 104.258 103.839 100.257 103.106 97.6594C103.017 97.3294 103.131 96.9441 103.45 96.5036C103.77 96.0631 104.127 95.7553 104.522 95.5803C104.738 95.4393 104.943 95.3662 105.136 95.361C105.337 95.3343 105.49 95.3931 105.596 95.5373C106.748 96.9869 107.92 98.2579 109.111 99.3502C109.049 97.6537 108.937 95.928 108.776 94.1733C108.743 93.8867 108.864 93.5695 109.14 93.2216C109.429 92.8667 109.754 92.6015 110.113 92.4262C110.545 92.2158 110.867 92.2189 111.079 92.4357ZM127.255 97.2035C127.506 97.1702 127.677 97.2471 127.768 97.434C127.88 97.6641 127.866 97.9824 127.726 98.3889C127.571 98.8382 127.257 99.1786 126.782 99.41C126.552 99.5222 126.344 99.5881 126.158 99.6078C125.276 99.735 124.526 99.9495 123.908 100.251C122.829 100.777 121.898 101.659 121.113 102.896C120.989 103.117 120.811 103.337 120.58 103.556C120.356 103.755 120.129 103.91 119.899 104.022C119.684 104.127 119.494 104.175 119.329 104.167C119.158 104.143 119.03 104.046 118.946 103.873C118.896 103.772 118.869 103.679 118.862 103.593C118.711 102.225 118.53 101.014 118.319 99.9597C118.122 98.8987 117.831 97.8654 117.448 96.8598C116.946 95.5024 116.548 94.5217 116.253 93.9177C115.475 92.3215 114.569 91.2499 113.537 90.703C113.423 90.6518 113.331 90.5543 113.261 90.4105C113.121 90.1229 113.192 89.7586 113.476 89.3178C113.752 88.8625 114.084 88.5402 114.473 88.3509C114.731 88.2246 114.946 88.191 115.118 88.2499C115.34 88.2306 115.518 88.286 115.653 88.4162C116.475 89.19 117.364 89.7533 118.319 90.1062C119.268 90.4448 120.173 90.4036 121.036 89.9828C121.194 89.9056 121.418 89.7611 121.706 89.5493C121.893 89.4224 122.016 89.3449 122.073 89.3168C122.318 89.1976 122.526 89.1674 122.697 89.2264C122.875 89.2639 123.01 89.3761 123.101 89.5631C123.199 89.7644 123.211 90.0078 123.137 90.2933C123.077 90.5718 122.931 90.8208 122.7 91.0404C122.209 91.5293 121.668 91.9175 121.079 92.2051C120.374 92.5487 119.628 92.7346 118.841 92.7626C119.205 93.5819 119.463 94.2035 119.616 94.6272L120.128 96.0598C120.64 95.6856 121.159 95.3258 121.685 94.9803L121.976 94.8115C122.551 94.5309 122.934 94.5848 123.123 94.9731C123.249 95.2319 123.218 95.5322 123.028 95.8738C122.839 96.2154 122.607 96.4886 122.333 96.6934C121.929 96.9971 121.364 97.3887 120.636 97.8681C120.822 98.6499 120.972 99.3956 121.087 100.105C121.867 99.2971 122.747 98.6546 123.725 98.1776C124.803 97.6516 125.98 97.3269 127.255 97.2035ZM129.898 89.2388C130.242 88.5194 130.502 87.903 130.679 87.3896C130.87 86.8691 130.975 86.3907 130.993 85.9544C130.118 86.1318 128.807 86.3621 127.058 86.6454L129.086 91.0769C129.342 90.507 129.488 90.1686 129.525 90.0616L129.898 89.2388ZM134.844 90.5649C134.847 90.2787 134.997 89.9653 135.293 89.6248C135.583 89.2699 135.901 89.0082 136.246 88.8399C136.72 88.6085 137.031 88.6437 137.178 88.9457C137.221 89.032 137.248 89.1432 137.261 89.2793C137.345 90.9474 137.551 92.5022 137.88 93.9438C137.949 94.2665 137.87 94.6342 137.644 95.047C137.592 95.3041 137.446 95.571 137.207 95.8477C136.982 96.1174 136.726 96.3224 136.439 96.4627C136.194 96.5819 135.968 96.6298 135.761 96.6063C135.568 96.5758 135.412 96.4561 135.292 96.2474C134.779 95.3408 134.052 94.6359 133.113 94.1329C132.188 93.6228 131.237 93.4632 130.262 93.6539L131.68 96.8343C131.799 97.1146 131.692 97.4785 131.358 97.926C131.039 98.3665 130.678 98.6849 130.275 98.8813C130.06 98.9865 129.869 99.0347 129.705 99.026C129.533 99.0028 129.406 98.9049 129.321 98.7324L127.934 95.724C127.684 95.6857 127.517 95.5803 127.433 95.4077C127.335 95.2064 127.348 94.9597 127.472 94.6675C126.268 92.0151 125.081 89.3629 123.912 86.7109C123.779 86.4019 123.854 86.0449 124.138 85.6398C124.428 85.2133 124.775 84.9019 125.177 84.7055C125.479 84.5582 125.73 84.5249 125.93 84.6056C127.707 84.2725 129.564 83.9545 131.499 83.6516C131.73 83.4678 131.896 83.3514 131.996 83.3023C132.241 83.1831 132.456 83.1494 132.641 83.2014C132.834 83.2319 132.983 83.355 133.088 83.5707C133.376 84.1603 133.448 84.8015 133.305 85.4942C133.156 86.1725 132.883 86.982 132.487 87.9226L132.245 88.5213C131.885 89.5339 131.507 90.4568 131.112 91.2902C132.453 91.0458 133.721 91.2372 134.917 91.8644C134.904 91.6925 134.88 91.2594 134.844 90.5649Z" fill="#202020"/>
<path d="M0.0943761 123.413C0.20512 126.44 0.500435 129.541 0.721922 130.242C1.38638 132.162 2.27233 136.85 2.27233 138.585C2.27233 139.397 2.53073 140.394 2.82605 140.8C3.12136 141.169 3.37976 141.833 3.37976 142.239C3.37976 142.682 3.56434 143.199 3.82274 143.457C4.08114 143.716 4.15497 143.9 4.00731 143.9C3.85965 143.9 4.08114 144.491 4.4872 145.192C4.89326 145.931 5.22549 146.669 5.22549 146.854C5.22549 147.075 5.81612 148.478 6.51749 150.028C7.21887 151.542 7.8095 152.944 7.8095 153.092C7.8095 153.24 8.62162 154.643 9.65522 156.193C10.6519 157.743 11.5009 159.146 11.5009 159.331C11.5009 159.774 15.6354 166.972 15.9676 167.083C16.1522 167.157 16.2998 167.378 16.2998 167.563C16.2998 168.006 18.9208 170.479 19.4006 170.479C19.5852 170.479 20.2866 170.885 20.9141 171.402C22.8706 172.878 25.8238 173.801 29.8474 174.17C33.1328 174.503 34.1295 174.466 37.5995 173.801C41.7708 172.989 43.5796 172.583 46.016 171.771C48.0463 171.106 49.6336 170.7 50.0027 170.774C50.2981 170.848 52.9559 169.851 55.6137 168.67C56.4259 168.301 57.7548 167.784 58.5669 167.563C61.1509 166.75 64.7685 164.868 67.2418 163.096C68.5707 162.136 69.9735 161.176 70.3795 160.955C71.5239 160.401 79.7189 157.706 82.0076 157.19C83.115 156.931 84.3701 156.488 84.7762 156.267C85.1822 156.008 85.9943 155.676 86.5481 155.565C87.1387 155.418 89.7965 154.236 92.5282 152.944C95.223 151.616 97.5486 150.545 97.7331 150.545C97.8808 150.545 98.2869 150.324 98.5822 150.028C99.3205 149.364 104.636 147.333 106.371 147.001C107.072 146.89 107.995 146.669 108.401 146.484C109.952 145.857 112.499 144.934 113.016 144.823C113.606 144.676 117.778 142.719 119.291 141.87C119.808 141.575 120.583 141.316 120.989 141.316C121.432 141.316 122.171 141.021 122.65 140.652C123.13 140.283 123.869 139.84 124.275 139.692C126.305 138.954 133.392 135.927 135.164 135.041C136.272 134.487 137.822 133.934 138.561 133.786C139.336 133.638 139.963 133.417 139.963 133.269C139.963 133.121 140.96 132.678 142.178 132.346C143.396 131.977 144.467 131.534 144.578 131.349C144.688 131.165 145.021 131.091 145.279 131.202C145.574 131.313 145.906 131.239 146.017 131.017C146.165 130.796 146.46 130.722 146.756 130.833C147.014 130.943 147.641 130.833 148.158 130.648C149.118 130.279 150.668 130.943 150.668 131.756C150.668 131.977 151.887 133.343 153.326 134.819C155.394 136.887 156.759 137.846 159.159 138.991C162.518 140.615 163.478 140.837 168.387 141.279C172.227 141.612 176.176 141.243 177.395 140.43C177.911 140.098 178.576 139.84 178.908 139.84C179.203 139.84 179.462 139.655 179.462 139.397C179.462 139.175 179.572 139.065 179.683 139.212C180.089 139.581 184.002 137.403 185.257 136.075C188.838 132.346 189.798 120.681 186.955 115.366C186.623 114.738 186.291 114.11 186.291 114C186.254 113.889 186.143 113.557 185.996 113.261C185.405 111.748 184.741 108.795 184.408 106.211C184.334 105.657 183.928 104.365 183.522 103.294C183.116 102.261 182.599 100.12 182.378 98.5695C182.156 97.056 181.603 95.0257 181.123 94.1028C179.905 91.7034 179.24 90.0791 178.576 88.0857C178.244 87.126 177.838 86.0185 177.653 85.6863C176.656 83.8406 175.364 80.4445 174.663 77.8974C174.22 76.3469 173.74 74.7227 173.555 74.3167C173.408 73.9106 172.891 72.5078 172.411 71.1789C171.968 69.85 171.488 68.5949 171.341 68.4103C171.193 68.1889 170.787 67.0814 170.418 65.9371C169.901 64.3128 169.569 63.7591 168.757 63.4269C167.243 62.7993 166.689 62.0241 166.173 59.7354C165.914 58.628 165.36 57.0776 164.991 56.3393C164.585 55.5641 164.216 54.752 164.179 54.4936C164.105 54.2352 163.884 53.6076 163.699 53.0908C163.478 52.574 163.182 51.5773 163.035 50.876C162.887 50.1746 162.518 49.1041 162.223 48.5134C161.484 47.1107 159.934 42.8655 157.682 36.1471C156.686 33.2309 155.541 30.13 155.135 29.281C154.729 28.3951 154.286 27.14 154.175 26.4386C154.065 25.7741 153.806 25.1466 153.659 25.0358C153.474 24.9251 153.216 24.2976 153.068 23.6331C152.92 22.9686 152.588 21.9719 152.293 21.4182C151.997 20.8645 151.776 20.0524 151.776 19.5725C151.776 19.1295 151.628 18.7604 151.444 18.7604C151.075 18.7604 150.632 17.653 149.561 13.9615C148.786 11.3037 146.091 6.20948 145.5 6.20948C145.316 6.20948 144.319 5.47119 143.286 4.58524C142.215 3.66238 140.517 2.66569 139.483 2.33346C138.413 2.00123 137.379 1.55825 137.195 1.4106C136.973 1.22602 135.792 0.967622 134.611 0.856879C133.392 0.746136 131.879 0.487734 131.288 0.303162C129.664 -0.176726 118.922 -0.0659819 114.677 0.487735C111.576 0.85688 104.636 2.40729 102.68 3.14558C102.384 3.25632 101.941 3.40398 101.757 3.44089C97.0318 4.54833 83.1519 9.34721 78.9068 11.3406C78.0946 11.7466 76.6919 12.3742 75.8059 12.7064C74.9569 13.0756 74.2555 13.4816 74.2555 13.6293C74.2555 13.7769 73.9602 13.9615 73.5911 14.1092C73.2588 14.2199 72.4467 14.6629 71.8561 15.032C71.2285 15.4381 70.2319 16.0287 69.5674 16.361C68.9029 16.6932 68.2016 17.21 67.9432 17.5053C67.7217 17.8006 67.3525 18.0221 67.131 18.0221C66.9465 18.0221 66.5035 18.3174 66.1713 18.6497C64.8793 20.0524 60.265 23.9284 59.8958 23.9284C59.6743 23.9284 59.4897 24.1868 59.4897 24.4821C59.4897 24.7775 59.2683 25.0359 59.0099 25.0359C58.7884 25.0359 57.0534 26.5124 55.2446 28.2843C53.3989 30.0562 51.184 32.0496 50.2611 32.6771C48.5631 33.8584 47.4187 34.892 44.0595 38.4727C42.9521 39.6171 41.9185 40.5399 41.7339 40.5399C41.5493 40.5399 41.4017 40.6876 41.4017 40.8352C41.4017 40.9829 40.6634 41.9058 39.7405 42.8655C38.8177 43.7884 37.821 45.1173 37.4887 45.7818C37.1934 46.4462 36.8243 47.2584 36.6028 47.5537C36.4182 47.849 35.5692 49.3256 34.7201 50.8021C33.8711 52.2787 32.9852 53.6076 32.7637 53.7553C32.4684 53.9399 30.881 58.1481 30.5119 59.7354C30.475 59.8462 30.3273 60.6583 30.1427 61.5812C29.9582 62.504 29.8105 63.3162 29.7736 63.4269C29.1091 66.6385 28.74 70.4406 28.6662 75.2395C28.6293 79.2263 28.2232 81.515 27.5956 81.5519C26.5251 81.6257 25.7868 81.8841 24.6794 82.5855C24.0519 82.9916 22.9444 83.6191 22.28 83.9144C21.6155 84.2466 20.988 84.7265 20.8403 85.0219C20.7296 85.3172 20.4342 85.5756 20.1758 85.5756C19.8805 85.5756 19.4376 85.834 19.1053 86.1293C18.81 86.4615 17.8133 87.2736 16.8905 87.975C15.9676 88.6764 14.3803 90.0791 13.3467 91.1127C12.2761 92.1094 11.3164 92.9585 11.1687 92.9585C11.0211 92.9585 10.4304 93.6229 9.80288 94.472C9.21225 95.2841 8.25247 96.5023 7.69875 97.1298C7.10812 97.7943 6.48058 98.6433 6.296 99.0493C6.11143 99.4554 5.55772 100.452 5.04091 101.264C4.56102 102.076 3.97039 103.147 3.78582 103.664C3.56433 104.18 3.2321 104.882 3.01062 105.214C2.82605 105.583 2.30924 107.318 1.90318 109.127C1.49713 110.936 0.980323 112.892 0.758836 113.483C0.0205468 115.292 -0.127111 117.617 0.0943761 123.413ZM9.43373 115.661C9.54448 115.033 9.76596 113.963 9.91362 113.261C10.0244 112.56 10.172 111.896 10.2089 111.785C10.2459 111.674 10.3935 111.01 10.5412 110.308C10.7257 109.607 10.9472 108.832 11.058 108.647C11.2056 108.426 11.3533 107.983 11.3902 107.577C11.5009 106.838 12.1285 105.399 13.6789 102.224C15.34 98.7909 23.1659 91.5188 28.0386 88.8979C28.6662 88.5656 29.8843 88.418 31.4348 88.4549C33.2436 88.4918 34.2403 88.3442 35.2739 87.7904C37.8948 86.4615 37.8948 86.4984 37.9317 75.9778C37.9686 66.3431 38.1532 64.7927 39.7036 60.5845C39.9989 59.7724 40.3311 58.6649 40.4419 58.185C40.6265 57.1883 42.8782 52.7955 45.0193 49.3256C46.4959 46.9261 52.3283 40.7245 55.2077 38.5096C56.6473 37.4022 59.7851 34.6336 61.9261 32.5664C65.2484 29.3918 72.0776 23.5593 72.4836 23.5593C72.6682 23.5593 72.7051 23.3378 72.5575 23.0794C72.4098 22.8579 72.4098 22.7472 72.5575 22.8948C72.7051 23.0056 74.4032 22.0458 76.3597 20.7169C78.2792 19.3879 80.8632 17.9114 82.1183 17.3946C83.3734 16.8778 85.2191 16.1395 86.2527 15.7334C87.2494 15.3273 89.6858 14.5152 91.6053 13.9246C93.5249 13.334 96.3673 12.4111 97.8808 11.8943C102.015 10.4916 110.764 8.23977 114.861 7.5384C118.331 6.94777 130.107 6.57862 131.99 7.02159C133.503 7.39074 134.463 7.5384 135.607 7.64914C135.977 7.64914 137.232 8.64583 138.413 9.82709C140.738 12.1527 141.366 13.4447 143.286 19.8678C143.913 22.0089 144.651 24.2237 144.91 24.8513C145.168 25.4419 146.017 27.9521 146.756 30.3884C147.531 32.8248 148.454 35.5565 148.823 36.4793C149.192 37.4022 149.746 39.1372 150.115 40.3554C150.447 41.5735 150.89 42.7548 151.075 42.9763C151.259 43.1978 151.333 43.4562 151.222 43.5669C151.111 43.6777 151.259 43.973 151.591 44.2314C151.887 44.4898 152.145 45.0435 152.145 45.4865C152.145 45.9294 152.293 46.4462 152.477 46.6677C152.773 47 153.695 50.0269 153.659 50.5807C153.659 50.7283 154.065 51.6512 154.544 52.574C155.061 53.5338 155.467 54.5674 155.467 54.8627C155.467 55.195 155.984 56.3393 156.612 57.4467C157.239 58.5542 158.051 60.6214 158.42 62.098C159.343 65.6418 159.676 66.417 161.189 68.6318C161.89 69.6654 162.481 70.8098 162.481 71.1789C162.481 71.5112 162.739 72.2864 162.998 72.877C163.552 73.9844 164.327 76.6054 165.324 80.7767C165.656 82.1056 166.357 83.9882 166.948 85.0218C167.501 86.0185 168.203 87.6797 168.498 88.7133C168.793 89.71 169.642 91.6664 170.344 93.0323C171.894 95.9485 172.596 98.1265 173.223 101.633C173.445 103.036 173.961 104.993 174.331 105.989C174.737 106.949 175.217 108.942 175.438 110.419C175.623 111.859 176.472 115.07 177.321 117.507C179.646 124.52 179.757 126.624 177.985 130.5C177.468 131.645 176.841 132.235 175.586 132.863C173.998 133.675 173.74 133.675 170.676 133.306C168.904 133.084 166.948 132.678 166.357 132.42C165.73 132.162 165.065 131.94 164.881 131.94C163.847 131.829 160.968 130.205 160.746 129.615C160.635 129.245 160.229 128.618 159.897 128.212C159.528 127.806 158.827 126.292 158.273 124.816C157.202 121.973 156.649 121.567 153.991 121.715C153.289 121.752 152.182 121.641 151.554 121.456C150.742 121.198 149.598 121.309 147.309 121.899C145.611 122.342 144.024 122.785 143.839 122.933C143.618 123.044 142.843 123.265 142.067 123.413C141.329 123.561 140.591 123.819 140.48 124.004C140.369 124.188 140.037 124.336 139.705 124.336C139.373 124.336 138.265 124.742 137.232 125.222C136.198 125.702 134.5 126.44 133.503 126.883C132.47 127.326 131.362 127.843 130.993 128.064C130.624 128.249 128.963 128.913 127.302 129.541C124.164 130.685 123.758 130.87 115.969 134.561C110.875 136.997 109.583 137.514 108.217 137.773C107.7 137.846 106.223 138.252 104.931 138.695C103.639 139.138 102.311 139.471 102.052 139.471C101.757 139.471 101.055 139.729 100.465 140.024C99.8742 140.32 99.099 140.615 98.7298 140.689C97.9177 140.837 93.5618 142.83 91.2362 144.122C87.9139 145.968 83.5211 147.924 81.4169 148.552C80.1988 148.884 77.9839 149.659 76.4704 150.287C74.9569 150.877 73.4434 151.431 73.1481 151.468C72.8528 151.505 72.336 151.616 72.0407 151.763C71.7454 151.874 70.6379 152.243 69.5674 152.538C67.0941 153.24 66.4297 153.609 63.4765 155.971C62.1107 157.042 60.8187 157.928 60.6341 157.928C60.4126 157.928 60.228 158.039 60.228 158.186C60.228 158.555 58.087 159.774 57.4595 159.774C57.2011 159.774 56.9057 159.921 56.8319 160.106C56.6473 160.623 47.8617 163.465 43.2474 164.536C42.3245 164.72 39.9251 165.311 37.8948 165.828C35.8645 166.344 33.7604 166.714 33.2805 166.603C32.7637 166.492 31.3609 166.234 30.1427 166.012C28.9615 165.791 27.5218 165.385 27.005 165.126C25.4915 164.351 22.3169 161.361 21.4309 159.847C20.988 159.109 20.102 157.633 19.4376 156.636C18.7731 155.602 17.8133 153.867 17.2596 152.76C16.7059 151.652 16.0045 150.25 15.6723 149.659C15.1555 148.699 14.0111 145.672 12.2023 140.578C10.9841 137.145 9.17533 128.729 9.47065 127.916C9.58139 127.658 9.50756 126.957 9.28608 126.366C8.91693 125.222 9.02768 117.617 9.43373 115.661Z" fill="#202020"/>
</svg>
